M48
; DRILL file {KiCad 7.0.6-7.0.6~ubuntu22.04.1} date Fri 18 Aug 2023 05:19:46 PM EDT
; FORMAT={-:-/ absolute / metric / decimal}
; #@! TF.CreationDate,2023-08-18T17:19:46-04:00
; #@! TF.GenerationSoftware,Kicad,Pcbnew,7.0.6-7.0.6~ubuntu22.04.1
; #@! TF.FileFunction,Plated,1,4,PTH
FMAT,2
METRIC
; #@! TA.AperFunction,Plated,PTH,ViaDrill
T1C0.150
; #@! TA.AperFunction,Plated,PTH,ViaDrill
T2C0.200
; #@! TA.AperFunction,Plated,PTH,ComponentDrill
T3C0.200
; #@! TA.AperFunction,Plated,PTH,ComponentDrill
T4C0.300
; #@! TA.AperFunction,Plated,PTH,ComponentDrill
T5C0.350
; #@! TA.AperFunction,Plated,PTH,ComponentDrill
T6C0.500
; #@! TA.AperFunction,Plated,PTH,ComponentDrill
T7C1.000
; #@! TA.AperFunction,Plated,PTH,ComponentDrill
T8C1.170
; #@! TA.AperFunction,Plated,PTH,ComponentDrill
T9C1.300
%
G90
G05
T1
X70.989Y-154.629
X70.989Y-155.129
X70.989Y-155.629
X71.489Y-154.629
X71.489Y-155.129
X71.989Y-154.629
X71.989Y-155.629
X72.487Y-155.13
X72.489Y-154.629
X72.489Y-155.629
X72.989Y-155.629
X79.277Y-113.006
X79.774Y-112.004
X79.775Y-112.504
X80.274Y-113.003
X82.9Y-150.35
X82.9Y-150.75
X82.9Y-151.15
X83.195Y-110.073
X83.3Y-150.35
X83.7Y-150.35
X84.395Y-110.073
X87.4Y-156.85
X87.9Y-156.85
X87.9Y-157.35
X103.672Y-125.1
X104.344Y-127.657
X104.744Y-127.657
X104.744Y-128.057
X105.144Y-127.257
X105.144Y-127.657
X105.147Y-128.409
X105.544Y-127.257
X105.944Y-127.257
X106.344Y-127.257
X106.744Y-127.257
X107.09Y-109.155
X107.488Y-107.893
X107.49Y-108.755
X107.49Y-109.155
X107.89Y-108.355
X107.89Y-108.755
X107.89Y-109.155
X108.29Y-108.355
X108.29Y-108.755
X108.29Y-109.155
X123.495Y-115.573
X125.88Y-119.69
X126.317Y-120.36
X126.32Y-119.96
X126.717Y-119.16
X126.717Y-119.56
X126.717Y-120.36
X127.117Y-119.16
X127.117Y-119.56
X127.117Y-119.96
X127.517Y-119.962
X127.917Y-118.76
X127.917Y-119.16
X127.917Y-120.36
T2
X60.75Y-158.25
X61.0Y-153.2
X61.4Y-125.6
X61.5Y-106.9
X61.5Y-107.5
X61.654Y-116.208
X61.9Y-158.8
X62.1Y-106.9
X62.1Y-107.5
X62.25Y-148.75
X62.7Y-106.9
X62.7Y-107.5
X62.95Y-119.15
X63.0Y-117.9
X63.05Y-121.2
X63.125Y-122.975
X63.3Y-106.9
X63.3Y-107.5
X63.35Y-117.15
X63.4Y-114.7
X63.45Y-134.2
X63.5Y-132.0
X63.9Y-106.9
X63.9Y-107.5
X64.5Y-107.5
X64.5Y-108.1
X64.5Y-152.0
X64.7Y-108.7
X64.9Y-114.7
X65.0Y-122.299
X65.001Y-123.351
X65.1Y-108.1
X65.3Y-108.7
X65.6Y-127.25
X65.6Y-149.45
X65.671Y-157.6
X65.7Y-158.4
X65.75Y-141.0
X65.75Y-155.25
X65.75Y-156.52
X65.77Y-118.275
X66.0Y-136.0
X66.3Y-126.55
X66.381Y-108.384
X66.381Y-108.9
X66.4Y-151.3
X66.695Y-123.58
X66.75Y-129.65
X66.871Y-158.787
X66.895Y-120.173
X67.0Y-127.4
X67.195Y-118.273
X67.197Y-118.875
X67.295Y-119.573
X67.5Y-146.0
X67.569Y-124.788
X67.6Y-127.4
X67.68Y-112.475
X67.75Y-116.5
X67.9Y-153.2
X67.95Y-117.2
X68.295Y-127.873
X68.35Y-132.4
X68.4Y-105.3
X68.5Y-120.3
X68.9Y-112.575
X69.05Y-131.3
X69.05Y-133.0
X69.177Y-103.03
X69.189Y-96.922
X69.5Y-139.8
X69.6Y-113.0
X69.6Y-158.45
X69.7Y-156.09
X70.0Y-121.4
X70.119Y-128.538
X70.151Y-139.851
X70.171Y-156.529
X70.2Y-112.475
X70.3Y-134.3
X70.669Y-128.013
X70.695Y-121.673
X70.75Y-143.5
X70.775Y-134.8
X70.775Y-139.875
X70.776Y-152.53
X70.884Y-119.235
X71.15Y-158.45
X71.25Y-156.8
X71.291Y-121.216
X71.45Y-110.95
X71.568Y-115.132
X71.594Y-139.847
X71.6Y-114.1
X71.8Y-99.15
X71.8Y-126.0
X71.943Y-119.191
X71.989Y-156.8
X72.0Y-152.8
X72.2Y-104.3
X72.2Y-139.8
X72.295Y-121.173
X72.395Y-121.773
X72.4Y-114.5
X72.45Y-151.9
X72.47Y-128.14
X72.476Y-112.474
X72.5Y-126.0
X72.5Y-134.25
X72.5Y-136.1
X72.535Y-119.438
X72.6Y-156.713
X72.7Y-158.5
X73.087Y-152.8
X73.12Y-128.25
X73.3Y-108.4
X73.5Y-146.3
X73.9Y-156.713
X74.16Y-122.804
X74.16Y-123.554
X74.16Y-124.304
X74.19Y-149.433
X74.3Y-152.9
X74.4Y-140.073
X74.81Y-140.51
X74.954Y-118.414
X75.102Y-150.948
X75.25Y-142.7
X75.65Y-133.35
X75.78Y-128.15
X76.025Y-114.532
X76.058Y-103.948
X76.058Y-104.698
X76.058Y-105.448
X76.058Y-106.198
X76.11Y-126.83
X76.15Y-127.55
X76.195Y-97.191
X76.2Y-151.9
X76.4Y-154.629
X76.495Y-116.373
X76.65Y-153.75
X76.71Y-122.173
X76.71Y-123.673
X76.795Y-122.873
X76.808Y-103.948
X76.808Y-104.698
X76.808Y-105.448
X76.808Y-106.198
X76.895Y-119.173
X76.895Y-120.173
X76.995Y-121.028
X77.081Y-117.538
X77.1Y-124.4
X77.1Y-127.1
X77.1Y-158.6
X77.2Y-139.05
X77.201Y-110.061
X77.4Y-126.3
X77.495Y-112.873
X77.495Y-113.773
X77.558Y-103.948
X77.558Y-104.698
X77.558Y-105.448
X77.558Y-106.198
X77.7Y-125.7
X77.76Y-98.97
X77.8Y-115.5
X78.05Y-118.3
X78.14Y-101.15
X78.25Y-145.75
X78.4Y-157.2
X78.4Y-158.608
X78.996Y-119.773
X79.095Y-126.198
X79.195Y-120.473
X79.25Y-158.5
X79.35Y-151.35
X79.45Y-155.3
X79.5Y-132.0
X79.695Y-126.198
X79.7Y-136.7
X80.1Y-148.9
X80.2Y-124.75
X80.2Y-158.608
X80.295Y-126.198
X80.3Y-100.2
X80.3Y-123.05
X80.4Y-121.8
X80.5Y-114.7
X80.5Y-116.1
X80.745Y-119.8
X80.8Y-148.9
X80.9Y-139.6
X81.395Y-112.473
X81.65Y-158.45
X81.795Y-114.673
X81.8Y-123.8
X81.85Y-151.4
X81.9Y-96.7
X82.1Y-135.2
X82.35Y-147.85
X82.392Y-115.958
X82.395Y-119.873
X82.5Y-144.75
X82.695Y-129.473
X83.154Y-112.275
X83.7Y-146.4
X83.7Y-147.4
X83.75Y-141.5
X83.795Y-132.573
X84.1Y-135.7
X84.495Y-127.273
X84.5Y-124.2
X84.695Y-115.947
X84.795Y-126.173
X84.85Y-96.5
X85.1Y-147.9
X85.5Y-114.8
X85.5Y-121.0
X85.6Y-91.8
X85.6Y-129.593
X85.695Y-123.773
X85.7Y-131.726
X85.8Y-122.2
X86.0Y-156.0
X86.1Y-103.35
X86.2Y-143.9
X86.25Y-126.25
X86.4Y-99.9
X86.6Y-132.153
X86.75Y-128.25
X86.75Y-129.5
X87.05Y-100.2
X87.1Y-97.15
X87.1Y-141.5
X87.2Y-103.45
X87.25Y-125.25
X87.3Y-131.2
X87.395Y-124.173
X87.5Y-108.55
X87.5Y-132.95
X87.5Y-147.826
X87.75Y-100.45
X87.911Y-143.842
X88.0Y-95.45
X88.0Y-156.0
X88.1Y-110.2
X88.246Y-120.4
X88.5Y-126.0
X88.6Y-143.8
X88.736Y-143.2
X88.75Y-153.25
X88.753Y-129.518
X88.85Y-151.15
X89.0Y-97.45
X89.25Y-145.25
X89.3Y-106.8
X89.5Y-126.0
X89.725Y-130.675
X90.075Y-125.375
X90.75Y-145.25
X90.8Y-121.2
X91.16Y-91.72
X91.2Y-106.8
X91.6Y-119.8
X91.6Y-121.2
X91.789Y-110.732
X91.91Y-94.8
X92.049Y-144.556
X92.049Y-145.406
X92.05Y-106.85
X92.549Y-145.006
X92.6Y-118.2
X92.6Y-118.8
X92.75Y-95.95
X92.9Y-127.6
X92.999Y-144.531
X93.024Y-145.406
X93.15Y-106.8
X93.279Y-117.38
X93.3Y-116.8
X93.35Y-103.55
X93.4Y-139.55
X93.695Y-114.173
X93.695Y-114.973
X93.795Y-113.373
X93.931Y-116.803
X93.952Y-117.397
X94.05Y-111.45
X94.2Y-91.8
X94.295Y-113.773
X94.295Y-114.573
X94.4Y-121.9
X94.65Y-101.45
X94.995Y-113.073
X95.127Y-114.172
X95.142Y-117.113
X95.2Y-120.4
X95.395Y-107.973
X95.75Y-135.5
X95.795Y-110.973
X95.795Y-117.073
X96.0Y-126.2
X96.0Y-139.0
X96.1Y-101.0
X96.124Y-150.426
X96.395Y-111.273
X96.4Y-146.7
X96.4Y-147.3
X96.4Y-147.9
X96.5Y-121.1
X96.6Y-153.7
X96.924Y-141.806
X96.924Y-142.506
X96.924Y-143.231
X97.0Y-91.4
X97.0Y-96.85
X97.0Y-117.0
X97.0Y-146.7
X97.0Y-147.3
X97.0Y-147.9
X97.186Y-102.693
X97.255Y-108.483
X97.5Y-139.0
X97.5Y-140.0
X97.5Y-144.5
X97.524Y-141.806
X97.524Y-142.506
X97.524Y-143.231
X97.868Y-127.892
X98.0Y-135.5
X98.395Y-103.673
X98.395Y-107.373
X98.5Y-147.0
X98.518Y-127.892
X98.75Y-152.85
X98.9Y-100.8
X98.9Y-122.3
X99.1Y-140.9
X99.2Y-129.5
X99.249Y-141.594
X99.25Y-150.93
X99.25Y-154.75
X99.295Y-124.173
X99.395Y-111.573
X99.4Y-152.85
X99.5Y-94.2
X99.5Y-145.0
X99.857Y-150.907
X99.9Y-130.4
X99.95Y-154.75
X100.0Y-132.75
X100.0Y-152.85
X100.195Y-107.373
X100.3Y-120.85
X100.395Y-111.573
X100.4Y-147.1
X100.484Y-150.916
X100.547Y-156.764
X100.6Y-152.85
X100.75Y-116.5
X100.75Y-136.75
X100.75Y-137.5
X100.84Y-129.846
X101.0Y-141.0
X101.0Y-142.0
X101.235Y-119.75
X101.25Y-152.85
X101.295Y-112.973
X101.5Y-137.0
X101.593Y-158.536
X101.593Y-96.89
X101.595Y-111.573
X102.0Y-146.2
X102.064Y-103.074
X102.095Y-120.163
X102.115Y-120.833
X102.115Y-121.398
X102.115Y-121.963
X102.25Y-133.0
X102.25Y-137.5
X102.417Y-128.6
X102.455Y-125.25
X102.5Y-130.75
X102.575Y-155.125
X102.695Y-120.173
X102.715Y-120.843
X102.715Y-121.408
X102.715Y-121.973
X102.8Y-151.0
X102.852Y-125.572
X102.971Y-126.6
X102.995Y-111.573
X102.995Y-112.873
X103.0Y-141.0
X103.0Y-142.0
X103.395Y-128.773
X103.4Y-116.3
X103.5Y-137.75
X103.5Y-139.25
X103.5Y-148.0
X103.595Y-128.173
X103.995Y-128.873
X104.0Y-156.6
X104.4Y-116.5
X104.4Y-133.2
X104.595Y-112.873
X104.695Y-111.573
X104.795Y-129.373
X105.1Y-133.5
X105.325Y-146.775
X105.325Y-147.575
X105.595Y-150.873
X105.65Y-159.075
X105.8Y-133.75
X105.85Y-147.175
X105.9Y-112.5
X105.9Y-115.6
X106.325Y-146.725
X106.35Y-147.575
X106.75Y-133.72
X106.861Y-111.658
X107.0Y-157.025
X107.335Y-116.913
X108.025Y-155.1
X108.495Y-107.573
X108.5Y-101.2
X108.8Y-96.6
X108.847Y-126.959
X108.85Y-159.075
X108.857Y-127.673
X109.195Y-115.073
X110.0Y-150.0
X110.0Y-155.0
X110.25Y-143.95
X110.25Y-144.675
X110.25Y-145.425
X110.8Y-132.6
X110.85Y-143.95
X110.85Y-144.65
X110.85Y-145.425
X111.131Y-114.843
X112.1Y-102.25
X112.29Y-109.079
X112.3Y-122.0
X112.4Y-112.3
X112.5Y-94.2
X112.75Y-115.718
X112.9Y-114.8
X112.918Y-110.808
X113.695Y-111.573
X113.9Y-107.2
X114.0Y-97.4
X114.0Y-99.85
X114.75Y-113.55
X115.0Y-145.0
X115.0Y-150.0
X115.0Y-155.0
X115.6Y-112.85
X115.612Y-113.559
X115.65Y-114.35
X116.1Y-92.0
X116.2Y-98.7
X116.45Y-113.55
X117.495Y-120.173
X117.621Y-108.124
X118.25Y-99.875
X118.275Y-97.425
X118.8Y-124.425
X118.8Y-125.025
X118.8Y-125.59
X118.8Y-126.155
X118.915Y-105.187
X119.4Y-124.435
X119.4Y-125.035
X119.4Y-125.6
X119.4Y-126.165
X120.0Y-135.0
X120.0Y-140.0
X120.0Y-145.0
X120.0Y-150.0
X120.0Y-155.0
X120.1Y-107.9
X120.1Y-108.5
X120.3Y-119.8
X120.319Y-111.413
X120.319Y-112.913
X120.795Y-120.373
X121.495Y-118.373
X121.495Y-119.273
X122.19Y-112.875
X122.195Y-115.473
X122.197Y-114.351
X122.25Y-104.6
X122.3Y-107.8
X123.0Y-126.0
X123.395Y-113.473
X123.995Y-112.373
X124.73Y-118.17
X124.795Y-120.763
X124.795Y-121.363
X124.795Y-121.928
X124.795Y-122.493
X124.868Y-111.315
X124.878Y-110.715
X125.0Y-135.0
X125.0Y-140.0
X125.0Y-145.0
X125.0Y-150.0
X125.0Y-155.0
X125.395Y-120.773
X125.395Y-121.373
X125.395Y-121.938
X125.395Y-122.503
X125.468Y-111.315
X125.478Y-110.715
X125.8Y-94.8
X125.821Y-123.957
X125.829Y-124.465
X126.033Y-111.315
X126.043Y-110.715
X126.598Y-111.315
X126.608Y-110.715
X127.095Y-99.221
X127.239Y-98.741
X127.5Y-102.2
X127.65Y-107.25
X127.8Y-97.4
X128.05Y-100.55
X128.4Y-112.7
X128.45Y-99.0
X128.6Y-107.75
X128.7Y-104.2
X128.8Y-97.45
X128.995Y-118.773
X129.05Y-100.55
X129.395Y-118.173
X129.592Y-99.237
X129.689Y-93.192
X129.736Y-98.756
X129.795Y-121.573
X129.95Y-120.95
X130.0Y-135.0
X130.0Y-140.0
X130.0Y-145.0
X130.0Y-150.0
X130.0Y-155.0
X130.8Y-96.9
X131.85Y-110.35
X131.9Y-108.4
X132.5Y-118.0
X133.1Y-111.9
X133.1Y-112.5
X133.145Y-116.107
X133.2Y-101.9
X133.3Y-105.0
X133.85Y-112.8
X133.85Y-113.5
X133.96Y-119.79
X135.0Y-135.0
X135.0Y-140.0
X135.0Y-145.0
X135.0Y-150.0
X135.0Y-155.0
X135.5Y-126.5
X135.9Y-101.5
X136.0Y-114.0
X136.0Y-118.0
X136.6Y-91.9
X136.8Y-95.3
X137.0Y-103.6
X137.5Y-116.0
X137.5Y-124.0
X137.5Y-129.0
X138.7Y-96.7
X139.0Y-114.0
X139.0Y-118.0
X139.0Y-121.0
X139.0Y-126.5
T3
X90.136Y-142.692
X90.711Y-141.742
X90.711Y-143.642
X91.286Y-142.692
X93.9Y-157.8
X95.0Y-157.8
X103.455Y-144.85
X104.03Y-143.9
X104.03Y-145.8
X104.605Y-144.85
X125.2Y-112.85
X126.3Y-112.85
T4
X70.317Y-136.85
X70.317Y-137.85
X71.317Y-136.85
X71.317Y-137.85
X82.627Y-121.99
X82.627Y-122.99
X83.627Y-121.99
X83.627Y-122.99
T5
X70.625Y-122.481
X70.625Y-123.756
X70.625Y-125.031
X71.9Y-122.481
X71.9Y-123.756
X71.9Y-125.031
X73.175Y-122.481
X73.175Y-123.756
X73.175Y-125.031
T6
X127.605Y-108.835
X127.605Y-110.835
T7
X68.99Y-92.27
X71.53Y-92.27
X74.07Y-92.27
X76.61Y-92.27
X79.15Y-92.27
T8
X63.0Y-143.9
X82.74Y-92.54
X109.6Y-92.0
X116.159Y-121.57
X119.3Y-121.553
X135.6Y-120.8
X136.4Y-99.0
T9
X66.75Y-98.9
X87.75Y-98.85
T6
G00X95.84Y-152.85
M15
G01X96.14Y-152.85
M16
G05
G00X97.8Y-150.05
M15
G01X98.7Y-150.05
M16
G05
G00X99.35Y-155.65
M15
G01X100.65Y-155.65
M16
G05
G00X101.3Y-150.05
M15
G01X102.2Y-150.05
M16
G05
G00X103.86Y-152.85
M15
G01X104.16Y-152.85
M16
G05
G00X123.81Y-91.69
M15
G01X123.81Y-92.29
M16
G05
G00X124.17Y-97.64
M15
G01X124.17Y-98.24
M16
G05
G00X132.43Y-97.64
M15
G01X132.43Y-98.24
M16
G05
G00X132.79Y-91.69
M15
G01X132.79Y-92.29
M16
G05
T7
G00X62.87Y-109.485
M15
G01X62.87Y-110.185
M16
G05
G00X137.13Y-109.485
M15
G01X137.13Y-110.185
M16
G05
T0
M30
