%TF.GenerationSoftware,KiCad,Pcbnew,7.0.6-7.0.6~ubuntu22.04.1*%
%TF.CreationDate,2023-08-18T16:08:42-04:00*%
%TF.ProjectId,robot,726f626f-742e-46b6-9963-61645f706362,rev?*%
%TF.SameCoordinates,Original*%
%TF.FileFunction,Other,User*%
%FSLAX46Y46*%
G04 Gerber Fmt 4.6, Leading zero omitted, Abs format (unit mm)*
G04 Created by KiCad (PCBNEW 7.0.6-7.0.6~ubuntu22.04.1) date 2023-08-18 16:08:42*
%MOMM*%
%LPD*%
G01*
G04 APERTURE LIST*
%ADD10C,0.050000*%
%ADD11C,0.100000*%
%ADD12C,0.150000*%
%ADD13C,0.152400*%
G04 APERTURE END LIST*
D10*
%TO.C,Q5*%
X85575342Y-124900042D02*
X80679460Y-124900042D01*
X85575342Y-120080158D02*
X85575342Y-124900042D01*
X80679460Y-124900042D02*
X80679460Y-120080158D01*
X80679460Y-120080158D02*
X85575342Y-120080158D01*
%TO.C,Q6*%
X73227442Y-134902058D02*
X73227442Y-139797940D01*
X68407558Y-134902058D02*
X73227442Y-134902058D01*
X73227442Y-139797940D02*
X68407558Y-139797940D01*
X68407558Y-139797940D02*
X68407558Y-134902058D01*
%TO.C,J1*%
X133500000Y-100549999D02*
X123100000Y-100549999D01*
X123100000Y-100549999D02*
X123100000Y-89249999D01*
X123100000Y-89249999D02*
X133500000Y-89249999D01*
X133500000Y-89249999D02*
X133500000Y-100549999D01*
%TO.C,H2*%
X124600000Y-152500000D02*
G75*
G03*
X124600000Y-152500000I-3100000J0D01*
G01*
%TO.C,R85*%
X88478682Y-145586065D02*
X85518682Y-145586065D01*
X88478682Y-144126065D02*
X88478682Y-145586065D01*
X85518682Y-145586065D02*
X85518682Y-144126065D01*
X85518682Y-144126065D02*
X88478682Y-144126065D01*
%TO.C,C101*%
X92150000Y-149820000D02*
X95550000Y-149820000D01*
X92150000Y-151780000D02*
X92150000Y-149820000D01*
X95550000Y-149820000D02*
X95550000Y-151780000D01*
X95550000Y-151780000D02*
X92150000Y-151780000D01*
%TO.C,R9*%
X129570000Y-119830000D02*
X131430000Y-119830000D01*
X129570000Y-120770000D02*
X129570000Y-119830000D01*
X131430000Y-119830000D02*
X131430000Y-120770000D01*
X131430000Y-120770000D02*
X129570000Y-120770000D01*
%TO.C,U23*%
X99300000Y-149400000D02*
X99300000Y-148200000D01*
X100100000Y-149400000D02*
X99300000Y-149400000D01*
X99300000Y-148200000D02*
X100100000Y-148200000D01*
X100100000Y-148200000D02*
X100100000Y-149400000D01*
%TO.C,D3*%
X86693334Y-91100000D02*
X89043334Y-91100000D01*
X89043334Y-91100000D02*
X89043334Y-89700000D01*
X89043334Y-89700000D02*
X86693334Y-89700000D01*
X86693334Y-89700000D02*
X86693334Y-91100000D01*
%TO.C,TP3*%
X73515000Y-148716000D02*
X73515000Y-146684000D01*
X74785000Y-148716000D02*
X73515000Y-148716000D01*
X73515000Y-146684000D02*
X74785000Y-146684000D01*
X74785000Y-146684000D02*
X74785000Y-148716000D01*
%TO.C,TP9*%
X132765000Y-110816000D02*
X132765000Y-108784000D01*
X134035000Y-110816000D02*
X132765000Y-110816000D01*
X132765000Y-108784000D02*
X134035000Y-108784000D01*
X134035000Y-108784000D02*
X134035000Y-110816000D01*
%TO.C,TP25*%
X89855000Y-119876000D02*
X89855000Y-117844000D01*
X91125000Y-119876000D02*
X89855000Y-119876000D01*
X89855000Y-117844000D02*
X91125000Y-117844000D01*
X91125000Y-117844000D02*
X91125000Y-119876000D01*
%TO.C,TP16*%
X61515000Y-125216000D02*
X61515000Y-123184000D01*
X62785000Y-125216000D02*
X61515000Y-125216000D01*
X61515000Y-123184000D02*
X62785000Y-123184000D01*
X62785000Y-123184000D02*
X62785000Y-125216000D01*
%TO.C,R31*%
X87181130Y-143821529D02*
X87181130Y-140861529D01*
X88641130Y-143821529D02*
X87181130Y-143821529D01*
X87181130Y-140861529D02*
X88641130Y-140861529D01*
X88641130Y-140861529D02*
X88641130Y-143821529D01*
%TO.C,C78*%
X106499200Y-117532800D02*
X106499200Y-120492800D01*
X105039200Y-117532800D02*
X106499200Y-117532800D01*
X106499200Y-120492800D02*
X105039200Y-120492800D01*
X105039200Y-120492800D02*
X105039200Y-117532800D01*
%TO.C,C34*%
X106845892Y-133402869D02*
X106845892Y-130442869D01*
X108305892Y-133402869D02*
X106845892Y-133402869D01*
X106845892Y-130442869D02*
X108305892Y-130442869D01*
X108305892Y-130442869D02*
X108305892Y-133402869D01*
%TO.C,C10*%
X74183600Y-119179900D02*
X74183600Y-117359900D01*
X75103600Y-119179900D02*
X74183600Y-119179900D01*
X74183600Y-117359900D02*
X75103600Y-117359900D01*
X75103600Y-117359900D02*
X75103600Y-119179900D01*
%TO.C,U22*%
X100450000Y-157900000D02*
X100450000Y-159100000D01*
X99650000Y-157900000D02*
X100450000Y-157900000D01*
X100450000Y-159100000D02*
X99650000Y-159100000D01*
X99650000Y-159100000D02*
X99650000Y-157900000D01*
%TO.C,R79*%
X90880000Y-109380000D02*
X87920000Y-109380000D01*
X90880000Y-107920000D02*
X90880000Y-109380000D01*
X87920000Y-109380000D02*
X87920000Y-107920000D01*
X87920000Y-107920000D02*
X90880000Y-107920000D01*
%TO.C,U4*%
X108840000Y-107930200D02*
X105340000Y-107930200D01*
X105340000Y-107930200D02*
X105340000Y-109980200D01*
X105340000Y-109980200D02*
X108840000Y-109980200D01*
X108840000Y-109980200D02*
X108840000Y-107930200D01*
%TO.C,C61*%
X82319000Y-107516700D02*
X82319000Y-109336700D01*
X81399000Y-107516700D02*
X82319000Y-107516700D01*
X82319000Y-109336700D02*
X81399000Y-109336700D01*
X81399000Y-109336700D02*
X81399000Y-107516700D01*
%TO.C,U7*%
X84600000Y-96255000D02*
X84600000Y-92085000D01*
X88020000Y-96255000D02*
X84600000Y-96255000D01*
X84600000Y-92085000D02*
X88020000Y-92085000D01*
X88020000Y-92085000D02*
X88020000Y-96255000D01*
%TO.C,U6*%
X103893892Y-126006831D02*
X107193892Y-126006831D01*
X103893892Y-128506831D02*
X103893892Y-126006831D01*
X107193892Y-126006831D02*
X107193892Y-128506831D01*
X107193892Y-128506831D02*
X103893892Y-128506831D01*
%TO.C,R62*%
X119006892Y-115228831D02*
X121966892Y-115228831D01*
X119006892Y-116688831D02*
X119006892Y-115228831D01*
X121966892Y-115228831D02*
X121966892Y-116688831D01*
X121966892Y-116688831D02*
X119006892Y-116688831D01*
D11*
%TO.C,U1*%
X95030000Y-88425000D02*
X107700000Y-88425000D01*
X95030000Y-99600000D02*
X95030000Y-88425000D01*
X107700000Y-88425000D02*
X107700000Y-99600000D01*
X107700000Y-99600000D02*
X95030000Y-99600000D01*
D10*
%TO.C,C6*%
X71237200Y-119179900D02*
X71237200Y-117359900D01*
X72157200Y-119179900D02*
X71237200Y-119179900D01*
X71237200Y-117359900D02*
X72157200Y-117359900D01*
X72157200Y-117359900D02*
X72157200Y-119179900D01*
%TO.C,C35*%
X82268201Y-125683900D02*
X84088201Y-125683900D01*
X82268201Y-126603900D02*
X82268201Y-125683900D01*
X84088201Y-125683900D02*
X84088201Y-126603900D01*
X84088201Y-126603900D02*
X82268201Y-126603900D01*
%TO.C,C66*%
X86660000Y-115470000D02*
X86660000Y-117290000D01*
X85740000Y-115470000D02*
X86660000Y-115470000D01*
X86660000Y-117290000D02*
X85740000Y-117290000D01*
X85740000Y-117290000D02*
X85740000Y-115470000D01*
%TO.C,R30*%
X93456130Y-144711529D02*
X96416130Y-144711529D01*
X93456130Y-146171529D02*
X93456130Y-144711529D01*
X96416130Y-144711529D02*
X96416130Y-146171529D01*
X96416130Y-146171529D02*
X93456130Y-146171529D01*
%TO.C,R25*%
X89191400Y-122866800D02*
X86231400Y-122866800D01*
X89191400Y-121406800D02*
X89191400Y-122866800D01*
X86231400Y-122866800D02*
X86231400Y-121406800D01*
X86231400Y-121406800D02*
X89191400Y-121406800D01*
%TO.C,C56*%
X79930000Y-114520000D02*
X79930000Y-117480000D01*
X78470000Y-114520000D02*
X79930000Y-114520000D01*
X79930000Y-117480000D02*
X78470000Y-117480000D01*
X78470000Y-117480000D02*
X78470000Y-114520000D01*
%TO.C,R22*%
X77024400Y-121756300D02*
X79984400Y-121756300D01*
X77024400Y-123216300D02*
X77024400Y-121756300D01*
X79984400Y-121756300D02*
X79984400Y-123216300D01*
X79984400Y-123216300D02*
X77024400Y-123216300D01*
%TO.C,C32*%
X103051892Y-132832869D02*
X103051892Y-131012869D01*
X103971892Y-132832869D02*
X103051892Y-132832869D01*
X103051892Y-131012869D02*
X103971892Y-131012869D01*
X103971892Y-131012869D02*
X103971892Y-132832869D01*
%TO.C,C36*%
X77594400Y-123550300D02*
X79414400Y-123550300D01*
X77594400Y-124470300D02*
X77594400Y-123550300D01*
X79414400Y-123550300D02*
X79414400Y-124470300D01*
X79414400Y-124470300D02*
X77594400Y-124470300D01*
%TO.C,TP8*%
X109965000Y-103616000D02*
X109965000Y-101584000D01*
X111235000Y-103616000D02*
X109965000Y-103616000D01*
X109965000Y-101584000D02*
X111235000Y-101584000D01*
X111235000Y-101584000D02*
X111235000Y-103616000D01*
%TO.C,C50*%
X75340000Y-150610000D02*
X75340000Y-148790000D01*
X76260000Y-150610000D02*
X75340000Y-150610000D01*
X75340000Y-148790000D02*
X76260000Y-148790000D01*
X76260000Y-148790000D02*
X76260000Y-150610000D01*
%TO.C,U2*%
X65429193Y-115332431D02*
X71149193Y-115332431D01*
X71149193Y-115332431D02*
X71149193Y-106032431D01*
X65429193Y-106032431D02*
X65429193Y-115332431D01*
X71149193Y-106032431D02*
X65429193Y-106032431D01*
%TO.C,R84*%
X91470000Y-127680000D02*
X91470000Y-124720000D01*
X92930000Y-127680000D02*
X91470000Y-127680000D01*
X91470000Y-124720000D02*
X92930000Y-124720000D01*
X92930000Y-124720000D02*
X92930000Y-127680000D01*
%TO.C,C38*%
X85240000Y-119410000D02*
X85240000Y-117590000D01*
X86160000Y-119410000D02*
X85240000Y-119410000D01*
X85240000Y-117590000D02*
X86160000Y-117590000D01*
X86160000Y-117590000D02*
X86160000Y-119410000D01*
%TO.C,R38*%
X68870000Y-159930000D02*
X68870000Y-156970000D01*
X70330000Y-159930000D02*
X68870000Y-159930000D01*
X68870000Y-156970000D02*
X70330000Y-156970000D01*
X70330000Y-156970000D02*
X70330000Y-159930000D01*
%TO.C,TP31*%
X72765000Y-113816000D02*
X72765000Y-111784000D01*
X74035000Y-113816000D02*
X72765000Y-113816000D01*
X72765000Y-111784000D02*
X74035000Y-111784000D01*
X74035000Y-111784000D02*
X74035000Y-113816000D01*
%TO.C,R2*%
X65330000Y-105090000D02*
X65330000Y-106950000D01*
X64390000Y-105090000D02*
X65330000Y-105090000D01*
X65330000Y-106950000D02*
X64390000Y-106950000D01*
X64390000Y-106950000D02*
X64390000Y-105090000D01*
%TO.C,Q3*%
X121720000Y-102092500D02*
X118320000Y-102092500D01*
X118320000Y-102092500D02*
X118320000Y-105932500D01*
X121720000Y-105932500D02*
X121720000Y-102092500D01*
X118320000Y-105932500D02*
X121720000Y-105932500D01*
%TO.C,H5*%
X124600000Y-130000000D02*
G75*
G03*
X124600000Y-130000000I-3100000J0D01*
G01*
%TO.C,R33*%
X106970000Y-157320000D02*
X106970000Y-159180000D01*
X106030000Y-157320000D02*
X106970000Y-157320000D01*
X106970000Y-159180000D02*
X106030000Y-159180000D01*
X106030000Y-159180000D02*
X106030000Y-157320000D01*
%TO.C,C27*%
X107766892Y-123938831D02*
X107766892Y-120978831D01*
X109226892Y-123938831D02*
X107766892Y-123938831D01*
X107766892Y-120978831D02*
X109226892Y-120978831D01*
X109226892Y-120978831D02*
X109226892Y-123938831D01*
%TO.C,R11*%
X93675000Y-149680000D02*
X93675000Y-146320000D01*
X95575000Y-149680000D02*
X93675000Y-149680000D01*
X93675000Y-146320000D02*
X95575000Y-146320000D01*
X95575000Y-146320000D02*
X95575000Y-149680000D01*
%TO.C,C94*%
X129520000Y-118790000D02*
X131340000Y-118790000D01*
X129520000Y-119710000D02*
X129520000Y-118790000D01*
X131340000Y-118790000D02*
X131340000Y-119710000D01*
X131340000Y-119710000D02*
X129520000Y-119710000D01*
%TO.C,R71*%
X114110000Y-134650000D02*
X110750000Y-134650000D01*
X114110000Y-132750000D02*
X114110000Y-134650000D01*
X110750000Y-134650000D02*
X110750000Y-132750000D01*
X110750000Y-132750000D02*
X114110000Y-132750000D01*
%TO.C,C54*%
X65135400Y-154930400D02*
X63315400Y-154930400D01*
X65135400Y-154010400D02*
X65135400Y-154930400D01*
X63315400Y-154930400D02*
X63315400Y-154010400D01*
X63315400Y-154010400D02*
X65135400Y-154010400D01*
D11*
%TO.C,IC1*%
X85187000Y-100125000D02*
X87587000Y-100125000D01*
X85187000Y-102925000D02*
X85187000Y-100125000D01*
X87587000Y-100125000D02*
X87587000Y-102925000D01*
X87587000Y-102925000D02*
X85187000Y-102925000D01*
D10*
%TO.C,C8*%
X73218400Y-119179900D02*
X73218400Y-117359900D01*
X74138400Y-119179900D02*
X73218400Y-119179900D01*
X73218400Y-117359900D02*
X74138400Y-117359900D01*
X74138400Y-117359900D02*
X74138400Y-119179900D01*
%TO.C,TP7*%
X60865000Y-140616000D02*
X60865000Y-138584000D01*
X62135000Y-140616000D02*
X60865000Y-140616000D01*
X60865000Y-138584000D02*
X62135000Y-138584000D01*
X62135000Y-138584000D02*
X62135000Y-140616000D01*
%TO.C,C62*%
X81420400Y-106310300D02*
X81420400Y-104490300D01*
X82340400Y-106310300D02*
X81420400Y-106310300D01*
X81420400Y-104490300D02*
X82340400Y-104490300D01*
X82340400Y-104490300D02*
X82340400Y-106310300D01*
%TO.C,C60*%
X78688400Y-108728700D02*
X80508400Y-108728700D01*
X78688400Y-109648700D02*
X78688400Y-108728700D01*
X80508400Y-108728700D02*
X80508400Y-109648700D01*
X80508400Y-109648700D02*
X78688400Y-109648700D01*
%TO.C,TP32*%
X72765000Y-111666000D02*
X72765000Y-109634000D01*
X74035000Y-111666000D02*
X72765000Y-111666000D01*
X72765000Y-109634000D02*
X74035000Y-109634000D01*
X74035000Y-109634000D02*
X74035000Y-111666000D01*
%TO.C,R5*%
X74260000Y-129930000D02*
X74260000Y-131790000D01*
X73320000Y-129930000D02*
X74260000Y-129930000D01*
X74260000Y-131790000D02*
X73320000Y-131790000D01*
X73320000Y-131790000D02*
X73320000Y-129930000D01*
%TO.C,C95*%
X130290000Y-121140000D02*
X132110000Y-121140000D01*
X130290000Y-122060000D02*
X130290000Y-121140000D01*
X132110000Y-121140000D02*
X132110000Y-122060000D01*
X132110000Y-122060000D02*
X130290000Y-122060000D01*
%TO.C,D2*%
X84276668Y-91100000D02*
X86626668Y-91100000D01*
X86626668Y-91100000D02*
X86626668Y-89700000D01*
X86626668Y-89700000D02*
X84276668Y-89700000D01*
X84276668Y-89700000D02*
X84276668Y-91100000D01*
%TO.C,Q7*%
X77167500Y-99750000D02*
X77167500Y-103150000D01*
X77167500Y-103150000D02*
X81007500Y-103150000D01*
X81007500Y-99750000D02*
X77167500Y-99750000D01*
X81007500Y-103150000D02*
X81007500Y-99750000D01*
%TO.C,C107*%
X88975000Y-102170000D02*
X92375000Y-102170000D01*
X88975000Y-104130000D02*
X88975000Y-102170000D01*
X92375000Y-102170000D02*
X92375000Y-104130000D01*
X92375000Y-104130000D02*
X88975000Y-104130000D01*
%TO.C,TP39*%
X84260000Y-92540000D02*
G75*
G03*
X84260000Y-92540000I-1520000J0D01*
G01*
%TO.C,R45*%
X79629000Y-108395900D02*
X79629000Y-105435900D01*
X81089000Y-108395900D02*
X79629000Y-108395900D01*
X79629000Y-105435900D02*
X81089000Y-105435900D01*
X81089000Y-105435900D02*
X81089000Y-108395900D01*
%TO.C,R10*%
X83415207Y-131077869D02*
X83415207Y-128117869D01*
X84875207Y-131077869D02*
X83415207Y-131077869D01*
X83415207Y-128117869D02*
X84875207Y-128117869D01*
X84875207Y-128117869D02*
X84875207Y-131077869D01*
%TO.C,R77*%
X88880000Y-105825000D02*
X85520000Y-105825000D01*
X88880000Y-103925000D02*
X88880000Y-105825000D01*
X85520000Y-105825000D02*
X85520000Y-103925000D01*
X85520000Y-103925000D02*
X88880000Y-103925000D01*
%TO.C,R24*%
X87730000Y-117395000D02*
X87730000Y-120355000D01*
X86270000Y-117395000D02*
X87730000Y-117395000D01*
X87730000Y-120355000D02*
X86270000Y-120355000D01*
X86270000Y-120355000D02*
X86270000Y-117395000D01*
%TO.C,R64*%
X119006892Y-112178831D02*
X121966892Y-112178831D01*
X119006892Y-113638831D02*
X119006892Y-112178831D01*
X121966892Y-112178831D02*
X121966892Y-113638831D01*
X121966892Y-113638831D02*
X119006892Y-113638831D01*
%TO.C,U16*%
X89130000Y-159080000D02*
X86170000Y-159080000D01*
X89130000Y-155620000D02*
X89130000Y-159080000D01*
X89130000Y-155620000D02*
X86170000Y-155620000D01*
X86170000Y-155620000D02*
X86170000Y-159080000D01*
X88250000Y-158200000D02*
X87050000Y-158200000D01*
X87050000Y-158200000D02*
X87050000Y-156500000D01*
X87050000Y-156500000D02*
X88250000Y-156500000D01*
X88250000Y-156500000D02*
X88250000Y-158200000D01*
%TO.C,H6*%
X81600000Y-130000000D02*
G75*
G03*
X81600000Y-130000000I-3100000J0D01*
G01*
%TO.C,C47*%
X71274400Y-151567600D02*
X71274400Y-149747600D01*
X72194400Y-151567600D02*
X71274400Y-151567600D01*
X71274400Y-149747600D02*
X72194400Y-149747600D01*
X72194400Y-149747600D02*
X72194400Y-151567600D01*
%TO.C,TP11*%
X63285000Y-133984000D02*
X63285000Y-136016000D01*
X62015000Y-133984000D02*
X63285000Y-133984000D01*
X63285000Y-136016000D02*
X62015000Y-136016000D01*
X62015000Y-136016000D02*
X62015000Y-133984000D01*
%TO.C,TP2*%
X61515000Y-118916000D02*
X61515000Y-116884000D01*
X62785000Y-118916000D02*
X61515000Y-118916000D01*
X61515000Y-116884000D02*
X62785000Y-116884000D01*
X62785000Y-116884000D02*
X62785000Y-118916000D01*
%TO.C,R46*%
X83624400Y-112856100D02*
X83624400Y-114716100D01*
X82684400Y-112856100D02*
X83624400Y-112856100D01*
X83624400Y-114716100D02*
X82684400Y-114716100D01*
X82684400Y-114716100D02*
X82684400Y-112856100D01*
%TO.C,C2*%
X70340000Y-129600000D02*
X70340000Y-131420000D01*
X69420000Y-129600000D02*
X70340000Y-129600000D01*
X70340000Y-131420000D02*
X69420000Y-131420000D01*
X69420000Y-131420000D02*
X69420000Y-129600000D01*
%TO.C,TP6*%
X67465000Y-158566000D02*
X67465000Y-156534000D01*
X68735000Y-158566000D02*
X67465000Y-158566000D01*
X67465000Y-156534000D02*
X68735000Y-156534000D01*
X68735000Y-156534000D02*
X68735000Y-158566000D01*
%TO.C,S3*%
X122900000Y-102387500D02*
X132400000Y-102387500D01*
X122900000Y-106887500D02*
X122900000Y-102387500D01*
X132400000Y-102387500D02*
X132400000Y-106887500D01*
X132400000Y-106887500D02*
X122900000Y-106887500D01*
%TO.C,C53*%
X65110000Y-156530600D02*
X63290000Y-156530600D01*
X65110000Y-155610600D02*
X65110000Y-156530600D01*
X63290000Y-156530600D02*
X63290000Y-155610600D01*
X63290000Y-155610600D02*
X65110000Y-155610600D01*
%TO.C,TP22*%
X137284000Y-93165000D02*
X139316000Y-93165000D01*
X137284000Y-94435000D02*
X137284000Y-93165000D01*
X139316000Y-93165000D02*
X139316000Y-94435000D01*
X139316000Y-94435000D02*
X137284000Y-94435000D01*
%TO.C,R92*%
X124680000Y-118430000D02*
X121720000Y-118430000D01*
X124680000Y-116970000D02*
X124680000Y-118430000D01*
X121720000Y-118430000D02*
X121720000Y-116970000D01*
X121720000Y-116970000D02*
X124680000Y-116970000D01*
%TO.C,R70*%
X105546892Y-122498831D02*
X105546892Y-125858831D01*
X103646892Y-122498831D02*
X105546892Y-122498831D01*
X105546892Y-125858831D02*
X103646892Y-125858831D01*
X103646892Y-125858831D02*
X103646892Y-122498831D01*
%TO.C,TP5*%
X80365000Y-148166000D02*
X80365000Y-146134000D01*
X81635000Y-148166000D02*
X80365000Y-148166000D01*
X80365000Y-146134000D02*
X81635000Y-146134000D01*
X81635000Y-146134000D02*
X81635000Y-148166000D01*
%TO.C,C43*%
X93018682Y-140761529D02*
X95978682Y-140761529D01*
X93018682Y-142221529D02*
X93018682Y-140761529D01*
X95978682Y-140761529D02*
X95978682Y-142221529D01*
X95978682Y-142221529D02*
X93018682Y-142221529D01*
%TO.C,C89*%
X108525000Y-138225000D02*
X108525000Y-140325000D01*
X108525000Y-140325000D02*
X109675000Y-140325000D01*
X109675000Y-136875000D02*
X109675000Y-138225000D01*
X109675000Y-136875000D02*
X110825000Y-135725000D01*
X109675000Y-138225000D02*
X108525000Y-138225000D01*
X109675000Y-140325000D02*
X109675000Y-141675000D01*
X109675000Y-141675000D02*
X110825000Y-142825000D01*
X110825000Y-135725000D02*
X116775000Y-135725000D01*
X110825000Y-142825000D02*
X116775000Y-142825000D01*
X116775000Y-135725000D02*
X116775000Y-138225000D01*
X116775000Y-138225000D02*
X117925000Y-138225000D01*
X116775000Y-140325000D02*
X116775000Y-142825000D01*
X117925000Y-138225000D02*
X117925000Y-140325000D01*
X117925000Y-140325000D02*
X116775000Y-140325000D01*
%TO.C,R81*%
X92670000Y-110780000D02*
X92670000Y-107820000D01*
X94130000Y-110780000D02*
X92670000Y-110780000D01*
X92670000Y-107820000D02*
X94130000Y-107820000D01*
X94130000Y-107820000D02*
X94130000Y-110780000D01*
%TO.C,C41*%
X91510000Y-140460000D02*
X89690000Y-140460000D01*
X91510000Y-139540000D02*
X91510000Y-140460000D01*
X89690000Y-140460000D02*
X89690000Y-139540000D01*
X89690000Y-139540000D02*
X91510000Y-139540000D01*
%TO.C,R65*%
X79330000Y-149580000D02*
X76370000Y-149580000D01*
X79330000Y-148120000D02*
X79330000Y-149580000D01*
X76370000Y-149580000D02*
X76370000Y-148120000D01*
X76370000Y-148120000D02*
X79330000Y-148120000D01*
%TO.C,R68*%
X103880000Y-106388213D02*
X100520000Y-106388213D01*
X103880000Y-104488213D02*
X103880000Y-106388213D01*
X100520000Y-106388213D02*
X100520000Y-104488213D01*
X100520000Y-104488213D02*
X103880000Y-104488213D01*
%TO.C,TP19*%
X99816000Y-132435000D02*
X97784000Y-132435000D01*
X99816000Y-131165000D02*
X99816000Y-132435000D01*
X97784000Y-132435000D02*
X97784000Y-131165000D01*
X97784000Y-131165000D02*
X99816000Y-131165000D01*
%TO.C,R76*%
X108180000Y-115430000D02*
X105220000Y-115430000D01*
X108180000Y-113970000D02*
X108180000Y-115430000D01*
X105220000Y-115430000D02*
X105220000Y-113970000D01*
X105220000Y-113970000D02*
X108180000Y-113970000D01*
%TO.C,R37*%
X71880000Y-156970000D02*
X71880000Y-159930000D01*
X70420000Y-156970000D02*
X71880000Y-156970000D01*
X71880000Y-159930000D02*
X70420000Y-159930000D01*
X70420000Y-159930000D02*
X70420000Y-156970000D01*
%TO.C,C69*%
X96414199Y-118455200D02*
X96414199Y-120275200D01*
X95494199Y-118455200D02*
X96414199Y-118455200D01*
X96414199Y-120275200D02*
X95494199Y-120275200D01*
X95494199Y-120275200D02*
X95494199Y-118455200D01*
%TO.C,R18*%
X111239300Y-112652000D02*
X108279300Y-112652000D01*
X111239300Y-111192000D02*
X111239300Y-112652000D01*
X108279300Y-112652000D02*
X108279300Y-111192000D01*
X108279300Y-111192000D02*
X111239300Y-111192000D01*
%TO.C,R44*%
X81078400Y-105392100D02*
X77718400Y-105392100D01*
X81078400Y-103492100D02*
X81078400Y-105392100D01*
X77718400Y-105392100D02*
X77718400Y-103492100D01*
X77718400Y-103492100D02*
X81078400Y-103492100D01*
%TO.C,Q1*%
X112111100Y-116136600D02*
X112111100Y-112736600D01*
X112111100Y-112736600D02*
X108271100Y-112736600D01*
X108271100Y-116136600D02*
X112111100Y-116136600D01*
X108271100Y-112736600D02*
X108271100Y-116136600D01*
%TO.C,C44*%
X74177500Y-137670000D02*
X74177500Y-139490000D01*
X73257500Y-137670000D02*
X74177500Y-137670000D01*
X74177500Y-139490000D02*
X73257500Y-139490000D01*
X73257500Y-139490000D02*
X73257500Y-137670000D01*
%TO.C,U9*%
X92661130Y-144641529D02*
X92661130Y-140741529D01*
X92661130Y-140741529D02*
X88761130Y-140741529D01*
X88761130Y-144641529D02*
X92661130Y-144641529D01*
X88761130Y-140741529D02*
X88761130Y-144641529D01*
%TO.C,TP23*%
X134884000Y-93165000D02*
X136916000Y-93165000D01*
X134884000Y-94435000D02*
X134884000Y-93165000D01*
X136916000Y-93165000D02*
X136916000Y-94435000D01*
X136916000Y-94435000D02*
X134884000Y-94435000D01*
%TO.C,R57*%
X90570000Y-148220000D02*
X93530000Y-148220000D01*
X90570000Y-149680000D02*
X90570000Y-148220000D01*
X93530000Y-148220000D02*
X93530000Y-149680000D01*
X93530000Y-149680000D02*
X90570000Y-149680000D01*
%TO.C,C12*%
X77058400Y-120705500D02*
X78878400Y-120705500D01*
X77058400Y-121625500D02*
X77058400Y-120705500D01*
X78878400Y-120705500D02*
X78878400Y-121625500D01*
X78878400Y-121625500D02*
X77058400Y-121625500D01*
%TO.C,C25*%
X103530000Y-123830000D02*
X100570000Y-123830000D01*
X103530000Y-122370000D02*
X103530000Y-123830000D01*
X100570000Y-123830000D02*
X100570000Y-122370000D01*
X100570000Y-122370000D02*
X103530000Y-122370000D01*
%TO.C,TP20*%
X134035000Y-106584000D02*
X134035000Y-108616000D01*
X132765000Y-106584000D02*
X134035000Y-106584000D01*
X134035000Y-108616000D02*
X132765000Y-108616000D01*
X132765000Y-108616000D02*
X132765000Y-106584000D01*
%TO.C,U25*%
X124450000Y-114150000D02*
X127050000Y-114150000D01*
X127050000Y-114150000D02*
X127050000Y-111550000D01*
X127050000Y-111550000D02*
X124450000Y-111550000D01*
X124450000Y-111550000D02*
X124450000Y-114150000D01*
%TO.C,R78*%
X88867500Y-107750000D02*
X85507500Y-107750000D01*
X88867500Y-105850000D02*
X88867500Y-107750000D01*
X85507500Y-107750000D02*
X85507500Y-105850000D01*
X85507500Y-105850000D02*
X88867500Y-105850000D01*
%TO.C,TP30*%
X117679425Y-121570495D02*
G75*
G03*
X117679425Y-121570495I-1520000J0D01*
G01*
%TO.C,C103*%
X116231892Y-108978831D02*
X118051892Y-108978831D01*
X116231892Y-109898831D02*
X116231892Y-108978831D01*
X118051892Y-108978831D02*
X118051892Y-109898831D01*
X118051892Y-109898831D02*
X116231892Y-109898831D01*
%TO.C,C108*%
X88975000Y-100145000D02*
X92375000Y-100145000D01*
X88975000Y-102105000D02*
X88975000Y-100145000D01*
X92375000Y-100145000D02*
X92375000Y-102105000D01*
X92375000Y-102105000D02*
X88975000Y-102105000D01*
%TO.C,R69*%
X107546892Y-122493831D02*
X107546892Y-125853831D01*
X105646892Y-122493831D02*
X107546892Y-122493831D01*
X107546892Y-125853831D02*
X105646892Y-125853831D01*
X105646892Y-125853831D02*
X105646892Y-122493831D01*
%TO.C,R16*%
X108189000Y-112387800D02*
X105229000Y-112387800D01*
X108189000Y-110927800D02*
X108189000Y-112387800D01*
X105229000Y-112387800D02*
X105229000Y-110927800D01*
X105229000Y-110927800D02*
X108189000Y-110927800D01*
%TO.C,H1*%
X81600000Y-152865000D02*
G75*
G03*
X81600000Y-152865000I-3100000J0D01*
G01*
%TO.C,R74*%
X86080000Y-159450000D02*
X82720000Y-159450000D01*
X86080000Y-157550000D02*
X86080000Y-159450000D01*
X82720000Y-159450000D02*
X82720000Y-157550000D01*
X82720000Y-157550000D02*
X86080000Y-157550000D01*
%TO.C,Q4*%
X118262500Y-107250000D02*
X118262500Y-103850000D01*
X118262500Y-103850000D02*
X114422500Y-103850000D01*
X114422500Y-107250000D02*
X118262500Y-107250000D01*
X114422500Y-103850000D02*
X114422500Y-107250000D01*
%TO.C,R34*%
X62690600Y-158370000D02*
X65650600Y-158370000D01*
X62690600Y-159830000D02*
X62690600Y-158370000D01*
X65650600Y-158370000D02*
X65650600Y-159830000D01*
X65650600Y-159830000D02*
X62690600Y-159830000D01*
%TO.C,R13*%
X84680000Y-153930000D02*
X81720000Y-153930000D01*
X84680000Y-152470000D02*
X84680000Y-153930000D01*
X81720000Y-153930000D02*
X81720000Y-152470000D01*
X81720000Y-152470000D02*
X84680000Y-152470000D01*
%TO.C,R43*%
X78106400Y-108395900D02*
X78106400Y-105435900D01*
X79566400Y-108395900D02*
X78106400Y-108395900D01*
X78106400Y-105435900D02*
X79566400Y-105435900D01*
X79566400Y-105435900D02*
X79566400Y-108395900D01*
%TO.C,C72*%
X90679200Y-114122800D02*
X88859200Y-114122800D01*
X90679200Y-113202800D02*
X90679200Y-114122800D01*
X88859200Y-114122800D02*
X88859200Y-113202800D01*
X88859200Y-113202800D02*
X90679200Y-113202800D01*
%TO.C,C63*%
X81440000Y-104430000D02*
X81440000Y-102610000D01*
X82360000Y-104430000D02*
X81440000Y-104430000D01*
X81440000Y-102610000D02*
X82360000Y-102610000D01*
X82360000Y-102610000D02*
X82360000Y-104430000D01*
%TO.C,C57*%
X76404800Y-115735600D02*
X74584800Y-115735600D01*
X76404800Y-114815600D02*
X76404800Y-115735600D01*
X74584800Y-115735600D02*
X74584800Y-114815600D01*
X74584800Y-114815600D02*
X76404800Y-114815600D01*
%TO.C,C91*%
X110580000Y-130800000D02*
X110580000Y-134200000D01*
X108620000Y-130800000D02*
X110580000Y-130800000D01*
X110580000Y-134200000D02*
X108620000Y-134200000D01*
X108620000Y-134200000D02*
X108620000Y-130800000D01*
%TO.C,C28*%
X102324892Y-130145831D02*
X99364892Y-130145831D01*
X102324892Y-128685831D02*
X102324892Y-130145831D01*
X99364892Y-130145831D02*
X99364892Y-128685831D01*
X99364892Y-128685831D02*
X102324892Y-128685831D01*
%TO.C,C83*%
X114750000Y-117470000D02*
X114750000Y-120870000D01*
X112790000Y-117470000D02*
X114750000Y-117470000D01*
X114750000Y-120870000D02*
X112790000Y-120870000D01*
X112790000Y-120870000D02*
X112790000Y-117470000D01*
%TO.C,R7*%
X90670000Y-130730000D02*
X92530000Y-130730000D01*
X90670000Y-131670000D02*
X90670000Y-130730000D01*
X92530000Y-130730000D02*
X92530000Y-131670000D01*
X92530000Y-131670000D02*
X90670000Y-131670000D01*
%TO.C,U21*%
X102950000Y-151250000D02*
X102950000Y-150050000D01*
X103750000Y-151250000D02*
X102950000Y-151250000D01*
X102950000Y-150050000D02*
X103750000Y-150050000D01*
X103750000Y-150050000D02*
X103750000Y-151250000D01*
%TO.C,C79*%
X89740582Y-114400000D02*
X89740582Y-117800000D01*
X87780582Y-114400000D02*
X89740582Y-114400000D01*
X89740582Y-117800000D02*
X87780582Y-117800000D01*
X87780582Y-117800000D02*
X87780582Y-114400000D01*
%TO.C,C26*%
X102324892Y-125573831D02*
X99364892Y-125573831D01*
X102324892Y-124113831D02*
X102324892Y-125573831D01*
X99364892Y-125573831D02*
X99364892Y-124113831D01*
X99364892Y-124113831D02*
X102324892Y-124113831D01*
%TO.C,R42*%
X74564800Y-113281600D02*
X76424800Y-113281600D01*
X74564800Y-114221600D02*
X74564800Y-113281600D01*
X76424800Y-113281600D02*
X76424800Y-114221600D01*
X76424800Y-114221600D02*
X74564800Y-114221600D01*
%TO.C,C22*%
X106332400Y-105904400D02*
X108152400Y-105904400D01*
X106332400Y-106824400D02*
X106332400Y-105904400D01*
X108152400Y-105904400D02*
X108152400Y-106824400D01*
X108152400Y-106824400D02*
X106332400Y-106824400D01*
%TO.C,C9*%
X72253200Y-119179900D02*
X72253200Y-117359900D01*
X73173200Y-119179900D02*
X72253200Y-119179900D01*
X72253200Y-117359900D02*
X73173200Y-117359900D01*
X73173200Y-117359900D02*
X73173200Y-119179900D01*
%TO.C,R4*%
X78926400Y-120642869D02*
X77066400Y-120642869D01*
X78926400Y-119702869D02*
X78926400Y-120642869D01*
X77066400Y-120642869D02*
X77066400Y-119702869D01*
X77066400Y-119702869D02*
X78926400Y-119702869D01*
%TO.C,C90*%
X90600000Y-135950000D02*
X90600000Y-138050000D01*
X90600000Y-138050000D02*
X91750000Y-138050000D01*
X91750000Y-134600000D02*
X91750000Y-135950000D01*
X91750000Y-134600000D02*
X92900000Y-133450000D01*
X91750000Y-135950000D02*
X90600000Y-135950000D01*
X91750000Y-138050000D02*
X91750000Y-139400000D01*
X91750000Y-139400000D02*
X92900000Y-140550000D01*
X92900000Y-133450000D02*
X98850000Y-133450000D01*
X92900000Y-140550000D02*
X98850000Y-140550000D01*
X98850000Y-133450000D02*
X98850000Y-135950000D01*
X98850000Y-135950000D02*
X100000000Y-135950000D01*
X98850000Y-138050000D02*
X98850000Y-140550000D01*
X100000000Y-135950000D02*
X100000000Y-138050000D01*
X100000000Y-138050000D02*
X98850000Y-138050000D01*
%TO.C,C15*%
X68010000Y-119610000D02*
X68010000Y-117790000D01*
X68930000Y-119610000D02*
X68010000Y-119610000D01*
X68010000Y-117790000D02*
X68930000Y-117790000D01*
X68930000Y-117790000D02*
X68930000Y-119610000D01*
%TO.C,C106*%
X88975000Y-104195000D02*
X92375000Y-104195000D01*
X88975000Y-106155000D02*
X88975000Y-104195000D01*
X92375000Y-104195000D02*
X92375000Y-106155000D01*
X92375000Y-106155000D02*
X88975000Y-106155000D01*
%TO.C,TP29*%
X88916190Y-98850000D02*
G75*
G03*
X88916190Y-98850000I-1166190J0D01*
G01*
%TO.C,C58*%
X76404800Y-112687600D02*
X74584800Y-112687600D01*
X76404800Y-111767600D02*
X76404800Y-112687600D01*
X74584800Y-112687600D02*
X74584800Y-111767600D01*
X74584800Y-111767600D02*
X76404800Y-111767600D01*
%TO.C,R60*%
X116931892Y-119988831D02*
X116931892Y-117028831D01*
X118391892Y-119988831D02*
X116931892Y-119988831D01*
X116931892Y-117028831D02*
X118391892Y-117028831D01*
X118391892Y-117028831D02*
X118391892Y-119988831D01*
%TO.C,R32*%
X108495000Y-157320000D02*
X108495000Y-159180000D01*
X107555000Y-157320000D02*
X108495000Y-157320000D01*
X108495000Y-159180000D02*
X107555000Y-159180000D01*
X107555000Y-159180000D02*
X107555000Y-157320000D01*
%TO.C,TP27*%
X81816000Y-119435000D02*
X79784000Y-119435000D01*
X81816000Y-118165000D02*
X81816000Y-119435000D01*
X79784000Y-119435000D02*
X79784000Y-118165000D01*
X79784000Y-118165000D02*
X81816000Y-118165000D01*
%TO.C,Y1*%
X73220000Y-129180000D02*
X70420000Y-129180000D01*
X70420000Y-129180000D02*
X70420000Y-132580000D01*
X73220000Y-132580000D02*
X73220000Y-129180000D01*
X70420000Y-132580000D02*
X73220000Y-132580000D01*
%TO.C,TP15*%
X111235000Y-98784000D02*
X111235000Y-100816000D01*
X109965000Y-98784000D02*
X111235000Y-98784000D01*
X111235000Y-100816000D02*
X109965000Y-100816000D01*
X109965000Y-100816000D02*
X109965000Y-98784000D01*
%TO.C,C97*%
X93103993Y-155689931D02*
X93103993Y-159089931D01*
X91143993Y-155689931D02*
X93103993Y-155689931D01*
X93103993Y-159089931D02*
X91143993Y-159089931D01*
X91143993Y-159089931D02*
X91143993Y-155689931D01*
%TO.C,TP40*%
X137920000Y-99000000D02*
G75*
G03*
X137920000Y-99000000I-1520000J0D01*
G01*
%TO.C,R19*%
X96050892Y-124151831D02*
X96050892Y-121191831D01*
X97510892Y-124151831D02*
X96050892Y-124151831D01*
X96050892Y-121191831D02*
X97510892Y-121191831D01*
X97510892Y-121191831D02*
X97510892Y-124151831D01*
%TO.C,C74*%
X108450000Y-140300000D02*
X108450000Y-138200000D01*
X108450000Y-138200000D02*
X107300000Y-138200000D01*
X107300000Y-141650000D02*
X107300000Y-140300000D01*
X107300000Y-141650000D02*
X106150000Y-142800000D01*
X107300000Y-140300000D02*
X108450000Y-140300000D01*
X107300000Y-138200000D02*
X107300000Y-136850000D01*
X107300000Y-136850000D02*
X106150000Y-135700000D01*
X106150000Y-142800000D02*
X100200000Y-142800000D01*
X106150000Y-135700000D02*
X100200000Y-135700000D01*
X100200000Y-142800000D02*
X100200000Y-140300000D01*
X100200000Y-140300000D02*
X99050000Y-140300000D01*
X100200000Y-138200000D02*
X100200000Y-135700000D01*
X99050000Y-140300000D02*
X99050000Y-138200000D01*
X99050000Y-138200000D02*
X100200000Y-138200000D01*
%TO.C,C84*%
X133660000Y-120250000D02*
X131840000Y-120250000D01*
X133660000Y-119330000D02*
X133660000Y-120250000D01*
X131840000Y-120250000D02*
X131840000Y-119330000D01*
X131840000Y-119330000D02*
X133660000Y-119330000D01*
%TO.C,R3*%
X78925207Y-119642869D02*
X77065207Y-119642869D01*
X78925207Y-118702869D02*
X78925207Y-119642869D01*
X77065207Y-119642869D02*
X77065207Y-118702869D01*
X77065207Y-118702869D02*
X78925207Y-118702869D01*
%TO.C,D1*%
X91526668Y-91100000D02*
X93876668Y-91100000D01*
X93876668Y-91100000D02*
X93876668Y-89700000D01*
X93876668Y-89700000D02*
X91526668Y-89700000D01*
X91526668Y-89700000D02*
X91526668Y-91100000D01*
D11*
%TO.C,U18*%
X112311892Y-110258831D02*
X118911892Y-110258831D01*
X112311892Y-116858831D02*
X112311892Y-110258831D01*
X118911892Y-110258831D02*
X118911892Y-116858831D01*
X118911892Y-116858831D02*
X112311892Y-116858831D01*
D10*
%TO.C,U11*%
X69935400Y-153554600D02*
X73542200Y-153554600D01*
X69935400Y-156704200D02*
X69935400Y-153554600D01*
X73542200Y-153554600D02*
X73542200Y-156704200D01*
X73542200Y-156704200D02*
X69935400Y-156704200D01*
%TO.C,TP14*%
X105016000Y-159235000D02*
X102984000Y-159235000D01*
X105016000Y-157965000D02*
X105016000Y-159235000D01*
X102984000Y-159235000D02*
X102984000Y-157965000D01*
X102984000Y-157965000D02*
X105016000Y-157965000D01*
%TO.C,C21*%
X110160000Y-110040000D02*
X111980000Y-110040000D01*
X110160000Y-110960000D02*
X110160000Y-110040000D01*
X111980000Y-110040000D02*
X111980000Y-110960000D01*
X111980000Y-110960000D02*
X110160000Y-110960000D01*
D12*
%TO.C,Q2*%
X84730207Y-108252869D02*
X82860207Y-108252869D01*
X82860207Y-108252869D02*
X82860207Y-111892869D01*
X84730207Y-111892869D02*
X84730207Y-108252869D01*
X84730207Y-111892869D02*
X84730207Y-111892869D01*
X82860207Y-111892869D02*
X84730207Y-111892869D01*
D10*
%TO.C,R49*%
X92518599Y-107826800D02*
X92518599Y-110786800D01*
X91058599Y-107826800D02*
X92518599Y-107826800D01*
X92518599Y-110786800D02*
X91058599Y-110786800D01*
X91058599Y-110786800D02*
X91058599Y-107826800D01*
%TO.C,TP4*%
X97434000Y-157515000D02*
X99466000Y-157515000D01*
X97434000Y-158785000D02*
X97434000Y-157515000D01*
X99466000Y-157515000D02*
X99466000Y-158785000D01*
X99466000Y-158785000D02*
X97434000Y-158785000D01*
D12*
%TO.C,L2*%
X97792207Y-115930869D02*
X97792207Y-121414869D01*
X97792207Y-121414869D02*
X104598207Y-121414869D01*
X104598207Y-115930869D02*
X97792207Y-115930869D01*
X104598207Y-115930869D02*
X104598207Y-115930869D01*
X104598207Y-121414869D02*
X104598207Y-115930869D01*
D10*
%TO.C,R36*%
X66195000Y-153070000D02*
X69155000Y-153070000D01*
X66195000Y-154530000D02*
X66195000Y-153070000D01*
X69155000Y-153070000D02*
X69155000Y-154530000D01*
X69155000Y-154530000D02*
X66195000Y-154530000D01*
%TO.C,R41*%
X74564800Y-110233600D02*
X76424800Y-110233600D01*
X74564800Y-111173600D02*
X74564800Y-110233600D01*
X76424800Y-110233600D02*
X76424800Y-111173600D01*
X76424800Y-111173600D02*
X74564800Y-111173600D01*
%TO.C,TP26*%
X84046000Y-119275000D02*
X82014000Y-119275000D01*
X84046000Y-118005000D02*
X84046000Y-119275000D01*
X82014000Y-119275000D02*
X82014000Y-118005000D01*
X82014000Y-118005000D02*
X84046000Y-118005000D01*
%TO.C,TP12*%
X97644599Y-107012800D02*
X97644599Y-106012800D01*
X97644599Y-106012800D02*
X96994599Y-105362800D01*
X96994599Y-107662800D02*
X97644599Y-107012800D01*
X96994599Y-105362800D02*
X93694599Y-105362800D01*
X93694599Y-107662800D02*
X96994599Y-107662800D01*
X93694599Y-105362800D02*
X93044599Y-106012800D01*
X93044599Y-107012800D02*
X93694599Y-107662800D01*
X93044599Y-106012800D02*
X93044599Y-107012800D01*
%TO.C,R47*%
X83624400Y-115866500D02*
X83624400Y-117726500D01*
X82684400Y-115866500D02*
X83624400Y-115866500D01*
X83624400Y-117726500D02*
X82684400Y-117726500D01*
X82684400Y-117726500D02*
X82684400Y-115866500D01*
%TO.C,C71*%
X94376599Y-110216800D02*
X94376599Y-108396800D01*
X95296599Y-110216800D02*
X94376599Y-110216800D01*
X94376599Y-108396800D02*
X95296599Y-108396800D01*
X95296599Y-108396800D02*
X95296599Y-110216800D01*
%TO.C,R14*%
X91330000Y-125195000D02*
X91330000Y-128155000D01*
X89870000Y-125195000D02*
X91330000Y-125195000D01*
X91330000Y-128155000D02*
X89870000Y-128155000D01*
X89870000Y-128155000D02*
X89870000Y-125195000D01*
%TO.C,C75*%
X91249200Y-114432800D02*
X91249200Y-117392800D01*
X89789200Y-114432800D02*
X91249200Y-114432800D01*
X91249200Y-117392800D02*
X89789200Y-117392800D01*
X89789200Y-117392800D02*
X89789200Y-114432800D01*
%TO.C,R54*%
X111429329Y-104782500D02*
X111429329Y-108142500D01*
X109529329Y-104782500D02*
X111429329Y-104782500D01*
X111429329Y-108142500D02*
X109529329Y-108142500D01*
X109529329Y-108142500D02*
X109529329Y-104782500D01*
%TO.C,TP24*%
X63285000Y-131834000D02*
X63285000Y-133866000D01*
X62015000Y-131834000D02*
X63285000Y-131834000D01*
X63285000Y-133866000D02*
X62015000Y-133866000D01*
X62015000Y-133866000D02*
X62015000Y-131834000D01*
%TO.C,C52*%
X73640000Y-151710000D02*
X73640000Y-149890000D01*
X74560000Y-151710000D02*
X73640000Y-151710000D01*
X73640000Y-149890000D02*
X74560000Y-149890000D01*
X74560000Y-149890000D02*
X74560000Y-151710000D01*
%TO.C,C24*%
X97540000Y-123910000D02*
X97540000Y-122090000D01*
X98460000Y-123910000D02*
X97540000Y-123910000D01*
X97540000Y-122090000D02*
X98460000Y-122090000D01*
X98460000Y-122090000D02*
X98460000Y-123910000D01*
%TO.C,R51*%
X119016892Y-110588831D02*
X119016892Y-106028831D01*
X121256892Y-110588831D02*
X119016892Y-110588831D01*
X119016892Y-106028831D02*
X121256892Y-106028831D01*
X121256892Y-106028831D02*
X121256892Y-110588831D01*
%TO.C,C49*%
X76780000Y-156770000D02*
X76780000Y-159730000D01*
X75320000Y-156770000D02*
X76780000Y-156770000D01*
X76780000Y-159730000D02*
X75320000Y-159730000D01*
X75320000Y-159730000D02*
X75320000Y-156770000D01*
%TO.C,R86*%
X93330000Y-118920000D02*
X93330000Y-121880000D01*
X91870000Y-118920000D02*
X93330000Y-118920000D01*
X93330000Y-121880000D02*
X91870000Y-121880000D01*
X91870000Y-121880000D02*
X91870000Y-118920000D01*
%TO.C,C96*%
X82745000Y-102750000D02*
X82745000Y-99350000D01*
X84705000Y-102750000D02*
X82745000Y-102750000D01*
X82745000Y-99350000D02*
X84705000Y-99350000D01*
X84705000Y-99350000D02*
X84705000Y-102750000D01*
%TO.C,R39*%
X73430000Y-156970000D02*
X73430000Y-159930000D01*
X71970000Y-156970000D02*
X73430000Y-156970000D01*
X73430000Y-159930000D02*
X71970000Y-159930000D01*
X71970000Y-159930000D02*
X71970000Y-156970000D01*
%TO.C,R26*%
X106775000Y-145346000D02*
X109735000Y-145346000D01*
X106775000Y-146806000D02*
X106775000Y-145346000D01*
X109735000Y-145346000D02*
X109735000Y-146806000D01*
X109735000Y-146806000D02*
X106775000Y-146806000D01*
%TO.C,C65*%
X86662400Y-113562869D02*
X86662400Y-115382869D01*
X85742400Y-113562869D02*
X86662400Y-113562869D01*
X86662400Y-115382869D02*
X85742400Y-115382869D01*
X85742400Y-115382869D02*
X85742400Y-113562869D01*
%TO.C,C45*%
X72640000Y-151710000D02*
X72640000Y-149890000D01*
X73560000Y-151710000D02*
X72640000Y-151710000D01*
X72640000Y-149890000D02*
X73560000Y-149890000D01*
X73560000Y-149890000D02*
X73560000Y-151710000D01*
%TO.C,R59*%
X115406892Y-119988831D02*
X115406892Y-117028831D01*
X116866892Y-119988831D02*
X115406892Y-119988831D01*
X115406892Y-117028831D02*
X116866892Y-117028831D01*
X116866892Y-117028831D02*
X116866892Y-119988831D01*
%TO.C,R17*%
X105229000Y-112451800D02*
X108189000Y-112451800D01*
X105229000Y-113911800D02*
X105229000Y-112451800D01*
X108189000Y-112451800D02*
X108189000Y-113911800D01*
X108189000Y-113911800D02*
X105229000Y-113911800D01*
%TO.C,R27*%
X93456130Y-143187529D02*
X96416130Y-143187529D01*
X93456130Y-144647529D02*
X93456130Y-143187529D01*
X96416130Y-143187529D02*
X96416130Y-144647529D01*
X96416130Y-144647529D02*
X93456130Y-144647529D01*
%TO.C,C59*%
X76852400Y-109336700D02*
X76852400Y-107516700D01*
X77772400Y-109336700D02*
X76852400Y-109336700D01*
X76852400Y-107516700D02*
X77772400Y-107516700D01*
X77772400Y-107516700D02*
X77772400Y-109336700D01*
%TO.C,D7*%
X101092607Y-115754269D02*
X101092607Y-115081169D01*
X104597807Y-115754269D02*
X101092607Y-115754269D01*
X100737007Y-115081169D02*
X100737007Y-109264569D01*
X101092607Y-115081169D02*
X100737007Y-115081169D01*
X104597807Y-115081169D02*
X104597807Y-115754269D01*
X104953407Y-115081169D02*
X104597807Y-115081169D01*
X100737007Y-109264569D02*
X101092607Y-109264569D01*
X101092607Y-109264569D02*
X101092607Y-108591469D01*
X104597807Y-109264569D02*
X104953407Y-109264569D01*
X104953407Y-109264569D02*
X104953407Y-115081169D01*
X101092607Y-108591469D02*
X104597807Y-108591469D01*
X104597807Y-108591469D02*
X104597807Y-109264569D01*
%TO.C,R80*%
X90880000Y-110905000D02*
X87920000Y-110905000D01*
X90880000Y-109445000D02*
X90880000Y-110905000D01*
X87920000Y-110905000D02*
X87920000Y-109445000D01*
X87920000Y-109445000D02*
X90880000Y-109445000D01*
%TO.C,R66*%
X118210000Y-103760000D02*
X115250000Y-103760000D01*
X118210000Y-102300000D02*
X118210000Y-103760000D01*
X115250000Y-103760000D02*
X115250000Y-102300000D01*
X115250000Y-102300000D02*
X118210000Y-102300000D01*
%TO.C,TP33*%
X72765000Y-115916000D02*
X72765000Y-113884000D01*
X74035000Y-115916000D02*
X72765000Y-115916000D01*
X72765000Y-113884000D02*
X74035000Y-113884000D01*
X74035000Y-113884000D02*
X74035000Y-115916000D01*
%TO.C,TP13*%
X100184000Y-147915000D02*
X102216000Y-147915000D01*
X100184000Y-149185000D02*
X100184000Y-147915000D01*
X102216000Y-147915000D02*
X102216000Y-149185000D01*
X102216000Y-149185000D02*
X100184000Y-149185000D01*
%TO.C,C77*%
X99265207Y-115052869D02*
X99265207Y-112092869D01*
X100725207Y-115052869D02*
X99265207Y-115052869D01*
X99265207Y-112092869D02*
X100725207Y-112092869D01*
X100725207Y-112092869D02*
X100725207Y-115052869D01*
%TO.C,C13*%
X79285207Y-125012869D02*
X81105207Y-125012869D01*
X79285207Y-125932869D02*
X79285207Y-125012869D01*
X81105207Y-125012869D02*
X81105207Y-125932869D01*
X81105207Y-125932869D02*
X79285207Y-125932869D01*
%TO.C,S4*%
X122150000Y-100900000D02*
X112650000Y-100900000D01*
X122150000Y-96400000D02*
X122150000Y-100900000D01*
X112650000Y-100900000D02*
X112650000Y-96400000D01*
X112650000Y-96400000D02*
X122150000Y-96400000D01*
%TO.C,C73*%
X97460000Y-116990000D02*
X97460000Y-118810000D01*
X96540000Y-116990000D02*
X97460000Y-116990000D01*
X97460000Y-118810000D02*
X96540000Y-118810000D01*
X96540000Y-118810000D02*
X96540000Y-116990000D01*
%TO.C,R29*%
X106775000Y-146870000D02*
X109735000Y-146870000D01*
X106775000Y-148330000D02*
X106775000Y-146870000D01*
X109735000Y-146870000D02*
X109735000Y-148330000D01*
X109735000Y-148330000D02*
X106775000Y-148330000D01*
%TO.C,TP41*%
X137120000Y-120800000D02*
G75*
G03*
X137120000Y-120800000I-1520000J0D01*
G01*
%TO.C,C42*%
X106520000Y-142920000D02*
X109480000Y-142920000D01*
X106520000Y-144380000D02*
X106520000Y-142920000D01*
X109480000Y-142920000D02*
X109480000Y-144380000D01*
X109480000Y-144380000D02*
X106520000Y-144380000D01*
D12*
%TO.C,U14*%
X125650300Y-118093800D02*
X125650300Y-121026800D01*
X125650300Y-121026800D02*
X128583300Y-121026800D01*
X128583300Y-118093800D02*
X125650300Y-118093800D01*
X128583300Y-118093800D02*
X128583300Y-118093800D01*
X128583300Y-121026800D02*
X128583300Y-118093800D01*
D10*
%TO.C,TP17*%
X62785000Y-118984000D02*
X62785000Y-121016000D01*
X61515000Y-118984000D02*
X62785000Y-118984000D01*
X62785000Y-121016000D02*
X61515000Y-121016000D01*
X61515000Y-121016000D02*
X61515000Y-118984000D01*
%TO.C,C85*%
X123926800Y-122770300D02*
X122106800Y-122770300D01*
X123926800Y-121850300D02*
X123926800Y-122770300D01*
X122106800Y-122770300D02*
X122106800Y-121850300D01*
X122106800Y-121850300D02*
X123926800Y-121850300D01*
%TO.C,C86*%
X90425000Y-138050000D02*
X90425000Y-135950000D01*
X90425000Y-135950000D02*
X89275000Y-135950000D01*
X89275000Y-139400000D02*
X89275000Y-138050000D01*
X89275000Y-139400000D02*
X88125000Y-140550000D01*
X89275000Y-138050000D02*
X90425000Y-138050000D01*
X89275000Y-135950000D02*
X89275000Y-134600000D01*
X89275000Y-134600000D02*
X88125000Y-133450000D01*
X88125000Y-140550000D02*
X82175000Y-140550000D01*
X88125000Y-133450000D02*
X82175000Y-133450000D01*
X82175000Y-140550000D02*
X82175000Y-138050000D01*
X82175000Y-138050000D02*
X81025000Y-138050000D01*
X82175000Y-135950000D02*
X82175000Y-133450000D01*
X81025000Y-138050000D02*
X81025000Y-135950000D01*
X81025000Y-135950000D02*
X82175000Y-135950000D01*
%TO.C,U19*%
X102050000Y-158750000D02*
X102050000Y-157550000D01*
X102850000Y-158750000D02*
X102050000Y-158750000D01*
X102050000Y-157550000D02*
X102850000Y-157550000D01*
X102850000Y-157550000D02*
X102850000Y-158750000D01*
%TO.C,R95*%
X62630000Y-150895000D02*
X62630000Y-155423000D01*
X61170000Y-150895000D02*
X62630000Y-150895000D01*
X62630000Y-155423000D02*
X61170000Y-155423000D01*
X61170000Y-155423000D02*
X61170000Y-150895000D01*
%TO.C,C55*%
X78270000Y-116006200D02*
X78270000Y-117826200D01*
X77350000Y-116006200D02*
X78270000Y-116006200D01*
X78270000Y-117826200D02*
X77350000Y-117826200D01*
X77350000Y-117826200D02*
X77350000Y-116006200D01*
%TO.C,TP43*%
X111120000Y-92000000D02*
G75*
G03*
X111120000Y-92000000I-1520000J0D01*
G01*
%TO.C,R55*%
X122739800Y-116824300D02*
X122739800Y-113864300D01*
X124199800Y-116824300D02*
X122739800Y-116824300D01*
X122739800Y-113864300D02*
X124199800Y-113864300D01*
X124199800Y-113864300D02*
X124199800Y-116824300D01*
%TO.C,C88*%
X127587800Y-116429300D02*
X127587800Y-114609300D01*
X128507800Y-116429300D02*
X127587800Y-116429300D01*
X127587800Y-114609300D02*
X128507800Y-114609300D01*
X128507800Y-114609300D02*
X128507800Y-116429300D01*
%TO.C,C29*%
X110210000Y-122090000D02*
X110210000Y-123910000D01*
X109290000Y-122090000D02*
X110210000Y-122090000D01*
X110210000Y-123910000D02*
X109290000Y-123910000D01*
X109290000Y-123910000D02*
X109290000Y-122090000D01*
%TO.C,C46*%
X69940000Y-151890000D02*
X69940000Y-150070000D01*
X70860000Y-151890000D02*
X69940000Y-151890000D01*
X69940000Y-150070000D02*
X70860000Y-150070000D01*
X70860000Y-150070000D02*
X70860000Y-151890000D01*
%TO.C,C48*%
X75785000Y-154540000D02*
X75785000Y-156360000D01*
X74865000Y-154540000D02*
X75785000Y-154540000D01*
X75785000Y-156360000D02*
X74865000Y-156360000D01*
X74865000Y-156360000D02*
X74865000Y-154540000D01*
%TO.C,C64*%
X85138400Y-116535069D02*
X85138400Y-118355069D01*
X84218400Y-116535069D02*
X85138400Y-116535069D01*
X85138400Y-118355069D02*
X84218400Y-118355069D01*
X84218400Y-118355069D02*
X84218400Y-116535069D01*
%TO.C,R72*%
X114110000Y-132640000D02*
X110750000Y-132640000D01*
X114110000Y-130740000D02*
X114110000Y-132640000D01*
X110750000Y-132640000D02*
X110750000Y-130740000D01*
X110750000Y-130740000D02*
X114110000Y-130740000D01*
%TO.C,C92*%
X132090000Y-116530000D02*
X132090000Y-114710000D01*
X133010000Y-116530000D02*
X132090000Y-116530000D01*
X132090000Y-114710000D02*
X133010000Y-114710000D01*
X133010000Y-114710000D02*
X133010000Y-116530000D01*
%TO.C,C1*%
X104620000Y-120970000D02*
X107580000Y-120970000D01*
X104620000Y-122430000D02*
X104620000Y-120970000D01*
X107580000Y-120970000D02*
X107580000Y-122430000D01*
X107580000Y-122430000D02*
X104620000Y-122430000D01*
%TO.C,TP34*%
X120820000Y-121552825D02*
G75*
G03*
X120820000Y-121552825I-1520000J0D01*
G01*
%TO.C,U20*%
X96250000Y-153500000D02*
X96250000Y-154700000D01*
X95450000Y-153500000D02*
X96250000Y-153500000D01*
X96250000Y-154700000D02*
X95450000Y-154700000D01*
X95450000Y-154700000D02*
X95450000Y-153500000D01*
%TO.C,C5*%
X65919793Y-105957131D02*
X65919793Y-104137131D01*
X66839793Y-105957131D02*
X65919793Y-105957131D01*
X65919793Y-104137131D02*
X66839793Y-104137131D01*
X66839793Y-104137131D02*
X66839793Y-105957131D01*
%TO.C,R15*%
X92855000Y-127745000D02*
X92855000Y-130705000D01*
X91395000Y-127745000D02*
X92855000Y-127745000D01*
X92855000Y-130705000D02*
X91395000Y-130705000D01*
X91395000Y-130705000D02*
X91395000Y-127745000D01*
%TO.C,C3*%
X72900000Y-133610000D02*
X71080000Y-133610000D01*
X72900000Y-132690000D02*
X72900000Y-133610000D01*
X71080000Y-133610000D02*
X71080000Y-132690000D01*
X71080000Y-132690000D02*
X72900000Y-132690000D01*
%TO.C,C4*%
X123926800Y-119770300D02*
X122106800Y-119770300D01*
X123926800Y-118850300D02*
X123926800Y-119770300D01*
X122106800Y-119770300D02*
X122106800Y-118850300D01*
X122106800Y-118850300D02*
X123926800Y-118850300D01*
%TO.C,R6*%
X90130000Y-130630000D02*
X90130000Y-128770000D01*
X91070000Y-130630000D02*
X90130000Y-130630000D01*
X90130000Y-128770000D02*
X91070000Y-128770000D01*
X91070000Y-128770000D02*
X91070000Y-130630000D01*
%TO.C,TP42*%
X64520000Y-143900000D02*
G75*
G03*
X64520000Y-143900000I-1520000J0D01*
G01*
%TO.C,C68*%
X98965207Y-110752869D02*
X98965207Y-107792869D01*
X100425207Y-110752869D02*
X98965207Y-110752869D01*
X98965207Y-107792869D02*
X100425207Y-107792869D01*
X100425207Y-107792869D02*
X100425207Y-110752869D01*
%TO.C,C40*%
X107210000Y-141940000D02*
X109030000Y-141940000D01*
X107210000Y-142860000D02*
X107210000Y-141940000D01*
X109030000Y-141940000D02*
X109030000Y-142860000D01*
X109030000Y-142860000D02*
X107210000Y-142860000D01*
D12*
%TO.C,L4*%
X92027500Y-155342000D02*
X92027500Y-149858000D01*
X92027500Y-149858000D02*
X85221500Y-149858000D01*
X85221500Y-155342000D02*
X92027500Y-155342000D01*
X85221500Y-155342000D02*
X85221500Y-155342000D01*
X85221500Y-149858000D02*
X85221500Y-155342000D01*
D10*
%TO.C,J2*%
X67190000Y-94070000D02*
X67190000Y-90520000D01*
X80890000Y-94070000D02*
X67190000Y-94070000D01*
X67190000Y-90520000D02*
X80890000Y-90520000D01*
X80890000Y-90520000D02*
X80890000Y-94070000D01*
%TO.C,C81*%
X110750000Y-117470000D02*
X110750000Y-120870000D01*
X108790000Y-117470000D02*
X110750000Y-117470000D01*
X110750000Y-120870000D02*
X108790000Y-120870000D01*
X108790000Y-120870000D02*
X108790000Y-117470000D01*
%TO.C,L3*%
X125896400Y-123357500D02*
X125947200Y-123357500D01*
X125896400Y-129555100D02*
X125896400Y-123357500D01*
X125947200Y-123103500D02*
X132652800Y-123103500D01*
X125947200Y-123357500D02*
X125947200Y-123103500D01*
X125947200Y-129555100D02*
X125896400Y-129555100D01*
X125947200Y-129809100D02*
X125947200Y-129555100D01*
X132652800Y-123103500D02*
X132652800Y-123357500D01*
X132652800Y-123357500D02*
X132703600Y-123357500D01*
X132652800Y-129555100D02*
X132652800Y-129809100D01*
X132652800Y-129809100D02*
X125947200Y-129809100D01*
X132703600Y-123357500D02*
X132703600Y-129555100D01*
X132703600Y-129555100D02*
X132652800Y-129555100D01*
%TO.C,R20*%
X99364892Y-127161831D02*
X102324892Y-127161831D01*
X99364892Y-128621831D02*
X99364892Y-127161831D01*
X102324892Y-127161831D02*
X102324892Y-128621831D01*
X102324892Y-128621831D02*
X99364892Y-128621831D01*
%TO.C,TP18*%
X97416000Y-132435000D02*
X95384000Y-132435000D01*
X97416000Y-131165000D02*
X97416000Y-132435000D01*
X95384000Y-132435000D02*
X95384000Y-131165000D01*
X95384000Y-131165000D02*
X97416000Y-131165000D01*
%TO.C,C98*%
X88975000Y-98120000D02*
X92375000Y-98120000D01*
X88975000Y-100080000D02*
X88975000Y-98120000D01*
X92375000Y-98120000D02*
X92375000Y-100080000D01*
X92375000Y-100080000D02*
X88975000Y-100080000D01*
%TO.C,R58*%
X116145000Y-110220000D02*
X113185000Y-110220000D01*
X116145000Y-108760000D02*
X116145000Y-110220000D01*
X113185000Y-110220000D02*
X113185000Y-108760000D01*
X113185000Y-108760000D02*
X116145000Y-108760000D01*
%TO.C,D5*%
X89110000Y-91100000D02*
X91460000Y-91100000D01*
X91460000Y-91100000D02*
X91460000Y-89700000D01*
X91460000Y-89700000D02*
X89110000Y-89700000D01*
X89110000Y-89700000D02*
X89110000Y-91100000D01*
%TO.C,R40*%
X73520000Y-159930000D02*
X73520000Y-156970000D01*
X74980000Y-159930000D02*
X73520000Y-159930000D01*
X73520000Y-156970000D02*
X74980000Y-156970000D01*
X74980000Y-156970000D02*
X74980000Y-159930000D01*
%TO.C,R94*%
X133120000Y-116755000D02*
X133120000Y-113795000D01*
X134580000Y-116755000D02*
X133120000Y-116755000D01*
X133120000Y-113795000D02*
X134580000Y-113795000D01*
X134580000Y-113795000D02*
X134580000Y-116755000D01*
%TO.C,C76*%
X108582000Y-117518400D02*
X108582000Y-120478400D01*
X107122000Y-117518400D02*
X108582000Y-117518400D01*
X108582000Y-120478400D02*
X107122000Y-120478400D01*
X107122000Y-120478400D02*
X107122000Y-117518400D01*
%TO.C,R48*%
X85408400Y-112967869D02*
X85408400Y-115927869D01*
X83948400Y-112967869D02*
X85408400Y-112967869D01*
X85408400Y-115927869D02*
X83948400Y-115927869D01*
X83948400Y-115927869D02*
X83948400Y-112967869D01*
%TO.C,C99*%
X100540000Y-132885000D02*
X100540000Y-131065000D01*
X101460000Y-132885000D02*
X100540000Y-132885000D01*
X100540000Y-131065000D02*
X101460000Y-131065000D01*
X101460000Y-131065000D02*
X101460000Y-132885000D01*
%TO.C,R21*%
X99364892Y-125637831D02*
X102324892Y-125637831D01*
X99364892Y-127097831D02*
X99364892Y-125637831D01*
X102324892Y-125637831D02*
X102324892Y-127097831D01*
X102324892Y-127097831D02*
X99364892Y-127097831D01*
%TO.C,R56*%
X92640000Y-91569531D02*
X92640000Y-94529531D01*
X91180000Y-91569531D02*
X92640000Y-91569531D01*
X92640000Y-94529531D02*
X91180000Y-94529531D01*
X91180000Y-94529531D02*
X91180000Y-91569531D01*
%TO.C,C87*%
X124496800Y-121540300D02*
X121536800Y-121540300D01*
X124496800Y-120080300D02*
X124496800Y-121540300D01*
X121536800Y-121540300D02*
X121536800Y-120080300D01*
X121536800Y-120080300D02*
X124496800Y-120080300D01*
%TO.C,H4*%
X64920000Y-92800000D02*
G75*
G03*
X64920000Y-92800000I-2120000J0D01*
G01*
%TO.C,C30*%
X109131892Y-127212831D02*
X109131892Y-124252831D01*
X110591892Y-127212831D02*
X109131892Y-127212831D01*
X109131892Y-124252831D02*
X110591892Y-124252831D01*
X110591892Y-124252831D02*
X110591892Y-127212831D01*
%TO.C,R75*%
X93530000Y-148130000D02*
X90570000Y-148130000D01*
X93530000Y-146670000D02*
X93530000Y-148130000D01*
X90570000Y-148130000D02*
X90570000Y-146670000D01*
X90570000Y-146670000D02*
X93530000Y-146670000D01*
%TO.C,R12*%
X84480000Y-155430000D02*
X81520000Y-155430000D01*
X84480000Y-153970000D02*
X84480000Y-155430000D01*
X81520000Y-155430000D02*
X81520000Y-153970000D01*
X81520000Y-153970000D02*
X84480000Y-153970000D01*
D13*
%TO.C,S2*%
X64655800Y-98175699D02*
X60744200Y-98175699D01*
X60744200Y-98175699D02*
X60744200Y-104174301D01*
X64655800Y-104174301D02*
X64655800Y-98175699D01*
X60744200Y-104174301D02*
X64655800Y-104174301D01*
D10*
%TO.C,R1*%
X67270000Y-116370000D02*
X65410000Y-116370000D01*
X67270000Y-115430000D02*
X67270000Y-116370000D01*
X65410000Y-116370000D02*
X65410000Y-115430000D01*
X65410000Y-115430000D02*
X67270000Y-115430000D01*
%TO.C,TP1*%
X61515000Y-123116000D02*
X61515000Y-121084000D01*
X62785000Y-123116000D02*
X61515000Y-123116000D01*
X61515000Y-121084000D02*
X62785000Y-121084000D01*
X62785000Y-121084000D02*
X62785000Y-123116000D01*
%TO.C,U24*%
X93150000Y-159100000D02*
X95750000Y-159100000D01*
X95750000Y-159100000D02*
X95750000Y-156500000D01*
X95750000Y-156500000D02*
X93150000Y-156500000D01*
X93150000Y-156500000D02*
X93150000Y-159100000D01*
%TO.C,C33*%
X104813892Y-133402869D02*
X104813892Y-130442869D01*
X106273892Y-133402869D02*
X104813892Y-133402869D01*
X104813892Y-130442869D02*
X106273892Y-130442869D01*
X106273892Y-130442869D02*
X106273892Y-133402869D01*
%TO.C,C93*%
X130470000Y-116980000D02*
X130470000Y-114020000D01*
X131930000Y-116980000D02*
X130470000Y-116980000D01*
X130470000Y-114020000D02*
X131930000Y-114020000D01*
X131930000Y-114020000D02*
X131930000Y-116980000D01*
%TO.C,U3*%
X67780400Y-119636300D02*
X67780400Y-127876300D01*
X67780400Y-127876300D02*
X76020400Y-127876300D01*
X76020400Y-119636300D02*
X67780400Y-119636300D01*
X76020400Y-127876300D02*
X76020400Y-119636300D01*
%TO.C,R53*%
X125787800Y-117155000D02*
X125787800Y-114195000D01*
X127247800Y-117155000D02*
X125787800Y-117155000D01*
X125787800Y-114195000D02*
X127247800Y-114195000D01*
X127247800Y-114195000D02*
X127247800Y-117155000D01*
%TO.C,R8*%
X78002500Y-98180000D02*
X80962500Y-98180000D01*
X78002500Y-99640000D02*
X78002500Y-98180000D01*
X80962500Y-98180000D02*
X80962500Y-99640000D01*
X80962500Y-99640000D02*
X78002500Y-99640000D01*
%TO.C,C16*%
X75148800Y-119179900D02*
X75148800Y-117359900D01*
X76068800Y-119179900D02*
X75148800Y-119179900D01*
X75148800Y-117359900D02*
X76068800Y-117359900D01*
X76068800Y-117359900D02*
X76068800Y-119179900D01*
%TO.C,R52*%
X113389329Y-104790000D02*
X113389329Y-108150000D01*
X111489329Y-104790000D02*
X113389329Y-104790000D01*
X113389329Y-108150000D02*
X111489329Y-108150000D01*
X111489329Y-108150000D02*
X111489329Y-104790000D01*
%TO.C,TP21*%
X109965000Y-98216000D02*
X109965000Y-96184000D01*
X111235000Y-98216000D02*
X109965000Y-98216000D01*
X109965000Y-96184000D02*
X111235000Y-96184000D01*
X111235000Y-96184000D02*
X111235000Y-98216000D01*
%TO.C,R35*%
X62720000Y-156870000D02*
X65680000Y-156870000D01*
X62720000Y-158330000D02*
X62720000Y-156870000D01*
X65680000Y-156870000D02*
X65680000Y-158330000D01*
X65680000Y-158330000D02*
X62720000Y-158330000D01*
%TO.C,U5*%
X95817892Y-129923331D02*
X99267892Y-129923331D01*
X95817892Y-129923331D02*
X95817892Y-124463331D01*
X99267892Y-129923331D02*
X99267892Y-124463331D01*
X95817892Y-124463331D02*
X99267892Y-124463331D01*
%TO.C,R63*%
X119006892Y-110653831D02*
X121966892Y-110653831D01*
X119006892Y-112113831D02*
X119006892Y-110653831D01*
X121966892Y-110653831D02*
X121966892Y-112113831D01*
X121966892Y-112113831D02*
X119006892Y-112113831D01*
%TO.C,U8*%
X105980000Y-146800000D02*
X105980000Y-142900000D01*
X105980000Y-142900000D02*
X102080000Y-142900000D01*
X102080000Y-146800000D02*
X105980000Y-146800000D01*
X102080000Y-142900000D02*
X102080000Y-146800000D01*
%TO.C,C51*%
X68840000Y-151910000D02*
X68840000Y-150090000D01*
X69760000Y-151910000D02*
X68840000Y-151910000D01*
X68840000Y-150090000D02*
X69760000Y-150090000D01*
X69760000Y-150090000D02*
X69760000Y-151910000D01*
%TO.C,R87*%
X67130000Y-149920000D02*
X67130000Y-152880000D01*
X65670000Y-149920000D02*
X67130000Y-149920000D01*
X67130000Y-152880000D02*
X65670000Y-152880000D01*
X65670000Y-152880000D02*
X65670000Y-149920000D01*
%TO.C,L1*%
X117151692Y-123853231D02*
X117151692Y-123904031D01*
X110954092Y-123853231D02*
X117151692Y-123853231D01*
X117405692Y-123904031D02*
X117405692Y-130609631D01*
X117151692Y-123904031D02*
X117405692Y-123904031D01*
X110954092Y-123904031D02*
X110954092Y-123853231D01*
X110700092Y-123904031D02*
X110954092Y-123904031D01*
X117405692Y-130609631D02*
X117151692Y-130609631D01*
X117151692Y-130609631D02*
X117151692Y-130660431D01*
X110954092Y-130609631D02*
X110700092Y-130609631D01*
X110700092Y-130609631D02*
X110700092Y-123904031D01*
X117151692Y-130660431D02*
X110954092Y-130660431D01*
X110954092Y-130660431D02*
X110954092Y-130609631D01*
D12*
%TO.C,U12*%
X78356800Y-110675600D02*
X78356800Y-114331600D01*
X78356800Y-114331600D02*
X81192800Y-114331600D01*
X81192800Y-110675600D02*
X78356800Y-110675600D01*
X81192800Y-110675600D02*
X81192800Y-110675600D01*
X81192800Y-114331600D02*
X81192800Y-110675600D01*
D10*
%TO.C,R73*%
X89200000Y-159080000D02*
X89200000Y-155720000D01*
X91100000Y-159080000D02*
X89200000Y-159080000D01*
X89200000Y-155720000D02*
X91100000Y-155720000D01*
X91100000Y-155720000D02*
X91100000Y-159080000D01*
%TO.C,C82*%
X112750000Y-117470000D02*
X112750000Y-120870000D01*
X110790000Y-117470000D02*
X112750000Y-117470000D01*
X112750000Y-120870000D02*
X110790000Y-120870000D01*
X110790000Y-120870000D02*
X110790000Y-117470000D01*
%TO.C,R61*%
X118456892Y-119988831D02*
X118456892Y-117028831D01*
X119916892Y-119988831D02*
X118456892Y-119988831D01*
X118456892Y-117028831D02*
X119916892Y-117028831D01*
X119916892Y-117028831D02*
X119916892Y-119988831D01*
%TO.C,C20*%
X123793892Y-109223831D02*
X123793892Y-112183831D01*
X122333892Y-109223831D02*
X123793892Y-109223831D01*
X123793892Y-112183831D02*
X122333892Y-112183831D01*
X122333892Y-112183831D02*
X122333892Y-109223831D01*
%TO.C,C67*%
X97444600Y-110775600D02*
X97444600Y-107815600D01*
X98904600Y-110775600D02*
X97444600Y-110775600D01*
X97444600Y-107815600D02*
X98904600Y-107815600D01*
X98904600Y-107815600D02*
X98904600Y-110775600D01*
%TO.C,C100*%
X84237500Y-157480000D02*
X80837500Y-157480000D01*
X84237500Y-155520000D02*
X84237500Y-157480000D01*
X80837500Y-157480000D02*
X80837500Y-155520000D01*
X80837500Y-155520000D02*
X84237500Y-155520000D01*
%TO.C,R67*%
X103880000Y-108340000D02*
X100520000Y-108340000D01*
X103880000Y-106440000D02*
X103880000Y-108340000D01*
X100520000Y-108340000D02*
X100520000Y-106440000D01*
X100520000Y-106440000D02*
X103880000Y-106440000D01*
%TO.C,R97*%
X90190000Y-91545000D02*
X90190000Y-94505000D01*
X88730000Y-91545000D02*
X90190000Y-91545000D01*
X90190000Y-94505000D02*
X88730000Y-94505000D01*
X88730000Y-94505000D02*
X88730000Y-91545000D01*
%TO.C,R91*%
X128870000Y-116955000D02*
X128870000Y-113995000D01*
X130330000Y-116955000D02*
X128870000Y-116955000D01*
X128870000Y-113995000D02*
X130330000Y-113995000D01*
X130330000Y-113995000D02*
X130330000Y-116955000D01*
%TO.C,C105*%
X113450000Y-105990000D02*
X113450000Y-104170000D01*
X114370000Y-105990000D02*
X113450000Y-105990000D01*
X113450000Y-104170000D02*
X114370000Y-104170000D01*
X114370000Y-104170000D02*
X114370000Y-105990000D01*
%TO.C,C104*%
X119576892Y-113973831D02*
X121396892Y-113973831D01*
X119576892Y-114893831D02*
X119576892Y-113973831D01*
X121396892Y-113973831D02*
X121396892Y-114893831D01*
X121396892Y-114893831D02*
X119576892Y-114893831D01*
%TO.C,C102*%
X121171892Y-117598831D02*
X121171892Y-119418831D01*
X120251892Y-117598831D02*
X121171892Y-117598831D01*
X121171892Y-119418831D02*
X120251892Y-119418831D01*
X120251892Y-119418831D02*
X120251892Y-117598831D01*
%TO.C,R28*%
X100550000Y-145980000D02*
X100550000Y-143020000D01*
X102010000Y-145980000D02*
X100550000Y-145980000D01*
X100550000Y-143020000D02*
X102010000Y-143020000D01*
X102010000Y-143020000D02*
X102010000Y-145980000D01*
%TO.C,U15*%
X103025000Y-154750000D02*
X104225000Y-154750000D01*
X103025000Y-155550000D02*
X103025000Y-154750000D01*
X104225000Y-154750000D02*
X104225000Y-155550000D01*
X104225000Y-155550000D02*
X103025000Y-155550000D01*
%TO.C,H3*%
X122711685Y-92610962D02*
G75*
G03*
X122711685Y-92610962I-2120000J0D01*
G01*
%TO.C,R82*%
X94470000Y-124180000D02*
X94470000Y-121220000D01*
X95930000Y-124180000D02*
X94470000Y-124180000D01*
X94470000Y-121220000D02*
X95930000Y-121220000D01*
X95930000Y-121220000D02*
X95930000Y-124180000D01*
%TO.C,C70*%
X94890199Y-118455200D02*
X94890199Y-120275200D01*
X93970199Y-118455200D02*
X94890199Y-118455200D01*
X94890199Y-120275200D02*
X93970199Y-120275200D01*
X93970199Y-120275200D02*
X93970199Y-118455200D01*
%TO.C,TP28*%
X67916190Y-98900000D02*
G75*
G03*
X67916190Y-98900000I-1166190J0D01*
G01*
%TO.C,U13*%
X91876193Y-113029599D02*
X91876193Y-114937601D01*
X91876198Y-114937601D02*
X91876198Y-115737101D01*
X91876198Y-115737101D02*
X92176199Y-115737101D01*
X91876199Y-112629600D02*
X91876199Y-113029599D01*
X92176199Y-111929600D02*
X92176199Y-112629600D01*
X92176199Y-112629600D02*
X91876199Y-112629600D01*
X92176199Y-115737101D02*
X92176199Y-116437600D01*
X92176199Y-116437600D02*
X92476198Y-116437600D01*
X92476198Y-116437600D02*
X92476198Y-116737101D01*
X92476198Y-116737101D02*
X92876698Y-116737101D01*
X92476200Y-111629600D02*
X92476200Y-111929600D01*
X92476200Y-111929600D02*
X92176199Y-111929600D01*
X92876698Y-116737601D02*
X94076199Y-116737601D01*
X94076199Y-111629600D02*
X92476200Y-111629600D01*
X94076199Y-116737606D02*
X95184198Y-116737606D01*
X94784199Y-111629594D02*
X94076199Y-111629594D01*
X95184198Y-116737601D02*
X96384699Y-116737601D01*
X96384198Y-111629600D02*
X94784199Y-111629600D01*
X96384198Y-111929600D02*
X96384198Y-111629600D01*
X96384699Y-116437600D02*
X96684199Y-116437600D01*
X96384699Y-116737601D02*
X96384699Y-116437600D01*
X96684199Y-111929600D02*
X96384198Y-111929600D01*
X96684199Y-112629600D02*
X96684199Y-111929600D01*
X96684199Y-115737600D02*
X96984205Y-115737600D01*
X96684199Y-116437600D02*
X96684199Y-115737600D01*
X96984205Y-112629600D02*
X96684199Y-112629600D01*
X96984205Y-113429600D02*
X96984205Y-112629600D01*
X96984205Y-114229602D02*
X96984205Y-113429600D01*
X96984205Y-115737600D02*
X96984205Y-114229602D01*
%TO.C,C80*%
X97765207Y-115027869D02*
X97765207Y-112067869D01*
X99225207Y-115027869D02*
X97765207Y-115027869D01*
X97765207Y-112067869D02*
X99225207Y-112067869D01*
X99225207Y-112067869D02*
X99225207Y-115027869D01*
%TO.C,U17*%
X84911000Y-152409000D02*
X81689000Y-152409000D01*
X84911000Y-149091000D02*
X84911000Y-152409000D01*
X81689000Y-152409000D02*
X81689000Y-149091000D01*
X81689000Y-149091000D02*
X84911000Y-149091000D01*
%TO.C,C23*%
X103920000Y-107450000D02*
X103920000Y-104050000D01*
X105880000Y-107450000D02*
X103920000Y-107450000D01*
X103920000Y-104050000D02*
X105880000Y-104050000D01*
X105880000Y-104050000D02*
X105880000Y-107450000D01*
%TO.C,R83*%
X132880000Y-113230000D02*
X129920000Y-113230000D01*
X132880000Y-111770000D02*
X132880000Y-113230000D01*
X129920000Y-113230000D02*
X129920000Y-111770000D01*
X129920000Y-111770000D02*
X132880000Y-111770000D01*
%TO.C,R93*%
X120575000Y-123150000D02*
X123535000Y-123150000D01*
X120575000Y-124610000D02*
X120575000Y-123150000D01*
X123535000Y-123150000D02*
X123535000Y-124610000D01*
X123535000Y-124610000D02*
X120575000Y-124610000D01*
%TO.C,C31*%
X109131892Y-130260831D02*
X109131892Y-127300831D01*
X110591892Y-130260831D02*
X109131892Y-130260831D01*
X109131892Y-127300831D02*
X110591892Y-127300831D01*
X110591892Y-127300831D02*
X110591892Y-130260831D01*
%TO.C,R50*%
X95890599Y-110236800D02*
X95890599Y-108376800D01*
X96830599Y-110236800D02*
X95890599Y-110236800D01*
X95890599Y-108376800D02*
X96830599Y-108376800D01*
X96830599Y-108376800D02*
X96830599Y-110236800D01*
%TO.C,R88*%
X62630000Y-155545000D02*
X62630000Y-158505000D01*
X61170000Y-155545000D02*
X62630000Y-155545000D01*
X62630000Y-158505000D02*
X61170000Y-158505000D01*
X61170000Y-158505000D02*
X61170000Y-155545000D01*
%TO.C,C39*%
X87970000Y-123040000D02*
X89790000Y-123040000D01*
X87970000Y-123960000D02*
X87970000Y-123040000D01*
X89790000Y-123040000D02*
X89790000Y-123960000D01*
X89790000Y-123960000D02*
X87970000Y-123960000D01*
%TD*%
M02*
