%TF.GenerationSoftware,KiCad,Pcbnew,7.0.6-7.0.6~ubuntu22.04.1*%
%TF.CreationDate,2023-09-13T14:48:35-04:00*%
%TF.ProjectId,robot,726f626f-742e-46b6-9963-61645f706362,rev?*%
%TF.SameCoordinates,Original*%
%TF.FileFunction,Soldermask,Bot*%
%TF.FilePolarity,Negative*%
%FSLAX46Y46*%
G04 Gerber Fmt 4.6, Leading zero omitted, Abs format (unit mm)*
G04 Created by KiCad (PCBNEW 7.0.6-7.0.6~ubuntu22.04.1) date 2023-09-13 14:48:35*
%MOMM*%
%LPD*%
G01*
G04 APERTURE LIST*
G04 Aperture macros list*
%AMRoundRect*
0 Rectangle with rounded corners*
0 $1 Rounding radius*
0 $2 $3 $4 $5 $6 $7 $8 $9 X,Y pos of 4 corners*
0 Add a 4 corners polygon primitive as box body*
4,1,4,$2,$3,$4,$5,$6,$7,$8,$9,$2,$3,0*
0 Add four circle primitives for the rounded corners*
1,1,$1+$1,$2,$3*
1,1,$1+$1,$4,$5*
1,1,$1+$1,$6,$7*
1,1,$1+$1,$8,$9*
0 Add four rect primitives between the rounded corners*
20,1,$1+$1,$2,$3,$4,$5,0*
20,1,$1+$1,$4,$5,$6,$7,0*
20,1,$1+$1,$6,$7,$8,$9,0*
20,1,$1+$1,$8,$9,$2,$3,0*%
G04 Aperture macros list end*
%ADD10C,0.010000*%
%ADD11C,0.650000*%
%ADD12O,0.950000X0.650000*%
%ADD13O,0.800000X1.400000*%
%ADD14C,2.200000*%
%ADD15C,0.640000*%
%ADD16C,1.755000*%
%ADD17C,0.540000*%
%ADD18C,2.000000*%
%ADD19R,1.700000X1.700000*%
%ADD20O,1.700000X1.700000*%
%ADD21RoundRect,0.140000X0.170000X-0.140000X0.170000X0.140000X-0.170000X0.140000X-0.170000X-0.140000X0*%
%ADD22RoundRect,0.200000X0.200000X0.275000X-0.200000X0.275000X-0.200000X-0.275000X0.200000X-0.275000X0*%
%ADD23RoundRect,0.140000X0.140000X0.170000X-0.140000X0.170000X-0.140000X-0.170000X0.140000X-0.170000X0*%
%ADD24RoundRect,0.140000X-0.170000X0.140000X-0.170000X-0.140000X0.170000X-0.140000X0.170000X0.140000X0*%
%ADD25RoundRect,0.120000X0.100000X0.200000X-0.100000X0.200000X-0.100000X-0.200000X0.100000X-0.200000X0*%
%ADD26RoundRect,0.140000X-0.140000X-0.170000X0.140000X-0.170000X0.140000X0.170000X-0.140000X0.170000X0*%
%ADD27RoundRect,0.120000X-0.100000X-0.200000X0.100000X-0.200000X0.100000X0.200000X-0.100000X0.200000X0*%
%ADD28RoundRect,0.225000X0.225000X0.250000X-0.225000X0.250000X-0.225000X-0.250000X0.225000X-0.250000X0*%
%ADD29O,2.500000X3.600000*%
%ADD30C,0.750000*%
%ADD31R,0.280000X1.050000*%
%ADD32O,1.700000X0.850000*%
%ADD33O,2.000000X1.000000*%
%ADD34O,2.200000X1.100000*%
%ADD35RoundRect,0.225000X-0.225000X-0.250000X0.225000X-0.250000X0.225000X0.250000X-0.225000X0.250000X0*%
%ADD36R,3.403600X0.711200*%
%ADD37R,2.387600X1.600200*%
%ADD38RoundRect,0.250000X0.325000X0.650000X-0.325000X0.650000X-0.325000X-0.650000X0.325000X-0.650000X0*%
%ADD39C,1.000000*%
G04 APERTURE END LIST*
%TO.C,SW1*%
D10*
X102576200Y-134476200D02*
X99423800Y-134476200D01*
X99423800Y-132223800D01*
X102576200Y-132223800D01*
X102576200Y-134476200D01*
G36*
X102576200Y-134476200D02*
G01*
X99423800Y-134476200D01*
X99423800Y-132223800D01*
X102576200Y-132223800D01*
X102576200Y-134476200D01*
G37*
X98976200Y-131276200D02*
X97523800Y-131276200D01*
X97523800Y-130323800D01*
X98976200Y-130323800D01*
X98976200Y-131276200D01*
G36*
X98976200Y-131276200D02*
G01*
X97523800Y-131276200D01*
X97523800Y-130323800D01*
X98976200Y-130323800D01*
X98976200Y-131276200D01*
G37*
X98976200Y-130026200D02*
X97523800Y-130026200D01*
X97523800Y-129073800D01*
X98976200Y-129073800D01*
X98976200Y-130026200D01*
G36*
X98976200Y-130026200D02*
G01*
X97523800Y-130026200D01*
X97523800Y-129073800D01*
X98976200Y-129073800D01*
X98976200Y-130026200D01*
G37*
X102576200Y-128126200D02*
X99423800Y-128126200D01*
X99423800Y-125873800D01*
X102576200Y-125873800D01*
X102576200Y-128126200D01*
G36*
X102576200Y-128126200D02*
G01*
X99423800Y-128126200D01*
X99423800Y-125873800D01*
X102576200Y-125873800D01*
X102576200Y-128126200D01*
G37*
%TD*%
D11*
%TO.C,J1*%
X131900000Y-99189998D03*
D12*
X124700000Y-99189998D03*
D13*
X132790000Y-91990000D03*
X132430000Y-97939998D03*
X124170000Y-97939998D03*
X123810000Y-91990000D03*
%TD*%
D14*
%TO.C,H2*%
X121500000Y-152500000D03*
%TD*%
%TO.C,H5*%
X121500000Y-130000000D03*
%TD*%
D15*
%TO.C,Q5*%
X83627401Y-122990100D03*
%TD*%
D16*
%TO.C,TP39*%
X82740000Y-92540000D03*
%TD*%
D14*
%TO.C,H6*%
X78500000Y-130000000D03*
%TD*%
D17*
%TO.C,U25*%
X125200000Y-112850000D03*
X126300000Y-112850000D03*
%TD*%
D16*
%TO.C,TP30*%
X116800000Y-121570495D03*
%TD*%
D14*
%TO.C,H1*%
X78500000Y-152865000D03*
%TD*%
%TO.C,TP29*%
X87750000Y-98850000D03*
%TD*%
D16*
%TO.C,TP40*%
X135550000Y-118900000D03*
%TD*%
D18*
%TO.C,J8*%
X107100000Y-92100000D03*
X112100000Y-92100000D03*
%TD*%
D15*
%TO.C,Q6*%
X71317500Y-136849999D03*
%TD*%
D16*
%TO.C,TP41*%
X124650000Y-135200000D03*
%TD*%
%TO.C,TP43*%
X119350000Y-135250000D03*
%TD*%
%TO.C,TP34*%
X119900000Y-121550000D03*
%TD*%
%TO.C,TP42*%
X63000000Y-143900000D03*
%TD*%
D19*
%TO.C,J2*%
X68990000Y-92270000D03*
D20*
X71530000Y-92270000D03*
X74070000Y-92270000D03*
X76610000Y-92270000D03*
X79150000Y-92270000D03*
%TD*%
D14*
%TO.C,H4*%
X62800000Y-92800000D03*
%TD*%
D17*
%TO.C,U24*%
X93900000Y-157800000D03*
X95000000Y-157800000D03*
%TD*%
D14*
%TO.C,H3*%
X120591685Y-92610962D03*
%TD*%
%TO.C,TP28*%
X66750000Y-98900000D03*
%TD*%
D21*
%TO.C,C121*%
X115650000Y-92140000D03*
X115650000Y-93100000D03*
%TD*%
D22*
%TO.C,R90*%
X122250000Y-121300000D03*
X123900000Y-121300000D03*
%TD*%
D23*
%TO.C,C18*%
X130270000Y-100750000D03*
X131230000Y-100750000D03*
%TD*%
D24*
%TO.C,C128*%
X114350000Y-94955000D03*
X114350000Y-93995000D03*
%TD*%
D25*
%TO.C,U28*%
X130450000Y-98050000D03*
X131150000Y-98050000D03*
%TD*%
D26*
%TO.C,C14*%
X71075207Y-125983831D03*
X70115207Y-125983831D03*
%TD*%
D24*
%TO.C,C117*%
X113400000Y-94955000D03*
X113400000Y-93995000D03*
%TD*%
%TO.C,C118*%
X107550000Y-94930000D03*
X107550000Y-93970000D03*
%TD*%
%TO.C,C120*%
X106600000Y-94930000D03*
X106600000Y-93970000D03*
%TD*%
D27*
%TO.C,U27*%
X126150000Y-99850000D03*
X125450000Y-99850000D03*
%TD*%
D28*
%TO.C,C17*%
X67625000Y-121300000D03*
X69175000Y-121300000D03*
%TD*%
D25*
%TO.C,U26*%
X130300000Y-99850000D03*
X131000000Y-99850000D03*
%TD*%
D24*
%TO.C,C115*%
X112450000Y-94955000D03*
X112450000Y-93995000D03*
%TD*%
D29*
%TO.C,BT1*%
X62870000Y-109785000D03*
X137130000Y-109785000D03*
%TD*%
D21*
%TO.C,C116*%
X114700000Y-92140000D03*
X114700000Y-93100000D03*
%TD*%
D22*
%TO.C,R23*%
X80975000Y-120900000D03*
X82625000Y-120900000D03*
%TD*%
D26*
%TO.C,C19*%
X125750000Y-100750000D03*
X124790000Y-100750000D03*
%TD*%
D30*
%TO.C,J4*%
X103810000Y-153780000D03*
X96190000Y-151930000D03*
D31*
X97250000Y-151875000D03*
X97750000Y-151875000D03*
X98250000Y-151875000D03*
X98750000Y-151875000D03*
X99250000Y-151875000D03*
X99750000Y-151875000D03*
X100250000Y-151875000D03*
X100750000Y-151875000D03*
X101250000Y-151875000D03*
X101750000Y-151875000D03*
X102250000Y-151875000D03*
X102750000Y-151875000D03*
X102750000Y-153825000D03*
X102250000Y-153825000D03*
X101750000Y-153825000D03*
X101250000Y-153825000D03*
X100750000Y-153825000D03*
X100250000Y-153825000D03*
X99750000Y-153825000D03*
X99250000Y-153825000D03*
X98750000Y-153825000D03*
X98250000Y-153825000D03*
X97750000Y-153825000D03*
X97250000Y-153825000D03*
D32*
X104010000Y-152850000D03*
D33*
X101750000Y-150050000D03*
X98250000Y-150050000D03*
D32*
X95990000Y-152850000D03*
D34*
X100000000Y-155650000D03*
%TD*%
D24*
%TO.C,C37*%
X78200000Y-121380000D03*
X78200000Y-120420000D03*
%TD*%
D35*
%TO.C,C124*%
X116225000Y-100500000D03*
X114675000Y-100500000D03*
%TD*%
D26*
%TO.C,C126*%
X115380000Y-101700000D03*
X114420000Y-101700000D03*
%TD*%
D23*
%TO.C,C11*%
X68620000Y-119500000D03*
X69580000Y-119500000D03*
%TD*%
D36*
%TO.C,J3*%
X92403500Y-135925000D03*
X92403500Y-134425001D03*
X92403500Y-132925001D03*
X92403500Y-131424999D03*
X92403500Y-129924999D03*
X92403500Y-128425000D03*
D37*
X94353501Y-137975001D03*
X94353501Y-126374999D03*
%TD*%
D21*
%TO.C,C113*%
X113750000Y-92140000D03*
X113750000Y-93100000D03*
%TD*%
%TO.C,C114*%
X117550000Y-92140000D03*
X117550000Y-93100000D03*
%TD*%
%TO.C,C122*%
X111500000Y-93970000D03*
X111500000Y-94930000D03*
%TD*%
D24*
%TO.C,C123*%
X105650000Y-94930000D03*
X105650000Y-93970000D03*
%TD*%
D36*
%TO.C,J5*%
X107596500Y-128425000D03*
X107596500Y-129924999D03*
X107596500Y-131424999D03*
X107596500Y-132925001D03*
X107596500Y-134425001D03*
X107596500Y-135925000D03*
D37*
X105646499Y-126374999D03*
X105646499Y-137975001D03*
%TD*%
D27*
%TO.C,U29*%
X126650000Y-98050000D03*
X125950000Y-98050000D03*
%TD*%
D38*
%TO.C,C125*%
X118775000Y-98550000D03*
X115825000Y-98550000D03*
%TD*%
D39*
%TO.C,TH1*%
X127605000Y-108835000D03*
X127605000Y-110835000D03*
%TD*%
D23*
%TO.C,C7*%
X73015207Y-125983831D03*
X73975207Y-125983831D03*
%TD*%
D21*
%TO.C,C119*%
X116600000Y-92140000D03*
X116600000Y-93100000D03*
%TD*%
M02*
