%TF.GenerationSoftware,KiCad,Pcbnew,6.0.9-8da3e8f707~116~ubuntu20.04.1*%
%TF.CreationDate,2022-12-07T16:06:54+09:00*%
%TF.ProjectId,robot,726f626f-742e-46b6-9963-61645f706362,rev?*%
%TF.SameCoordinates,Original*%
%TF.FileFunction,Soldermask,Bot*%
%TF.FilePolarity,Negative*%
%FSLAX46Y46*%
G04 Gerber Fmt 4.6, Leading zero omitted, Abs format (unit mm)*
G04 Created by KiCad (PCBNEW 6.0.9-8da3e8f707~116~ubuntu20.04.1) date 2022-12-07 16:06:54*
%MOMM*%
%LPD*%
G01*
G04 APERTURE LIST*
G04 Aperture macros list*
%AMRoundRect*
0 Rectangle with rounded corners*
0 $1 Rounding radius*
0 $2 $3 $4 $5 $6 $7 $8 $9 X,Y pos of 4 corners*
0 Add a 4 corners polygon primitive as box body*
4,1,4,$2,$3,$4,$5,$6,$7,$8,$9,$2,$3,0*
0 Add four circle primitives for the rounded corners*
1,1,$1+$1,$2,$3*
1,1,$1+$1,$4,$5*
1,1,$1+$1,$6,$7*
1,1,$1+$1,$8,$9*
0 Add four rect primitives between the rounded corners*
20,1,$1+$1,$2,$3,$4,$5,0*
20,1,$1+$1,$4,$5,$6,$7,0*
20,1,$1+$1,$6,$7,$8,$9,0*
20,1,$1+$1,$8,$9,$2,$3,0*%
G04 Aperture macros list end*
%ADD10O,0.650000X0.950000*%
%ADD11C,0.650000*%
%ADD12O,1.400000X0.800000*%
%ADD13C,2.700000*%
%ADD14RoundRect,0.255000X-0.595000X-0.595000X0.595000X-0.595000X0.595000X0.595000X-0.595000X0.595000X0*%
%ADD15O,1.700000X1.700000*%
%ADD16C,1.755000*%
%ADD17C,1.524000*%
%ADD18C,0.508000*%
%ADD19RoundRect,0.255000X0.595000X-0.595000X0.595000X0.595000X-0.595000X0.595000X-0.595000X-0.595000X0*%
%ADD20C,0.540000*%
%ADD21O,2.500000X3.600000*%
%ADD22RoundRect,0.255000X-0.595000X0.595000X-0.595000X-0.595000X0.595000X-0.595000X0.595000X0.595000X0*%
%ADD23RoundRect,0.255000X0.595000X0.595000X-0.595000X0.595000X-0.595000X-0.595000X0.595000X-0.595000X0*%
%ADD24C,1.000000*%
%ADD25RoundRect,0.120000X0.200000X-0.100000X0.200000X0.100000X-0.200000X0.100000X-0.200000X-0.100000X0*%
%ADD26RoundRect,0.140000X0.140000X0.170000X-0.140000X0.170000X-0.140000X-0.170000X0.140000X-0.170000X0*%
%ADD27RoundRect,0.200000X-0.200000X-0.275000X0.200000X-0.275000X0.200000X0.275000X-0.200000X0.275000X0*%
%ADD28RoundRect,0.135000X-0.135000X-0.185000X0.135000X-0.185000X0.135000X0.185000X-0.135000X0.185000X0*%
%ADD29RoundRect,0.135000X-0.185000X0.135000X-0.185000X-0.135000X0.185000X-0.135000X0.185000X0.135000X0*%
%ADD30RoundRect,0.140000X-0.140000X-0.170000X0.140000X-0.170000X0.140000X0.170000X-0.140000X0.170000X0*%
%ADD31RoundRect,0.120000X0.100000X0.200000X-0.100000X0.200000X-0.100000X-0.200000X0.100000X-0.200000X0*%
%ADD32RoundRect,0.225000X-0.225000X-0.250000X0.225000X-0.250000X0.225000X0.250000X-0.225000X0.250000X0*%
%ADD33RoundRect,0.250000X-0.475000X0.250000X-0.475000X-0.250000X0.475000X-0.250000X0.475000X0.250000X0*%
%ADD34RoundRect,0.135000X0.185000X-0.135000X0.185000X0.135000X-0.185000X0.135000X-0.185000X-0.135000X0*%
%ADD35RoundRect,0.200000X-0.275000X0.200000X-0.275000X-0.200000X0.275000X-0.200000X0.275000X0.200000X0*%
%ADD36RoundRect,0.200000X0.275000X-0.200000X0.275000X0.200000X-0.275000X0.200000X-0.275000X-0.200000X0*%
%ADD37C,0.520000*%
%ADD38R,0.300000X0.870000*%
%ADD39O,2.200000X1.100000*%
%ADD40RoundRect,0.140000X0.170000X-0.140000X0.170000X0.140000X-0.170000X0.140000X-0.170000X-0.140000X0*%
%ADD41RoundRect,0.140000X-0.170000X0.140000X-0.170000X-0.140000X0.170000X-0.140000X0.170000X0.140000X0*%
G04 APERTURE END LIST*
D10*
%TO.C,J1*%
X131401686Y-86110962D03*
D11*
X131401686Y-93310962D03*
D12*
X138601684Y-85220962D03*
X132651686Y-93840962D03*
X132651686Y-85580962D03*
X138601684Y-94200962D03*
%TD*%
D13*
%TO.C,H2*%
X137000000Y-157000000D03*
%TD*%
D14*
%TO.C,JP11*%
X69400000Y-146075000D03*
D15*
X69400000Y-148615000D03*
X69400000Y-151155000D03*
%TD*%
D16*
%TO.C,TP11*%
X121561593Y-85531469D03*
%TD*%
%TO.C,TP23*%
X101873993Y-84789931D03*
%TD*%
%TO.C,TP9*%
X123365678Y-88289931D03*
%TD*%
D14*
%TO.C,TP35*%
X65000000Y-101025000D03*
D15*
X65000000Y-103565000D03*
%TD*%
D16*
%TO.C,TP32*%
X100695685Y-113055962D03*
%TD*%
%TO.C,TP5*%
X91040000Y-104690000D03*
%TD*%
D17*
%TO.C,U1*%
X106400000Y-85200000D03*
X108900000Y-85200000D03*
X111400000Y-85200000D03*
%TD*%
D16*
%TO.C,TP19*%
X84423993Y-145969931D03*
%TD*%
%TO.C,TP3*%
X132550000Y-158090000D03*
%TD*%
%TO.C,TP15*%
X104200000Y-151800000D03*
%TD*%
%TO.C,TP22*%
X62000000Y-152100000D03*
%TD*%
D18*
%TO.C,Q5*%
X82838494Y-104110931D03*
X83625894Y-104110931D03*
X83625894Y-103323531D03*
X82838494Y-103323531D03*
%TD*%
D16*
%TO.C,TP25*%
X106600000Y-97200000D03*
%TD*%
D19*
%TO.C,JP8*%
X86757592Y-88654331D03*
D15*
X89297592Y-88654331D03*
%TD*%
D16*
%TO.C,TP10*%
X125023993Y-85439931D03*
%TD*%
D19*
%TO.C,JP9*%
X86757592Y-92311931D03*
D15*
X89297592Y-92311931D03*
%TD*%
D16*
%TO.C,TP2*%
X101700000Y-145800000D03*
%TD*%
D14*
%TO.C,JP6*%
X61996629Y-146135672D03*
D15*
X61996629Y-148675672D03*
%TD*%
D16*
%TO.C,TP21*%
X85500000Y-158300000D03*
%TD*%
D20*
%TO.C,U25*%
X127950000Y-93250000D03*
X129050000Y-93250000D03*
%TD*%
D16*
%TO.C,TP14*%
X103200000Y-148700000D03*
%TD*%
D13*
%TO.C,H1*%
X63000000Y-157000000D03*
%TD*%
D21*
%TO.C,BT1*%
X62899085Y-129468462D03*
X137149085Y-129468462D03*
%TD*%
D16*
%TO.C,TP16*%
X74500000Y-158300000D03*
%TD*%
D14*
%TO.C,JP12*%
X73200000Y-146100000D03*
D15*
X73200000Y-148640000D03*
X73200000Y-151180000D03*
%TD*%
D16*
%TO.C,TP29*%
X107400000Y-151900000D03*
%TD*%
%TO.C,TP24*%
X94430000Y-84760000D03*
%TD*%
%TO.C,TP26*%
X110674593Y-100300000D03*
%TD*%
D22*
%TO.C,JP4*%
X87830000Y-149390000D03*
D15*
X85290000Y-149390000D03*
%TD*%
D16*
%TO.C,TP17*%
X77700000Y-158309931D03*
%TD*%
D14*
%TO.C,JP1*%
X65700000Y-146125000D03*
D15*
X65700000Y-148665000D03*
%TD*%
D16*
%TO.C,TP34*%
X124100000Y-113500000D03*
%TD*%
%TO.C,TP13*%
X104900000Y-146000000D03*
%TD*%
D18*
%TO.C,Q6*%
X115431793Y-156144131D03*
X116219193Y-155356731D03*
X115431793Y-155356731D03*
X116219193Y-156144131D03*
%TD*%
D23*
%TO.C,JP5*%
X67900000Y-158075000D03*
D15*
X67900000Y-155535000D03*
%TD*%
D16*
%TO.C,TP1*%
X108000000Y-145900000D03*
%TD*%
%TO.C,TP4*%
X131420000Y-154300000D03*
%TD*%
D22*
%TO.C,J3*%
X127953993Y-147299931D03*
D15*
X127953993Y-149839931D03*
X125413993Y-147299931D03*
X125413993Y-149839931D03*
X122873993Y-147299931D03*
X122873993Y-149839931D03*
X120333993Y-147299931D03*
X120333993Y-149839931D03*
X117793993Y-147299931D03*
X117793993Y-149839931D03*
X115253993Y-147299931D03*
X115253993Y-149839931D03*
%TD*%
D19*
%TO.C,JP2*%
X77863993Y-147099931D03*
D15*
X80403993Y-147099931D03*
%TD*%
D16*
%TO.C,TP36*%
X90930000Y-100240000D03*
%TD*%
%TO.C,TP20*%
X77800000Y-108000000D03*
%TD*%
%TO.C,TP18*%
X106600000Y-148700000D03*
%TD*%
D13*
%TO.C,H4*%
X63000000Y-86000000D03*
%TD*%
D14*
%TO.C,JP10*%
X110800000Y-149075000D03*
D15*
X110800000Y-151615000D03*
X110800000Y-154155000D03*
%TD*%
D20*
%TO.C,U24*%
X93850000Y-158500000D03*
X94950000Y-158500000D03*
%TD*%
D24*
%TO.C,TH1*%
X72219085Y-128218462D03*
X72219085Y-130718462D03*
%TD*%
D16*
%TO.C,TP30*%
X107800000Y-157000000D03*
%TD*%
%TO.C,TP31*%
X97520685Y-113055962D03*
%TD*%
%TO.C,TP33*%
X119201593Y-102827431D03*
%TD*%
D14*
%TO.C,TP27*%
X81326793Y-110243931D03*
D15*
X81326793Y-112783931D03*
%TD*%
D13*
%TO.C,H3*%
X137000000Y-108000000D03*
%TD*%
D14*
%TO.C,JP3*%
X88773993Y-153140000D03*
D15*
X88773993Y-155680000D03*
%TD*%
D19*
%TO.C,JP7*%
X86757592Y-84945931D03*
D15*
X89297592Y-84945931D03*
%TD*%
D16*
%TO.C,TP6*%
X94190000Y-104620000D03*
%TD*%
D25*
%TO.C,U23*%
X100825000Y-152825000D03*
X100825000Y-152125000D03*
%TD*%
D26*
%TO.C,C18*%
X129321685Y-90460962D03*
X128361685Y-90460962D03*
%TD*%
D27*
%TO.C,R30*%
X127420793Y-152856931D03*
X129070793Y-152856931D03*
%TD*%
D26*
%TO.C,C14*%
X71180000Y-107210962D03*
X70220000Y-107210962D03*
%TD*%
D28*
%TO.C,R33*%
X75454200Y-154620000D03*
X76474200Y-154620000D03*
%TD*%
D29*
%TO.C,R5*%
X73023993Y-109789931D03*
X73023993Y-110809931D03*
%TD*%
D30*
%TO.C,C2*%
X70771885Y-111580962D03*
X71731885Y-111580962D03*
%TD*%
D31*
%TO.C,U7*%
X94500000Y-112275000D03*
X93800000Y-112275000D03*
%TD*%
D25*
%TO.C,U27*%
X129450000Y-87525000D03*
X129450000Y-86825000D03*
%TD*%
D32*
%TO.C,C17*%
X68398993Y-105639931D03*
X69948993Y-105639931D03*
%TD*%
D33*
%TO.C,C83*%
X108400000Y-99300000D03*
X108400000Y-101200000D03*
%TD*%
D34*
%TO.C,R7*%
X92150000Y-115035000D03*
X92150000Y-114015000D03*
%TD*%
D35*
%TO.C,R10*%
X89850000Y-108322000D03*
X89850000Y-109972000D03*
%TD*%
D31*
%TO.C,U10*%
X92150000Y-112400000D03*
X91450000Y-112400000D03*
%TD*%
D30*
%TO.C,C15*%
X69043993Y-102392631D03*
X70003993Y-102392631D03*
%TD*%
D36*
%TO.C,R23*%
X81711593Y-102082431D03*
X81711593Y-100432431D03*
%TD*%
D30*
%TO.C,C19*%
X133861685Y-89210962D03*
X134821685Y-89210962D03*
%TD*%
D28*
%TO.C,R32*%
X75454200Y-155636000D03*
X76474200Y-155636000D03*
%TD*%
D37*
%TO.C,J4*%
X97550000Y-156800000D03*
X105050000Y-156800000D03*
D38*
X104050000Y-155935000D03*
X102550000Y-155935000D03*
X102050000Y-155935000D03*
X101550000Y-155935000D03*
X101050000Y-155935000D03*
X100550000Y-155935000D03*
X100050000Y-155935000D03*
X98550000Y-155935000D03*
X98550000Y-157665000D03*
X100050000Y-157665000D03*
X100550000Y-157665000D03*
X101050000Y-157665000D03*
X101550000Y-157665000D03*
X102050000Y-157665000D03*
X102550000Y-157665000D03*
X104050000Y-157665000D03*
D39*
X98900000Y-158950000D03*
X98900000Y-154650000D03*
X103700000Y-158950000D03*
X103700000Y-154650000D03*
%TD*%
D40*
%TO.C,C84*%
X129300000Y-101700000D03*
X129300000Y-100740000D03*
%TD*%
%TO.C,C37*%
X80191593Y-101737431D03*
X80191593Y-100777431D03*
%TD*%
D36*
%TO.C,R14*%
X88244006Y-113020000D03*
X88244006Y-111370000D03*
%TD*%
%TO.C,R26*%
X130499993Y-147839931D03*
X130499993Y-146189931D03*
%TD*%
D40*
%TO.C,C45*%
X79367800Y-152966400D03*
X79367800Y-152006400D03*
%TD*%
D30*
%TO.C,C11*%
X68272565Y-104369931D03*
X69232565Y-104369931D03*
%TD*%
D27*
%TO.C,R27*%
X127420793Y-154380931D03*
X129070793Y-154380931D03*
%TD*%
D41*
%TO.C,C73*%
X96200000Y-95320000D03*
X96200000Y-96280000D03*
%TD*%
D36*
%TO.C,R29*%
X132023993Y-147839931D03*
X132023993Y-146189931D03*
%TD*%
D40*
%TO.C,C46*%
X78351800Y-152966400D03*
X78351800Y-152006400D03*
%TD*%
D36*
%TO.C,R15*%
X86720006Y-113020000D03*
X86720006Y-111370000D03*
%TD*%
D26*
%TO.C,C3*%
X73021885Y-112560962D03*
X72061885Y-112560962D03*
%TD*%
D34*
%TO.C,R6*%
X94513999Y-114910000D03*
X94513999Y-113890000D03*
%TD*%
D33*
%TO.C,C81*%
X104400000Y-99300000D03*
X104400000Y-101200000D03*
%TD*%
D35*
%TO.C,R11*%
X91400000Y-108325000D03*
X91400000Y-109975000D03*
%TD*%
D33*
%TO.C,C82*%
X106400000Y-99300000D03*
X106400000Y-101200000D03*
%TD*%
D30*
%TO.C,C7*%
X73120000Y-107210962D03*
X74080000Y-107210962D03*
%TD*%
D31*
%TO.C,U15*%
X74750000Y-155700000D03*
X74050000Y-155700000D03*
%TD*%
M02*
