%TF.GenerationSoftware,KiCad,Pcbnew,7.0.6-7.0.6~ubuntu22.04.1*%
%TF.CreationDate,2023-08-18T17:19:56-04:00*%
%TF.ProjectId,robot,726f626f-742e-46b6-9963-61645f706362,rev?*%
%TF.SameCoordinates,Original*%
%TF.FileFunction,AssemblyDrawing,Bot*%
%FSLAX46Y46*%
G04 Gerber Fmt 4.6, Leading zero omitted, Abs format (unit mm)*
G04 Created by KiCad (PCBNEW 7.0.6-7.0.6~ubuntu22.04.1) date 2023-08-18 17:19:56*
%MOMM*%
%LPD*%
G01*
G04 APERTURE LIST*
%ADD10C,0.060000*%
%ADD11C,0.040000*%
%ADD12C,0.062500*%
%ADD13C,0.150000*%
%ADD14C,0.100000*%
%ADD15C,0.010000*%
%ADD16C,0.120000*%
%ADD17C,0.200000*%
%ADD18C,0.127000*%
%ADD19C,0.025400*%
%ADD20C,0.508000*%
G04 APERTURE END LIST*
D10*
X92356927Y-128967857D02*
X92166451Y-128834524D01*
X92356927Y-128739286D02*
X91956927Y-128739286D01*
X91956927Y-128739286D02*
X91956927Y-128891667D01*
X91956927Y-128891667D02*
X91975975Y-128929762D01*
X91975975Y-128929762D02*
X91995022Y-128948809D01*
X91995022Y-128948809D02*
X92033118Y-128967857D01*
X92033118Y-128967857D02*
X92090260Y-128967857D01*
X92090260Y-128967857D02*
X92128356Y-128948809D01*
X92128356Y-128948809D02*
X92147403Y-128929762D01*
X92147403Y-128929762D02*
X92166451Y-128891667D01*
X92166451Y-128891667D02*
X92166451Y-128739286D01*
X92356927Y-129348809D02*
X92356927Y-129120238D01*
X92356927Y-129234524D02*
X91956927Y-129234524D01*
X91956927Y-129234524D02*
X92014070Y-129196428D01*
X92014070Y-129196428D02*
X92052165Y-129158333D01*
X92052165Y-129158333D02*
X92071213Y-129120238D01*
X91956927Y-129710714D02*
X91956927Y-129520238D01*
X91956927Y-129520238D02*
X92147403Y-129501190D01*
X92147403Y-129501190D02*
X92128356Y-129520238D01*
X92128356Y-129520238D02*
X92109308Y-129558333D01*
X92109308Y-129558333D02*
X92109308Y-129653571D01*
X92109308Y-129653571D02*
X92128356Y-129691666D01*
X92128356Y-129691666D02*
X92147403Y-129710714D01*
X92147403Y-129710714D02*
X92185499Y-129729761D01*
X92185499Y-129729761D02*
X92280737Y-129729761D01*
X92280737Y-129729761D02*
X92318832Y-129710714D01*
X92318832Y-129710714D02*
X92337880Y-129691666D01*
X92337880Y-129691666D02*
X92356927Y-129653571D01*
X92356927Y-129653571D02*
X92356927Y-129558333D01*
X92356927Y-129558333D02*
X92337880Y-129520238D01*
X92337880Y-129520238D02*
X92318832Y-129501190D01*
X123332142Y-121481927D02*
X123465475Y-121291451D01*
X123560713Y-121481927D02*
X123560713Y-121081927D01*
X123560713Y-121081927D02*
X123408332Y-121081927D01*
X123408332Y-121081927D02*
X123370237Y-121100975D01*
X123370237Y-121100975D02*
X123351190Y-121120022D01*
X123351190Y-121120022D02*
X123332142Y-121158118D01*
X123332142Y-121158118D02*
X123332142Y-121215260D01*
X123332142Y-121215260D02*
X123351190Y-121253356D01*
X123351190Y-121253356D02*
X123370237Y-121272403D01*
X123370237Y-121272403D02*
X123408332Y-121291451D01*
X123408332Y-121291451D02*
X123560713Y-121291451D01*
X123141666Y-121481927D02*
X123065475Y-121481927D01*
X123065475Y-121481927D02*
X123027380Y-121462880D01*
X123027380Y-121462880D02*
X123008332Y-121443832D01*
X123008332Y-121443832D02*
X122970237Y-121386689D01*
X122970237Y-121386689D02*
X122951190Y-121310499D01*
X122951190Y-121310499D02*
X122951190Y-121158118D01*
X122951190Y-121158118D02*
X122970237Y-121120022D01*
X122970237Y-121120022D02*
X122989285Y-121100975D01*
X122989285Y-121100975D02*
X123027380Y-121081927D01*
X123027380Y-121081927D02*
X123103571Y-121081927D01*
X123103571Y-121081927D02*
X123141666Y-121100975D01*
X123141666Y-121100975D02*
X123160713Y-121120022D01*
X123160713Y-121120022D02*
X123179761Y-121158118D01*
X123179761Y-121158118D02*
X123179761Y-121253356D01*
X123179761Y-121253356D02*
X123160713Y-121291451D01*
X123160713Y-121291451D02*
X123141666Y-121310499D01*
X123141666Y-121310499D02*
X123103571Y-121329546D01*
X123103571Y-121329546D02*
X123027380Y-121329546D01*
X123027380Y-121329546D02*
X122989285Y-121310499D01*
X122989285Y-121310499D02*
X122970237Y-121291451D01*
X122970237Y-121291451D02*
X122951190Y-121253356D01*
X122703571Y-121081927D02*
X122665476Y-121081927D01*
X122665476Y-121081927D02*
X122627380Y-121100975D01*
X122627380Y-121100975D02*
X122608333Y-121120022D01*
X122608333Y-121120022D02*
X122589285Y-121158118D01*
X122589285Y-121158118D02*
X122570238Y-121234308D01*
X122570238Y-121234308D02*
X122570238Y-121329546D01*
X122570238Y-121329546D02*
X122589285Y-121405737D01*
X122589285Y-121405737D02*
X122608333Y-121443832D01*
X122608333Y-121443832D02*
X122627380Y-121462880D01*
X122627380Y-121462880D02*
X122665476Y-121481927D01*
X122665476Y-121481927D02*
X122703571Y-121481927D01*
X122703571Y-121481927D02*
X122741666Y-121462880D01*
X122741666Y-121462880D02*
X122760714Y-121443832D01*
X122760714Y-121443832D02*
X122779761Y-121405737D01*
X122779761Y-121405737D02*
X122798809Y-121329546D01*
X122798809Y-121329546D02*
X122798809Y-121234308D01*
X122798809Y-121234308D02*
X122779761Y-121158118D01*
X122779761Y-121158118D02*
X122760714Y-121120022D01*
X122760714Y-121120022D02*
X122741666Y-121100975D01*
X122741666Y-121100975D02*
X122703571Y-121081927D01*
D11*
X130589765Y-100059285D02*
X130601670Y-100047381D01*
X130601670Y-100047381D02*
X130613574Y-100011666D01*
X130613574Y-100011666D02*
X130613574Y-99987857D01*
X130613574Y-99987857D02*
X130601670Y-99952143D01*
X130601670Y-99952143D02*
X130577860Y-99928333D01*
X130577860Y-99928333D02*
X130554050Y-99916428D01*
X130554050Y-99916428D02*
X130506431Y-99904524D01*
X130506431Y-99904524D02*
X130470717Y-99904524D01*
X130470717Y-99904524D02*
X130423098Y-99916428D01*
X130423098Y-99916428D02*
X130399289Y-99928333D01*
X130399289Y-99928333D02*
X130375479Y-99952143D01*
X130375479Y-99952143D02*
X130363574Y-99987857D01*
X130363574Y-99987857D02*
X130363574Y-100011666D01*
X130363574Y-100011666D02*
X130375479Y-100047381D01*
X130375479Y-100047381D02*
X130387384Y-100059285D01*
X130613574Y-100297381D02*
X130613574Y-100154524D01*
X130613574Y-100225952D02*
X130363574Y-100225952D01*
X130363574Y-100225952D02*
X130399289Y-100202143D01*
X130399289Y-100202143D02*
X130423098Y-100178333D01*
X130423098Y-100178333D02*
X130435003Y-100154524D01*
X130470717Y-100440238D02*
X130458812Y-100416428D01*
X130458812Y-100416428D02*
X130446908Y-100404523D01*
X130446908Y-100404523D02*
X130423098Y-100392619D01*
X130423098Y-100392619D02*
X130411193Y-100392619D01*
X130411193Y-100392619D02*
X130387384Y-100404523D01*
X130387384Y-100404523D02*
X130375479Y-100416428D01*
X130375479Y-100416428D02*
X130363574Y-100440238D01*
X130363574Y-100440238D02*
X130363574Y-100487857D01*
X130363574Y-100487857D02*
X130375479Y-100511666D01*
X130375479Y-100511666D02*
X130387384Y-100523571D01*
X130387384Y-100523571D02*
X130411193Y-100535476D01*
X130411193Y-100535476D02*
X130423098Y-100535476D01*
X130423098Y-100535476D02*
X130446908Y-100523571D01*
X130446908Y-100523571D02*
X130458812Y-100511666D01*
X130458812Y-100511666D02*
X130470717Y-100487857D01*
X130470717Y-100487857D02*
X130470717Y-100440238D01*
X130470717Y-100440238D02*
X130482622Y-100416428D01*
X130482622Y-100416428D02*
X130494527Y-100404523D01*
X130494527Y-100404523D02*
X130518336Y-100392619D01*
X130518336Y-100392619D02*
X130565955Y-100392619D01*
X130565955Y-100392619D02*
X130589765Y-100404523D01*
X130589765Y-100404523D02*
X130601670Y-100416428D01*
X130601670Y-100416428D02*
X130613574Y-100440238D01*
X130613574Y-100440238D02*
X130613574Y-100487857D01*
X130613574Y-100487857D02*
X130601670Y-100511666D01*
X130601670Y-100511666D02*
X130589765Y-100523571D01*
X130589765Y-100523571D02*
X130565955Y-100535476D01*
X130565955Y-100535476D02*
X130518336Y-100535476D01*
X130518336Y-100535476D02*
X130494527Y-100523571D01*
X130494527Y-100523571D02*
X130482622Y-100511666D01*
X130482622Y-100511666D02*
X130470717Y-100487857D01*
D12*
X130509523Y-97862404D02*
X130509523Y-98064785D01*
X130509523Y-98064785D02*
X130497618Y-98088595D01*
X130497618Y-98088595D02*
X130485713Y-98100500D01*
X130485713Y-98100500D02*
X130461904Y-98112404D01*
X130461904Y-98112404D02*
X130414285Y-98112404D01*
X130414285Y-98112404D02*
X130390475Y-98100500D01*
X130390475Y-98100500D02*
X130378570Y-98088595D01*
X130378570Y-98088595D02*
X130366666Y-98064785D01*
X130366666Y-98064785D02*
X130366666Y-97862404D01*
X130259522Y-97886214D02*
X130247618Y-97874309D01*
X130247618Y-97874309D02*
X130223808Y-97862404D01*
X130223808Y-97862404D02*
X130164284Y-97862404D01*
X130164284Y-97862404D02*
X130140475Y-97874309D01*
X130140475Y-97874309D02*
X130128570Y-97886214D01*
X130128570Y-97886214D02*
X130116665Y-97910023D01*
X130116665Y-97910023D02*
X130116665Y-97933833D01*
X130116665Y-97933833D02*
X130128570Y-97969547D01*
X130128570Y-97969547D02*
X130271427Y-98112404D01*
X130271427Y-98112404D02*
X130116665Y-98112404D01*
X129973808Y-97969547D02*
X129997618Y-97957642D01*
X129997618Y-97957642D02*
X130009523Y-97945738D01*
X130009523Y-97945738D02*
X130021427Y-97921928D01*
X130021427Y-97921928D02*
X130021427Y-97910023D01*
X130021427Y-97910023D02*
X130009523Y-97886214D01*
X130009523Y-97886214D02*
X129997618Y-97874309D01*
X129997618Y-97874309D02*
X129973808Y-97862404D01*
X129973808Y-97862404D02*
X129926189Y-97862404D01*
X129926189Y-97862404D02*
X129902380Y-97874309D01*
X129902380Y-97874309D02*
X129890475Y-97886214D01*
X129890475Y-97886214D02*
X129878570Y-97910023D01*
X129878570Y-97910023D02*
X129878570Y-97921928D01*
X129878570Y-97921928D02*
X129890475Y-97945738D01*
X129890475Y-97945738D02*
X129902380Y-97957642D01*
X129902380Y-97957642D02*
X129926189Y-97969547D01*
X129926189Y-97969547D02*
X129973808Y-97969547D01*
X129973808Y-97969547D02*
X129997618Y-97981452D01*
X129997618Y-97981452D02*
X130009523Y-97993357D01*
X130009523Y-97993357D02*
X130021427Y-98017166D01*
X130021427Y-98017166D02*
X130021427Y-98064785D01*
X130021427Y-98064785D02*
X130009523Y-98088595D01*
X130009523Y-98088595D02*
X129997618Y-98100500D01*
X129997618Y-98100500D02*
X129973808Y-98112404D01*
X129973808Y-98112404D02*
X129926189Y-98112404D01*
X129926189Y-98112404D02*
X129902380Y-98100500D01*
X129902380Y-98100500D02*
X129890475Y-98088595D01*
X129890475Y-98088595D02*
X129878570Y-98064785D01*
X129878570Y-98064785D02*
X129878570Y-98017166D01*
X129878570Y-98017166D02*
X129890475Y-97993357D01*
X129890475Y-97993357D02*
X129902380Y-97981452D01*
X129902380Y-97981452D02*
X129926189Y-97969547D01*
X130749999Y-97512404D02*
X130749999Y-97571928D01*
X130809523Y-97548119D02*
X130749999Y-97571928D01*
X130749999Y-97571928D02*
X130690476Y-97548119D01*
X130785714Y-97619547D02*
X130749999Y-97571928D01*
X130749999Y-97571928D02*
X130714285Y-97619547D01*
D11*
X70755921Y-126073596D02*
X70767825Y-126085501D01*
X70767825Y-126085501D02*
X70803540Y-126097405D01*
X70803540Y-126097405D02*
X70827349Y-126097405D01*
X70827349Y-126097405D02*
X70863063Y-126085501D01*
X70863063Y-126085501D02*
X70886873Y-126061691D01*
X70886873Y-126061691D02*
X70898778Y-126037881D01*
X70898778Y-126037881D02*
X70910682Y-125990262D01*
X70910682Y-125990262D02*
X70910682Y-125954548D01*
X70910682Y-125954548D02*
X70898778Y-125906929D01*
X70898778Y-125906929D02*
X70886873Y-125883120D01*
X70886873Y-125883120D02*
X70863063Y-125859310D01*
X70863063Y-125859310D02*
X70827349Y-125847405D01*
X70827349Y-125847405D02*
X70803540Y-125847405D01*
X70803540Y-125847405D02*
X70767825Y-125859310D01*
X70767825Y-125859310D02*
X70755921Y-125871215D01*
X70517825Y-126097405D02*
X70660682Y-126097405D01*
X70589254Y-126097405D02*
X70589254Y-125847405D01*
X70589254Y-125847405D02*
X70613063Y-125883120D01*
X70613063Y-125883120D02*
X70636873Y-125906929D01*
X70636873Y-125906929D02*
X70660682Y-125918834D01*
X70303540Y-125930739D02*
X70303540Y-126097405D01*
X70363064Y-125835501D02*
X70422587Y-126014072D01*
X70422587Y-126014072D02*
X70267826Y-126014072D01*
D12*
X126759523Y-100162404D02*
X126759523Y-100364785D01*
X126759523Y-100364785D02*
X126747618Y-100388595D01*
X126747618Y-100388595D02*
X126735713Y-100400500D01*
X126735713Y-100400500D02*
X126711904Y-100412404D01*
X126711904Y-100412404D02*
X126664285Y-100412404D01*
X126664285Y-100412404D02*
X126640475Y-100400500D01*
X126640475Y-100400500D02*
X126628570Y-100388595D01*
X126628570Y-100388595D02*
X126616666Y-100364785D01*
X126616666Y-100364785D02*
X126616666Y-100162404D01*
X126509522Y-100186214D02*
X126497618Y-100174309D01*
X126497618Y-100174309D02*
X126473808Y-100162404D01*
X126473808Y-100162404D02*
X126414284Y-100162404D01*
X126414284Y-100162404D02*
X126390475Y-100174309D01*
X126390475Y-100174309D02*
X126378570Y-100186214D01*
X126378570Y-100186214D02*
X126366665Y-100210023D01*
X126366665Y-100210023D02*
X126366665Y-100233833D01*
X126366665Y-100233833D02*
X126378570Y-100269547D01*
X126378570Y-100269547D02*
X126521427Y-100412404D01*
X126521427Y-100412404D02*
X126366665Y-100412404D01*
X126283332Y-100162404D02*
X126116666Y-100162404D01*
X126116666Y-100162404D02*
X126223808Y-100412404D01*
X125899999Y-100512404D02*
X125899999Y-100571928D01*
X125959523Y-100548119D02*
X125899999Y-100571928D01*
X125899999Y-100571928D02*
X125840476Y-100548119D01*
X125935714Y-100619547D02*
X125899999Y-100571928D01*
X125899999Y-100571928D02*
X125864285Y-100619547D01*
D10*
X68657142Y-121443832D02*
X68676190Y-121462880D01*
X68676190Y-121462880D02*
X68733332Y-121481927D01*
X68733332Y-121481927D02*
X68771428Y-121481927D01*
X68771428Y-121481927D02*
X68828571Y-121462880D01*
X68828571Y-121462880D02*
X68866666Y-121424784D01*
X68866666Y-121424784D02*
X68885713Y-121386689D01*
X68885713Y-121386689D02*
X68904761Y-121310499D01*
X68904761Y-121310499D02*
X68904761Y-121253356D01*
X68904761Y-121253356D02*
X68885713Y-121177165D01*
X68885713Y-121177165D02*
X68866666Y-121139070D01*
X68866666Y-121139070D02*
X68828571Y-121100975D01*
X68828571Y-121100975D02*
X68771428Y-121081927D01*
X68771428Y-121081927D02*
X68733332Y-121081927D01*
X68733332Y-121081927D02*
X68676190Y-121100975D01*
X68676190Y-121100975D02*
X68657142Y-121120022D01*
X68276190Y-121481927D02*
X68504761Y-121481927D01*
X68390475Y-121481927D02*
X68390475Y-121081927D01*
X68390475Y-121081927D02*
X68428571Y-121139070D01*
X68428571Y-121139070D02*
X68466666Y-121177165D01*
X68466666Y-121177165D02*
X68504761Y-121196213D01*
X68142857Y-121081927D02*
X67876190Y-121081927D01*
X67876190Y-121081927D02*
X68047619Y-121481927D01*
D12*
X131362404Y-100140476D02*
X131564785Y-100140476D01*
X131564785Y-100140476D02*
X131588595Y-100152381D01*
X131588595Y-100152381D02*
X131600500Y-100164286D01*
X131600500Y-100164286D02*
X131612404Y-100188095D01*
X131612404Y-100188095D02*
X131612404Y-100235714D01*
X131612404Y-100235714D02*
X131600500Y-100259524D01*
X131600500Y-100259524D02*
X131588595Y-100271429D01*
X131588595Y-100271429D02*
X131564785Y-100283333D01*
X131564785Y-100283333D02*
X131362404Y-100283333D01*
X131386214Y-100390477D02*
X131374309Y-100402381D01*
X131374309Y-100402381D02*
X131362404Y-100426191D01*
X131362404Y-100426191D02*
X131362404Y-100485715D01*
X131362404Y-100485715D02*
X131374309Y-100509524D01*
X131374309Y-100509524D02*
X131386214Y-100521429D01*
X131386214Y-100521429D02*
X131410023Y-100533334D01*
X131410023Y-100533334D02*
X131433833Y-100533334D01*
X131433833Y-100533334D02*
X131469547Y-100521429D01*
X131469547Y-100521429D02*
X131612404Y-100378572D01*
X131612404Y-100378572D02*
X131612404Y-100533334D01*
X131362404Y-100747619D02*
X131362404Y-100700000D01*
X131362404Y-100700000D02*
X131374309Y-100676191D01*
X131374309Y-100676191D02*
X131386214Y-100664286D01*
X131386214Y-100664286D02*
X131421928Y-100640476D01*
X131421928Y-100640476D02*
X131469547Y-100628572D01*
X131469547Y-100628572D02*
X131564785Y-100628572D01*
X131564785Y-100628572D02*
X131588595Y-100640476D01*
X131588595Y-100640476D02*
X131600500Y-100652381D01*
X131600500Y-100652381D02*
X131612404Y-100676191D01*
X131612404Y-100676191D02*
X131612404Y-100723810D01*
X131612404Y-100723810D02*
X131600500Y-100747619D01*
X131600500Y-100747619D02*
X131588595Y-100759524D01*
X131588595Y-100759524D02*
X131564785Y-100771429D01*
X131564785Y-100771429D02*
X131505261Y-100771429D01*
X131505261Y-100771429D02*
X131481452Y-100759524D01*
X131481452Y-100759524D02*
X131469547Y-100747619D01*
X131469547Y-100747619D02*
X131457642Y-100723810D01*
X131457642Y-100723810D02*
X131457642Y-100676191D01*
X131457642Y-100676191D02*
X131469547Y-100652381D01*
X131469547Y-100652381D02*
X131481452Y-100640476D01*
X131481452Y-100640476D02*
X131505261Y-100628572D01*
X131712404Y-101000000D02*
X131771928Y-101000000D01*
X131748119Y-100940476D02*
X131771928Y-101000000D01*
X131771928Y-101000000D02*
X131748119Y-101059523D01*
X131819547Y-100964285D02*
X131771928Y-101000000D01*
X131771928Y-101000000D02*
X131819547Y-101035714D01*
D13*
X100785714Y-109766009D02*
X100642857Y-109813628D01*
X100642857Y-109813628D02*
X100595238Y-109861247D01*
X100595238Y-109861247D02*
X100547619Y-109956485D01*
X100547619Y-109956485D02*
X100547619Y-110099342D01*
X100547619Y-110099342D02*
X100595238Y-110194580D01*
X100595238Y-110194580D02*
X100642857Y-110242200D01*
X100642857Y-110242200D02*
X100738095Y-110289819D01*
X100738095Y-110289819D02*
X101119047Y-110289819D01*
X101119047Y-110289819D02*
X101119047Y-109289819D01*
X101119047Y-109289819D02*
X100785714Y-109289819D01*
X100785714Y-109289819D02*
X100690476Y-109337438D01*
X100690476Y-109337438D02*
X100642857Y-109385057D01*
X100642857Y-109385057D02*
X100595238Y-109480295D01*
X100595238Y-109480295D02*
X100595238Y-109575533D01*
X100595238Y-109575533D02*
X100642857Y-109670771D01*
X100642857Y-109670771D02*
X100690476Y-109718390D01*
X100690476Y-109718390D02*
X100785714Y-109766009D01*
X100785714Y-109766009D02*
X101119047Y-109766009D01*
X100261904Y-109289819D02*
X99690476Y-109289819D01*
X99976190Y-110289819D02*
X99976190Y-109289819D01*
X98833333Y-110289819D02*
X99404761Y-110289819D01*
X99119047Y-110289819D02*
X99119047Y-109289819D01*
X99119047Y-109289819D02*
X99214285Y-109432676D01*
X99214285Y-109432676D02*
X99309523Y-109527914D01*
X99309523Y-109527914D02*
X99404761Y-109575533D01*
D10*
X82057142Y-121081927D02*
X82190475Y-120891451D01*
X82285713Y-121081927D02*
X82285713Y-120681927D01*
X82285713Y-120681927D02*
X82133332Y-120681927D01*
X82133332Y-120681927D02*
X82095237Y-120700975D01*
X82095237Y-120700975D02*
X82076190Y-120720022D01*
X82076190Y-120720022D02*
X82057142Y-120758118D01*
X82057142Y-120758118D02*
X82057142Y-120815260D01*
X82057142Y-120815260D02*
X82076190Y-120853356D01*
X82076190Y-120853356D02*
X82095237Y-120872403D01*
X82095237Y-120872403D02*
X82133332Y-120891451D01*
X82133332Y-120891451D02*
X82285713Y-120891451D01*
X81904761Y-120720022D02*
X81885713Y-120700975D01*
X81885713Y-120700975D02*
X81847618Y-120681927D01*
X81847618Y-120681927D02*
X81752380Y-120681927D01*
X81752380Y-120681927D02*
X81714285Y-120700975D01*
X81714285Y-120700975D02*
X81695237Y-120720022D01*
X81695237Y-120720022D02*
X81676190Y-120758118D01*
X81676190Y-120758118D02*
X81676190Y-120796213D01*
X81676190Y-120796213D02*
X81695237Y-120853356D01*
X81695237Y-120853356D02*
X81923809Y-121081927D01*
X81923809Y-121081927D02*
X81676190Y-121081927D01*
X81542857Y-120681927D02*
X81295238Y-120681927D01*
X81295238Y-120681927D02*
X81428571Y-120834308D01*
X81428571Y-120834308D02*
X81371428Y-120834308D01*
X81371428Y-120834308D02*
X81333333Y-120853356D01*
X81333333Y-120853356D02*
X81314285Y-120872403D01*
X81314285Y-120872403D02*
X81295238Y-120910499D01*
X81295238Y-120910499D02*
X81295238Y-121005737D01*
X81295238Y-121005737D02*
X81314285Y-121043832D01*
X81314285Y-121043832D02*
X81333333Y-121062880D01*
X81333333Y-121062880D02*
X81371428Y-121081927D01*
X81371428Y-121081927D02*
X81485714Y-121081927D01*
X81485714Y-121081927D02*
X81523809Y-121062880D01*
X81523809Y-121062880D02*
X81542857Y-121043832D01*
D11*
X126180714Y-98289765D02*
X126192618Y-98301670D01*
X126192618Y-98301670D02*
X126228333Y-98313574D01*
X126228333Y-98313574D02*
X126252142Y-98313574D01*
X126252142Y-98313574D02*
X126287856Y-98301670D01*
X126287856Y-98301670D02*
X126311666Y-98277860D01*
X126311666Y-98277860D02*
X126323571Y-98254050D01*
X126323571Y-98254050D02*
X126335475Y-98206431D01*
X126335475Y-98206431D02*
X126335475Y-98170717D01*
X126335475Y-98170717D02*
X126323571Y-98123098D01*
X126323571Y-98123098D02*
X126311666Y-98099289D01*
X126311666Y-98099289D02*
X126287856Y-98075479D01*
X126287856Y-98075479D02*
X126252142Y-98063574D01*
X126252142Y-98063574D02*
X126228333Y-98063574D01*
X126228333Y-98063574D02*
X126192618Y-98075479D01*
X126192618Y-98075479D02*
X126180714Y-98087384D01*
X125942618Y-98313574D02*
X126085475Y-98313574D01*
X126014047Y-98313574D02*
X126014047Y-98063574D01*
X126014047Y-98063574D02*
X126037856Y-98099289D01*
X126037856Y-98099289D02*
X126061666Y-98123098D01*
X126061666Y-98123098D02*
X126085475Y-98135003D01*
X125823571Y-98313574D02*
X125775952Y-98313574D01*
X125775952Y-98313574D02*
X125752142Y-98301670D01*
X125752142Y-98301670D02*
X125740238Y-98289765D01*
X125740238Y-98289765D02*
X125716428Y-98254050D01*
X125716428Y-98254050D02*
X125704523Y-98206431D01*
X125704523Y-98206431D02*
X125704523Y-98111193D01*
X125704523Y-98111193D02*
X125716428Y-98087384D01*
X125716428Y-98087384D02*
X125728333Y-98075479D01*
X125728333Y-98075479D02*
X125752142Y-98063574D01*
X125752142Y-98063574D02*
X125799761Y-98063574D01*
X125799761Y-98063574D02*
X125823571Y-98075479D01*
X125823571Y-98075479D02*
X125835476Y-98087384D01*
X125835476Y-98087384D02*
X125847380Y-98111193D01*
X125847380Y-98111193D02*
X125847380Y-98170717D01*
X125847380Y-98170717D02*
X125835476Y-98194527D01*
X125835476Y-98194527D02*
X125823571Y-98206431D01*
X125823571Y-98206431D02*
X125799761Y-98218336D01*
X125799761Y-98218336D02*
X125752142Y-98218336D01*
X125752142Y-98218336D02*
X125728333Y-98206431D01*
X125728333Y-98206431D02*
X125716428Y-98194527D01*
X125716428Y-98194527D02*
X125704523Y-98170717D01*
D13*
X97862618Y-156739819D02*
X97862618Y-157549342D01*
X97862618Y-157549342D02*
X97814999Y-157644580D01*
X97814999Y-157644580D02*
X97767380Y-157692200D01*
X97767380Y-157692200D02*
X97672142Y-157739819D01*
X97672142Y-157739819D02*
X97481666Y-157739819D01*
X97481666Y-157739819D02*
X97386428Y-157692200D01*
X97386428Y-157692200D02*
X97338809Y-157644580D01*
X97338809Y-157644580D02*
X97291190Y-157549342D01*
X97291190Y-157549342D02*
X97291190Y-156739819D01*
X96862618Y-157692200D02*
X96719761Y-157739819D01*
X96719761Y-157739819D02*
X96481666Y-157739819D01*
X96481666Y-157739819D02*
X96386428Y-157692200D01*
X96386428Y-157692200D02*
X96338809Y-157644580D01*
X96338809Y-157644580D02*
X96291190Y-157549342D01*
X96291190Y-157549342D02*
X96291190Y-157454104D01*
X96291190Y-157454104D02*
X96338809Y-157358866D01*
X96338809Y-157358866D02*
X96386428Y-157311247D01*
X96386428Y-157311247D02*
X96481666Y-157263628D01*
X96481666Y-157263628D02*
X96672142Y-157216009D01*
X96672142Y-157216009D02*
X96767380Y-157168390D01*
X96767380Y-157168390D02*
X96814999Y-157120771D01*
X96814999Y-157120771D02*
X96862618Y-157025533D01*
X96862618Y-157025533D02*
X96862618Y-156930295D01*
X96862618Y-156930295D02*
X96814999Y-156835057D01*
X96814999Y-156835057D02*
X96767380Y-156787438D01*
X96767380Y-156787438D02*
X96672142Y-156739819D01*
X96672142Y-156739819D02*
X96434047Y-156739819D01*
X96434047Y-156739819D02*
X96291190Y-156787438D01*
X95529285Y-157216009D02*
X95386428Y-157263628D01*
X95386428Y-157263628D02*
X95338809Y-157311247D01*
X95338809Y-157311247D02*
X95291190Y-157406485D01*
X95291190Y-157406485D02*
X95291190Y-157549342D01*
X95291190Y-157549342D02*
X95338809Y-157644580D01*
X95338809Y-157644580D02*
X95386428Y-157692200D01*
X95386428Y-157692200D02*
X95481666Y-157739819D01*
X95481666Y-157739819D02*
X95862618Y-157739819D01*
X95862618Y-157739819D02*
X95862618Y-156739819D01*
X95862618Y-156739819D02*
X95529285Y-156739819D01*
X95529285Y-156739819D02*
X95434047Y-156787438D01*
X95434047Y-156787438D02*
X95386428Y-156835057D01*
X95386428Y-156835057D02*
X95338809Y-156930295D01*
X95338809Y-156930295D02*
X95338809Y-157025533D01*
X95338809Y-157025533D02*
X95386428Y-157120771D01*
X95386428Y-157120771D02*
X95434047Y-157168390D01*
X95434047Y-157168390D02*
X95529285Y-157216009D01*
X95529285Y-157216009D02*
X95862618Y-157216009D01*
X94434047Y-157073152D02*
X94434047Y-157739819D01*
X94672142Y-156692200D02*
X94910237Y-157406485D01*
X94910237Y-157406485D02*
X94291190Y-157406485D01*
X93386428Y-157739819D02*
X93957856Y-157739819D01*
X93672142Y-157739819D02*
X93672142Y-156739819D01*
X93672142Y-156739819D02*
X93767380Y-156882676D01*
X93767380Y-156882676D02*
X93862618Y-156977914D01*
X93862618Y-156977914D02*
X93957856Y-157025533D01*
X93005475Y-156835057D02*
X92957856Y-156787438D01*
X92957856Y-156787438D02*
X92862618Y-156739819D01*
X92862618Y-156739819D02*
X92624523Y-156739819D01*
X92624523Y-156739819D02*
X92529285Y-156787438D01*
X92529285Y-156787438D02*
X92481666Y-156835057D01*
X92481666Y-156835057D02*
X92434047Y-156930295D01*
X92434047Y-156930295D02*
X92434047Y-157025533D01*
X92434047Y-157025533D02*
X92481666Y-157168390D01*
X92481666Y-157168390D02*
X93053094Y-157739819D01*
X93053094Y-157739819D02*
X92434047Y-157739819D01*
X91814999Y-156739819D02*
X91719761Y-156739819D01*
X91719761Y-156739819D02*
X91624523Y-156787438D01*
X91624523Y-156787438D02*
X91576904Y-156835057D01*
X91576904Y-156835057D02*
X91529285Y-156930295D01*
X91529285Y-156930295D02*
X91481666Y-157120771D01*
X91481666Y-157120771D02*
X91481666Y-157358866D01*
X91481666Y-157358866D02*
X91529285Y-157549342D01*
X91529285Y-157549342D02*
X91576904Y-157644580D01*
X91576904Y-157644580D02*
X91624523Y-157692200D01*
X91624523Y-157692200D02*
X91719761Y-157739819D01*
X91719761Y-157739819D02*
X91814999Y-157739819D01*
X91814999Y-157739819D02*
X91910237Y-157692200D01*
X91910237Y-157692200D02*
X91957856Y-157644580D01*
X91957856Y-157644580D02*
X92005475Y-157549342D01*
X92005475Y-157549342D02*
X92053094Y-157358866D01*
X92053094Y-157358866D02*
X92053094Y-157120771D01*
X92053094Y-157120771D02*
X92005475Y-156930295D01*
X92005475Y-156930295D02*
X91957856Y-156835057D01*
X91957856Y-156835057D02*
X91910237Y-156787438D01*
X91910237Y-156787438D02*
X91814999Y-156739819D01*
X91053094Y-157358866D02*
X90291190Y-157358866D01*
X89624523Y-156739819D02*
X89529285Y-156739819D01*
X89529285Y-156739819D02*
X89434047Y-156787438D01*
X89434047Y-156787438D02*
X89386428Y-156835057D01*
X89386428Y-156835057D02*
X89338809Y-156930295D01*
X89338809Y-156930295D02*
X89291190Y-157120771D01*
X89291190Y-157120771D02*
X89291190Y-157358866D01*
X89291190Y-157358866D02*
X89338809Y-157549342D01*
X89338809Y-157549342D02*
X89386428Y-157644580D01*
X89386428Y-157644580D02*
X89434047Y-157692200D01*
X89434047Y-157692200D02*
X89529285Y-157739819D01*
X89529285Y-157739819D02*
X89624523Y-157739819D01*
X89624523Y-157739819D02*
X89719761Y-157692200D01*
X89719761Y-157692200D02*
X89767380Y-157644580D01*
X89767380Y-157644580D02*
X89814999Y-157549342D01*
X89814999Y-157549342D02*
X89862618Y-157358866D01*
X89862618Y-157358866D02*
X89862618Y-157120771D01*
X89862618Y-157120771D02*
X89814999Y-156930295D01*
X89814999Y-156930295D02*
X89767380Y-156835057D01*
X89767380Y-156835057D02*
X89719761Y-156787438D01*
X89719761Y-156787438D02*
X89624523Y-156739819D01*
X88957856Y-156739819D02*
X88338809Y-156739819D01*
X88338809Y-156739819D02*
X88672142Y-157120771D01*
X88672142Y-157120771D02*
X88529285Y-157120771D01*
X88529285Y-157120771D02*
X88434047Y-157168390D01*
X88434047Y-157168390D02*
X88386428Y-157216009D01*
X88386428Y-157216009D02*
X88338809Y-157311247D01*
X88338809Y-157311247D02*
X88338809Y-157549342D01*
X88338809Y-157549342D02*
X88386428Y-157644580D01*
X88386428Y-157644580D02*
X88434047Y-157692200D01*
X88434047Y-157692200D02*
X88529285Y-157739819D01*
X88529285Y-157739819D02*
X88814999Y-157739819D01*
X88814999Y-157739819D02*
X88910237Y-157692200D01*
X88910237Y-157692200D02*
X88957856Y-157644580D01*
X87910237Y-157358866D02*
X87148333Y-157358866D01*
X86100714Y-157644580D02*
X86148333Y-157692200D01*
X86148333Y-157692200D02*
X86291190Y-157739819D01*
X86291190Y-157739819D02*
X86386428Y-157739819D01*
X86386428Y-157739819D02*
X86529285Y-157692200D01*
X86529285Y-157692200D02*
X86624523Y-157596961D01*
X86624523Y-157596961D02*
X86672142Y-157501723D01*
X86672142Y-157501723D02*
X86719761Y-157311247D01*
X86719761Y-157311247D02*
X86719761Y-157168390D01*
X86719761Y-157168390D02*
X86672142Y-156977914D01*
X86672142Y-156977914D02*
X86624523Y-156882676D01*
X86624523Y-156882676D02*
X86529285Y-156787438D01*
X86529285Y-156787438D02*
X86386428Y-156739819D01*
X86386428Y-156739819D02*
X86291190Y-156739819D01*
X86291190Y-156739819D02*
X86148333Y-156787438D01*
X86148333Y-156787438D02*
X86100714Y-156835057D01*
X85910238Y-157835057D02*
X85148333Y-157835057D01*
X84338809Y-157739819D02*
X84672142Y-157263628D01*
X84910237Y-157739819D02*
X84910237Y-156739819D01*
X84910237Y-156739819D02*
X84529285Y-156739819D01*
X84529285Y-156739819D02*
X84434047Y-156787438D01*
X84434047Y-156787438D02*
X84386428Y-156835057D01*
X84386428Y-156835057D02*
X84338809Y-156930295D01*
X84338809Y-156930295D02*
X84338809Y-157073152D01*
X84338809Y-157073152D02*
X84386428Y-157168390D01*
X84386428Y-157168390D02*
X84434047Y-157216009D01*
X84434047Y-157216009D02*
X84529285Y-157263628D01*
X84529285Y-157263628D02*
X84910237Y-157263628D01*
X83910237Y-157216009D02*
X83576904Y-157216009D01*
X83434047Y-157739819D02*
X83910237Y-157739819D01*
X83910237Y-157739819D02*
X83910237Y-156739819D01*
X83910237Y-156739819D02*
X83434047Y-156739819D01*
X83148332Y-156739819D02*
X82814999Y-157739819D01*
X82814999Y-157739819D02*
X82481666Y-156739819D01*
X82195951Y-157454104D02*
X81719761Y-157454104D01*
X82291189Y-157739819D02*
X81957856Y-156739819D01*
X81957856Y-156739819D02*
X81624523Y-157739819D01*
D11*
X78289765Y-120739285D02*
X78301670Y-120727381D01*
X78301670Y-120727381D02*
X78313574Y-120691666D01*
X78313574Y-120691666D02*
X78313574Y-120667857D01*
X78313574Y-120667857D02*
X78301670Y-120632143D01*
X78301670Y-120632143D02*
X78277860Y-120608333D01*
X78277860Y-120608333D02*
X78254050Y-120596428D01*
X78254050Y-120596428D02*
X78206431Y-120584524D01*
X78206431Y-120584524D02*
X78170717Y-120584524D01*
X78170717Y-120584524D02*
X78123098Y-120596428D01*
X78123098Y-120596428D02*
X78099289Y-120608333D01*
X78099289Y-120608333D02*
X78075479Y-120632143D01*
X78075479Y-120632143D02*
X78063574Y-120667857D01*
X78063574Y-120667857D02*
X78063574Y-120691666D01*
X78063574Y-120691666D02*
X78075479Y-120727381D01*
X78075479Y-120727381D02*
X78087384Y-120739285D01*
X78063574Y-120822619D02*
X78063574Y-120977381D01*
X78063574Y-120977381D02*
X78158812Y-120894047D01*
X78158812Y-120894047D02*
X78158812Y-120929762D01*
X78158812Y-120929762D02*
X78170717Y-120953571D01*
X78170717Y-120953571D02*
X78182622Y-120965476D01*
X78182622Y-120965476D02*
X78206431Y-120977381D01*
X78206431Y-120977381D02*
X78265955Y-120977381D01*
X78265955Y-120977381D02*
X78289765Y-120965476D01*
X78289765Y-120965476D02*
X78301670Y-120953571D01*
X78301670Y-120953571D02*
X78313574Y-120929762D01*
X78313574Y-120929762D02*
X78313574Y-120858333D01*
X78313574Y-120858333D02*
X78301670Y-120834524D01*
X78301670Y-120834524D02*
X78289765Y-120822619D01*
X78063574Y-121060714D02*
X78063574Y-121227380D01*
X78063574Y-121227380D02*
X78313574Y-121120238D01*
X69260714Y-119589765D02*
X69272618Y-119601670D01*
X69272618Y-119601670D02*
X69308333Y-119613574D01*
X69308333Y-119613574D02*
X69332142Y-119613574D01*
X69332142Y-119613574D02*
X69367856Y-119601670D01*
X69367856Y-119601670D02*
X69391666Y-119577860D01*
X69391666Y-119577860D02*
X69403571Y-119554050D01*
X69403571Y-119554050D02*
X69415475Y-119506431D01*
X69415475Y-119506431D02*
X69415475Y-119470717D01*
X69415475Y-119470717D02*
X69403571Y-119423098D01*
X69403571Y-119423098D02*
X69391666Y-119399289D01*
X69391666Y-119399289D02*
X69367856Y-119375479D01*
X69367856Y-119375479D02*
X69332142Y-119363574D01*
X69332142Y-119363574D02*
X69308333Y-119363574D01*
X69308333Y-119363574D02*
X69272618Y-119375479D01*
X69272618Y-119375479D02*
X69260714Y-119387384D01*
X69022618Y-119613574D02*
X69165475Y-119613574D01*
X69094047Y-119613574D02*
X69094047Y-119363574D01*
X69094047Y-119363574D02*
X69117856Y-119399289D01*
X69117856Y-119399289D02*
X69141666Y-119423098D01*
X69141666Y-119423098D02*
X69165475Y-119435003D01*
X68784523Y-119613574D02*
X68927380Y-119613574D01*
X68855952Y-119613574D02*
X68855952Y-119363574D01*
X68855952Y-119363574D02*
X68879761Y-119399289D01*
X68879761Y-119399289D02*
X68903571Y-119423098D01*
X68903571Y-119423098D02*
X68927380Y-119435003D01*
D13*
X100788200Y-128562267D02*
X100835819Y-128705124D01*
X100835819Y-128705124D02*
X100835819Y-128943219D01*
X100835819Y-128943219D02*
X100788200Y-129038457D01*
X100788200Y-129038457D02*
X100740580Y-129086076D01*
X100740580Y-129086076D02*
X100645342Y-129133695D01*
X100645342Y-129133695D02*
X100550104Y-129133695D01*
X100550104Y-129133695D02*
X100454866Y-129086076D01*
X100454866Y-129086076D02*
X100407247Y-129038457D01*
X100407247Y-129038457D02*
X100359628Y-128943219D01*
X100359628Y-128943219D02*
X100312009Y-128752743D01*
X100312009Y-128752743D02*
X100264390Y-128657505D01*
X100264390Y-128657505D02*
X100216771Y-128609886D01*
X100216771Y-128609886D02*
X100121533Y-128562267D01*
X100121533Y-128562267D02*
X100026295Y-128562267D01*
X100026295Y-128562267D02*
X99931057Y-128609886D01*
X99931057Y-128609886D02*
X99883438Y-128657505D01*
X99883438Y-128657505D02*
X99835819Y-128752743D01*
X99835819Y-128752743D02*
X99835819Y-128990838D01*
X99835819Y-128990838D02*
X99883438Y-129133695D01*
X99835819Y-129467029D02*
X100835819Y-129705124D01*
X100835819Y-129705124D02*
X100121533Y-129895600D01*
X100121533Y-129895600D02*
X100835819Y-130086076D01*
X100835819Y-130086076D02*
X99835819Y-130324172D01*
X100835819Y-131228933D02*
X100835819Y-130657505D01*
X100835819Y-130943219D02*
X99835819Y-130943219D01*
X99835819Y-130943219D02*
X99978676Y-130847981D01*
X99978676Y-130847981D02*
X100073914Y-130752743D01*
X100073914Y-130752743D02*
X100121533Y-130657505D01*
X94859819Y-131841666D02*
X95574104Y-131841666D01*
X95574104Y-131841666D02*
X95716961Y-131794047D01*
X95716961Y-131794047D02*
X95812200Y-131698809D01*
X95812200Y-131698809D02*
X95859819Y-131555952D01*
X95859819Y-131555952D02*
X95859819Y-131460714D01*
X94859819Y-132222619D02*
X94859819Y-132841666D01*
X94859819Y-132841666D02*
X95240771Y-132508333D01*
X95240771Y-132508333D02*
X95240771Y-132651190D01*
X95240771Y-132651190D02*
X95288390Y-132746428D01*
X95288390Y-132746428D02*
X95336009Y-132794047D01*
X95336009Y-132794047D02*
X95431247Y-132841666D01*
X95431247Y-132841666D02*
X95669342Y-132841666D01*
X95669342Y-132841666D02*
X95764580Y-132794047D01*
X95764580Y-132794047D02*
X95812200Y-132746428D01*
X95812200Y-132746428D02*
X95859819Y-132651190D01*
X95859819Y-132651190D02*
X95859819Y-132365476D01*
X95859819Y-132365476D02*
X95812200Y-132270238D01*
X95812200Y-132270238D02*
X95764580Y-132222619D01*
X105140180Y-132508333D02*
X104425895Y-132508333D01*
X104425895Y-132508333D02*
X104283038Y-132555952D01*
X104283038Y-132555952D02*
X104187800Y-132651190D01*
X104187800Y-132651190D02*
X104140180Y-132794047D01*
X104140180Y-132794047D02*
X104140180Y-132889285D01*
X105140180Y-131555952D02*
X105140180Y-132032142D01*
X105140180Y-132032142D02*
X104663990Y-132079761D01*
X104663990Y-132079761D02*
X104711609Y-132032142D01*
X104711609Y-132032142D02*
X104759228Y-131936904D01*
X104759228Y-131936904D02*
X104759228Y-131698809D01*
X104759228Y-131698809D02*
X104711609Y-131603571D01*
X104711609Y-131603571D02*
X104663990Y-131555952D01*
X104663990Y-131555952D02*
X104568752Y-131508333D01*
X104568752Y-131508333D02*
X104330657Y-131508333D01*
X104330657Y-131508333D02*
X104235419Y-131555952D01*
X104235419Y-131555952D02*
X104187800Y-131603571D01*
X104187800Y-131603571D02*
X104140180Y-131698809D01*
X104140180Y-131698809D02*
X104140180Y-131936904D01*
X104140180Y-131936904D02*
X104187800Y-132032142D01*
X104187800Y-132032142D02*
X104235419Y-132079761D01*
D12*
X129109523Y-98112404D02*
X129109523Y-98314785D01*
X129109523Y-98314785D02*
X129097618Y-98338595D01*
X129097618Y-98338595D02*
X129085713Y-98350500D01*
X129085713Y-98350500D02*
X129061904Y-98362404D01*
X129061904Y-98362404D02*
X129014285Y-98362404D01*
X129014285Y-98362404D02*
X128990475Y-98350500D01*
X128990475Y-98350500D02*
X128978570Y-98338595D01*
X128978570Y-98338595D02*
X128966666Y-98314785D01*
X128966666Y-98314785D02*
X128966666Y-98112404D01*
X128859522Y-98136214D02*
X128847618Y-98124309D01*
X128847618Y-98124309D02*
X128823808Y-98112404D01*
X128823808Y-98112404D02*
X128764284Y-98112404D01*
X128764284Y-98112404D02*
X128740475Y-98124309D01*
X128740475Y-98124309D02*
X128728570Y-98136214D01*
X128728570Y-98136214D02*
X128716665Y-98160023D01*
X128716665Y-98160023D02*
X128716665Y-98183833D01*
X128716665Y-98183833D02*
X128728570Y-98219547D01*
X128728570Y-98219547D02*
X128871427Y-98362404D01*
X128871427Y-98362404D02*
X128716665Y-98362404D01*
X128597618Y-98362404D02*
X128549999Y-98362404D01*
X128549999Y-98362404D02*
X128526189Y-98350500D01*
X128526189Y-98350500D02*
X128514285Y-98338595D01*
X128514285Y-98338595D02*
X128490475Y-98302880D01*
X128490475Y-98302880D02*
X128478570Y-98255261D01*
X128478570Y-98255261D02*
X128478570Y-98160023D01*
X128478570Y-98160023D02*
X128490475Y-98136214D01*
X128490475Y-98136214D02*
X128502380Y-98124309D01*
X128502380Y-98124309D02*
X128526189Y-98112404D01*
X128526189Y-98112404D02*
X128573808Y-98112404D01*
X128573808Y-98112404D02*
X128597618Y-98124309D01*
X128597618Y-98124309D02*
X128609523Y-98136214D01*
X128609523Y-98136214D02*
X128621427Y-98160023D01*
X128621427Y-98160023D02*
X128621427Y-98219547D01*
X128621427Y-98219547D02*
X128609523Y-98243357D01*
X128609523Y-98243357D02*
X128597618Y-98255261D01*
X128597618Y-98255261D02*
X128573808Y-98267166D01*
X128573808Y-98267166D02*
X128526189Y-98267166D01*
X128526189Y-98267166D02*
X128502380Y-98255261D01*
X128502380Y-98255261D02*
X128490475Y-98243357D01*
X128490475Y-98243357D02*
X128478570Y-98219547D01*
X128249999Y-98462404D02*
X128249999Y-98521928D01*
X128309523Y-98498119D02*
X128249999Y-98521928D01*
X128249999Y-98521928D02*
X128190476Y-98498119D01*
X128285714Y-98569547D02*
X128249999Y-98521928D01*
X128249999Y-98521928D02*
X128214285Y-98569547D01*
X127462404Y-109513571D02*
X127462404Y-109656428D01*
X127712404Y-109585000D02*
X127462404Y-109585000D01*
X127712404Y-109739761D02*
X127462404Y-109739761D01*
X127581452Y-109739761D02*
X127581452Y-109882618D01*
X127712404Y-109882618D02*
X127462404Y-109882618D01*
X127712404Y-110132619D02*
X127712404Y-109989762D01*
X127712404Y-110061190D02*
X127462404Y-110061190D01*
X127462404Y-110061190D02*
X127498119Y-110037381D01*
X127498119Y-110037381D02*
X127521928Y-110013571D01*
X127521928Y-110013571D02*
X127533833Y-109989762D01*
D11*
X73536873Y-126073596D02*
X73548777Y-126085501D01*
X73548777Y-126085501D02*
X73584492Y-126097405D01*
X73584492Y-126097405D02*
X73608301Y-126097405D01*
X73608301Y-126097405D02*
X73644015Y-126085501D01*
X73644015Y-126085501D02*
X73667825Y-126061691D01*
X73667825Y-126061691D02*
X73679730Y-126037881D01*
X73679730Y-126037881D02*
X73691634Y-125990262D01*
X73691634Y-125990262D02*
X73691634Y-125954548D01*
X73691634Y-125954548D02*
X73679730Y-125906929D01*
X73679730Y-125906929D02*
X73667825Y-125883120D01*
X73667825Y-125883120D02*
X73644015Y-125859310D01*
X73644015Y-125859310D02*
X73608301Y-125847405D01*
X73608301Y-125847405D02*
X73584492Y-125847405D01*
X73584492Y-125847405D02*
X73548777Y-125859310D01*
X73548777Y-125859310D02*
X73536873Y-125871215D01*
X73453539Y-125847405D02*
X73286873Y-125847405D01*
X73286873Y-125847405D02*
X73394015Y-126097405D01*
D14*
%TO.C,R90*%
X122275000Y-120887500D02*
X122275000Y-121712500D01*
X122275000Y-121712500D02*
X123875000Y-121712500D01*
X123875000Y-120887500D02*
X122275000Y-120887500D01*
X123875000Y-121712500D02*
X123875000Y-120887500D01*
%TO.C,C18*%
X130250000Y-100720000D02*
X130750000Y-100720000D01*
X130750000Y-100720000D02*
X130750000Y-99720000D01*
X130250000Y-99720000D02*
X130250000Y-100720000D01*
X130750000Y-99720000D02*
X130250000Y-99720000D01*
%TO.C,U28*%
X130750000Y-98350000D02*
X129650000Y-98350000D01*
X130750000Y-97650000D02*
X130750000Y-98350000D01*
X129650000Y-98350000D02*
X129650000Y-97650000D01*
X129650000Y-97650000D02*
X130750000Y-97650000D01*
%TO.C,C14*%
X71095207Y-126233831D02*
X71095207Y-125733831D01*
X71095207Y-125733831D02*
X70095207Y-125733831D01*
X70095207Y-126233831D02*
X71095207Y-126233831D01*
X70095207Y-125733831D02*
X70095207Y-126233831D01*
D15*
%TO.C,NT20*%
X121600000Y-121675400D02*
X121800000Y-121675400D01*
X121800000Y-121675400D02*
X121800000Y-121524600D01*
X121800000Y-121524600D02*
X121600000Y-121524600D01*
X121600000Y-121524600D02*
X121600000Y-121675400D01*
X121800000Y-121675400D02*
X122000000Y-121675400D01*
X122000000Y-121675400D02*
X122000000Y-121524600D01*
X122000000Y-121524600D02*
X121800000Y-121524600D01*
X121800000Y-121524600D02*
X121800000Y-121675400D01*
D14*
%TO.C,U27*%
X125900000Y-99950000D02*
X127000000Y-99950000D01*
X125900000Y-100650000D02*
X125900000Y-99950000D01*
X127000000Y-99950000D02*
X127000000Y-100650000D01*
X127000000Y-100650000D02*
X125900000Y-100650000D01*
%TO.C,C17*%
X67600000Y-120900000D02*
X67600000Y-121700000D01*
X67600000Y-121700000D02*
X69200000Y-121700000D01*
X69200000Y-120900000D02*
X67600000Y-120900000D01*
X69200000Y-121700000D02*
X69200000Y-120900000D01*
%TO.C,U26*%
X131150000Y-101000000D02*
X131150000Y-99900000D01*
X131850000Y-101000000D02*
X131150000Y-101000000D01*
X131150000Y-99900000D02*
X131850000Y-99900000D01*
X131850000Y-99900000D02*
X131850000Y-101000000D01*
D15*
%TO.C,NT11*%
X101736028Y-119890532D02*
X101585228Y-119890532D01*
X101585228Y-119890532D02*
X101585228Y-119690532D01*
X101585228Y-119690532D02*
X101736028Y-119690532D01*
X101736028Y-119690532D02*
X101736028Y-119890532D01*
X101736028Y-119690532D02*
X101585228Y-119690532D01*
X101585228Y-119690532D02*
X101585228Y-119490532D01*
X101585228Y-119490532D02*
X101736028Y-119490532D01*
X101736028Y-119490532D02*
X101736028Y-119690532D01*
D14*
%TO.C,BT1*%
X60570000Y-95495000D02*
X60570000Y-97884583D01*
X60570000Y-105253681D02*
X60570000Y-108707346D01*
X60570000Y-105253681D02*
X61370000Y-105253681D01*
X60570000Y-111082654D02*
X60570000Y-114536319D01*
X60570000Y-111082654D02*
X63870000Y-111082654D01*
X60570000Y-121905417D02*
X60570000Y-124295000D01*
X60570000Y-121905417D02*
X61370000Y-121905417D01*
X60570000Y-124295000D02*
X90858084Y-124295000D01*
X61370000Y-97884583D02*
X60570000Y-97884583D01*
X61370000Y-105253681D02*
X61370000Y-97884583D01*
X61370000Y-114536319D02*
X60570000Y-114536319D01*
X61370000Y-121905417D02*
X61370000Y-114536319D01*
X62570000Y-102595000D02*
X62570000Y-97295000D01*
X62570000Y-102595000D02*
X89070000Y-102595000D01*
X62570000Y-122495000D02*
X62570000Y-117195000D01*
X62570000Y-122495000D02*
X89070000Y-122495000D01*
X62620000Y-110640556D02*
X62620000Y-109120556D01*
X62620000Y-110640556D02*
X63120000Y-110640556D01*
X63120000Y-109120556D02*
X62620000Y-109120556D01*
X63120000Y-110640556D02*
X63120000Y-109120556D01*
X63870000Y-108707346D02*
X60570000Y-108707346D01*
X63870000Y-111082654D02*
X63870000Y-108707346D01*
X89070000Y-97295000D02*
X62570000Y-97295000D01*
X89070000Y-102595000D02*
X89070000Y-97295000D01*
X89070000Y-117195000D02*
X62570000Y-117195000D01*
X89070000Y-122495000D02*
X89070000Y-117195000D01*
X90858084Y-120695000D02*
X90858084Y-124295000D01*
X90895000Y-95495000D02*
X60570000Y-95495000D01*
X90895000Y-95495000D02*
X90895000Y-99095000D01*
X90895000Y-99095000D02*
X97895000Y-99095000D01*
X97858084Y-120695000D02*
X90858084Y-120695000D01*
X97858084Y-124295000D02*
X97858084Y-120695000D01*
X97858084Y-124295000D02*
X102045000Y-124295000D01*
X97895000Y-99095000D02*
X97895000Y-95495000D01*
X98895000Y-97295000D02*
X98895000Y-102595000D01*
X98895000Y-102595000D02*
X101045000Y-102595000D01*
X98895000Y-117195000D02*
X98895000Y-122495000D01*
X98895000Y-122495000D02*
X101045000Y-122495000D01*
X101045000Y-97295000D02*
X98895000Y-97295000D01*
X101045000Y-102595000D02*
X101045000Y-97295000D01*
X101045000Y-117195000D02*
X98895000Y-117195000D01*
X101045000Y-122495000D02*
X101045000Y-117195000D01*
X102045000Y-95495000D02*
X97895000Y-95495000D01*
X102045000Y-95495000D02*
X102045000Y-99095000D01*
X102045000Y-99095000D02*
X109045000Y-99095000D01*
X102045000Y-120695000D02*
X102045000Y-124295000D01*
X109045000Y-99095000D02*
X109045000Y-95495000D01*
X109045000Y-120695000D02*
X102045000Y-120695000D01*
X109045000Y-124295000D02*
X109045000Y-120695000D01*
X109045000Y-124295000D02*
X139370000Y-124295000D01*
X110870000Y-97295000D02*
X110870000Y-102595000D01*
X110870000Y-102595000D02*
X137370000Y-102595000D01*
X110870000Y-117195000D02*
X110870000Y-122495000D01*
X110870000Y-122495000D02*
X137370000Y-122495000D01*
X136070000Y-108707346D02*
X136070000Y-111082654D01*
X136070000Y-111082654D02*
X139370000Y-111082654D01*
X136867954Y-109120556D02*
X136867954Y-110640556D01*
X136867954Y-110640556D02*
X137367954Y-110640556D01*
X137367954Y-109120556D02*
X136867954Y-109120556D01*
X137367954Y-109120556D02*
X137367954Y-110640556D01*
X137370000Y-97295000D02*
X110870000Y-97295000D01*
X137370000Y-102595000D02*
X137370000Y-97295000D01*
X137370000Y-117195000D02*
X110870000Y-117195000D01*
X137370000Y-122495000D02*
X137370000Y-117195000D01*
X138570000Y-97884474D02*
X138570000Y-105253681D01*
X138570000Y-105253681D02*
X139370000Y-105253681D01*
X138570000Y-114536319D02*
X138570000Y-121905526D01*
X138570000Y-121905526D02*
X139370000Y-121905526D01*
X139370000Y-95495000D02*
X109045000Y-95495000D01*
X139370000Y-97884474D02*
X138570000Y-97884474D01*
X139370000Y-97884474D02*
X139370000Y-95495000D01*
X139370000Y-108707346D02*
X136070000Y-108707346D01*
X139370000Y-108707346D02*
X139370000Y-105253681D01*
X139370000Y-114536319D02*
X138570000Y-114536319D01*
X139370000Y-114536319D02*
X139370000Y-111082654D01*
X139370000Y-124295000D02*
X139370000Y-121905526D01*
X74070000Y-109835000D02*
G75*
G03*
X74070000Y-109835000I-1700000J0D01*
G01*
X129330000Y-109835000D02*
G75*
G03*
X129330000Y-109835000I-1700000J0D01*
G01*
D16*
%TO.C,BT2*%
X139375000Y-124210000D02*
X139375000Y-95460000D01*
X139375000Y-124210000D02*
X60625000Y-124210000D01*
X139375000Y-95460000D02*
X60625000Y-95460000D01*
X60625000Y-124210000D02*
X60625000Y-95460000D01*
D14*
%TO.C,R23*%
X81000000Y-120487500D02*
X81000000Y-121312500D01*
X81000000Y-121312500D02*
X82600000Y-121312500D01*
X82600000Y-120487500D02*
X81000000Y-120487500D01*
X82600000Y-121312500D02*
X82600000Y-120487500D01*
%TO.C,C19*%
X126520000Y-98450000D02*
X126520000Y-97950000D01*
X126520000Y-97950000D02*
X125520000Y-97950000D01*
X125520000Y-98450000D02*
X126520000Y-98450000D01*
X125520000Y-97950000D02*
X125520000Y-98450000D01*
%TO.C,J4*%
X104330000Y-154250000D02*
X101050000Y-154250000D01*
X104330000Y-151450000D02*
X104330000Y-154250000D01*
X102200000Y-151450000D02*
X104330000Y-151450000D01*
X102200000Y-150050000D02*
X102200000Y-151450000D01*
X101050000Y-155650000D02*
X98950000Y-155650000D01*
X101050000Y-154250000D02*
X101050000Y-155650000D01*
X100600000Y-151450000D02*
X100600000Y-150050000D01*
X100600000Y-150050000D02*
X102200000Y-150050000D01*
X99400000Y-151450000D02*
X100600000Y-151450000D01*
X99400000Y-150050000D02*
X99400000Y-151450000D01*
X98950000Y-155650000D02*
X98950000Y-154250000D01*
X98950000Y-154250000D02*
X95670000Y-154250000D01*
X97800000Y-151450000D02*
X97800000Y-150050000D01*
X97800000Y-150050000D02*
X99400000Y-150050000D01*
X95670000Y-154250000D02*
X95670000Y-151450000D01*
X95670000Y-151450000D02*
X97800000Y-151450000D01*
D17*
X96690000Y-150710000D02*
G75*
G03*
X96690000Y-150710000I-100000J0D01*
G01*
D14*
%TO.C,C37*%
X77950000Y-121400000D02*
X78450000Y-121400000D01*
X78450000Y-121400000D02*
X78450000Y-120400000D01*
X77950000Y-120400000D02*
X77950000Y-121400000D01*
X78450000Y-120400000D02*
X77950000Y-120400000D01*
%TO.C,C11*%
X68600000Y-119250000D02*
X68600000Y-119750000D01*
X68600000Y-119750000D02*
X69600000Y-119750000D01*
X69600000Y-119250000D02*
X68600000Y-119250000D01*
X69600000Y-119750000D02*
X69600000Y-119250000D01*
D18*
%TO.C,SW1*%
X97900000Y-134000000D02*
X102100000Y-134000000D01*
X102100000Y-134000000D02*
X102100000Y-126350000D01*
X96770000Y-129850000D02*
X97270000Y-129550000D01*
X97270000Y-129550000D02*
X96770000Y-129250000D01*
X96770000Y-129250000D02*
X96770000Y-129850000D01*
X97900000Y-126350000D02*
X97900000Y-134000000D01*
X102100000Y-126350000D02*
X97900000Y-126350000D01*
D19*
%TO.C,J3*%
X90896500Y-138169400D02*
X90896500Y-126180600D01*
X96103500Y-138169400D02*
X90896500Y-138169400D01*
X90896500Y-126180600D02*
X96103500Y-126180600D01*
X96103500Y-126180600D02*
X96103500Y-138169400D01*
D20*
X92052200Y-137432800D02*
G75*
G03*
X92052200Y-137432800I-381000J0D01*
G01*
D15*
%TO.C,NT22*%
X87400000Y-157425400D02*
X87600000Y-157425400D01*
X87600000Y-157425400D02*
X87600000Y-157274600D01*
X87600000Y-157274600D02*
X87400000Y-157274600D01*
X87400000Y-157274600D02*
X87400000Y-157425400D01*
X87600000Y-157425400D02*
X87800000Y-157425400D01*
X87800000Y-157425400D02*
X87800000Y-157274600D01*
X87800000Y-157274600D02*
X87600000Y-157274600D01*
X87600000Y-157274600D02*
X87600000Y-157425400D01*
D19*
%TO.C,J5*%
X109103500Y-126180600D02*
X109103500Y-138169400D01*
X103896500Y-126180600D02*
X109103500Y-126180600D01*
X109103500Y-138169400D02*
X103896500Y-138169400D01*
X103896500Y-138169400D02*
X103896500Y-126180600D01*
D20*
X108709800Y-126917200D02*
G75*
G03*
X108709800Y-126917200I-381000J0D01*
G01*
D14*
%TO.C,U29*%
X128250000Y-97900000D02*
X129350000Y-97900000D01*
X128250000Y-98600000D02*
X128250000Y-97900000D01*
X129350000Y-97900000D02*
X129350000Y-98600000D01*
X129350000Y-98600000D02*
X128250000Y-98600000D01*
D16*
%TO.C,TH1*%
X139375000Y-124210000D02*
X139375000Y-95460000D01*
X139375000Y-124210000D02*
X60625000Y-124210000D01*
X139375000Y-95460000D02*
X60625000Y-95460000D01*
X60625000Y-124210000D02*
X60625000Y-95460000D01*
D14*
X128200000Y-108235000D02*
X127000000Y-108235000D01*
X127000000Y-108235000D02*
X127000000Y-111435000D01*
X127000000Y-111435000D02*
X128200000Y-111435000D01*
X128200000Y-111435000D02*
X128200000Y-108235000D01*
%TO.C,C7*%
X72995207Y-125733831D02*
X72995207Y-126233831D01*
X72995207Y-126233831D02*
X73995207Y-126233831D01*
X73995207Y-125733831D02*
X72995207Y-125733831D01*
X73995207Y-126233831D02*
X73995207Y-125733831D01*
%TD*%
M02*
