%TF.GenerationSoftware,KiCad,Pcbnew,6.0.9-8da3e8f707~116~ubuntu20.04.1*%
%TF.CreationDate,2022-12-07T16:06:54+09:00*%
%TF.ProjectId,robot,726f626f-742e-46b6-9963-61645f706362,rev?*%
%TF.SameCoordinates,Original*%
%TF.FileFunction,AssemblyDrawing,Bot*%
%FSLAX46Y46*%
G04 Gerber Fmt 4.6, Leading zero omitted, Abs format (unit mm)*
G04 Created by KiCad (PCBNEW 6.0.9-8da3e8f707~116~ubuntu20.04.1) date 2022-12-07 16:06:54*
%MOMM*%
%LPD*%
G01*
G04 APERTURE LIST*
%ADD10C,0.062500*%
%ADD11C,0.040000*%
%ADD12C,0.060000*%
%ADD13C,0.080000*%
%ADD14C,0.150000*%
%ADD15C,0.100000*%
%ADD16C,0.200000*%
G04 APERTURE END LIST*
D10*
%TO.C,U23*%
X100688095Y-152165476D02*
X100890476Y-152165476D01*
X100914285Y-152177380D01*
X100926190Y-152189285D01*
X100938095Y-152213095D01*
X100938095Y-152260714D01*
X100926190Y-152284523D01*
X100914285Y-152296428D01*
X100890476Y-152308333D01*
X100688095Y-152308333D01*
X100711904Y-152415476D02*
X100700000Y-152427380D01*
X100688095Y-152451190D01*
X100688095Y-152510714D01*
X100700000Y-152534523D01*
X100711904Y-152546428D01*
X100735714Y-152558333D01*
X100759523Y-152558333D01*
X100795238Y-152546428D01*
X100938095Y-152403571D01*
X100938095Y-152558333D01*
X100688095Y-152641666D02*
X100688095Y-152796428D01*
X100783333Y-152713095D01*
X100783333Y-152748809D01*
X100795238Y-152772619D01*
X100807142Y-152784523D01*
X100830952Y-152796428D01*
X100890476Y-152796428D01*
X100914285Y-152784523D01*
X100926190Y-152772619D01*
X100938095Y-152748809D01*
X100938095Y-152677380D01*
X100926190Y-152653571D01*
X100914285Y-152641666D01*
X101038095Y-153025000D02*
X101097619Y-153025000D01*
X101073809Y-152965476D02*
X101097619Y-153025000D01*
X101073809Y-153084523D01*
X101145238Y-152989285D02*
X101097619Y-153025000D01*
X101145238Y-153060714D01*
D11*
%TO.C,C18*%
X129002399Y-90550247D02*
X129014304Y-90562152D01*
X129050018Y-90574057D01*
X129073827Y-90574057D01*
X129109542Y-90562152D01*
X129133351Y-90538342D01*
X129145256Y-90514533D01*
X129157161Y-90466914D01*
X129157161Y-90431200D01*
X129145256Y-90383581D01*
X129133351Y-90359771D01*
X129109542Y-90335962D01*
X129073827Y-90324057D01*
X129050018Y-90324057D01*
X129014304Y-90335962D01*
X129002399Y-90347866D01*
X128764304Y-90574057D02*
X128907161Y-90574057D01*
X128835732Y-90574057D02*
X128835732Y-90324057D01*
X128859542Y-90359771D01*
X128883351Y-90383581D01*
X128907161Y-90395485D01*
X128621446Y-90431200D02*
X128645256Y-90419295D01*
X128657161Y-90407390D01*
X128669065Y-90383581D01*
X128669065Y-90371676D01*
X128657161Y-90347866D01*
X128645256Y-90335962D01*
X128621446Y-90324057D01*
X128573827Y-90324057D01*
X128550018Y-90335962D01*
X128538113Y-90347866D01*
X128526208Y-90371676D01*
X128526208Y-90383581D01*
X128538113Y-90407390D01*
X128550018Y-90419295D01*
X128573827Y-90431200D01*
X128621446Y-90431200D01*
X128645256Y-90443104D01*
X128657161Y-90455009D01*
X128669065Y-90478819D01*
X128669065Y-90526438D01*
X128657161Y-90550247D01*
X128645256Y-90562152D01*
X128621446Y-90574057D01*
X128573827Y-90574057D01*
X128550018Y-90562152D01*
X128538113Y-90550247D01*
X128526208Y-90526438D01*
X128526208Y-90478819D01*
X128538113Y-90455009D01*
X128550018Y-90443104D01*
X128573827Y-90431200D01*
D12*
%TO.C,R30*%
X128502935Y-153037883D02*
X128636269Y-152847407D01*
X128731507Y-153037883D02*
X128731507Y-152637883D01*
X128579126Y-152637883D01*
X128541031Y-152656931D01*
X128521983Y-152675978D01*
X128502935Y-152714073D01*
X128502935Y-152771216D01*
X128521983Y-152809311D01*
X128541031Y-152828359D01*
X128579126Y-152847407D01*
X128731507Y-152847407D01*
X128369602Y-152637883D02*
X128121983Y-152637883D01*
X128255316Y-152790264D01*
X128198173Y-152790264D01*
X128160078Y-152809311D01*
X128141031Y-152828359D01*
X128121983Y-152866454D01*
X128121983Y-152961692D01*
X128141031Y-152999788D01*
X128160078Y-153018835D01*
X128198173Y-153037883D01*
X128312459Y-153037883D01*
X128350554Y-153018835D01*
X128369602Y-152999788D01*
X127874364Y-152637883D02*
X127836269Y-152637883D01*
X127798173Y-152656931D01*
X127779126Y-152675978D01*
X127760078Y-152714073D01*
X127741031Y-152790264D01*
X127741031Y-152885502D01*
X127760078Y-152961692D01*
X127779126Y-152999788D01*
X127798173Y-153018835D01*
X127836269Y-153037883D01*
X127874364Y-153037883D01*
X127912459Y-153018835D01*
X127931507Y-152999788D01*
X127950554Y-152961692D01*
X127969602Y-152885502D01*
X127969602Y-152790264D01*
X127950554Y-152714073D01*
X127931507Y-152675978D01*
X127912459Y-152656931D01*
X127874364Y-152637883D01*
D11*
%TO.C,C14*%
X70860714Y-107300247D02*
X70872619Y-107312152D01*
X70908333Y-107324057D01*
X70932142Y-107324057D01*
X70967857Y-107312152D01*
X70991666Y-107288342D01*
X71003571Y-107264533D01*
X71015476Y-107216914D01*
X71015476Y-107181200D01*
X71003571Y-107133581D01*
X70991666Y-107109771D01*
X70967857Y-107085962D01*
X70932142Y-107074057D01*
X70908333Y-107074057D01*
X70872619Y-107085962D01*
X70860714Y-107097866D01*
X70622619Y-107324057D02*
X70765476Y-107324057D01*
X70694047Y-107324057D02*
X70694047Y-107074057D01*
X70717857Y-107109771D01*
X70741666Y-107133581D01*
X70765476Y-107145485D01*
X70408333Y-107157390D02*
X70408333Y-107324057D01*
X70467857Y-107062152D02*
X70527380Y-107240723D01*
X70372619Y-107240723D01*
%TO.C,R33*%
X76131342Y-154737619D02*
X76218009Y-154613809D01*
X76279914Y-154737619D02*
X76279914Y-154477619D01*
X76180866Y-154477619D01*
X76156104Y-154490000D01*
X76143723Y-154502380D01*
X76131342Y-154527142D01*
X76131342Y-154564285D01*
X76143723Y-154589047D01*
X76156104Y-154601428D01*
X76180866Y-154613809D01*
X76279914Y-154613809D01*
X76044676Y-154477619D02*
X75883723Y-154477619D01*
X75970390Y-154576666D01*
X75933247Y-154576666D01*
X75908485Y-154589047D01*
X75896104Y-154601428D01*
X75883723Y-154626190D01*
X75883723Y-154688095D01*
X75896104Y-154712857D01*
X75908485Y-154725238D01*
X75933247Y-154737619D01*
X76007533Y-154737619D01*
X76032295Y-154725238D01*
X76044676Y-154712857D01*
X75797057Y-154477619D02*
X75636104Y-154477619D01*
X75722771Y-154576666D01*
X75685628Y-154576666D01*
X75660866Y-154589047D01*
X75648485Y-154601428D01*
X75636104Y-154626190D01*
X75636104Y-154688095D01*
X75648485Y-154712857D01*
X75660866Y-154725238D01*
X75685628Y-154737619D01*
X75759914Y-154737619D01*
X75784676Y-154725238D01*
X75797057Y-154712857D01*
%TO.C,R5*%
X73141612Y-110256597D02*
X73017802Y-110169931D01*
X73141612Y-110108026D02*
X72881612Y-110108026D01*
X72881612Y-110207073D01*
X72893993Y-110231835D01*
X72906373Y-110244216D01*
X72931135Y-110256597D01*
X72968278Y-110256597D01*
X72993040Y-110244216D01*
X73005421Y-110231835D01*
X73017802Y-110207073D01*
X73017802Y-110108026D01*
X72881612Y-110491835D02*
X72881612Y-110368026D01*
X73005421Y-110355645D01*
X72993040Y-110368026D01*
X72980659Y-110392788D01*
X72980659Y-110454692D01*
X72993040Y-110479454D01*
X73005421Y-110491835D01*
X73030183Y-110504216D01*
X73092088Y-110504216D01*
X73116850Y-110491835D01*
X73129231Y-110479454D01*
X73141612Y-110454692D01*
X73141612Y-110392788D01*
X73129231Y-110368026D01*
X73116850Y-110355645D01*
%TO.C,C2*%
X71293551Y-111670247D02*
X71305456Y-111682152D01*
X71341170Y-111694057D01*
X71364980Y-111694057D01*
X71400694Y-111682152D01*
X71424504Y-111658342D01*
X71436408Y-111634533D01*
X71448313Y-111586914D01*
X71448313Y-111551200D01*
X71436408Y-111503581D01*
X71424504Y-111479771D01*
X71400694Y-111455962D01*
X71364980Y-111444057D01*
X71341170Y-111444057D01*
X71305456Y-111455962D01*
X71293551Y-111467866D01*
X71198313Y-111467866D02*
X71186408Y-111455962D01*
X71162599Y-111444057D01*
X71103075Y-111444057D01*
X71079265Y-111455962D01*
X71067361Y-111467866D01*
X71055456Y-111491676D01*
X71055456Y-111515485D01*
X71067361Y-111551200D01*
X71210218Y-111694057D01*
X71055456Y-111694057D01*
D10*
%TO.C,U7*%
X94340476Y-112138095D02*
X94340476Y-112340476D01*
X94328571Y-112364285D01*
X94316666Y-112376190D01*
X94292857Y-112388095D01*
X94245238Y-112388095D01*
X94221428Y-112376190D01*
X94209523Y-112364285D01*
X94197619Y-112340476D01*
X94197619Y-112138095D01*
X94102380Y-112138095D02*
X93935714Y-112138095D01*
X94042857Y-112388095D01*
X94700000Y-111788095D02*
X94700000Y-111847619D01*
X94759523Y-111823809D02*
X94700000Y-111847619D01*
X94640476Y-111823809D01*
X94735714Y-111895238D02*
X94700000Y-111847619D01*
X94664285Y-111895238D01*
%TO.C,U27*%
X129313095Y-86865476D02*
X129515476Y-86865476D01*
X129539285Y-86877380D01*
X129551190Y-86889285D01*
X129563095Y-86913095D01*
X129563095Y-86960714D01*
X129551190Y-86984523D01*
X129539285Y-86996428D01*
X129515476Y-87008333D01*
X129313095Y-87008333D01*
X129336904Y-87115476D02*
X129325000Y-87127380D01*
X129313095Y-87151190D01*
X129313095Y-87210714D01*
X129325000Y-87234523D01*
X129336904Y-87246428D01*
X129360714Y-87258333D01*
X129384523Y-87258333D01*
X129420238Y-87246428D01*
X129563095Y-87103571D01*
X129563095Y-87258333D01*
X129313095Y-87341666D02*
X129313095Y-87508333D01*
X129563095Y-87401190D01*
X129663095Y-87725000D02*
X129722619Y-87725000D01*
X129698809Y-87665476D02*
X129722619Y-87725000D01*
X129698809Y-87784523D01*
X129770238Y-87689285D02*
X129722619Y-87725000D01*
X129770238Y-87760714D01*
D12*
%TO.C,C17*%
X69431135Y-105782788D02*
X69450183Y-105801835D01*
X69507326Y-105820883D01*
X69545421Y-105820883D01*
X69602564Y-105801835D01*
X69640659Y-105763740D01*
X69659707Y-105725645D01*
X69678754Y-105649454D01*
X69678754Y-105592311D01*
X69659707Y-105516121D01*
X69640659Y-105478026D01*
X69602564Y-105439931D01*
X69545421Y-105420883D01*
X69507326Y-105420883D01*
X69450183Y-105439931D01*
X69431135Y-105458978D01*
X69050183Y-105820883D02*
X69278754Y-105820883D01*
X69164469Y-105820883D02*
X69164469Y-105420883D01*
X69202564Y-105478026D01*
X69240659Y-105516121D01*
X69278754Y-105535169D01*
X68916850Y-105420883D02*
X68650183Y-105420883D01*
X68821612Y-105820883D01*
D13*
%TO.C,C83*%
X108578571Y-99928571D02*
X108602380Y-99904761D01*
X108626190Y-99833333D01*
X108626190Y-99785714D01*
X108602380Y-99714285D01*
X108554761Y-99666666D01*
X108507142Y-99642857D01*
X108411904Y-99619047D01*
X108340476Y-99619047D01*
X108245238Y-99642857D01*
X108197619Y-99666666D01*
X108150000Y-99714285D01*
X108126190Y-99785714D01*
X108126190Y-99833333D01*
X108150000Y-99904761D01*
X108173809Y-99928571D01*
X108340476Y-100214285D02*
X108316666Y-100166666D01*
X108292857Y-100142857D01*
X108245238Y-100119047D01*
X108221428Y-100119047D01*
X108173809Y-100142857D01*
X108150000Y-100166666D01*
X108126190Y-100214285D01*
X108126190Y-100309523D01*
X108150000Y-100357142D01*
X108173809Y-100380952D01*
X108221428Y-100404761D01*
X108245238Y-100404761D01*
X108292857Y-100380952D01*
X108316666Y-100357142D01*
X108340476Y-100309523D01*
X108340476Y-100214285D01*
X108364285Y-100166666D01*
X108388095Y-100142857D01*
X108435714Y-100119047D01*
X108530952Y-100119047D01*
X108578571Y-100142857D01*
X108602380Y-100166666D01*
X108626190Y-100214285D01*
X108626190Y-100309523D01*
X108602380Y-100357142D01*
X108578571Y-100380952D01*
X108530952Y-100404761D01*
X108435714Y-100404761D01*
X108388095Y-100380952D01*
X108364285Y-100357142D01*
X108340476Y-100309523D01*
X108126190Y-100571428D02*
X108126190Y-100880952D01*
X108316666Y-100714285D01*
X108316666Y-100785714D01*
X108340476Y-100833333D01*
X108364285Y-100857142D01*
X108411904Y-100880952D01*
X108530952Y-100880952D01*
X108578571Y-100857142D01*
X108602380Y-100833333D01*
X108626190Y-100785714D01*
X108626190Y-100642857D01*
X108602380Y-100595238D01*
X108578571Y-100571428D01*
D11*
%TO.C,R7*%
X92267619Y-114481666D02*
X92143809Y-114395000D01*
X92267619Y-114333095D02*
X92007619Y-114333095D01*
X92007619Y-114432142D01*
X92020000Y-114456904D01*
X92032380Y-114469285D01*
X92057142Y-114481666D01*
X92094285Y-114481666D01*
X92119047Y-114469285D01*
X92131428Y-114456904D01*
X92143809Y-114432142D01*
X92143809Y-114333095D01*
X92007619Y-114568333D02*
X92007619Y-114741666D01*
X92267619Y-114630238D01*
D12*
%TO.C,R10*%
X90030952Y-108889857D02*
X89840476Y-108756523D01*
X90030952Y-108661285D02*
X89630952Y-108661285D01*
X89630952Y-108813666D01*
X89650000Y-108851761D01*
X89669047Y-108870809D01*
X89707142Y-108889857D01*
X89764285Y-108889857D01*
X89802380Y-108870809D01*
X89821428Y-108851761D01*
X89840476Y-108813666D01*
X89840476Y-108661285D01*
X90030952Y-109270809D02*
X90030952Y-109042238D01*
X90030952Y-109156523D02*
X89630952Y-109156523D01*
X89688095Y-109118428D01*
X89726190Y-109080333D01*
X89745238Y-109042238D01*
X89630952Y-109518428D02*
X89630952Y-109556523D01*
X89650000Y-109594619D01*
X89669047Y-109613666D01*
X89707142Y-109632714D01*
X89783333Y-109651761D01*
X89878571Y-109651761D01*
X89954761Y-109632714D01*
X89992857Y-109613666D01*
X90011904Y-109594619D01*
X90030952Y-109556523D01*
X90030952Y-109518428D01*
X90011904Y-109480333D01*
X89992857Y-109461285D01*
X89954761Y-109442238D01*
X89878571Y-109423190D01*
X89783333Y-109423190D01*
X89707142Y-109442238D01*
X89669047Y-109461285D01*
X89650000Y-109480333D01*
X89630952Y-109518428D01*
D10*
%TO.C,U10*%
X92109523Y-112263095D02*
X92109523Y-112465476D01*
X92097619Y-112489285D01*
X92085714Y-112501190D01*
X92061904Y-112513095D01*
X92014285Y-112513095D01*
X91990476Y-112501190D01*
X91978571Y-112489285D01*
X91966666Y-112465476D01*
X91966666Y-112263095D01*
X91716666Y-112513095D02*
X91859523Y-112513095D01*
X91788095Y-112513095D02*
X91788095Y-112263095D01*
X91811904Y-112298809D01*
X91835714Y-112322619D01*
X91859523Y-112334523D01*
X91561904Y-112263095D02*
X91538095Y-112263095D01*
X91514285Y-112275000D01*
X91502380Y-112286904D01*
X91490476Y-112310714D01*
X91478571Y-112358333D01*
X91478571Y-112417857D01*
X91490476Y-112465476D01*
X91502380Y-112489285D01*
X91514285Y-112501190D01*
X91538095Y-112513095D01*
X91561904Y-112513095D01*
X91585714Y-112501190D01*
X91597619Y-112489285D01*
X91609523Y-112465476D01*
X91621428Y-112417857D01*
X91621428Y-112358333D01*
X91609523Y-112310714D01*
X91597619Y-112286904D01*
X91585714Y-112275000D01*
X91561904Y-112263095D01*
X92350000Y-111913095D02*
X92350000Y-111972619D01*
X92409523Y-111948809D02*
X92350000Y-111972619D01*
X92290476Y-111948809D01*
X92385714Y-112020238D02*
X92350000Y-111972619D01*
X92314285Y-112020238D01*
D11*
%TO.C,C15*%
X69684707Y-102481916D02*
X69696612Y-102493821D01*
X69732326Y-102505726D01*
X69756135Y-102505726D01*
X69791850Y-102493821D01*
X69815659Y-102470011D01*
X69827564Y-102446202D01*
X69839469Y-102398583D01*
X69839469Y-102362869D01*
X69827564Y-102315250D01*
X69815659Y-102291440D01*
X69791850Y-102267631D01*
X69756135Y-102255726D01*
X69732326Y-102255726D01*
X69696612Y-102267631D01*
X69684707Y-102279535D01*
X69446612Y-102505726D02*
X69589469Y-102505726D01*
X69518040Y-102505726D02*
X69518040Y-102255726D01*
X69541850Y-102291440D01*
X69565659Y-102315250D01*
X69589469Y-102327154D01*
X69220421Y-102255726D02*
X69339469Y-102255726D01*
X69351373Y-102374773D01*
X69339469Y-102362869D01*
X69315659Y-102350964D01*
X69256135Y-102350964D01*
X69232326Y-102362869D01*
X69220421Y-102374773D01*
X69208516Y-102398583D01*
X69208516Y-102458107D01*
X69220421Y-102481916D01*
X69232326Y-102493821D01*
X69256135Y-102505726D01*
X69315659Y-102505726D01*
X69339469Y-102493821D01*
X69351373Y-102481916D01*
D12*
%TO.C,R23*%
X81892545Y-101000288D02*
X81702069Y-100866954D01*
X81892545Y-100771716D02*
X81492545Y-100771716D01*
X81492545Y-100924097D01*
X81511593Y-100962192D01*
X81530640Y-100981240D01*
X81568735Y-101000288D01*
X81625878Y-101000288D01*
X81663973Y-100981240D01*
X81683021Y-100962192D01*
X81702069Y-100924097D01*
X81702069Y-100771716D01*
X81530640Y-101152669D02*
X81511593Y-101171716D01*
X81492545Y-101209811D01*
X81492545Y-101305050D01*
X81511593Y-101343145D01*
X81530640Y-101362192D01*
X81568735Y-101381240D01*
X81606831Y-101381240D01*
X81663973Y-101362192D01*
X81892545Y-101133621D01*
X81892545Y-101381240D01*
X81492545Y-101514573D02*
X81492545Y-101762192D01*
X81644926Y-101628859D01*
X81644926Y-101686002D01*
X81663973Y-101724097D01*
X81683021Y-101743145D01*
X81721116Y-101762192D01*
X81816354Y-101762192D01*
X81854450Y-101743145D01*
X81873497Y-101724097D01*
X81892545Y-101686002D01*
X81892545Y-101571716D01*
X81873497Y-101533621D01*
X81854450Y-101514573D01*
D11*
%TO.C,C19*%
X134502399Y-89300247D02*
X134514304Y-89312152D01*
X134550018Y-89324057D01*
X134573827Y-89324057D01*
X134609542Y-89312152D01*
X134633351Y-89288342D01*
X134645256Y-89264533D01*
X134657161Y-89216914D01*
X134657161Y-89181200D01*
X134645256Y-89133581D01*
X134633351Y-89109771D01*
X134609542Y-89085962D01*
X134573827Y-89074057D01*
X134550018Y-89074057D01*
X134514304Y-89085962D01*
X134502399Y-89097866D01*
X134264304Y-89324057D02*
X134407161Y-89324057D01*
X134335732Y-89324057D02*
X134335732Y-89074057D01*
X134359542Y-89109771D01*
X134383351Y-89133581D01*
X134407161Y-89145485D01*
X134145256Y-89324057D02*
X134097637Y-89324057D01*
X134073827Y-89312152D01*
X134061923Y-89300247D01*
X134038113Y-89264533D01*
X134026208Y-89216914D01*
X134026208Y-89121676D01*
X134038113Y-89097866D01*
X134050018Y-89085962D01*
X134073827Y-89074057D01*
X134121446Y-89074057D01*
X134145256Y-89085962D01*
X134157161Y-89097866D01*
X134169065Y-89121676D01*
X134169065Y-89181200D01*
X134157161Y-89205009D01*
X134145256Y-89216914D01*
X134121446Y-89228819D01*
X134073827Y-89228819D01*
X134050018Y-89216914D01*
X134038113Y-89205009D01*
X134026208Y-89181200D01*
%TO.C,R32*%
X76131342Y-155753619D02*
X76218009Y-155629809D01*
X76279914Y-155753619D02*
X76279914Y-155493619D01*
X76180866Y-155493619D01*
X76156104Y-155506000D01*
X76143723Y-155518380D01*
X76131342Y-155543142D01*
X76131342Y-155580285D01*
X76143723Y-155605047D01*
X76156104Y-155617428D01*
X76180866Y-155629809D01*
X76279914Y-155629809D01*
X76044676Y-155493619D02*
X75883723Y-155493619D01*
X75970390Y-155592666D01*
X75933247Y-155592666D01*
X75908485Y-155605047D01*
X75896104Y-155617428D01*
X75883723Y-155642190D01*
X75883723Y-155704095D01*
X75896104Y-155728857D01*
X75908485Y-155741238D01*
X75933247Y-155753619D01*
X76007533Y-155753619D01*
X76032295Y-155741238D01*
X76044676Y-155728857D01*
X75784676Y-155518380D02*
X75772295Y-155506000D01*
X75747533Y-155493619D01*
X75685628Y-155493619D01*
X75660866Y-155506000D01*
X75648485Y-155518380D01*
X75636104Y-155543142D01*
X75636104Y-155567904D01*
X75648485Y-155605047D01*
X75797057Y-155753619D01*
X75636104Y-155753619D01*
D14*
%TO.C,J4*%
X101633333Y-156252380D02*
X101633333Y-156966666D01*
X101680952Y-157109523D01*
X101776190Y-157204761D01*
X101919047Y-157252380D01*
X102014285Y-157252380D01*
X100728571Y-156585714D02*
X100728571Y-157252380D01*
X100966666Y-156204761D02*
X101204761Y-156919047D01*
X100585714Y-156919047D01*
D11*
%TO.C,C84*%
X129389285Y-101059285D02*
X129401190Y-101047380D01*
X129413095Y-101011666D01*
X129413095Y-100987857D01*
X129401190Y-100952142D01*
X129377380Y-100928333D01*
X129353571Y-100916428D01*
X129305952Y-100904523D01*
X129270238Y-100904523D01*
X129222619Y-100916428D01*
X129198809Y-100928333D01*
X129175000Y-100952142D01*
X129163095Y-100987857D01*
X129163095Y-101011666D01*
X129175000Y-101047380D01*
X129186904Y-101059285D01*
X129270238Y-101202142D02*
X129258333Y-101178333D01*
X129246428Y-101166428D01*
X129222619Y-101154523D01*
X129210714Y-101154523D01*
X129186904Y-101166428D01*
X129175000Y-101178333D01*
X129163095Y-101202142D01*
X129163095Y-101249761D01*
X129175000Y-101273571D01*
X129186904Y-101285476D01*
X129210714Y-101297380D01*
X129222619Y-101297380D01*
X129246428Y-101285476D01*
X129258333Y-101273571D01*
X129270238Y-101249761D01*
X129270238Y-101202142D01*
X129282142Y-101178333D01*
X129294047Y-101166428D01*
X129317857Y-101154523D01*
X129365476Y-101154523D01*
X129389285Y-101166428D01*
X129401190Y-101178333D01*
X129413095Y-101202142D01*
X129413095Y-101249761D01*
X129401190Y-101273571D01*
X129389285Y-101285476D01*
X129365476Y-101297380D01*
X129317857Y-101297380D01*
X129294047Y-101285476D01*
X129282142Y-101273571D01*
X129270238Y-101249761D01*
X129246428Y-101511666D02*
X129413095Y-101511666D01*
X129151190Y-101452142D02*
X129329761Y-101392619D01*
X129329761Y-101547380D01*
%TO.C,C37*%
X80280878Y-101096716D02*
X80292783Y-101084811D01*
X80304688Y-101049097D01*
X80304688Y-101025288D01*
X80292783Y-100989573D01*
X80268973Y-100965764D01*
X80245164Y-100953859D01*
X80197545Y-100941954D01*
X80161831Y-100941954D01*
X80114212Y-100953859D01*
X80090402Y-100965764D01*
X80066593Y-100989573D01*
X80054688Y-101025288D01*
X80054688Y-101049097D01*
X80066593Y-101084811D01*
X80078497Y-101096716D01*
X80054688Y-101180050D02*
X80054688Y-101334811D01*
X80149926Y-101251478D01*
X80149926Y-101287192D01*
X80161831Y-101311002D01*
X80173735Y-101322907D01*
X80197545Y-101334811D01*
X80257069Y-101334811D01*
X80280878Y-101322907D01*
X80292783Y-101311002D01*
X80304688Y-101287192D01*
X80304688Y-101215764D01*
X80292783Y-101191954D01*
X80280878Y-101180050D01*
X80054688Y-101418145D02*
X80054688Y-101584811D01*
X80304688Y-101477669D01*
D12*
%TO.C,R14*%
X88424958Y-111937857D02*
X88234482Y-111804523D01*
X88424958Y-111709285D02*
X88024958Y-111709285D01*
X88024958Y-111861666D01*
X88044006Y-111899761D01*
X88063053Y-111918809D01*
X88101148Y-111937857D01*
X88158291Y-111937857D01*
X88196386Y-111918809D01*
X88215434Y-111899761D01*
X88234482Y-111861666D01*
X88234482Y-111709285D01*
X88424958Y-112318809D02*
X88424958Y-112090238D01*
X88424958Y-112204523D02*
X88024958Y-112204523D01*
X88082101Y-112166428D01*
X88120196Y-112128333D01*
X88139244Y-112090238D01*
X88158291Y-112661666D02*
X88424958Y-112661666D01*
X88005910Y-112566428D02*
X88291625Y-112471190D01*
X88291625Y-112718809D01*
%TO.C,R26*%
X130680945Y-146757788D02*
X130490469Y-146624454D01*
X130680945Y-146529216D02*
X130280945Y-146529216D01*
X130280945Y-146681597D01*
X130299993Y-146719692D01*
X130319040Y-146738740D01*
X130357135Y-146757788D01*
X130414278Y-146757788D01*
X130452373Y-146738740D01*
X130471421Y-146719692D01*
X130490469Y-146681597D01*
X130490469Y-146529216D01*
X130319040Y-146910169D02*
X130299993Y-146929216D01*
X130280945Y-146967311D01*
X130280945Y-147062550D01*
X130299993Y-147100645D01*
X130319040Y-147119692D01*
X130357135Y-147138740D01*
X130395231Y-147138740D01*
X130452373Y-147119692D01*
X130680945Y-146891121D01*
X130680945Y-147138740D01*
X130280945Y-147481597D02*
X130280945Y-147405407D01*
X130299993Y-147367311D01*
X130319040Y-147348264D01*
X130376183Y-147310169D01*
X130452373Y-147291121D01*
X130604754Y-147291121D01*
X130642850Y-147310169D01*
X130661897Y-147329216D01*
X130680945Y-147367311D01*
X130680945Y-147443502D01*
X130661897Y-147481597D01*
X130642850Y-147500645D01*
X130604754Y-147519692D01*
X130509516Y-147519692D01*
X130471421Y-147500645D01*
X130452373Y-147481597D01*
X130433326Y-147443502D01*
X130433326Y-147367311D01*
X130452373Y-147329216D01*
X130471421Y-147310169D01*
X130509516Y-147291121D01*
D11*
%TO.C,C45*%
X79457085Y-152325685D02*
X79468990Y-152313780D01*
X79480895Y-152278066D01*
X79480895Y-152254257D01*
X79468990Y-152218542D01*
X79445180Y-152194733D01*
X79421371Y-152182828D01*
X79373752Y-152170923D01*
X79338038Y-152170923D01*
X79290419Y-152182828D01*
X79266609Y-152194733D01*
X79242800Y-152218542D01*
X79230895Y-152254257D01*
X79230895Y-152278066D01*
X79242800Y-152313780D01*
X79254704Y-152325685D01*
X79314228Y-152539971D02*
X79480895Y-152539971D01*
X79218990Y-152480447D02*
X79397561Y-152420923D01*
X79397561Y-152575685D01*
X79230895Y-152789971D02*
X79230895Y-152670923D01*
X79349942Y-152659019D01*
X79338038Y-152670923D01*
X79326133Y-152694733D01*
X79326133Y-152754257D01*
X79338038Y-152778066D01*
X79349942Y-152789971D01*
X79373752Y-152801876D01*
X79433276Y-152801876D01*
X79457085Y-152789971D01*
X79468990Y-152778066D01*
X79480895Y-152754257D01*
X79480895Y-152694733D01*
X79468990Y-152670923D01*
X79457085Y-152659019D01*
%TO.C,C11*%
X68913279Y-104459216D02*
X68925184Y-104471121D01*
X68960898Y-104483026D01*
X68984707Y-104483026D01*
X69020422Y-104471121D01*
X69044231Y-104447311D01*
X69056136Y-104423502D01*
X69068041Y-104375883D01*
X69068041Y-104340169D01*
X69056136Y-104292550D01*
X69044231Y-104268740D01*
X69020422Y-104244931D01*
X68984707Y-104233026D01*
X68960898Y-104233026D01*
X68925184Y-104244931D01*
X68913279Y-104256835D01*
X68675184Y-104483026D02*
X68818041Y-104483026D01*
X68746612Y-104483026D02*
X68746612Y-104233026D01*
X68770422Y-104268740D01*
X68794231Y-104292550D01*
X68818041Y-104304454D01*
X68437088Y-104483026D02*
X68579945Y-104483026D01*
X68508517Y-104483026D02*
X68508517Y-104233026D01*
X68532326Y-104268740D01*
X68556136Y-104292550D01*
X68579945Y-104304454D01*
D12*
%TO.C,R27*%
X128502935Y-154561883D02*
X128636269Y-154371407D01*
X128731507Y-154561883D02*
X128731507Y-154161883D01*
X128579126Y-154161883D01*
X128541031Y-154180931D01*
X128521983Y-154199978D01*
X128502935Y-154238073D01*
X128502935Y-154295216D01*
X128521983Y-154333311D01*
X128541031Y-154352359D01*
X128579126Y-154371407D01*
X128731507Y-154371407D01*
X128350554Y-154199978D02*
X128331507Y-154180931D01*
X128293412Y-154161883D01*
X128198173Y-154161883D01*
X128160078Y-154180931D01*
X128141031Y-154199978D01*
X128121983Y-154238073D01*
X128121983Y-154276169D01*
X128141031Y-154333311D01*
X128369602Y-154561883D01*
X128121983Y-154561883D01*
X127988650Y-154161883D02*
X127721983Y-154161883D01*
X127893412Y-154561883D01*
D11*
%TO.C,C73*%
X96289285Y-95639285D02*
X96301190Y-95627380D01*
X96313095Y-95591666D01*
X96313095Y-95567857D01*
X96301190Y-95532142D01*
X96277380Y-95508333D01*
X96253571Y-95496428D01*
X96205952Y-95484523D01*
X96170238Y-95484523D01*
X96122619Y-95496428D01*
X96098809Y-95508333D01*
X96075000Y-95532142D01*
X96063095Y-95567857D01*
X96063095Y-95591666D01*
X96075000Y-95627380D01*
X96086904Y-95639285D01*
X96063095Y-95722619D02*
X96063095Y-95889285D01*
X96313095Y-95782142D01*
X96063095Y-95960714D02*
X96063095Y-96115476D01*
X96158333Y-96032142D01*
X96158333Y-96067857D01*
X96170238Y-96091666D01*
X96182142Y-96103571D01*
X96205952Y-96115476D01*
X96265476Y-96115476D01*
X96289285Y-96103571D01*
X96301190Y-96091666D01*
X96313095Y-96067857D01*
X96313095Y-95996428D01*
X96301190Y-95972619D01*
X96289285Y-95960714D01*
D12*
%TO.C,R29*%
X132204945Y-146757788D02*
X132014469Y-146624454D01*
X132204945Y-146529216D02*
X131804945Y-146529216D01*
X131804945Y-146681597D01*
X131823993Y-146719692D01*
X131843040Y-146738740D01*
X131881135Y-146757788D01*
X131938278Y-146757788D01*
X131976373Y-146738740D01*
X131995421Y-146719692D01*
X132014469Y-146681597D01*
X132014469Y-146529216D01*
X131843040Y-146910169D02*
X131823993Y-146929216D01*
X131804945Y-146967311D01*
X131804945Y-147062550D01*
X131823993Y-147100645D01*
X131843040Y-147119692D01*
X131881135Y-147138740D01*
X131919231Y-147138740D01*
X131976373Y-147119692D01*
X132204945Y-146891121D01*
X132204945Y-147138740D01*
X132204945Y-147329216D02*
X132204945Y-147405407D01*
X132185897Y-147443502D01*
X132166850Y-147462550D01*
X132109707Y-147500645D01*
X132033516Y-147519692D01*
X131881135Y-147519692D01*
X131843040Y-147500645D01*
X131823993Y-147481597D01*
X131804945Y-147443502D01*
X131804945Y-147367311D01*
X131823993Y-147329216D01*
X131843040Y-147310169D01*
X131881135Y-147291121D01*
X131976373Y-147291121D01*
X132014469Y-147310169D01*
X132033516Y-147329216D01*
X132052564Y-147367311D01*
X132052564Y-147443502D01*
X132033516Y-147481597D01*
X132014469Y-147500645D01*
X131976373Y-147519692D01*
D11*
%TO.C,C46*%
X78441085Y-152325685D02*
X78452990Y-152313780D01*
X78464895Y-152278066D01*
X78464895Y-152254257D01*
X78452990Y-152218542D01*
X78429180Y-152194733D01*
X78405371Y-152182828D01*
X78357752Y-152170923D01*
X78322038Y-152170923D01*
X78274419Y-152182828D01*
X78250609Y-152194733D01*
X78226800Y-152218542D01*
X78214895Y-152254257D01*
X78214895Y-152278066D01*
X78226800Y-152313780D01*
X78238704Y-152325685D01*
X78298228Y-152539971D02*
X78464895Y-152539971D01*
X78202990Y-152480447D02*
X78381561Y-152420923D01*
X78381561Y-152575685D01*
X78214895Y-152778066D02*
X78214895Y-152730447D01*
X78226800Y-152706638D01*
X78238704Y-152694733D01*
X78274419Y-152670923D01*
X78322038Y-152659019D01*
X78417276Y-152659019D01*
X78441085Y-152670923D01*
X78452990Y-152682828D01*
X78464895Y-152706638D01*
X78464895Y-152754257D01*
X78452990Y-152778066D01*
X78441085Y-152789971D01*
X78417276Y-152801876D01*
X78357752Y-152801876D01*
X78333942Y-152789971D01*
X78322038Y-152778066D01*
X78310133Y-152754257D01*
X78310133Y-152706638D01*
X78322038Y-152682828D01*
X78333942Y-152670923D01*
X78357752Y-152659019D01*
D12*
%TO.C,R15*%
X86900958Y-111937857D02*
X86710482Y-111804523D01*
X86900958Y-111709285D02*
X86500958Y-111709285D01*
X86500958Y-111861666D01*
X86520006Y-111899761D01*
X86539053Y-111918809D01*
X86577148Y-111937857D01*
X86634291Y-111937857D01*
X86672386Y-111918809D01*
X86691434Y-111899761D01*
X86710482Y-111861666D01*
X86710482Y-111709285D01*
X86900958Y-112318809D02*
X86900958Y-112090238D01*
X86900958Y-112204523D02*
X86500958Y-112204523D01*
X86558101Y-112166428D01*
X86596196Y-112128333D01*
X86615244Y-112090238D01*
X86500958Y-112680714D02*
X86500958Y-112490238D01*
X86691434Y-112471190D01*
X86672386Y-112490238D01*
X86653339Y-112528333D01*
X86653339Y-112623571D01*
X86672386Y-112661666D01*
X86691434Y-112680714D01*
X86729529Y-112699761D01*
X86824767Y-112699761D01*
X86862863Y-112680714D01*
X86881910Y-112661666D01*
X86900958Y-112623571D01*
X86900958Y-112528333D01*
X86881910Y-112490238D01*
X86862863Y-112471190D01*
D11*
%TO.C,C3*%
X72583551Y-112650247D02*
X72595456Y-112662152D01*
X72631170Y-112674057D01*
X72654980Y-112674057D01*
X72690694Y-112662152D01*
X72714504Y-112638342D01*
X72726408Y-112614533D01*
X72738313Y-112566914D01*
X72738313Y-112531200D01*
X72726408Y-112483581D01*
X72714504Y-112459771D01*
X72690694Y-112435962D01*
X72654980Y-112424057D01*
X72631170Y-112424057D01*
X72595456Y-112435962D01*
X72583551Y-112447866D01*
X72500218Y-112424057D02*
X72345456Y-112424057D01*
X72428789Y-112519295D01*
X72393075Y-112519295D01*
X72369265Y-112531200D01*
X72357361Y-112543104D01*
X72345456Y-112566914D01*
X72345456Y-112626438D01*
X72357361Y-112650247D01*
X72369265Y-112662152D01*
X72393075Y-112674057D01*
X72464504Y-112674057D01*
X72488313Y-112662152D01*
X72500218Y-112650247D01*
%TO.C,R6*%
X94631618Y-114356666D02*
X94507808Y-114270000D01*
X94631618Y-114208095D02*
X94371618Y-114208095D01*
X94371618Y-114307142D01*
X94383999Y-114331904D01*
X94396379Y-114344285D01*
X94421141Y-114356666D01*
X94458284Y-114356666D01*
X94483046Y-114344285D01*
X94495427Y-114331904D01*
X94507808Y-114307142D01*
X94507808Y-114208095D01*
X94371618Y-114579523D02*
X94371618Y-114530000D01*
X94383999Y-114505238D01*
X94396379Y-114492857D01*
X94433522Y-114468095D01*
X94483046Y-114455714D01*
X94582094Y-114455714D01*
X94606856Y-114468095D01*
X94619237Y-114480476D01*
X94631618Y-114505238D01*
X94631618Y-114554761D01*
X94619237Y-114579523D01*
X94606856Y-114591904D01*
X94582094Y-114604285D01*
X94520189Y-114604285D01*
X94495427Y-114591904D01*
X94483046Y-114579523D01*
X94470665Y-114554761D01*
X94470665Y-114505238D01*
X94483046Y-114480476D01*
X94495427Y-114468095D01*
X94520189Y-114455714D01*
D13*
%TO.C,C81*%
X104578571Y-99928571D02*
X104602380Y-99904761D01*
X104626190Y-99833333D01*
X104626190Y-99785714D01*
X104602380Y-99714285D01*
X104554761Y-99666666D01*
X104507142Y-99642857D01*
X104411904Y-99619047D01*
X104340476Y-99619047D01*
X104245238Y-99642857D01*
X104197619Y-99666666D01*
X104150000Y-99714285D01*
X104126190Y-99785714D01*
X104126190Y-99833333D01*
X104150000Y-99904761D01*
X104173809Y-99928571D01*
X104340476Y-100214285D02*
X104316666Y-100166666D01*
X104292857Y-100142857D01*
X104245238Y-100119047D01*
X104221428Y-100119047D01*
X104173809Y-100142857D01*
X104150000Y-100166666D01*
X104126190Y-100214285D01*
X104126190Y-100309523D01*
X104150000Y-100357142D01*
X104173809Y-100380952D01*
X104221428Y-100404761D01*
X104245238Y-100404761D01*
X104292857Y-100380952D01*
X104316666Y-100357142D01*
X104340476Y-100309523D01*
X104340476Y-100214285D01*
X104364285Y-100166666D01*
X104388095Y-100142857D01*
X104435714Y-100119047D01*
X104530952Y-100119047D01*
X104578571Y-100142857D01*
X104602380Y-100166666D01*
X104626190Y-100214285D01*
X104626190Y-100309523D01*
X104602380Y-100357142D01*
X104578571Y-100380952D01*
X104530952Y-100404761D01*
X104435714Y-100404761D01*
X104388095Y-100380952D01*
X104364285Y-100357142D01*
X104340476Y-100309523D01*
X104626190Y-100880952D02*
X104626190Y-100595238D01*
X104626190Y-100738095D02*
X104126190Y-100738095D01*
X104197619Y-100690476D01*
X104245238Y-100642857D01*
X104269047Y-100595238D01*
D12*
%TO.C,R11*%
X91580952Y-108892857D02*
X91390476Y-108759523D01*
X91580952Y-108664285D02*
X91180952Y-108664285D01*
X91180952Y-108816666D01*
X91200000Y-108854761D01*
X91219047Y-108873809D01*
X91257142Y-108892857D01*
X91314285Y-108892857D01*
X91352380Y-108873809D01*
X91371428Y-108854761D01*
X91390476Y-108816666D01*
X91390476Y-108664285D01*
X91580952Y-109273809D02*
X91580952Y-109045238D01*
X91580952Y-109159523D02*
X91180952Y-109159523D01*
X91238095Y-109121428D01*
X91276190Y-109083333D01*
X91295238Y-109045238D01*
X91580952Y-109654761D02*
X91580952Y-109426190D01*
X91580952Y-109540476D02*
X91180952Y-109540476D01*
X91238095Y-109502380D01*
X91276190Y-109464285D01*
X91295238Y-109426190D01*
D13*
%TO.C,C82*%
X106578571Y-99928571D02*
X106602380Y-99904761D01*
X106626190Y-99833333D01*
X106626190Y-99785714D01*
X106602380Y-99714285D01*
X106554761Y-99666666D01*
X106507142Y-99642857D01*
X106411904Y-99619047D01*
X106340476Y-99619047D01*
X106245238Y-99642857D01*
X106197619Y-99666666D01*
X106150000Y-99714285D01*
X106126190Y-99785714D01*
X106126190Y-99833333D01*
X106150000Y-99904761D01*
X106173809Y-99928571D01*
X106340476Y-100214285D02*
X106316666Y-100166666D01*
X106292857Y-100142857D01*
X106245238Y-100119047D01*
X106221428Y-100119047D01*
X106173809Y-100142857D01*
X106150000Y-100166666D01*
X106126190Y-100214285D01*
X106126190Y-100309523D01*
X106150000Y-100357142D01*
X106173809Y-100380952D01*
X106221428Y-100404761D01*
X106245238Y-100404761D01*
X106292857Y-100380952D01*
X106316666Y-100357142D01*
X106340476Y-100309523D01*
X106340476Y-100214285D01*
X106364285Y-100166666D01*
X106388095Y-100142857D01*
X106435714Y-100119047D01*
X106530952Y-100119047D01*
X106578571Y-100142857D01*
X106602380Y-100166666D01*
X106626190Y-100214285D01*
X106626190Y-100309523D01*
X106602380Y-100357142D01*
X106578571Y-100380952D01*
X106530952Y-100404761D01*
X106435714Y-100404761D01*
X106388095Y-100380952D01*
X106364285Y-100357142D01*
X106340476Y-100309523D01*
X106173809Y-100595238D02*
X106150000Y-100619047D01*
X106126190Y-100666666D01*
X106126190Y-100785714D01*
X106150000Y-100833333D01*
X106173809Y-100857142D01*
X106221428Y-100880952D01*
X106269047Y-100880952D01*
X106340476Y-100857142D01*
X106626190Y-100571428D01*
X106626190Y-100880952D01*
D11*
%TO.C,C7*%
X73641666Y-107300247D02*
X73653571Y-107312152D01*
X73689285Y-107324057D01*
X73713095Y-107324057D01*
X73748809Y-107312152D01*
X73772619Y-107288342D01*
X73784523Y-107264533D01*
X73796428Y-107216914D01*
X73796428Y-107181200D01*
X73784523Y-107133581D01*
X73772619Y-107109771D01*
X73748809Y-107085962D01*
X73713095Y-107074057D01*
X73689285Y-107074057D01*
X73653571Y-107085962D01*
X73641666Y-107097866D01*
X73558333Y-107074057D02*
X73391666Y-107074057D01*
X73498809Y-107324057D01*
D10*
%TO.C,U15*%
X74709523Y-155563095D02*
X74709523Y-155765476D01*
X74697619Y-155789285D01*
X74685714Y-155801190D01*
X74661904Y-155813095D01*
X74614285Y-155813095D01*
X74590476Y-155801190D01*
X74578571Y-155789285D01*
X74566666Y-155765476D01*
X74566666Y-155563095D01*
X74316666Y-155813095D02*
X74459523Y-155813095D01*
X74388095Y-155813095D02*
X74388095Y-155563095D01*
X74411904Y-155598809D01*
X74435714Y-155622619D01*
X74459523Y-155634523D01*
X74090476Y-155563095D02*
X74209523Y-155563095D01*
X74221428Y-155682142D01*
X74209523Y-155670238D01*
X74185714Y-155658333D01*
X74126190Y-155658333D01*
X74102380Y-155670238D01*
X74090476Y-155682142D01*
X74078571Y-155705952D01*
X74078571Y-155765476D01*
X74090476Y-155789285D01*
X74102380Y-155801190D01*
X74126190Y-155813095D01*
X74185714Y-155813095D01*
X74209523Y-155801190D01*
X74221428Y-155789285D01*
X74950000Y-155213095D02*
X74950000Y-155272619D01*
X75009523Y-155248809D02*
X74950000Y-155272619D01*
X74890476Y-155248809D01*
X74985714Y-155320238D02*
X74950000Y-155272619D01*
X74914285Y-155320238D01*
D15*
%TO.C,U23*%
X100475000Y-151925000D02*
X101175000Y-151925000D01*
X101175000Y-153025000D02*
X100475000Y-153025000D01*
X100475000Y-153025000D02*
X100475000Y-151925000D01*
X101175000Y-151925000D02*
X101175000Y-153025000D01*
%TO.C,C18*%
X129341685Y-90210962D02*
X128341685Y-90210962D01*
X128341685Y-90710962D02*
X129341685Y-90710962D01*
X128341685Y-90210962D02*
X128341685Y-90710962D01*
X129341685Y-90710962D02*
X129341685Y-90210962D01*
%TO.C,R30*%
X129045793Y-152444431D02*
X127445793Y-152444431D01*
X127445793Y-153269431D02*
X129045793Y-153269431D01*
X127445793Y-152444431D02*
X127445793Y-153269431D01*
X129045793Y-153269431D02*
X129045793Y-152444431D01*
%TO.C,C14*%
X70200000Y-106960962D02*
X70200000Y-107460962D01*
X71200000Y-107460962D02*
X71200000Y-106960962D01*
X71200000Y-106960962D02*
X70200000Y-106960962D01*
X70200000Y-107460962D02*
X71200000Y-107460962D01*
%TO.C,R33*%
X75439200Y-154890000D02*
X76489200Y-154890000D01*
X76489200Y-154350000D02*
X75439200Y-154350000D01*
X75439200Y-154350000D02*
X75439200Y-154890000D01*
X76489200Y-154890000D02*
X76489200Y-154350000D01*
%TO.C,R5*%
X72753993Y-110824931D02*
X73293993Y-110824931D01*
X73293993Y-110824931D02*
X73293993Y-109774931D01*
X72753993Y-109774931D02*
X72753993Y-110824931D01*
X73293993Y-109774931D02*
X72753993Y-109774931D01*
%TO.C,C2*%
X70751885Y-111330962D02*
X70751885Y-111830962D01*
X71751885Y-111830962D02*
X71751885Y-111330962D01*
X70751885Y-111830962D02*
X71751885Y-111830962D01*
X71751885Y-111330962D02*
X70751885Y-111330962D01*
%TO.C,U7*%
X93600000Y-112625000D02*
X93600000Y-111925000D01*
X94700000Y-111925000D02*
X94700000Y-112625000D01*
X93600000Y-111925000D02*
X94700000Y-111925000D01*
X94700000Y-112625000D02*
X93600000Y-112625000D01*
%TO.C,U27*%
X129800000Y-87725000D02*
X129100000Y-87725000D01*
X129100000Y-87725000D02*
X129100000Y-86625000D01*
X129800000Y-86625000D02*
X129800000Y-87725000D01*
X129100000Y-86625000D02*
X129800000Y-86625000D01*
%TO.C,C17*%
X69973993Y-105239931D02*
X68373993Y-105239931D01*
X68373993Y-105239931D02*
X68373993Y-106039931D01*
X69973993Y-106039931D02*
X69973993Y-105239931D01*
X68373993Y-106039931D02*
X69973993Y-106039931D01*
%TO.C,C83*%
X109025000Y-101250000D02*
X109025000Y-99250000D01*
X107775000Y-99250000D02*
X107775000Y-101250000D01*
X109025000Y-99250000D02*
X107775000Y-99250000D01*
X107775000Y-101250000D02*
X109025000Y-101250000D01*
%TO.C,R7*%
X91880000Y-114000000D02*
X91880000Y-115050000D01*
X92420000Y-114000000D02*
X91880000Y-114000000D01*
X91880000Y-115050000D02*
X92420000Y-115050000D01*
X92420000Y-115050000D02*
X92420000Y-114000000D01*
%TO.C,R10*%
X89437500Y-108347000D02*
X89437500Y-109947000D01*
X89437500Y-109947000D02*
X90262500Y-109947000D01*
X90262500Y-108347000D02*
X89437500Y-108347000D01*
X90262500Y-109947000D02*
X90262500Y-108347000D01*
%TO.C,U10*%
X92350000Y-112050000D02*
X92350000Y-112750000D01*
X91250000Y-112050000D02*
X92350000Y-112050000D01*
X92350000Y-112750000D02*
X91250000Y-112750000D01*
X91250000Y-112750000D02*
X91250000Y-112050000D01*
%TO.C,C15*%
X69023993Y-102642631D02*
X70023993Y-102642631D01*
X69023993Y-102142631D02*
X69023993Y-102642631D01*
X70023993Y-102642631D02*
X70023993Y-102142631D01*
X70023993Y-102142631D02*
X69023993Y-102142631D01*
%TO.C,R23*%
X81299093Y-102057431D02*
X82124093Y-102057431D01*
X82124093Y-102057431D02*
X82124093Y-100457431D01*
X82124093Y-100457431D02*
X81299093Y-100457431D01*
X81299093Y-100457431D02*
X81299093Y-102057431D01*
%TO.C,C19*%
X133841685Y-89460962D02*
X134841685Y-89460962D01*
X133841685Y-88960962D02*
X133841685Y-89460962D01*
X134841685Y-88960962D02*
X133841685Y-88960962D01*
X134841685Y-89460962D02*
X134841685Y-88960962D01*
%TO.C,R32*%
X76489200Y-155906000D02*
X76489200Y-155366000D01*
X75439200Y-155906000D02*
X76489200Y-155906000D01*
X75439200Y-155366000D02*
X75439200Y-155906000D01*
X76489200Y-155366000D02*
X75439200Y-155366000D01*
%TO.C,J4*%
X105770000Y-155220000D02*
X96830000Y-155220000D01*
X105770000Y-158380000D02*
X105770000Y-155220000D01*
X96830000Y-158380000D02*
X105770000Y-158380000D01*
X96830000Y-155220000D02*
X96830000Y-158380000D01*
D16*
X106400000Y-155900000D02*
G75*
G03*
X106400000Y-155900000I-100000J0D01*
G01*
D15*
%TO.C,C84*%
X129550000Y-100720000D02*
X129050000Y-100720000D01*
X129050000Y-101720000D02*
X129550000Y-101720000D01*
X129050000Y-100720000D02*
X129050000Y-101720000D01*
X129550000Y-101720000D02*
X129550000Y-100720000D01*
%TO.C,C37*%
X79941593Y-101757431D02*
X80441593Y-101757431D01*
X80441593Y-100757431D02*
X79941593Y-100757431D01*
X79941593Y-100757431D02*
X79941593Y-101757431D01*
X80441593Y-101757431D02*
X80441593Y-100757431D01*
%TO.C,R14*%
X87831506Y-112995000D02*
X88656506Y-112995000D01*
X88656506Y-112995000D02*
X88656506Y-111395000D01*
X87831506Y-111395000D02*
X87831506Y-112995000D01*
X88656506Y-111395000D02*
X87831506Y-111395000D01*
%TO.C,R26*%
X130912493Y-146214931D02*
X130087493Y-146214931D01*
X130087493Y-146214931D02*
X130087493Y-147814931D01*
X130912493Y-147814931D02*
X130912493Y-146214931D01*
X130087493Y-147814931D02*
X130912493Y-147814931D01*
%TO.C,C45*%
X79617800Y-152986400D02*
X79617800Y-151986400D01*
X79117800Y-151986400D02*
X79117800Y-152986400D01*
X79617800Y-151986400D02*
X79117800Y-151986400D01*
X79117800Y-152986400D02*
X79617800Y-152986400D01*
%TO.C,C11*%
X68252565Y-104619931D02*
X69252565Y-104619931D01*
X69252565Y-104619931D02*
X69252565Y-104119931D01*
X69252565Y-104119931D02*
X68252565Y-104119931D01*
X68252565Y-104119931D02*
X68252565Y-104619931D01*
%TO.C,R27*%
X129045793Y-153968431D02*
X127445793Y-153968431D01*
X127445793Y-154793431D02*
X129045793Y-154793431D01*
X127445793Y-153968431D02*
X127445793Y-154793431D01*
X129045793Y-154793431D02*
X129045793Y-153968431D01*
%TO.C,C73*%
X96450000Y-96300000D02*
X96450000Y-95300000D01*
X96450000Y-95300000D02*
X95950000Y-95300000D01*
X95950000Y-95300000D02*
X95950000Y-96300000D01*
X95950000Y-96300000D02*
X96450000Y-96300000D01*
%TO.C,R29*%
X131611493Y-146214931D02*
X131611493Y-147814931D01*
X132436493Y-147814931D02*
X132436493Y-146214931D01*
X131611493Y-147814931D02*
X132436493Y-147814931D01*
X132436493Y-146214931D02*
X131611493Y-146214931D01*
%TO.C,C46*%
X78101800Y-152986400D02*
X78601800Y-152986400D01*
X78601800Y-151986400D02*
X78101800Y-151986400D01*
X78601800Y-152986400D02*
X78601800Y-151986400D01*
X78101800Y-151986400D02*
X78101800Y-152986400D01*
%TO.C,R15*%
X86307506Y-111395000D02*
X86307506Y-112995000D01*
X87132506Y-112995000D02*
X87132506Y-111395000D01*
X87132506Y-111395000D02*
X86307506Y-111395000D01*
X86307506Y-112995000D02*
X87132506Y-112995000D01*
%TO.C,C3*%
X72041885Y-112310962D02*
X72041885Y-112810962D01*
X73041885Y-112810962D02*
X73041885Y-112310962D01*
X72041885Y-112810962D02*
X73041885Y-112810962D01*
X73041885Y-112310962D02*
X72041885Y-112310962D01*
%TO.C,R6*%
X94243999Y-114925000D02*
X94783999Y-114925000D01*
X94783999Y-114925000D02*
X94783999Y-113875000D01*
X94243999Y-113875000D02*
X94243999Y-114925000D01*
X94783999Y-113875000D02*
X94243999Y-113875000D01*
%TO.C,C81*%
X105025000Y-101250000D02*
X105025000Y-99250000D01*
X103775000Y-101250000D02*
X105025000Y-101250000D01*
X103775000Y-99250000D02*
X103775000Y-101250000D01*
X105025000Y-99250000D02*
X103775000Y-99250000D01*
%TO.C,R11*%
X90987500Y-109950000D02*
X91812500Y-109950000D01*
X91812500Y-109950000D02*
X91812500Y-108350000D01*
X91812500Y-108350000D02*
X90987500Y-108350000D01*
X90987500Y-108350000D02*
X90987500Y-109950000D01*
%TO.C,C82*%
X105775000Y-99250000D02*
X105775000Y-101250000D01*
X107025000Y-101250000D02*
X107025000Y-99250000D01*
X105775000Y-101250000D02*
X107025000Y-101250000D01*
X107025000Y-99250000D02*
X105775000Y-99250000D01*
%TO.C,C7*%
X74100000Y-106960962D02*
X73100000Y-106960962D01*
X73100000Y-107460962D02*
X74100000Y-107460962D01*
X74100000Y-107460962D02*
X74100000Y-106960962D01*
X73100000Y-106960962D02*
X73100000Y-107460962D01*
%TO.C,U15*%
X74950000Y-156050000D02*
X73850000Y-156050000D01*
X73850000Y-155350000D02*
X74950000Y-155350000D01*
X74950000Y-155350000D02*
X74950000Y-156050000D01*
X73850000Y-156050000D02*
X73850000Y-155350000D01*
%TD*%
M02*
