M48
; DRILL file {KiCad 6.0.9-8da3e8f707~116~ubuntu20.04.1} date Wed 07 Dec 2022 04:06:49 PM JST
; FORMAT={-:-/ absolute / inch / decimal}
; #@! TF.CreationDate,2022-12-07T16:06:49+09:00
; #@! TF.GenerationSoftware,Kicad,Pcbnew,6.0.9-8da3e8f707~116~ubuntu20.04.1
; #@! TF.FileFunction,Plated,1,4,PTH
FMAT,2
INCH
; #@! TA.AperFunction,Plated,PTH,ViaDrill
T1C0.0059
; #@! TA.AperFunction,Plated,PTH,ViaDrill
T2C0.0079
; #@! TA.AperFunction,Plated,PTH,ComponentDrill
T3C0.0079
; #@! TA.AperFunction,Plated,PTH,ComponentDrill
T4C0.0100
; #@! TA.AperFunction,Plated,PTH,ComponentDrill
T5C0.0138
; #@! TA.AperFunction,Plated,PTH,ComponentDrill
T6C0.0197
; #@! TA.AperFunction,Plated,PTH,ComponentDrill
T7C0.0236
; #@! TA.AperFunction,Plated,PTH,ComponentDrill
T8C0.0300
; #@! TA.AperFunction,Plated,PTH,ComponentDrill
T9C0.0394
; #@! TA.AperFunction,Plated,PTH,ComponentDrill
T10C0.0461
%
G90
G05
T1
X3.0349Y-6.1267
X3.0744Y-6.0878
X3.0744Y-6.1075
X3.0744Y-6.1271
X3.094Y-6.0878
X3.094Y-6.1075
X3.1063Y-6.2087
X3.1137Y-6.0878
X3.1137Y-6.1271
X3.1253Y-3.71
X3.1333Y-6.1075
X3.1334Y-6.0878
X3.1334Y-6.1271
X3.1448Y-3.6705
X3.1449Y-3.6902
X3.1531Y-6.1271
X3.2795Y-3.5945
X3.3268Y-3.5945
X3.4213Y-6.0551
X3.4986Y-5.7598
X3.6174Y-5.7728
X3.6332Y-5.7728
X3.685Y-5.7677
X4.1122Y-4.2868
X4.1279Y-4.2868
X4.1279Y-4.3025
X4.1434Y-4.227
X4.1436Y-4.271
X4.1436Y-4.2868
X4.1438Y-4.3164
X4.1594Y-4.271
X4.1751Y-4.271
X4.1909Y-4.271
X4.2066Y-4.271
X4.2203Y-3.5584
X4.236Y-3.5087
X4.236Y-3.5426
X4.236Y-3.5584
X4.2518Y-3.5269
X4.2518Y-3.5426
X4.2518Y-3.5584
X4.2675Y-3.5269
X4.2675Y-3.5426
X4.2675Y-3.5584
X4.8661Y-3.811
X4.9252Y-3.811
X4.9606Y-3.972
X4.9764Y-4.0197
X4.9772Y-3.9365
X4.9772Y-3.9838
X4.9772Y-3.9995
X4.993Y-3.9523
X4.993Y-3.968
X4.993Y-3.9838
X4.993Y-3.9995
X5.0087Y-3.9523
X5.0087Y-3.968
X5.0087Y-3.9838
X5.0245Y-3.9838
X5.0402Y-3.9365
X5.0402Y-3.9523
X5.0402Y-3.9995
X5.0906Y-3.9803
T2
X2.3858Y-3.2992
X2.3858Y-6.2677
X2.3937Y-3.4882
X2.3976Y-6.0512
X2.437Y-5.2835
X2.4409Y-5.4764
X2.5315Y-3.315
X2.5709Y-6.0709
X2.5748Y-3.8701
X2.5748Y-5.5787
X2.5787Y-6.2559
X2.5827Y-5.3976
X2.5866Y-5.9606
X2.5906Y-3.2874
X2.622Y-4.185
X2.622Y-4.2913
X2.622Y-4.3504
X2.625Y-4.2142
X2.625Y-4.2575
X2.6299Y-4.1263
X2.63Y-4.0668
X2.6339Y-4.0926
X2.6378Y-3.9921
X2.6496Y-3.9173
X2.6497Y-3.941
X2.6535Y-3.9685
X2.6535Y-5.7205
X2.6535Y-5.7441
X2.6535Y-5.7677
X2.6643Y-4.1728
X2.685Y-4.3504
X2.6929Y-4.2953
X2.6998Y-4.0134
X2.7027Y-4.2693
X2.7197Y-3.7307
X2.7197Y-3.7511
X2.7323Y-5.2441
X2.7323Y-5.5551
X2.7332Y-4.598
X2.7362Y-6.0984
X2.7362Y-6.1339
X2.7362Y-6.1772
X2.7391Y-4.6256
X2.748Y-4.2959
X2.752Y-5.0472
X2.7569Y-4.5488
X2.7569Y-4.5744
X2.7579Y-4.059
X2.7647Y-4.3215
X2.7677Y-4.7756
X2.7687Y-4.6354
X2.7709Y-3.7638
X2.7746Y-6.2333
X2.7863Y-4.4221
X2.7864Y-4.3008
X2.7874Y-4.0512
X2.7949Y-3.9552
X2.8109Y-4.0332
X2.811Y-4.4724
X2.815Y-5.4055
X2.8189Y-3.7677
X2.8268Y-4.3504
X2.8277Y-4.3028
X2.8307Y-4.2205
X2.8307Y-4.874
X2.8504Y-4.0315
X2.8543Y-4.0551
X2.8583Y-4.2205
X2.8598Y-3.9622
X2.8622Y-4.4685
X2.8622Y-5.2441
X2.865Y-6.2047
X2.8661Y-6.2362
X2.8701Y-3.7638
X2.8749Y-4.402
X2.8858Y-4.7717
X2.9134Y-5.9016
X2.9282Y-4.3032
X2.9291Y-5.6496
X2.9488Y-5.8307
X2.9528Y-6.0315
X2.9567Y-5.0866
X2.9622Y-3.9359
X2.9724Y-5.7362
X2.9972Y-3.77
X2.9985Y-3.3533
X2.9985Y-3.3829
X2.9985Y-3.4124
X2.9985Y-3.4419
X3.0Y-5.7441
X3.0152Y-3.8898
X3.0157Y-3.8425
X3.0242Y-4.0709
X3.0242Y-4.1299
X3.0276Y-4.0984
X3.0281Y-3.3533
X3.0281Y-3.3829
X3.0281Y-3.4124
X3.0281Y-3.4419
X3.0315Y-3.9528
X3.0315Y-3.9921
X3.032Y-3.9213
X3.0354Y-4.0248
X3.0388Y-3.8884
X3.0551Y-3.7047
X3.0551Y-3.7402
X3.0576Y-3.3533
X3.0576Y-3.3829
X3.0576Y-3.4124
X3.0576Y-3.4419
X3.066Y-6.0051
X3.0906Y-5.7126
X3.0945Y-5.1339
X3.1024Y-4.689
X3.1024Y-4.7756
X3.1024Y-5.4921
X3.1102Y-6.0118
X3.1102Y-6.1811
X3.1125Y-6.2815
X3.1142Y-3.9764
X3.1181Y-4.2283
X3.122Y-4.0039
X3.1327Y-5.9394
X3.1378Y-3.315
X3.1417Y-4.2283
X3.1496Y-4.1614
X3.1654Y-4.2283
X3.1732Y-3.7756
X3.1929Y-4.9724
X3.2004Y-5.8832
X3.2037Y-5.9465
X3.2047Y-6.0197
X3.2087Y-3.689
X3.2087Y-5.3465
X3.2126Y-5.689
X3.2126Y-6.1722
X3.2244Y-3.7756
X3.2283Y-4.5236
X3.2479Y-3.8262
X3.248Y-3.9803
X3.2559Y-4.7362
X3.2598Y-4.3583
X3.2677Y-5.8465
X3.2717Y-3.937
X3.2756Y-3.311
X3.2779Y-3.6812
X3.2874Y-4.878
X3.2876Y-6.0469
X3.2913Y-5.1142
X3.3031Y-4.4803
X3.3031Y-6.2638
X3.315Y-3.9606
X3.3228Y-5.4685
X3.3252Y-5.602
X3.3307Y-4.2717
X3.3339Y-3.4394
X3.3386Y-3.8257
X3.3386Y-4.5079
X3.3415Y-6.0075
X3.3425Y-4.2283
X3.374Y-3.937
X3.3748Y-4.363
X3.3771Y-4.0839
X3.378Y-4.1339
X3.4084Y-5.9839
X3.4134Y-4.4803
X3.4213Y-3.9134
X3.4213Y-5.7992
X3.4291Y-6.1102
X3.4291Y-6.1457
X3.437Y-4.6551
X3.4409Y-5.0276
X3.4449Y-4.1496
X3.4528Y-4.8543
X3.4567Y-5.6969
X3.4629Y-4.0114
X3.4646Y-6.2598
X3.499Y-4.3297
X3.4992Y-4.3594
X3.5039Y-4.5039
X3.5039Y-5.7913
X3.5118Y-3.6929
X3.5157Y-3.8898
X3.5236Y-4.2244
X3.5276Y-4.0472
X3.5354Y-4.9646
X3.5354Y-5.5315
X3.5354Y-5.7913
X3.5433Y-5.7598
X3.5433Y-6.252
X3.5472Y-5.1417
X3.5521Y-4.6551
X3.6024Y-4.2276
X3.6179Y-3.6204
X3.6181Y-5.437
X3.622Y-3.3819
X3.6276Y-4.3846
X3.6457Y-5.8031
X3.6496Y-3.9803
X3.6654Y-5.5276
X3.6693Y-3.4843
X3.6732Y-4.0512
X3.6772Y-5.8189
X3.6779Y-3.6423
X3.6811Y-5.7913
X3.682Y-5.7437
X3.6919Y-3.8603
X3.6929Y-3.7559
X3.6929Y-3.7874
X3.6929Y-6.1799
X3.6969Y-3.7244
X3.6969Y-5.3661
X3.7165Y-3.7402
X3.7165Y-3.7717
X3.7167Y-6.1799
X3.7283Y-5.4291
X3.7362Y-4.815
X3.7402Y-6.1799
X3.7441Y-3.7126
X3.7441Y-4.3622
X3.7473Y-3.7859
X3.7493Y-3.7559
X3.7499Y-3.8717
X3.7598Y-3.5118
X3.7638Y-4.0472
X3.7717Y-5.9012
X3.7717Y-5.9248
X3.7717Y-5.947
X3.7717Y-5.9693
X3.7756Y-3.6299
X3.7756Y-3.8701
X3.7943Y-6.1965
X3.7953Y-5.9016
X3.7953Y-5.9252
X3.7953Y-5.9474
X3.7953Y-5.9697
X3.7992Y-3.6417
X3.7992Y-6.0866
X3.8031Y-3.3386
X3.811Y-5.8268
X3.815Y-3.2953
X3.815Y-5.3543
X3.8316Y-4.1527
X3.8331Y-3.5319
X3.8572Y-4.296
X3.8583Y-5.8189
X3.8661Y-4.937
X3.874Y-3.3898
X3.878Y-3.3425
X3.878Y-3.4882
X3.878Y-4.626
X3.8828Y-4.296
X3.8976Y-4.0866
X3.9134Y-3.315
X3.9134Y-4.1496
X3.9173Y-3.6535
X3.932Y-5.911
X3.9331Y-4.0512
X3.9331Y-4.748
X3.9488Y-3.4882
X3.9528Y-6.0591
X3.9567Y-3.6535
X3.9586Y-6.1718
X3.9606Y-5.811
X3.9685Y-6.0827
X3.9724Y-6.2441
X3.9764Y-5.0472
X3.9813Y-4.2961
X3.9813Y-4.2357
X3.9921Y-3.7087
X3.999Y-6.2417
X4.0039Y-3.6535
X4.0166Y-6.1749
X4.0197Y-4.5039
X4.0197Y-6.0709
X4.0236Y-3.9917
X4.0244Y-4.0181
X4.0244Y-4.0404
X4.0244Y-4.0626
X4.0283Y-4.2001
X4.0429Y-4.2148
X4.0472Y-3.9921
X4.048Y-4.0185
X4.048Y-4.0407
X4.048Y-4.063
X4.0591Y-3.6535
X4.0591Y-3.7047
X4.0591Y-4.5394
X4.0748Y-4.3307
X4.0787Y-3.3819
X4.0827Y-4.3071
X4.0984Y-4.3346
X4.0984Y-4.9567
X4.1024Y-4.6614
X4.1063Y-3.3583
X4.1181Y-4.5354
X4.122Y-3.7047
X4.126Y-3.6535
X4.1299Y-4.3543
X4.1417Y-3.4685
X4.1417Y-4.0551
X4.1457Y-4.1063
X4.1614Y-5.2008
X4.1654Y-4.5394
X4.2008Y-4.5315
X4.2113Y-3.6569
X4.2126Y-5.0827
X4.2244Y-4.0472
X4.2323Y-3.2992
X4.2323Y-4.6496
X4.248Y-3.3819
X4.2559Y-4.5354
X4.2638Y-4.7598
X4.2756Y-3.4961
X4.2874Y-3.4055
X4.2894Y-4.2593
X4.2898Y-4.2874
X4.2992Y-4.5039
X4.3031Y-3.7913
X4.3268Y-4.0354
X4.3406Y-3.5165
X4.3425Y-3.3071
X4.3504Y-4.9606
X4.3543Y-4.5984
X4.3543Y-5.1142
X4.3794Y-3.7823
X4.3878Y-4.1244
X4.3898Y-3.6693
X4.3937Y-3.4173
X4.4173Y-4.0354
X4.4298Y-3.6825
X4.437Y-5.4488
X4.4449Y-4.0709
X4.4528Y-3.3031
X4.4606Y-4.1102
X4.4803Y-3.6535
X4.4803Y-4.0512
X4.4961Y-6.0827
X4.4961Y-6.2126
X4.5Y-6.0276
X4.5Y-6.126
X4.5118Y-3.9921
X4.5167Y-5.9681
X4.5403Y-6.2358
X4.5599Y-6.0298
X4.5709Y-3.9921
X4.5796Y-6.2394
X4.5797Y-6.0075
X4.5827Y-5.4567
X4.5984Y-3.5197
X4.5992Y-6.2561
X4.626Y-3.4646
X4.6288Y-6.1223
X4.6299Y-3.9921
X4.6339Y-5.122
X4.6417Y-4.6024
X4.6457Y-3.5236
X4.6535Y-4.8504
X4.6575Y-4.7323
X4.6575Y-5.6142
X4.6693Y-6.248
X4.6772Y-6.0591
X4.7087Y-6.0394
X4.7126Y-3.9921
X4.7167Y-6.1597
X4.7323Y-3.5039
X4.7329Y-3.5457
X4.7362Y-4.4327
X4.7362Y-4.4642
X4.7362Y-4.4957
X4.7362Y-6.1063
X4.7372Y-6.1597
X4.7411Y-3.6472
X4.7411Y-3.7063
X4.7441Y-6.2283
X4.7581Y-6.1597
X4.7598Y-4.0
X4.7638Y-6.0
X4.7717Y-4.0709
X4.7756Y-4.0354
X4.7874Y-3.9213
X4.7874Y-3.9567
X4.7874Y-4.4331
X4.7874Y-4.4646
X4.7874Y-4.4961
X4.7953Y-6.0787
X4.8031Y-6.2441
X4.811Y-5.3307
X4.811Y-6.0
X4.8148Y-3.7048
X4.815Y-3.8071
X4.815Y-3.7629
X4.8346Y-5.5945
X4.8386Y-3.3031
X4.8386Y-6.1181
X4.8386Y-6.1378
X4.8465Y-5.689
X4.8543Y-5.9567
X4.8622Y-3.7283
X4.8622Y-6.1181
X4.8622Y-6.1378
X4.8701Y-5.4764
X4.8858Y-3.685
X4.8858Y-6.1181
X4.8858Y-6.1378
X4.9055Y-6.1378
X4.9094Y-5.0
X4.9094Y-6.1181
X4.9098Y-5.9902
X4.9106Y-6.0287
X4.9173Y-4.0154
X4.9173Y-4.039
X4.9173Y-4.0612
X4.9173Y-4.0835
X4.9202Y-3.6434
X4.9206Y-3.6198
X4.9243Y-3.7372
X4.9331Y-4.8268
X4.9331Y-5.9567
X4.9409Y-4.0157
X4.9409Y-4.0394
X4.9409Y-4.0616
X4.9409Y-4.0839
X4.9438Y-3.6434
X4.9442Y-3.6198
X4.9488Y-5.5197
X4.9577Y-4.1411
X4.958Y-4.1611
X4.9661Y-3.6434
X4.9664Y-3.6198
X4.9685Y-6.1732
X4.9685Y-6.2008
X4.9764Y-5.4291
X4.9772Y-6.2638
X4.9795Y-4.0516
X4.9853Y-3.7381
X4.9882Y-3.311
X4.9883Y-3.6434
X4.9887Y-3.6198
X4.9961Y-6.2008
X4.9969Y-6.1732
X5.0039Y-5.6929
X5.0118Y-5.0984
X5.0157Y-5.5945
X5.0166Y-6.0878
X5.0166Y-6.1075
X5.0264Y-3.8661
X5.0276Y-6.1732
X5.0276Y-6.2008
X5.0443Y-3.7368
X5.05Y-3.8661
X5.063Y-4.8583
X5.0669Y-3.9134
X5.0722Y-3.8661
X5.0787Y-4.6614
X5.0827Y-3.937
X5.0945Y-3.8661
X5.0984Y-3.9134
X5.0984Y-5.9803
X5.0994Y-3.497
X5.1042Y-3.7381
X5.1102Y-5.937
X5.1142Y-4.0472
X5.1142Y-5.8898
X5.1198Y-3.5615
X5.126Y-5.0079
X5.1299Y-3.9291
X5.1417Y-5.2126
X5.1538Y-3.9291
X5.1614Y-4.3504
X5.1626Y-3.7338
X5.1654Y-4.1063
X5.1654Y-4.2008
X5.1654Y-4.2638
X5.1656Y-4.1288
X5.1715Y-3.5828
X5.1721Y-3.4845
X5.1904Y-3.5885
X5.191Y-3.4902
X5.2087Y-3.7638
X5.2108Y-6.0231
X5.2165Y-3.2913
X5.2273Y-5.8205
X5.2319Y-6.0236
X5.2402Y-3.8937
X5.2418Y-3.5122
X5.2441Y-5.626
X5.247Y-5.8205
X5.252Y-3.9252
X5.2559Y-5.9764
X5.2559Y-6.0
X5.2559Y-6.0236
X5.2598Y-3.6457
X5.2638Y-5.3661
X5.2717Y-3.4449
X5.2795Y-3.5945
X5.2795Y-3.7953
X5.2795Y-6.0236
X5.2835Y-3.9803
X5.2835Y-4.0394
X5.2835Y-4.0866
X5.2886Y-5.9268
X5.2886Y-5.9488
X5.2886Y-5.9724
X5.2913Y-5.7126
X5.2953Y-3.374
X5.2953Y-5.4764
X5.2992Y-5.1339
X5.3031Y-4.5945
X5.311Y-4.4528
X5.311Y-5.811
X5.311Y-5.8386
X5.311Y-5.8701
X5.315Y-4.748
X5.315Y-4.9252
X5.3268Y-3.2992
X5.3268Y-5.7756
X5.3268Y-5.9094
X5.3386Y-3.6417
X5.3425Y-5.8386
X5.3425Y-5.8701
X5.3431Y-5.8107
X5.3543Y-3.3976
X5.3622Y-3.8819
X5.3701Y-4.0591
X5.3819Y-5.5236
X5.3828Y-5.7378
X5.4055Y-5.6024
X5.4094Y-3.5866
X5.4104Y-5.8205
X5.4104Y-5.9484
X5.4173Y-3.7913
X5.4173Y-4.8346
X5.4291Y-5.8858
X5.437Y-3.4567
X5.4449Y-3.3898
X5.4449Y-5.2835
X5.4488Y-3.9803
X5.4488Y-4.4173
X5.4528Y-4.6417
T3
X3.6949Y-6.2402
X3.7382Y-6.2402
X5.0374Y-3.6713
X5.0807Y-3.6713
T4
X3.2614Y-4.0679
X3.2614Y-4.0989
X3.2924Y-4.0679
X3.2924Y-4.0989
X4.5446Y-6.1164
X4.5446Y-6.1474
X4.5756Y-6.1164
X4.5756Y-6.1474
T5
X2.7847Y-4.083
X2.7847Y-4.1332
X2.7847Y-4.1834
X2.8349Y-4.083
X2.8349Y-4.1332
X2.8349Y-4.1834
X2.885Y-4.083
X2.885Y-4.1332
X2.885Y-4.1834
T6
X2.8433Y-5.048
X2.8433Y-5.1464
T8
X4.189Y-3.3543
X4.2874Y-3.3543
X4.3858Y-3.3543
T9
X2.4408Y-5.7534
X2.4408Y-5.8534
X2.5591Y-3.9774
X2.5591Y-4.0774
X2.5866Y-5.753
X2.5866Y-5.853
X2.6732Y-6.1234
X2.6732Y-6.2234
X2.7323Y-5.751
X2.7323Y-5.851
X2.7323Y-5.951
X2.8819Y-5.752
X2.8819Y-5.852
X2.8819Y-5.952
X3.0655Y-5.7913
X3.1655Y-5.7913
X3.2018Y-4.3403
X3.2018Y-4.4403
X3.3579Y-5.8815
X3.4157Y-3.3443
X3.4157Y-3.4903
X3.4157Y-3.6343
X3.4579Y-5.8815
X3.495Y-6.0291
X3.495Y-6.1291
X3.5157Y-3.3443
X3.5157Y-3.4903
X3.5157Y-3.6343
X4.3622Y-5.8691
X4.3622Y-5.9691
X4.3622Y-6.0691
X4.5376Y-5.7992
X4.5376Y-5.8992
X4.6376Y-5.7992
X4.6376Y-5.8992
X4.7376Y-5.7992
X4.7376Y-5.8992
X4.8376Y-5.7992
X4.8376Y-5.8992
X4.9376Y-5.7992
X4.9376Y-5.8992
X5.0376Y-5.7992
X5.0376Y-5.8992
T10
X2.4409Y-5.9882
X2.9331Y-6.2323
X3.0591Y-6.2327
X3.063Y-4.252
X3.3238Y-5.7468
X3.3661Y-6.2323
X3.5799Y-3.9465
X3.5843Y-4.1217
X3.7083Y-4.1189
X3.7177Y-3.337
X3.8394Y-4.451
X3.9644Y-4.451
X4.0039Y-5.7402
X4.0108Y-3.3382
X4.063Y-5.8543
X4.1024Y-5.9764
X4.1299Y-5.748
X4.1969Y-3.8268
X4.1969Y-5.8543
X4.2283Y-5.9803
X4.2441Y-6.1811
X4.252Y-5.7441
X4.3573Y-3.9488
X4.693Y-4.0483
X4.7859Y-3.3674
X4.8569Y-3.476
X4.8858Y-4.4685
X4.9222Y-3.3638
X5.174Y-6.0748
X5.2185Y-6.224
T6
G00X5.2343Y-3.3693
M15
G01X5.2107Y-3.3693
M16
G05
G00X5.2343Y-3.6945
M15
G01X5.2107Y-3.6945
M16
G05
G00X5.4686Y-3.3552
M15
G01X5.4449Y-3.3552
M16
G05
G00X5.4686Y-3.7087
M15
G01X5.4449Y-3.7087
M16
G05
T7
G00X3.8986Y-6.0886
M15
G01X3.8888Y-6.0886
M16
G05
G00X3.8986Y-6.2579
M15
G01X3.8888Y-6.2579
M16
G05
G00X4.0876Y-6.0886
M15
G01X4.0778Y-6.0886
M16
G05
G00X4.0876Y-6.2579
M15
G01X4.0778Y-6.2579
M16
G05
T9
G00X2.4763Y-5.0814
M15
G01X2.4763Y-5.1129
M16
G05
G00X5.3996Y-5.0814
M15
G01X5.3996Y-5.1129
M16
G05
T0
M30
