%TF.GenerationSoftware,KiCad,Pcbnew,7.0.6-7.0.6~ubuntu22.04.1*%
%TF.CreationDate,2023-08-18T16:08:42-04:00*%
%TF.ProjectId,robot,726f626f-742e-46b6-9963-61645f706362,rev?*%
%TF.SameCoordinates,Original*%
%TF.FileFunction,Other,Comment*%
%FSLAX46Y46*%
G04 Gerber Fmt 4.6, Leading zero omitted, Abs format (unit mm)*
G04 Created by KiCad (PCBNEW 7.0.6-7.0.6~ubuntu22.04.1) date 2023-08-18 16:08:42*
%MOMM*%
%LPD*%
G01*
G04 APERTURE LIST*
%ADD10C,0.100000*%
G04 APERTURE END LIST*
D10*
%TO.C,Q5*%
X88198400Y-124569100D02*
X87944400Y-124569100D01*
X88198400Y-120411100D02*
X87944400Y-120411100D01*
X88071400Y-124315100D02*
X88198400Y-124569100D01*
X88071400Y-124315100D02*
X88071400Y-125585100D01*
X88071400Y-124315100D02*
X87944400Y-124569100D01*
X88071400Y-120665100D02*
X88198400Y-120411100D01*
X88071400Y-120665100D02*
X88071400Y-119395100D01*
X88071400Y-120665100D02*
X87944400Y-120411100D01*
X85206401Y-117711100D02*
X85206401Y-117457100D01*
X84952401Y-124315100D02*
X84952401Y-117203100D01*
X84952401Y-117584100D02*
X86222401Y-117584100D01*
X84952401Y-117584100D02*
X85206401Y-117711100D01*
X84952401Y-117584100D02*
X85206401Y-117457100D01*
X82056411Y-126888100D02*
X82056411Y-126634100D01*
X81802411Y-126761100D02*
X83072411Y-126761100D01*
X81802411Y-126761100D02*
X82056411Y-126888100D01*
X81802411Y-126761100D02*
X82056411Y-126634100D01*
X81802411Y-123490100D02*
X81802411Y-127142100D01*
X81358401Y-123490100D02*
X78437402Y-123490100D01*
X81358401Y-122990100D02*
X78437402Y-122990100D01*
X81302411Y-126761100D02*
X81048411Y-126888100D01*
X81302411Y-126761100D02*
X81048411Y-126634100D01*
X81302411Y-126761100D02*
X80032411Y-126761100D01*
X81302411Y-123490100D02*
X81302411Y-127142100D01*
X81302401Y-124315100D02*
X88452400Y-124315100D01*
X81302401Y-124315100D02*
X81302401Y-117203100D01*
X81302401Y-120665100D02*
X88452400Y-120665100D01*
X81302401Y-117584100D02*
X81048401Y-117711100D01*
X81302401Y-117584100D02*
X81048401Y-117457100D01*
X81302401Y-117584100D02*
X80032401Y-117584100D01*
X81048411Y-126888100D02*
X81048411Y-126634100D01*
X81048401Y-117711100D02*
X81048401Y-117457100D01*
X78945402Y-123744100D02*
X78691402Y-123744100D01*
X78945402Y-122736100D02*
X78691402Y-122736100D01*
X78818402Y-123490100D02*
X78945402Y-123744100D01*
X78818402Y-123490100D02*
X78818402Y-124760100D01*
X78818402Y-123490100D02*
X78691402Y-123744100D01*
X78818402Y-122990100D02*
X78945402Y-122736100D01*
X78818402Y-122990100D02*
X78818402Y-121720100D01*
X78818402Y-122990100D02*
X78691402Y-122736100D01*
%TO.C,Q6*%
X72896500Y-132279000D02*
X72896500Y-132533000D01*
X68738500Y-132279000D02*
X68738500Y-132533000D01*
X72642500Y-132406000D02*
X72896500Y-132279000D01*
X72642500Y-132406000D02*
X73912500Y-132406000D01*
X72642500Y-132406000D02*
X72896500Y-132533000D01*
X68992500Y-132406000D02*
X68738500Y-132279000D01*
X68992500Y-132406000D02*
X67722500Y-132406000D01*
X68992500Y-132406000D02*
X68738500Y-132533000D01*
X66038500Y-135270999D02*
X65784500Y-135270999D01*
X72642500Y-135524999D02*
X65530500Y-135524999D01*
X65911500Y-135524999D02*
X65911500Y-134254999D01*
X65911500Y-135524999D02*
X66038500Y-135270999D01*
X65911500Y-135524999D02*
X65784500Y-135270999D01*
X75215500Y-138420989D02*
X74961500Y-138420989D01*
X75088500Y-138674989D02*
X75088500Y-137404989D01*
X75088500Y-138674989D02*
X75215500Y-138420989D01*
X75088500Y-138674989D02*
X74961500Y-138420989D01*
X71817500Y-138674989D02*
X75469500Y-138674989D01*
X71817500Y-139118999D02*
X71817500Y-142039998D01*
X71317500Y-139118999D02*
X71317500Y-142039998D01*
X75088500Y-139174989D02*
X75215500Y-139428989D01*
X75088500Y-139174989D02*
X74961500Y-139428989D01*
X75088500Y-139174989D02*
X75088500Y-140444989D01*
X71817500Y-139174989D02*
X75469500Y-139174989D01*
X72642500Y-139174999D02*
X72642500Y-132025000D01*
X72642500Y-139174999D02*
X65530500Y-139174999D01*
X68992500Y-139174999D02*
X68992500Y-132025000D01*
X65911500Y-139174999D02*
X66038500Y-139428999D01*
X65911500Y-139174999D02*
X65784500Y-139428999D01*
X65911500Y-139174999D02*
X65911500Y-140444999D01*
X75215500Y-139428989D02*
X74961500Y-139428989D01*
X66038500Y-139428999D02*
X65784500Y-139428999D01*
X72071500Y-141531998D02*
X72071500Y-141785998D01*
X71063500Y-141531998D02*
X71063500Y-141785998D01*
X71817500Y-141658998D02*
X72071500Y-141531998D01*
X71817500Y-141658998D02*
X73087500Y-141658998D01*
X71817500Y-141658998D02*
X72071500Y-141785998D01*
X71317500Y-141658998D02*
X71063500Y-141531998D01*
X71317500Y-141658998D02*
X70047500Y-141658998D01*
X71317500Y-141658998D02*
X71063500Y-141785998D01*
%TO.C,L3*%
X122518200Y-123611500D02*
X122772200Y-123611500D01*
X122518200Y-129301100D02*
X122772200Y-129301100D01*
X122645200Y-123357500D02*
X122518200Y-123611500D01*
X122645200Y-123357500D02*
X122645200Y-129555100D01*
X122645200Y-123357500D02*
X122772200Y-123611500D01*
X122645200Y-129555100D02*
X122518200Y-129301100D01*
X122645200Y-129555100D02*
X122772200Y-129301100D01*
X126201200Y-118277500D02*
X126455200Y-118150500D01*
X126201200Y-118277500D02*
X126455200Y-118404500D01*
X126201200Y-118277500D02*
X132398800Y-118277500D01*
X126201200Y-123357500D02*
X126201200Y-117896500D01*
X126455200Y-118150500D02*
X126455200Y-118404500D01*
X132144800Y-118150500D02*
X132144800Y-118404500D01*
X132398800Y-118277500D02*
X132144800Y-118150500D01*
X132398800Y-118277500D02*
X132144800Y-118404500D01*
X132398800Y-123357500D02*
X132398800Y-117896500D01*
X132652800Y-123357500D02*
X122264200Y-123357500D01*
X132652800Y-129555100D02*
X122264200Y-129555100D01*
%TO.C,L1*%
X116897692Y-120475031D02*
X116897692Y-120729031D01*
X111208092Y-120475031D02*
X111208092Y-120729031D01*
X117151692Y-120602031D02*
X116897692Y-120475031D01*
X117151692Y-120602031D02*
X110954092Y-120602031D01*
X117151692Y-120602031D02*
X116897692Y-120729031D01*
X110954092Y-120602031D02*
X111208092Y-120475031D01*
X110954092Y-120602031D02*
X111208092Y-120729031D01*
X122231692Y-124158031D02*
X122358692Y-124412031D01*
X122231692Y-124158031D02*
X122104692Y-124412031D01*
X122231692Y-124158031D02*
X122231692Y-130355631D01*
X117151692Y-124158031D02*
X122612692Y-124158031D01*
X122358692Y-124412031D02*
X122104692Y-124412031D01*
X122358692Y-130101631D02*
X122104692Y-130101631D01*
X122231692Y-130355631D02*
X122358692Y-130101631D01*
X122231692Y-130355631D02*
X122104692Y-130101631D01*
X117151692Y-130355631D02*
X122612692Y-130355631D01*
X117151692Y-130609631D02*
X117151692Y-120221031D01*
X110954092Y-130609631D02*
X110954092Y-120221031D01*
%TO.C,U13*%
X90932407Y-113529608D02*
X91059403Y-113783601D01*
X90932408Y-114437593D02*
X91059403Y-114183600D01*
X90932408Y-114437593D02*
X91186399Y-114437592D01*
X91059399Y-113167600D02*
X91059403Y-114183600D01*
X91059406Y-114799601D02*
X91059403Y-113783601D01*
X91186398Y-113529608D02*
X90932407Y-113529608D01*
X91186398Y-113529608D02*
X91059403Y-113783601D01*
X91186399Y-114437592D02*
X91059403Y-114183600D01*
X92129941Y-117771525D02*
X96729949Y-117772023D01*
X92130198Y-115483101D02*
X92129898Y-118152525D01*
X92383920Y-117898548D02*
X92129941Y-117771525D01*
X92383920Y-117898548D02*
X92383948Y-117644557D01*
X92383948Y-117644557D02*
X92129941Y-117771525D01*
X92430199Y-112183600D02*
X92430193Y-110477339D01*
X92480199Y-113783601D02*
X90678403Y-113783601D01*
X92480199Y-114183600D02*
X90678403Y-114183600D01*
X92684187Y-110731344D02*
X92430194Y-110858339D01*
X92684187Y-110985335D02*
X92430194Y-110858339D01*
X92684187Y-110985335D02*
X92684187Y-110731344D01*
X96176201Y-110985334D02*
X96430194Y-110858339D01*
X96176202Y-110731343D02*
X96176201Y-110985334D01*
X96176202Y-110731343D02*
X96430194Y-110858339D01*
X96430194Y-110858339D02*
X92430194Y-110858339D01*
X96430199Y-112183600D02*
X96430193Y-110477339D01*
X96430199Y-112183600D02*
X98112018Y-112183600D01*
X96430199Y-116183600D02*
X98112018Y-116183600D01*
X96475942Y-117898991D02*
X96729949Y-117772023D01*
X96475970Y-117645000D02*
X96475942Y-117898991D01*
X96475970Y-117645000D02*
X96729949Y-117772023D01*
X96730205Y-115483600D02*
X96729906Y-118153023D01*
X97604022Y-115929607D02*
X97731018Y-116183600D01*
X97604023Y-112437593D02*
X97731018Y-112183600D01*
X97604023Y-112437593D02*
X97858014Y-112437593D01*
X97731018Y-116183600D02*
X97731018Y-112183600D01*
X97858013Y-115929607D02*
X97604022Y-115929607D01*
X97858013Y-115929607D02*
X97731018Y-116183600D01*
X97858014Y-112437593D02*
X97731018Y-112183600D01*
%TD*%
M02*
