%TF.GenerationSoftware,KiCad,Pcbnew,7.0.6-7.0.6~ubuntu22.04.1*%
%TF.CreationDate,2023-10-05T15:27:38-04:00*%
%TF.ProjectId,robot,726f626f-742e-46b6-9963-61645f706362,rev?*%
%TF.SameCoordinates,PX3938700PY9896800*%
%TF.FileFunction,Legend,Top*%
%TF.FilePolarity,Positive*%
%FSLAX46Y46*%
G04 Gerber Fmt 4.6, Leading zero omitted, Abs format (unit mm)*
G04 Created by KiCad (PCBNEW 7.0.6-7.0.6~ubuntu22.04.1) date 2023-10-05 15:27:38*
%MOMM*%
%LPD*%
G01*
G04 APERTURE LIST*
%ADD10C,0.150000*%
%ADD11C,0.200000*%
%ADD12C,0.120000*%
%ADD13C,0.160000*%
%ADD14C,0.127000*%
%ADD15C,0.110000*%
%ADD16C,0.100000*%
%ADD17C,0.239605*%
%ADD18C,0.250000*%
%ADD19C,0.152400*%
G04 APERTURE END LIST*
D10*
X40500026Y44527132D02*
X40738121Y44527132D01*
X40642883Y44289037D02*
X40738121Y44527132D01*
X40738121Y44527132D02*
X40642883Y44765227D01*
X40928597Y44384275D02*
X40738121Y44527132D01*
X40738121Y44527132D02*
X40928597Y44669989D01*
D11*
%TO.C,J1*%
X73057420Y59739801D02*
X71500000Y59739801D01*
X73057420Y61060002D02*
X73057420Y59739801D01*
X73054880Y67009281D02*
X73054880Y63059281D01*
X65100000Y59737261D02*
X63534960Y59737261D01*
X63534960Y61060002D02*
X63534960Y59737261D01*
X63532420Y67009281D02*
X63532420Y63059281D01*
D12*
%TO.C,R85*%
X27235940Y14621435D02*
X26761424Y14621435D01*
X27235940Y15666435D02*
X26761424Y15666435D01*
%TO.C,C101*%
X33709420Y9710000D02*
X33990580Y9710000D01*
X33709420Y8690000D02*
X33990580Y8690000D01*
%TO.C,R9*%
X70346359Y40080000D02*
X70653641Y40080000D01*
X70346359Y39320000D02*
X70653641Y39320000D01*
%TO.C,D3*%
X27441666Y68890000D02*
X28341666Y68890000D01*
D10*
%TO.C,TP3*%
X13515000Y11792000D02*
X13515000Y12808000D01*
X14785000Y12808000D02*
X14785000Y11792000D01*
%TO.C,TP9*%
X67765000Y46692000D02*
X67765000Y47708000D01*
X69035000Y47708000D02*
X69035000Y46692000D01*
%TO.C,TP16*%
X1515000Y35292000D02*
X1515000Y36308000D01*
X2785000Y36308000D02*
X2785000Y35292000D01*
D12*
%TO.C,R31*%
X27388630Y17421213D02*
X27388630Y17895729D01*
X28433630Y17421213D02*
X28433630Y17895729D01*
%TO.C,C78*%
X46279200Y41127780D02*
X46279200Y40846620D01*
X45259200Y41127780D02*
X45259200Y40846620D01*
%TO.C,C34*%
X46740000Y27936551D02*
X46740000Y28217711D01*
X47760000Y27936551D02*
X47760000Y28217711D01*
%TO.C,C10*%
X14283600Y41622264D02*
X14283600Y41837936D01*
X15003600Y41622264D02*
X15003600Y41837936D01*
%TO.C,R79*%
X29637258Y50827500D02*
X29162742Y50827500D01*
X29637258Y51872500D02*
X29162742Y51872500D01*
%TO.C,U4*%
X48790000Y52019800D02*
X45390000Y52019800D01*
X45390000Y52019800D02*
X45390000Y50069800D01*
X45390000Y50069800D02*
X48790000Y50069800D01*
X48790000Y50069800D02*
X48790000Y52019800D01*
D13*
X48970000Y49944800D02*
G75*
G03*
X48970000Y49944800I-80000J0D01*
G01*
D12*
%TO.C,C61*%
X22219000Y51681136D02*
X22219000Y51465464D01*
X21499000Y51681136D02*
X21499000Y51465464D01*
D14*
%TO.C,U7*%
X24785000Y65030000D02*
X24785000Y66630000D01*
X27835000Y66630000D02*
X27835000Y65030000D01*
D12*
%TO.C,D4*%
X51410000Y64550000D02*
X51410000Y66550000D01*
X51410000Y64550000D02*
X47550000Y64550000D01*
X51410000Y66550000D02*
X47550000Y66550000D01*
%TO.C,U6*%
X44009892Y31609169D02*
X44009892Y32116169D01*
X44716892Y31609169D02*
X44009892Y31609169D01*
X46370892Y33877169D02*
X47077892Y33877169D01*
X46370892Y33877169D02*
X47077892Y33877169D01*
X46370892Y33877169D02*
X47077892Y33877169D01*
X46370892Y31609169D02*
X47077892Y31609169D01*
X47077892Y33877169D02*
X47077892Y33370169D01*
X47077892Y33877169D02*
X47077892Y33370169D01*
X47077892Y33877169D02*
X47077892Y33370169D01*
X47077892Y31609169D02*
X47077892Y32116169D01*
D11*
X44129892Y33807169D02*
G75*
G03*
X44129892Y33807169I-50000J0D01*
G01*
D12*
%TO.C,R62*%
X60249634Y44563669D02*
X60724150Y44563669D01*
X60249634Y43518669D02*
X60724150Y43518669D01*
%TO.C,C6*%
X11337200Y41622264D02*
X11337200Y41837936D01*
X12057200Y41622264D02*
X12057200Y41837936D01*
%TO.C,C35*%
X23070365Y34216100D02*
X23286037Y34216100D01*
X23070365Y33496100D02*
X23286037Y33496100D01*
%TO.C,C66*%
X26560000Y43727836D02*
X26560000Y43512164D01*
X25840000Y43727836D02*
X25840000Y43512164D01*
%TO.C,R30*%
X34698872Y15080971D02*
X35173388Y15080971D01*
X34698872Y14035971D02*
X35173388Y14035971D01*
%TO.C,R25*%
X27948658Y37340700D02*
X27474142Y37340700D01*
X27948658Y38385700D02*
X27474142Y38385700D01*
%TO.C,C56*%
X19710000Y44140580D02*
X19710000Y43859420D01*
X18690000Y44140580D02*
X18690000Y43859420D01*
%TO.C,R22*%
X18267142Y38036200D02*
X18741658Y38036200D01*
X18267142Y36991200D02*
X18741658Y36991200D01*
%TO.C,C32*%
X43151892Y27969295D02*
X43151892Y28184967D01*
X43871892Y27969295D02*
X43871892Y28184967D01*
%TO.C,C36*%
X18396564Y36349700D02*
X18612236Y36349700D01*
X18396564Y35629700D02*
X18612236Y35629700D01*
D10*
%TO.C,TP8*%
X76158000Y63215000D02*
X75142000Y63215000D01*
X75142000Y64485000D02*
X76158000Y64485000D01*
D12*
%TO.C,C130*%
X47410000Y58715580D02*
X47410000Y58434420D01*
X46390000Y58715580D02*
X46390000Y58434420D01*
%TO.C,R100*%
X53920000Y65636359D02*
X53920000Y65943641D01*
X54680000Y65636359D02*
X54680000Y65943641D01*
%TO.C,C50*%
X15440000Y10192164D02*
X15440000Y10407836D01*
X16160000Y10192164D02*
X16160000Y10407836D01*
%TO.C,U2*%
X5564193Y46592569D02*
X5824193Y46592569D01*
X5824193Y46592569D02*
X5824193Y44917569D01*
X11014193Y46592569D02*
X10754193Y46592569D01*
X5564193Y49317569D02*
X5564193Y46592569D01*
X5564193Y49317569D02*
X5564193Y52042569D01*
X11014193Y49317569D02*
X11014193Y46592569D01*
X11014193Y49317569D02*
X11014193Y52042569D01*
X5564193Y52042569D02*
X5824193Y52042569D01*
X11014193Y52042569D02*
X10754193Y52042569D01*
%TO.C,R84*%
X31677500Y33562742D02*
X31677500Y34037258D01*
X32722500Y33562742D02*
X32722500Y34037258D01*
%TO.C,C38*%
X25340000Y41392164D02*
X25340000Y41607836D01*
X26060000Y41392164D02*
X26060000Y41607836D01*
%TO.C,R38*%
X9077500Y1312742D02*
X9077500Y1787258D01*
X10122500Y1312742D02*
X10122500Y1787258D01*
%TO.C,R2*%
X5240000Y54133641D02*
X5240000Y53826359D01*
X4480000Y54133641D02*
X4480000Y53826359D01*
%TO.C,Q3*%
X61580000Y55987500D02*
X61580000Y57662500D01*
X61580000Y55987500D02*
X61580000Y55337500D01*
X58460000Y55987500D02*
X58460000Y56637500D01*
X58460000Y55987500D02*
X58460000Y55337500D01*
%TO.C,R33*%
X46880000Y1903641D02*
X46880000Y1596359D01*
X46120000Y1903641D02*
X46120000Y1596359D01*
%TO.C,C27*%
X47986892Y37400589D02*
X47986892Y37681749D01*
X49006892Y37400589D02*
X49006892Y37681749D01*
%TO.C,R11*%
X33890000Y11772936D02*
X33890000Y12227064D01*
X35360000Y11772936D02*
X35360000Y12227064D01*
%TO.C,C94*%
X70322164Y41110000D02*
X70537836Y41110000D01*
X70322164Y40390000D02*
X70537836Y40390000D01*
%TO.C,R71*%
X52657064Y25565000D02*
X52202936Y25565000D01*
X52657064Y27035000D02*
X52202936Y27035000D01*
%TO.C,C54*%
X4333236Y5169600D02*
X4117564Y5169600D01*
X4333236Y5889600D02*
X4117564Y5889600D01*
%TO.C,R105*%
X34872500Y62162258D02*
X34872500Y61687742D01*
X33827500Y62162258D02*
X33827500Y61687742D01*
%TO.C,C8*%
X13318400Y41622264D02*
X13318400Y41837936D01*
X14038400Y41622264D02*
X14038400Y41837936D01*
D10*
%TO.C,TP7*%
X865000Y19892000D02*
X865000Y20908000D01*
X2135000Y20908000D02*
X2135000Y19892000D01*
D12*
%TO.C,C62*%
X21520400Y54491864D02*
X21520400Y54707536D01*
X22240400Y54491864D02*
X22240400Y54707536D01*
%TO.C,C60*%
X19490564Y51171300D02*
X19706236Y51171300D01*
X19490564Y50451300D02*
X19706236Y50451300D01*
%TO.C,Q5*%
X24952401Y35684900D02*
X24952401Y36037205D01*
X24952401Y38982595D02*
X24952401Y39334900D01*
X24952401Y39334900D02*
X24350096Y39334900D01*
X24350096Y35684900D02*
X24952401Y35684900D01*
X23404708Y39334900D02*
X22850094Y39334900D01*
X22850094Y35684900D02*
X23404708Y35684900D01*
X21904706Y39334900D02*
X21302401Y39334900D01*
X21302401Y35684900D02*
X21904706Y35684900D01*
X21302401Y36037205D02*
X21302401Y35684900D01*
X21302401Y39334900D02*
X21302401Y38982595D01*
D15*
X24332401Y35359900D02*
G75*
G03*
X24332401Y35359900I-55000J0D01*
G01*
D16*
X20679458Y37819399D02*
X20425458Y37819399D01*
X20425458Y38200399D01*
X20679458Y38200399D01*
X20679458Y37819399D01*
G36*
X20679458Y37819399D02*
G01*
X20425458Y37819399D01*
X20425458Y38200399D01*
X20679458Y38200399D01*
X20679458Y37819399D01*
G37*
D12*
%TO.C,R5*%
X14170000Y29293641D02*
X14170000Y28986359D01*
X13410000Y29293641D02*
X13410000Y28986359D01*
%TO.C,C95*%
X71092164Y38760000D02*
X71307836Y38760000D01*
X71092164Y38040000D02*
X71307836Y38040000D01*
%TO.C,D2*%
X25025000Y68890000D02*
X25925000Y68890000D01*
%TO.C,Q7*%
X19087500Y60110000D02*
X17412500Y60110000D01*
X19087500Y60110000D02*
X19737500Y60110000D01*
X19087500Y56990000D02*
X18437500Y56990000D01*
X19087500Y56990000D02*
X19737500Y56990000D01*
%TO.C,C107*%
X29938748Y56910000D02*
X31361252Y56910000D01*
X29938748Y55090000D02*
X31361252Y55090000D01*
D14*
%TO.C,TP39*%
X24010000Y67460000D02*
G75*
G03*
X24010000Y67460000I-1270000J0D01*
G01*
D12*
%TO.C,R45*%
X19836500Y52846842D02*
X19836500Y53321358D01*
X20881500Y52846842D02*
X20881500Y53321358D01*
%TO.C,R10*%
X23622707Y30164873D02*
X23622707Y30639389D01*
X24667707Y30164873D02*
X24667707Y30639389D01*
%TO.C,R77*%
X26877064Y54415000D02*
X26422936Y54415000D01*
X26877064Y55885000D02*
X26422936Y55885000D01*
%TO.C,R24*%
X27522500Y41362258D02*
X27522500Y40887742D01*
X26477500Y41362258D02*
X26477500Y40887742D01*
%TO.C,R64*%
X60249634Y47613669D02*
X60724150Y47613669D01*
X60249634Y46568669D02*
X60724150Y46568669D01*
D14*
%TO.C,U16*%
X28395000Y1655000D02*
X28395000Y2152500D01*
X28395000Y1655000D02*
X28022500Y1655000D01*
X28395000Y3645000D02*
X28395000Y3147500D01*
X28395000Y3645000D02*
X28022500Y3645000D01*
X26905000Y1655000D02*
X27277500Y1655000D01*
X26905000Y1655000D02*
X26905000Y2152500D01*
X26905000Y3645000D02*
X27277500Y3645000D01*
X26905000Y3645000D02*
X26905000Y3147500D01*
D10*
X28705000Y2150000D02*
G75*
G03*
X28705000Y2150000I-75000J0D01*
G01*
D12*
%TO.C,C47*%
X11374400Y9234564D02*
X11374400Y9450236D01*
X12094400Y9234564D02*
X12094400Y9450236D01*
D10*
%TO.C,TP11*%
X3285000Y25508000D02*
X3285000Y24492000D01*
X2015000Y24492000D02*
X2015000Y25508000D01*
D12*
%TO.C,C109*%
X56640000Y61938748D02*
X56640000Y63361252D01*
X58460000Y61938748D02*
X58460000Y63361252D01*
D10*
%TO.C,TP2*%
X1515000Y41592000D02*
X1515000Y42608000D01*
X2785000Y42608000D02*
X2785000Y41592000D01*
D12*
%TO.C,R46*%
X23534400Y46367541D02*
X23534400Y46060259D01*
X22774400Y46367541D02*
X22774400Y46060259D01*
%TO.C,C111*%
X60107836Y61440000D02*
X59892164Y61440000D01*
X60107836Y62160000D02*
X59892164Y62160000D01*
%TO.C,C2*%
X10240000Y29597836D02*
X10240000Y29382164D01*
X9520000Y29597836D02*
X9520000Y29382164D01*
D10*
%TO.C,TP6*%
X7465000Y1942000D02*
X7465000Y2958000D01*
X8735000Y2958000D02*
X8735000Y1942000D01*
D14*
%TO.C,S3*%
X73600000Y57500000D02*
X73600000Y56320000D01*
X70000000Y57500000D02*
X73600000Y57500000D01*
X70000000Y56320000D02*
X70000000Y57500000D01*
X73600000Y54680000D02*
X73600000Y53820000D01*
X70000000Y53820000D02*
X70000000Y54680000D01*
X73600000Y52180000D02*
X73600000Y51320000D01*
X70000000Y51320000D02*
X70000000Y52180000D01*
X73600000Y49680000D02*
X73600000Y48500000D01*
X73600000Y48500000D02*
X70000000Y48500000D01*
X70000000Y48500000D02*
X70000000Y49680000D01*
D11*
X69400000Y56500000D02*
G75*
G03*
X69400000Y56500000I-100000J0D01*
G01*
D12*
%TO.C,C53*%
X4307836Y3569400D02*
X4092164Y3569400D01*
X4307836Y4289400D02*
X4092164Y4289400D01*
D10*
%TO.C,TP22*%
X77292000Y69235000D02*
X78308000Y69235000D01*
X78308000Y67965000D02*
X77292000Y67965000D01*
D12*
%TO.C,R92*%
X63437258Y41777500D02*
X62962742Y41777500D01*
X63437258Y42822500D02*
X62962742Y42822500D01*
%TO.C,R70*%
X45331892Y36048233D02*
X45331892Y35594105D01*
X43861892Y36048233D02*
X43861892Y35594105D01*
D10*
%TO.C,TP5*%
X20365000Y12342000D02*
X20365000Y13358000D01*
X21635000Y13358000D02*
X21635000Y12342000D01*
D12*
%TO.C,C43*%
X34358102Y19018471D02*
X34639262Y19018471D01*
X34358102Y17998471D02*
X34639262Y17998471D01*
%TO.C,C89*%
X48787500Y22572500D02*
X49575000Y22572500D01*
X49181250Y22966250D02*
X49181250Y22178750D01*
X49815000Y23070563D02*
X49815000Y21785000D01*
X49815000Y23070563D02*
X50879437Y24135000D01*
X49815000Y18379437D02*
X49815000Y19665000D01*
X49815000Y18379437D02*
X50879437Y17315000D01*
X50879437Y24135000D02*
X56635000Y24135000D01*
X50879437Y17315000D02*
X56635000Y17315000D01*
X52513748Y21635000D02*
X53936252Y21635000D01*
X52513748Y19815000D02*
X53936252Y19815000D01*
X56635000Y24135000D02*
X56635000Y21785000D01*
X56635000Y17315000D02*
X56635000Y19665000D01*
%TO.C,R81*%
X32877500Y50462742D02*
X32877500Y50937258D01*
X33922500Y50462742D02*
X33922500Y50937258D01*
%TO.C,C41*%
X30707836Y19640000D02*
X30492164Y19640000D01*
X30707836Y20360000D02*
X30492164Y20360000D01*
%TO.C,R65*%
X18087258Y10627500D02*
X17612742Y10627500D01*
X18087258Y11672500D02*
X17612742Y11672500D01*
%TO.C,R68*%
X42377064Y53615000D02*
X41922936Y53615000D01*
X42377064Y55085000D02*
X41922936Y55085000D01*
D10*
%TO.C,TP19*%
X39308000Y27565000D02*
X38292000Y27565000D01*
X38292000Y28835000D02*
X39308000Y28835000D01*
D12*
%TO.C,R76*%
X46937258Y44777500D02*
X46462742Y44777500D01*
X46937258Y45822500D02*
X46462742Y45822500D01*
%TO.C,R37*%
X11672500Y1787258D02*
X11672500Y1312742D01*
X10627500Y1787258D02*
X10627500Y1312742D01*
%TO.C,C69*%
X36314199Y40742636D02*
X36314199Y40526964D01*
X35594199Y40742636D02*
X35594199Y40526964D01*
%TO.C,R18*%
X49996558Y47555500D02*
X49522042Y47555500D01*
X49996558Y48600500D02*
X49522042Y48600500D01*
%TO.C,R44*%
X19625464Y54822900D02*
X19171336Y54822900D01*
X19625464Y56292900D02*
X19171336Y56292900D01*
%TO.C,Q1*%
X50191100Y44003400D02*
X51866100Y44003400D01*
X50191100Y44003400D02*
X49541100Y44003400D01*
X50191100Y47123400D02*
X50841100Y47123400D01*
X50191100Y47123400D02*
X49541100Y47123400D01*
%TO.C,C44*%
X14077500Y21527836D02*
X14077500Y21312164D01*
X13357500Y21527836D02*
X13357500Y21312164D01*
D14*
%TO.C,U9*%
X32211130Y15808471D02*
X31711130Y15808471D01*
X32211130Y18808471D02*
X31711130Y18808471D01*
X29211130Y15808471D02*
X29711130Y15808471D01*
X29211130Y18808471D02*
X29711130Y18808471D01*
D10*
%TO.C,TP23*%
X75192000Y69235000D02*
X76208000Y69235000D01*
X76208000Y67965000D02*
X75192000Y67965000D01*
D12*
%TO.C,R57*%
X31812742Y11572500D02*
X32287258Y11572500D01*
X31812742Y10527500D02*
X32287258Y10527500D01*
%TO.C,C12*%
X17860564Y39194500D02*
X18076236Y39194500D01*
X17860564Y38474500D02*
X18076236Y38474500D01*
%TO.C,R103*%
X37872500Y62162258D02*
X37872500Y61687742D01*
X36827500Y62162258D02*
X36827500Y61687742D01*
%TO.C,C25*%
X42190580Y36390000D02*
X41909420Y36390000D01*
X42190580Y37410000D02*
X41909420Y37410000D01*
D10*
%TO.C,TP20*%
X77492000Y66735000D02*
X78508000Y66735000D01*
X78508000Y65465000D02*
X77492000Y65465000D01*
D12*
%TO.C,U25*%
X64550000Y46100000D02*
X64550000Y46950000D01*
X66950000Y46100000D02*
X66950000Y46349999D01*
X64550000Y47950001D02*
X64550000Y48200000D01*
X66950000Y47950001D02*
X66950000Y48200000D01*
%TO.C,R78*%
X26864564Y52490000D02*
X26410436Y52490000D01*
X26864564Y53960000D02*
X26410436Y53960000D01*
D14*
%TO.C,TP30*%
X58070000Y38429505D02*
G75*
G03*
X58070000Y38429505I-1270000J0D01*
G01*
D12*
%TO.C,R101*%
X52530000Y65403641D02*
X52530000Y65096359D01*
X51770000Y65403641D02*
X51770000Y65096359D01*
%TO.C,C103*%
X57034056Y50921169D02*
X57249728Y50921169D01*
X57034056Y50201169D02*
X57249728Y50201169D01*
%TO.C,C108*%
X29938748Y59210000D02*
X31361252Y59210000D01*
X29938748Y57390000D02*
X31361252Y57390000D01*
%TO.C,R69*%
X47331892Y36053233D02*
X47331892Y35599105D01*
X45861892Y36053233D02*
X45861892Y35599105D01*
%TO.C,R16*%
X46946258Y47819700D02*
X46471742Y47819700D01*
X46946258Y48864700D02*
X46471742Y48864700D01*
%TO.C,R74*%
X24627064Y765000D02*
X24172936Y765000D01*
X24627064Y2235000D02*
X24172936Y2235000D01*
%TO.C,Q4*%
X56342500Y52890000D02*
X58017500Y52890000D01*
X56342500Y52890000D02*
X55692500Y52890000D01*
X56342500Y56010000D02*
X56992500Y56010000D01*
X56342500Y56010000D02*
X55692500Y56010000D01*
%TO.C,R34*%
X3933342Y1422500D02*
X4407858Y1422500D01*
X3933342Y377500D02*
X4407858Y377500D01*
%TO.C,R13*%
X23437258Y6277500D02*
X22962742Y6277500D01*
X23437258Y7322500D02*
X22962742Y7322500D01*
%TO.C,R43*%
X18313900Y52846842D02*
X18313900Y53321358D01*
X19358900Y52846842D02*
X19358900Y53321358D01*
%TO.C,C72*%
X29857836Y46340000D02*
X29642164Y46340000D01*
X29857836Y47060000D02*
X29642164Y47060000D01*
%TO.C,C63*%
X21540000Y56372164D02*
X21540000Y56587836D01*
X22260000Y56372164D02*
X22260000Y56587836D01*
%TO.C,C57*%
X15602636Y44364400D02*
X15386964Y44364400D01*
X15602636Y45084400D02*
X15386964Y45084400D01*
%TO.C,C91*%
X50110000Y28011252D02*
X50110000Y26588748D01*
X48290000Y28011252D02*
X48290000Y26588748D01*
%TO.C,C28*%
X40985472Y30074169D02*
X40704312Y30074169D01*
X40985472Y31094169D02*
X40704312Y31094169D01*
%TO.C,C83*%
X54410000Y40961252D02*
X54410000Y39538748D01*
X52590000Y40961252D02*
X52590000Y39538748D01*
%TO.C,R7*%
X31446359Y29180000D02*
X31753641Y29180000D01*
X31446359Y28420000D02*
X31753641Y28420000D01*
%TO.C,C79*%
X29810000Y44611252D02*
X29810000Y43188748D01*
X27990000Y44611252D02*
X27990000Y43188748D01*
%TO.C,C131*%
X45910000Y58461252D02*
X45910000Y57038748D01*
X43190000Y58461252D02*
X43190000Y57038748D01*
%TO.C,C26*%
X40985472Y34646169D02*
X40704312Y34646169D01*
X40985472Y35666169D02*
X40704312Y35666169D01*
%TO.C,R42*%
X15341159Y46628400D02*
X15648441Y46628400D01*
X15341159Y45868400D02*
X15648441Y45868400D01*
%TO.C,C22*%
X47792164Y53260000D02*
X48007836Y53260000D01*
X47792164Y52540000D02*
X48007836Y52540000D01*
%TO.C,C9*%
X12353200Y41622264D02*
X12353200Y41837936D01*
X13073200Y41622264D02*
X13073200Y41837936D01*
%TO.C,R4*%
X18150041Y39447131D02*
X17842759Y39447131D01*
X18150041Y40207131D02*
X17842759Y40207131D01*
%TO.C,C90*%
X30862500Y24847500D02*
X31650000Y24847500D01*
X31256250Y25241250D02*
X31256250Y24453750D01*
X31890000Y25345563D02*
X31890000Y24060000D01*
X31890000Y25345563D02*
X32954437Y26410000D01*
X31890000Y20654437D02*
X31890000Y21940000D01*
X31890000Y20654437D02*
X32954437Y19590000D01*
X32954437Y26410000D02*
X38710000Y26410000D01*
X32954437Y19590000D02*
X38710000Y19590000D01*
X34588748Y23910000D02*
X36011252Y23910000D01*
X34588748Y22090000D02*
X36011252Y22090000D01*
X38710000Y26410000D02*
X38710000Y24060000D01*
X38710000Y19590000D02*
X38710000Y21940000D01*
%TO.C,C15*%
X8110000Y41192164D02*
X8110000Y41407836D01*
X8830000Y41192164D02*
X8830000Y41407836D01*
%TO.C,C106*%
X29963748Y54560000D02*
X31386252Y54560000D01*
X29963748Y52740000D02*
X31386252Y52740000D01*
%TO.C,C58*%
X15602636Y47412400D02*
X15386964Y47412400D01*
X15602636Y48132400D02*
X15386964Y48132400D01*
%TO.C,R60*%
X57139392Y41253911D02*
X57139392Y41728427D01*
X58184392Y41253911D02*
X58184392Y41728427D01*
%TO.C,R32*%
X48405000Y1903641D02*
X48405000Y1596359D01*
X47645000Y1903641D02*
X47645000Y1596359D01*
D10*
%TO.C,TP27*%
X21308000Y40565000D02*
X20292000Y40565000D01*
X20292000Y41835000D02*
X21308000Y41835000D01*
%TO.C,TP15*%
X77492000Y64485000D02*
X78508000Y64485000D01*
X78508000Y63215000D02*
X77492000Y63215000D01*
D12*
%TO.C,C97*%
X32633993Y2750649D02*
X32633993Y2469489D01*
X31613993Y2750649D02*
X31613993Y2469489D01*
%TO.C,C136*%
X48110000Y61720580D02*
X48110000Y61439420D01*
X47090000Y61720580D02*
X47090000Y61439420D01*
D14*
%TO.C,TP40*%
X76820000Y41100000D02*
G75*
G03*
X76820000Y41100000I-1270000J0D01*
G01*
D12*
%TO.C,R19*%
X36258392Y37090911D02*
X36258392Y37565427D01*
X37303392Y37090911D02*
X37303392Y37565427D01*
%TO.C,C74*%
X48187500Y18902500D02*
X47400000Y18902500D01*
X47793750Y18508750D02*
X47793750Y19296250D01*
X47160000Y18404437D02*
X47160000Y19690000D01*
X47160000Y18404437D02*
X46095563Y17340000D01*
X47160000Y23095563D02*
X47160000Y21810000D01*
X47160000Y23095563D02*
X46095563Y24160000D01*
X46095563Y17340000D02*
X40340000Y17340000D01*
X46095563Y24160000D02*
X40340000Y24160000D01*
X44461252Y19840000D02*
X43038748Y19840000D01*
X44461252Y21660000D02*
X43038748Y21660000D01*
X40340000Y17340000D02*
X40340000Y19690000D01*
X40340000Y24160000D02*
X40340000Y21810000D01*
%TO.C,C84*%
X72460000Y39957836D02*
X72460000Y39742164D01*
X71740000Y39957836D02*
X71740000Y39742164D01*
%TO.C,R3*%
X18148848Y40447131D02*
X17841566Y40447131D01*
X18148848Y41207131D02*
X17841566Y41207131D01*
%TO.C,D1*%
X32275000Y68890000D02*
X33175000Y68890000D01*
%TO.C,U18*%
D17*
X52937694Y47711169D02*
G75*
G03*
X52937694Y47711169I-119802J0D01*
G01*
D12*
%TO.C,U11*%
X10062400Y6318400D02*
X10062400Y6042483D01*
X10062400Y5698717D02*
X10062400Y5542483D01*
X10062400Y5198717D02*
X10062400Y5042483D01*
X10062400Y4698717D02*
X10062400Y4542483D01*
X10062400Y4198717D02*
X10062400Y4042483D01*
X10062400Y3698717D02*
X10062400Y3422800D01*
X10062400Y3422800D02*
X10384704Y3422800D01*
X10384704Y6318400D02*
X10062400Y6318400D01*
X10592896Y3422800D02*
X10884704Y3422800D01*
X10884704Y6318400D02*
X10592896Y6318400D01*
X11092896Y3422800D02*
X11384704Y3422800D01*
X11384704Y6318400D02*
X11092896Y6318400D01*
X11592896Y3422800D02*
X11884704Y3422800D01*
X11884704Y6318400D02*
X11592896Y6318400D01*
X12092896Y3422800D02*
X12384704Y3422800D01*
X12384704Y6318400D02*
X12092896Y6318400D01*
X12592896Y3422800D02*
X12884704Y3422800D01*
X12884704Y6318400D02*
X12592896Y6318400D01*
X13092896Y3422800D02*
X13415200Y3422800D01*
X13415200Y6318400D02*
X13092896Y6318400D01*
X13415200Y6042484D02*
X13415200Y6318400D01*
X13415200Y5542484D02*
X13415200Y5698716D01*
X13415200Y5042484D02*
X13415200Y5198716D01*
X13415200Y4542484D02*
X13415200Y4698716D01*
X13415200Y4042484D02*
X13415200Y4198716D01*
X13415200Y3422800D02*
X13415200Y3698716D01*
D10*
%TO.C,TP14*%
X44508000Y765000D02*
X43492000Y765000D01*
X43492000Y2035000D02*
X44508000Y2035000D01*
D12*
%TO.C,C21*%
X50962164Y49860000D02*
X51177836Y49860000D01*
X50962164Y49140000D02*
X51177836Y49140000D01*
D10*
%TO.C,Q2*%
X24705207Y51722131D02*
X24705207Y48132131D01*
X24545207Y51722131D02*
X24705207Y51722131D01*
X22885207Y51722131D02*
X23045207Y51722131D01*
X22885207Y51722131D02*
X22885207Y48132131D01*
X24545207Y48132131D02*
X24705207Y48132131D01*
X22885207Y48132131D02*
X23045207Y48132131D01*
D18*
X23670207Y52322131D02*
G75*
G03*
X23670207Y52322131I-125000J0D01*
G01*
D12*
%TO.C,R49*%
X32311099Y50930458D02*
X32311099Y50455942D01*
X31266099Y50930458D02*
X31266099Y50455942D01*
D10*
%TO.C,TP4*%
X37942000Y2485000D02*
X38958000Y2485000D01*
X38958000Y1215000D02*
X37942000Y1215000D01*
%TO.C,L2*%
X38478207Y44044131D02*
X43912207Y44044131D01*
X38478207Y43097131D02*
X38478207Y44044131D01*
X38478207Y38610131D02*
X38478207Y39557131D01*
X38478207Y38610131D02*
X43912207Y38610131D01*
X43912207Y43097131D02*
X43912207Y44044131D01*
X43912207Y38610131D02*
X43912207Y39557131D01*
D12*
%TO.C,R36*%
X7437742Y6722500D02*
X7912258Y6722500D01*
X7437742Y5677500D02*
X7912258Y5677500D01*
%TO.C,R41*%
X15341159Y49676400D02*
X15648441Y49676400D01*
X15341159Y48916400D02*
X15648441Y48916400D01*
D10*
%TO.C,TP26*%
X23538000Y40725000D02*
X22522000Y40725000D01*
X22522000Y41995000D02*
X23538000Y41995000D01*
D12*
%TO.C,C132*%
X51110000Y61720580D02*
X51110000Y61439420D01*
X50090000Y61720580D02*
X50090000Y61439420D01*
D10*
%TO.C,TP12*%
X37374599Y53087200D02*
X36874599Y52587200D01*
X37374599Y53887200D02*
X37374599Y53087200D01*
X36874599Y52587200D02*
X33844599Y52587200D01*
X36874599Y54387200D02*
X37374599Y53887200D01*
X33844599Y52587200D02*
X33344599Y53087200D01*
X33844599Y54387200D02*
X36874599Y54387200D01*
X33344599Y53087200D02*
X33344599Y53887200D01*
X33344599Y53887200D02*
X33844599Y54387200D01*
D12*
%TO.C,D10*%
X38250000Y60090000D02*
X40250000Y60090000D01*
X38250000Y60090000D02*
X38250000Y63950000D01*
X40250000Y60090000D02*
X40250000Y63950000D01*
%TO.C,R47*%
X23534400Y43357141D02*
X23534400Y43049859D01*
X22774400Y43357141D02*
X22774400Y43049859D01*
%TO.C,C71*%
X34476599Y50585364D02*
X34476599Y50801036D01*
X35196599Y50585364D02*
X35196599Y50801036D01*
%TO.C,R14*%
X31122500Y33562258D02*
X31122500Y33087742D01*
X30077500Y33562258D02*
X30077500Y33087742D01*
%TO.C,C75*%
X31360000Y44227780D02*
X31360000Y43946620D01*
X30340000Y44227780D02*
X30340000Y43946620D01*
%TO.C,R54*%
X51214329Y53764564D02*
X51214329Y53310436D01*
X49744329Y53764564D02*
X49744329Y53310436D01*
D10*
%TO.C,TP24*%
X3285000Y27658000D02*
X3285000Y26642000D01*
X2015000Y26642000D02*
X2015000Y27658000D01*
D12*
%TO.C,C52*%
X13740000Y9092164D02*
X13740000Y9307836D01*
X14460000Y9092164D02*
X14460000Y9307836D01*
%TO.C,C24*%
X37640000Y36892164D02*
X37640000Y37107836D01*
X38360000Y36892164D02*
X38360000Y37107836D01*
%TO.C,R51*%
X59226892Y50964105D02*
X59226892Y52418233D01*
X61046892Y50964105D02*
X61046892Y52418233D01*
%TO.C,C49*%
X16560000Y1890580D02*
X16560000Y1609420D01*
X15540000Y1890580D02*
X15540000Y1609420D01*
%TO.C,R86*%
X33122500Y39837258D02*
X33122500Y39362742D01*
X32077500Y39837258D02*
X32077500Y39362742D01*
%TO.C,C96*%
X22815000Y58238748D02*
X22815000Y59661252D01*
X24635000Y58238748D02*
X24635000Y59661252D01*
%TO.C,R98*%
X54780000Y63353641D02*
X54780000Y63046359D01*
X54020000Y63353641D02*
X54020000Y63046359D01*
%TO.C,R39*%
X13222500Y1787258D02*
X13222500Y1312742D01*
X12177500Y1787258D02*
X12177500Y1312742D01*
%TO.C,R26*%
X48017742Y14446500D02*
X48492258Y14446500D01*
X48017742Y13401500D02*
X48492258Y13401500D01*
%TO.C,C65*%
X26562400Y45634967D02*
X26562400Y45419295D01*
X25842400Y45634967D02*
X25842400Y45419295D01*
%TO.C,C137*%
X46610000Y63111252D02*
X46610000Y61688748D01*
X43890000Y63111252D02*
X43890000Y61688748D01*
%TO.C,C45*%
X12740000Y9092164D02*
X12740000Y9307836D01*
X13460000Y9092164D02*
X13460000Y9307836D01*
%TO.C,R59*%
X55614392Y41253911D02*
X55614392Y41728427D01*
X56659392Y41253911D02*
X56659392Y41728427D01*
%TO.C,R17*%
X46471742Y47340700D02*
X46946258Y47340700D01*
X46471742Y46295700D02*
X46946258Y46295700D01*
%TO.C,D6*%
X46210000Y64950000D02*
X46210000Y66950000D01*
X46210000Y64950000D02*
X42350000Y64950000D01*
X46210000Y66950000D02*
X42350000Y66950000D01*
%TO.C,R27*%
X34698872Y16604971D02*
X35173388Y16604971D01*
X34698872Y15559971D02*
X35173388Y15559971D01*
%TO.C,C59*%
X16952400Y51465464D02*
X16952400Y51681136D01*
X17672400Y51465464D02*
X17672400Y51681136D01*
%TO.C,D7*%
X44826407Y45045831D02*
X44826407Y50608431D01*
X40864007Y50608431D02*
X40864007Y45045831D01*
%TO.C,R80*%
X29637258Y49302500D02*
X29162742Y49302500D01*
X29637258Y50347500D02*
X29162742Y50347500D01*
%TO.C,R66*%
X56967258Y56447500D02*
X56492742Y56447500D01*
X56967258Y57492500D02*
X56492742Y57492500D01*
D10*
%TO.C,TP33*%
X12765000Y44592000D02*
X12765000Y45608000D01*
X14035000Y45608000D02*
X14035000Y44592000D01*
%TO.C,TP13*%
X40692000Y12085000D02*
X41708000Y12085000D01*
X41708000Y10815000D02*
X40692000Y10815000D01*
D12*
%TO.C,Q6*%
X12642500Y24475001D02*
X12290195Y24475001D01*
X9344805Y24475001D02*
X8992500Y24475001D01*
X8992500Y24475001D02*
X8992500Y23872696D01*
X12642500Y23872696D02*
X12642500Y24475001D01*
X8992500Y22927308D02*
X8992500Y22372694D01*
X12642500Y22372694D02*
X12642500Y22927308D01*
X8992500Y21427306D02*
X8992500Y20825001D01*
X12642500Y20825001D02*
X12642500Y21427306D01*
X12290195Y20825001D02*
X12642500Y20825001D01*
X8992500Y20825001D02*
X9344805Y20825001D01*
D15*
X13022500Y23800001D02*
G75*
G03*
X13022500Y23800001I-55000J0D01*
G01*
D16*
X10508001Y19948058D02*
X10127001Y19948058D01*
X10127001Y20202058D01*
X10508001Y20202058D01*
X10508001Y19948058D01*
G36*
X10508001Y19948058D02*
G01*
X10127001Y19948058D01*
X10127001Y20202058D01*
X10508001Y20202058D01*
X10508001Y19948058D01*
G37*
D12*
%TO.C,C77*%
X39485207Y46286551D02*
X39485207Y46567711D01*
X40505207Y46286551D02*
X40505207Y46567711D01*
%TO.C,C133*%
X42710000Y58461252D02*
X42710000Y57038748D01*
X39990000Y58461252D02*
X39990000Y57038748D01*
%TO.C,R96*%
X54977500Y66112742D02*
X54977500Y66587258D01*
X56022500Y66112742D02*
X56022500Y66587258D01*
%TO.C,C13*%
X20087371Y34887131D02*
X20303043Y34887131D01*
X20087371Y34167131D02*
X20303043Y34167131D01*
D14*
%TO.C,S4*%
X75000000Y53250000D02*
X75000000Y54430000D01*
X78600000Y53250000D02*
X75000000Y53250000D01*
X78600000Y54430000D02*
X78600000Y53250000D01*
X75000000Y56070000D02*
X75000000Y56930000D01*
X78600000Y56930000D02*
X78600000Y56070000D01*
X75000000Y58570000D02*
X75000000Y59430000D01*
X78600000Y59430000D02*
X78600000Y58570000D01*
X75000000Y61070000D02*
X75000000Y62250000D01*
X75000000Y62250000D02*
X78600000Y62250000D01*
X78600000Y62250000D02*
X78600000Y61070000D01*
D11*
X79400000Y54250000D02*
G75*
G03*
X79400000Y54250000I-100000J0D01*
G01*
D12*
%TO.C,R89*%
X59962742Y60822500D02*
X60437258Y60822500D01*
X59962742Y59777500D02*
X60437258Y59777500D01*
%TO.C,C73*%
X37360000Y42207836D02*
X37360000Y41992164D01*
X36640000Y42207836D02*
X36640000Y41992164D01*
%TO.C,R29*%
X48017742Y12922500D02*
X48492258Y12922500D01*
X48017742Y11877500D02*
X48492258Y11877500D01*
D14*
%TO.C,TP41*%
X65920000Y24800000D02*
G75*
G03*
X65920000Y24800000I-1270000J0D01*
G01*
D12*
%TO.C,C42*%
X47859420Y16860000D02*
X48140580Y16860000D01*
X47859420Y15840000D02*
X48140580Y15840000D01*
D10*
%TO.C,U14*%
X65687802Y41881200D02*
X68545800Y41881200D01*
X65687802Y38998200D02*
X65687802Y41881200D01*
X68545800Y41881200D02*
X68545800Y38998200D01*
X68545800Y38998200D02*
X65687802Y38998200D01*
%TO.C,TP17*%
X2785000Y40508000D02*
X2785000Y39492000D01*
X1515000Y39492000D02*
X1515000Y40508000D01*
D12*
%TO.C,C85*%
X63124636Y37329700D02*
X62908964Y37329700D01*
X63124636Y38049700D02*
X62908964Y38049700D01*
%TO.C,C86*%
X30162500Y21152500D02*
X29375000Y21152500D01*
X29768750Y20758750D02*
X29768750Y21546250D01*
X29135000Y20654437D02*
X29135000Y21940000D01*
X29135000Y20654437D02*
X28070563Y19590000D01*
X29135000Y25345563D02*
X29135000Y24060000D01*
X29135000Y25345563D02*
X28070563Y26410000D01*
X28070563Y19590000D02*
X22315000Y19590000D01*
X28070563Y26410000D02*
X22315000Y26410000D01*
X26436252Y22090000D02*
X25013748Y22090000D01*
X26436252Y23910000D02*
X25013748Y23910000D01*
X22315000Y19590000D02*
X22315000Y21940000D01*
X22315000Y26410000D02*
X22315000Y24060000D01*
%TO.C,C135*%
X39510000Y58461252D02*
X39510000Y57038748D01*
X36790000Y58461252D02*
X36790000Y57038748D01*
%TO.C,R95*%
X2448500Y8918658D02*
X1358500Y8918658D01*
X1358500Y8918658D02*
X1358500Y6333658D01*
X1358500Y6333658D02*
X2448500Y6333658D01*
X2448500Y6333658D02*
X2448500Y8918658D01*
X2418500Y7983658D02*
X1368500Y7983658D01*
X1368500Y7983658D02*
X1368500Y7263658D01*
X1368500Y7263658D02*
X2418500Y7263658D01*
X2418500Y7263658D02*
X2418500Y7983658D01*
G36*
X2418500Y7983658D02*
G01*
X1368500Y7983658D01*
X1368500Y7263658D01*
X2418500Y7263658D01*
X2418500Y7983658D01*
G37*
%TO.C,C55*%
X18170000Y43191636D02*
X18170000Y42975964D01*
X17450000Y43191636D02*
X17450000Y42975964D01*
%TO.C,R102*%
X56172500Y62087258D02*
X56172500Y61612742D01*
X55127500Y62087258D02*
X55127500Y61612742D01*
D14*
%TO.C,TP43*%
X60620000Y24750000D02*
G75*
G03*
X60620000Y24750000I-1270000J0D01*
G01*
D12*
%TO.C,R55*%
X62947300Y44418442D02*
X62947300Y44892958D01*
X63992300Y44418442D02*
X63992300Y44892958D01*
%TO.C,C88*%
X67687800Y44372864D02*
X67687800Y44588536D01*
X68407800Y44372864D02*
X68407800Y44588536D01*
%TO.C,C29*%
X50110000Y37107836D02*
X50110000Y36892164D01*
X49390000Y37107836D02*
X49390000Y36892164D01*
%TO.C,C46*%
X10040000Y8912164D02*
X10040000Y9127836D01*
X10760000Y8912164D02*
X10760000Y9127836D01*
%TO.C,C127*%
X56986252Y58290000D02*
X55563748Y58290000D01*
X56986252Y60110000D02*
X55563748Y60110000D01*
%TO.C,TH2*%
X54070000Y61146359D02*
X54070000Y61453641D01*
X54830000Y61146359D02*
X54830000Y61453641D01*
%TO.C,C48*%
X15685000Y4657836D02*
X15685000Y4442164D01*
X14965000Y4657836D02*
X14965000Y4442164D01*
%TO.C,C138*%
X43410000Y63111252D02*
X43410000Y61688748D01*
X40690000Y63111252D02*
X40690000Y61688748D01*
%TO.C,C64*%
X25038400Y42662767D02*
X25038400Y42447095D01*
X24318400Y42662767D02*
X24318400Y42447095D01*
%TO.C,R72*%
X52657064Y27575000D02*
X52202936Y27575000D01*
X52657064Y29045000D02*
X52202936Y29045000D01*
%TO.C,C92*%
X72190000Y44272164D02*
X72190000Y44487836D01*
X72910000Y44272164D02*
X72910000Y44487836D01*
%TO.C,C1*%
X45959420Y38810000D02*
X46240580Y38810000D01*
X45959420Y37790000D02*
X46240580Y37790000D01*
D14*
%TO.C,TP34*%
X61170000Y38450000D02*
G75*
G03*
X61170000Y38450000I-1270000J0D01*
G01*
D12*
%TO.C,C5*%
X6019793Y54845033D02*
X6019793Y55060705D01*
X6739793Y54845033D02*
X6739793Y55060705D01*
%TO.C,R15*%
X32647500Y31012258D02*
X32647500Y30537742D01*
X31602500Y31012258D02*
X31602500Y30537742D01*
%TO.C,C3*%
X12097836Y26490000D02*
X11882164Y26490000D01*
X12097836Y27210000D02*
X11882164Y27210000D01*
%TO.C,C4*%
X63124636Y40329700D02*
X62908964Y40329700D01*
X63124636Y41049700D02*
X62908964Y41049700D01*
%TO.C,R6*%
X30220000Y30146359D02*
X30220000Y30453641D01*
X30980000Y30146359D02*
X30980000Y30453641D01*
D10*
%TO.C,TP10*%
X11665000Y48792000D02*
X11665000Y49808000D01*
X12935000Y49808000D02*
X12935000Y48792000D01*
D14*
%TO.C,TP42*%
X4270000Y16100000D02*
G75*
G03*
X4270000Y16100000I-1270000J0D01*
G01*
D12*
%TO.C,C68*%
X39185207Y50586551D02*
X39185207Y50867711D01*
X40205207Y50586551D02*
X40205207Y50867711D01*
%TO.C,R104*%
X36372500Y62162258D02*
X36372500Y61687742D01*
X35327500Y62162258D02*
X35327500Y61687742D01*
%TO.C,C40*%
X48012164Y17960000D02*
X48227836Y17960000D01*
X48012164Y17240000D02*
X48227836Y17240000D01*
D10*
%TO.C,L4*%
X31341500Y4683000D02*
X25907500Y4683000D01*
X31341500Y5630000D02*
X31341500Y4683000D01*
X31341500Y10117000D02*
X31341500Y9170000D01*
X31341500Y10117000D02*
X25907500Y10117000D01*
X25907500Y5630000D02*
X25907500Y4683000D01*
X25907500Y10117000D02*
X25907500Y9170000D01*
D12*
%TO.C,J2*%
X10260000Y66400000D02*
X20480000Y66400000D01*
X10260000Y66400000D02*
X10260000Y69060000D01*
X20480000Y66400000D02*
X20480000Y69060000D01*
X7660000Y67730000D02*
X7660000Y69060000D01*
X7660000Y69060000D02*
X8990000Y69060000D01*
X10260000Y69060000D02*
X20480000Y69060000D01*
%TO.C,C81*%
X49735000Y41061252D02*
X49735000Y40538748D01*
X48265000Y41061252D02*
X48265000Y40538748D01*
%TO.C,L3*%
X66074200Y30317900D02*
X72525800Y30317900D01*
X72525800Y36769500D02*
X66074200Y36769500D01*
X65464600Y33543700D02*
G75*
G03*
X65464600Y33543700I-76200J0D01*
G01*
D11*
%TO.C,U1*%
X51393000Y61310000D02*
X51850000Y61767000D01*
X51393000Y58053000D02*
X51393000Y61310000D01*
X51850000Y61767000D02*
X53907000Y61767000D01*
X53907000Y61767000D02*
X53907000Y58053000D01*
X53907000Y58053000D02*
X51393000Y58053000D01*
X51493000Y61767000D02*
G75*
G03*
X51493000Y61767000I-100000J0D01*
G01*
D12*
%TO.C,R20*%
X40607634Y32630669D02*
X41082150Y32630669D01*
X40607634Y31585669D02*
X41082150Y31585669D01*
D10*
%TO.C,TP18*%
X36908000Y27565000D02*
X35892000Y27565000D01*
X35892000Y28835000D02*
X36908000Y28835000D01*
D12*
%TO.C,C112*%
X53710000Y65917836D02*
X53710000Y65702164D01*
X52990000Y65917836D02*
X52990000Y65702164D01*
%TO.C,R58*%
X54902258Y49987500D02*
X54427742Y49987500D01*
X54902258Y51032500D02*
X54427742Y51032500D01*
%TO.C,D5*%
X29858332Y68890000D02*
X30758332Y68890000D01*
%TO.C,C110*%
X56390000Y65792164D02*
X56390000Y66007836D01*
X57110000Y65792164D02*
X57110000Y66007836D01*
%TO.C,R40*%
X13727500Y1312742D02*
X13727500Y1787258D01*
X14772500Y1312742D02*
X14772500Y1787258D01*
%TO.C,R94*%
X73327500Y44487742D02*
X73327500Y44962258D01*
X74372500Y44487742D02*
X74372500Y44962258D01*
%TO.C,C76*%
X47760000Y41140580D02*
X47760000Y40859420D01*
X46740000Y41140580D02*
X46740000Y40859420D01*
%TO.C,R48*%
X25200900Y45789389D02*
X25200900Y45314873D01*
X24155900Y45789389D02*
X24155900Y45314873D01*
%TO.C,C99*%
X40640000Y27917164D02*
X40640000Y28132836D01*
X41360000Y27917164D02*
X41360000Y28132836D01*
%TO.C,R21*%
X40607634Y34154669D02*
X41082150Y34154669D01*
X40607634Y33109669D02*
X41082150Y33109669D01*
%TO.C,R56*%
X32432500Y67187727D02*
X32432500Y66713211D01*
X31387500Y67187727D02*
X31387500Y66713211D01*
%TO.C,C87*%
X63157380Y38679700D02*
X62876220Y38679700D01*
X63157380Y39699700D02*
X62876220Y39699700D01*
%TO.C,C30*%
X49351892Y34126589D02*
X49351892Y34407749D01*
X50371892Y34126589D02*
X50371892Y34407749D01*
%TO.C,R75*%
X32287258Y12077500D02*
X31812742Y12077500D01*
X32287258Y13122500D02*
X31812742Y13122500D01*
%TO.C,R12*%
X23237258Y4777500D02*
X22762742Y4777500D01*
X23237258Y5822500D02*
X22762742Y5822500D01*
D19*
%TO.C,S2*%
X3086659Y61149100D02*
X2313341Y61149100D01*
X871200Y61149100D02*
X871200Y56500900D01*
X4528800Y56500900D02*
X4528800Y61149100D01*
X2313341Y56500900D02*
X3086659Y56500900D01*
D12*
%TO.C,R1*%
X6493641Y43720000D02*
X6186359Y43720000D01*
X6493641Y44480000D02*
X6186359Y44480000D01*
D10*
%TO.C,TP1*%
X1515000Y37392000D02*
X1515000Y38408000D01*
X2785000Y38408000D02*
X2785000Y37392000D01*
D12*
%TO.C,C134*%
X49610000Y61720580D02*
X49610000Y61439420D01*
X48590000Y61720580D02*
X48590000Y61439420D01*
%TO.C,U24*%
X33250000Y1150000D02*
X33250000Y2000000D01*
X35650000Y1150000D02*
X35650000Y1399999D01*
X33250000Y3000001D02*
X33250000Y3250000D01*
X35650000Y3000001D02*
X35650000Y3250000D01*
%TO.C,R99*%
X60487258Y62777500D02*
X60012742Y62777500D01*
X60487258Y63822500D02*
X60012742Y63822500D01*
%TO.C,C33*%
X45033892Y27936551D02*
X45033892Y28217711D01*
X46053892Y27936551D02*
X46053892Y28217711D01*
%TO.C,C93*%
X70690000Y44359420D02*
X70690000Y44640580D01*
X71710000Y44359420D02*
X71710000Y44640580D01*
%TO.C,U3*%
X8290400Y32633700D02*
X8290400Y33283700D01*
X8940400Y39853700D02*
X8290400Y39853700D01*
X8940400Y32633700D02*
X8290400Y32633700D01*
X14860400Y39853700D02*
X15510400Y39853700D01*
X14860400Y32633700D02*
X15510400Y32633700D01*
X15510400Y39853700D02*
X15510400Y39203700D01*
X15510400Y32633700D02*
X15510400Y33283700D01*
%TO.C,R53*%
X65995300Y44087742D02*
X65995300Y44562258D01*
X67040300Y44087742D02*
X67040300Y44562258D01*
%TO.C,R8*%
X19245242Y61612500D02*
X19719758Y61612500D01*
X19245242Y60567500D02*
X19719758Y60567500D01*
%TO.C,C16*%
X15248800Y41622264D02*
X15248800Y41837936D01*
X15968800Y41622264D02*
X15968800Y41837936D01*
%TO.C,R52*%
X53174329Y53757064D02*
X53174329Y53302936D01*
X51704329Y53757064D02*
X51704329Y53302936D01*
D10*
%TO.C,TP21*%
X75142000Y66735000D02*
X76158000Y66735000D01*
X76158000Y65465000D02*
X75142000Y65465000D01*
D12*
%TO.C,R35*%
X3962742Y2922500D02*
X4437258Y2922500D01*
X3962742Y1877500D02*
X4437258Y1877500D01*
D14*
%TO.C,U5*%
X36047892Y31406669D02*
X36047892Y34206669D01*
X39037892Y31406669D02*
X39037892Y34206669D01*
D11*
X36267892Y29616669D02*
G75*
G03*
X36267892Y29616669I-100000J0D01*
G01*
D12*
%TO.C,R63*%
X60249634Y49138669D02*
X60724150Y49138669D01*
X60249634Y48093669D02*
X60724150Y48093669D01*
D14*
%TO.C,U8*%
X45530000Y13650000D02*
X45030000Y13650000D01*
X45530000Y16650000D02*
X45030000Y16650000D01*
X42530000Y13650000D02*
X43030000Y13650000D01*
X42530000Y16650000D02*
X43030000Y16650000D01*
D12*
%TO.C,C51*%
X8940000Y8892164D02*
X8940000Y9107836D01*
X9660000Y8892164D02*
X9660000Y9107836D01*
%TO.C,R87*%
X6922500Y8837258D02*
X6922500Y8362742D01*
X5877500Y8837258D02*
X5877500Y8362742D01*
%TO.C,L1*%
X50827092Y35968969D02*
X50827092Y29517369D01*
X57278692Y29517369D02*
X57278692Y35968969D01*
X54129092Y36654769D02*
G75*
G03*
X54129092Y36654769I-76200J0D01*
G01*
D10*
%TO.C,U12*%
X18481800Y49199400D02*
X21067800Y49199400D01*
X18481800Y45793400D02*
X18481800Y49199400D01*
X21067800Y49199400D02*
X21067800Y45793400D01*
X21067800Y45793400D02*
X18481800Y45793400D01*
D18*
X18038800Y48596400D02*
G75*
G03*
X18038800Y48596400I-125000J0D01*
G01*
D12*
%TO.C,R73*%
X29415000Y2372936D02*
X29415000Y2827064D01*
X30885000Y2372936D02*
X30885000Y2827064D01*
%TO.C,C82*%
X52110000Y40961252D02*
X52110000Y39538748D01*
X50290000Y40961252D02*
X50290000Y39538748D01*
%TO.C,R61*%
X58664392Y41253911D02*
X58664392Y41728427D01*
X59709392Y41253911D02*
X59709392Y41728427D01*
%TO.C,C20*%
X63573892Y49436749D02*
X63573892Y49155589D01*
X62553892Y49436749D02*
X62553892Y49155589D01*
%TO.C,C67*%
X37664600Y50563820D02*
X37664600Y50844980D01*
X38684600Y50563820D02*
X38684600Y50844980D01*
%TO.C,C100*%
X22678080Y2990000D02*
X22396920Y2990000D01*
X22678080Y4010000D02*
X22396920Y4010000D01*
%TO.C,R67*%
X42377064Y51663213D02*
X41922936Y51663213D01*
X42377064Y53133213D02*
X41922936Y53133213D01*
%TO.C,R97*%
X29982500Y67212258D02*
X29982500Y66737742D01*
X28937500Y67212258D02*
X28937500Y66737742D01*
%TO.C,R91*%
X69077500Y44287742D02*
X69077500Y44762258D01*
X70122500Y44287742D02*
X70122500Y44762258D01*
%TO.C,C105*%
X53550000Y54812164D02*
X53550000Y55027836D01*
X54270000Y54812164D02*
X54270000Y55027836D01*
%TO.C,C104*%
X60379056Y45926169D02*
X60594728Y45926169D01*
X60379056Y45206169D02*
X60594728Y45206169D01*
%TO.C,C102*%
X61071892Y41599005D02*
X61071892Y41383333D01*
X60351892Y41599005D02*
X60351892Y41383333D01*
%TO.C,R28*%
X40757500Y15262742D02*
X40757500Y15737258D01*
X41802500Y15262742D02*
X41802500Y15737258D01*
%TO.C,R82*%
X34677500Y37062742D02*
X34677500Y37537258D01*
X35722500Y37062742D02*
X35722500Y37537258D01*
%TO.C,C70*%
X34790199Y40742636D02*
X34790199Y40526964D01*
X34070199Y40742636D02*
X34070199Y40526964D01*
%TO.C,U13*%
X32303199Y47449140D02*
X32303199Y47943400D01*
X32303199Y43689400D02*
X32303199Y44184159D01*
X36557199Y47943400D02*
X36557199Y47449140D01*
X36557199Y44183660D02*
X36557199Y43689400D01*
D16*
X32030199Y47266400D02*
G75*
G03*
X32030199Y47266400I-50000J0D01*
G01*
D12*
%TO.C,C129*%
X48870000Y58715580D02*
X48870000Y58434420D01*
X47850000Y58715580D02*
X47850000Y58434420D01*
%TO.C,C80*%
X37985207Y46311551D02*
X37985207Y46592711D01*
X39005207Y46311551D02*
X39005207Y46592711D01*
D11*
%TO.C,U17*%
X24150000Y8850000D02*
X23700000Y8400000D01*
X24150000Y10100000D02*
X24150000Y8850000D01*
X23700000Y8400000D02*
X22450000Y8400000D01*
X22450000Y8400000D02*
X22450000Y10100000D01*
X22450000Y10100000D02*
X24150000Y10100000D01*
X24250000Y8400000D02*
G75*
G03*
X24250000Y8400000I-100000J0D01*
G01*
D12*
%TO.C,C23*%
X44140000Y53759420D02*
X44140000Y54040580D01*
X45160000Y53759420D02*
X45160000Y54040580D01*
%TO.C,R83*%
X71637258Y46977500D02*
X71162742Y46977500D01*
X71637258Y48022500D02*
X71162742Y48022500D01*
%TO.C,R93*%
X61817742Y36642500D02*
X62292258Y36642500D01*
X61817742Y35597500D02*
X62292258Y35597500D01*
%TO.C,C31*%
X49351892Y31078589D02*
X49351892Y31359749D01*
X50371892Y31078589D02*
X50371892Y31359749D01*
%TO.C,R50*%
X35980599Y50539559D02*
X35980599Y50846841D01*
X36740599Y50539559D02*
X36740599Y50846841D01*
%TO.C,R88*%
X2422500Y3212258D02*
X2422500Y2737742D01*
X1377500Y3212258D02*
X1377500Y2737742D01*
%TO.C,C39*%
X28772164Y36860000D02*
X28987836Y36860000D01*
X28772164Y36140000D02*
X28987836Y36140000D01*
%TD*%
M02*
