%TF.GenerationSoftware,KiCad,Pcbnew,7.0.11-7.0.11~ubuntu22.04.1*%
%TF.CreationDate,2025-04-04T17:31:18+09:00*%
%TF.ProjectId,robot,726f626f-742e-46b6-9963-61645f706362,rev?*%
%TF.SameCoordinates,PX3938700PY9896800*%
%TF.FileFunction,Paste,Top*%
%TF.FilePolarity,Positive*%
%FSLAX46Y46*%
G04 Gerber Fmt 4.6, Leading zero omitted, Abs format (unit mm)*
G04 Created by KiCad (PCBNEW 7.0.11-7.0.11~ubuntu22.04.1) date 2025-04-04 17:31:18*
%MOMM*%
%LPD*%
G01*
G04 APERTURE LIST*
G04 Aperture macros list*
%AMRoundRect*
0 Rectangle with rounded corners*
0 $1 Rounding radius*
0 $2 $3 $4 $5 $6 $7 $8 $9 X,Y pos of 4 corners*
0 Add a 4 corners polygon primitive as box body*
4,1,4,$2,$3,$4,$5,$6,$7,$8,$9,$2,$3,0*
0 Add four circle primitives for the rounded corners*
1,1,$1+$1,$2,$3*
1,1,$1+$1,$4,$5*
1,1,$1+$1,$6,$7*
1,1,$1+$1,$8,$9*
0 Add four rect primitives between the rounded corners*
20,1,$1+$1,$2,$3,$4,$5,0*
20,1,$1+$1,$4,$5,$6,$7,0*
20,1,$1+$1,$6,$7,$8,$9,0*
20,1,$1+$1,$8,$9,$2,$3,0*%
%AMFreePoly0*
4,1,14,0.349999,-0.020000,0.349801,-0.050000,0.348840,-0.059754,0.345995,-0.069134,0.341374,-0.077778,0.334901,-0.085100,0.327579,-0.091573,0.318935,-0.096194,0.309555,-0.099039,0.299801,-0.100000,-0.349999,-0.100000,-0.349999,0.100000,0.230001,0.100000,0.349999,-0.020000,0.349999,-0.020000,$1*%
%AMFreePoly1*
4,1,23,0.350005,0.050000,0.750005,0.050000,0.759760,0.049039,0.769139,0.046194,0.777783,0.041573,0.785360,0.035355,0.791578,0.027778,0.796199,0.019134,0.799044,0.009754,0.800005,0.000000,0.800005,-0.050000,0.799044,-0.059754,0.796199,-0.069134,0.791578,-0.077778,0.785360,-0.085355,0.777783,-0.091573,0.769139,-0.096194,0.759760,-0.099039,0.750005,-0.100000,-0.350005,-0.100000,
-0.350005,0.100000,0.279995,0.100000,0.350005,0.050000,0.350005,0.050000,$1*%
%AMFreePoly2*
4,1,21,0.759954,0.099341,0.769334,0.096496,0.777978,0.091875,0.785555,0.085657,0.791773,0.078080,0.796394,0.069436,0.799239,0.060056,0.800200,0.050302,0.800005,-0.050000,0.799044,-0.059754,0.796199,-0.069134,0.791578,-0.077778,0.785360,-0.085355,0.777783,-0.091573,0.769139,-0.096193,0.759760,-0.099039,0.750005,-0.100000,-0.350005,-0.100000,-0.350005,0.100000,0.750200,0.100302,
0.759954,0.099341,0.759954,0.099341,$1*%
%AMFreePoly3*
4,1,17,1.027699,-0.250199,1.026738,-0.259953,1.023893,-0.269333,1.019272,-0.277977,1.013054,-0.285554,1.005477,-0.291772,0.996833,-0.296393,0.987454,-0.299238,0.977699,-0.300199,0.427699,-0.300199,0.294699,-0.100199,-0.572301,-0.100199,-0.572301,0.099801,0.427699,0.099801,0.427699,0.699801,1.027699,0.699801,1.027699,-0.250199,1.027699,-0.250199,$1*%
%AMFreePoly4*
4,1,14,0.630399,-0.283899,0.630800,-0.819000,0.629839,-0.828755,0.626994,-0.838134,0.622373,-0.846779,0.616155,-0.854355,0.608578,-0.860574,0.599934,-0.865194,0.590554,-0.868039,0.580800,-0.869000,-0.369601,-0.868899,-0.369601,0.131101,0.228399,0.131101,0.630399,-0.283899,0.630399,-0.283899,$1*%
%AMFreePoly5*
4,1,21,0.534954,0.099341,0.544334,0.096496,0.552978,0.091875,0.560555,0.085657,0.566773,0.078080,0.571394,0.069436,0.574239,0.060056,0.575200,0.050302,0.575005,-0.050000,0.574044,-0.059754,0.571199,-0.069134,0.566578,-0.077778,0.560360,-0.085355,0.552783,-0.091573,0.544139,-0.096194,0.534760,-0.099039,0.525005,-0.100000,-0.575005,-0.100000,-0.575005,0.100000,0.525200,0.100302,
0.534954,0.099341,0.534954,0.099341,$1*%
%AMFreePoly6*
4,1,23,0.534760,0.099039,0.544139,0.096193,0.552783,0.091573,0.560360,0.085355,0.566578,0.077778,0.571199,0.069134,0.574044,0.059754,0.575005,0.050000,0.575005,0.000000,0.574044,-0.009754,0.571199,-0.019134,0.566578,-0.027778,0.560360,-0.035355,0.552783,-0.041573,0.544139,-0.046194,0.534760,-0.049039,0.525005,-0.050000,0.125005,-0.050000,0.054995,-0.100000,-0.575005,-0.100000,
-0.575005,0.100000,0.525005,0.100000,0.534760,0.099039,0.534760,0.099039,$1*%
%AMFreePoly7*
4,1,14,0.590554,0.873440,0.599934,0.870595,0.608578,0.865975,0.616155,0.859756,0.622373,0.852180,0.626994,0.843535,0.629839,0.834156,0.630800,0.824401,0.630399,0.289300,0.228399,-0.125700,-0.369601,-0.125700,-0.369601,0.874300,0.580800,0.874401,0.590554,0.873440,0.590554,0.873440,$1*%
%AMFreePoly8*
4,1,25,0.344206,-0.893600,-0.305794,-0.893600,-0.305794,-0.680600,-0.450794,-0.493600,-0.855999,-0.493902,-0.865753,-0.492941,-0.875133,-0.490096,-0.883777,-0.485475,-0.891354,-0.479257,-0.897572,-0.471680,-0.905038,-0.453656,-0.905999,-0.443902,-0.905804,-0.343600,-0.905999,-0.043903,-0.905804,0.056398,-0.904843,0.066153,-0.901998,0.075532,-0.897378,0.084177,-0.891159,0.091753,-0.883583,0.097971,
-0.874938,0.102592,-0.865559,0.105437,-0.855804,0.106398,0.344206,0.106398,0.344206,-0.893600,0.344206,-0.893600,$1*%
%AMFreePoly9*
4,1,23,0.575005,-0.100000,-0.154995,-0.100000,-0.225005,-0.050000,-0.625005,-0.050000,-0.634760,-0.049039,-0.644139,-0.046193,-0.652783,-0.041573,-0.660360,-0.035355,-0.666578,-0.027778,-0.671199,-0.019134,-0.674044,-0.009754,-0.675005,0.000000,-0.675005,0.050000,-0.674044,0.059754,-0.671199,0.069134,-0.666578,0.077778,-0.660360,0.085355,-0.652783,0.091573,-0.644139,0.096194,-0.634760,0.099039,
-0.625005,0.100000,0.575005,0.100000,0.575005,-0.100000,0.575005,-0.100000,$1*%
%AMFreePoly10*
4,1,21,0.575005,-0.100000,-0.625200,-0.100302,-0.634954,-0.099341,-0.644334,-0.096496,-0.652978,-0.091875,-0.660555,-0.085657,-0.666773,-0.078080,-0.671394,-0.069436,-0.674239,-0.060056,-0.675200,-0.050302,-0.675005,0.050000,-0.674044,0.059754,-0.671199,0.069134,-0.666578,0.077778,-0.660360,0.085355,-0.652783,0.091573,-0.644139,0.096194,-0.634760,0.099039,-0.625005,0.100000,0.575005,0.100000,
0.575005,-0.100000,0.575005,-0.100000,$1*%
%AMFreePoly11*
4,1,22,0.344206,-0.493799,-0.855999,-0.494101,-0.865753,-0.493140,-0.875133,-0.490295,-0.883777,-0.485675,-0.891354,-0.479456,-0.897572,-0.471880,-0.902193,-0.463235,-0.905038,-0.453856,-0.905999,-0.444101,-0.905804,-0.233800,-0.904843,-0.224046,-0.897378,-0.206022,-0.891159,-0.198445,-0.883583,-0.192227,-0.874938,-0.187607,-0.865559,-0.184761,-0.855804,-0.183801,-0.505804,-0.183800,-0.305794,0.106200,
0.344206,0.106200,0.344206,-0.493799,0.344206,-0.493799,$1*%
%AMFreePoly12*
4,1,20,0.349999,0.099999,0.349999,-0.100000,-0.249999,-0.100001,-0.269508,-0.098079,-0.288267,-0.092389,-0.305556,-0.083148,-0.320710,-0.070711,-0.333146,-0.055558,-0.342387,-0.038269,-0.348078,-0.019510,-0.349999,-0.000001,-0.348078,0.019509,-0.342387,0.038268,-0.333146,0.055557,-0.320710,0.070710,-0.305556,0.083146,-0.288267,0.092387,-0.269508,0.098078,-0.249999,0.100000,0.349999,0.099999,
0.349999,0.099999,$1*%
%AMFreePoly13*
4,1,20,0.349999,-0.100000,-0.249999,-0.100000,-0.269508,-0.098079,-0.288267,-0.092388,-0.305556,-0.083147,-0.320710,-0.070711,-0.333146,-0.055557,-0.342387,-0.038269,-0.348078,-0.019509,-0.349999,0.000000,-0.348078,0.019509,-0.342387,0.038268,-0.333146,0.055557,-0.320710,0.070710,-0.305556,0.083147,-0.288267,0.092388,-0.269508,0.098078,-0.249999,0.100000,0.349999,0.100000,0.349999,-0.100000,
0.349999,-0.100000,$1*%
%AMFreePoly14*
4,1,21,0.575005,0.100000,0.575005,-0.100000,-0.525005,-0.100000,-0.534760,-0.099039,-0.544139,-0.096194,-0.552783,-0.091573,-0.560360,-0.085355,-0.566578,-0.077778,-0.571199,-0.069134,-0.574044,-0.059754,-0.575005,-0.050000,-0.575200,0.050302,-0.574239,0.060056,-0.571394,0.069436,-0.566773,0.078080,-0.560555,0.085657,-0.552978,0.091875,-0.544334,0.096496,-0.534954,0.099341,-0.525200,0.100302,
0.575005,0.100000,0.575005,0.100000,$1*%
G04 Aperture macros list end*
%ADD10C,0.100000*%
%ADD11C,0.010000*%
%ADD12R,0.300000X0.700000*%
%ADD13RoundRect,0.200000X-0.200000X-0.275000X0.200000X-0.275000X0.200000X0.275000X-0.200000X0.275000X0*%
%ADD14RoundRect,0.225000X0.225000X0.250000X-0.225000X0.250000X-0.225000X-0.250000X0.225000X-0.250000X0*%
%ADD15RoundRect,0.135000X0.135000X0.185000X-0.135000X0.185000X-0.135000X-0.185000X0.135000X-0.185000X0*%
%ADD16RoundRect,0.050000X-0.200000X0.100000X-0.200000X-0.100000X0.200000X-0.100000X0.200000X0.100000X0*%
%ADD17RoundRect,0.066000X0.209000X-0.434000X0.209000X0.434000X-0.209000X0.434000X-0.209000X-0.434000X0*%
%ADD18RoundRect,0.250000X0.250000X-0.650000X0.250000X0.650000X-0.250000X0.650000X-0.250000X-0.650000X0*%
%ADD19RoundRect,0.200000X-0.275000X0.200000X-0.275000X-0.200000X0.275000X-0.200000X0.275000X0.200000X0*%
%ADD20RoundRect,0.225000X0.250000X-0.225000X0.250000X0.225000X-0.250000X0.225000X-0.250000X-0.225000X0*%
%ADD21RoundRect,0.225000X-0.250000X0.225000X-0.250000X-0.225000X0.250000X-0.225000X0.250000X0.225000X0*%
%ADD22RoundRect,0.140000X-0.170000X0.140000X-0.170000X-0.140000X0.170000X-0.140000X0.170000X0.140000X0*%
%ADD23RoundRect,0.050000X0.200000X-0.100000X0.200000X0.100000X-0.200000X0.100000X-0.200000X-0.100000X0*%
%ADD24RoundRect,0.102000X0.025500X0.025500X-0.025500X0.025500X-0.025500X-0.025500X0.025500X-0.025500X0*%
%ADD25RoundRect,0.140000X0.170000X-0.140000X0.170000X0.140000X-0.170000X0.140000X-0.170000X-0.140000X0*%
%ADD26RoundRect,0.030600X0.224400X-0.554400X0.224400X0.554400X-0.224400X0.554400X-0.224400X-0.554400X0*%
%ADD27RoundRect,0.030600X-0.224400X0.554400X-0.224400X-0.554400X0.224400X-0.554400X0.224400X0.554400X0*%
%ADD28RoundRect,0.250000X0.300000X0.300000X-0.300000X0.300000X-0.300000X-0.300000X0.300000X-0.300000X0*%
%ADD29RoundRect,0.102000X-0.025500X-0.025500X0.025500X-0.025500X0.025500X0.025500X-0.025500X0.025500X0*%
%ADD30RoundRect,0.200000X0.200000X0.275000X-0.200000X0.275000X-0.200000X-0.275000X0.200000X-0.275000X0*%
%ADD31RoundRect,0.140000X0.140000X0.170000X-0.140000X0.170000X-0.140000X-0.170000X0.140000X-0.170000X0*%
%ADD32RoundRect,0.250000X0.650000X0.250000X-0.650000X0.250000X-0.650000X-0.250000X0.650000X-0.250000X0*%
%ADD33RoundRect,0.135000X-0.185000X0.135000X-0.185000X-0.135000X0.185000X-0.135000X0.185000X0.135000X0*%
%ADD34RoundRect,0.150000X0.150000X-0.650000X0.150000X0.650000X-0.150000X0.650000X-0.150000X-0.650000X0*%
%ADD35RoundRect,0.135000X0.185000X-0.135000X0.185000X0.135000X-0.185000X0.135000X-0.185000X-0.135000X0*%
%ADD36RoundRect,0.150000X-0.150000X0.587500X-0.150000X-0.587500X0.150000X-0.587500X0.150000X0.587500X0*%
%ADD37RoundRect,0.250000X0.450000X-0.262500X0.450000X0.262500X-0.450000X0.262500X-0.450000X-0.262500X0*%
%ADD38RoundRect,0.250000X0.262500X0.450000X-0.262500X0.450000X-0.262500X-0.450000X0.262500X-0.450000X0*%
%ADD39RoundRect,0.140000X-0.140000X-0.170000X0.140000X-0.170000X0.140000X0.170000X-0.140000X0.170000X0*%
%ADD40RoundRect,0.200000X0.275000X-0.200000X0.275000X0.200000X-0.275000X0.200000X-0.275000X-0.200000X0*%
%ADD41RoundRect,0.050000X0.237500X-0.075000X0.237500X0.075000X-0.237500X0.075000X-0.237500X-0.075000X0*%
%ADD42RoundRect,0.050000X0.362500X-0.075000X0.362500X0.075000X-0.362500X0.075000X-0.362500X-0.075000X0*%
%ADD43RoundRect,0.050000X-0.075000X-0.237500X0.075000X-0.237500X0.075000X0.237500X-0.075000X0.237500X0*%
%ADD44RoundRect,0.150000X-0.587500X-0.150000X0.587500X-0.150000X0.587500X0.150000X-0.587500X0.150000X0*%
%ADD45RoundRect,0.250000X-0.325000X-0.650000X0.325000X-0.650000X0.325000X0.650000X-0.325000X0.650000X0*%
%ADD46RoundRect,0.250000X-0.250000X0.650000X-0.250000X-0.650000X0.250000X-0.650000X0.250000X0.650000X0*%
%ADD47RoundRect,0.250000X0.650000X-0.325000X0.650000X0.325000X-0.650000X0.325000X-0.650000X-0.325000X0*%
%ADD48RoundRect,0.120000X-0.680000X-0.380000X0.680000X-0.380000X0.680000X0.380000X-0.680000X0.380000X0*%
%ADD49RoundRect,0.250000X-0.650000X-0.250000X0.650000X-0.250000X0.650000X0.250000X-0.650000X0.250000X0*%
%ADD50RoundRect,0.250000X-0.450000X0.262500X-0.450000X-0.262500X0.450000X-0.262500X0.450000X0.262500X0*%
%ADD51RoundRect,0.250000X-1.500000X-0.550000X1.500000X-0.550000X1.500000X0.550000X-1.500000X0.550000X0*%
%ADD52RoundRect,0.150000X0.587500X0.150000X-0.587500X0.150000X-0.587500X-0.150000X0.587500X-0.150000X0*%
%ADD53RoundRect,0.012000X0.288000X0.108000X-0.288000X0.108000X-0.288000X-0.108000X0.288000X-0.108000X0*%
%ADD54RoundRect,0.225000X-0.225000X-0.250000X0.225000X-0.250000X0.225000X0.250000X-0.225000X0.250000X0*%
%ADD55RoundRect,0.033333X0.116667X-0.191667X0.116667X0.191667X-0.116667X0.191667X-0.116667X-0.191667X0*%
%ADD56RoundRect,0.250000X-0.650000X0.325000X-0.650000X-0.325000X0.650000X-0.325000X0.650000X0.325000X0*%
%ADD57RoundRect,0.250000X-1.100000X0.325000X-1.100000X-0.325000X1.100000X-0.325000X1.100000X0.325000X0*%
%ADD58RoundRect,0.135000X-0.135000X-0.185000X0.135000X-0.185000X0.135000X0.185000X-0.135000X0.185000X0*%
%ADD59R,1.000000X1.200000*%
%ADD60RoundRect,0.250000X1.500000X0.550000X-1.500000X0.550000X-1.500000X-0.550000X1.500000X-0.550000X0*%
%ADD61RoundRect,0.250000X0.325000X0.650000X-0.325000X0.650000X-0.325000X-0.650000X0.325000X-0.650000X0*%
%ADD62R,0.750000X0.300000*%
%ADD63R,0.300000X0.750000*%
%ADD64R,2.700000X2.700000*%
%ADD65RoundRect,0.147500X-0.147500X-0.172500X0.147500X-0.172500X0.147500X0.172500X-0.147500X0.172500X0*%
%ADD66RoundRect,0.125000X0.000000X0.500000X0.000000X-0.500000X0.000000X-0.500000X0.000000X0.500000X0*%
%ADD67C,0.250000*%
%ADD68RoundRect,0.147500X0.172500X-0.147500X0.172500X0.147500X-0.172500X0.147500X-0.172500X-0.147500X0*%
%ADD69R,1.905000X2.790000*%
%ADD70C,1.400000*%
%ADD71RoundRect,0.250000X0.300000X-0.300000X0.300000X0.300000X-0.300000X0.300000X-0.300000X-0.300000X0*%
%ADD72RoundRect,0.250000X0.625000X-0.312500X0.625000X0.312500X-0.625000X0.312500X-0.625000X-0.312500X0*%
%ADD73RoundRect,0.050000X1.700000X-0.950000X1.700000X0.950000X-1.700000X0.950000X-1.700000X-0.950000X0*%
%ADD74RoundRect,0.120000X0.680000X0.380000X-0.680000X0.380000X-0.680000X-0.380000X0.680000X-0.380000X0*%
%ADD75RoundRect,0.250000X0.475000X-0.250000X0.475000X0.250000X-0.475000X0.250000X-0.475000X-0.250000X0*%
%ADD76R,1.600200X5.689600*%
%ADD77C,0.260000*%
%ADD78R,0.711200X0.990600*%
%ADD79RoundRect,0.250000X-0.292217X-0.292217X0.292217X-0.292217X0.292217X0.292217X-0.292217X0.292217X0*%
%ADD80RoundRect,0.050000X-0.387500X-0.050000X0.387500X-0.050000X0.387500X0.050000X-0.387500X0.050000X0*%
%ADD81RoundRect,0.050000X-0.050000X-0.387500X0.050000X-0.387500X0.050000X0.387500X-0.050000X0.387500X0*%
%ADD82RoundRect,0.020000X0.180000X-0.690000X0.180000X0.690000X-0.180000X0.690000X-0.180000X-0.690000X0*%
%ADD83R,5.689600X1.600200*%
%ADD84RoundRect,0.050000X0.100000X0.200000X-0.100000X0.200000X-0.100000X-0.200000X0.100000X-0.200000X0*%
%ADD85FreePoly0,0.000000*%
%ADD86FreePoly1,0.000000*%
%ADD87FreePoly2,0.000000*%
%ADD88R,0.127000X0.127000*%
%ADD89FreePoly3,90.000000*%
%ADD90FreePoly4,90.000000*%
%ADD91FreePoly5,90.000000*%
%ADD92FreePoly6,90.000000*%
%ADD93FreePoly7,90.000000*%
%ADD94FreePoly8,0.000000*%
%ADD95FreePoly9,0.000000*%
%ADD96FreePoly10,0.000000*%
%ADD97FreePoly11,0.000000*%
%ADD98FreePoly12,90.000000*%
%ADD99FreePoly13,90.000000*%
%ADD100FreePoly14,90.000000*%
G04 APERTURE END LIST*
%TO.C,Q5*%
D10*
X85270544Y-123579255D02*
X84522260Y-123579255D01*
X84522260Y-123400947D01*
X85270544Y-123400947D01*
X85270544Y-123579255D01*
G36*
X85270544Y-123579255D02*
G01*
X84522260Y-123579255D01*
X84522260Y-123400947D01*
X85270544Y-123400947D01*
X85270544Y-123579255D01*
G37*
X85270544Y-123079253D02*
X84522260Y-123079253D01*
X84522260Y-122900945D01*
X85270544Y-122900945D01*
X85270544Y-123079253D01*
G36*
X85270544Y-123079253D02*
G01*
X84522260Y-123079253D01*
X84522260Y-122900945D01*
X85270544Y-122900945D01*
X85270544Y-123079253D01*
G37*
X85270544Y-122579254D02*
X84522260Y-122579254D01*
X84522260Y-122400946D01*
X85270544Y-122400946D01*
X85270544Y-122579254D01*
G36*
X85270544Y-122579254D02*
G01*
X84522260Y-122579254D01*
X84522260Y-122400946D01*
X85270544Y-122400946D01*
X85270544Y-122579254D01*
G37*
X85270544Y-122079255D02*
X84522260Y-122079255D01*
X84522260Y-121900947D01*
X85270544Y-121900947D01*
X85270544Y-122079255D01*
G36*
X85270544Y-122079255D02*
G01*
X84522260Y-122079255D01*
X84522260Y-121900947D01*
X85270544Y-121900947D01*
X85270544Y-122079255D01*
G37*
X85270544Y-121579253D02*
X84522260Y-121579253D01*
X84522260Y-121400945D01*
X85270544Y-121400945D01*
X85270544Y-121579253D01*
G36*
X85270544Y-121579253D02*
G01*
X84522260Y-121579253D01*
X84522260Y-121400945D01*
X85270544Y-121400945D01*
X85270544Y-121579253D01*
G37*
X83966556Y-124595242D02*
X83788248Y-124595242D01*
X83788248Y-123846958D01*
X83966556Y-123846958D01*
X83966556Y-124595242D01*
G36*
X83966556Y-124595242D02*
G01*
X83788248Y-124595242D01*
X83788248Y-123846958D01*
X83966556Y-123846958D01*
X83966556Y-124595242D01*
G37*
X83966556Y-121133242D02*
X83788248Y-121133242D01*
X83788248Y-120384958D01*
X83966556Y-120384958D01*
X83966556Y-121133242D01*
G36*
X83966556Y-121133242D02*
G01*
X83788248Y-121133242D01*
X83788248Y-120384958D01*
X83966556Y-120384958D01*
X83966556Y-121133242D01*
G37*
X82466554Y-124595242D02*
X82288246Y-124595242D01*
X82288246Y-123846958D01*
X82466554Y-123846958D01*
X82466554Y-124595242D01*
G36*
X82466554Y-124595242D02*
G01*
X82288246Y-124595242D01*
X82288246Y-123846958D01*
X82466554Y-123846958D01*
X82466554Y-124595242D01*
G37*
X82466554Y-121133242D02*
X82288246Y-121133242D01*
X82288246Y-120384958D01*
X82466554Y-120384958D01*
X82466554Y-121133242D01*
G36*
X82466554Y-121133242D02*
G01*
X82288246Y-121133242D01*
X82288246Y-120384958D01*
X82466554Y-120384958D01*
X82466554Y-121133242D01*
G37*
X81732542Y-123579255D02*
X80984258Y-123579255D01*
X80984258Y-123400947D01*
X81732542Y-123400947D01*
X81732542Y-123579255D01*
G36*
X81732542Y-123579255D02*
G01*
X80984258Y-123579255D01*
X80984258Y-123400947D01*
X81732542Y-123400947D01*
X81732542Y-123579255D01*
G37*
X81732542Y-123079253D02*
X80984258Y-123079253D01*
X80984258Y-122900945D01*
X81732542Y-122900945D01*
X81732542Y-123079253D01*
G36*
X81732542Y-123079253D02*
G01*
X80984258Y-123079253D01*
X80984258Y-122900945D01*
X81732542Y-122900945D01*
X81732542Y-123079253D01*
G37*
X81732542Y-122579254D02*
X80984258Y-122579254D01*
X80984258Y-122400946D01*
X81732542Y-122400946D01*
X81732542Y-122579254D01*
G36*
X81732542Y-122579254D02*
G01*
X80984258Y-122579254D01*
X80984258Y-122400946D01*
X81732542Y-122400946D01*
X81732542Y-122579254D01*
G37*
X81732542Y-122079255D02*
X80984258Y-122079255D01*
X80984258Y-121900947D01*
X81732542Y-121900947D01*
X81732542Y-122079255D01*
G36*
X81732542Y-122079255D02*
G01*
X80984258Y-122079255D01*
X80984258Y-121900947D01*
X81732542Y-121900947D01*
X81732542Y-122079255D01*
G37*
X81732542Y-121579253D02*
X80984258Y-121579253D01*
X80984258Y-121400945D01*
X81732542Y-121400945D01*
X81732542Y-121579253D01*
G36*
X81732542Y-121579253D02*
G01*
X80984258Y-121579253D01*
X80984258Y-121400945D01*
X81732542Y-121400945D01*
X81732542Y-121579253D01*
G37*
X84077471Y-123440170D02*
X83621101Y-123440170D01*
X83621101Y-123125221D01*
X83762522Y-122983800D01*
X84077471Y-122983800D01*
X84077471Y-123440170D01*
G36*
X84077471Y-123440170D02*
G01*
X83621101Y-123440170D01*
X83621101Y-123125221D01*
X83762522Y-122983800D01*
X84077471Y-122983800D01*
X84077471Y-123440170D01*
G37*
X84077471Y-121996400D02*
X83762522Y-121996400D01*
X83621101Y-121854979D01*
X83621101Y-121540030D01*
X84077471Y-121540030D01*
X84077471Y-121996400D01*
G36*
X84077471Y-121996400D02*
G01*
X83762522Y-121996400D01*
X83621101Y-121854979D01*
X83621101Y-121540030D01*
X84077471Y-121540030D01*
X84077471Y-121996400D01*
G37*
X82633701Y-123125221D02*
X82633701Y-123440170D01*
X82177331Y-123440170D01*
X82177331Y-122983800D01*
X82492280Y-122983800D01*
X82633701Y-123125221D01*
G36*
X82633701Y-123125221D02*
G01*
X82633701Y-123440170D01*
X82177331Y-123440170D01*
X82177331Y-122983800D01*
X82492280Y-122983800D01*
X82633701Y-123125221D01*
G37*
X82633701Y-121854979D02*
X82492280Y-121996400D01*
X82177331Y-121996400D01*
X82177331Y-121540030D01*
X82633701Y-121540030D01*
X82633701Y-121854979D01*
G36*
X82633701Y-121854979D02*
G01*
X82492280Y-121996400D01*
X82177331Y-121996400D01*
X82177331Y-121540030D01*
X82633701Y-121540030D01*
X82633701Y-121854979D01*
G37*
X84077471Y-122783800D02*
X83762522Y-122783800D01*
X83621101Y-122642379D01*
X83621101Y-122337821D01*
X83762522Y-122196400D01*
X84077471Y-122196400D01*
X84077471Y-122783800D01*
G36*
X84077471Y-122783800D02*
G01*
X83762522Y-122783800D01*
X83621101Y-122642379D01*
X83621101Y-122337821D01*
X83762522Y-122196400D01*
X84077471Y-122196400D01*
X84077471Y-122783800D01*
G37*
X83421101Y-123125221D02*
X83421101Y-123440170D01*
X82833701Y-123440170D01*
X82833701Y-123125221D01*
X82975122Y-122983800D01*
X83279680Y-122983800D01*
X83421101Y-123125221D01*
G36*
X83421101Y-123125221D02*
G01*
X83421101Y-123440170D01*
X82833701Y-123440170D01*
X82833701Y-123125221D01*
X82975122Y-122983800D01*
X83279680Y-122983800D01*
X83421101Y-123125221D01*
G37*
X83421101Y-121854979D02*
X83279680Y-121996400D01*
X82975122Y-121996400D01*
X82833701Y-121854979D01*
X82833701Y-121540030D01*
X83421101Y-121540030D01*
X83421101Y-121854979D01*
G36*
X83421101Y-121854979D02*
G01*
X83279680Y-121996400D01*
X82975122Y-121996400D01*
X82833701Y-121854979D01*
X82833701Y-121540030D01*
X83421101Y-121540030D01*
X83421101Y-121854979D01*
G37*
X82633701Y-122337821D02*
X82633701Y-122642379D01*
X82492280Y-122783800D01*
X82177331Y-122783800D01*
X82177331Y-122196400D01*
X82492280Y-122196400D01*
X82633701Y-122337821D01*
G36*
X82633701Y-122337821D02*
G01*
X82633701Y-122642379D01*
X82492280Y-122783800D01*
X82177331Y-122783800D01*
X82177331Y-122196400D01*
X82492280Y-122196400D01*
X82633701Y-122337821D01*
G37*
X83421101Y-122337821D02*
X83421101Y-122642379D01*
X83279680Y-122783800D01*
X82975122Y-122783800D01*
X82833701Y-122642379D01*
X82833701Y-122337821D01*
X82975122Y-122196400D01*
X83279680Y-122196400D01*
X83421101Y-122337821D01*
G36*
X83421101Y-122337821D02*
G01*
X83421101Y-122642379D01*
X83279680Y-122783800D01*
X82975122Y-122783800D01*
X82833701Y-122642379D01*
X82833701Y-122337821D01*
X82975122Y-122196400D01*
X83279680Y-122196400D01*
X83421101Y-122337821D01*
G37*
%TO.C,U9*%
D11*
X91044130Y-144052529D02*
X91046130Y-144052529D01*
X91049130Y-144053529D01*
X91051130Y-144053529D01*
X91054130Y-144054529D01*
X91056130Y-144055529D01*
X91059130Y-144056529D01*
X91061130Y-144058529D01*
X91063130Y-144059529D01*
X91065130Y-144061529D01*
X91067130Y-144062529D01*
X91069130Y-144064529D01*
X91071130Y-144066529D01*
X91073130Y-144068529D01*
X91075130Y-144070529D01*
X91076130Y-144072529D01*
X91078130Y-144074529D01*
X91079130Y-144076529D01*
X91081130Y-144078529D01*
X91082130Y-144081529D01*
X91083130Y-144083529D01*
X91084130Y-144086529D01*
X91084130Y-144088529D01*
X91085130Y-144091529D01*
X91085130Y-144093529D01*
X91086130Y-144096529D01*
X91086130Y-144098529D01*
X91086130Y-144101529D01*
X91086130Y-144341529D01*
X91086130Y-144344529D01*
X91086130Y-144346529D01*
X91085130Y-144349529D01*
X91085130Y-144351529D01*
X91084130Y-144354529D01*
X91084130Y-144356529D01*
X91083130Y-144359529D01*
X91082130Y-144361529D01*
X91081130Y-144364529D01*
X91079130Y-144366529D01*
X91078130Y-144368529D01*
X91076130Y-144370529D01*
X91075130Y-144372529D01*
X91073130Y-144374529D01*
X91071130Y-144376529D01*
X91069130Y-144378529D01*
X91067130Y-144380529D01*
X91065130Y-144381529D01*
X91063130Y-144383529D01*
X91061130Y-144384529D01*
X91059130Y-144386529D01*
X91056130Y-144387529D01*
X91054130Y-144388529D01*
X91051130Y-144389529D01*
X91049130Y-144389529D01*
X91046130Y-144390529D01*
X91044130Y-144390529D01*
X91041130Y-144391529D01*
X91039130Y-144391529D01*
X91036130Y-144391529D01*
X90886130Y-144391529D01*
X90883130Y-144391529D01*
X90881130Y-144391529D01*
X90878130Y-144390529D01*
X90876130Y-144390529D01*
X90873130Y-144389529D01*
X90871130Y-144389529D01*
X90868130Y-144388529D01*
X90866130Y-144387529D01*
X90863130Y-144386529D01*
X90861130Y-144384529D01*
X90859130Y-144383529D01*
X90857130Y-144381529D01*
X90855130Y-144380529D01*
X90853130Y-144378529D01*
X90851130Y-144376529D01*
X90849130Y-144374529D01*
X90847130Y-144372529D01*
X90846130Y-144370529D01*
X90844130Y-144368529D01*
X90843130Y-144366529D01*
X90841130Y-144364529D01*
X90840130Y-144361529D01*
X90839130Y-144359529D01*
X90838130Y-144356529D01*
X90838130Y-144354529D01*
X90837130Y-144351529D01*
X90837130Y-144349529D01*
X90836130Y-144346529D01*
X90836130Y-144344529D01*
X90836130Y-144341529D01*
X90836130Y-144101529D01*
X90836130Y-144098529D01*
X90836130Y-144096529D01*
X90837130Y-144093529D01*
X90837130Y-144091529D01*
X90838130Y-144088529D01*
X90838130Y-144086529D01*
X90839130Y-144083529D01*
X90840130Y-144081529D01*
X90841130Y-144078529D01*
X90843130Y-144076529D01*
X90844130Y-144074529D01*
X90846130Y-144072529D01*
X90847130Y-144070529D01*
X90849130Y-144068529D01*
X90851130Y-144066529D01*
X90853130Y-144064529D01*
X90855130Y-144062529D01*
X90857130Y-144061529D01*
X90859130Y-144059529D01*
X90861130Y-144058529D01*
X90863130Y-144056529D01*
X90866130Y-144055529D01*
X90868130Y-144054529D01*
X90871130Y-144053529D01*
X90873130Y-144053529D01*
X90876130Y-144052529D01*
X90878130Y-144052529D01*
X90881130Y-144051529D01*
X90883130Y-144051529D01*
X90886130Y-144051529D01*
X91036130Y-144051529D01*
X91039130Y-144051529D01*
X91041130Y-144051529D01*
X91044130Y-144052529D01*
G36*
X91044130Y-144052529D02*
G01*
X91046130Y-144052529D01*
X91049130Y-144053529D01*
X91051130Y-144053529D01*
X91054130Y-144054529D01*
X91056130Y-144055529D01*
X91059130Y-144056529D01*
X91061130Y-144058529D01*
X91063130Y-144059529D01*
X91065130Y-144061529D01*
X91067130Y-144062529D01*
X91069130Y-144064529D01*
X91071130Y-144066529D01*
X91073130Y-144068529D01*
X91075130Y-144070529D01*
X91076130Y-144072529D01*
X91078130Y-144074529D01*
X91079130Y-144076529D01*
X91081130Y-144078529D01*
X91082130Y-144081529D01*
X91083130Y-144083529D01*
X91084130Y-144086529D01*
X91084130Y-144088529D01*
X91085130Y-144091529D01*
X91085130Y-144093529D01*
X91086130Y-144096529D01*
X91086130Y-144098529D01*
X91086130Y-144101529D01*
X91086130Y-144341529D01*
X91086130Y-144344529D01*
X91086130Y-144346529D01*
X91085130Y-144349529D01*
X91085130Y-144351529D01*
X91084130Y-144354529D01*
X91084130Y-144356529D01*
X91083130Y-144359529D01*
X91082130Y-144361529D01*
X91081130Y-144364529D01*
X91079130Y-144366529D01*
X91078130Y-144368529D01*
X91076130Y-144370529D01*
X91075130Y-144372529D01*
X91073130Y-144374529D01*
X91071130Y-144376529D01*
X91069130Y-144378529D01*
X91067130Y-144380529D01*
X91065130Y-144381529D01*
X91063130Y-144383529D01*
X91061130Y-144384529D01*
X91059130Y-144386529D01*
X91056130Y-144387529D01*
X91054130Y-144388529D01*
X91051130Y-144389529D01*
X91049130Y-144389529D01*
X91046130Y-144390529D01*
X91044130Y-144390529D01*
X91041130Y-144391529D01*
X91039130Y-144391529D01*
X91036130Y-144391529D01*
X90886130Y-144391529D01*
X90883130Y-144391529D01*
X90881130Y-144391529D01*
X90878130Y-144390529D01*
X90876130Y-144390529D01*
X90873130Y-144389529D01*
X90871130Y-144389529D01*
X90868130Y-144388529D01*
X90866130Y-144387529D01*
X90863130Y-144386529D01*
X90861130Y-144384529D01*
X90859130Y-144383529D01*
X90857130Y-144381529D01*
X90855130Y-144380529D01*
X90853130Y-144378529D01*
X90851130Y-144376529D01*
X90849130Y-144374529D01*
X90847130Y-144372529D01*
X90846130Y-144370529D01*
X90844130Y-144368529D01*
X90843130Y-144366529D01*
X90841130Y-144364529D01*
X90840130Y-144361529D01*
X90839130Y-144359529D01*
X90838130Y-144356529D01*
X90838130Y-144354529D01*
X90837130Y-144351529D01*
X90837130Y-144349529D01*
X90836130Y-144346529D01*
X90836130Y-144344529D01*
X90836130Y-144341529D01*
X90836130Y-144101529D01*
X90836130Y-144098529D01*
X90836130Y-144096529D01*
X90837130Y-144093529D01*
X90837130Y-144091529D01*
X90838130Y-144088529D01*
X90838130Y-144086529D01*
X90839130Y-144083529D01*
X90840130Y-144081529D01*
X90841130Y-144078529D01*
X90843130Y-144076529D01*
X90844130Y-144074529D01*
X90846130Y-144072529D01*
X90847130Y-144070529D01*
X90849130Y-144068529D01*
X90851130Y-144066529D01*
X90853130Y-144064529D01*
X90855130Y-144062529D01*
X90857130Y-144061529D01*
X90859130Y-144059529D01*
X90861130Y-144058529D01*
X90863130Y-144056529D01*
X90866130Y-144055529D01*
X90868130Y-144054529D01*
X90871130Y-144053529D01*
X90873130Y-144053529D01*
X90876130Y-144052529D01*
X90878130Y-144052529D01*
X90881130Y-144051529D01*
X90883130Y-144051529D01*
X90886130Y-144051529D01*
X91036130Y-144051529D01*
X91039130Y-144051529D01*
X91041130Y-144051529D01*
X91044130Y-144052529D01*
G37*
X91044130Y-140992529D02*
X91046130Y-140992529D01*
X91049130Y-140993529D01*
X91051130Y-140993529D01*
X91054130Y-140994529D01*
X91056130Y-140995529D01*
X91059130Y-140996529D01*
X91061130Y-140998529D01*
X91063130Y-140999529D01*
X91065130Y-141001529D01*
X91067130Y-141002529D01*
X91069130Y-141004529D01*
X91071130Y-141006529D01*
X91073130Y-141008529D01*
X91075130Y-141010529D01*
X91076130Y-141012529D01*
X91078130Y-141014529D01*
X91079130Y-141016529D01*
X91081130Y-141018529D01*
X91082130Y-141021529D01*
X91083130Y-141023529D01*
X91084130Y-141026529D01*
X91084130Y-141028529D01*
X91085130Y-141031529D01*
X91085130Y-141033529D01*
X91086130Y-141036529D01*
X91086130Y-141038529D01*
X91086130Y-141041529D01*
X91086130Y-141281529D01*
X91086130Y-141284529D01*
X91086130Y-141286529D01*
X91085130Y-141289529D01*
X91085130Y-141291529D01*
X91084130Y-141294529D01*
X91084130Y-141296529D01*
X91083130Y-141299529D01*
X91082130Y-141301529D01*
X91081130Y-141304529D01*
X91079130Y-141306529D01*
X91078130Y-141308529D01*
X91076130Y-141310529D01*
X91075130Y-141312529D01*
X91073130Y-141314529D01*
X91071130Y-141316529D01*
X91069130Y-141318529D01*
X91067130Y-141320529D01*
X91065130Y-141321529D01*
X91063130Y-141323529D01*
X91061130Y-141324529D01*
X91059130Y-141326529D01*
X91056130Y-141327529D01*
X91054130Y-141328529D01*
X91051130Y-141329529D01*
X91049130Y-141329529D01*
X91046130Y-141330529D01*
X91044130Y-141330529D01*
X91041130Y-141331529D01*
X91039130Y-141331529D01*
X91036130Y-141331529D01*
X90886130Y-141331529D01*
X90883130Y-141331529D01*
X90881130Y-141331529D01*
X90878130Y-141330529D01*
X90876130Y-141330529D01*
X90873130Y-141329529D01*
X90871130Y-141329529D01*
X90868130Y-141328529D01*
X90866130Y-141327529D01*
X90863130Y-141326529D01*
X90861130Y-141324529D01*
X90859130Y-141323529D01*
X90857130Y-141321529D01*
X90855130Y-141320529D01*
X90853130Y-141318529D01*
X90851130Y-141316529D01*
X90849130Y-141314529D01*
X90847130Y-141312529D01*
X90846130Y-141310529D01*
X90844130Y-141308529D01*
X90843130Y-141306529D01*
X90841130Y-141304529D01*
X90840130Y-141301529D01*
X90839130Y-141299529D01*
X90838130Y-141296529D01*
X90838130Y-141294529D01*
X90837130Y-141291529D01*
X90837130Y-141289529D01*
X90836130Y-141286529D01*
X90836130Y-141284529D01*
X90836130Y-141281529D01*
X90836130Y-141041529D01*
X90836130Y-141038529D01*
X90836130Y-141036529D01*
X90837130Y-141033529D01*
X90837130Y-141031529D01*
X90838130Y-141028529D01*
X90838130Y-141026529D01*
X90839130Y-141023529D01*
X90840130Y-141021529D01*
X90841130Y-141018529D01*
X90843130Y-141016529D01*
X90844130Y-141014529D01*
X90846130Y-141012529D01*
X90847130Y-141010529D01*
X90849130Y-141008529D01*
X90851130Y-141006529D01*
X90853130Y-141004529D01*
X90855130Y-141002529D01*
X90857130Y-141001529D01*
X90859130Y-140999529D01*
X90861130Y-140998529D01*
X90863130Y-140996529D01*
X90866130Y-140995529D01*
X90868130Y-140994529D01*
X90871130Y-140993529D01*
X90873130Y-140993529D01*
X90876130Y-140992529D01*
X90878130Y-140992529D01*
X90881130Y-140991529D01*
X90883130Y-140991529D01*
X90886130Y-140991529D01*
X91036130Y-140991529D01*
X91039130Y-140991529D01*
X91041130Y-140991529D01*
X91044130Y-140992529D01*
G36*
X91044130Y-140992529D02*
G01*
X91046130Y-140992529D01*
X91049130Y-140993529D01*
X91051130Y-140993529D01*
X91054130Y-140994529D01*
X91056130Y-140995529D01*
X91059130Y-140996529D01*
X91061130Y-140998529D01*
X91063130Y-140999529D01*
X91065130Y-141001529D01*
X91067130Y-141002529D01*
X91069130Y-141004529D01*
X91071130Y-141006529D01*
X91073130Y-141008529D01*
X91075130Y-141010529D01*
X91076130Y-141012529D01*
X91078130Y-141014529D01*
X91079130Y-141016529D01*
X91081130Y-141018529D01*
X91082130Y-141021529D01*
X91083130Y-141023529D01*
X91084130Y-141026529D01*
X91084130Y-141028529D01*
X91085130Y-141031529D01*
X91085130Y-141033529D01*
X91086130Y-141036529D01*
X91086130Y-141038529D01*
X91086130Y-141041529D01*
X91086130Y-141281529D01*
X91086130Y-141284529D01*
X91086130Y-141286529D01*
X91085130Y-141289529D01*
X91085130Y-141291529D01*
X91084130Y-141294529D01*
X91084130Y-141296529D01*
X91083130Y-141299529D01*
X91082130Y-141301529D01*
X91081130Y-141304529D01*
X91079130Y-141306529D01*
X91078130Y-141308529D01*
X91076130Y-141310529D01*
X91075130Y-141312529D01*
X91073130Y-141314529D01*
X91071130Y-141316529D01*
X91069130Y-141318529D01*
X91067130Y-141320529D01*
X91065130Y-141321529D01*
X91063130Y-141323529D01*
X91061130Y-141324529D01*
X91059130Y-141326529D01*
X91056130Y-141327529D01*
X91054130Y-141328529D01*
X91051130Y-141329529D01*
X91049130Y-141329529D01*
X91046130Y-141330529D01*
X91044130Y-141330529D01*
X91041130Y-141331529D01*
X91039130Y-141331529D01*
X91036130Y-141331529D01*
X90886130Y-141331529D01*
X90883130Y-141331529D01*
X90881130Y-141331529D01*
X90878130Y-141330529D01*
X90876130Y-141330529D01*
X90873130Y-141329529D01*
X90871130Y-141329529D01*
X90868130Y-141328529D01*
X90866130Y-141327529D01*
X90863130Y-141326529D01*
X90861130Y-141324529D01*
X90859130Y-141323529D01*
X90857130Y-141321529D01*
X90855130Y-141320529D01*
X90853130Y-141318529D01*
X90851130Y-141316529D01*
X90849130Y-141314529D01*
X90847130Y-141312529D01*
X90846130Y-141310529D01*
X90844130Y-141308529D01*
X90843130Y-141306529D01*
X90841130Y-141304529D01*
X90840130Y-141301529D01*
X90839130Y-141299529D01*
X90838130Y-141296529D01*
X90838130Y-141294529D01*
X90837130Y-141291529D01*
X90837130Y-141289529D01*
X90836130Y-141286529D01*
X90836130Y-141284529D01*
X90836130Y-141281529D01*
X90836130Y-141041529D01*
X90836130Y-141038529D01*
X90836130Y-141036529D01*
X90837130Y-141033529D01*
X90837130Y-141031529D01*
X90838130Y-141028529D01*
X90838130Y-141026529D01*
X90839130Y-141023529D01*
X90840130Y-141021529D01*
X90841130Y-141018529D01*
X90843130Y-141016529D01*
X90844130Y-141014529D01*
X90846130Y-141012529D01*
X90847130Y-141010529D01*
X90849130Y-141008529D01*
X90851130Y-141006529D01*
X90853130Y-141004529D01*
X90855130Y-141002529D01*
X90857130Y-141001529D01*
X90859130Y-140999529D01*
X90861130Y-140998529D01*
X90863130Y-140996529D01*
X90866130Y-140995529D01*
X90868130Y-140994529D01*
X90871130Y-140993529D01*
X90873130Y-140993529D01*
X90876130Y-140992529D01*
X90878130Y-140992529D01*
X90881130Y-140991529D01*
X90883130Y-140991529D01*
X90886130Y-140991529D01*
X91036130Y-140991529D01*
X91039130Y-140991529D01*
X91041130Y-140991529D01*
X91044130Y-140992529D01*
G37*
X90544130Y-144052529D02*
X90546130Y-144052529D01*
X90549130Y-144053529D01*
X90551130Y-144053529D01*
X90554130Y-144054529D01*
X90556130Y-144055529D01*
X90559130Y-144056529D01*
X90561130Y-144058529D01*
X90563130Y-144059529D01*
X90565130Y-144061529D01*
X90567130Y-144062529D01*
X90569130Y-144064529D01*
X90571130Y-144066529D01*
X90573130Y-144068529D01*
X90575130Y-144070529D01*
X90576130Y-144072529D01*
X90578130Y-144074529D01*
X90579130Y-144076529D01*
X90581130Y-144078529D01*
X90582130Y-144081529D01*
X90583130Y-144083529D01*
X90584130Y-144086529D01*
X90584130Y-144088529D01*
X90585130Y-144091529D01*
X90585130Y-144093529D01*
X90586130Y-144096529D01*
X90586130Y-144098529D01*
X90586130Y-144101529D01*
X90586130Y-144341529D01*
X90586130Y-144344529D01*
X90586130Y-144346529D01*
X90585130Y-144349529D01*
X90585130Y-144351529D01*
X90584130Y-144354529D01*
X90584130Y-144356529D01*
X90583130Y-144359529D01*
X90582130Y-144361529D01*
X90581130Y-144364529D01*
X90579130Y-144366529D01*
X90578130Y-144368529D01*
X90576130Y-144370529D01*
X90575130Y-144372529D01*
X90573130Y-144374529D01*
X90571130Y-144376529D01*
X90569130Y-144378529D01*
X90567130Y-144380529D01*
X90565130Y-144381529D01*
X90563130Y-144383529D01*
X90561130Y-144384529D01*
X90559130Y-144386529D01*
X90556130Y-144387529D01*
X90554130Y-144388529D01*
X90551130Y-144389529D01*
X90549130Y-144389529D01*
X90546130Y-144390529D01*
X90544130Y-144390529D01*
X90541130Y-144391529D01*
X90539130Y-144391529D01*
X90536130Y-144391529D01*
X90386130Y-144391529D01*
X90383130Y-144391529D01*
X90381130Y-144391529D01*
X90378130Y-144390529D01*
X90376130Y-144390529D01*
X90373130Y-144389529D01*
X90371130Y-144389529D01*
X90368130Y-144388529D01*
X90366130Y-144387529D01*
X90363130Y-144386529D01*
X90361130Y-144384529D01*
X90359130Y-144383529D01*
X90357130Y-144381529D01*
X90355130Y-144380529D01*
X90353130Y-144378529D01*
X90351130Y-144376529D01*
X90349130Y-144374529D01*
X90347130Y-144372529D01*
X90346130Y-144370529D01*
X90344130Y-144368529D01*
X90343130Y-144366529D01*
X90341130Y-144364529D01*
X90340130Y-144361529D01*
X90339130Y-144359529D01*
X90338130Y-144356529D01*
X90338130Y-144354529D01*
X90337130Y-144351529D01*
X90337130Y-144349529D01*
X90336130Y-144346529D01*
X90336130Y-144344529D01*
X90336130Y-144341529D01*
X90336130Y-144101529D01*
X90336130Y-144098529D01*
X90336130Y-144096529D01*
X90337130Y-144093529D01*
X90337130Y-144091529D01*
X90338130Y-144088529D01*
X90338130Y-144086529D01*
X90339130Y-144083529D01*
X90340130Y-144081529D01*
X90341130Y-144078529D01*
X90343130Y-144076529D01*
X90344130Y-144074529D01*
X90346130Y-144072529D01*
X90347130Y-144070529D01*
X90349130Y-144068529D01*
X90351130Y-144066529D01*
X90353130Y-144064529D01*
X90355130Y-144062529D01*
X90357130Y-144061529D01*
X90359130Y-144059529D01*
X90361130Y-144058529D01*
X90363130Y-144056529D01*
X90366130Y-144055529D01*
X90368130Y-144054529D01*
X90371130Y-144053529D01*
X90373130Y-144053529D01*
X90376130Y-144052529D01*
X90378130Y-144052529D01*
X90381130Y-144051529D01*
X90383130Y-144051529D01*
X90386130Y-144051529D01*
X90536130Y-144051529D01*
X90539130Y-144051529D01*
X90541130Y-144051529D01*
X90544130Y-144052529D01*
G36*
X90544130Y-144052529D02*
G01*
X90546130Y-144052529D01*
X90549130Y-144053529D01*
X90551130Y-144053529D01*
X90554130Y-144054529D01*
X90556130Y-144055529D01*
X90559130Y-144056529D01*
X90561130Y-144058529D01*
X90563130Y-144059529D01*
X90565130Y-144061529D01*
X90567130Y-144062529D01*
X90569130Y-144064529D01*
X90571130Y-144066529D01*
X90573130Y-144068529D01*
X90575130Y-144070529D01*
X90576130Y-144072529D01*
X90578130Y-144074529D01*
X90579130Y-144076529D01*
X90581130Y-144078529D01*
X90582130Y-144081529D01*
X90583130Y-144083529D01*
X90584130Y-144086529D01*
X90584130Y-144088529D01*
X90585130Y-144091529D01*
X90585130Y-144093529D01*
X90586130Y-144096529D01*
X90586130Y-144098529D01*
X90586130Y-144101529D01*
X90586130Y-144341529D01*
X90586130Y-144344529D01*
X90586130Y-144346529D01*
X90585130Y-144349529D01*
X90585130Y-144351529D01*
X90584130Y-144354529D01*
X90584130Y-144356529D01*
X90583130Y-144359529D01*
X90582130Y-144361529D01*
X90581130Y-144364529D01*
X90579130Y-144366529D01*
X90578130Y-144368529D01*
X90576130Y-144370529D01*
X90575130Y-144372529D01*
X90573130Y-144374529D01*
X90571130Y-144376529D01*
X90569130Y-144378529D01*
X90567130Y-144380529D01*
X90565130Y-144381529D01*
X90563130Y-144383529D01*
X90561130Y-144384529D01*
X90559130Y-144386529D01*
X90556130Y-144387529D01*
X90554130Y-144388529D01*
X90551130Y-144389529D01*
X90549130Y-144389529D01*
X90546130Y-144390529D01*
X90544130Y-144390529D01*
X90541130Y-144391529D01*
X90539130Y-144391529D01*
X90536130Y-144391529D01*
X90386130Y-144391529D01*
X90383130Y-144391529D01*
X90381130Y-144391529D01*
X90378130Y-144390529D01*
X90376130Y-144390529D01*
X90373130Y-144389529D01*
X90371130Y-144389529D01*
X90368130Y-144388529D01*
X90366130Y-144387529D01*
X90363130Y-144386529D01*
X90361130Y-144384529D01*
X90359130Y-144383529D01*
X90357130Y-144381529D01*
X90355130Y-144380529D01*
X90353130Y-144378529D01*
X90351130Y-144376529D01*
X90349130Y-144374529D01*
X90347130Y-144372529D01*
X90346130Y-144370529D01*
X90344130Y-144368529D01*
X90343130Y-144366529D01*
X90341130Y-144364529D01*
X90340130Y-144361529D01*
X90339130Y-144359529D01*
X90338130Y-144356529D01*
X90338130Y-144354529D01*
X90337130Y-144351529D01*
X90337130Y-144349529D01*
X90336130Y-144346529D01*
X90336130Y-144344529D01*
X90336130Y-144341529D01*
X90336130Y-144101529D01*
X90336130Y-144098529D01*
X90336130Y-144096529D01*
X90337130Y-144093529D01*
X90337130Y-144091529D01*
X90338130Y-144088529D01*
X90338130Y-144086529D01*
X90339130Y-144083529D01*
X90340130Y-144081529D01*
X90341130Y-144078529D01*
X90343130Y-144076529D01*
X90344130Y-144074529D01*
X90346130Y-144072529D01*
X90347130Y-144070529D01*
X90349130Y-144068529D01*
X90351130Y-144066529D01*
X90353130Y-144064529D01*
X90355130Y-144062529D01*
X90357130Y-144061529D01*
X90359130Y-144059529D01*
X90361130Y-144058529D01*
X90363130Y-144056529D01*
X90366130Y-144055529D01*
X90368130Y-144054529D01*
X90371130Y-144053529D01*
X90373130Y-144053529D01*
X90376130Y-144052529D01*
X90378130Y-144052529D01*
X90381130Y-144051529D01*
X90383130Y-144051529D01*
X90386130Y-144051529D01*
X90536130Y-144051529D01*
X90539130Y-144051529D01*
X90541130Y-144051529D01*
X90544130Y-144052529D01*
G37*
X90544130Y-140992529D02*
X90546130Y-140992529D01*
X90549130Y-140993529D01*
X90551130Y-140993529D01*
X90554130Y-140994529D01*
X90556130Y-140995529D01*
X90559130Y-140996529D01*
X90561130Y-140998529D01*
X90563130Y-140999529D01*
X90565130Y-141001529D01*
X90567130Y-141002529D01*
X90569130Y-141004529D01*
X90571130Y-141006529D01*
X90573130Y-141008529D01*
X90575130Y-141010529D01*
X90576130Y-141012529D01*
X90578130Y-141014529D01*
X90579130Y-141016529D01*
X90581130Y-141018529D01*
X90582130Y-141021529D01*
X90583130Y-141023529D01*
X90584130Y-141026529D01*
X90584130Y-141028529D01*
X90585130Y-141031529D01*
X90585130Y-141033529D01*
X90586130Y-141036529D01*
X90586130Y-141038529D01*
X90586130Y-141041529D01*
X90586130Y-141281529D01*
X90586130Y-141284529D01*
X90586130Y-141286529D01*
X90585130Y-141289529D01*
X90585130Y-141291529D01*
X90584130Y-141294529D01*
X90584130Y-141296529D01*
X90583130Y-141299529D01*
X90582130Y-141301529D01*
X90581130Y-141304529D01*
X90579130Y-141306529D01*
X90578130Y-141308529D01*
X90576130Y-141310529D01*
X90575130Y-141312529D01*
X90573130Y-141314529D01*
X90571130Y-141316529D01*
X90569130Y-141318529D01*
X90567130Y-141320529D01*
X90565130Y-141321529D01*
X90563130Y-141323529D01*
X90561130Y-141324529D01*
X90559130Y-141326529D01*
X90556130Y-141327529D01*
X90554130Y-141328529D01*
X90551130Y-141329529D01*
X90549130Y-141329529D01*
X90546130Y-141330529D01*
X90544130Y-141330529D01*
X90541130Y-141331529D01*
X90539130Y-141331529D01*
X90536130Y-141331529D01*
X90386130Y-141331529D01*
X90383130Y-141331529D01*
X90381130Y-141331529D01*
X90378130Y-141330529D01*
X90376130Y-141330529D01*
X90373130Y-141329529D01*
X90371130Y-141329529D01*
X90368130Y-141328529D01*
X90366130Y-141327529D01*
X90363130Y-141326529D01*
X90361130Y-141324529D01*
X90359130Y-141323529D01*
X90357130Y-141321529D01*
X90355130Y-141320529D01*
X90353130Y-141318529D01*
X90351130Y-141316529D01*
X90349130Y-141314529D01*
X90347130Y-141312529D01*
X90346130Y-141310529D01*
X90344130Y-141308529D01*
X90343130Y-141306529D01*
X90341130Y-141304529D01*
X90340130Y-141301529D01*
X90339130Y-141299529D01*
X90338130Y-141296529D01*
X90338130Y-141294529D01*
X90337130Y-141291529D01*
X90337130Y-141289529D01*
X90336130Y-141286529D01*
X90336130Y-141284529D01*
X90336130Y-141281529D01*
X90336130Y-141041529D01*
X90336130Y-141038529D01*
X90336130Y-141036529D01*
X90337130Y-141033529D01*
X90337130Y-141031529D01*
X90338130Y-141028529D01*
X90338130Y-141026529D01*
X90339130Y-141023529D01*
X90340130Y-141021529D01*
X90341130Y-141018529D01*
X90343130Y-141016529D01*
X90344130Y-141014529D01*
X90346130Y-141012529D01*
X90347130Y-141010529D01*
X90349130Y-141008529D01*
X90351130Y-141006529D01*
X90353130Y-141004529D01*
X90355130Y-141002529D01*
X90357130Y-141001529D01*
X90359130Y-140999529D01*
X90361130Y-140998529D01*
X90363130Y-140996529D01*
X90366130Y-140995529D01*
X90368130Y-140994529D01*
X90371130Y-140993529D01*
X90373130Y-140993529D01*
X90376130Y-140992529D01*
X90378130Y-140992529D01*
X90381130Y-140991529D01*
X90383130Y-140991529D01*
X90386130Y-140991529D01*
X90536130Y-140991529D01*
X90539130Y-140991529D01*
X90541130Y-140991529D01*
X90544130Y-140992529D01*
G36*
X90544130Y-140992529D02*
G01*
X90546130Y-140992529D01*
X90549130Y-140993529D01*
X90551130Y-140993529D01*
X90554130Y-140994529D01*
X90556130Y-140995529D01*
X90559130Y-140996529D01*
X90561130Y-140998529D01*
X90563130Y-140999529D01*
X90565130Y-141001529D01*
X90567130Y-141002529D01*
X90569130Y-141004529D01*
X90571130Y-141006529D01*
X90573130Y-141008529D01*
X90575130Y-141010529D01*
X90576130Y-141012529D01*
X90578130Y-141014529D01*
X90579130Y-141016529D01*
X90581130Y-141018529D01*
X90582130Y-141021529D01*
X90583130Y-141023529D01*
X90584130Y-141026529D01*
X90584130Y-141028529D01*
X90585130Y-141031529D01*
X90585130Y-141033529D01*
X90586130Y-141036529D01*
X90586130Y-141038529D01*
X90586130Y-141041529D01*
X90586130Y-141281529D01*
X90586130Y-141284529D01*
X90586130Y-141286529D01*
X90585130Y-141289529D01*
X90585130Y-141291529D01*
X90584130Y-141294529D01*
X90584130Y-141296529D01*
X90583130Y-141299529D01*
X90582130Y-141301529D01*
X90581130Y-141304529D01*
X90579130Y-141306529D01*
X90578130Y-141308529D01*
X90576130Y-141310529D01*
X90575130Y-141312529D01*
X90573130Y-141314529D01*
X90571130Y-141316529D01*
X90569130Y-141318529D01*
X90567130Y-141320529D01*
X90565130Y-141321529D01*
X90563130Y-141323529D01*
X90561130Y-141324529D01*
X90559130Y-141326529D01*
X90556130Y-141327529D01*
X90554130Y-141328529D01*
X90551130Y-141329529D01*
X90549130Y-141329529D01*
X90546130Y-141330529D01*
X90544130Y-141330529D01*
X90541130Y-141331529D01*
X90539130Y-141331529D01*
X90536130Y-141331529D01*
X90386130Y-141331529D01*
X90383130Y-141331529D01*
X90381130Y-141331529D01*
X90378130Y-141330529D01*
X90376130Y-141330529D01*
X90373130Y-141329529D01*
X90371130Y-141329529D01*
X90368130Y-141328529D01*
X90366130Y-141327529D01*
X90363130Y-141326529D01*
X90361130Y-141324529D01*
X90359130Y-141323529D01*
X90357130Y-141321529D01*
X90355130Y-141320529D01*
X90353130Y-141318529D01*
X90351130Y-141316529D01*
X90349130Y-141314529D01*
X90347130Y-141312529D01*
X90346130Y-141310529D01*
X90344130Y-141308529D01*
X90343130Y-141306529D01*
X90341130Y-141304529D01*
X90340130Y-141301529D01*
X90339130Y-141299529D01*
X90338130Y-141296529D01*
X90338130Y-141294529D01*
X90337130Y-141291529D01*
X90337130Y-141289529D01*
X90336130Y-141286529D01*
X90336130Y-141284529D01*
X90336130Y-141281529D01*
X90336130Y-141041529D01*
X90336130Y-141038529D01*
X90336130Y-141036529D01*
X90337130Y-141033529D01*
X90337130Y-141031529D01*
X90338130Y-141028529D01*
X90338130Y-141026529D01*
X90339130Y-141023529D01*
X90340130Y-141021529D01*
X90341130Y-141018529D01*
X90343130Y-141016529D01*
X90344130Y-141014529D01*
X90346130Y-141012529D01*
X90347130Y-141010529D01*
X90349130Y-141008529D01*
X90351130Y-141006529D01*
X90353130Y-141004529D01*
X90355130Y-141002529D01*
X90357130Y-141001529D01*
X90359130Y-140999529D01*
X90361130Y-140998529D01*
X90363130Y-140996529D01*
X90366130Y-140995529D01*
X90368130Y-140994529D01*
X90371130Y-140993529D01*
X90373130Y-140993529D01*
X90376130Y-140992529D01*
X90378130Y-140992529D01*
X90381130Y-140991529D01*
X90383130Y-140991529D01*
X90386130Y-140991529D01*
X90536130Y-140991529D01*
X90539130Y-140991529D01*
X90541130Y-140991529D01*
X90544130Y-140992529D01*
G37*
X91419130Y-142792529D02*
X91421130Y-142792529D01*
X91424130Y-142793529D01*
X91426130Y-142793529D01*
X91429130Y-142794529D01*
X91431130Y-142795529D01*
X91434130Y-142796529D01*
X91436130Y-142798529D01*
X91438130Y-142799529D01*
X91440130Y-142801529D01*
X91442130Y-142802529D01*
X91444130Y-142804529D01*
X91446130Y-142806529D01*
X91448130Y-142808529D01*
X91450130Y-142810529D01*
X91451130Y-142812529D01*
X91453130Y-142814529D01*
X91454130Y-142816529D01*
X91456130Y-142818529D01*
X91457130Y-142821529D01*
X91458130Y-142823529D01*
X91459130Y-142826529D01*
X91459130Y-142828529D01*
X91460130Y-142831529D01*
X91460130Y-142833529D01*
X91461130Y-142836529D01*
X91461130Y-142838529D01*
X91461130Y-142841529D01*
X91461130Y-143801529D01*
X91461130Y-143804529D01*
X91461130Y-143806529D01*
X91460130Y-143809529D01*
X91460130Y-143811529D01*
X91459130Y-143814529D01*
X91459130Y-143816529D01*
X91458130Y-143819529D01*
X91457130Y-143821529D01*
X91456130Y-143824529D01*
X91454130Y-143826529D01*
X91453130Y-143828529D01*
X91451130Y-143830529D01*
X91450130Y-143832529D01*
X91448130Y-143834529D01*
X91446130Y-143836529D01*
X91444130Y-143838529D01*
X91442130Y-143840529D01*
X91440130Y-143841529D01*
X91438130Y-143843529D01*
X91436130Y-143844529D01*
X91434130Y-143846529D01*
X91431130Y-143847529D01*
X91429130Y-143848529D01*
X91426130Y-143849529D01*
X91424130Y-143849529D01*
X91421130Y-143850529D01*
X91419130Y-143850529D01*
X91416130Y-143851529D01*
X91414130Y-143851529D01*
X91411130Y-143851529D01*
X90011130Y-143851529D01*
X90008130Y-143851529D01*
X90006130Y-143851529D01*
X90003130Y-143850529D01*
X90001130Y-143850529D01*
X89998130Y-143849529D01*
X89996130Y-143849529D01*
X89993130Y-143848529D01*
X89991130Y-143847529D01*
X89988130Y-143846529D01*
X89986130Y-143844529D01*
X89984130Y-143843529D01*
X89982130Y-143841529D01*
X89980130Y-143840529D01*
X89978130Y-143838529D01*
X89976130Y-143836529D01*
X89974130Y-143834529D01*
X89972130Y-143832529D01*
X89971130Y-143830529D01*
X89969130Y-143828529D01*
X89968130Y-143826529D01*
X89966130Y-143824529D01*
X89965130Y-143821529D01*
X89964130Y-143819529D01*
X89963130Y-143816529D01*
X89963130Y-143814529D01*
X89962130Y-143811529D01*
X89962130Y-143809529D01*
X89961130Y-143806529D01*
X89961130Y-143804529D01*
X89961130Y-143801529D01*
X89961130Y-142841529D01*
X89961130Y-142838529D01*
X89961130Y-142836529D01*
X89962130Y-142833529D01*
X89962130Y-142831529D01*
X89963130Y-142828529D01*
X89963130Y-142826529D01*
X89964130Y-142823529D01*
X89965130Y-142821529D01*
X89966130Y-142818529D01*
X89968130Y-142816529D01*
X89969130Y-142814529D01*
X89971130Y-142812529D01*
X89972130Y-142810529D01*
X89974130Y-142808529D01*
X89976130Y-142806529D01*
X89978130Y-142804529D01*
X89980130Y-142802529D01*
X89982130Y-142801529D01*
X89984130Y-142799529D01*
X89986130Y-142798529D01*
X89988130Y-142796529D01*
X89991130Y-142795529D01*
X89993130Y-142794529D01*
X89996130Y-142793529D01*
X89998130Y-142793529D01*
X90001130Y-142792529D01*
X90003130Y-142792529D01*
X90006130Y-142791529D01*
X90008130Y-142791529D01*
X90011130Y-142791529D01*
X91411130Y-142791529D01*
X91414130Y-142791529D01*
X91416130Y-142791529D01*
X91419130Y-142792529D01*
G36*
X91419130Y-142792529D02*
G01*
X91421130Y-142792529D01*
X91424130Y-142793529D01*
X91426130Y-142793529D01*
X91429130Y-142794529D01*
X91431130Y-142795529D01*
X91434130Y-142796529D01*
X91436130Y-142798529D01*
X91438130Y-142799529D01*
X91440130Y-142801529D01*
X91442130Y-142802529D01*
X91444130Y-142804529D01*
X91446130Y-142806529D01*
X91448130Y-142808529D01*
X91450130Y-142810529D01*
X91451130Y-142812529D01*
X91453130Y-142814529D01*
X91454130Y-142816529D01*
X91456130Y-142818529D01*
X91457130Y-142821529D01*
X91458130Y-142823529D01*
X91459130Y-142826529D01*
X91459130Y-142828529D01*
X91460130Y-142831529D01*
X91460130Y-142833529D01*
X91461130Y-142836529D01*
X91461130Y-142838529D01*
X91461130Y-142841529D01*
X91461130Y-143801529D01*
X91461130Y-143804529D01*
X91461130Y-143806529D01*
X91460130Y-143809529D01*
X91460130Y-143811529D01*
X91459130Y-143814529D01*
X91459130Y-143816529D01*
X91458130Y-143819529D01*
X91457130Y-143821529D01*
X91456130Y-143824529D01*
X91454130Y-143826529D01*
X91453130Y-143828529D01*
X91451130Y-143830529D01*
X91450130Y-143832529D01*
X91448130Y-143834529D01*
X91446130Y-143836529D01*
X91444130Y-143838529D01*
X91442130Y-143840529D01*
X91440130Y-143841529D01*
X91438130Y-143843529D01*
X91436130Y-143844529D01*
X91434130Y-143846529D01*
X91431130Y-143847529D01*
X91429130Y-143848529D01*
X91426130Y-143849529D01*
X91424130Y-143849529D01*
X91421130Y-143850529D01*
X91419130Y-143850529D01*
X91416130Y-143851529D01*
X91414130Y-143851529D01*
X91411130Y-143851529D01*
X90011130Y-143851529D01*
X90008130Y-143851529D01*
X90006130Y-143851529D01*
X90003130Y-143850529D01*
X90001130Y-143850529D01*
X89998130Y-143849529D01*
X89996130Y-143849529D01*
X89993130Y-143848529D01*
X89991130Y-143847529D01*
X89988130Y-143846529D01*
X89986130Y-143844529D01*
X89984130Y-143843529D01*
X89982130Y-143841529D01*
X89980130Y-143840529D01*
X89978130Y-143838529D01*
X89976130Y-143836529D01*
X89974130Y-143834529D01*
X89972130Y-143832529D01*
X89971130Y-143830529D01*
X89969130Y-143828529D01*
X89968130Y-143826529D01*
X89966130Y-143824529D01*
X89965130Y-143821529D01*
X89964130Y-143819529D01*
X89963130Y-143816529D01*
X89963130Y-143814529D01*
X89962130Y-143811529D01*
X89962130Y-143809529D01*
X89961130Y-143806529D01*
X89961130Y-143804529D01*
X89961130Y-143801529D01*
X89961130Y-142841529D01*
X89961130Y-142838529D01*
X89961130Y-142836529D01*
X89962130Y-142833529D01*
X89962130Y-142831529D01*
X89963130Y-142828529D01*
X89963130Y-142826529D01*
X89964130Y-142823529D01*
X89965130Y-142821529D01*
X89966130Y-142818529D01*
X89968130Y-142816529D01*
X89969130Y-142814529D01*
X89971130Y-142812529D01*
X89972130Y-142810529D01*
X89974130Y-142808529D01*
X89976130Y-142806529D01*
X89978130Y-142804529D01*
X89980130Y-142802529D01*
X89982130Y-142801529D01*
X89984130Y-142799529D01*
X89986130Y-142798529D01*
X89988130Y-142796529D01*
X89991130Y-142795529D01*
X89993130Y-142794529D01*
X89996130Y-142793529D01*
X89998130Y-142793529D01*
X90001130Y-142792529D01*
X90003130Y-142792529D01*
X90006130Y-142791529D01*
X90008130Y-142791529D01*
X90011130Y-142791529D01*
X91411130Y-142791529D01*
X91414130Y-142791529D01*
X91416130Y-142791529D01*
X91419130Y-142792529D01*
G37*
X91419130Y-141532529D02*
X91421130Y-141532529D01*
X91424130Y-141533529D01*
X91426130Y-141533529D01*
X91429130Y-141534529D01*
X91431130Y-141535529D01*
X91434130Y-141536529D01*
X91436130Y-141538529D01*
X91438130Y-141539529D01*
X91440130Y-141541529D01*
X91442130Y-141542529D01*
X91444130Y-141544529D01*
X91446130Y-141546529D01*
X91448130Y-141548529D01*
X91450130Y-141550529D01*
X91451130Y-141552529D01*
X91453130Y-141554529D01*
X91454130Y-141556529D01*
X91456130Y-141558529D01*
X91457130Y-141561529D01*
X91458130Y-141563529D01*
X91459130Y-141566529D01*
X91459130Y-141568529D01*
X91460130Y-141571529D01*
X91460130Y-141573529D01*
X91461130Y-141576529D01*
X91461130Y-141578529D01*
X91461130Y-141581529D01*
X91461130Y-142541529D01*
X91461130Y-142544529D01*
X91461130Y-142546529D01*
X91460130Y-142549529D01*
X91460130Y-142551529D01*
X91459130Y-142554529D01*
X91459130Y-142556529D01*
X91458130Y-142559529D01*
X91457130Y-142561529D01*
X91456130Y-142564529D01*
X91454130Y-142566529D01*
X91453130Y-142568529D01*
X91451130Y-142570529D01*
X91450130Y-142572529D01*
X91448130Y-142574529D01*
X91446130Y-142576529D01*
X91444130Y-142578529D01*
X91442130Y-142580529D01*
X91440130Y-142581529D01*
X91438130Y-142583529D01*
X91436130Y-142584529D01*
X91434130Y-142586529D01*
X91431130Y-142587529D01*
X91429130Y-142588529D01*
X91426130Y-142589529D01*
X91424130Y-142589529D01*
X91421130Y-142590529D01*
X91419130Y-142590529D01*
X91416130Y-142591529D01*
X91414130Y-142591529D01*
X91411130Y-142591529D01*
X90011130Y-142591529D01*
X90008130Y-142591529D01*
X90006130Y-142591529D01*
X90003130Y-142590529D01*
X90001130Y-142590529D01*
X89998130Y-142589529D01*
X89996130Y-142589529D01*
X89993130Y-142588529D01*
X89991130Y-142587529D01*
X89988130Y-142586529D01*
X89986130Y-142584529D01*
X89984130Y-142583529D01*
X89982130Y-142581529D01*
X89980130Y-142580529D01*
X89978130Y-142578529D01*
X89976130Y-142576529D01*
X89974130Y-142574529D01*
X89972130Y-142572529D01*
X89971130Y-142570529D01*
X89969130Y-142568529D01*
X89968130Y-142566529D01*
X89966130Y-142564529D01*
X89965130Y-142561529D01*
X89964130Y-142559529D01*
X89963130Y-142556529D01*
X89963130Y-142554529D01*
X89962130Y-142551529D01*
X89962130Y-142549529D01*
X89961130Y-142546529D01*
X89961130Y-142544529D01*
X89961130Y-142541529D01*
X89961130Y-141581529D01*
X89961130Y-141578529D01*
X89961130Y-141576529D01*
X89962130Y-141573529D01*
X89962130Y-141571529D01*
X89963130Y-141568529D01*
X89963130Y-141566529D01*
X89964130Y-141563529D01*
X89965130Y-141561529D01*
X89966130Y-141558529D01*
X89968130Y-141556529D01*
X89969130Y-141554529D01*
X89971130Y-141552529D01*
X89972130Y-141550529D01*
X89974130Y-141548529D01*
X89976130Y-141546529D01*
X89978130Y-141544529D01*
X89980130Y-141542529D01*
X89982130Y-141541529D01*
X89984130Y-141539529D01*
X89986130Y-141538529D01*
X89988130Y-141536529D01*
X89991130Y-141535529D01*
X89993130Y-141534529D01*
X89996130Y-141533529D01*
X89998130Y-141533529D01*
X90001130Y-141532529D01*
X90003130Y-141532529D01*
X90006130Y-141531529D01*
X90008130Y-141531529D01*
X90011130Y-141531529D01*
X91411130Y-141531529D01*
X91414130Y-141531529D01*
X91416130Y-141531529D01*
X91419130Y-141532529D01*
G36*
X91419130Y-141532529D02*
G01*
X91421130Y-141532529D01*
X91424130Y-141533529D01*
X91426130Y-141533529D01*
X91429130Y-141534529D01*
X91431130Y-141535529D01*
X91434130Y-141536529D01*
X91436130Y-141538529D01*
X91438130Y-141539529D01*
X91440130Y-141541529D01*
X91442130Y-141542529D01*
X91444130Y-141544529D01*
X91446130Y-141546529D01*
X91448130Y-141548529D01*
X91450130Y-141550529D01*
X91451130Y-141552529D01*
X91453130Y-141554529D01*
X91454130Y-141556529D01*
X91456130Y-141558529D01*
X91457130Y-141561529D01*
X91458130Y-141563529D01*
X91459130Y-141566529D01*
X91459130Y-141568529D01*
X91460130Y-141571529D01*
X91460130Y-141573529D01*
X91461130Y-141576529D01*
X91461130Y-141578529D01*
X91461130Y-141581529D01*
X91461130Y-142541529D01*
X91461130Y-142544529D01*
X91461130Y-142546529D01*
X91460130Y-142549529D01*
X91460130Y-142551529D01*
X91459130Y-142554529D01*
X91459130Y-142556529D01*
X91458130Y-142559529D01*
X91457130Y-142561529D01*
X91456130Y-142564529D01*
X91454130Y-142566529D01*
X91453130Y-142568529D01*
X91451130Y-142570529D01*
X91450130Y-142572529D01*
X91448130Y-142574529D01*
X91446130Y-142576529D01*
X91444130Y-142578529D01*
X91442130Y-142580529D01*
X91440130Y-142581529D01*
X91438130Y-142583529D01*
X91436130Y-142584529D01*
X91434130Y-142586529D01*
X91431130Y-142587529D01*
X91429130Y-142588529D01*
X91426130Y-142589529D01*
X91424130Y-142589529D01*
X91421130Y-142590529D01*
X91419130Y-142590529D01*
X91416130Y-142591529D01*
X91414130Y-142591529D01*
X91411130Y-142591529D01*
X90011130Y-142591529D01*
X90008130Y-142591529D01*
X90006130Y-142591529D01*
X90003130Y-142590529D01*
X90001130Y-142590529D01*
X89998130Y-142589529D01*
X89996130Y-142589529D01*
X89993130Y-142588529D01*
X89991130Y-142587529D01*
X89988130Y-142586529D01*
X89986130Y-142584529D01*
X89984130Y-142583529D01*
X89982130Y-142581529D01*
X89980130Y-142580529D01*
X89978130Y-142578529D01*
X89976130Y-142576529D01*
X89974130Y-142574529D01*
X89972130Y-142572529D01*
X89971130Y-142570529D01*
X89969130Y-142568529D01*
X89968130Y-142566529D01*
X89966130Y-142564529D01*
X89965130Y-142561529D01*
X89964130Y-142559529D01*
X89963130Y-142556529D01*
X89963130Y-142554529D01*
X89962130Y-142551529D01*
X89962130Y-142549529D01*
X89961130Y-142546529D01*
X89961130Y-142544529D01*
X89961130Y-142541529D01*
X89961130Y-141581529D01*
X89961130Y-141578529D01*
X89961130Y-141576529D01*
X89962130Y-141573529D01*
X89962130Y-141571529D01*
X89963130Y-141568529D01*
X89963130Y-141566529D01*
X89964130Y-141563529D01*
X89965130Y-141561529D01*
X89966130Y-141558529D01*
X89968130Y-141556529D01*
X89969130Y-141554529D01*
X89971130Y-141552529D01*
X89972130Y-141550529D01*
X89974130Y-141548529D01*
X89976130Y-141546529D01*
X89978130Y-141544529D01*
X89980130Y-141542529D01*
X89982130Y-141541529D01*
X89984130Y-141539529D01*
X89986130Y-141538529D01*
X89988130Y-141536529D01*
X89991130Y-141535529D01*
X89993130Y-141534529D01*
X89996130Y-141533529D01*
X89998130Y-141533529D01*
X90001130Y-141532529D01*
X90003130Y-141532529D01*
X90006130Y-141531529D01*
X90008130Y-141531529D01*
X90011130Y-141531529D01*
X91411130Y-141531529D01*
X91414130Y-141531529D01*
X91416130Y-141531529D01*
X91419130Y-141532529D01*
G37*
%TO.C,U25*%
G36*
X124950000Y-113350000D02*
G01*
X125650000Y-113350000D01*
X125650000Y-112350000D01*
X124950000Y-112350000D01*
X124950000Y-113350000D01*
G37*
G36*
X125850000Y-113350000D02*
G01*
X126550000Y-113350000D01*
X126550000Y-112350000D01*
X125850000Y-112350000D01*
X125850000Y-113350000D01*
G37*
%TO.C,Q6*%
D10*
X71906655Y-135955140D02*
X71728347Y-135955140D01*
X71728347Y-135206856D01*
X71906655Y-135206856D01*
X71906655Y-135955140D01*
G36*
X71906655Y-135955140D02*
G01*
X71728347Y-135955140D01*
X71728347Y-135206856D01*
X71906655Y-135206856D01*
X71906655Y-135955140D01*
G37*
X71406653Y-135955140D02*
X71228345Y-135955140D01*
X71228345Y-135206856D01*
X71406653Y-135206856D01*
X71406653Y-135955140D01*
G36*
X71406653Y-135955140D02*
G01*
X71228345Y-135955140D01*
X71228345Y-135206856D01*
X71406653Y-135206856D01*
X71406653Y-135955140D01*
G37*
X70906654Y-135955140D02*
X70728346Y-135955140D01*
X70728346Y-135206856D01*
X70906654Y-135206856D01*
X70906654Y-135955140D01*
G36*
X70906654Y-135955140D02*
G01*
X70728346Y-135955140D01*
X70728346Y-135206856D01*
X70906654Y-135206856D01*
X70906654Y-135955140D01*
G37*
X70406655Y-135955140D02*
X70228347Y-135955140D01*
X70228347Y-135206856D01*
X70406655Y-135206856D01*
X70406655Y-135955140D01*
G36*
X70406655Y-135955140D02*
G01*
X70228347Y-135955140D01*
X70228347Y-135206856D01*
X70406655Y-135206856D01*
X70406655Y-135955140D01*
G37*
X69906653Y-135955140D02*
X69728345Y-135955140D01*
X69728345Y-135206856D01*
X69906653Y-135206856D01*
X69906653Y-135955140D01*
G36*
X69906653Y-135955140D02*
G01*
X69728345Y-135955140D01*
X69728345Y-135206856D01*
X69906653Y-135206856D01*
X69906653Y-135955140D01*
G37*
X72922642Y-136689152D02*
X72174358Y-136689152D01*
X72174358Y-136510844D01*
X72922642Y-136510844D01*
X72922642Y-136689152D01*
G36*
X72922642Y-136689152D02*
G01*
X72174358Y-136689152D01*
X72174358Y-136510844D01*
X72922642Y-136510844D01*
X72922642Y-136689152D01*
G37*
X69460642Y-136689152D02*
X68712358Y-136689152D01*
X68712358Y-136510844D01*
X69460642Y-136510844D01*
X69460642Y-136689152D01*
G36*
X69460642Y-136689152D02*
G01*
X68712358Y-136689152D01*
X68712358Y-136510844D01*
X69460642Y-136510844D01*
X69460642Y-136689152D01*
G37*
X72922642Y-138189154D02*
X72174358Y-138189154D01*
X72174358Y-138010846D01*
X72922642Y-138010846D01*
X72922642Y-138189154D01*
G36*
X72922642Y-138189154D02*
G01*
X72174358Y-138189154D01*
X72174358Y-138010846D01*
X72922642Y-138010846D01*
X72922642Y-138189154D01*
G37*
X69460642Y-138189154D02*
X68712358Y-138189154D01*
X68712358Y-138010846D01*
X69460642Y-138010846D01*
X69460642Y-138189154D01*
G36*
X69460642Y-138189154D02*
G01*
X68712358Y-138189154D01*
X68712358Y-138010846D01*
X69460642Y-138010846D01*
X69460642Y-138189154D01*
G37*
X71906655Y-139493142D02*
X71728347Y-139493142D01*
X71728347Y-138744858D01*
X71906655Y-138744858D01*
X71906655Y-139493142D01*
G36*
X71906655Y-139493142D02*
G01*
X71728347Y-139493142D01*
X71728347Y-138744858D01*
X71906655Y-138744858D01*
X71906655Y-139493142D01*
G37*
X71406653Y-139493142D02*
X71228345Y-139493142D01*
X71228345Y-138744858D01*
X71406653Y-138744858D01*
X71406653Y-139493142D01*
G36*
X71406653Y-139493142D02*
G01*
X71228345Y-139493142D01*
X71228345Y-138744858D01*
X71406653Y-138744858D01*
X71406653Y-139493142D01*
G37*
X70906654Y-139493142D02*
X70728346Y-139493142D01*
X70728346Y-138744858D01*
X70906654Y-138744858D01*
X70906654Y-139493142D01*
G36*
X70906654Y-139493142D02*
G01*
X70728346Y-139493142D01*
X70728346Y-138744858D01*
X70906654Y-138744858D01*
X70906654Y-139493142D01*
G37*
X70406655Y-139493142D02*
X70228347Y-139493142D01*
X70228347Y-138744858D01*
X70406655Y-138744858D01*
X70406655Y-139493142D01*
G36*
X70406655Y-139493142D02*
G01*
X70228347Y-139493142D01*
X70228347Y-138744858D01*
X70406655Y-138744858D01*
X70406655Y-139493142D01*
G37*
X69906653Y-139493142D02*
X69728345Y-139493142D01*
X69728345Y-138744858D01*
X69906653Y-138744858D01*
X69906653Y-139493142D01*
G36*
X69906653Y-139493142D02*
G01*
X69728345Y-139493142D01*
X69728345Y-138744858D01*
X69906653Y-138744858D01*
X69906653Y-139493142D01*
G37*
X71767570Y-136856299D02*
X71452621Y-136856299D01*
X71311200Y-136714878D01*
X71311200Y-136399929D01*
X71767570Y-136399929D01*
X71767570Y-136856299D01*
G36*
X71767570Y-136856299D02*
G01*
X71452621Y-136856299D01*
X71311200Y-136714878D01*
X71311200Y-136399929D01*
X71767570Y-136399929D01*
X71767570Y-136856299D01*
G37*
X70323800Y-136714878D02*
X70182379Y-136856299D01*
X69867430Y-136856299D01*
X69867430Y-136399929D01*
X70323800Y-136399929D01*
X70323800Y-136714878D01*
G36*
X70323800Y-136714878D02*
G01*
X70182379Y-136856299D01*
X69867430Y-136856299D01*
X69867430Y-136399929D01*
X70323800Y-136399929D01*
X70323800Y-136714878D01*
G37*
X71767570Y-138300069D02*
X71311200Y-138300069D01*
X71311200Y-137985120D01*
X71452621Y-137843699D01*
X71767570Y-137843699D01*
X71767570Y-138300069D01*
G36*
X71767570Y-138300069D02*
G01*
X71311200Y-138300069D01*
X71311200Y-137985120D01*
X71452621Y-137843699D01*
X71767570Y-137843699D01*
X71767570Y-138300069D01*
G37*
X70323800Y-137985120D02*
X70323800Y-138300069D01*
X69867430Y-138300069D01*
X69867430Y-137843699D01*
X70182379Y-137843699D01*
X70323800Y-137985120D01*
G36*
X70323800Y-137985120D02*
G01*
X70323800Y-138300069D01*
X69867430Y-138300069D01*
X69867430Y-137843699D01*
X70182379Y-137843699D01*
X70323800Y-137985120D01*
G37*
X71111200Y-136714878D02*
X70969779Y-136856299D01*
X70665221Y-136856299D01*
X70523800Y-136714878D01*
X70523800Y-136399929D01*
X71111200Y-136399929D01*
X71111200Y-136714878D01*
G36*
X71111200Y-136714878D02*
G01*
X70969779Y-136856299D01*
X70665221Y-136856299D01*
X70523800Y-136714878D01*
X70523800Y-136399929D01*
X71111200Y-136399929D01*
X71111200Y-136714878D01*
G37*
X71767570Y-137643699D02*
X71452621Y-137643699D01*
X71311200Y-137502278D01*
X71311200Y-137197720D01*
X71452621Y-137056299D01*
X71767570Y-137056299D01*
X71767570Y-137643699D01*
G36*
X71767570Y-137643699D02*
G01*
X71452621Y-137643699D01*
X71311200Y-137502278D01*
X71311200Y-137197720D01*
X71452621Y-137056299D01*
X71767570Y-137056299D01*
X71767570Y-137643699D01*
G37*
X70323800Y-137197720D02*
X70323800Y-137502278D01*
X70182379Y-137643699D01*
X69867430Y-137643699D01*
X69867430Y-137056299D01*
X70182379Y-137056299D01*
X70323800Y-137197720D01*
G36*
X70323800Y-137197720D02*
G01*
X70323800Y-137502278D01*
X70182379Y-137643699D01*
X69867430Y-137643699D01*
X69867430Y-137056299D01*
X70182379Y-137056299D01*
X70323800Y-137197720D01*
G37*
X71111200Y-137985120D02*
X71111200Y-138300069D01*
X70523800Y-138300069D01*
X70523800Y-137985120D01*
X70665221Y-137843699D01*
X70969779Y-137843699D01*
X71111200Y-137985120D01*
G36*
X71111200Y-137985120D02*
G01*
X71111200Y-138300069D01*
X70523800Y-138300069D01*
X70523800Y-137985120D01*
X70665221Y-137843699D01*
X70969779Y-137843699D01*
X71111200Y-137985120D01*
G37*
X71111200Y-137197720D02*
X71111200Y-137502278D01*
X70969779Y-137643699D01*
X70665221Y-137643699D01*
X70523800Y-137502278D01*
X70523800Y-137197720D01*
X70665221Y-137056299D01*
X70969779Y-137056299D01*
X71111200Y-137197720D01*
G36*
X71111200Y-137197720D02*
G01*
X71111200Y-137502278D01*
X70969779Y-137643699D01*
X70665221Y-137643699D01*
X70523800Y-137502278D01*
X70523800Y-137197720D01*
X70665221Y-137056299D01*
X70969779Y-137056299D01*
X71111200Y-137197720D01*
G37*
%TO.C,U24*%
G36*
X93650000Y-158300000D02*
G01*
X94350000Y-158300000D01*
X94350000Y-157300000D01*
X93650000Y-157300000D01*
X93650000Y-158300000D01*
G37*
G36*
X94550000Y-158300000D02*
G01*
X95250000Y-158300000D01*
X95250000Y-157300000D01*
X94550000Y-157300000D01*
X94550000Y-158300000D01*
G37*
%TO.C,U8*%
D11*
X104363000Y-146211000D02*
X104365000Y-146211000D01*
X104368000Y-146212000D01*
X104370000Y-146212000D01*
X104373000Y-146213000D01*
X104375000Y-146214000D01*
X104378000Y-146215000D01*
X104380000Y-146217000D01*
X104382000Y-146218000D01*
X104384000Y-146220000D01*
X104386000Y-146221000D01*
X104388000Y-146223000D01*
X104390000Y-146225000D01*
X104392000Y-146227000D01*
X104394000Y-146229000D01*
X104395000Y-146231000D01*
X104397000Y-146233000D01*
X104398000Y-146235000D01*
X104400000Y-146237000D01*
X104401000Y-146240000D01*
X104402000Y-146242000D01*
X104403000Y-146245000D01*
X104403000Y-146247000D01*
X104404000Y-146250000D01*
X104404000Y-146252000D01*
X104405000Y-146255000D01*
X104405000Y-146257000D01*
X104405000Y-146260000D01*
X104405000Y-146500000D01*
X104405000Y-146503000D01*
X104405000Y-146505000D01*
X104404000Y-146508000D01*
X104404000Y-146510000D01*
X104403000Y-146513000D01*
X104403000Y-146515000D01*
X104402000Y-146518000D01*
X104401000Y-146520000D01*
X104400000Y-146523000D01*
X104398000Y-146525000D01*
X104397000Y-146527000D01*
X104395000Y-146529000D01*
X104394000Y-146531000D01*
X104392000Y-146533000D01*
X104390000Y-146535000D01*
X104388000Y-146537000D01*
X104386000Y-146539000D01*
X104384000Y-146540000D01*
X104382000Y-146542000D01*
X104380000Y-146543000D01*
X104378000Y-146545000D01*
X104375000Y-146546000D01*
X104373000Y-146547000D01*
X104370000Y-146548000D01*
X104368000Y-146548000D01*
X104365000Y-146549000D01*
X104363000Y-146549000D01*
X104360000Y-146550000D01*
X104358000Y-146550000D01*
X104355000Y-146550000D01*
X104205000Y-146550000D01*
X104202000Y-146550000D01*
X104200000Y-146550000D01*
X104197000Y-146549000D01*
X104195000Y-146549000D01*
X104192000Y-146548000D01*
X104190000Y-146548000D01*
X104187000Y-146547000D01*
X104185000Y-146546000D01*
X104182000Y-146545000D01*
X104180000Y-146543000D01*
X104178000Y-146542000D01*
X104176000Y-146540000D01*
X104174000Y-146539000D01*
X104172000Y-146537000D01*
X104170000Y-146535000D01*
X104168000Y-146533000D01*
X104166000Y-146531000D01*
X104165000Y-146529000D01*
X104163000Y-146527000D01*
X104162000Y-146525000D01*
X104160000Y-146523000D01*
X104159000Y-146520000D01*
X104158000Y-146518000D01*
X104157000Y-146515000D01*
X104157000Y-146513000D01*
X104156000Y-146510000D01*
X104156000Y-146508000D01*
X104155000Y-146505000D01*
X104155000Y-146503000D01*
X104155000Y-146500000D01*
X104155000Y-146260000D01*
X104155000Y-146257000D01*
X104155000Y-146255000D01*
X104156000Y-146252000D01*
X104156000Y-146250000D01*
X104157000Y-146247000D01*
X104157000Y-146245000D01*
X104158000Y-146242000D01*
X104159000Y-146240000D01*
X104160000Y-146237000D01*
X104162000Y-146235000D01*
X104163000Y-146233000D01*
X104165000Y-146231000D01*
X104166000Y-146229000D01*
X104168000Y-146227000D01*
X104170000Y-146225000D01*
X104172000Y-146223000D01*
X104174000Y-146221000D01*
X104176000Y-146220000D01*
X104178000Y-146218000D01*
X104180000Y-146217000D01*
X104182000Y-146215000D01*
X104185000Y-146214000D01*
X104187000Y-146213000D01*
X104190000Y-146212000D01*
X104192000Y-146212000D01*
X104195000Y-146211000D01*
X104197000Y-146211000D01*
X104200000Y-146210000D01*
X104202000Y-146210000D01*
X104205000Y-146210000D01*
X104355000Y-146210000D01*
X104358000Y-146210000D01*
X104360000Y-146210000D01*
X104363000Y-146211000D01*
G36*
X104363000Y-146211000D02*
G01*
X104365000Y-146211000D01*
X104368000Y-146212000D01*
X104370000Y-146212000D01*
X104373000Y-146213000D01*
X104375000Y-146214000D01*
X104378000Y-146215000D01*
X104380000Y-146217000D01*
X104382000Y-146218000D01*
X104384000Y-146220000D01*
X104386000Y-146221000D01*
X104388000Y-146223000D01*
X104390000Y-146225000D01*
X104392000Y-146227000D01*
X104394000Y-146229000D01*
X104395000Y-146231000D01*
X104397000Y-146233000D01*
X104398000Y-146235000D01*
X104400000Y-146237000D01*
X104401000Y-146240000D01*
X104402000Y-146242000D01*
X104403000Y-146245000D01*
X104403000Y-146247000D01*
X104404000Y-146250000D01*
X104404000Y-146252000D01*
X104405000Y-146255000D01*
X104405000Y-146257000D01*
X104405000Y-146260000D01*
X104405000Y-146500000D01*
X104405000Y-146503000D01*
X104405000Y-146505000D01*
X104404000Y-146508000D01*
X104404000Y-146510000D01*
X104403000Y-146513000D01*
X104403000Y-146515000D01*
X104402000Y-146518000D01*
X104401000Y-146520000D01*
X104400000Y-146523000D01*
X104398000Y-146525000D01*
X104397000Y-146527000D01*
X104395000Y-146529000D01*
X104394000Y-146531000D01*
X104392000Y-146533000D01*
X104390000Y-146535000D01*
X104388000Y-146537000D01*
X104386000Y-146539000D01*
X104384000Y-146540000D01*
X104382000Y-146542000D01*
X104380000Y-146543000D01*
X104378000Y-146545000D01*
X104375000Y-146546000D01*
X104373000Y-146547000D01*
X104370000Y-146548000D01*
X104368000Y-146548000D01*
X104365000Y-146549000D01*
X104363000Y-146549000D01*
X104360000Y-146550000D01*
X104358000Y-146550000D01*
X104355000Y-146550000D01*
X104205000Y-146550000D01*
X104202000Y-146550000D01*
X104200000Y-146550000D01*
X104197000Y-146549000D01*
X104195000Y-146549000D01*
X104192000Y-146548000D01*
X104190000Y-146548000D01*
X104187000Y-146547000D01*
X104185000Y-146546000D01*
X104182000Y-146545000D01*
X104180000Y-146543000D01*
X104178000Y-146542000D01*
X104176000Y-146540000D01*
X104174000Y-146539000D01*
X104172000Y-146537000D01*
X104170000Y-146535000D01*
X104168000Y-146533000D01*
X104166000Y-146531000D01*
X104165000Y-146529000D01*
X104163000Y-146527000D01*
X104162000Y-146525000D01*
X104160000Y-146523000D01*
X104159000Y-146520000D01*
X104158000Y-146518000D01*
X104157000Y-146515000D01*
X104157000Y-146513000D01*
X104156000Y-146510000D01*
X104156000Y-146508000D01*
X104155000Y-146505000D01*
X104155000Y-146503000D01*
X104155000Y-146500000D01*
X104155000Y-146260000D01*
X104155000Y-146257000D01*
X104155000Y-146255000D01*
X104156000Y-146252000D01*
X104156000Y-146250000D01*
X104157000Y-146247000D01*
X104157000Y-146245000D01*
X104158000Y-146242000D01*
X104159000Y-146240000D01*
X104160000Y-146237000D01*
X104162000Y-146235000D01*
X104163000Y-146233000D01*
X104165000Y-146231000D01*
X104166000Y-146229000D01*
X104168000Y-146227000D01*
X104170000Y-146225000D01*
X104172000Y-146223000D01*
X104174000Y-146221000D01*
X104176000Y-146220000D01*
X104178000Y-146218000D01*
X104180000Y-146217000D01*
X104182000Y-146215000D01*
X104185000Y-146214000D01*
X104187000Y-146213000D01*
X104190000Y-146212000D01*
X104192000Y-146212000D01*
X104195000Y-146211000D01*
X104197000Y-146211000D01*
X104200000Y-146210000D01*
X104202000Y-146210000D01*
X104205000Y-146210000D01*
X104355000Y-146210000D01*
X104358000Y-146210000D01*
X104360000Y-146210000D01*
X104363000Y-146211000D01*
G37*
X104363000Y-143151000D02*
X104365000Y-143151000D01*
X104368000Y-143152000D01*
X104370000Y-143152000D01*
X104373000Y-143153000D01*
X104375000Y-143154000D01*
X104378000Y-143155000D01*
X104380000Y-143157000D01*
X104382000Y-143158000D01*
X104384000Y-143160000D01*
X104386000Y-143161000D01*
X104388000Y-143163000D01*
X104390000Y-143165000D01*
X104392000Y-143167000D01*
X104394000Y-143169000D01*
X104395000Y-143171000D01*
X104397000Y-143173000D01*
X104398000Y-143175000D01*
X104400000Y-143177000D01*
X104401000Y-143180000D01*
X104402000Y-143182000D01*
X104403000Y-143185000D01*
X104403000Y-143187000D01*
X104404000Y-143190000D01*
X104404000Y-143192000D01*
X104405000Y-143195000D01*
X104405000Y-143197000D01*
X104405000Y-143200000D01*
X104405000Y-143440000D01*
X104405000Y-143443000D01*
X104405000Y-143445000D01*
X104404000Y-143448000D01*
X104404000Y-143450000D01*
X104403000Y-143453000D01*
X104403000Y-143455000D01*
X104402000Y-143458000D01*
X104401000Y-143460000D01*
X104400000Y-143463000D01*
X104398000Y-143465000D01*
X104397000Y-143467000D01*
X104395000Y-143469000D01*
X104394000Y-143471000D01*
X104392000Y-143473000D01*
X104390000Y-143475000D01*
X104388000Y-143477000D01*
X104386000Y-143479000D01*
X104384000Y-143480000D01*
X104382000Y-143482000D01*
X104380000Y-143483000D01*
X104378000Y-143485000D01*
X104375000Y-143486000D01*
X104373000Y-143487000D01*
X104370000Y-143488000D01*
X104368000Y-143488000D01*
X104365000Y-143489000D01*
X104363000Y-143489000D01*
X104360000Y-143490000D01*
X104358000Y-143490000D01*
X104355000Y-143490000D01*
X104205000Y-143490000D01*
X104202000Y-143490000D01*
X104200000Y-143490000D01*
X104197000Y-143489000D01*
X104195000Y-143489000D01*
X104192000Y-143488000D01*
X104190000Y-143488000D01*
X104187000Y-143487000D01*
X104185000Y-143486000D01*
X104182000Y-143485000D01*
X104180000Y-143483000D01*
X104178000Y-143482000D01*
X104176000Y-143480000D01*
X104174000Y-143479000D01*
X104172000Y-143477000D01*
X104170000Y-143475000D01*
X104168000Y-143473000D01*
X104166000Y-143471000D01*
X104165000Y-143469000D01*
X104163000Y-143467000D01*
X104162000Y-143465000D01*
X104160000Y-143463000D01*
X104159000Y-143460000D01*
X104158000Y-143458000D01*
X104157000Y-143455000D01*
X104157000Y-143453000D01*
X104156000Y-143450000D01*
X104156000Y-143448000D01*
X104155000Y-143445000D01*
X104155000Y-143443000D01*
X104155000Y-143440000D01*
X104155000Y-143200000D01*
X104155000Y-143197000D01*
X104155000Y-143195000D01*
X104156000Y-143192000D01*
X104156000Y-143190000D01*
X104157000Y-143187000D01*
X104157000Y-143185000D01*
X104158000Y-143182000D01*
X104159000Y-143180000D01*
X104160000Y-143177000D01*
X104162000Y-143175000D01*
X104163000Y-143173000D01*
X104165000Y-143171000D01*
X104166000Y-143169000D01*
X104168000Y-143167000D01*
X104170000Y-143165000D01*
X104172000Y-143163000D01*
X104174000Y-143161000D01*
X104176000Y-143160000D01*
X104178000Y-143158000D01*
X104180000Y-143157000D01*
X104182000Y-143155000D01*
X104185000Y-143154000D01*
X104187000Y-143153000D01*
X104190000Y-143152000D01*
X104192000Y-143152000D01*
X104195000Y-143151000D01*
X104197000Y-143151000D01*
X104200000Y-143150000D01*
X104202000Y-143150000D01*
X104205000Y-143150000D01*
X104355000Y-143150000D01*
X104358000Y-143150000D01*
X104360000Y-143150000D01*
X104363000Y-143151000D01*
G36*
X104363000Y-143151000D02*
G01*
X104365000Y-143151000D01*
X104368000Y-143152000D01*
X104370000Y-143152000D01*
X104373000Y-143153000D01*
X104375000Y-143154000D01*
X104378000Y-143155000D01*
X104380000Y-143157000D01*
X104382000Y-143158000D01*
X104384000Y-143160000D01*
X104386000Y-143161000D01*
X104388000Y-143163000D01*
X104390000Y-143165000D01*
X104392000Y-143167000D01*
X104394000Y-143169000D01*
X104395000Y-143171000D01*
X104397000Y-143173000D01*
X104398000Y-143175000D01*
X104400000Y-143177000D01*
X104401000Y-143180000D01*
X104402000Y-143182000D01*
X104403000Y-143185000D01*
X104403000Y-143187000D01*
X104404000Y-143190000D01*
X104404000Y-143192000D01*
X104405000Y-143195000D01*
X104405000Y-143197000D01*
X104405000Y-143200000D01*
X104405000Y-143440000D01*
X104405000Y-143443000D01*
X104405000Y-143445000D01*
X104404000Y-143448000D01*
X104404000Y-143450000D01*
X104403000Y-143453000D01*
X104403000Y-143455000D01*
X104402000Y-143458000D01*
X104401000Y-143460000D01*
X104400000Y-143463000D01*
X104398000Y-143465000D01*
X104397000Y-143467000D01*
X104395000Y-143469000D01*
X104394000Y-143471000D01*
X104392000Y-143473000D01*
X104390000Y-143475000D01*
X104388000Y-143477000D01*
X104386000Y-143479000D01*
X104384000Y-143480000D01*
X104382000Y-143482000D01*
X104380000Y-143483000D01*
X104378000Y-143485000D01*
X104375000Y-143486000D01*
X104373000Y-143487000D01*
X104370000Y-143488000D01*
X104368000Y-143488000D01*
X104365000Y-143489000D01*
X104363000Y-143489000D01*
X104360000Y-143490000D01*
X104358000Y-143490000D01*
X104355000Y-143490000D01*
X104205000Y-143490000D01*
X104202000Y-143490000D01*
X104200000Y-143490000D01*
X104197000Y-143489000D01*
X104195000Y-143489000D01*
X104192000Y-143488000D01*
X104190000Y-143488000D01*
X104187000Y-143487000D01*
X104185000Y-143486000D01*
X104182000Y-143485000D01*
X104180000Y-143483000D01*
X104178000Y-143482000D01*
X104176000Y-143480000D01*
X104174000Y-143479000D01*
X104172000Y-143477000D01*
X104170000Y-143475000D01*
X104168000Y-143473000D01*
X104166000Y-143471000D01*
X104165000Y-143469000D01*
X104163000Y-143467000D01*
X104162000Y-143465000D01*
X104160000Y-143463000D01*
X104159000Y-143460000D01*
X104158000Y-143458000D01*
X104157000Y-143455000D01*
X104157000Y-143453000D01*
X104156000Y-143450000D01*
X104156000Y-143448000D01*
X104155000Y-143445000D01*
X104155000Y-143443000D01*
X104155000Y-143440000D01*
X104155000Y-143200000D01*
X104155000Y-143197000D01*
X104155000Y-143195000D01*
X104156000Y-143192000D01*
X104156000Y-143190000D01*
X104157000Y-143187000D01*
X104157000Y-143185000D01*
X104158000Y-143182000D01*
X104159000Y-143180000D01*
X104160000Y-143177000D01*
X104162000Y-143175000D01*
X104163000Y-143173000D01*
X104165000Y-143171000D01*
X104166000Y-143169000D01*
X104168000Y-143167000D01*
X104170000Y-143165000D01*
X104172000Y-143163000D01*
X104174000Y-143161000D01*
X104176000Y-143160000D01*
X104178000Y-143158000D01*
X104180000Y-143157000D01*
X104182000Y-143155000D01*
X104185000Y-143154000D01*
X104187000Y-143153000D01*
X104190000Y-143152000D01*
X104192000Y-143152000D01*
X104195000Y-143151000D01*
X104197000Y-143151000D01*
X104200000Y-143150000D01*
X104202000Y-143150000D01*
X104205000Y-143150000D01*
X104355000Y-143150000D01*
X104358000Y-143150000D01*
X104360000Y-143150000D01*
X104363000Y-143151000D01*
G37*
X103863000Y-146211000D02*
X103865000Y-146211000D01*
X103868000Y-146212000D01*
X103870000Y-146212000D01*
X103873000Y-146213000D01*
X103875000Y-146214000D01*
X103878000Y-146215000D01*
X103880000Y-146217000D01*
X103882000Y-146218000D01*
X103884000Y-146220000D01*
X103886000Y-146221000D01*
X103888000Y-146223000D01*
X103890000Y-146225000D01*
X103892000Y-146227000D01*
X103894000Y-146229000D01*
X103895000Y-146231000D01*
X103897000Y-146233000D01*
X103898000Y-146235000D01*
X103900000Y-146237000D01*
X103901000Y-146240000D01*
X103902000Y-146242000D01*
X103903000Y-146245000D01*
X103903000Y-146247000D01*
X103904000Y-146250000D01*
X103904000Y-146252000D01*
X103905000Y-146255000D01*
X103905000Y-146257000D01*
X103905000Y-146260000D01*
X103905000Y-146500000D01*
X103905000Y-146503000D01*
X103905000Y-146505000D01*
X103904000Y-146508000D01*
X103904000Y-146510000D01*
X103903000Y-146513000D01*
X103903000Y-146515000D01*
X103902000Y-146518000D01*
X103901000Y-146520000D01*
X103900000Y-146523000D01*
X103898000Y-146525000D01*
X103897000Y-146527000D01*
X103895000Y-146529000D01*
X103894000Y-146531000D01*
X103892000Y-146533000D01*
X103890000Y-146535000D01*
X103888000Y-146537000D01*
X103886000Y-146539000D01*
X103884000Y-146540000D01*
X103882000Y-146542000D01*
X103880000Y-146543000D01*
X103878000Y-146545000D01*
X103875000Y-146546000D01*
X103873000Y-146547000D01*
X103870000Y-146548000D01*
X103868000Y-146548000D01*
X103865000Y-146549000D01*
X103863000Y-146549000D01*
X103860000Y-146550000D01*
X103858000Y-146550000D01*
X103855000Y-146550000D01*
X103705000Y-146550000D01*
X103702000Y-146550000D01*
X103700000Y-146550000D01*
X103697000Y-146549000D01*
X103695000Y-146549000D01*
X103692000Y-146548000D01*
X103690000Y-146548000D01*
X103687000Y-146547000D01*
X103685000Y-146546000D01*
X103682000Y-146545000D01*
X103680000Y-146543000D01*
X103678000Y-146542000D01*
X103676000Y-146540000D01*
X103674000Y-146539000D01*
X103672000Y-146537000D01*
X103670000Y-146535000D01*
X103668000Y-146533000D01*
X103666000Y-146531000D01*
X103665000Y-146529000D01*
X103663000Y-146527000D01*
X103662000Y-146525000D01*
X103660000Y-146523000D01*
X103659000Y-146520000D01*
X103658000Y-146518000D01*
X103657000Y-146515000D01*
X103657000Y-146513000D01*
X103656000Y-146510000D01*
X103656000Y-146508000D01*
X103655000Y-146505000D01*
X103655000Y-146503000D01*
X103655000Y-146500000D01*
X103655000Y-146260000D01*
X103655000Y-146257000D01*
X103655000Y-146255000D01*
X103656000Y-146252000D01*
X103656000Y-146250000D01*
X103657000Y-146247000D01*
X103657000Y-146245000D01*
X103658000Y-146242000D01*
X103659000Y-146240000D01*
X103660000Y-146237000D01*
X103662000Y-146235000D01*
X103663000Y-146233000D01*
X103665000Y-146231000D01*
X103666000Y-146229000D01*
X103668000Y-146227000D01*
X103670000Y-146225000D01*
X103672000Y-146223000D01*
X103674000Y-146221000D01*
X103676000Y-146220000D01*
X103678000Y-146218000D01*
X103680000Y-146217000D01*
X103682000Y-146215000D01*
X103685000Y-146214000D01*
X103687000Y-146213000D01*
X103690000Y-146212000D01*
X103692000Y-146212000D01*
X103695000Y-146211000D01*
X103697000Y-146211000D01*
X103700000Y-146210000D01*
X103702000Y-146210000D01*
X103705000Y-146210000D01*
X103855000Y-146210000D01*
X103858000Y-146210000D01*
X103860000Y-146210000D01*
X103863000Y-146211000D01*
G36*
X103863000Y-146211000D02*
G01*
X103865000Y-146211000D01*
X103868000Y-146212000D01*
X103870000Y-146212000D01*
X103873000Y-146213000D01*
X103875000Y-146214000D01*
X103878000Y-146215000D01*
X103880000Y-146217000D01*
X103882000Y-146218000D01*
X103884000Y-146220000D01*
X103886000Y-146221000D01*
X103888000Y-146223000D01*
X103890000Y-146225000D01*
X103892000Y-146227000D01*
X103894000Y-146229000D01*
X103895000Y-146231000D01*
X103897000Y-146233000D01*
X103898000Y-146235000D01*
X103900000Y-146237000D01*
X103901000Y-146240000D01*
X103902000Y-146242000D01*
X103903000Y-146245000D01*
X103903000Y-146247000D01*
X103904000Y-146250000D01*
X103904000Y-146252000D01*
X103905000Y-146255000D01*
X103905000Y-146257000D01*
X103905000Y-146260000D01*
X103905000Y-146500000D01*
X103905000Y-146503000D01*
X103905000Y-146505000D01*
X103904000Y-146508000D01*
X103904000Y-146510000D01*
X103903000Y-146513000D01*
X103903000Y-146515000D01*
X103902000Y-146518000D01*
X103901000Y-146520000D01*
X103900000Y-146523000D01*
X103898000Y-146525000D01*
X103897000Y-146527000D01*
X103895000Y-146529000D01*
X103894000Y-146531000D01*
X103892000Y-146533000D01*
X103890000Y-146535000D01*
X103888000Y-146537000D01*
X103886000Y-146539000D01*
X103884000Y-146540000D01*
X103882000Y-146542000D01*
X103880000Y-146543000D01*
X103878000Y-146545000D01*
X103875000Y-146546000D01*
X103873000Y-146547000D01*
X103870000Y-146548000D01*
X103868000Y-146548000D01*
X103865000Y-146549000D01*
X103863000Y-146549000D01*
X103860000Y-146550000D01*
X103858000Y-146550000D01*
X103855000Y-146550000D01*
X103705000Y-146550000D01*
X103702000Y-146550000D01*
X103700000Y-146550000D01*
X103697000Y-146549000D01*
X103695000Y-146549000D01*
X103692000Y-146548000D01*
X103690000Y-146548000D01*
X103687000Y-146547000D01*
X103685000Y-146546000D01*
X103682000Y-146545000D01*
X103680000Y-146543000D01*
X103678000Y-146542000D01*
X103676000Y-146540000D01*
X103674000Y-146539000D01*
X103672000Y-146537000D01*
X103670000Y-146535000D01*
X103668000Y-146533000D01*
X103666000Y-146531000D01*
X103665000Y-146529000D01*
X103663000Y-146527000D01*
X103662000Y-146525000D01*
X103660000Y-146523000D01*
X103659000Y-146520000D01*
X103658000Y-146518000D01*
X103657000Y-146515000D01*
X103657000Y-146513000D01*
X103656000Y-146510000D01*
X103656000Y-146508000D01*
X103655000Y-146505000D01*
X103655000Y-146503000D01*
X103655000Y-146500000D01*
X103655000Y-146260000D01*
X103655000Y-146257000D01*
X103655000Y-146255000D01*
X103656000Y-146252000D01*
X103656000Y-146250000D01*
X103657000Y-146247000D01*
X103657000Y-146245000D01*
X103658000Y-146242000D01*
X103659000Y-146240000D01*
X103660000Y-146237000D01*
X103662000Y-146235000D01*
X103663000Y-146233000D01*
X103665000Y-146231000D01*
X103666000Y-146229000D01*
X103668000Y-146227000D01*
X103670000Y-146225000D01*
X103672000Y-146223000D01*
X103674000Y-146221000D01*
X103676000Y-146220000D01*
X103678000Y-146218000D01*
X103680000Y-146217000D01*
X103682000Y-146215000D01*
X103685000Y-146214000D01*
X103687000Y-146213000D01*
X103690000Y-146212000D01*
X103692000Y-146212000D01*
X103695000Y-146211000D01*
X103697000Y-146211000D01*
X103700000Y-146210000D01*
X103702000Y-146210000D01*
X103705000Y-146210000D01*
X103855000Y-146210000D01*
X103858000Y-146210000D01*
X103860000Y-146210000D01*
X103863000Y-146211000D01*
G37*
X103863000Y-143151000D02*
X103865000Y-143151000D01*
X103868000Y-143152000D01*
X103870000Y-143152000D01*
X103873000Y-143153000D01*
X103875000Y-143154000D01*
X103878000Y-143155000D01*
X103880000Y-143157000D01*
X103882000Y-143158000D01*
X103884000Y-143160000D01*
X103886000Y-143161000D01*
X103888000Y-143163000D01*
X103890000Y-143165000D01*
X103892000Y-143167000D01*
X103894000Y-143169000D01*
X103895000Y-143171000D01*
X103897000Y-143173000D01*
X103898000Y-143175000D01*
X103900000Y-143177000D01*
X103901000Y-143180000D01*
X103902000Y-143182000D01*
X103903000Y-143185000D01*
X103903000Y-143187000D01*
X103904000Y-143190000D01*
X103904000Y-143192000D01*
X103905000Y-143195000D01*
X103905000Y-143197000D01*
X103905000Y-143200000D01*
X103905000Y-143440000D01*
X103905000Y-143443000D01*
X103905000Y-143445000D01*
X103904000Y-143448000D01*
X103904000Y-143450000D01*
X103903000Y-143453000D01*
X103903000Y-143455000D01*
X103902000Y-143458000D01*
X103901000Y-143460000D01*
X103900000Y-143463000D01*
X103898000Y-143465000D01*
X103897000Y-143467000D01*
X103895000Y-143469000D01*
X103894000Y-143471000D01*
X103892000Y-143473000D01*
X103890000Y-143475000D01*
X103888000Y-143477000D01*
X103886000Y-143479000D01*
X103884000Y-143480000D01*
X103882000Y-143482000D01*
X103880000Y-143483000D01*
X103878000Y-143485000D01*
X103875000Y-143486000D01*
X103873000Y-143487000D01*
X103870000Y-143488000D01*
X103868000Y-143488000D01*
X103865000Y-143489000D01*
X103863000Y-143489000D01*
X103860000Y-143490000D01*
X103858000Y-143490000D01*
X103855000Y-143490000D01*
X103705000Y-143490000D01*
X103702000Y-143490000D01*
X103700000Y-143490000D01*
X103697000Y-143489000D01*
X103695000Y-143489000D01*
X103692000Y-143488000D01*
X103690000Y-143488000D01*
X103687000Y-143487000D01*
X103685000Y-143486000D01*
X103682000Y-143485000D01*
X103680000Y-143483000D01*
X103678000Y-143482000D01*
X103676000Y-143480000D01*
X103674000Y-143479000D01*
X103672000Y-143477000D01*
X103670000Y-143475000D01*
X103668000Y-143473000D01*
X103666000Y-143471000D01*
X103665000Y-143469000D01*
X103663000Y-143467000D01*
X103662000Y-143465000D01*
X103660000Y-143463000D01*
X103659000Y-143460000D01*
X103658000Y-143458000D01*
X103657000Y-143455000D01*
X103657000Y-143453000D01*
X103656000Y-143450000D01*
X103656000Y-143448000D01*
X103655000Y-143445000D01*
X103655000Y-143443000D01*
X103655000Y-143440000D01*
X103655000Y-143200000D01*
X103655000Y-143197000D01*
X103655000Y-143195000D01*
X103656000Y-143192000D01*
X103656000Y-143190000D01*
X103657000Y-143187000D01*
X103657000Y-143185000D01*
X103658000Y-143182000D01*
X103659000Y-143180000D01*
X103660000Y-143177000D01*
X103662000Y-143175000D01*
X103663000Y-143173000D01*
X103665000Y-143171000D01*
X103666000Y-143169000D01*
X103668000Y-143167000D01*
X103670000Y-143165000D01*
X103672000Y-143163000D01*
X103674000Y-143161000D01*
X103676000Y-143160000D01*
X103678000Y-143158000D01*
X103680000Y-143157000D01*
X103682000Y-143155000D01*
X103685000Y-143154000D01*
X103687000Y-143153000D01*
X103690000Y-143152000D01*
X103692000Y-143152000D01*
X103695000Y-143151000D01*
X103697000Y-143151000D01*
X103700000Y-143150000D01*
X103702000Y-143150000D01*
X103705000Y-143150000D01*
X103855000Y-143150000D01*
X103858000Y-143150000D01*
X103860000Y-143150000D01*
X103863000Y-143151000D01*
G36*
X103863000Y-143151000D02*
G01*
X103865000Y-143151000D01*
X103868000Y-143152000D01*
X103870000Y-143152000D01*
X103873000Y-143153000D01*
X103875000Y-143154000D01*
X103878000Y-143155000D01*
X103880000Y-143157000D01*
X103882000Y-143158000D01*
X103884000Y-143160000D01*
X103886000Y-143161000D01*
X103888000Y-143163000D01*
X103890000Y-143165000D01*
X103892000Y-143167000D01*
X103894000Y-143169000D01*
X103895000Y-143171000D01*
X103897000Y-143173000D01*
X103898000Y-143175000D01*
X103900000Y-143177000D01*
X103901000Y-143180000D01*
X103902000Y-143182000D01*
X103903000Y-143185000D01*
X103903000Y-143187000D01*
X103904000Y-143190000D01*
X103904000Y-143192000D01*
X103905000Y-143195000D01*
X103905000Y-143197000D01*
X103905000Y-143200000D01*
X103905000Y-143440000D01*
X103905000Y-143443000D01*
X103905000Y-143445000D01*
X103904000Y-143448000D01*
X103904000Y-143450000D01*
X103903000Y-143453000D01*
X103903000Y-143455000D01*
X103902000Y-143458000D01*
X103901000Y-143460000D01*
X103900000Y-143463000D01*
X103898000Y-143465000D01*
X103897000Y-143467000D01*
X103895000Y-143469000D01*
X103894000Y-143471000D01*
X103892000Y-143473000D01*
X103890000Y-143475000D01*
X103888000Y-143477000D01*
X103886000Y-143479000D01*
X103884000Y-143480000D01*
X103882000Y-143482000D01*
X103880000Y-143483000D01*
X103878000Y-143485000D01*
X103875000Y-143486000D01*
X103873000Y-143487000D01*
X103870000Y-143488000D01*
X103868000Y-143488000D01*
X103865000Y-143489000D01*
X103863000Y-143489000D01*
X103860000Y-143490000D01*
X103858000Y-143490000D01*
X103855000Y-143490000D01*
X103705000Y-143490000D01*
X103702000Y-143490000D01*
X103700000Y-143490000D01*
X103697000Y-143489000D01*
X103695000Y-143489000D01*
X103692000Y-143488000D01*
X103690000Y-143488000D01*
X103687000Y-143487000D01*
X103685000Y-143486000D01*
X103682000Y-143485000D01*
X103680000Y-143483000D01*
X103678000Y-143482000D01*
X103676000Y-143480000D01*
X103674000Y-143479000D01*
X103672000Y-143477000D01*
X103670000Y-143475000D01*
X103668000Y-143473000D01*
X103666000Y-143471000D01*
X103665000Y-143469000D01*
X103663000Y-143467000D01*
X103662000Y-143465000D01*
X103660000Y-143463000D01*
X103659000Y-143460000D01*
X103658000Y-143458000D01*
X103657000Y-143455000D01*
X103657000Y-143453000D01*
X103656000Y-143450000D01*
X103656000Y-143448000D01*
X103655000Y-143445000D01*
X103655000Y-143443000D01*
X103655000Y-143440000D01*
X103655000Y-143200000D01*
X103655000Y-143197000D01*
X103655000Y-143195000D01*
X103656000Y-143192000D01*
X103656000Y-143190000D01*
X103657000Y-143187000D01*
X103657000Y-143185000D01*
X103658000Y-143182000D01*
X103659000Y-143180000D01*
X103660000Y-143177000D01*
X103662000Y-143175000D01*
X103663000Y-143173000D01*
X103665000Y-143171000D01*
X103666000Y-143169000D01*
X103668000Y-143167000D01*
X103670000Y-143165000D01*
X103672000Y-143163000D01*
X103674000Y-143161000D01*
X103676000Y-143160000D01*
X103678000Y-143158000D01*
X103680000Y-143157000D01*
X103682000Y-143155000D01*
X103685000Y-143154000D01*
X103687000Y-143153000D01*
X103690000Y-143152000D01*
X103692000Y-143152000D01*
X103695000Y-143151000D01*
X103697000Y-143151000D01*
X103700000Y-143150000D01*
X103702000Y-143150000D01*
X103705000Y-143150000D01*
X103855000Y-143150000D01*
X103858000Y-143150000D01*
X103860000Y-143150000D01*
X103863000Y-143151000D01*
G37*
X104738000Y-144951000D02*
X104740000Y-144951000D01*
X104743000Y-144952000D01*
X104745000Y-144952000D01*
X104748000Y-144953000D01*
X104750000Y-144954000D01*
X104753000Y-144955000D01*
X104755000Y-144957000D01*
X104757000Y-144958000D01*
X104759000Y-144960000D01*
X104761000Y-144961000D01*
X104763000Y-144963000D01*
X104765000Y-144965000D01*
X104767000Y-144967000D01*
X104769000Y-144969000D01*
X104770000Y-144971000D01*
X104772000Y-144973000D01*
X104773000Y-144975000D01*
X104775000Y-144977000D01*
X104776000Y-144980000D01*
X104777000Y-144982000D01*
X104778000Y-144985000D01*
X104778000Y-144987000D01*
X104779000Y-144990000D01*
X104779000Y-144992000D01*
X104780000Y-144995000D01*
X104780000Y-144997000D01*
X104780000Y-145000000D01*
X104780000Y-145960000D01*
X104780000Y-145963000D01*
X104780000Y-145965000D01*
X104779000Y-145968000D01*
X104779000Y-145970000D01*
X104778000Y-145973000D01*
X104778000Y-145975000D01*
X104777000Y-145978000D01*
X104776000Y-145980000D01*
X104775000Y-145983000D01*
X104773000Y-145985000D01*
X104772000Y-145987000D01*
X104770000Y-145989000D01*
X104769000Y-145991000D01*
X104767000Y-145993000D01*
X104765000Y-145995000D01*
X104763000Y-145997000D01*
X104761000Y-145999000D01*
X104759000Y-146000000D01*
X104757000Y-146002000D01*
X104755000Y-146003000D01*
X104753000Y-146005000D01*
X104750000Y-146006000D01*
X104748000Y-146007000D01*
X104745000Y-146008000D01*
X104743000Y-146008000D01*
X104740000Y-146009000D01*
X104738000Y-146009000D01*
X104735000Y-146010000D01*
X104733000Y-146010000D01*
X104730000Y-146010000D01*
X103330000Y-146010000D01*
X103327000Y-146010000D01*
X103325000Y-146010000D01*
X103322000Y-146009000D01*
X103320000Y-146009000D01*
X103317000Y-146008000D01*
X103315000Y-146008000D01*
X103312000Y-146007000D01*
X103310000Y-146006000D01*
X103307000Y-146005000D01*
X103305000Y-146003000D01*
X103303000Y-146002000D01*
X103301000Y-146000000D01*
X103299000Y-145999000D01*
X103297000Y-145997000D01*
X103295000Y-145995000D01*
X103293000Y-145993000D01*
X103291000Y-145991000D01*
X103290000Y-145989000D01*
X103288000Y-145987000D01*
X103287000Y-145985000D01*
X103285000Y-145983000D01*
X103284000Y-145980000D01*
X103283000Y-145978000D01*
X103282000Y-145975000D01*
X103282000Y-145973000D01*
X103281000Y-145970000D01*
X103281000Y-145968000D01*
X103280000Y-145965000D01*
X103280000Y-145963000D01*
X103280000Y-145960000D01*
X103280000Y-145000000D01*
X103280000Y-144997000D01*
X103280000Y-144995000D01*
X103281000Y-144992000D01*
X103281000Y-144990000D01*
X103282000Y-144987000D01*
X103282000Y-144985000D01*
X103283000Y-144982000D01*
X103284000Y-144980000D01*
X103285000Y-144977000D01*
X103287000Y-144975000D01*
X103288000Y-144973000D01*
X103290000Y-144971000D01*
X103291000Y-144969000D01*
X103293000Y-144967000D01*
X103295000Y-144965000D01*
X103297000Y-144963000D01*
X103299000Y-144961000D01*
X103301000Y-144960000D01*
X103303000Y-144958000D01*
X103305000Y-144957000D01*
X103307000Y-144955000D01*
X103310000Y-144954000D01*
X103312000Y-144953000D01*
X103315000Y-144952000D01*
X103317000Y-144952000D01*
X103320000Y-144951000D01*
X103322000Y-144951000D01*
X103325000Y-144950000D01*
X103327000Y-144950000D01*
X103330000Y-144950000D01*
X104730000Y-144950000D01*
X104733000Y-144950000D01*
X104735000Y-144950000D01*
X104738000Y-144951000D01*
G36*
X104738000Y-144951000D02*
G01*
X104740000Y-144951000D01*
X104743000Y-144952000D01*
X104745000Y-144952000D01*
X104748000Y-144953000D01*
X104750000Y-144954000D01*
X104753000Y-144955000D01*
X104755000Y-144957000D01*
X104757000Y-144958000D01*
X104759000Y-144960000D01*
X104761000Y-144961000D01*
X104763000Y-144963000D01*
X104765000Y-144965000D01*
X104767000Y-144967000D01*
X104769000Y-144969000D01*
X104770000Y-144971000D01*
X104772000Y-144973000D01*
X104773000Y-144975000D01*
X104775000Y-144977000D01*
X104776000Y-144980000D01*
X104777000Y-144982000D01*
X104778000Y-144985000D01*
X104778000Y-144987000D01*
X104779000Y-144990000D01*
X104779000Y-144992000D01*
X104780000Y-144995000D01*
X104780000Y-144997000D01*
X104780000Y-145000000D01*
X104780000Y-145960000D01*
X104780000Y-145963000D01*
X104780000Y-145965000D01*
X104779000Y-145968000D01*
X104779000Y-145970000D01*
X104778000Y-145973000D01*
X104778000Y-145975000D01*
X104777000Y-145978000D01*
X104776000Y-145980000D01*
X104775000Y-145983000D01*
X104773000Y-145985000D01*
X104772000Y-145987000D01*
X104770000Y-145989000D01*
X104769000Y-145991000D01*
X104767000Y-145993000D01*
X104765000Y-145995000D01*
X104763000Y-145997000D01*
X104761000Y-145999000D01*
X104759000Y-146000000D01*
X104757000Y-146002000D01*
X104755000Y-146003000D01*
X104753000Y-146005000D01*
X104750000Y-146006000D01*
X104748000Y-146007000D01*
X104745000Y-146008000D01*
X104743000Y-146008000D01*
X104740000Y-146009000D01*
X104738000Y-146009000D01*
X104735000Y-146010000D01*
X104733000Y-146010000D01*
X104730000Y-146010000D01*
X103330000Y-146010000D01*
X103327000Y-146010000D01*
X103325000Y-146010000D01*
X103322000Y-146009000D01*
X103320000Y-146009000D01*
X103317000Y-146008000D01*
X103315000Y-146008000D01*
X103312000Y-146007000D01*
X103310000Y-146006000D01*
X103307000Y-146005000D01*
X103305000Y-146003000D01*
X103303000Y-146002000D01*
X103301000Y-146000000D01*
X103299000Y-145999000D01*
X103297000Y-145997000D01*
X103295000Y-145995000D01*
X103293000Y-145993000D01*
X103291000Y-145991000D01*
X103290000Y-145989000D01*
X103288000Y-145987000D01*
X103287000Y-145985000D01*
X103285000Y-145983000D01*
X103284000Y-145980000D01*
X103283000Y-145978000D01*
X103282000Y-145975000D01*
X103282000Y-145973000D01*
X103281000Y-145970000D01*
X103281000Y-145968000D01*
X103280000Y-145965000D01*
X103280000Y-145963000D01*
X103280000Y-145960000D01*
X103280000Y-145000000D01*
X103280000Y-144997000D01*
X103280000Y-144995000D01*
X103281000Y-144992000D01*
X103281000Y-144990000D01*
X103282000Y-144987000D01*
X103282000Y-144985000D01*
X103283000Y-144982000D01*
X103284000Y-144980000D01*
X103285000Y-144977000D01*
X103287000Y-144975000D01*
X103288000Y-144973000D01*
X103290000Y-144971000D01*
X103291000Y-144969000D01*
X103293000Y-144967000D01*
X103295000Y-144965000D01*
X103297000Y-144963000D01*
X103299000Y-144961000D01*
X103301000Y-144960000D01*
X103303000Y-144958000D01*
X103305000Y-144957000D01*
X103307000Y-144955000D01*
X103310000Y-144954000D01*
X103312000Y-144953000D01*
X103315000Y-144952000D01*
X103317000Y-144952000D01*
X103320000Y-144951000D01*
X103322000Y-144951000D01*
X103325000Y-144950000D01*
X103327000Y-144950000D01*
X103330000Y-144950000D01*
X104730000Y-144950000D01*
X104733000Y-144950000D01*
X104735000Y-144950000D01*
X104738000Y-144951000D01*
G37*
X104738000Y-143691000D02*
X104740000Y-143691000D01*
X104743000Y-143692000D01*
X104745000Y-143692000D01*
X104748000Y-143693000D01*
X104750000Y-143694000D01*
X104753000Y-143695000D01*
X104755000Y-143697000D01*
X104757000Y-143698000D01*
X104759000Y-143700000D01*
X104761000Y-143701000D01*
X104763000Y-143703000D01*
X104765000Y-143705000D01*
X104767000Y-143707000D01*
X104769000Y-143709000D01*
X104770000Y-143711000D01*
X104772000Y-143713000D01*
X104773000Y-143715000D01*
X104775000Y-143717000D01*
X104776000Y-143720000D01*
X104777000Y-143722000D01*
X104778000Y-143725000D01*
X104778000Y-143727000D01*
X104779000Y-143730000D01*
X104779000Y-143732000D01*
X104780000Y-143735000D01*
X104780000Y-143737000D01*
X104780000Y-143740000D01*
X104780000Y-144700000D01*
X104780000Y-144703000D01*
X104780000Y-144705000D01*
X104779000Y-144708000D01*
X104779000Y-144710000D01*
X104778000Y-144713000D01*
X104778000Y-144715000D01*
X104777000Y-144718000D01*
X104776000Y-144720000D01*
X104775000Y-144723000D01*
X104773000Y-144725000D01*
X104772000Y-144727000D01*
X104770000Y-144729000D01*
X104769000Y-144731000D01*
X104767000Y-144733000D01*
X104765000Y-144735000D01*
X104763000Y-144737000D01*
X104761000Y-144739000D01*
X104759000Y-144740000D01*
X104757000Y-144742000D01*
X104755000Y-144743000D01*
X104753000Y-144745000D01*
X104750000Y-144746000D01*
X104748000Y-144747000D01*
X104745000Y-144748000D01*
X104743000Y-144748000D01*
X104740000Y-144749000D01*
X104738000Y-144749000D01*
X104735000Y-144750000D01*
X104733000Y-144750000D01*
X104730000Y-144750000D01*
X103330000Y-144750000D01*
X103327000Y-144750000D01*
X103325000Y-144750000D01*
X103322000Y-144749000D01*
X103320000Y-144749000D01*
X103317000Y-144748000D01*
X103315000Y-144748000D01*
X103312000Y-144747000D01*
X103310000Y-144746000D01*
X103307000Y-144745000D01*
X103305000Y-144743000D01*
X103303000Y-144742000D01*
X103301000Y-144740000D01*
X103299000Y-144739000D01*
X103297000Y-144737000D01*
X103295000Y-144735000D01*
X103293000Y-144733000D01*
X103291000Y-144731000D01*
X103290000Y-144729000D01*
X103288000Y-144727000D01*
X103287000Y-144725000D01*
X103285000Y-144723000D01*
X103284000Y-144720000D01*
X103283000Y-144718000D01*
X103282000Y-144715000D01*
X103282000Y-144713000D01*
X103281000Y-144710000D01*
X103281000Y-144708000D01*
X103280000Y-144705000D01*
X103280000Y-144703000D01*
X103280000Y-144700000D01*
X103280000Y-143740000D01*
X103280000Y-143737000D01*
X103280000Y-143735000D01*
X103281000Y-143732000D01*
X103281000Y-143730000D01*
X103282000Y-143727000D01*
X103282000Y-143725000D01*
X103283000Y-143722000D01*
X103284000Y-143720000D01*
X103285000Y-143717000D01*
X103287000Y-143715000D01*
X103288000Y-143713000D01*
X103290000Y-143711000D01*
X103291000Y-143709000D01*
X103293000Y-143707000D01*
X103295000Y-143705000D01*
X103297000Y-143703000D01*
X103299000Y-143701000D01*
X103301000Y-143700000D01*
X103303000Y-143698000D01*
X103305000Y-143697000D01*
X103307000Y-143695000D01*
X103310000Y-143694000D01*
X103312000Y-143693000D01*
X103315000Y-143692000D01*
X103317000Y-143692000D01*
X103320000Y-143691000D01*
X103322000Y-143691000D01*
X103325000Y-143690000D01*
X103327000Y-143690000D01*
X103330000Y-143690000D01*
X104730000Y-143690000D01*
X104733000Y-143690000D01*
X104735000Y-143690000D01*
X104738000Y-143691000D01*
G36*
X104738000Y-143691000D02*
G01*
X104740000Y-143691000D01*
X104743000Y-143692000D01*
X104745000Y-143692000D01*
X104748000Y-143693000D01*
X104750000Y-143694000D01*
X104753000Y-143695000D01*
X104755000Y-143697000D01*
X104757000Y-143698000D01*
X104759000Y-143700000D01*
X104761000Y-143701000D01*
X104763000Y-143703000D01*
X104765000Y-143705000D01*
X104767000Y-143707000D01*
X104769000Y-143709000D01*
X104770000Y-143711000D01*
X104772000Y-143713000D01*
X104773000Y-143715000D01*
X104775000Y-143717000D01*
X104776000Y-143720000D01*
X104777000Y-143722000D01*
X104778000Y-143725000D01*
X104778000Y-143727000D01*
X104779000Y-143730000D01*
X104779000Y-143732000D01*
X104780000Y-143735000D01*
X104780000Y-143737000D01*
X104780000Y-143740000D01*
X104780000Y-144700000D01*
X104780000Y-144703000D01*
X104780000Y-144705000D01*
X104779000Y-144708000D01*
X104779000Y-144710000D01*
X104778000Y-144713000D01*
X104778000Y-144715000D01*
X104777000Y-144718000D01*
X104776000Y-144720000D01*
X104775000Y-144723000D01*
X104773000Y-144725000D01*
X104772000Y-144727000D01*
X104770000Y-144729000D01*
X104769000Y-144731000D01*
X104767000Y-144733000D01*
X104765000Y-144735000D01*
X104763000Y-144737000D01*
X104761000Y-144739000D01*
X104759000Y-144740000D01*
X104757000Y-144742000D01*
X104755000Y-144743000D01*
X104753000Y-144745000D01*
X104750000Y-144746000D01*
X104748000Y-144747000D01*
X104745000Y-144748000D01*
X104743000Y-144748000D01*
X104740000Y-144749000D01*
X104738000Y-144749000D01*
X104735000Y-144750000D01*
X104733000Y-144750000D01*
X104730000Y-144750000D01*
X103330000Y-144750000D01*
X103327000Y-144750000D01*
X103325000Y-144750000D01*
X103322000Y-144749000D01*
X103320000Y-144749000D01*
X103317000Y-144748000D01*
X103315000Y-144748000D01*
X103312000Y-144747000D01*
X103310000Y-144746000D01*
X103307000Y-144745000D01*
X103305000Y-144743000D01*
X103303000Y-144742000D01*
X103301000Y-144740000D01*
X103299000Y-144739000D01*
X103297000Y-144737000D01*
X103295000Y-144735000D01*
X103293000Y-144733000D01*
X103291000Y-144731000D01*
X103290000Y-144729000D01*
X103288000Y-144727000D01*
X103287000Y-144725000D01*
X103285000Y-144723000D01*
X103284000Y-144720000D01*
X103283000Y-144718000D01*
X103282000Y-144715000D01*
X103282000Y-144713000D01*
X103281000Y-144710000D01*
X103281000Y-144708000D01*
X103280000Y-144705000D01*
X103280000Y-144703000D01*
X103280000Y-144700000D01*
X103280000Y-143740000D01*
X103280000Y-143737000D01*
X103280000Y-143735000D01*
X103281000Y-143732000D01*
X103281000Y-143730000D01*
X103282000Y-143727000D01*
X103282000Y-143725000D01*
X103283000Y-143722000D01*
X103284000Y-143720000D01*
X103285000Y-143717000D01*
X103287000Y-143715000D01*
X103288000Y-143713000D01*
X103290000Y-143711000D01*
X103291000Y-143709000D01*
X103293000Y-143707000D01*
X103295000Y-143705000D01*
X103297000Y-143703000D01*
X103299000Y-143701000D01*
X103301000Y-143700000D01*
X103303000Y-143698000D01*
X103305000Y-143697000D01*
X103307000Y-143695000D01*
X103310000Y-143694000D01*
X103312000Y-143693000D01*
X103315000Y-143692000D01*
X103317000Y-143692000D01*
X103320000Y-143691000D01*
X103322000Y-143691000D01*
X103325000Y-143690000D01*
X103327000Y-143690000D01*
X103330000Y-143690000D01*
X104730000Y-143690000D01*
X104733000Y-143690000D01*
X104735000Y-143690000D01*
X104738000Y-143691000D01*
G37*
%TO.C,U13*%
D10*
X92830197Y-113003600D02*
X92829999Y-113033600D01*
X92829038Y-113043354D01*
X92826193Y-113052734D01*
X92821572Y-113061378D01*
X92815099Y-113068700D01*
X92807777Y-113075173D01*
X92799133Y-113079794D01*
X92789753Y-113082639D01*
X92779999Y-113083600D01*
X92130199Y-113083600D01*
X92130199Y-112883600D01*
X92710199Y-112883600D01*
X92830197Y-113003600D01*
G36*
X92830197Y-113003600D02*
G01*
X92829999Y-113033600D01*
X92829038Y-113043354D01*
X92826193Y-113052734D01*
X92821572Y-113061378D01*
X92815099Y-113068700D01*
X92807777Y-113075173D01*
X92799133Y-113079794D01*
X92789753Y-113082639D01*
X92779999Y-113083600D01*
X92130199Y-113083600D01*
X92130199Y-112883600D01*
X92710199Y-112883600D01*
X92830197Y-113003600D01*
G37*
X94090554Y-115484161D02*
X94099933Y-115487006D01*
X94108578Y-115491627D01*
X94116154Y-115497845D01*
X94122373Y-115505422D01*
X94126993Y-115514066D01*
X94129838Y-115523446D01*
X94130799Y-115533200D01*
X94130698Y-116483601D01*
X93130698Y-116483601D01*
X93130698Y-115885601D01*
X93545698Y-115483601D01*
X94080799Y-115483200D01*
X94090554Y-115484161D01*
G36*
X94090554Y-115484161D02*
G01*
X94099933Y-115487006D01*
X94108578Y-115491627D01*
X94116154Y-115497845D01*
X94122373Y-115505422D01*
X94126993Y-115514066D01*
X94129838Y-115523446D01*
X94130799Y-115533200D01*
X94130698Y-116483601D01*
X93130698Y-116483601D01*
X93130698Y-115885601D01*
X93545698Y-115483601D01*
X94080799Y-115483200D01*
X94090554Y-115484161D01*
G37*
X95715699Y-115483601D02*
X96130699Y-115885601D01*
X96130699Y-116483601D01*
X95130699Y-116483601D01*
X95130598Y-115533200D01*
X95131559Y-115523446D01*
X95134404Y-115514066D01*
X95139024Y-115505422D01*
X95145243Y-115497845D01*
X95152819Y-115491627D01*
X95161464Y-115487006D01*
X95170843Y-115484161D01*
X95180598Y-115483200D01*
X95715699Y-115483601D01*
G36*
X95715699Y-115483601D02*
G01*
X96130699Y-115885601D01*
X96130699Y-116483601D01*
X95130699Y-116483601D01*
X95130598Y-115533200D01*
X95131559Y-115523446D01*
X95134404Y-115514066D01*
X95139024Y-115505422D01*
X95145243Y-115497845D01*
X95152819Y-115491627D01*
X95161464Y-115487006D01*
X95170843Y-115484161D01*
X95180598Y-115483200D01*
X95715699Y-115483601D01*
G37*
X93089952Y-114884062D02*
X93099332Y-114886907D01*
X93107976Y-114891528D01*
X93115553Y-114897746D01*
X93121771Y-114905323D01*
X93126392Y-114913967D01*
X93129237Y-114923346D01*
X93130198Y-114933101D01*
X93130198Y-115483101D01*
X92930198Y-115616101D01*
X92930198Y-116483101D01*
X92730198Y-116483101D01*
X92730198Y-115483101D01*
X92130198Y-115483101D01*
X92130198Y-114883101D01*
X93080198Y-114883101D01*
X93089952Y-114884062D01*
G36*
X93089952Y-114884062D02*
G01*
X93099332Y-114886907D01*
X93107976Y-114891528D01*
X93115553Y-114897746D01*
X93121771Y-114905323D01*
X93126392Y-114913967D01*
X93129237Y-114923346D01*
X93130198Y-114933101D01*
X93130198Y-115483101D01*
X92930198Y-115616101D01*
X92930198Y-116483101D01*
X92730198Y-116483101D01*
X92730198Y-115483101D01*
X92130198Y-115483101D01*
X92130198Y-114883101D01*
X93080198Y-114883101D01*
X93089952Y-114884062D01*
G37*
X92930200Y-112483598D02*
X92928278Y-112503107D01*
X92922588Y-112521866D01*
X92913347Y-112539155D01*
X92900911Y-112554309D01*
X92885757Y-112566745D01*
X92868468Y-112575986D01*
X92849709Y-112581677D01*
X92830200Y-112583598D01*
X92810691Y-112581677D01*
X92791931Y-112575986D01*
X92774643Y-112566745D01*
X92759489Y-112554309D01*
X92747053Y-112539155D01*
X92737812Y-112521866D01*
X92732121Y-112503107D01*
X92730200Y-112483598D01*
X92730200Y-111883600D01*
X92930199Y-111883600D01*
X92930200Y-112483598D01*
G36*
X92930200Y-112483598D02*
G01*
X92928278Y-112503107D01*
X92922588Y-112521866D01*
X92913347Y-112539155D01*
X92900911Y-112554309D01*
X92885757Y-112566745D01*
X92868468Y-112575986D01*
X92849709Y-112581677D01*
X92830200Y-112583598D01*
X92810691Y-112581677D01*
X92791931Y-112575986D01*
X92774643Y-112566745D01*
X92759489Y-112554309D01*
X92747053Y-112539155D01*
X92737812Y-112521866D01*
X92732121Y-112503107D01*
X92730200Y-112483598D01*
X92730200Y-111883600D01*
X92930199Y-111883600D01*
X92930200Y-112483598D01*
G37*
X93330199Y-112483598D02*
X93328278Y-112503107D01*
X93322587Y-112521866D01*
X93313346Y-112539155D01*
X93300910Y-112554309D01*
X93285756Y-112566745D01*
X93268467Y-112575986D01*
X93249708Y-112581677D01*
X93230199Y-112583598D01*
X93210690Y-112581677D01*
X93191931Y-112575986D01*
X93174642Y-112566745D01*
X93159488Y-112554309D01*
X93147052Y-112539155D01*
X93137811Y-112521866D01*
X93132120Y-112503107D01*
X93130199Y-112483598D01*
X93130199Y-111883600D01*
X93330199Y-111883600D01*
X93330199Y-112483598D01*
G36*
X93330199Y-112483598D02*
G01*
X93328278Y-112503107D01*
X93322587Y-112521866D01*
X93313346Y-112539155D01*
X93300910Y-112554309D01*
X93285756Y-112566745D01*
X93268467Y-112575986D01*
X93249708Y-112581677D01*
X93230199Y-112583598D01*
X93210690Y-112581677D01*
X93191931Y-112575986D01*
X93174642Y-112566745D01*
X93159488Y-112554309D01*
X93147052Y-112539155D01*
X93137811Y-112521866D01*
X93132120Y-112503107D01*
X93130199Y-112483598D01*
X93130199Y-111883600D01*
X93330199Y-111883600D01*
X93330199Y-112483598D01*
G37*
X93730198Y-112483598D02*
X93728277Y-112503107D01*
X93722586Y-112521866D01*
X93713345Y-112539155D01*
X93700909Y-112554309D01*
X93685755Y-112566745D01*
X93668467Y-112575986D01*
X93649707Y-112581677D01*
X93630198Y-112583598D01*
X93610689Y-112581677D01*
X93591930Y-112575986D01*
X93574641Y-112566745D01*
X93559488Y-112554309D01*
X93547051Y-112539155D01*
X93537810Y-112521866D01*
X93532120Y-112503107D01*
X93530198Y-112483598D01*
X93530198Y-111883600D01*
X93730198Y-111883600D01*
X93730198Y-112483598D01*
G36*
X93730198Y-112483598D02*
G01*
X93728277Y-112503107D01*
X93722586Y-112521866D01*
X93713345Y-112539155D01*
X93700909Y-112554309D01*
X93685755Y-112566745D01*
X93668467Y-112575986D01*
X93649707Y-112581677D01*
X93630198Y-112583598D01*
X93610689Y-112581677D01*
X93591930Y-112575986D01*
X93574641Y-112566745D01*
X93559488Y-112554309D01*
X93547051Y-112539155D01*
X93537810Y-112521866D01*
X93532120Y-112503107D01*
X93530198Y-112483598D01*
X93530198Y-111883600D01*
X93730198Y-111883600D01*
X93730198Y-112483598D01*
G37*
X94130200Y-112483598D02*
X94128279Y-112503107D01*
X94122588Y-112521866D01*
X94113347Y-112539155D01*
X94100911Y-112554309D01*
X94085757Y-112566745D01*
X94068468Y-112575986D01*
X94049709Y-112581677D01*
X94030200Y-112583598D01*
X94010691Y-112581677D01*
X93991932Y-112575986D01*
X93974643Y-112566745D01*
X93959489Y-112554309D01*
X93947053Y-112539155D01*
X93937812Y-112521866D01*
X93932121Y-112503107D01*
X93930200Y-112483598D01*
X93930200Y-111883600D01*
X94130200Y-111883600D01*
X94130200Y-112483598D01*
G36*
X94130200Y-112483598D02*
G01*
X94128279Y-112503107D01*
X94122588Y-112521866D01*
X94113347Y-112539155D01*
X94100911Y-112554309D01*
X94085757Y-112566745D01*
X94068468Y-112575986D01*
X94049709Y-112581677D01*
X94030200Y-112583598D01*
X94010691Y-112581677D01*
X93991932Y-112575986D01*
X93974643Y-112566745D01*
X93959489Y-112554309D01*
X93947053Y-112539155D01*
X93937812Y-112521866D01*
X93932121Y-112503107D01*
X93930200Y-112483598D01*
X93930200Y-111883600D01*
X94130200Y-111883600D01*
X94130200Y-112483598D01*
G37*
X94930198Y-112483598D02*
X94928277Y-112503107D01*
X94922586Y-112521866D01*
X94913345Y-112539155D01*
X94900909Y-112554309D01*
X94885755Y-112566745D01*
X94868467Y-112575986D01*
X94849707Y-112581677D01*
X94830198Y-112583598D01*
X94810689Y-112581677D01*
X94791930Y-112575986D01*
X94774641Y-112566745D01*
X94759488Y-112554309D01*
X94747051Y-112539155D01*
X94737810Y-112521866D01*
X94732120Y-112503107D01*
X94730198Y-112483598D01*
X94730198Y-111883600D01*
X94930198Y-111883600D01*
X94930198Y-112483598D01*
G36*
X94930198Y-112483598D02*
G01*
X94928277Y-112503107D01*
X94922586Y-112521866D01*
X94913345Y-112539155D01*
X94900909Y-112554309D01*
X94885755Y-112566745D01*
X94868467Y-112575986D01*
X94849707Y-112581677D01*
X94830198Y-112583598D01*
X94810689Y-112581677D01*
X94791930Y-112575986D01*
X94774641Y-112566745D01*
X94759488Y-112554309D01*
X94747051Y-112539155D01*
X94737810Y-112521866D01*
X94732120Y-112503107D01*
X94730198Y-112483598D01*
X94730198Y-111883600D01*
X94930198Y-111883600D01*
X94930198Y-112483598D01*
G37*
X95330200Y-112483598D02*
X95328279Y-112503107D01*
X95322588Y-112521866D01*
X95313347Y-112539155D01*
X95300911Y-112554309D01*
X95285757Y-112566745D01*
X95268469Y-112575986D01*
X95249709Y-112581677D01*
X95230200Y-112583598D01*
X95210691Y-112581677D01*
X95191932Y-112575986D01*
X95174643Y-112566745D01*
X95159489Y-112554309D01*
X95147053Y-112539155D01*
X95137812Y-112521866D01*
X95132122Y-112503107D01*
X95130200Y-112483598D01*
X95130200Y-111883600D01*
X95330200Y-111883600D01*
X95330200Y-112483598D01*
G36*
X95330200Y-112483598D02*
G01*
X95328279Y-112503107D01*
X95322588Y-112521866D01*
X95313347Y-112539155D01*
X95300911Y-112554309D01*
X95285757Y-112566745D01*
X95268469Y-112575986D01*
X95249709Y-112581677D01*
X95230200Y-112583598D01*
X95210691Y-112581677D01*
X95191932Y-112575986D01*
X95174643Y-112566745D01*
X95159489Y-112554309D01*
X95147053Y-112539155D01*
X95137812Y-112521866D01*
X95132122Y-112503107D01*
X95130200Y-112483598D01*
X95130200Y-111883600D01*
X95330200Y-111883600D01*
X95330200Y-112483598D01*
G37*
X95730199Y-112483598D02*
X95728278Y-112503107D01*
X95722587Y-112521866D01*
X95713346Y-112539155D01*
X95700910Y-112554309D01*
X95685756Y-112566745D01*
X95668468Y-112575986D01*
X95649708Y-112581677D01*
X95630199Y-112583598D01*
X95610690Y-112581677D01*
X95591931Y-112575986D01*
X95574642Y-112566745D01*
X95559489Y-112554309D01*
X95547052Y-112539155D01*
X95537811Y-112521866D01*
X95532121Y-112503107D01*
X95530199Y-112483598D01*
X95530199Y-111883600D01*
X95730199Y-111883600D01*
X95730199Y-112483598D01*
G36*
X95730199Y-112483598D02*
G01*
X95728278Y-112503107D01*
X95722587Y-112521866D01*
X95713346Y-112539155D01*
X95700910Y-112554309D01*
X95685756Y-112566745D01*
X95668468Y-112575986D01*
X95649708Y-112581677D01*
X95630199Y-112583598D01*
X95610690Y-112581677D01*
X95591931Y-112575986D01*
X95574642Y-112566745D01*
X95559489Y-112554309D01*
X95547052Y-112539155D01*
X95537811Y-112521866D01*
X95532121Y-112503107D01*
X95530199Y-112483598D01*
X95530199Y-111883600D01*
X95730199Y-111883600D01*
X95730199Y-112483598D01*
G37*
X96130199Y-112483598D02*
X96128277Y-112503107D01*
X96122587Y-112521866D01*
X96113346Y-112539155D01*
X96100909Y-112554309D01*
X96085756Y-112566745D01*
X96068467Y-112575986D01*
X96049708Y-112581677D01*
X96030199Y-112583598D01*
X96010689Y-112581677D01*
X95991930Y-112575986D01*
X95974641Y-112566745D01*
X95959488Y-112554309D01*
X95947052Y-112539155D01*
X95937811Y-112521866D01*
X95932120Y-112503107D01*
X95930198Y-112483598D01*
X95930199Y-111883600D01*
X96130198Y-111883600D01*
X96130199Y-112483598D01*
G36*
X96130199Y-112483598D02*
G01*
X96128277Y-112503107D01*
X96122587Y-112521866D01*
X96113346Y-112539155D01*
X96100909Y-112554309D01*
X96085756Y-112566745D01*
X96068467Y-112575986D01*
X96049708Y-112581677D01*
X96030199Y-112583598D01*
X96010689Y-112581677D01*
X95991930Y-112575986D01*
X95974641Y-112566745D01*
X95959488Y-112554309D01*
X95947052Y-112539155D01*
X95937811Y-112521866D01*
X95932120Y-112503107D01*
X95930198Y-112483598D01*
X95930199Y-111883600D01*
X96130198Y-111883600D01*
X96130199Y-112483598D01*
G37*
X93240152Y-113684260D02*
X93249532Y-113687105D01*
X93258176Y-113691726D01*
X93265753Y-113697944D01*
X93271971Y-113705521D01*
X93276592Y-113714165D01*
X93279437Y-113723545D01*
X93280398Y-113733299D01*
X93280203Y-113833601D01*
X93279242Y-113843355D01*
X93276397Y-113852735D01*
X93271776Y-113861379D01*
X93265558Y-113868956D01*
X93257981Y-113875174D01*
X93249337Y-113879794D01*
X93239958Y-113882640D01*
X93230203Y-113883601D01*
X92130193Y-113883601D01*
X92130193Y-113683601D01*
X93230398Y-113683299D01*
X93240152Y-113684260D01*
G36*
X93240152Y-113684260D02*
G01*
X93249532Y-113687105D01*
X93258176Y-113691726D01*
X93265753Y-113697944D01*
X93271971Y-113705521D01*
X93276592Y-113714165D01*
X93279437Y-113723545D01*
X93280398Y-113733299D01*
X93280203Y-113833601D01*
X93279242Y-113843355D01*
X93276397Y-113852735D01*
X93271776Y-113861379D01*
X93265558Y-113868956D01*
X93257981Y-113875174D01*
X93249337Y-113879794D01*
X93239958Y-113882640D01*
X93230203Y-113883601D01*
X92130193Y-113883601D01*
X92130193Y-113683601D01*
X93230398Y-113683299D01*
X93240152Y-113684260D01*
G37*
X93240152Y-114484260D02*
X93249532Y-114487105D01*
X93258176Y-114491726D01*
X93265753Y-114497944D01*
X93271971Y-114505521D01*
X93276592Y-114514165D01*
X93279437Y-114523545D01*
X93280398Y-114533299D01*
X93280203Y-114633601D01*
X93279242Y-114643355D01*
X93276397Y-114652735D01*
X93271776Y-114661379D01*
X93265558Y-114668956D01*
X93257981Y-114675174D01*
X93249337Y-114679794D01*
X93239958Y-114682640D01*
X93230203Y-114683601D01*
X92130193Y-114683601D01*
X92130193Y-114483601D01*
X93230398Y-114483299D01*
X93240152Y-114484260D01*
G36*
X93240152Y-114484260D02*
G01*
X93249532Y-114487105D01*
X93258176Y-114491726D01*
X93265753Y-114497944D01*
X93271971Y-114505521D01*
X93276592Y-114514165D01*
X93279437Y-114523545D01*
X93280398Y-114533299D01*
X93280203Y-114633601D01*
X93279242Y-114643355D01*
X93276397Y-114652735D01*
X93271776Y-114661379D01*
X93265558Y-114668956D01*
X93257981Y-114675174D01*
X93249337Y-114679794D01*
X93239958Y-114682640D01*
X93230203Y-114683601D01*
X92130193Y-114683601D01*
X92130193Y-114483601D01*
X93230398Y-114483299D01*
X93240152Y-114484260D01*
G37*
X94530199Y-112983604D02*
X94529238Y-112993359D01*
X94526393Y-113002738D01*
X94521772Y-113011382D01*
X94515554Y-113018959D01*
X94507977Y-113025177D01*
X94499333Y-113029798D01*
X94489953Y-113032643D01*
X94480199Y-113033604D01*
X94379897Y-113033799D01*
X94370143Y-113032838D01*
X94360763Y-113029993D01*
X94352119Y-113025372D01*
X94344542Y-113019154D01*
X94338324Y-113011577D01*
X94333703Y-113002933D01*
X94330858Y-112993553D01*
X94329897Y-112983799D01*
X94330199Y-111883594D01*
X94530199Y-111883594D01*
X94530199Y-112983604D01*
G36*
X94530199Y-112983604D02*
G01*
X94529238Y-112993359D01*
X94526393Y-113002738D01*
X94521772Y-113011382D01*
X94515554Y-113018959D01*
X94507977Y-113025177D01*
X94499333Y-113029798D01*
X94489953Y-113032643D01*
X94480199Y-113033604D01*
X94379897Y-113033799D01*
X94370143Y-113032838D01*
X94360763Y-113029993D01*
X94352119Y-113025372D01*
X94344542Y-113019154D01*
X94338324Y-113011577D01*
X94333703Y-113002933D01*
X94330858Y-112993553D01*
X94329897Y-112983799D01*
X94330199Y-111883594D01*
X94530199Y-111883594D01*
X94530199Y-112983604D01*
G37*
X94480199Y-115333596D02*
X94489953Y-115334557D01*
X94499333Y-115337402D01*
X94507977Y-115342023D01*
X94515554Y-115348241D01*
X94521772Y-115355818D01*
X94526393Y-115364462D01*
X94529238Y-115373841D01*
X94530199Y-115383596D01*
X94530199Y-116483606D01*
X94330199Y-116483606D01*
X94329897Y-115383401D01*
X94330858Y-115373647D01*
X94333703Y-115364267D01*
X94338324Y-115355623D01*
X94344542Y-115348046D01*
X94352119Y-115341828D01*
X94360763Y-115337207D01*
X94370143Y-115334362D01*
X94379897Y-115333401D01*
X94480199Y-115333596D01*
G36*
X94480199Y-115333596D02*
G01*
X94489953Y-115334557D01*
X94499333Y-115337402D01*
X94507977Y-115342023D01*
X94515554Y-115348241D01*
X94521772Y-115355818D01*
X94526393Y-115364462D01*
X94529238Y-115373841D01*
X94530199Y-115383596D01*
X94530199Y-116483606D01*
X94330199Y-116483606D01*
X94329897Y-115383401D01*
X94330858Y-115373647D01*
X94333703Y-115364267D01*
X94338324Y-115355623D01*
X94344542Y-115348046D01*
X94352119Y-115341828D01*
X94360763Y-115337207D01*
X94370143Y-115334362D01*
X94379897Y-115333401D01*
X94480199Y-115333596D01*
G37*
X96730205Y-113883600D02*
X95530000Y-113883902D01*
X95520246Y-113882941D01*
X95510866Y-113880096D01*
X95502222Y-113875475D01*
X95494645Y-113869257D01*
X95488427Y-113861680D01*
X95483806Y-113853036D01*
X95480961Y-113843656D01*
X95480000Y-113833902D01*
X95480195Y-113733600D01*
X95481156Y-113723846D01*
X95484001Y-113714466D01*
X95488622Y-113705822D01*
X95494840Y-113698245D01*
X95502417Y-113692027D01*
X95511061Y-113687406D01*
X95520440Y-113684561D01*
X95530195Y-113683600D01*
X96730205Y-113683600D01*
X96730205Y-113883600D01*
G36*
X96730205Y-113883600D02*
G01*
X95530000Y-113883902D01*
X95520246Y-113882941D01*
X95510866Y-113880096D01*
X95502222Y-113875475D01*
X95494645Y-113869257D01*
X95488427Y-113861680D01*
X95483806Y-113853036D01*
X95480961Y-113843656D01*
X95480000Y-113833902D01*
X95480195Y-113733600D01*
X95481156Y-113723846D01*
X95484001Y-113714466D01*
X95488622Y-113705822D01*
X95494840Y-113698245D01*
X95502417Y-113692027D01*
X95511061Y-113687406D01*
X95520440Y-113684561D01*
X95530195Y-113683600D01*
X96730205Y-113683600D01*
X96730205Y-113883600D01*
G37*
X96730205Y-113483599D02*
X95530000Y-113483901D01*
X95520246Y-113482940D01*
X95510866Y-113480095D01*
X95502222Y-113475475D01*
X95494645Y-113469256D01*
X95488427Y-113461680D01*
X95483806Y-113453035D01*
X95480961Y-113443656D01*
X95480000Y-113433901D01*
X95480195Y-113223600D01*
X95481156Y-113213846D01*
X95488621Y-113195822D01*
X95494840Y-113188245D01*
X95502416Y-113182027D01*
X95511061Y-113177407D01*
X95520440Y-113174561D01*
X95530195Y-113173601D01*
X95880195Y-113173600D01*
X96080205Y-112883600D01*
X96730205Y-112883600D01*
X96730205Y-113483599D01*
G36*
X96730205Y-113483599D02*
G01*
X95530000Y-113483901D01*
X95520246Y-113482940D01*
X95510866Y-113480095D01*
X95502222Y-113475475D01*
X95494645Y-113469256D01*
X95488427Y-113461680D01*
X95483806Y-113453035D01*
X95480961Y-113443656D01*
X95480000Y-113433901D01*
X95480195Y-113223600D01*
X95481156Y-113213846D01*
X95488621Y-113195822D01*
X95494840Y-113188245D01*
X95502416Y-113182027D01*
X95511061Y-113177407D01*
X95520440Y-113174561D01*
X95530195Y-113173601D01*
X95880195Y-113173600D01*
X96080205Y-112883600D01*
X96730205Y-112883600D01*
X96730205Y-113483599D01*
G37*
X92830203Y-113333599D02*
X93230203Y-113333599D01*
X93239958Y-113334560D01*
X93249337Y-113337405D01*
X93257981Y-113342026D01*
X93265558Y-113348244D01*
X93271776Y-113355821D01*
X93276397Y-113364465D01*
X93279242Y-113373845D01*
X93280203Y-113383599D01*
X93280203Y-113433599D01*
X93279242Y-113443353D01*
X93276397Y-113452733D01*
X93271776Y-113461377D01*
X93265558Y-113468954D01*
X93257981Y-113475172D01*
X93249337Y-113479793D01*
X93239958Y-113482638D01*
X93230203Y-113483599D01*
X92130193Y-113483599D01*
X92130193Y-113283599D01*
X92760193Y-113283599D01*
X92830203Y-113333599D01*
G36*
X92830203Y-113333599D02*
G01*
X93230203Y-113333599D01*
X93239958Y-113334560D01*
X93249337Y-113337405D01*
X93257981Y-113342026D01*
X93265558Y-113348244D01*
X93271776Y-113355821D01*
X93276397Y-113364465D01*
X93279242Y-113373845D01*
X93280203Y-113383599D01*
X93280203Y-113433599D01*
X93279242Y-113443353D01*
X93276397Y-113452733D01*
X93271776Y-113461377D01*
X93265558Y-113468954D01*
X93257981Y-113475172D01*
X93249337Y-113479793D01*
X93239958Y-113482638D01*
X93230203Y-113483599D01*
X92130193Y-113483599D01*
X92130193Y-113283599D01*
X92760193Y-113283599D01*
X92830203Y-113333599D01*
G37*
X92830203Y-114133599D02*
X93230203Y-114133599D01*
X93239958Y-114134560D01*
X93249337Y-114137405D01*
X93257981Y-114142026D01*
X93265558Y-114148244D01*
X93271776Y-114155821D01*
X93276397Y-114164465D01*
X93279242Y-114173845D01*
X93280203Y-114183599D01*
X93280203Y-114233599D01*
X93279242Y-114243353D01*
X93276397Y-114252733D01*
X93271776Y-114261377D01*
X93265558Y-114268954D01*
X93257981Y-114275172D01*
X93249337Y-114279793D01*
X93239958Y-114282638D01*
X93230203Y-114283599D01*
X92130193Y-114283599D01*
X92130193Y-114083599D01*
X92760193Y-114083599D01*
X92830203Y-114133599D01*
G36*
X92830203Y-114133599D02*
G01*
X93230203Y-114133599D01*
X93239958Y-114134560D01*
X93249337Y-114137405D01*
X93257981Y-114142026D01*
X93265558Y-114148244D01*
X93271776Y-114155821D01*
X93276397Y-114164465D01*
X93279242Y-114173845D01*
X93280203Y-114183599D01*
X93280203Y-114233599D01*
X93279242Y-114243353D01*
X93276397Y-114252733D01*
X93271776Y-114261377D01*
X93265558Y-114268954D01*
X93257981Y-114275172D01*
X93249337Y-114279793D01*
X93239958Y-114282638D01*
X93230203Y-114283599D01*
X92130193Y-114283599D01*
X92130193Y-114083599D01*
X92760193Y-114083599D01*
X92830203Y-114133599D01*
G37*
X94839952Y-115334557D02*
X94849332Y-115337402D01*
X94857976Y-115342023D01*
X94865553Y-115348241D01*
X94871771Y-115355818D01*
X94876392Y-115364462D01*
X94879237Y-115373841D01*
X94880198Y-115383596D01*
X94880198Y-115783596D01*
X94930198Y-115853606D01*
X94930198Y-116483606D01*
X94730198Y-116483606D01*
X94730198Y-115383596D01*
X94731159Y-115373841D01*
X94734005Y-115364462D01*
X94738625Y-115355818D01*
X94744843Y-115348241D01*
X94752420Y-115342023D01*
X94761064Y-115337402D01*
X94770444Y-115334557D01*
X94780198Y-115333596D01*
X94830198Y-115333596D01*
X94839952Y-115334557D01*
G36*
X94839952Y-115334557D02*
G01*
X94849332Y-115337402D01*
X94857976Y-115342023D01*
X94865553Y-115348241D01*
X94871771Y-115355818D01*
X94876392Y-115364462D01*
X94879237Y-115373841D01*
X94880198Y-115383596D01*
X94880198Y-115783596D01*
X94930198Y-115853606D01*
X94930198Y-116483606D01*
X94730198Y-116483606D01*
X94730198Y-115383596D01*
X94731159Y-115373841D01*
X94734005Y-115364462D01*
X94738625Y-115355818D01*
X94744843Y-115348241D01*
X94752420Y-115342023D01*
X94761064Y-115337402D01*
X94770444Y-115334557D01*
X94780198Y-115333596D01*
X94830198Y-115333596D01*
X94839952Y-115334557D01*
G37*
X96730205Y-114283601D02*
X96000205Y-114283601D01*
X95930195Y-114233601D01*
X95530195Y-114233601D01*
X95520440Y-114232640D01*
X95511061Y-114229794D01*
X95502417Y-114225174D01*
X95494840Y-114218956D01*
X95488622Y-114211379D01*
X95484001Y-114202735D01*
X95481156Y-114193355D01*
X95480195Y-114183601D01*
X95480195Y-114133601D01*
X95481156Y-114123847D01*
X95484001Y-114114467D01*
X95488622Y-114105823D01*
X95494840Y-114098246D01*
X95502417Y-114092028D01*
X95511061Y-114087407D01*
X95520440Y-114084562D01*
X95530195Y-114083601D01*
X96730205Y-114083601D01*
X96730205Y-114283601D01*
G36*
X96730205Y-114283601D02*
G01*
X96000205Y-114283601D01*
X95930195Y-114233601D01*
X95530195Y-114233601D01*
X95520440Y-114232640D01*
X95511061Y-114229794D01*
X95502417Y-114225174D01*
X95494840Y-114218956D01*
X95488622Y-114211379D01*
X95484001Y-114202735D01*
X95481156Y-114193355D01*
X95480195Y-114183601D01*
X95480195Y-114133601D01*
X95481156Y-114123847D01*
X95484001Y-114114467D01*
X95488622Y-114105823D01*
X95494840Y-114098246D01*
X95502417Y-114092028D01*
X95511061Y-114087407D01*
X95520440Y-114084562D01*
X95530195Y-114083601D01*
X96730205Y-114083601D01*
X96730205Y-114283601D01*
G37*
X96730205Y-115483600D02*
X96080205Y-115483600D01*
X96080205Y-115270600D01*
X95935205Y-115083600D01*
X95530000Y-115083902D01*
X95520246Y-115082941D01*
X95510866Y-115080096D01*
X95502222Y-115075475D01*
X95494645Y-115069257D01*
X95488427Y-115061680D01*
X95480961Y-115043656D01*
X95480000Y-115033902D01*
X95480195Y-114933600D01*
X95480000Y-114633903D01*
X95480195Y-114533602D01*
X95481156Y-114523847D01*
X95484001Y-114514468D01*
X95488621Y-114505823D01*
X95494840Y-114498247D01*
X95502416Y-114492029D01*
X95511061Y-114487408D01*
X95520440Y-114484563D01*
X95530195Y-114483602D01*
X96730205Y-114483602D01*
X96730205Y-115483600D01*
G36*
X96730205Y-115483600D02*
G01*
X96080205Y-115483600D01*
X96080205Y-115270600D01*
X95935205Y-115083600D01*
X95530000Y-115083902D01*
X95520246Y-115082941D01*
X95510866Y-115080096D01*
X95502222Y-115075475D01*
X95494645Y-115069257D01*
X95488427Y-115061680D01*
X95480961Y-115043656D01*
X95480000Y-115033902D01*
X95480195Y-114933600D01*
X95480000Y-114633903D01*
X95480195Y-114533602D01*
X95481156Y-114523847D01*
X95484001Y-114514468D01*
X95488621Y-114505823D01*
X95494840Y-114498247D01*
X95502416Y-114492029D01*
X95511061Y-114487408D01*
X95520440Y-114484563D01*
X95530195Y-114483602D01*
X96730205Y-114483602D01*
X96730205Y-115483600D01*
G37*
%TD*%
D12*
%TO.C,J1*%
X131050000Y-99849999D03*
X130550000Y-99849999D03*
X130050000Y-99849999D03*
X129550000Y-99849999D03*
X129050000Y-99849999D03*
X128550000Y-99849999D03*
X128050000Y-99849999D03*
X127550000Y-99849999D03*
X127050000Y-99849999D03*
X126550000Y-99849999D03*
X126050000Y-99849999D03*
X125550000Y-99849999D03*
X125800000Y-98150000D03*
X126300000Y-98150000D03*
X126800000Y-98150000D03*
X127300000Y-98150000D03*
X127800000Y-98150000D03*
X128300000Y-98150000D03*
X128800000Y-98150000D03*
X129300000Y-98150000D03*
X129800000Y-98150000D03*
X130300000Y-98150000D03*
X130800000Y-98150000D03*
X131300000Y-98150000D03*
%TD*%
D13*
%TO.C,R85*%
X87823682Y-144856065D03*
X86173682Y-144856065D03*
%TD*%
D14*
%TO.C,C101*%
X93075000Y-150800000D03*
X94625000Y-150800000D03*
%TD*%
D15*
%TO.C,R9*%
X129990000Y-120300000D03*
X131010000Y-120300000D03*
%TD*%
D16*
%TO.C,U23*%
X99700000Y-149150000D03*
X99700000Y-148450000D03*
%TD*%
D17*
%TO.C,D3*%
X87052666Y-90710000D03*
X88702666Y-90710000D03*
%TD*%
D18*
%TO.C,TP3*%
X74150000Y-147700000D03*
%TD*%
%TO.C,TP9*%
X128400000Y-112800000D03*
%TD*%
%TO.C,TP16*%
X62150000Y-124200000D03*
%TD*%
D19*
%TO.C,R31*%
X87911130Y-143166529D03*
X87911130Y-141516529D03*
%TD*%
D20*
%TO.C,C78*%
X105769200Y-118237800D03*
X105769200Y-119787800D03*
%TD*%
D21*
%TO.C,C34*%
X107250000Y-132697869D03*
X107250000Y-131147869D03*
%TD*%
D22*
%TO.C,C10*%
X74643600Y-118749900D03*
X74643600Y-117789900D03*
%TD*%
D23*
%TO.C,U22*%
X100050000Y-158150000D03*
X100050000Y-158850000D03*
%TD*%
D13*
%TO.C,R79*%
X90225000Y-108650000D03*
X88575000Y-108650000D03*
%TD*%
D24*
%TO.C,U4*%
X108290000Y-109555200D03*
X108290000Y-109155200D03*
X108290000Y-108755200D03*
X108290000Y-108355200D03*
X107890000Y-109555200D03*
X107890000Y-109155200D03*
X107890000Y-108755200D03*
X107890000Y-108355200D03*
X107490000Y-109555200D03*
X107490000Y-109155200D03*
X107490000Y-108755200D03*
X107490000Y-108355200D03*
X107090000Y-109555200D03*
X107090000Y-109155200D03*
X107090000Y-108755200D03*
X107090000Y-108355200D03*
X106690000Y-109555200D03*
X106690000Y-109155200D03*
X106690000Y-108755200D03*
X106690000Y-108355200D03*
X106290000Y-109555200D03*
X106290000Y-109155200D03*
X106290000Y-108755200D03*
X106290000Y-108355200D03*
X105890000Y-109555200D03*
X105890000Y-109155200D03*
X105890000Y-108755200D03*
X105890000Y-108355200D03*
%TD*%
D25*
%TO.C,C61*%
X81859000Y-107946700D03*
X81859000Y-108906700D03*
%TD*%
D26*
%TO.C,U7*%
X85360000Y-95420000D03*
X86310000Y-95420000D03*
X87260000Y-95420000D03*
D27*
X87260000Y-92920000D03*
X86310000Y-92920000D03*
X85360000Y-92920000D03*
%TD*%
D28*
%TO.C,D4*%
X110600000Y-94450000D03*
X107800000Y-94450000D03*
%TD*%
D29*
%TO.C,U6*%
X104343892Y-126456831D03*
X104343892Y-126856831D03*
X104343892Y-127256831D03*
X104343892Y-127656831D03*
X104343892Y-128056831D03*
X104743892Y-126456831D03*
X104743892Y-126856831D03*
X104743892Y-127256831D03*
X104743892Y-127656831D03*
X104743892Y-128056831D03*
X105143892Y-126456831D03*
X105143892Y-126856831D03*
X105143892Y-127256831D03*
X105143892Y-127656831D03*
X105143892Y-128056831D03*
X105543892Y-126456831D03*
X105543892Y-126856831D03*
X105543892Y-127256831D03*
X105543892Y-127656831D03*
X105543892Y-128056831D03*
X105943892Y-126456831D03*
X105943892Y-126856831D03*
X105943892Y-127256831D03*
X105943892Y-127656831D03*
X105943892Y-128056831D03*
X106343892Y-126456831D03*
X106343892Y-126856831D03*
X106343892Y-127256831D03*
X106343892Y-127656831D03*
X106343892Y-128056831D03*
X106743892Y-126456831D03*
X106743892Y-126856831D03*
X106743892Y-127256831D03*
X106743892Y-127656831D03*
X106743892Y-128056831D03*
%TD*%
D30*
%TO.C,R62*%
X119661892Y-115958831D03*
X121311892Y-115958831D03*
%TD*%
D22*
%TO.C,C6*%
X71697200Y-118749900D03*
X71697200Y-117789900D03*
%TD*%
D31*
%TO.C,C35*%
X82698201Y-126143900D03*
X83658201Y-126143900D03*
%TD*%
D25*
%TO.C,C66*%
X86200000Y-115900000D03*
X86200000Y-116860000D03*
%TD*%
D30*
%TO.C,R30*%
X94111130Y-145441529D03*
X95761130Y-145441529D03*
%TD*%
D13*
%TO.C,R25*%
X88536400Y-122136800D03*
X86886400Y-122136800D03*
%TD*%
D20*
%TO.C,C56*%
X79200000Y-115225000D03*
X79200000Y-116775000D03*
%TD*%
D30*
%TO.C,R22*%
X77679400Y-122486300D03*
X79329400Y-122486300D03*
%TD*%
D22*
%TO.C,C32*%
X103511892Y-132402869D03*
X103511892Y-131442869D03*
%TD*%
D31*
%TO.C,C36*%
X78024400Y-124010300D03*
X78984400Y-124010300D03*
%TD*%
D32*
%TO.C,TP8*%
X135650000Y-96150000D03*
%TD*%
D20*
%TO.C,C130*%
X106900000Y-100650000D03*
X106900000Y-102200000D03*
%TD*%
D33*
%TO.C,R100*%
X114300000Y-94720000D03*
X114300000Y-93700000D03*
%TD*%
D22*
%TO.C,C50*%
X75800000Y-150180000D03*
X75800000Y-149220000D03*
%TD*%
D34*
%TO.C,U2*%
X66384193Y-114282431D03*
X67654193Y-114282431D03*
X68924193Y-114282431D03*
X70194193Y-114282431D03*
X70194193Y-107082431D03*
X68924193Y-107082431D03*
X67654193Y-107082431D03*
X66384193Y-107082431D03*
%TD*%
D19*
%TO.C,R84*%
X92200000Y-127025000D03*
X92200000Y-125375000D03*
%TD*%
D22*
%TO.C,C38*%
X85700000Y-118980000D03*
X85700000Y-118020000D03*
%TD*%
D19*
%TO.C,R38*%
X69600000Y-159275000D03*
X69600000Y-157625000D03*
%TD*%
D35*
%TO.C,R2*%
X64860000Y-105510000D03*
X64860000Y-106530000D03*
%TD*%
D36*
%TO.C,Q3*%
X120970000Y-103075000D03*
X119070000Y-103075000D03*
X120020000Y-104950000D03*
%TD*%
D35*
%TO.C,R33*%
X106500000Y-157740000D03*
X106500000Y-158760000D03*
%TD*%
D21*
%TO.C,C27*%
X108496892Y-123233831D03*
X108496892Y-121683831D03*
%TD*%
D37*
%TO.C,R11*%
X94625000Y-148912500D03*
X94625000Y-147087500D03*
%TD*%
D31*
%TO.C,C94*%
X129950000Y-119250000D03*
X130910000Y-119250000D03*
%TD*%
D38*
%TO.C,R71*%
X113342500Y-133700000D03*
X111517500Y-133700000D03*
%TD*%
D39*
%TO.C,C54*%
X64705400Y-154470400D03*
X63745400Y-154470400D03*
%TD*%
D40*
%TO.C,R105*%
X94350000Y-97250000D03*
X94350000Y-98900000D03*
%TD*%
D41*
%TO.C,IC1*%
X85724000Y-100775000D03*
D42*
X85849000Y-101275000D03*
X85849000Y-101775000D03*
D41*
X85724000Y-102275000D03*
D43*
X86387000Y-102437000D03*
D41*
X87050000Y-102275000D03*
D42*
X86925000Y-101775000D03*
X86925000Y-101275000D03*
D41*
X87050000Y-100775000D03*
D43*
X86387000Y-100612000D03*
%TD*%
D22*
%TO.C,C8*%
X73678400Y-118749900D03*
X73678400Y-117789900D03*
%TD*%
D18*
%TO.C,TP7*%
X61500000Y-139600000D03*
%TD*%
D22*
%TO.C,C62*%
X81880400Y-105880300D03*
X81880400Y-104920300D03*
%TD*%
D31*
%TO.C,C60*%
X79118400Y-109188700D03*
X80078400Y-109188700D03*
%TD*%
D35*
%TO.C,R5*%
X73790000Y-130350000D03*
X73790000Y-131370000D03*
%TD*%
D31*
%TO.C,C95*%
X130720000Y-121600000D03*
X131680000Y-121600000D03*
%TD*%
D17*
%TO.C,D2*%
X84636000Y-90710000D03*
X86286000Y-90710000D03*
%TD*%
D44*
%TO.C,Q7*%
X78150000Y-100500000D03*
X78150000Y-102400000D03*
X80025000Y-101450000D03*
%TD*%
D45*
%TO.C,C107*%
X89175000Y-104000000D03*
X92125000Y-104000000D03*
%TD*%
D19*
%TO.C,R45*%
X80359000Y-107740900D03*
X80359000Y-106090900D03*
%TD*%
%TO.C,R10*%
X84145207Y-130422869D03*
X84145207Y-128772869D03*
%TD*%
D38*
%TO.C,R77*%
X87562500Y-104850000D03*
X85737500Y-104850000D03*
%TD*%
D40*
%TO.C,R24*%
X87000000Y-118050000D03*
X87000000Y-119700000D03*
%TD*%
D30*
%TO.C,R64*%
X119661892Y-112908831D03*
X121311892Y-112908831D03*
%TD*%
D24*
%TO.C,U16*%
X87900000Y-157850000D03*
X87900000Y-157350000D03*
X87900000Y-156850000D03*
X87400000Y-157850000D03*
X87400000Y-157350000D03*
X87400000Y-156850000D03*
%TD*%
D22*
%TO.C,C47*%
X71734400Y-151137600D03*
X71734400Y-150177600D03*
%TD*%
D46*
%TO.C,TP11*%
X62650000Y-135000000D03*
%TD*%
D47*
%TO.C,C109*%
X117550000Y-98825000D03*
X117550000Y-95875000D03*
%TD*%
D18*
%TO.C,TP2*%
X62150000Y-117900000D03*
%TD*%
D35*
%TO.C,R46*%
X83154400Y-113276100D03*
X83154400Y-114296100D03*
%TD*%
D39*
%TO.C,C111*%
X120480000Y-98200000D03*
X119520000Y-98200000D03*
%TD*%
D25*
%TO.C,C2*%
X69880000Y-130030000D03*
X69880000Y-130990000D03*
%TD*%
D18*
%TO.C,TP6*%
X68100000Y-157550000D03*
%TD*%
D48*
%TO.C,S3*%
X130600000Y-104500000D03*
X130600000Y-107000000D03*
X130600000Y-109500000D03*
X133000000Y-104500000D03*
X133000000Y-107000000D03*
X133000000Y-109500000D03*
%TD*%
D39*
%TO.C,C53*%
X64680000Y-156070600D03*
X63720000Y-156070600D03*
%TD*%
D49*
%TO.C,TP22*%
X137800000Y-91400000D03*
%TD*%
D13*
%TO.C,R92*%
X124025000Y-117700000D03*
X122375000Y-117700000D03*
%TD*%
D50*
%TO.C,R70*%
X104596892Y-123266331D03*
X104596892Y-125091331D03*
%TD*%
D18*
%TO.C,TP5*%
X81000000Y-147150000D03*
%TD*%
D14*
%TO.C,C43*%
X93723682Y-141491529D03*
X95273682Y-141491529D03*
%TD*%
D51*
%TO.C,C89*%
X110525000Y-139275000D03*
D45*
X111750000Y-139275000D03*
X114700000Y-139275000D03*
D51*
X115925000Y-139275000D03*
%TD*%
D19*
%TO.C,R81*%
X93400000Y-110125000D03*
X93400000Y-108475000D03*
%TD*%
D39*
%TO.C,C41*%
X91080000Y-140000000D03*
X90120000Y-140000000D03*
%TD*%
D13*
%TO.C,R65*%
X78675000Y-148850000D03*
X77025000Y-148850000D03*
%TD*%
D38*
%TO.C,R68*%
X103062500Y-105650000D03*
X101237500Y-105650000D03*
%TD*%
D32*
%TO.C,TP19*%
X98800000Y-131800000D03*
%TD*%
D13*
%TO.C,R76*%
X107525000Y-114700000D03*
X105875000Y-114700000D03*
%TD*%
D40*
%TO.C,R37*%
X71150000Y-157625000D03*
X71150000Y-159275000D03*
%TD*%
D25*
%TO.C,C69*%
X95954199Y-118885200D03*
X95954199Y-119845200D03*
%TD*%
D13*
%TO.C,R18*%
X110584300Y-111922000D03*
X108934300Y-111922000D03*
%TD*%
D38*
%TO.C,R44*%
X80310900Y-104442100D03*
X78485900Y-104442100D03*
%TD*%
D52*
%TO.C,Q1*%
X111128600Y-115386600D03*
X111128600Y-113486600D03*
X109253600Y-114436600D03*
%TD*%
D25*
%TO.C,C44*%
X73717500Y-138100000D03*
X73717500Y-139060000D03*
%TD*%
D53*
%TO.C,U9*%
X92111130Y-143691529D03*
X92111130Y-143191529D03*
X92111130Y-142691529D03*
X92111130Y-142191529D03*
X92111130Y-141691529D03*
X89311130Y-141691529D03*
X89311130Y-142191529D03*
X89311130Y-142691529D03*
X89311130Y-143191529D03*
X89311130Y-143691529D03*
%TD*%
D49*
%TO.C,TP23*%
X135700000Y-91400000D03*
%TD*%
D30*
%TO.C,R57*%
X91225000Y-148950000D03*
X92875000Y-148950000D03*
%TD*%
D31*
%TO.C,C12*%
X77488400Y-121165500D03*
X78448400Y-121165500D03*
%TD*%
D40*
%TO.C,R103*%
X97350000Y-97250000D03*
X97350000Y-98900000D03*
%TD*%
D54*
%TO.C,C25*%
X102825000Y-123100000D03*
X101275000Y-123100000D03*
%TD*%
D49*
%TO.C,TP20*%
X138000000Y-93900000D03*
%TD*%
D55*
%TO.C,U25*%
X125100000Y-113825000D03*
X125750000Y-113825000D03*
X126400000Y-113825000D03*
X126400000Y-111875000D03*
X125750000Y-111875000D03*
X125100000Y-111875000D03*
%TD*%
D38*
%TO.C,R78*%
X87550000Y-106775000D03*
X85725000Y-106775000D03*
%TD*%
D35*
%TO.C,R101*%
X112150000Y-94240000D03*
X112150000Y-95260000D03*
%TD*%
D31*
%TO.C,C103*%
X116661892Y-109438831D03*
X117621892Y-109438831D03*
%TD*%
D45*
%TO.C,C108*%
X89175000Y-101700000D03*
X92125000Y-101700000D03*
%TD*%
D50*
%TO.C,R69*%
X106596892Y-123261331D03*
X106596892Y-125086331D03*
%TD*%
D13*
%TO.C,R16*%
X107534000Y-111657800D03*
X105884000Y-111657800D03*
%TD*%
D38*
%TO.C,R74*%
X85312500Y-158500000D03*
X83487500Y-158500000D03*
%TD*%
D52*
%TO.C,Q4*%
X117280000Y-106500000D03*
X117280000Y-104600000D03*
X115405000Y-105550000D03*
%TD*%
D30*
%TO.C,R34*%
X63345600Y-159100000D03*
X64995600Y-159100000D03*
%TD*%
D13*
%TO.C,R13*%
X84025000Y-153200000D03*
X82375000Y-153200000D03*
%TD*%
D19*
%TO.C,R43*%
X78836400Y-107740900D03*
X78836400Y-106090900D03*
%TD*%
D39*
%TO.C,C72*%
X90230000Y-113300000D03*
X89270000Y-113300000D03*
%TD*%
D22*
%TO.C,C63*%
X81900000Y-104000000D03*
X81900000Y-103040000D03*
%TD*%
D39*
%TO.C,C57*%
X75974800Y-115275600D03*
X75014800Y-115275600D03*
%TD*%
D56*
%TO.C,C91*%
X109200000Y-131225000D03*
X109200000Y-134175000D03*
%TD*%
D54*
%TO.C,C28*%
X101619892Y-129415831D03*
X100069892Y-129415831D03*
%TD*%
D56*
%TO.C,C83*%
X113500000Y-118275000D03*
X113500000Y-121225000D03*
%TD*%
D15*
%TO.C,R7*%
X91090000Y-131200000D03*
X92110000Y-131200000D03*
%TD*%
D16*
%TO.C,U21*%
X103350000Y-151000000D03*
X103350000Y-150300000D03*
%TD*%
D56*
%TO.C,C79*%
X88900000Y-114625000D03*
X88900000Y-117575000D03*
%TD*%
D57*
%TO.C,C131*%
X104550000Y-100775000D03*
X104550000Y-103725000D03*
%TD*%
D54*
%TO.C,C26*%
X101619892Y-124843831D03*
X100069892Y-124843831D03*
%TD*%
D15*
%TO.C,R42*%
X74984800Y-113751600D03*
X76004800Y-113751600D03*
%TD*%
D31*
%TO.C,C22*%
X107420000Y-107100000D03*
X108380000Y-107100000D03*
%TD*%
D22*
%TO.C,C9*%
X72713200Y-118749900D03*
X72713200Y-117789900D03*
%TD*%
D58*
%TO.C,R4*%
X78506400Y-120172869D03*
X77486400Y-120172869D03*
%TD*%
D51*
%TO.C,C90*%
X92600000Y-137000000D03*
D45*
X93825000Y-137000000D03*
X96775000Y-137000000D03*
D51*
X98000000Y-137000000D03*
%TD*%
D22*
%TO.C,C15*%
X68470000Y-119180000D03*
X68470000Y-118220000D03*
%TD*%
D45*
%TO.C,C106*%
X89200000Y-106350000D03*
X92150000Y-106350000D03*
%TD*%
D39*
%TO.C,C58*%
X75974800Y-112227600D03*
X75014800Y-112227600D03*
%TD*%
D19*
%TO.C,R60*%
X117661892Y-119333831D03*
X117661892Y-117683831D03*
%TD*%
D35*
%TO.C,R32*%
X108025000Y-157740000D03*
X108025000Y-158760000D03*
%TD*%
D32*
%TO.C,TP27*%
X80800000Y-118800000D03*
%TD*%
D59*
%TO.C,Y1*%
X71170000Y-130030000D03*
X71170000Y-131730000D03*
X72470000Y-131730000D03*
X72470000Y-130030000D03*
%TD*%
D49*
%TO.C,TP15*%
X138000000Y-96150000D03*
%TD*%
D20*
%TO.C,C97*%
X92123993Y-156614931D03*
X92123993Y-158164931D03*
%TD*%
%TO.C,C136*%
X107600000Y-97645000D03*
X107600000Y-99195000D03*
%TD*%
D19*
%TO.C,R19*%
X96780892Y-123496831D03*
X96780892Y-121846831D03*
%TD*%
D60*
%TO.C,C74*%
X106450000Y-139250000D03*
D61*
X105225000Y-139250000D03*
X102275000Y-139250000D03*
D60*
X101050000Y-139250000D03*
%TD*%
D25*
%TO.C,C84*%
X132100000Y-119670000D03*
X132100000Y-120630000D03*
%TD*%
D58*
%TO.C,R3*%
X78505207Y-119172869D03*
X77485207Y-119172869D03*
%TD*%
D17*
%TO.C,D1*%
X91886000Y-90710000D03*
X93536000Y-90710000D03*
%TD*%
D62*
%TO.C,U18*%
X113686892Y-112308831D03*
X113686892Y-112808831D03*
X113686892Y-113308831D03*
X113686892Y-113808831D03*
X113686892Y-114308831D03*
X113686892Y-114808831D03*
D63*
X114361892Y-115483831D03*
X114861892Y-115483831D03*
X115361892Y-115483831D03*
X115861892Y-115483831D03*
X116361892Y-115483831D03*
X116861892Y-115483831D03*
D62*
X117536892Y-114808831D03*
X117536892Y-114308831D03*
X117536892Y-113808831D03*
X117536892Y-113308831D03*
X117536892Y-112808831D03*
X117536892Y-112308831D03*
D63*
X116861892Y-111633831D03*
X116361892Y-111633831D03*
X115861892Y-111633831D03*
X115361892Y-111633831D03*
X114861892Y-111633831D03*
X114361892Y-111633831D03*
D64*
X115611892Y-113558831D03*
%TD*%
D29*
%TO.C,U11*%
X70488800Y-154129400D03*
X70488800Y-154629400D03*
X70488800Y-155129400D03*
X70488800Y-155629400D03*
X70488800Y-156129400D03*
X70988800Y-154129400D03*
X70988800Y-154629400D03*
X70988800Y-155129400D03*
X70988800Y-155629400D03*
X70988800Y-156129400D03*
X71488800Y-154129400D03*
X71488800Y-154629400D03*
X71488800Y-155129400D03*
X71488800Y-155629400D03*
X71488800Y-156129400D03*
X71988800Y-154129400D03*
X71988800Y-154629400D03*
X71988800Y-155129400D03*
X71988800Y-155629400D03*
X71988800Y-156129400D03*
X72488800Y-154129400D03*
X72488800Y-154629400D03*
X72488800Y-155129400D03*
X72488800Y-155629400D03*
X72488800Y-156129400D03*
X72988800Y-154129400D03*
X72988800Y-154629400D03*
X72988800Y-155129400D03*
X72988800Y-155629400D03*
X72988800Y-156129400D03*
%TD*%
D32*
%TO.C,TP14*%
X104000000Y-158600000D03*
%TD*%
D65*
%TO.C,D11*%
X119215000Y-95500000D03*
X120185000Y-95500000D03*
%TD*%
D31*
%TO.C,C21*%
X110590000Y-110500000D03*
X111550000Y-110500000D03*
%TD*%
D66*
%TO.C,Q2*%
X83545207Y-109072869D03*
D67*
X83545207Y-110072869D03*
D66*
X83545207Y-111072869D03*
X84045207Y-111072869D03*
D67*
X84045207Y-110072869D03*
D66*
X84045207Y-109072869D03*
%TD*%
D40*
%TO.C,R49*%
X91788599Y-108481800D03*
X91788599Y-110131800D03*
%TD*%
D49*
%TO.C,TP4*%
X98450000Y-158150000D03*
%TD*%
D68*
%TO.C,D9*%
X113750000Y-92485000D03*
X113750000Y-91515000D03*
%TD*%
D69*
%TO.C,L2*%
X98769707Y-118672869D03*
X103620707Y-118672869D03*
%TD*%
D30*
%TO.C,R36*%
X66850000Y-153800000D03*
X68500000Y-153800000D03*
%TD*%
D15*
%TO.C,R41*%
X74984800Y-110703600D03*
X76004800Y-110703600D03*
%TD*%
D32*
%TO.C,TP26*%
X83030000Y-118640000D03*
%TD*%
D20*
%TO.C,C132*%
X110600000Y-97645000D03*
X110600000Y-99195000D03*
%TD*%
D70*
%TO.C,TP12*%
X96344599Y-106512800D03*
X94344599Y-106512800D03*
%TD*%
D71*
%TO.C,D10*%
X99250000Y-99100000D03*
X99250000Y-96300000D03*
%TD*%
D35*
%TO.C,R47*%
X83154400Y-116286500D03*
X83154400Y-117306500D03*
%TD*%
D22*
%TO.C,C71*%
X94836599Y-109786800D03*
X94836599Y-108826800D03*
%TD*%
D40*
%TO.C,R14*%
X90600000Y-125850000D03*
X90600000Y-127500000D03*
%TD*%
D20*
%TO.C,C75*%
X90850000Y-115137800D03*
X90850000Y-116687800D03*
%TD*%
D50*
%TO.C,R54*%
X110479329Y-105550000D03*
X110479329Y-107375000D03*
%TD*%
D46*
%TO.C,TP24*%
X62650000Y-132850000D03*
%TD*%
D22*
%TO.C,C52*%
X74100000Y-151280000D03*
X74100000Y-150320000D03*
%TD*%
%TO.C,C24*%
X98000000Y-123480000D03*
X98000000Y-122520000D03*
%TD*%
D72*
%TO.C,R51*%
X120136892Y-109771331D03*
X120136892Y-106846331D03*
%TD*%
D20*
%TO.C,C49*%
X76050000Y-157475000D03*
X76050000Y-159025000D03*
%TD*%
D40*
%TO.C,R86*%
X92600000Y-119575000D03*
X92600000Y-121225000D03*
%TD*%
D47*
%TO.C,C96*%
X83725000Y-102525000D03*
X83725000Y-99575000D03*
%TD*%
D35*
%TO.C,R98*%
X114400000Y-96290000D03*
X114400000Y-97310000D03*
%TD*%
D40*
%TO.C,R39*%
X72700000Y-157625000D03*
X72700000Y-159275000D03*
%TD*%
D30*
%TO.C,R26*%
X107430000Y-146076000D03*
X109080000Y-146076000D03*
%TD*%
D25*
%TO.C,C65*%
X86202400Y-113992869D03*
X86202400Y-114952869D03*
%TD*%
D57*
%TO.C,C137*%
X105250000Y-96125000D03*
X105250000Y-99075000D03*
%TD*%
D22*
%TO.C,C45*%
X73100000Y-151280000D03*
X73100000Y-150320000D03*
%TD*%
D19*
%TO.C,R59*%
X116136892Y-119333831D03*
X116136892Y-117683831D03*
%TD*%
D30*
%TO.C,R17*%
X105884000Y-113181800D03*
X107534000Y-113181800D03*
%TD*%
D28*
%TO.C,D6*%
X105400000Y-94050000D03*
X102600000Y-94050000D03*
%TD*%
D30*
%TO.C,R27*%
X94111130Y-143917529D03*
X95761130Y-143917529D03*
%TD*%
D22*
%TO.C,C59*%
X77312400Y-108906700D03*
X77312400Y-107946700D03*
%TD*%
D73*
%TO.C,D7*%
X102845207Y-114497869D03*
X102845207Y-109847869D03*
%TD*%
D13*
%TO.C,R80*%
X90225000Y-110175000D03*
X88575000Y-110175000D03*
%TD*%
%TO.C,R66*%
X117555000Y-103030000D03*
X115905000Y-103030000D03*
%TD*%
D18*
%TO.C,TP33*%
X73400000Y-114900000D03*
%TD*%
D49*
%TO.C,TP13*%
X101200000Y-148550000D03*
%TD*%
D21*
%TO.C,C77*%
X99995207Y-114347869D03*
X99995207Y-112797869D03*
%TD*%
D57*
%TO.C,C133*%
X101350000Y-100775000D03*
X101350000Y-103725000D03*
%TD*%
D19*
%TO.C,R96*%
X115500000Y-94475000D03*
X115500000Y-92825000D03*
%TD*%
D31*
%TO.C,C13*%
X79715207Y-125472869D03*
X80675207Y-125472869D03*
%TD*%
D74*
%TO.C,S4*%
X138000000Y-104750000D03*
X138000000Y-102250000D03*
X138000000Y-99750000D03*
X135600000Y-104750000D03*
X135600000Y-102250000D03*
X135600000Y-99750000D03*
%TD*%
D30*
%TO.C,R89*%
X119375000Y-99700000D03*
X121025000Y-99700000D03*
%TD*%
D25*
%TO.C,C73*%
X97000000Y-117420000D03*
X97000000Y-118380000D03*
%TD*%
D30*
%TO.C,R29*%
X107430000Y-147600000D03*
X109080000Y-147600000D03*
%TD*%
D14*
%TO.C,C42*%
X107225000Y-143650000D03*
X108775000Y-143650000D03*
%TD*%
D29*
%TO.C,U14*%
X126316800Y-118760300D03*
X126316800Y-119160300D03*
X126316800Y-119560300D03*
X126316800Y-119960300D03*
X126316800Y-120360300D03*
X126716800Y-118760300D03*
X126716800Y-119160300D03*
X126716800Y-119560300D03*
X126716800Y-119960300D03*
X126716800Y-120360300D03*
X127116800Y-118760300D03*
X127116800Y-119160300D03*
X127116800Y-119560300D03*
X127116800Y-119960300D03*
X127116800Y-120360300D03*
X127516800Y-118760300D03*
X127516800Y-119160300D03*
X127516800Y-119560300D03*
X127516800Y-119960300D03*
X127516800Y-120360300D03*
X127916800Y-118760300D03*
X127916800Y-119160300D03*
X127916800Y-119560300D03*
X127916800Y-119960300D03*
X127916800Y-120360300D03*
%TD*%
D46*
%TO.C,TP17*%
X62150000Y-120000000D03*
%TD*%
D39*
%TO.C,C85*%
X123496800Y-122310300D03*
X122536800Y-122310300D03*
%TD*%
D60*
%TO.C,C86*%
X88425000Y-137000000D03*
D61*
X87200000Y-137000000D03*
X84250000Y-137000000D03*
D60*
X83025000Y-137000000D03*
%TD*%
D57*
%TO.C,C135*%
X98150000Y-100775000D03*
X98150000Y-103725000D03*
%TD*%
D16*
%TO.C,U19*%
X102450000Y-158500000D03*
X102450000Y-157800000D03*
%TD*%
D40*
%TO.C,R95*%
X61900000Y-151550000D03*
X61900000Y-153200000D03*
X61900000Y-154850000D03*
%TD*%
D25*
%TO.C,C55*%
X77810000Y-116436200D03*
X77810000Y-117396200D03*
%TD*%
D40*
%TO.C,R102*%
X115650000Y-97325000D03*
X115650000Y-98975000D03*
%TD*%
D19*
%TO.C,R55*%
X123469800Y-116169300D03*
X123469800Y-114519300D03*
%TD*%
D22*
%TO.C,C88*%
X128047800Y-115999300D03*
X128047800Y-115039300D03*
%TD*%
D25*
%TO.C,C29*%
X109750000Y-122520000D03*
X109750000Y-123480000D03*
%TD*%
D22*
%TO.C,C46*%
X70400000Y-151460000D03*
X70400000Y-150500000D03*
%TD*%
D61*
%TO.C,C127*%
X117750000Y-100800000D03*
X114800000Y-100800000D03*
%TD*%
D33*
%TO.C,TH2*%
X114450000Y-99210000D03*
X114450000Y-98190000D03*
%TD*%
D25*
%TO.C,C48*%
X75325000Y-154970000D03*
X75325000Y-155930000D03*
%TD*%
D57*
%TO.C,C138*%
X102050000Y-96125000D03*
X102050000Y-99075000D03*
%TD*%
D25*
%TO.C,C64*%
X84678400Y-116965069D03*
X84678400Y-117925069D03*
%TD*%
D38*
%TO.C,R72*%
X113342500Y-131690000D03*
X111517500Y-131690000D03*
%TD*%
D22*
%TO.C,C92*%
X132550000Y-116100000D03*
X132550000Y-115140000D03*
%TD*%
D14*
%TO.C,C1*%
X105325000Y-121700000D03*
X106875000Y-121700000D03*
%TD*%
D23*
%TO.C,U20*%
X95850000Y-153750000D03*
X95850000Y-154450000D03*
%TD*%
D22*
%TO.C,C5*%
X66379793Y-105527131D03*
X66379793Y-104567131D03*
%TD*%
D40*
%TO.C,R15*%
X92125000Y-128400000D03*
X92125000Y-130050000D03*
%TD*%
D39*
%TO.C,C3*%
X72470000Y-133150000D03*
X71510000Y-133150000D03*
%TD*%
%TO.C,C4*%
X123496800Y-119310300D03*
X122536800Y-119310300D03*
%TD*%
D33*
%TO.C,R6*%
X90600000Y-130210000D03*
X90600000Y-129190000D03*
%TD*%
D18*
%TO.C,TP10*%
X72300000Y-110700000D03*
%TD*%
D21*
%TO.C,C68*%
X99695207Y-110047869D03*
X99695207Y-108497869D03*
%TD*%
D40*
%TO.C,R104*%
X95850000Y-97250000D03*
X95850000Y-98900000D03*
%TD*%
D31*
%TO.C,C40*%
X107640000Y-142400000D03*
X108600000Y-142400000D03*
%TD*%
D69*
%TO.C,L4*%
X91050000Y-152600000D03*
X86199000Y-152600000D03*
%TD*%
D75*
%TO.C,C81*%
X109000000Y-118250000D03*
X109000000Y-120150000D03*
%TD*%
D76*
%TO.C,L3*%
X126950500Y-126456300D03*
X131649500Y-126456300D03*
%TD*%
D77*
%TO.C,U1*%
X111850000Y-98690000D03*
X112250000Y-98690000D03*
X112650000Y-98690000D03*
X113050000Y-98690000D03*
X113450000Y-98690000D03*
X111850000Y-99090000D03*
X112250000Y-99090000D03*
X112650000Y-99090000D03*
X113050000Y-99090000D03*
X113450000Y-99090000D03*
X111850000Y-99490000D03*
X112250000Y-99490000D03*
X112650000Y-99490000D03*
X113050000Y-99490000D03*
X113450000Y-99490000D03*
X111850000Y-99890000D03*
X112250000Y-99890000D03*
X112650000Y-99890000D03*
X113050000Y-99890000D03*
X113450000Y-99890000D03*
X111850000Y-100290000D03*
X112250000Y-100290000D03*
X112650000Y-100290000D03*
X113050000Y-100290000D03*
X113450000Y-100290000D03*
X111850000Y-100690000D03*
X112250000Y-100690000D03*
X112650000Y-100690000D03*
X113050000Y-100690000D03*
X113450000Y-100690000D03*
X111850000Y-101090000D03*
X112250000Y-101090000D03*
X112650000Y-101090000D03*
X113050000Y-101090000D03*
X113450000Y-101090000D03*
X111850000Y-101490000D03*
X112250000Y-101490000D03*
X112650000Y-101490000D03*
X113050000Y-101490000D03*
X113450000Y-101490000D03*
%TD*%
D30*
%TO.C,R20*%
X100019892Y-127891831D03*
X101669892Y-127891831D03*
%TD*%
D32*
%TO.C,TP18*%
X96400000Y-131800000D03*
%TD*%
D25*
%TO.C,C112*%
X113350000Y-93710000D03*
X113350000Y-94670000D03*
%TD*%
D13*
%TO.C,R58*%
X115490000Y-109490000D03*
X113840000Y-109490000D03*
%TD*%
D17*
%TO.C,D5*%
X89469332Y-90710000D03*
X91119332Y-90710000D03*
%TD*%
D22*
%TO.C,C110*%
X116750000Y-94580000D03*
X116750000Y-93620000D03*
%TD*%
D19*
%TO.C,R40*%
X74250000Y-159275000D03*
X74250000Y-157625000D03*
%TD*%
%TO.C,R94*%
X133850000Y-116100000D03*
X133850000Y-114450000D03*
%TD*%
D20*
%TO.C,C76*%
X107250000Y-118225000D03*
X107250000Y-119775000D03*
%TD*%
D40*
%TO.C,R48*%
X84678400Y-113622869D03*
X84678400Y-115272869D03*
%TD*%
D22*
%TO.C,C99*%
X101000000Y-132455000D03*
X101000000Y-131495000D03*
%TD*%
D30*
%TO.C,R21*%
X100019892Y-126367831D03*
X101669892Y-126367831D03*
%TD*%
D40*
%TO.C,R56*%
X91910000Y-92224531D03*
X91910000Y-93874531D03*
%TD*%
D54*
%TO.C,C87*%
X123791800Y-120810300D03*
X122241800Y-120810300D03*
%TD*%
D21*
%TO.C,C30*%
X109861892Y-126507831D03*
X109861892Y-124957831D03*
%TD*%
D13*
%TO.C,R75*%
X92875000Y-147400000D03*
X91225000Y-147400000D03*
%TD*%
%TO.C,R12*%
X83825000Y-154700000D03*
X82175000Y-154700000D03*
%TD*%
D78*
%TO.C,S2*%
X63774999Y-98924999D03*
X63774999Y-103425001D03*
X61625001Y-98924999D03*
X61625001Y-103425001D03*
%TD*%
D58*
%TO.C,R1*%
X66850000Y-115900000D03*
X65830000Y-115900000D03*
%TD*%
D18*
%TO.C,TP1*%
X62150000Y-122100000D03*
%TD*%
D20*
%TO.C,C134*%
X109100000Y-97645000D03*
X109100000Y-99195000D03*
%TD*%
D55*
%TO.C,U24*%
X93800000Y-158775000D03*
X94450000Y-158775000D03*
X95100000Y-158775000D03*
X95100000Y-156825000D03*
X94450000Y-156825000D03*
X93800000Y-156825000D03*
%TD*%
D13*
%TO.C,R99*%
X121075000Y-96700000D03*
X119425000Y-96700000D03*
%TD*%
D21*
%TO.C,C33*%
X105543892Y-132697869D03*
X105543892Y-131147869D03*
%TD*%
%TO.C,C93*%
X131200000Y-116275000D03*
X131200000Y-114725000D03*
%TD*%
D79*
%TO.C,U3*%
X71262900Y-123118800D03*
X71262900Y-124393800D03*
X72537900Y-123118800D03*
X72537900Y-124393800D03*
D80*
X68462900Y-121156300D03*
X68462900Y-121556300D03*
X68462900Y-121956300D03*
X68462900Y-122356300D03*
X68462900Y-122756300D03*
X68462900Y-123156300D03*
X68462900Y-123556300D03*
X68462900Y-123956300D03*
X68462900Y-124356300D03*
X68462900Y-124756300D03*
X68462900Y-125156300D03*
X68462900Y-125556300D03*
X68462900Y-125956300D03*
X68462900Y-126356300D03*
D81*
X69300400Y-127193800D03*
X69700400Y-127193800D03*
X70100400Y-127193800D03*
X70500400Y-127193800D03*
X70900400Y-127193800D03*
X71300400Y-127193800D03*
X71700400Y-127193800D03*
X72100400Y-127193800D03*
X72500400Y-127193800D03*
X72900400Y-127193800D03*
X73300400Y-127193800D03*
X73700400Y-127193800D03*
X74100400Y-127193800D03*
X74500400Y-127193800D03*
D80*
X75337900Y-126356300D03*
X75337900Y-125956300D03*
X75337900Y-125556300D03*
X75337900Y-125156300D03*
X75337900Y-124756300D03*
X75337900Y-124356300D03*
X75337900Y-123956300D03*
X75337900Y-123556300D03*
X75337900Y-123156300D03*
X75337900Y-122756300D03*
X75337900Y-122356300D03*
X75337900Y-121956300D03*
X75337900Y-121556300D03*
X75337900Y-121156300D03*
D81*
X74500400Y-120318800D03*
X74100400Y-120318800D03*
X73700400Y-120318800D03*
X73300400Y-120318800D03*
X72900400Y-120318800D03*
X72500400Y-120318800D03*
X72100400Y-120318800D03*
X71700400Y-120318800D03*
X71300400Y-120318800D03*
X70900400Y-120318800D03*
X70500400Y-120318800D03*
X70100400Y-120318800D03*
X69700400Y-120318800D03*
X69300400Y-120318800D03*
%TD*%
D19*
%TO.C,R53*%
X126517800Y-116500000D03*
X126517800Y-114850000D03*
%TD*%
D30*
%TO.C,R8*%
X78657500Y-98910000D03*
X80307500Y-98910000D03*
%TD*%
D22*
%TO.C,C16*%
X75608800Y-118749900D03*
X75608800Y-117789900D03*
%TD*%
D50*
%TO.C,R52*%
X112439329Y-105557500D03*
X112439329Y-107382500D03*
%TD*%
D49*
%TO.C,TP21*%
X135650000Y-93900000D03*
%TD*%
D30*
%TO.C,R35*%
X63375000Y-157600000D03*
X65025000Y-157600000D03*
%TD*%
D82*
%TO.C,U5*%
X96567892Y-128963331D03*
X97217892Y-128963331D03*
X97867892Y-128963331D03*
X98517892Y-128963331D03*
X98517892Y-125423331D03*
X97867892Y-125423331D03*
X97217892Y-125423331D03*
X96567892Y-125423331D03*
%TD*%
D30*
%TO.C,R63*%
X119661892Y-111383831D03*
X121311892Y-111383831D03*
%TD*%
D53*
%TO.C,U8*%
X105430000Y-145850000D03*
X105430000Y-145350000D03*
X105430000Y-144850000D03*
X105430000Y-144350000D03*
X105430000Y-143850000D03*
X102630000Y-143850000D03*
X102630000Y-144350000D03*
X102630000Y-144850000D03*
X102630000Y-145350000D03*
X102630000Y-145850000D03*
%TD*%
D22*
%TO.C,C51*%
X69300000Y-151480000D03*
X69300000Y-150520000D03*
%TD*%
D40*
%TO.C,R87*%
X66400000Y-150575000D03*
X66400000Y-152225000D03*
%TD*%
D83*
%TO.C,L1*%
X114052892Y-124907331D03*
X114052892Y-129606331D03*
%TD*%
D29*
%TO.C,U12*%
X79274800Y-111503600D03*
X79274800Y-112003600D03*
X79274800Y-112503600D03*
X79274800Y-113003600D03*
X79274800Y-113503600D03*
X79774800Y-111503600D03*
X79774800Y-112003600D03*
X79774800Y-112503600D03*
X79774800Y-113003600D03*
X79774800Y-113503600D03*
X80274800Y-111503600D03*
X80274800Y-112003600D03*
X80274800Y-112503600D03*
X80274800Y-113003600D03*
X80274800Y-113503600D03*
%TD*%
D37*
%TO.C,R73*%
X90150000Y-158312500D03*
X90150000Y-156487500D03*
%TD*%
D56*
%TO.C,C82*%
X111200000Y-118275000D03*
X111200000Y-121225000D03*
%TD*%
D19*
%TO.C,R61*%
X119186892Y-119333831D03*
X119186892Y-117683831D03*
%TD*%
D20*
%TO.C,C20*%
X123063892Y-109928831D03*
X123063892Y-111478831D03*
%TD*%
D21*
%TO.C,C67*%
X98174600Y-110070600D03*
X98174600Y-108520600D03*
%TD*%
D54*
%TO.C,C100*%
X83312500Y-156500000D03*
X81762500Y-156500000D03*
%TD*%
D38*
%TO.C,R67*%
X103062500Y-107601787D03*
X101237500Y-107601787D03*
%TD*%
D40*
%TO.C,R97*%
X89460000Y-92200000D03*
X89460000Y-93850000D03*
%TD*%
D19*
%TO.C,R91*%
X129600000Y-116300000D03*
X129600000Y-114650000D03*
%TD*%
D22*
%TO.C,C105*%
X113910000Y-105560000D03*
X113910000Y-104600000D03*
%TD*%
D31*
%TO.C,C104*%
X120006892Y-114433831D03*
X120966892Y-114433831D03*
%TD*%
D25*
%TO.C,C102*%
X120711892Y-118028831D03*
X120711892Y-118988831D03*
%TD*%
D19*
%TO.C,R28*%
X101280000Y-145325000D03*
X101280000Y-143675000D03*
%TD*%
D84*
%TO.C,U15*%
X103275000Y-155150000D03*
X103975000Y-155150000D03*
%TD*%
D19*
%TO.C,R82*%
X95200000Y-123525000D03*
X95200000Y-121875000D03*
%TD*%
D25*
%TO.C,C70*%
X94430199Y-118885200D03*
X94430199Y-119845200D03*
%TD*%
D85*
%TO.C,U13*%
X92480198Y-112983600D03*
D86*
X92480198Y-113383599D03*
D87*
X92480198Y-113783601D03*
D86*
X92480198Y-114183600D03*
D87*
X92480198Y-114583599D03*
D88*
X92474399Y-114996400D03*
X92474399Y-115352000D03*
D89*
X92829999Y-115910800D03*
D90*
X93261799Y-116114000D03*
D88*
X93642799Y-116114000D03*
X94023799Y-116114000D03*
D91*
X94430199Y-115908601D03*
D92*
X94830198Y-115908601D03*
D88*
X95242999Y-116114000D03*
X95649399Y-116114000D03*
D93*
X96004999Y-116114000D03*
D88*
X96385999Y-115352000D03*
X96385999Y-114971000D03*
D94*
X96385999Y-114590000D03*
D95*
X96155200Y-114183601D03*
D96*
X96155200Y-113783600D03*
D88*
X96385999Y-113370800D03*
D97*
X96385999Y-112989800D03*
D98*
X96030198Y-112233599D03*
D99*
X95630199Y-112233599D03*
D99*
X95230200Y-112233599D03*
X94830198Y-112233599D03*
D100*
X94430199Y-112458599D03*
D99*
X94030200Y-112233599D03*
X93630198Y-112233599D03*
D99*
X93230199Y-112233599D03*
D99*
X92830200Y-112233599D03*
%TD*%
D20*
%TO.C,C129*%
X108360000Y-100650000D03*
X108360000Y-102200000D03*
%TD*%
D21*
%TO.C,C80*%
X98495207Y-114322869D03*
X98495207Y-112772869D03*
%TD*%
D24*
%TO.C,U17*%
X83700000Y-151150000D03*
X83700000Y-150750000D03*
X83700000Y-150350000D03*
X83300000Y-151150000D03*
X83300000Y-150750000D03*
X83300000Y-150350000D03*
X82900000Y-151150000D03*
X82900000Y-150750000D03*
X82900000Y-150350000D03*
%TD*%
D21*
%TO.C,C23*%
X104650000Y-106875000D03*
X104650000Y-105325000D03*
%TD*%
D13*
%TO.C,R83*%
X132225000Y-112500000D03*
X130575000Y-112500000D03*
%TD*%
D30*
%TO.C,R93*%
X121230000Y-123880000D03*
X122880000Y-123880000D03*
%TD*%
D21*
%TO.C,C31*%
X109861892Y-129555831D03*
X109861892Y-128005831D03*
%TD*%
D33*
%TO.C,R50*%
X96360599Y-109816800D03*
X96360599Y-108796800D03*
%TD*%
D40*
%TO.C,R88*%
X61900000Y-156200000D03*
X61900000Y-157850000D03*
%TD*%
D31*
%TO.C,C39*%
X88400000Y-123500000D03*
X89360000Y-123500000D03*
%TD*%
M02*
