G04 #@! TF.GenerationSoftware,KiCad,Pcbnew,5.1.5+dfsg1-2build2*
G04 #@! TF.CreationDate,2021-03-18T18:12:21+09:00*
G04 #@! TF.ProjectId,puck,7075636b-2e6b-4696-9361-645f70636258,rev?*
G04 #@! TF.SameCoordinates,Original*
G04 #@! TF.FileFunction,Copper,L2,Bot*
G04 #@! TF.FilePolarity,Positive*
%FSLAX46Y46*%
G04 Gerber Fmt 4.6, Leading zero omitted, Abs format (unit mm)*
G04 Created by KiCad (PCBNEW 5.1.5+dfsg1-2build2) date 2021-03-18 18:12:21*
%MOMM*%
%LPD*%
G04 APERTURE LIST*
%ADD10C,0.800000*%
%ADD11C,0.500000*%
%ADD12C,0.200000*%
%ADD13C,1.000000*%
%ADD14C,0.254000*%
G04 APERTURE END LIST*
D10*
X111550000Y-124900000D03*
X121750000Y-122700000D03*
X120250000Y-118800000D03*
X116350000Y-106300000D03*
X133150000Y-98700000D03*
X141150000Y-135200000D03*
X129150000Y-108619350D03*
X127150000Y-125774728D03*
X124650000Y-123200000D03*
X115500000Y-134000000D03*
X105350000Y-131500000D03*
X107500000Y-130000000D03*
X107500000Y-131500000D03*
X108500000Y-130750000D03*
X109500000Y-130000000D03*
X109500000Y-131500000D03*
X97350000Y-109100000D03*
X97350000Y-111100000D03*
X98350000Y-110100000D03*
X99350000Y-111100000D03*
X99350000Y-109100000D03*
X101350000Y-111100000D03*
X101350000Y-109100000D03*
X100350000Y-110100000D03*
X105350000Y-130000000D03*
X106450000Y-130800000D03*
X128650000Y-133700000D03*
X130650000Y-133700000D03*
X132650000Y-133700000D03*
X132650000Y-132200000D03*
X130650000Y-132200000D03*
X128650000Y-132200000D03*
X130650000Y-130700000D03*
X128650000Y-130700000D03*
X132650000Y-130700000D03*
X126150000Y-91450000D03*
X127650000Y-91450000D03*
X126900000Y-90200000D03*
X126150000Y-89200000D03*
X127650000Y-89200000D03*
X134400000Y-91200000D03*
X133150000Y-91200000D03*
X113150000Y-138700000D03*
X126150000Y-130700000D03*
X123650000Y-130700000D03*
X123650000Y-132700000D03*
X126150000Y-132700000D03*
X126150000Y-134700000D03*
X123650000Y-134700000D03*
X123650000Y-136700000D03*
X126150000Y-136700000D03*
X123650000Y-138700000D03*
X126150000Y-138700000D03*
X133150000Y-136700000D03*
X128150000Y-136700000D03*
X130650000Y-136700000D03*
X128150000Y-138700000D03*
X130650000Y-138700000D03*
X133150000Y-138700000D03*
X121150000Y-105200000D03*
X127650000Y-105200000D03*
X123150000Y-105200000D03*
X125650000Y-105200000D03*
X122150000Y-103700000D03*
X124650000Y-103700000D03*
X127150000Y-103700000D03*
X121150000Y-102200000D03*
X123150000Y-102200000D03*
X125650000Y-102200000D03*
X127650000Y-102200000D03*
X122150000Y-100700000D03*
X124650000Y-100700000D03*
X127150000Y-100700000D03*
X123150000Y-99200000D03*
X125650000Y-99200000D03*
X127650000Y-99200000D03*
X127150000Y-97700000D03*
X124650000Y-97700000D03*
X127650000Y-96200000D03*
X125650000Y-96200000D03*
X127150000Y-94700000D03*
X127650000Y-93200000D03*
X126150000Y-93200000D03*
X125650000Y-94700000D03*
X112400000Y-114250000D03*
X118650000Y-114250000D03*
X115650000Y-114250000D03*
X113900000Y-114250000D03*
X113950000Y-115600000D03*
X115650000Y-115700000D03*
X118650000Y-115700000D03*
X117150000Y-114250000D03*
X117150000Y-115700000D03*
X117150000Y-116950000D03*
X118650000Y-117200000D03*
D11*
X111550000Y-124900000D02*
X119550000Y-124900000D01*
X119550000Y-124900000D02*
X121750000Y-122700000D01*
X121750000Y-122700000D02*
X121750000Y-122700000D01*
X120250000Y-110200000D02*
X120250000Y-118800000D01*
X116350000Y-106300000D02*
X120250000Y-110200000D01*
D12*
X133150000Y-107550000D02*
X133150000Y-98700000D01*
X141150000Y-115550000D02*
X133150000Y-107550000D01*
X141150000Y-135200000D02*
X141150000Y-115550000D01*
D11*
X127549999Y-125374729D02*
X127150000Y-125774728D01*
X129150000Y-123774728D02*
X127549999Y-125374729D01*
X129150000Y-108619350D02*
X129150000Y-123774728D01*
X123225000Y-123200000D02*
X124650000Y-123200000D01*
X115500000Y-130925000D02*
X123225000Y-123200000D01*
X115500000Y-134000000D02*
X115500000Y-130925000D01*
D13*
X106750000Y-130500000D02*
X106450000Y-130800000D01*
X106750000Y-112221998D02*
X106750000Y-130500000D01*
X104628002Y-110100000D02*
X106750000Y-112221998D01*
X100350000Y-110100000D02*
X104628002Y-110100000D01*
D14*
G36*
X124204388Y-87928842D02*
G01*
X126345861Y-88147105D01*
X128466911Y-88514221D01*
X130557182Y-89028398D01*
X132606477Y-89687128D01*
X134604852Y-90487214D01*
X136542529Y-91424741D01*
X138410100Y-92495157D01*
X140198440Y-93693232D01*
X141898860Y-95013144D01*
X143503077Y-96448467D01*
X145003238Y-97992172D01*
X146392079Y-99636782D01*
X147663396Y-101375062D01*
X148084620Y-102040000D01*
X135335581Y-102040000D01*
X135302613Y-102043247D01*
X135289633Y-102043247D01*
X135280468Y-102044210D01*
X135086518Y-102065965D01*
X135028019Y-102078400D01*
X134969325Y-102090022D01*
X134960522Y-102092747D01*
X134774491Y-102151760D01*
X134719509Y-102175326D01*
X134664206Y-102198120D01*
X134656100Y-102202503D01*
X134485075Y-102296525D01*
X134435752Y-102330298D01*
X134385894Y-102363423D01*
X134378794Y-102369297D01*
X134229288Y-102494747D01*
X134187443Y-102537477D01*
X134144987Y-102579638D01*
X134139163Y-102586780D01*
X134016872Y-102738880D01*
X133984114Y-102788939D01*
X133950669Y-102838523D01*
X133946343Y-102846660D01*
X133885000Y-102963997D01*
X133885000Y-99428711D01*
X133953937Y-99359774D01*
X134067205Y-99190256D01*
X134145226Y-99001898D01*
X134185000Y-98801939D01*
X134185000Y-98598061D01*
X134145226Y-98398102D01*
X134067205Y-98209744D01*
X133953937Y-98040226D01*
X133809774Y-97896063D01*
X133640256Y-97782795D01*
X133451898Y-97704774D01*
X133251939Y-97665000D01*
X133048061Y-97665000D01*
X132848102Y-97704774D01*
X132659744Y-97782795D01*
X132490226Y-97896063D01*
X132346063Y-98040226D01*
X132232795Y-98209744D01*
X132154774Y-98398102D01*
X132115000Y-98598061D01*
X132115000Y-98801939D01*
X132154774Y-99001898D01*
X132232795Y-99190256D01*
X132346063Y-99359774D01*
X132415001Y-99428712D01*
X132415000Y-107513895D01*
X132411444Y-107550000D01*
X132425635Y-107694084D01*
X132467663Y-107832632D01*
X132535913Y-107960319D01*
X132627762Y-108072237D01*
X132655808Y-108095254D01*
X140415001Y-115854448D01*
X140415000Y-134471289D01*
X140346063Y-134540226D01*
X140232795Y-134709744D01*
X140154774Y-134898102D01*
X140115000Y-135098061D01*
X140115000Y-135301939D01*
X140154774Y-135501898D01*
X140232795Y-135690256D01*
X140346063Y-135859774D01*
X140490226Y-136003937D01*
X140659744Y-136117205D01*
X140848102Y-136195226D01*
X141048061Y-136235000D01*
X141251939Y-136235000D01*
X141451898Y-136195226D01*
X141640256Y-136117205D01*
X141809774Y-136003937D01*
X141953937Y-135859774D01*
X142067205Y-135690256D01*
X142145226Y-135501898D01*
X142185000Y-135301939D01*
X142185000Y-135098061D01*
X142145226Y-134898102D01*
X142067205Y-134709744D01*
X141953937Y-134540226D01*
X141885000Y-134471289D01*
X141885000Y-115586094D01*
X141888555Y-115549999D01*
X141885000Y-115513904D01*
X141885000Y-115513895D01*
X141874365Y-115405915D01*
X141832337Y-115267367D01*
X141764087Y-115139680D01*
X141672238Y-115027762D01*
X141644193Y-115004746D01*
X133885000Y-107245554D01*
X133885000Y-104437366D01*
X133958393Y-104573104D01*
X133991846Y-104622699D01*
X134024600Y-104672753D01*
X134030424Y-104679894D01*
X134154828Y-104830272D01*
X134197263Y-104872411D01*
X134239126Y-104915161D01*
X134246227Y-104921034D01*
X134397469Y-105044384D01*
X134447277Y-105077477D01*
X134496651Y-105111284D01*
X134504757Y-105115667D01*
X134677080Y-105207292D01*
X134732392Y-105230090D01*
X134787366Y-105253652D01*
X134796169Y-105256377D01*
X134983006Y-105312786D01*
X135041686Y-105324405D01*
X135100196Y-105336842D01*
X135109361Y-105337805D01*
X135303594Y-105356850D01*
X135303598Y-105356850D01*
X135335581Y-105360000D01*
X149942321Y-105360000D01*
X150664932Y-106953856D01*
X151414838Y-108971564D01*
X152022172Y-111036676D01*
X152483970Y-113139114D01*
X152797986Y-115268651D01*
X152962688Y-117414904D01*
X152977273Y-119567427D01*
X152841671Y-121715715D01*
X152556543Y-123849310D01*
X152123277Y-125957813D01*
X151543980Y-128030977D01*
X150821487Y-130058656D01*
X149959306Y-132031006D01*
X148961638Y-133938413D01*
X147833346Y-135771583D01*
X146579924Y-137521584D01*
X145207497Y-139179870D01*
X143722719Y-140738398D01*
X142132852Y-142189547D01*
X140445626Y-143526262D01*
X138669265Y-144742025D01*
X136812419Y-145830917D01*
X134884150Y-146787624D01*
X132893837Y-147607493D01*
X130851186Y-148286526D01*
X128766136Y-148821420D01*
X126648852Y-149209565D01*
X124509658Y-149449068D01*
X122358960Y-149538767D01*
X120207248Y-149478221D01*
X118065001Y-149267728D01*
X115942647Y-148908310D01*
X113850554Y-148401724D01*
X111798883Y-147750432D01*
X109797637Y-146957606D01*
X107856576Y-146027115D01*
X106100623Y-145029117D01*
X120415000Y-145029117D01*
X120415000Y-145370883D01*
X120481675Y-145706081D01*
X120612463Y-146021831D01*
X120802337Y-146305998D01*
X121044002Y-146547663D01*
X121328169Y-146737537D01*
X121643919Y-146868325D01*
X121979117Y-146935000D01*
X122320883Y-146935000D01*
X122656081Y-146868325D01*
X122971831Y-146737537D01*
X123255998Y-146547663D01*
X123497663Y-146305998D01*
X123687537Y-146021831D01*
X123818325Y-145706081D01*
X123885000Y-145370883D01*
X123885000Y-145029117D01*
X123818325Y-144693919D01*
X123687537Y-144378169D01*
X123497663Y-144094002D01*
X123255998Y-143852337D01*
X122971831Y-143662463D01*
X122656081Y-143531675D01*
X122320883Y-143465000D01*
X121979117Y-143465000D01*
X121643919Y-143531675D01*
X121328169Y-143662463D01*
X121044002Y-143852337D01*
X120802337Y-144094002D01*
X120612463Y-144378169D01*
X120481675Y-144693919D01*
X120415000Y-145029117D01*
X106100623Y-145029117D01*
X105985150Y-144963488D01*
X104192477Y-143771908D01*
X102487289Y-142458178D01*
X100877904Y-141028706D01*
X99372150Y-139490449D01*
X97977365Y-137850899D01*
X96700356Y-136118060D01*
X95547326Y-134300352D01*
X94523897Y-132406627D01*
X93635073Y-130446156D01*
X92885163Y-128428440D01*
X92277830Y-126363335D01*
X91816030Y-124260884D01*
X91502013Y-122131336D01*
X91366082Y-120360000D01*
X103698419Y-120360000D01*
X103731387Y-120356753D01*
X103744367Y-120356753D01*
X103753532Y-120355790D01*
X103947481Y-120334035D01*
X104005966Y-120321603D01*
X104064676Y-120309978D01*
X104073479Y-120307253D01*
X104259509Y-120248240D01*
X104314519Y-120224662D01*
X104369794Y-120201880D01*
X104377900Y-120197497D01*
X104548925Y-120103475D01*
X104598264Y-120069692D01*
X104648106Y-120036577D01*
X104655206Y-120030703D01*
X104804712Y-119905253D01*
X104846557Y-119862523D01*
X104889013Y-119820362D01*
X104894837Y-119813220D01*
X105017128Y-119661121D01*
X105049887Y-119611059D01*
X105083331Y-119561477D01*
X105087657Y-119553340D01*
X105178077Y-119380385D01*
X105200475Y-119324947D01*
X105223669Y-119269772D01*
X105226332Y-119260950D01*
X105281435Y-119073725D01*
X105292633Y-119015017D01*
X105304672Y-118956372D01*
X105305570Y-118947201D01*
X105323259Y-118752839D01*
X105322842Y-118693057D01*
X105323260Y-118633199D01*
X105322360Y-118624028D01*
X105301959Y-118429931D01*
X105289934Y-118371348D01*
X105278723Y-118312577D01*
X105276059Y-118303755D01*
X105218347Y-118117317D01*
X105195162Y-118062162D01*
X105172758Y-118006709D01*
X105168432Y-117998573D01*
X105075607Y-117826896D01*
X105042139Y-117777278D01*
X105009400Y-117727247D01*
X105003576Y-117720106D01*
X104879172Y-117569728D01*
X104836737Y-117527589D01*
X104794874Y-117484839D01*
X104787773Y-117478966D01*
X104636531Y-117355616D01*
X104586738Y-117322534D01*
X104537349Y-117288716D01*
X104529243Y-117284333D01*
X104356921Y-117192708D01*
X104301606Y-117169909D01*
X104246634Y-117146348D01*
X104237831Y-117143623D01*
X104050995Y-117087214D01*
X103992307Y-117075594D01*
X103933804Y-117063158D01*
X103924639Y-117062195D01*
X103730405Y-117043150D01*
X103730402Y-117043150D01*
X103698419Y-117040000D01*
X91371341Y-117040000D01*
X91469285Y-115572969D01*
X91762152Y-113440403D01*
X92203065Y-111333469D01*
X92789876Y-109262428D01*
X93028620Y-108600000D01*
X96223755Y-108600000D01*
X96223755Y-111600000D01*
X96235956Y-111723882D01*
X96272091Y-111843004D01*
X96330772Y-111952787D01*
X96409742Y-112049013D01*
X96505968Y-112127983D01*
X96615751Y-112186664D01*
X96734873Y-112222799D01*
X96858755Y-112235000D01*
X101858755Y-112235000D01*
X101982637Y-112222799D01*
X102101759Y-112186664D01*
X102211542Y-112127983D01*
X102307768Y-112049013D01*
X102386738Y-111952787D01*
X102445419Y-111843004D01*
X102481554Y-111723882D01*
X102493755Y-111600000D01*
X102493755Y-111235000D01*
X104157871Y-111235000D01*
X105615000Y-112692130D01*
X105615001Y-128657089D01*
X104694526Y-128665024D01*
X104576118Y-128677201D01*
X104456996Y-128713336D01*
X104347213Y-128772017D01*
X104250987Y-128850987D01*
X104172017Y-128947213D01*
X104113336Y-129056996D01*
X104077201Y-129176118D01*
X104065000Y-129300000D01*
X104065000Y-132300000D01*
X104078292Y-132429247D01*
X104115453Y-132548052D01*
X104175078Y-132657325D01*
X104254875Y-132752867D01*
X104351777Y-132831005D01*
X104462062Y-132888736D01*
X104581491Y-132923843D01*
X104705474Y-132934976D01*
X110505474Y-132884976D01*
X110623882Y-132872799D01*
X110743004Y-132836664D01*
X110852787Y-132777983D01*
X110949013Y-132699013D01*
X111027983Y-132602787D01*
X111086664Y-132493004D01*
X111122799Y-132373882D01*
X111135000Y-132250000D01*
X111135000Y-129250000D01*
X111121708Y-129120753D01*
X111084547Y-129001948D01*
X111024922Y-128892675D01*
X110945125Y-128797133D01*
X110848223Y-128718995D01*
X110737938Y-128661264D01*
X110618509Y-128626157D01*
X110494526Y-128615024D01*
X107885000Y-128637520D01*
X107885000Y-124798061D01*
X110515000Y-124798061D01*
X110515000Y-125001939D01*
X110554774Y-125201898D01*
X110632795Y-125390256D01*
X110746063Y-125559774D01*
X110890226Y-125703937D01*
X111059744Y-125817205D01*
X111248102Y-125895226D01*
X111448061Y-125935000D01*
X111651939Y-125935000D01*
X111851898Y-125895226D01*
X112040256Y-125817205D01*
X112088454Y-125785000D01*
X119388421Y-125785000D01*
X114904952Y-130268470D01*
X114871184Y-130296183D01*
X114843471Y-130329951D01*
X114843468Y-130329954D01*
X114760590Y-130430941D01*
X114678412Y-130584687D01*
X114627805Y-130751510D01*
X114610719Y-130925000D01*
X114615001Y-130968479D01*
X114615000Y-133461545D01*
X114582795Y-133509744D01*
X114504774Y-133698102D01*
X114465000Y-133898061D01*
X114465000Y-134101939D01*
X114504774Y-134301898D01*
X114582795Y-134490256D01*
X114696063Y-134659774D01*
X114840226Y-134803937D01*
X115009744Y-134917205D01*
X115198102Y-134995226D01*
X115398061Y-135035000D01*
X115601939Y-135035000D01*
X115801898Y-134995226D01*
X115990256Y-134917205D01*
X116159774Y-134803937D01*
X116303937Y-134659774D01*
X116417205Y-134490256D01*
X116495226Y-134301898D01*
X116535000Y-134101939D01*
X116535000Y-133898061D01*
X116495226Y-133698102D01*
X116417205Y-133509744D01*
X116385000Y-133461546D01*
X116385000Y-131291578D01*
X122003789Y-125672789D01*
X126115000Y-125672789D01*
X126115000Y-125876667D01*
X126154774Y-126076626D01*
X126232795Y-126264984D01*
X126346063Y-126434502D01*
X126490226Y-126578665D01*
X126659744Y-126691933D01*
X126848102Y-126769954D01*
X127048061Y-126809728D01*
X127251939Y-126809728D01*
X127451898Y-126769954D01*
X127640256Y-126691933D01*
X127809774Y-126578665D01*
X127953937Y-126434502D01*
X128067205Y-126264984D01*
X128145226Y-126076626D01*
X128156535Y-126019771D01*
X128206531Y-125969775D01*
X129745049Y-124431258D01*
X129778817Y-124403545D01*
X129839614Y-124329465D01*
X129885649Y-124273371D01*
X129889411Y-124268787D01*
X129971589Y-124115041D01*
X130022195Y-123948218D01*
X130035000Y-123818205D01*
X130035000Y-123818195D01*
X130039281Y-123774729D01*
X130035000Y-123731263D01*
X130035000Y-109157804D01*
X130067205Y-109109606D01*
X130145226Y-108921248D01*
X130185000Y-108721289D01*
X130185000Y-108517411D01*
X130145226Y-108317452D01*
X130067205Y-108129094D01*
X129953937Y-107959576D01*
X129809774Y-107815413D01*
X129640256Y-107702145D01*
X129451898Y-107624124D01*
X129251939Y-107584350D01*
X129048061Y-107584350D01*
X128848102Y-107624124D01*
X128659744Y-107702145D01*
X128490226Y-107815413D01*
X128346063Y-107959576D01*
X128232795Y-108129094D01*
X128154774Y-108317452D01*
X128115000Y-108517411D01*
X128115000Y-108721289D01*
X128154774Y-108921248D01*
X128232795Y-109109606D01*
X128265000Y-109157804D01*
X128265001Y-123408148D01*
X126954953Y-124718197D01*
X126904957Y-124768193D01*
X126848102Y-124779502D01*
X126659744Y-124857523D01*
X126490226Y-124970791D01*
X126346063Y-125114954D01*
X126232795Y-125284472D01*
X126154774Y-125472830D01*
X126115000Y-125672789D01*
X122003789Y-125672789D01*
X123591579Y-124085000D01*
X124111546Y-124085000D01*
X124159744Y-124117205D01*
X124348102Y-124195226D01*
X124548061Y-124235000D01*
X124751939Y-124235000D01*
X124951898Y-124195226D01*
X125140256Y-124117205D01*
X125309774Y-124003937D01*
X125453937Y-123859774D01*
X125567205Y-123690256D01*
X125645226Y-123501898D01*
X125685000Y-123301939D01*
X125685000Y-123098061D01*
X125645226Y-122898102D01*
X125567205Y-122709744D01*
X125453937Y-122540226D01*
X125309774Y-122396063D01*
X125140256Y-122282795D01*
X124951898Y-122204774D01*
X124751939Y-122165000D01*
X124548061Y-122165000D01*
X124348102Y-122204774D01*
X124159744Y-122282795D01*
X124111546Y-122315000D01*
X123268469Y-122315000D01*
X123225000Y-122310719D01*
X123181531Y-122315000D01*
X123181523Y-122315000D01*
X123051510Y-122327805D01*
X122884687Y-122378411D01*
X122769403Y-122440031D01*
X122755088Y-122447682D01*
X122745226Y-122398102D01*
X122667205Y-122209744D01*
X122553937Y-122040226D01*
X122409774Y-121896063D01*
X122240256Y-121782795D01*
X122051898Y-121704774D01*
X121851939Y-121665000D01*
X121648061Y-121665000D01*
X121448102Y-121704774D01*
X121259744Y-121782795D01*
X121090226Y-121896063D01*
X120946063Y-122040226D01*
X120832795Y-122209744D01*
X120754774Y-122398102D01*
X120743465Y-122454956D01*
X119183422Y-124015000D01*
X112088454Y-124015000D01*
X112040256Y-123982795D01*
X111851898Y-123904774D01*
X111651939Y-123865000D01*
X111448061Y-123865000D01*
X111248102Y-123904774D01*
X111059744Y-123982795D01*
X110890226Y-124096063D01*
X110746063Y-124240226D01*
X110632795Y-124409744D01*
X110554774Y-124598102D01*
X110515000Y-124798061D01*
X107885000Y-124798061D01*
X107885000Y-112277739D01*
X107890490Y-112221997D01*
X107885000Y-112166255D01*
X107885000Y-112166246D01*
X107868577Y-111999499D01*
X107803676Y-111785551D01*
X107698284Y-111588375D01*
X107556449Y-111415549D01*
X107513141Y-111380007D01*
X105469998Y-109336865D01*
X105434451Y-109293551D01*
X105261625Y-109151716D01*
X105064449Y-109046324D01*
X104850501Y-108981423D01*
X104683754Y-108965000D01*
X104683753Y-108965000D01*
X104628002Y-108959509D01*
X104572251Y-108965000D01*
X102493755Y-108965000D01*
X102493755Y-108729117D01*
X108215000Y-108729117D01*
X108215000Y-109070883D01*
X108281675Y-109406081D01*
X108412463Y-109721831D01*
X108602337Y-110005998D01*
X108844002Y-110247663D01*
X109128169Y-110437537D01*
X109443919Y-110568325D01*
X109779117Y-110635000D01*
X110120883Y-110635000D01*
X110456081Y-110568325D01*
X110771831Y-110437537D01*
X111055998Y-110247663D01*
X111297663Y-110005998D01*
X111487537Y-109721831D01*
X111618325Y-109406081D01*
X111685000Y-109070883D01*
X111685000Y-108729117D01*
X111618325Y-108393919D01*
X111487537Y-108078169D01*
X111297663Y-107794002D01*
X111055998Y-107552337D01*
X110771831Y-107362463D01*
X110456081Y-107231675D01*
X110120883Y-107165000D01*
X109779117Y-107165000D01*
X109443919Y-107231675D01*
X109128169Y-107362463D01*
X108844002Y-107552337D01*
X108602337Y-107794002D01*
X108412463Y-108078169D01*
X108281675Y-108393919D01*
X108215000Y-108729117D01*
X102493755Y-108729117D01*
X102493755Y-108600000D01*
X102481554Y-108476118D01*
X102445419Y-108356996D01*
X102386738Y-108247213D01*
X102307768Y-108150987D01*
X102211542Y-108072017D01*
X102101759Y-108013336D01*
X101982637Y-107977201D01*
X101858755Y-107965000D01*
X96858755Y-107965000D01*
X96734873Y-107977201D01*
X96615751Y-108013336D01*
X96505968Y-108072017D01*
X96409742Y-108150987D01*
X96330772Y-108247213D01*
X96272091Y-108356996D01*
X96235956Y-108476118D01*
X96223755Y-108600000D01*
X93028620Y-108600000D01*
X93519733Y-107237347D01*
X93978536Y-106198061D01*
X115315000Y-106198061D01*
X115315000Y-106401939D01*
X115354774Y-106601898D01*
X115432795Y-106790256D01*
X115546063Y-106959774D01*
X115690226Y-107103937D01*
X115859744Y-107217205D01*
X116048102Y-107295226D01*
X116104957Y-107306535D01*
X119365000Y-110566579D01*
X119365001Y-118261544D01*
X119332795Y-118309744D01*
X119254774Y-118498102D01*
X119215000Y-118698061D01*
X119215000Y-118901939D01*
X119254774Y-119101898D01*
X119332795Y-119290256D01*
X119446063Y-119459774D01*
X119590226Y-119603937D01*
X119759744Y-119717205D01*
X119948102Y-119795226D01*
X120148061Y-119835000D01*
X120351939Y-119835000D01*
X120551898Y-119795226D01*
X120740256Y-119717205D01*
X120909774Y-119603937D01*
X121053937Y-119459774D01*
X121167205Y-119290256D01*
X121245226Y-119101898D01*
X121285000Y-118901939D01*
X121285000Y-118698061D01*
X121245226Y-118498102D01*
X121167205Y-118309744D01*
X121135000Y-118261546D01*
X121135000Y-110243469D01*
X121139281Y-110200000D01*
X121135000Y-110156531D01*
X121135000Y-110156523D01*
X121122195Y-110026510D01*
X121071589Y-109859687D01*
X120989411Y-109705941D01*
X120962411Y-109673042D01*
X120906532Y-109604953D01*
X120906530Y-109604951D01*
X120878817Y-109571183D01*
X120845050Y-109543472D01*
X117356535Y-106054957D01*
X117345226Y-105998102D01*
X117267205Y-105809744D01*
X117153937Y-105640226D01*
X117009774Y-105496063D01*
X116840256Y-105382795D01*
X116651898Y-105304774D01*
X116451939Y-105265000D01*
X116248061Y-105265000D01*
X116048102Y-105304774D01*
X115859744Y-105382795D01*
X115690226Y-105496063D01*
X115546063Y-105640226D01*
X115432795Y-105809744D01*
X115354774Y-105998102D01*
X115315000Y-106198061D01*
X93978536Y-106198061D01*
X94389063Y-105268133D01*
X95393650Y-103364344D01*
X96528585Y-101535276D01*
X97788347Y-99789831D01*
X99166812Y-98136495D01*
X100229477Y-97029117D01*
X135915000Y-97029117D01*
X135915000Y-97370883D01*
X135981675Y-97706081D01*
X136112463Y-98021831D01*
X136302337Y-98305998D01*
X136544002Y-98547663D01*
X136828169Y-98737537D01*
X137143919Y-98868325D01*
X137479117Y-98935000D01*
X137820883Y-98935000D01*
X138156081Y-98868325D01*
X138471831Y-98737537D01*
X138755998Y-98547663D01*
X138997663Y-98305998D01*
X139187537Y-98021831D01*
X139318325Y-97706081D01*
X139385000Y-97370883D01*
X139385000Y-97029117D01*
X139318325Y-96693919D01*
X139187537Y-96378169D01*
X138997663Y-96094002D01*
X138755998Y-95852337D01*
X138471831Y-95662463D01*
X138156081Y-95531675D01*
X137820883Y-95465000D01*
X137479117Y-95465000D01*
X137143919Y-95531675D01*
X136828169Y-95662463D01*
X136544002Y-95852337D01*
X136302337Y-96094002D01*
X136112463Y-96378169D01*
X135981675Y-96693919D01*
X135915000Y-97029117D01*
X100229477Y-97029117D01*
X100657226Y-96583370D01*
X102252360Y-95137985D01*
X103944431Y-93807392D01*
X105725196Y-92598075D01*
X107585992Y-91515918D01*
X109517731Y-90566205D01*
X111511018Y-89753555D01*
X113556135Y-89081929D01*
X115643117Y-88554600D01*
X117761808Y-88174136D01*
X119901877Y-87942390D01*
X122052894Y-87860493D01*
X124204388Y-87928842D01*
G37*
X124204388Y-87928842D02*
X126345861Y-88147105D01*
X128466911Y-88514221D01*
X130557182Y-89028398D01*
X132606477Y-89687128D01*
X134604852Y-90487214D01*
X136542529Y-91424741D01*
X138410100Y-92495157D01*
X140198440Y-93693232D01*
X141898860Y-95013144D01*
X143503077Y-96448467D01*
X145003238Y-97992172D01*
X146392079Y-99636782D01*
X147663396Y-101375062D01*
X148084620Y-102040000D01*
X135335581Y-102040000D01*
X135302613Y-102043247D01*
X135289633Y-102043247D01*
X135280468Y-102044210D01*
X135086518Y-102065965D01*
X135028019Y-102078400D01*
X134969325Y-102090022D01*
X134960522Y-102092747D01*
X134774491Y-102151760D01*
X134719509Y-102175326D01*
X134664206Y-102198120D01*
X134656100Y-102202503D01*
X134485075Y-102296525D01*
X134435752Y-102330298D01*
X134385894Y-102363423D01*
X134378794Y-102369297D01*
X134229288Y-102494747D01*
X134187443Y-102537477D01*
X134144987Y-102579638D01*
X134139163Y-102586780D01*
X134016872Y-102738880D01*
X133984114Y-102788939D01*
X133950669Y-102838523D01*
X133946343Y-102846660D01*
X133885000Y-102963997D01*
X133885000Y-99428711D01*
X133953937Y-99359774D01*
X134067205Y-99190256D01*
X134145226Y-99001898D01*
X134185000Y-98801939D01*
X134185000Y-98598061D01*
X134145226Y-98398102D01*
X134067205Y-98209744D01*
X133953937Y-98040226D01*
X133809774Y-97896063D01*
X133640256Y-97782795D01*
X133451898Y-97704774D01*
X133251939Y-97665000D01*
X133048061Y-97665000D01*
X132848102Y-97704774D01*
X132659744Y-97782795D01*
X132490226Y-97896063D01*
X132346063Y-98040226D01*
X132232795Y-98209744D01*
X132154774Y-98398102D01*
X132115000Y-98598061D01*
X132115000Y-98801939D01*
X132154774Y-99001898D01*
X132232795Y-99190256D01*
X132346063Y-99359774D01*
X132415001Y-99428712D01*
X132415000Y-107513895D01*
X132411444Y-107550000D01*
X132425635Y-107694084D01*
X132467663Y-107832632D01*
X132535913Y-107960319D01*
X132627762Y-108072237D01*
X132655808Y-108095254D01*
X140415001Y-115854448D01*
X140415000Y-134471289D01*
X140346063Y-134540226D01*
X140232795Y-134709744D01*
X140154774Y-134898102D01*
X140115000Y-135098061D01*
X140115000Y-135301939D01*
X140154774Y-135501898D01*
X140232795Y-135690256D01*
X140346063Y-135859774D01*
X140490226Y-136003937D01*
X140659744Y-136117205D01*
X140848102Y-136195226D01*
X141048061Y-136235000D01*
X141251939Y-136235000D01*
X141451898Y-136195226D01*
X141640256Y-136117205D01*
X141809774Y-136003937D01*
X141953937Y-135859774D01*
X142067205Y-135690256D01*
X142145226Y-135501898D01*
X142185000Y-135301939D01*
X142185000Y-135098061D01*
X142145226Y-134898102D01*
X142067205Y-134709744D01*
X141953937Y-134540226D01*
X141885000Y-134471289D01*
X141885000Y-115586094D01*
X141888555Y-115549999D01*
X141885000Y-115513904D01*
X141885000Y-115513895D01*
X141874365Y-115405915D01*
X141832337Y-115267367D01*
X141764087Y-115139680D01*
X141672238Y-115027762D01*
X141644193Y-115004746D01*
X133885000Y-107245554D01*
X133885000Y-104437366D01*
X133958393Y-104573104D01*
X133991846Y-104622699D01*
X134024600Y-104672753D01*
X134030424Y-104679894D01*
X134154828Y-104830272D01*
X134197263Y-104872411D01*
X134239126Y-104915161D01*
X134246227Y-104921034D01*
X134397469Y-105044384D01*
X134447277Y-105077477D01*
X134496651Y-105111284D01*
X134504757Y-105115667D01*
X134677080Y-105207292D01*
X134732392Y-105230090D01*
X134787366Y-105253652D01*
X134796169Y-105256377D01*
X134983006Y-105312786D01*
X135041686Y-105324405D01*
X135100196Y-105336842D01*
X135109361Y-105337805D01*
X135303594Y-105356850D01*
X135303598Y-105356850D01*
X135335581Y-105360000D01*
X149942321Y-105360000D01*
X150664932Y-106953856D01*
X151414838Y-108971564D01*
X152022172Y-111036676D01*
X152483970Y-113139114D01*
X152797986Y-115268651D01*
X152962688Y-117414904D01*
X152977273Y-119567427D01*
X152841671Y-121715715D01*
X152556543Y-123849310D01*
X152123277Y-125957813D01*
X151543980Y-128030977D01*
X150821487Y-130058656D01*
X149959306Y-132031006D01*
X148961638Y-133938413D01*
X147833346Y-135771583D01*
X146579924Y-137521584D01*
X145207497Y-139179870D01*
X143722719Y-140738398D01*
X142132852Y-142189547D01*
X140445626Y-143526262D01*
X138669265Y-144742025D01*
X136812419Y-145830917D01*
X134884150Y-146787624D01*
X132893837Y-147607493D01*
X130851186Y-148286526D01*
X128766136Y-148821420D01*
X126648852Y-149209565D01*
X124509658Y-149449068D01*
X122358960Y-149538767D01*
X120207248Y-149478221D01*
X118065001Y-149267728D01*
X115942647Y-148908310D01*
X113850554Y-148401724D01*
X111798883Y-147750432D01*
X109797637Y-146957606D01*
X107856576Y-146027115D01*
X106100623Y-145029117D01*
X120415000Y-145029117D01*
X120415000Y-145370883D01*
X120481675Y-145706081D01*
X120612463Y-146021831D01*
X120802337Y-146305998D01*
X121044002Y-146547663D01*
X121328169Y-146737537D01*
X121643919Y-146868325D01*
X121979117Y-146935000D01*
X122320883Y-146935000D01*
X122656081Y-146868325D01*
X122971831Y-146737537D01*
X123255998Y-146547663D01*
X123497663Y-146305998D01*
X123687537Y-146021831D01*
X123818325Y-145706081D01*
X123885000Y-145370883D01*
X123885000Y-145029117D01*
X123818325Y-144693919D01*
X123687537Y-144378169D01*
X123497663Y-144094002D01*
X123255998Y-143852337D01*
X122971831Y-143662463D01*
X122656081Y-143531675D01*
X122320883Y-143465000D01*
X121979117Y-143465000D01*
X121643919Y-143531675D01*
X121328169Y-143662463D01*
X121044002Y-143852337D01*
X120802337Y-144094002D01*
X120612463Y-144378169D01*
X120481675Y-144693919D01*
X120415000Y-145029117D01*
X106100623Y-145029117D01*
X105985150Y-144963488D01*
X104192477Y-143771908D01*
X102487289Y-142458178D01*
X100877904Y-141028706D01*
X99372150Y-139490449D01*
X97977365Y-137850899D01*
X96700356Y-136118060D01*
X95547326Y-134300352D01*
X94523897Y-132406627D01*
X93635073Y-130446156D01*
X92885163Y-128428440D01*
X92277830Y-126363335D01*
X91816030Y-124260884D01*
X91502013Y-122131336D01*
X91366082Y-120360000D01*
X103698419Y-120360000D01*
X103731387Y-120356753D01*
X103744367Y-120356753D01*
X103753532Y-120355790D01*
X103947481Y-120334035D01*
X104005966Y-120321603D01*
X104064676Y-120309978D01*
X104073479Y-120307253D01*
X104259509Y-120248240D01*
X104314519Y-120224662D01*
X104369794Y-120201880D01*
X104377900Y-120197497D01*
X104548925Y-120103475D01*
X104598264Y-120069692D01*
X104648106Y-120036577D01*
X104655206Y-120030703D01*
X104804712Y-119905253D01*
X104846557Y-119862523D01*
X104889013Y-119820362D01*
X104894837Y-119813220D01*
X105017128Y-119661121D01*
X105049887Y-119611059D01*
X105083331Y-119561477D01*
X105087657Y-119553340D01*
X105178077Y-119380385D01*
X105200475Y-119324947D01*
X105223669Y-119269772D01*
X105226332Y-119260950D01*
X105281435Y-119073725D01*
X105292633Y-119015017D01*
X105304672Y-118956372D01*
X105305570Y-118947201D01*
X105323259Y-118752839D01*
X105322842Y-118693057D01*
X105323260Y-118633199D01*
X105322360Y-118624028D01*
X105301959Y-118429931D01*
X105289934Y-118371348D01*
X105278723Y-118312577D01*
X105276059Y-118303755D01*
X105218347Y-118117317D01*
X105195162Y-118062162D01*
X105172758Y-118006709D01*
X105168432Y-117998573D01*
X105075607Y-117826896D01*
X105042139Y-117777278D01*
X105009400Y-117727247D01*
X105003576Y-117720106D01*
X104879172Y-117569728D01*
X104836737Y-117527589D01*
X104794874Y-117484839D01*
X104787773Y-117478966D01*
X104636531Y-117355616D01*
X104586738Y-117322534D01*
X104537349Y-117288716D01*
X104529243Y-117284333D01*
X104356921Y-117192708D01*
X104301606Y-117169909D01*
X104246634Y-117146348D01*
X104237831Y-117143623D01*
X104050995Y-117087214D01*
X103992307Y-117075594D01*
X103933804Y-117063158D01*
X103924639Y-117062195D01*
X103730405Y-117043150D01*
X103730402Y-117043150D01*
X103698419Y-117040000D01*
X91371341Y-117040000D01*
X91469285Y-115572969D01*
X91762152Y-113440403D01*
X92203065Y-111333469D01*
X92789876Y-109262428D01*
X93028620Y-108600000D01*
X96223755Y-108600000D01*
X96223755Y-111600000D01*
X96235956Y-111723882D01*
X96272091Y-111843004D01*
X96330772Y-111952787D01*
X96409742Y-112049013D01*
X96505968Y-112127983D01*
X96615751Y-112186664D01*
X96734873Y-112222799D01*
X96858755Y-112235000D01*
X101858755Y-112235000D01*
X101982637Y-112222799D01*
X102101759Y-112186664D01*
X102211542Y-112127983D01*
X102307768Y-112049013D01*
X102386738Y-111952787D01*
X102445419Y-111843004D01*
X102481554Y-111723882D01*
X102493755Y-111600000D01*
X102493755Y-111235000D01*
X104157871Y-111235000D01*
X105615000Y-112692130D01*
X105615001Y-128657089D01*
X104694526Y-128665024D01*
X104576118Y-128677201D01*
X104456996Y-128713336D01*
X104347213Y-128772017D01*
X104250987Y-128850987D01*
X104172017Y-128947213D01*
X104113336Y-129056996D01*
X104077201Y-129176118D01*
X104065000Y-129300000D01*
X104065000Y-132300000D01*
X104078292Y-132429247D01*
X104115453Y-132548052D01*
X104175078Y-132657325D01*
X104254875Y-132752867D01*
X104351777Y-132831005D01*
X104462062Y-132888736D01*
X104581491Y-132923843D01*
X104705474Y-132934976D01*
X110505474Y-132884976D01*
X110623882Y-132872799D01*
X110743004Y-132836664D01*
X110852787Y-132777983D01*
X110949013Y-132699013D01*
X111027983Y-132602787D01*
X111086664Y-132493004D01*
X111122799Y-132373882D01*
X111135000Y-132250000D01*
X111135000Y-129250000D01*
X111121708Y-129120753D01*
X111084547Y-129001948D01*
X111024922Y-128892675D01*
X110945125Y-128797133D01*
X110848223Y-128718995D01*
X110737938Y-128661264D01*
X110618509Y-128626157D01*
X110494526Y-128615024D01*
X107885000Y-128637520D01*
X107885000Y-124798061D01*
X110515000Y-124798061D01*
X110515000Y-125001939D01*
X110554774Y-125201898D01*
X110632795Y-125390256D01*
X110746063Y-125559774D01*
X110890226Y-125703937D01*
X111059744Y-125817205D01*
X111248102Y-125895226D01*
X111448061Y-125935000D01*
X111651939Y-125935000D01*
X111851898Y-125895226D01*
X112040256Y-125817205D01*
X112088454Y-125785000D01*
X119388421Y-125785000D01*
X114904952Y-130268470D01*
X114871184Y-130296183D01*
X114843471Y-130329951D01*
X114843468Y-130329954D01*
X114760590Y-130430941D01*
X114678412Y-130584687D01*
X114627805Y-130751510D01*
X114610719Y-130925000D01*
X114615001Y-130968479D01*
X114615000Y-133461545D01*
X114582795Y-133509744D01*
X114504774Y-133698102D01*
X114465000Y-133898061D01*
X114465000Y-134101939D01*
X114504774Y-134301898D01*
X114582795Y-134490256D01*
X114696063Y-134659774D01*
X114840226Y-134803937D01*
X115009744Y-134917205D01*
X115198102Y-134995226D01*
X115398061Y-135035000D01*
X115601939Y-135035000D01*
X115801898Y-134995226D01*
X115990256Y-134917205D01*
X116159774Y-134803937D01*
X116303937Y-134659774D01*
X116417205Y-134490256D01*
X116495226Y-134301898D01*
X116535000Y-134101939D01*
X116535000Y-133898061D01*
X116495226Y-133698102D01*
X116417205Y-133509744D01*
X116385000Y-133461546D01*
X116385000Y-131291578D01*
X122003789Y-125672789D01*
X126115000Y-125672789D01*
X126115000Y-125876667D01*
X126154774Y-126076626D01*
X126232795Y-126264984D01*
X126346063Y-126434502D01*
X126490226Y-126578665D01*
X126659744Y-126691933D01*
X126848102Y-126769954D01*
X127048061Y-126809728D01*
X127251939Y-126809728D01*
X127451898Y-126769954D01*
X127640256Y-126691933D01*
X127809774Y-126578665D01*
X127953937Y-126434502D01*
X128067205Y-126264984D01*
X128145226Y-126076626D01*
X128156535Y-126019771D01*
X128206531Y-125969775D01*
X129745049Y-124431258D01*
X129778817Y-124403545D01*
X129839614Y-124329465D01*
X129885649Y-124273371D01*
X129889411Y-124268787D01*
X129971589Y-124115041D01*
X130022195Y-123948218D01*
X130035000Y-123818205D01*
X130035000Y-123818195D01*
X130039281Y-123774729D01*
X130035000Y-123731263D01*
X130035000Y-109157804D01*
X130067205Y-109109606D01*
X130145226Y-108921248D01*
X130185000Y-108721289D01*
X130185000Y-108517411D01*
X130145226Y-108317452D01*
X130067205Y-108129094D01*
X129953937Y-107959576D01*
X129809774Y-107815413D01*
X129640256Y-107702145D01*
X129451898Y-107624124D01*
X129251939Y-107584350D01*
X129048061Y-107584350D01*
X128848102Y-107624124D01*
X128659744Y-107702145D01*
X128490226Y-107815413D01*
X128346063Y-107959576D01*
X128232795Y-108129094D01*
X128154774Y-108317452D01*
X128115000Y-108517411D01*
X128115000Y-108721289D01*
X128154774Y-108921248D01*
X128232795Y-109109606D01*
X128265000Y-109157804D01*
X128265001Y-123408148D01*
X126954953Y-124718197D01*
X126904957Y-124768193D01*
X126848102Y-124779502D01*
X126659744Y-124857523D01*
X126490226Y-124970791D01*
X126346063Y-125114954D01*
X126232795Y-125284472D01*
X126154774Y-125472830D01*
X126115000Y-125672789D01*
X122003789Y-125672789D01*
X123591579Y-124085000D01*
X124111546Y-124085000D01*
X124159744Y-124117205D01*
X124348102Y-124195226D01*
X124548061Y-124235000D01*
X124751939Y-124235000D01*
X124951898Y-124195226D01*
X125140256Y-124117205D01*
X125309774Y-124003937D01*
X125453937Y-123859774D01*
X125567205Y-123690256D01*
X125645226Y-123501898D01*
X125685000Y-123301939D01*
X125685000Y-123098061D01*
X125645226Y-122898102D01*
X125567205Y-122709744D01*
X125453937Y-122540226D01*
X125309774Y-122396063D01*
X125140256Y-122282795D01*
X124951898Y-122204774D01*
X124751939Y-122165000D01*
X124548061Y-122165000D01*
X124348102Y-122204774D01*
X124159744Y-122282795D01*
X124111546Y-122315000D01*
X123268469Y-122315000D01*
X123225000Y-122310719D01*
X123181531Y-122315000D01*
X123181523Y-122315000D01*
X123051510Y-122327805D01*
X122884687Y-122378411D01*
X122769403Y-122440031D01*
X122755088Y-122447682D01*
X122745226Y-122398102D01*
X122667205Y-122209744D01*
X122553937Y-122040226D01*
X122409774Y-121896063D01*
X122240256Y-121782795D01*
X122051898Y-121704774D01*
X121851939Y-121665000D01*
X121648061Y-121665000D01*
X121448102Y-121704774D01*
X121259744Y-121782795D01*
X121090226Y-121896063D01*
X120946063Y-122040226D01*
X120832795Y-122209744D01*
X120754774Y-122398102D01*
X120743465Y-122454956D01*
X119183422Y-124015000D01*
X112088454Y-124015000D01*
X112040256Y-123982795D01*
X111851898Y-123904774D01*
X111651939Y-123865000D01*
X111448061Y-123865000D01*
X111248102Y-123904774D01*
X111059744Y-123982795D01*
X110890226Y-124096063D01*
X110746063Y-124240226D01*
X110632795Y-124409744D01*
X110554774Y-124598102D01*
X110515000Y-124798061D01*
X107885000Y-124798061D01*
X107885000Y-112277739D01*
X107890490Y-112221997D01*
X107885000Y-112166255D01*
X107885000Y-112166246D01*
X107868577Y-111999499D01*
X107803676Y-111785551D01*
X107698284Y-111588375D01*
X107556449Y-111415549D01*
X107513141Y-111380007D01*
X105469998Y-109336865D01*
X105434451Y-109293551D01*
X105261625Y-109151716D01*
X105064449Y-109046324D01*
X104850501Y-108981423D01*
X104683754Y-108965000D01*
X104683753Y-108965000D01*
X104628002Y-108959509D01*
X104572251Y-108965000D01*
X102493755Y-108965000D01*
X102493755Y-108729117D01*
X108215000Y-108729117D01*
X108215000Y-109070883D01*
X108281675Y-109406081D01*
X108412463Y-109721831D01*
X108602337Y-110005998D01*
X108844002Y-110247663D01*
X109128169Y-110437537D01*
X109443919Y-110568325D01*
X109779117Y-110635000D01*
X110120883Y-110635000D01*
X110456081Y-110568325D01*
X110771831Y-110437537D01*
X111055998Y-110247663D01*
X111297663Y-110005998D01*
X111487537Y-109721831D01*
X111618325Y-109406081D01*
X111685000Y-109070883D01*
X111685000Y-108729117D01*
X111618325Y-108393919D01*
X111487537Y-108078169D01*
X111297663Y-107794002D01*
X111055998Y-107552337D01*
X110771831Y-107362463D01*
X110456081Y-107231675D01*
X110120883Y-107165000D01*
X109779117Y-107165000D01*
X109443919Y-107231675D01*
X109128169Y-107362463D01*
X108844002Y-107552337D01*
X108602337Y-107794002D01*
X108412463Y-108078169D01*
X108281675Y-108393919D01*
X108215000Y-108729117D01*
X102493755Y-108729117D01*
X102493755Y-108600000D01*
X102481554Y-108476118D01*
X102445419Y-108356996D01*
X102386738Y-108247213D01*
X102307768Y-108150987D01*
X102211542Y-108072017D01*
X102101759Y-108013336D01*
X101982637Y-107977201D01*
X101858755Y-107965000D01*
X96858755Y-107965000D01*
X96734873Y-107977201D01*
X96615751Y-108013336D01*
X96505968Y-108072017D01*
X96409742Y-108150987D01*
X96330772Y-108247213D01*
X96272091Y-108356996D01*
X96235956Y-108476118D01*
X96223755Y-108600000D01*
X93028620Y-108600000D01*
X93519733Y-107237347D01*
X93978536Y-106198061D01*
X115315000Y-106198061D01*
X115315000Y-106401939D01*
X115354774Y-106601898D01*
X115432795Y-106790256D01*
X115546063Y-106959774D01*
X115690226Y-107103937D01*
X115859744Y-107217205D01*
X116048102Y-107295226D01*
X116104957Y-107306535D01*
X119365000Y-110566579D01*
X119365001Y-118261544D01*
X119332795Y-118309744D01*
X119254774Y-118498102D01*
X119215000Y-118698061D01*
X119215000Y-118901939D01*
X119254774Y-119101898D01*
X119332795Y-119290256D01*
X119446063Y-119459774D01*
X119590226Y-119603937D01*
X119759744Y-119717205D01*
X119948102Y-119795226D01*
X120148061Y-119835000D01*
X120351939Y-119835000D01*
X120551898Y-119795226D01*
X120740256Y-119717205D01*
X120909774Y-119603937D01*
X121053937Y-119459774D01*
X121167205Y-119290256D01*
X121245226Y-119101898D01*
X121285000Y-118901939D01*
X121285000Y-118698061D01*
X121245226Y-118498102D01*
X121167205Y-118309744D01*
X121135000Y-118261546D01*
X121135000Y-110243469D01*
X121139281Y-110200000D01*
X121135000Y-110156531D01*
X121135000Y-110156523D01*
X121122195Y-110026510D01*
X121071589Y-109859687D01*
X120989411Y-109705941D01*
X120962411Y-109673042D01*
X120906532Y-109604953D01*
X120906530Y-109604951D01*
X120878817Y-109571183D01*
X120845050Y-109543472D01*
X117356535Y-106054957D01*
X117345226Y-105998102D01*
X117267205Y-105809744D01*
X117153937Y-105640226D01*
X117009774Y-105496063D01*
X116840256Y-105382795D01*
X116651898Y-105304774D01*
X116451939Y-105265000D01*
X116248061Y-105265000D01*
X116048102Y-105304774D01*
X115859744Y-105382795D01*
X115690226Y-105496063D01*
X115546063Y-105640226D01*
X115432795Y-105809744D01*
X115354774Y-105998102D01*
X115315000Y-106198061D01*
X93978536Y-106198061D01*
X94389063Y-105268133D01*
X95393650Y-103364344D01*
X96528585Y-101535276D01*
X97788347Y-99789831D01*
X99166812Y-98136495D01*
X100229477Y-97029117D01*
X135915000Y-97029117D01*
X135915000Y-97370883D01*
X135981675Y-97706081D01*
X136112463Y-98021831D01*
X136302337Y-98305998D01*
X136544002Y-98547663D01*
X136828169Y-98737537D01*
X137143919Y-98868325D01*
X137479117Y-98935000D01*
X137820883Y-98935000D01*
X138156081Y-98868325D01*
X138471831Y-98737537D01*
X138755998Y-98547663D01*
X138997663Y-98305998D01*
X139187537Y-98021831D01*
X139318325Y-97706081D01*
X139385000Y-97370883D01*
X139385000Y-97029117D01*
X139318325Y-96693919D01*
X139187537Y-96378169D01*
X138997663Y-96094002D01*
X138755998Y-95852337D01*
X138471831Y-95662463D01*
X138156081Y-95531675D01*
X137820883Y-95465000D01*
X137479117Y-95465000D01*
X137143919Y-95531675D01*
X136828169Y-95662463D01*
X136544002Y-95852337D01*
X136302337Y-96094002D01*
X136112463Y-96378169D01*
X135981675Y-96693919D01*
X135915000Y-97029117D01*
X100229477Y-97029117D01*
X100657226Y-96583370D01*
X102252360Y-95137985D01*
X103944431Y-93807392D01*
X105725196Y-92598075D01*
X107585992Y-91515918D01*
X109517731Y-90566205D01*
X111511018Y-89753555D01*
X113556135Y-89081929D01*
X115643117Y-88554600D01*
X117761808Y-88174136D01*
X119901877Y-87942390D01*
X122052894Y-87860493D01*
X124204388Y-87928842D01*
G36*
X101731755Y-111473000D02*
G01*
X96985755Y-111473000D01*
X96985755Y-108727000D01*
X101731755Y-108727000D01*
X101731755Y-111473000D01*
G37*
X101731755Y-111473000D02*
X96985755Y-111473000D01*
X96985755Y-108727000D01*
X101731755Y-108727000D01*
X101731755Y-111473000D01*
G36*
X110373000Y-132124090D02*
G01*
X104827000Y-132171901D01*
X104827000Y-129425910D01*
X110373000Y-129378099D01*
X110373000Y-132124090D01*
G37*
X110373000Y-132124090D02*
X104827000Y-132171901D01*
X104827000Y-129425910D01*
X110373000Y-129378099D01*
X110373000Y-132124090D01*
M02*
