G04 #@! TF.GenerationSoftware,KiCad,Pcbnew,5.1.5+dfsg1-2build2*
G04 #@! TF.CreationDate,2021-03-18T18:12:45+09:00*
G04 #@! TF.ProjectId,puck,7075636b-2e6b-4696-9361-645f70636258,rev?*
G04 #@! TF.SameCoordinates,Original*
G04 #@! TF.FileFunction,Soldermask,Bot*
G04 #@! TF.FilePolarity,Negative*
%FSLAX46Y46*%
G04 Gerber Fmt 4.6, Leading zero omitted, Abs format (unit mm)*
G04 Created by KiCad (PCBNEW 5.1.5+dfsg1-2build2) date 2021-03-18 18:12:45*
%MOMM*%
%LPD*%
G04 APERTURE LIST*
%ADD10C,0.020000*%
G04 APERTURE END LIST*
D10*
G36*
X122374549Y-144071116D02*
G01*
X122485734Y-144093232D01*
X122695203Y-144179997D01*
X122883720Y-144305960D01*
X123044040Y-144466280D01*
X123170003Y-144654797D01*
X123256768Y-144864266D01*
X123301000Y-145086636D01*
X123301000Y-145313364D01*
X123256768Y-145535734D01*
X123170003Y-145745203D01*
X123044040Y-145933720D01*
X122883720Y-146094040D01*
X122695203Y-146220003D01*
X122485734Y-146306768D01*
X122374549Y-146328884D01*
X122263365Y-146351000D01*
X122036635Y-146351000D01*
X121925451Y-146328884D01*
X121814266Y-146306768D01*
X121604797Y-146220003D01*
X121416280Y-146094040D01*
X121255960Y-145933720D01*
X121129997Y-145745203D01*
X121043232Y-145535734D01*
X120999000Y-145313364D01*
X120999000Y-145086636D01*
X121043232Y-144864266D01*
X121129997Y-144654797D01*
X121255960Y-144466280D01*
X121416280Y-144305960D01*
X121604797Y-144179997D01*
X121814266Y-144093232D01*
X121925451Y-144071116D01*
X122036635Y-144049000D01*
X122263365Y-144049000D01*
X122374549Y-144071116D01*
G37*
G36*
X110174549Y-107771116D02*
G01*
X110285734Y-107793232D01*
X110495203Y-107879997D01*
X110683720Y-108005960D01*
X110844040Y-108166280D01*
X110970003Y-108354797D01*
X111056768Y-108564266D01*
X111101000Y-108786636D01*
X111101000Y-109013364D01*
X111056768Y-109235734D01*
X110970003Y-109445203D01*
X110844040Y-109633720D01*
X110683720Y-109794040D01*
X110495203Y-109920003D01*
X110285734Y-110006768D01*
X110174549Y-110028884D01*
X110063365Y-110051000D01*
X109836635Y-110051000D01*
X109725451Y-110028884D01*
X109614266Y-110006768D01*
X109404797Y-109920003D01*
X109216280Y-109794040D01*
X109055960Y-109633720D01*
X108929997Y-109445203D01*
X108843232Y-109235734D01*
X108799000Y-109013364D01*
X108799000Y-108786636D01*
X108843232Y-108564266D01*
X108929997Y-108354797D01*
X109055960Y-108166280D01*
X109216280Y-108005960D01*
X109404797Y-107879997D01*
X109614266Y-107793232D01*
X109725451Y-107771116D01*
X109836635Y-107749000D01*
X110063365Y-107749000D01*
X110174549Y-107771116D01*
G37*
G36*
X137874549Y-96071116D02*
G01*
X137985734Y-96093232D01*
X138195203Y-96179997D01*
X138383720Y-96305960D01*
X138544040Y-96466280D01*
X138670003Y-96654797D01*
X138756768Y-96864266D01*
X138801000Y-97086636D01*
X138801000Y-97313364D01*
X138756768Y-97535734D01*
X138670003Y-97745203D01*
X138544040Y-97933720D01*
X138383720Y-98094040D01*
X138195203Y-98220003D01*
X137985734Y-98306768D01*
X137874549Y-98328884D01*
X137763365Y-98351000D01*
X137536635Y-98351000D01*
X137425451Y-98328884D01*
X137314266Y-98306768D01*
X137104797Y-98220003D01*
X136916280Y-98094040D01*
X136755960Y-97933720D01*
X136629997Y-97745203D01*
X136543232Y-97535734D01*
X136499000Y-97313364D01*
X136499000Y-97086636D01*
X136543232Y-96864266D01*
X136629997Y-96654797D01*
X136755960Y-96466280D01*
X136916280Y-96305960D01*
X137104797Y-96179997D01*
X137314266Y-96093232D01*
X137425451Y-96071116D01*
X137536635Y-96049000D01*
X137763365Y-96049000D01*
X137874549Y-96071116D01*
G37*
M02*
