G04 #@! TF.GenerationSoftware,KiCad,Pcbnew,5.1.5+dfsg1-2build2*
G04 #@! TF.CreationDate,2021-03-18T18:12:21+09:00*
G04 #@! TF.ProjectId,puck,7075636b-2e6b-4696-9361-645f70636258,rev?*
G04 #@! TF.SameCoordinates,Original*
G04 #@! TF.FileFunction,Paste,Top*
G04 #@! TF.FilePolarity,Positive*
%FSLAX46Y46*%
G04 Gerber Fmt 4.6, Leading zero omitted, Abs format (unit mm)*
G04 Created by KiCad (PCBNEW 5.1.5+dfsg1-2build2) date 2021-03-18 18:12:21*
%MOMM*%
%LPD*%
G04 APERTURE LIST*
%ADD10R,1.580000X0.590000*%
%ADD11R,0.410000X1.570000*%
%ADD12R,0.510000X1.170000*%
%ADD13C,0.020000*%
%ADD14R,3.180000X1.270000*%
%ADD15C,1.143000*%
%ADD16O,1.016000X2.032000*%
%ADD17O,2.748280X1.998980*%
%ADD18R,0.900000X1.200000*%
%ADD19R,3.000000X1.600000*%
%ADD20R,6.200000X5.800000*%
G04 APERTURE END LIST*
D10*
X110675000Y-103705000D03*
X110675000Y-102435000D03*
X110675000Y-101165000D03*
X110675000Y-99895000D03*
X105425000Y-99895000D03*
X105425000Y-101165000D03*
X105425000Y-102435000D03*
X105425000Y-103705000D03*
X110675000Y-98105000D03*
X110675000Y-96835000D03*
X110675000Y-95565000D03*
X110675000Y-94295000D03*
X105425000Y-94295000D03*
X105425000Y-95565000D03*
X105425000Y-96835000D03*
X105425000Y-98105000D03*
D11*
X135533518Y-117204729D03*
X134883518Y-117204729D03*
X134233518Y-117204729D03*
X133583518Y-117204729D03*
X132933518Y-117204729D03*
X132283518Y-117204729D03*
X131633518Y-117204729D03*
X130983518Y-117204729D03*
X130983518Y-122944729D03*
X131633518Y-122944729D03*
X132283518Y-122944729D03*
X132933518Y-122944729D03*
X133583518Y-122944729D03*
X134233518Y-122944729D03*
X134883518Y-122944729D03*
X135533518Y-122944729D03*
D12*
X118350000Y-122650000D03*
X120250000Y-120150000D03*
X119300000Y-122650000D03*
X120250000Y-122650000D03*
X118350000Y-120150000D03*
D13*
G36*
X132169603Y-114900691D02*
G01*
X132189018Y-114903571D01*
X132208057Y-114908340D01*
X132226537Y-114914952D01*
X132244279Y-114923344D01*
X132261114Y-114933434D01*
X132276879Y-114945126D01*
X132291421Y-114958307D01*
X132304602Y-114972849D01*
X132316294Y-114988614D01*
X132326384Y-115005449D01*
X132334776Y-115023191D01*
X132341388Y-115041671D01*
X132346157Y-115060710D01*
X132349037Y-115080125D01*
X132350000Y-115099728D01*
X132350000Y-115649728D01*
X132349037Y-115669331D01*
X132346157Y-115688746D01*
X132341388Y-115707785D01*
X132334776Y-115726265D01*
X132326384Y-115744007D01*
X132316294Y-115760842D01*
X132304602Y-115776607D01*
X132291421Y-115791149D01*
X132276879Y-115804330D01*
X132261114Y-115816022D01*
X132244279Y-115826112D01*
X132226537Y-115834504D01*
X132208057Y-115841116D01*
X132189018Y-115845885D01*
X132169603Y-115848765D01*
X132150000Y-115849728D01*
X131750000Y-115849728D01*
X131730397Y-115848765D01*
X131710982Y-115845885D01*
X131691943Y-115841116D01*
X131673463Y-115834504D01*
X131655721Y-115826112D01*
X131638886Y-115816022D01*
X131623121Y-115804330D01*
X131608579Y-115791149D01*
X131595398Y-115776607D01*
X131583706Y-115760842D01*
X131573616Y-115744007D01*
X131565224Y-115726265D01*
X131558612Y-115707785D01*
X131553843Y-115688746D01*
X131550963Y-115669331D01*
X131550000Y-115649728D01*
X131550000Y-115099728D01*
X131550963Y-115080125D01*
X131553843Y-115060710D01*
X131558612Y-115041671D01*
X131565224Y-115023191D01*
X131573616Y-115005449D01*
X131583706Y-114988614D01*
X131595398Y-114972849D01*
X131608579Y-114958307D01*
X131623121Y-114945126D01*
X131638886Y-114933434D01*
X131655721Y-114923344D01*
X131673463Y-114914952D01*
X131691943Y-114908340D01*
X131710982Y-114903571D01*
X131730397Y-114900691D01*
X131750000Y-114899728D01*
X132150000Y-114899728D01*
X132169603Y-114900691D01*
G37*
G36*
X133819603Y-114900691D02*
G01*
X133839018Y-114903571D01*
X133858057Y-114908340D01*
X133876537Y-114914952D01*
X133894279Y-114923344D01*
X133911114Y-114933434D01*
X133926879Y-114945126D01*
X133941421Y-114958307D01*
X133954602Y-114972849D01*
X133966294Y-114988614D01*
X133976384Y-115005449D01*
X133984776Y-115023191D01*
X133991388Y-115041671D01*
X133996157Y-115060710D01*
X133999037Y-115080125D01*
X134000000Y-115099728D01*
X134000000Y-115649728D01*
X133999037Y-115669331D01*
X133996157Y-115688746D01*
X133991388Y-115707785D01*
X133984776Y-115726265D01*
X133976384Y-115744007D01*
X133966294Y-115760842D01*
X133954602Y-115776607D01*
X133941421Y-115791149D01*
X133926879Y-115804330D01*
X133911114Y-115816022D01*
X133894279Y-115826112D01*
X133876537Y-115834504D01*
X133858057Y-115841116D01*
X133839018Y-115845885D01*
X133819603Y-115848765D01*
X133800000Y-115849728D01*
X133400000Y-115849728D01*
X133380397Y-115848765D01*
X133360982Y-115845885D01*
X133341943Y-115841116D01*
X133323463Y-115834504D01*
X133305721Y-115826112D01*
X133288886Y-115816022D01*
X133273121Y-115804330D01*
X133258579Y-115791149D01*
X133245398Y-115776607D01*
X133233706Y-115760842D01*
X133223616Y-115744007D01*
X133215224Y-115726265D01*
X133208612Y-115707785D01*
X133203843Y-115688746D01*
X133200963Y-115669331D01*
X133200000Y-115649728D01*
X133200000Y-115099728D01*
X133200963Y-115080125D01*
X133203843Y-115060710D01*
X133208612Y-115041671D01*
X133215224Y-115023191D01*
X133223616Y-115005449D01*
X133233706Y-114988614D01*
X133245398Y-114972849D01*
X133258579Y-114958307D01*
X133273121Y-114945126D01*
X133288886Y-114933434D01*
X133305721Y-114923344D01*
X133323463Y-114914952D01*
X133341943Y-114908340D01*
X133360982Y-114903571D01*
X133380397Y-114900691D01*
X133400000Y-114899728D01*
X133800000Y-114899728D01*
X133819603Y-114900691D01*
G37*
G36*
X134303121Y-124300692D02*
G01*
X134322536Y-124303572D01*
X134341575Y-124308341D01*
X134360055Y-124314953D01*
X134377797Y-124323345D01*
X134394632Y-124333435D01*
X134410397Y-124345127D01*
X134424939Y-124358308D01*
X134438120Y-124372850D01*
X134449812Y-124388615D01*
X134459902Y-124405450D01*
X134468294Y-124423192D01*
X134474906Y-124441672D01*
X134479675Y-124460711D01*
X134482555Y-124480126D01*
X134483518Y-124499729D01*
X134483518Y-125049729D01*
X134482555Y-125069332D01*
X134479675Y-125088747D01*
X134474906Y-125107786D01*
X134468294Y-125126266D01*
X134459902Y-125144008D01*
X134449812Y-125160843D01*
X134438120Y-125176608D01*
X134424939Y-125191150D01*
X134410397Y-125204331D01*
X134394632Y-125216023D01*
X134377797Y-125226113D01*
X134360055Y-125234505D01*
X134341575Y-125241117D01*
X134322536Y-125245886D01*
X134303121Y-125248766D01*
X134283518Y-125249729D01*
X133883518Y-125249729D01*
X133863915Y-125248766D01*
X133844500Y-125245886D01*
X133825461Y-125241117D01*
X133806981Y-125234505D01*
X133789239Y-125226113D01*
X133772404Y-125216023D01*
X133756639Y-125204331D01*
X133742097Y-125191150D01*
X133728916Y-125176608D01*
X133717224Y-125160843D01*
X133707134Y-125144008D01*
X133698742Y-125126266D01*
X133692130Y-125107786D01*
X133687361Y-125088747D01*
X133684481Y-125069332D01*
X133683518Y-125049729D01*
X133683518Y-124499729D01*
X133684481Y-124480126D01*
X133687361Y-124460711D01*
X133692130Y-124441672D01*
X133698742Y-124423192D01*
X133707134Y-124405450D01*
X133717224Y-124388615D01*
X133728916Y-124372850D01*
X133742097Y-124358308D01*
X133756639Y-124345127D01*
X133772404Y-124333435D01*
X133789239Y-124323345D01*
X133806981Y-124314953D01*
X133825461Y-124308341D01*
X133844500Y-124303572D01*
X133863915Y-124300692D01*
X133883518Y-124299729D01*
X134283518Y-124299729D01*
X134303121Y-124300692D01*
G37*
G36*
X132653121Y-124300692D02*
G01*
X132672536Y-124303572D01*
X132691575Y-124308341D01*
X132710055Y-124314953D01*
X132727797Y-124323345D01*
X132744632Y-124333435D01*
X132760397Y-124345127D01*
X132774939Y-124358308D01*
X132788120Y-124372850D01*
X132799812Y-124388615D01*
X132809902Y-124405450D01*
X132818294Y-124423192D01*
X132824906Y-124441672D01*
X132829675Y-124460711D01*
X132832555Y-124480126D01*
X132833518Y-124499729D01*
X132833518Y-125049729D01*
X132832555Y-125069332D01*
X132829675Y-125088747D01*
X132824906Y-125107786D01*
X132818294Y-125126266D01*
X132809902Y-125144008D01*
X132799812Y-125160843D01*
X132788120Y-125176608D01*
X132774939Y-125191150D01*
X132760397Y-125204331D01*
X132744632Y-125216023D01*
X132727797Y-125226113D01*
X132710055Y-125234505D01*
X132691575Y-125241117D01*
X132672536Y-125245886D01*
X132653121Y-125248766D01*
X132633518Y-125249729D01*
X132233518Y-125249729D01*
X132213915Y-125248766D01*
X132194500Y-125245886D01*
X132175461Y-125241117D01*
X132156981Y-125234505D01*
X132139239Y-125226113D01*
X132122404Y-125216023D01*
X132106639Y-125204331D01*
X132092097Y-125191150D01*
X132078916Y-125176608D01*
X132067224Y-125160843D01*
X132057134Y-125144008D01*
X132048742Y-125126266D01*
X132042130Y-125107786D01*
X132037361Y-125088747D01*
X132034481Y-125069332D01*
X132033518Y-125049729D01*
X132033518Y-124499729D01*
X132034481Y-124480126D01*
X132037361Y-124460711D01*
X132042130Y-124441672D01*
X132048742Y-124423192D01*
X132057134Y-124405450D01*
X132067224Y-124388615D01*
X132078916Y-124372850D01*
X132092097Y-124358308D01*
X132106639Y-124345127D01*
X132122404Y-124333435D01*
X132139239Y-124323345D01*
X132156981Y-124314953D01*
X132175461Y-124308341D01*
X132194500Y-124303572D01*
X132213915Y-124300692D01*
X132233518Y-124299729D01*
X132633518Y-124299729D01*
X132653121Y-124300692D01*
G37*
G36*
X132222054Y-111876083D02*
G01*
X132243895Y-111879323D01*
X132265314Y-111884688D01*
X132286104Y-111892127D01*
X132306064Y-111901568D01*
X132325003Y-111912919D01*
X132342738Y-111926073D01*
X132359099Y-111940901D01*
X132373927Y-111957262D01*
X132387081Y-111974997D01*
X132398432Y-111993936D01*
X132407873Y-112013896D01*
X132415312Y-112034686D01*
X132420677Y-112056105D01*
X132423917Y-112077946D01*
X132425000Y-112100000D01*
X132425000Y-112550000D01*
X132423917Y-112572054D01*
X132420677Y-112593895D01*
X132415312Y-112615314D01*
X132407873Y-112636104D01*
X132398432Y-112656064D01*
X132387081Y-112675003D01*
X132373927Y-112692738D01*
X132359099Y-112709099D01*
X132342738Y-112723927D01*
X132325003Y-112737081D01*
X132306064Y-112748432D01*
X132286104Y-112757873D01*
X132265314Y-112765312D01*
X132243895Y-112770677D01*
X132222054Y-112773917D01*
X132200000Y-112775000D01*
X131700000Y-112775000D01*
X131677946Y-112773917D01*
X131656105Y-112770677D01*
X131634686Y-112765312D01*
X131613896Y-112757873D01*
X131593936Y-112748432D01*
X131574997Y-112737081D01*
X131557262Y-112723927D01*
X131540901Y-112709099D01*
X131526073Y-112692738D01*
X131512919Y-112675003D01*
X131501568Y-112656064D01*
X131492127Y-112636104D01*
X131484688Y-112615314D01*
X131479323Y-112593895D01*
X131476083Y-112572054D01*
X131475000Y-112550000D01*
X131475000Y-112100000D01*
X131476083Y-112077946D01*
X131479323Y-112056105D01*
X131484688Y-112034686D01*
X131492127Y-112013896D01*
X131501568Y-111993936D01*
X131512919Y-111974997D01*
X131526073Y-111957262D01*
X131540901Y-111940901D01*
X131557262Y-111926073D01*
X131574997Y-111912919D01*
X131593936Y-111901568D01*
X131613896Y-111892127D01*
X131634686Y-111884688D01*
X131656105Y-111879323D01*
X131677946Y-111876083D01*
X131700000Y-111875000D01*
X132200000Y-111875000D01*
X132222054Y-111876083D01*
G37*
G36*
X132222054Y-113426083D02*
G01*
X132243895Y-113429323D01*
X132265314Y-113434688D01*
X132286104Y-113442127D01*
X132306064Y-113451568D01*
X132325003Y-113462919D01*
X132342738Y-113476073D01*
X132359099Y-113490901D01*
X132373927Y-113507262D01*
X132387081Y-113524997D01*
X132398432Y-113543936D01*
X132407873Y-113563896D01*
X132415312Y-113584686D01*
X132420677Y-113606105D01*
X132423917Y-113627946D01*
X132425000Y-113650000D01*
X132425000Y-114100000D01*
X132423917Y-114122054D01*
X132420677Y-114143895D01*
X132415312Y-114165314D01*
X132407873Y-114186104D01*
X132398432Y-114206064D01*
X132387081Y-114225003D01*
X132373927Y-114242738D01*
X132359099Y-114259099D01*
X132342738Y-114273927D01*
X132325003Y-114287081D01*
X132306064Y-114298432D01*
X132286104Y-114307873D01*
X132265314Y-114315312D01*
X132243895Y-114320677D01*
X132222054Y-114323917D01*
X132200000Y-114325000D01*
X131700000Y-114325000D01*
X131677946Y-114323917D01*
X131656105Y-114320677D01*
X131634686Y-114315312D01*
X131613896Y-114307873D01*
X131593936Y-114298432D01*
X131574997Y-114287081D01*
X131557262Y-114273927D01*
X131540901Y-114259099D01*
X131526073Y-114242738D01*
X131512919Y-114225003D01*
X131501568Y-114206064D01*
X131492127Y-114186104D01*
X131484688Y-114165314D01*
X131479323Y-114143895D01*
X131476083Y-114122054D01*
X131475000Y-114100000D01*
X131475000Y-113650000D01*
X131476083Y-113627946D01*
X131479323Y-113606105D01*
X131484688Y-113584686D01*
X131492127Y-113563896D01*
X131501568Y-113543936D01*
X131512919Y-113524997D01*
X131526073Y-113507262D01*
X131540901Y-113490901D01*
X131557262Y-113476073D01*
X131574997Y-113462919D01*
X131593936Y-113451568D01*
X131613896Y-113442127D01*
X131634686Y-113434688D01*
X131656105Y-113429323D01*
X131677946Y-113426083D01*
X131700000Y-113425000D01*
X132200000Y-113425000D01*
X132222054Y-113426083D01*
G37*
G36*
X137130572Y-118925811D02*
G01*
X137152413Y-118929051D01*
X137173832Y-118934416D01*
X137194622Y-118941855D01*
X137214582Y-118951296D01*
X137233521Y-118962647D01*
X137251256Y-118975801D01*
X137267617Y-118990629D01*
X137282445Y-119006990D01*
X137295599Y-119024725D01*
X137306950Y-119043664D01*
X137316391Y-119063624D01*
X137323830Y-119084414D01*
X137329195Y-119105833D01*
X137332435Y-119127674D01*
X137333518Y-119149728D01*
X137333518Y-119599728D01*
X137332435Y-119621782D01*
X137329195Y-119643623D01*
X137323830Y-119665042D01*
X137316391Y-119685832D01*
X137306950Y-119705792D01*
X137295599Y-119724731D01*
X137282445Y-119742466D01*
X137267617Y-119758827D01*
X137251256Y-119773655D01*
X137233521Y-119786809D01*
X137214582Y-119798160D01*
X137194622Y-119807601D01*
X137173832Y-119815040D01*
X137152413Y-119820405D01*
X137130572Y-119823645D01*
X137108518Y-119824728D01*
X136608518Y-119824728D01*
X136586464Y-119823645D01*
X136564623Y-119820405D01*
X136543204Y-119815040D01*
X136522414Y-119807601D01*
X136502454Y-119798160D01*
X136483515Y-119786809D01*
X136465780Y-119773655D01*
X136449419Y-119758827D01*
X136434591Y-119742466D01*
X136421437Y-119724731D01*
X136410086Y-119705792D01*
X136400645Y-119685832D01*
X136393206Y-119665042D01*
X136387841Y-119643623D01*
X136384601Y-119621782D01*
X136383518Y-119599728D01*
X136383518Y-119149728D01*
X136384601Y-119127674D01*
X136387841Y-119105833D01*
X136393206Y-119084414D01*
X136400645Y-119063624D01*
X136410086Y-119043664D01*
X136421437Y-119024725D01*
X136434591Y-119006990D01*
X136449419Y-118990629D01*
X136465780Y-118975801D01*
X136483515Y-118962647D01*
X136502454Y-118951296D01*
X136522414Y-118941855D01*
X136543204Y-118934416D01*
X136564623Y-118929051D01*
X136586464Y-118925811D01*
X136608518Y-118924728D01*
X137108518Y-118924728D01*
X137130572Y-118925811D01*
G37*
G36*
X137130572Y-120475811D02*
G01*
X137152413Y-120479051D01*
X137173832Y-120484416D01*
X137194622Y-120491855D01*
X137214582Y-120501296D01*
X137233521Y-120512647D01*
X137251256Y-120525801D01*
X137267617Y-120540629D01*
X137282445Y-120556990D01*
X137295599Y-120574725D01*
X137306950Y-120593664D01*
X137316391Y-120613624D01*
X137323830Y-120634414D01*
X137329195Y-120655833D01*
X137332435Y-120677674D01*
X137333518Y-120699728D01*
X137333518Y-121149728D01*
X137332435Y-121171782D01*
X137329195Y-121193623D01*
X137323830Y-121215042D01*
X137316391Y-121235832D01*
X137306950Y-121255792D01*
X137295599Y-121274731D01*
X137282445Y-121292466D01*
X137267617Y-121308827D01*
X137251256Y-121323655D01*
X137233521Y-121336809D01*
X137214582Y-121348160D01*
X137194622Y-121357601D01*
X137173832Y-121365040D01*
X137152413Y-121370405D01*
X137130572Y-121373645D01*
X137108518Y-121374728D01*
X136608518Y-121374728D01*
X136586464Y-121373645D01*
X136564623Y-121370405D01*
X136543204Y-121365040D01*
X136522414Y-121357601D01*
X136502454Y-121348160D01*
X136483515Y-121336809D01*
X136465780Y-121323655D01*
X136449419Y-121308827D01*
X136434591Y-121292466D01*
X136421437Y-121274731D01*
X136410086Y-121255792D01*
X136400645Y-121235832D01*
X136393206Y-121215042D01*
X136387841Y-121193623D01*
X136384601Y-121171782D01*
X136383518Y-121149728D01*
X136383518Y-120699728D01*
X136384601Y-120677674D01*
X136387841Y-120655833D01*
X136393206Y-120634414D01*
X136400645Y-120613624D01*
X136410086Y-120593664D01*
X136421437Y-120574725D01*
X136434591Y-120556990D01*
X136449419Y-120540629D01*
X136465780Y-120525801D01*
X136483515Y-120512647D01*
X136502454Y-120501296D01*
X136522414Y-120491855D01*
X136543204Y-120484416D01*
X136564623Y-120479051D01*
X136586464Y-120475811D01*
X136608518Y-120474728D01*
X137108518Y-120474728D01*
X137130572Y-120475811D01*
G37*
G36*
X132722054Y-127401083D02*
G01*
X132743895Y-127404323D01*
X132765314Y-127409688D01*
X132786104Y-127417127D01*
X132806064Y-127426568D01*
X132825003Y-127437919D01*
X132842738Y-127451073D01*
X132859099Y-127465901D01*
X132873927Y-127482262D01*
X132887081Y-127499997D01*
X132898432Y-127518936D01*
X132907873Y-127538896D01*
X132915312Y-127559686D01*
X132920677Y-127581105D01*
X132923917Y-127602946D01*
X132925000Y-127625000D01*
X132925000Y-128075000D01*
X132923917Y-128097054D01*
X132920677Y-128118895D01*
X132915312Y-128140314D01*
X132907873Y-128161104D01*
X132898432Y-128181064D01*
X132887081Y-128200003D01*
X132873927Y-128217738D01*
X132859099Y-128234099D01*
X132842738Y-128248927D01*
X132825003Y-128262081D01*
X132806064Y-128273432D01*
X132786104Y-128282873D01*
X132765314Y-128290312D01*
X132743895Y-128295677D01*
X132722054Y-128298917D01*
X132700000Y-128300000D01*
X132200000Y-128300000D01*
X132177946Y-128298917D01*
X132156105Y-128295677D01*
X132134686Y-128290312D01*
X132113896Y-128282873D01*
X132093936Y-128273432D01*
X132074997Y-128262081D01*
X132057262Y-128248927D01*
X132040901Y-128234099D01*
X132026073Y-128217738D01*
X132012919Y-128200003D01*
X132001568Y-128181064D01*
X131992127Y-128161104D01*
X131984688Y-128140314D01*
X131979323Y-128118895D01*
X131976083Y-128097054D01*
X131975000Y-128075000D01*
X131975000Y-127625000D01*
X131976083Y-127602946D01*
X131979323Y-127581105D01*
X131984688Y-127559686D01*
X131992127Y-127538896D01*
X132001568Y-127518936D01*
X132012919Y-127499997D01*
X132026073Y-127482262D01*
X132040901Y-127465901D01*
X132057262Y-127451073D01*
X132074997Y-127437919D01*
X132093936Y-127426568D01*
X132113896Y-127417127D01*
X132134686Y-127409688D01*
X132156105Y-127404323D01*
X132177946Y-127401083D01*
X132200000Y-127400000D01*
X132700000Y-127400000D01*
X132722054Y-127401083D01*
G37*
G36*
X132722054Y-125851083D02*
G01*
X132743895Y-125854323D01*
X132765314Y-125859688D01*
X132786104Y-125867127D01*
X132806064Y-125876568D01*
X132825003Y-125887919D01*
X132842738Y-125901073D01*
X132859099Y-125915901D01*
X132873927Y-125932262D01*
X132887081Y-125949997D01*
X132898432Y-125968936D01*
X132907873Y-125988896D01*
X132915312Y-126009686D01*
X132920677Y-126031105D01*
X132923917Y-126052946D01*
X132925000Y-126075000D01*
X132925000Y-126525000D01*
X132923917Y-126547054D01*
X132920677Y-126568895D01*
X132915312Y-126590314D01*
X132907873Y-126611104D01*
X132898432Y-126631064D01*
X132887081Y-126650003D01*
X132873927Y-126667738D01*
X132859099Y-126684099D01*
X132842738Y-126698927D01*
X132825003Y-126712081D01*
X132806064Y-126723432D01*
X132786104Y-126732873D01*
X132765314Y-126740312D01*
X132743895Y-126745677D01*
X132722054Y-126748917D01*
X132700000Y-126750000D01*
X132200000Y-126750000D01*
X132177946Y-126748917D01*
X132156105Y-126745677D01*
X132134686Y-126740312D01*
X132113896Y-126732873D01*
X132093936Y-126723432D01*
X132074997Y-126712081D01*
X132057262Y-126698927D01*
X132040901Y-126684099D01*
X132026073Y-126667738D01*
X132012919Y-126650003D01*
X132001568Y-126631064D01*
X131992127Y-126611104D01*
X131984688Y-126590314D01*
X131979323Y-126568895D01*
X131976083Y-126547054D01*
X131975000Y-126525000D01*
X131975000Y-126075000D01*
X131976083Y-126052946D01*
X131979323Y-126031105D01*
X131984688Y-126009686D01*
X131992127Y-125988896D01*
X132001568Y-125968936D01*
X132012919Y-125949997D01*
X132026073Y-125932262D01*
X132040901Y-125915901D01*
X132057262Y-125901073D01*
X132074997Y-125887919D01*
X132093936Y-125876568D01*
X132113896Y-125867127D01*
X132134686Y-125859688D01*
X132156105Y-125854323D01*
X132177946Y-125851083D01*
X132200000Y-125850000D01*
X132700000Y-125850000D01*
X132722054Y-125851083D01*
G37*
D14*
X109970000Y-116770000D03*
X109970000Y-114230000D03*
X112630000Y-134030000D03*
X112630000Y-136570000D03*
X137978518Y-123304728D03*
X137978518Y-125844728D03*
X112630000Y-128030000D03*
X112630000Y-130570000D03*
D13*
G36*
X113849511Y-121649930D02*
G01*
X113849511Y-120149930D01*
X114599511Y-120149930D01*
X114599511Y-118649930D01*
X116099511Y-118649930D01*
X116099511Y-120149930D01*
X116849511Y-120149930D01*
X116849511Y-121649930D01*
X113849511Y-121649930D01*
G37*
G36*
X116099511Y-124650070D02*
G01*
X116099511Y-126150070D01*
X114599511Y-126150070D01*
X114599511Y-124650070D01*
X113849511Y-124650070D01*
X113849511Y-123150070D01*
X116849511Y-123150070D01*
X116849511Y-124650070D01*
X116099511Y-124650070D01*
G37*
D15*
X123488803Y-92935813D03*
X120948803Y-92935813D03*
X123488803Y-90395813D03*
X120948803Y-90395813D03*
D16*
X123500000Y-107400000D03*
X120950000Y-107400000D03*
D17*
X114083120Y-91082180D03*
X114083120Y-93622180D03*
X114083120Y-96162180D03*
X114083120Y-98702180D03*
X114083120Y-101242180D03*
X114083120Y-103782180D03*
X114083120Y-106322180D03*
X130247680Y-106322180D03*
X130247680Y-103782180D03*
X130247680Y-101242180D03*
X130247680Y-98702180D03*
X130247680Y-96162180D03*
X130247680Y-93622180D03*
X130247680Y-91082180D03*
D18*
X112350000Y-121400000D03*
X109050000Y-121400000D03*
D13*
G36*
X139994603Y-112800963D02*
G01*
X140014018Y-112803843D01*
X140033057Y-112808612D01*
X140051537Y-112815224D01*
X140069279Y-112823616D01*
X140086114Y-112833706D01*
X140101879Y-112845398D01*
X140116421Y-112858579D01*
X140129602Y-112873121D01*
X140141294Y-112888886D01*
X140151384Y-112905721D01*
X140159776Y-112923463D01*
X140166388Y-112941943D01*
X140171157Y-112960982D01*
X140174037Y-112980397D01*
X140175000Y-113000000D01*
X140175000Y-114200000D01*
X140174037Y-114219603D01*
X140171157Y-114239018D01*
X140166388Y-114258057D01*
X140159776Y-114276537D01*
X140151384Y-114294279D01*
X140141294Y-114311114D01*
X140129602Y-114326879D01*
X140116421Y-114341421D01*
X140101879Y-114354602D01*
X140086114Y-114366294D01*
X140069279Y-114376384D01*
X140051537Y-114384776D01*
X140033057Y-114391388D01*
X140014018Y-114396157D01*
X139994603Y-114399037D01*
X139975000Y-114400000D01*
X139575000Y-114400000D01*
X139555397Y-114399037D01*
X139535982Y-114396157D01*
X139516943Y-114391388D01*
X139498463Y-114384776D01*
X139480721Y-114376384D01*
X139463886Y-114366294D01*
X139448121Y-114354602D01*
X139433579Y-114341421D01*
X139420398Y-114326879D01*
X139408706Y-114311114D01*
X139398616Y-114294279D01*
X139390224Y-114276537D01*
X139383612Y-114258057D01*
X139378843Y-114239018D01*
X139375963Y-114219603D01*
X139375000Y-114200000D01*
X139375000Y-113000000D01*
X139375963Y-112980397D01*
X139378843Y-112960982D01*
X139383612Y-112941943D01*
X139390224Y-112923463D01*
X139398616Y-112905721D01*
X139408706Y-112888886D01*
X139420398Y-112873121D01*
X139433579Y-112858579D01*
X139448121Y-112845398D01*
X139463886Y-112833706D01*
X139480721Y-112823616D01*
X139498463Y-112815224D01*
X139516943Y-112808612D01*
X139535982Y-112803843D01*
X139555397Y-112800963D01*
X139575000Y-112800000D01*
X139975000Y-112800000D01*
X139994603Y-112800963D01*
G37*
G36*
X138744603Y-112800963D02*
G01*
X138764018Y-112803843D01*
X138783057Y-112808612D01*
X138801537Y-112815224D01*
X138819279Y-112823616D01*
X138836114Y-112833706D01*
X138851879Y-112845398D01*
X138866421Y-112858579D01*
X138879602Y-112873121D01*
X138891294Y-112888886D01*
X138901384Y-112905721D01*
X138909776Y-112923463D01*
X138916388Y-112941943D01*
X138921157Y-112960982D01*
X138924037Y-112980397D01*
X138925000Y-113000000D01*
X138925000Y-114200000D01*
X138924037Y-114219603D01*
X138921157Y-114239018D01*
X138916388Y-114258057D01*
X138909776Y-114276537D01*
X138901384Y-114294279D01*
X138891294Y-114311114D01*
X138879602Y-114326879D01*
X138866421Y-114341421D01*
X138851879Y-114354602D01*
X138836114Y-114366294D01*
X138819279Y-114376384D01*
X138801537Y-114384776D01*
X138783057Y-114391388D01*
X138764018Y-114396157D01*
X138744603Y-114399037D01*
X138725000Y-114400000D01*
X138325000Y-114400000D01*
X138305397Y-114399037D01*
X138285982Y-114396157D01*
X138266943Y-114391388D01*
X138248463Y-114384776D01*
X138230721Y-114376384D01*
X138213886Y-114366294D01*
X138198121Y-114354602D01*
X138183579Y-114341421D01*
X138170398Y-114326879D01*
X138158706Y-114311114D01*
X138148616Y-114294279D01*
X138140224Y-114276537D01*
X138133612Y-114258057D01*
X138128843Y-114239018D01*
X138125963Y-114219603D01*
X138125000Y-114200000D01*
X138125000Y-113000000D01*
X138125963Y-112980397D01*
X138128843Y-112960982D01*
X138133612Y-112941943D01*
X138140224Y-112923463D01*
X138148616Y-112905721D01*
X138158706Y-112888886D01*
X138170398Y-112873121D01*
X138183579Y-112858579D01*
X138198121Y-112845398D01*
X138213886Y-112833706D01*
X138230721Y-112823616D01*
X138248463Y-112815224D01*
X138266943Y-112808612D01*
X138285982Y-112803843D01*
X138305397Y-112800963D01*
X138325000Y-112800000D01*
X138725000Y-112800000D01*
X138744603Y-112800963D01*
G37*
G36*
X143149504Y-109201204D02*
G01*
X143173773Y-109204804D01*
X143197571Y-109210765D01*
X143220671Y-109219030D01*
X143242849Y-109229520D01*
X143263893Y-109242133D01*
X143283598Y-109256747D01*
X143301777Y-109273223D01*
X143318253Y-109291402D01*
X143332867Y-109311107D01*
X143345480Y-109332151D01*
X143355970Y-109354329D01*
X143364235Y-109377429D01*
X143370196Y-109401227D01*
X143373796Y-109425496D01*
X143375000Y-109450000D01*
X143375000Y-111950000D01*
X143373796Y-111974504D01*
X143370196Y-111998773D01*
X143364235Y-112022571D01*
X143355970Y-112045671D01*
X143345480Y-112067849D01*
X143332867Y-112088893D01*
X143318253Y-112108598D01*
X143301777Y-112126777D01*
X143283598Y-112143253D01*
X143263893Y-112157867D01*
X143242849Y-112170480D01*
X143220671Y-112180970D01*
X143197571Y-112189235D01*
X143173773Y-112195196D01*
X143149504Y-112198796D01*
X143125000Y-112200000D01*
X141525000Y-112200000D01*
X141500496Y-112198796D01*
X141476227Y-112195196D01*
X141452429Y-112189235D01*
X141429329Y-112180970D01*
X141407151Y-112170480D01*
X141386107Y-112157867D01*
X141366402Y-112143253D01*
X141348223Y-112126777D01*
X141331747Y-112108598D01*
X141317133Y-112088893D01*
X141304520Y-112067849D01*
X141294030Y-112045671D01*
X141285765Y-112022571D01*
X141279804Y-111998773D01*
X141276204Y-111974504D01*
X141275000Y-111950000D01*
X141275000Y-109450000D01*
X141276204Y-109425496D01*
X141279804Y-109401227D01*
X141285765Y-109377429D01*
X141294030Y-109354329D01*
X141304520Y-109332151D01*
X141317133Y-109311107D01*
X141331747Y-109291402D01*
X141348223Y-109273223D01*
X141366402Y-109256747D01*
X141386107Y-109242133D01*
X141407151Y-109229520D01*
X141429329Y-109219030D01*
X141452429Y-109210765D01*
X141476227Y-109204804D01*
X141500496Y-109201204D01*
X141525000Y-109200000D01*
X143125000Y-109200000D01*
X143149504Y-109201204D01*
G37*
G36*
X136799504Y-109201204D02*
G01*
X136823773Y-109204804D01*
X136847571Y-109210765D01*
X136870671Y-109219030D01*
X136892849Y-109229520D01*
X136913893Y-109242133D01*
X136933598Y-109256747D01*
X136951777Y-109273223D01*
X136968253Y-109291402D01*
X136982867Y-109311107D01*
X136995480Y-109332151D01*
X137005970Y-109354329D01*
X137014235Y-109377429D01*
X137020196Y-109401227D01*
X137023796Y-109425496D01*
X137025000Y-109450000D01*
X137025000Y-111950000D01*
X137023796Y-111974504D01*
X137020196Y-111998773D01*
X137014235Y-112022571D01*
X137005970Y-112045671D01*
X136995480Y-112067849D01*
X136982867Y-112088893D01*
X136968253Y-112108598D01*
X136951777Y-112126777D01*
X136933598Y-112143253D01*
X136913893Y-112157867D01*
X136892849Y-112170480D01*
X136870671Y-112180970D01*
X136847571Y-112189235D01*
X136823773Y-112195196D01*
X136799504Y-112198796D01*
X136775000Y-112200000D01*
X135175000Y-112200000D01*
X135150496Y-112198796D01*
X135126227Y-112195196D01*
X135102429Y-112189235D01*
X135079329Y-112180970D01*
X135057151Y-112170480D01*
X135036107Y-112157867D01*
X135016402Y-112143253D01*
X134998223Y-112126777D01*
X134981747Y-112108598D01*
X134967133Y-112088893D01*
X134954520Y-112067849D01*
X134944030Y-112045671D01*
X134935765Y-112022571D01*
X134929804Y-111998773D01*
X134926204Y-111974504D01*
X134925000Y-111950000D01*
X134925000Y-109450000D01*
X134926204Y-109425496D01*
X134929804Y-109401227D01*
X134935765Y-109377429D01*
X134944030Y-109354329D01*
X134954520Y-109332151D01*
X134967133Y-109311107D01*
X134981747Y-109291402D01*
X134998223Y-109273223D01*
X135016402Y-109256747D01*
X135036107Y-109242133D01*
X135057151Y-109229520D01*
X135079329Y-109219030D01*
X135102429Y-109210765D01*
X135126227Y-109204804D01*
X135150496Y-109201204D01*
X135175000Y-109200000D01*
X136775000Y-109200000D01*
X136799504Y-109201204D01*
G37*
G36*
X97619603Y-106200963D02*
G01*
X97639018Y-106203843D01*
X97658057Y-106208612D01*
X97676537Y-106215224D01*
X97694279Y-106223616D01*
X97711114Y-106233706D01*
X97726879Y-106245398D01*
X97741421Y-106258579D01*
X97754602Y-106273121D01*
X97766294Y-106288886D01*
X97776384Y-106305721D01*
X97784776Y-106323463D01*
X97791388Y-106341943D01*
X97796157Y-106360982D01*
X97799037Y-106380397D01*
X97800000Y-106400000D01*
X97800000Y-107600000D01*
X97799037Y-107619603D01*
X97796157Y-107639018D01*
X97791388Y-107658057D01*
X97784776Y-107676537D01*
X97776384Y-107694279D01*
X97766294Y-107711114D01*
X97754602Y-107726879D01*
X97741421Y-107741421D01*
X97726879Y-107754602D01*
X97711114Y-107766294D01*
X97694279Y-107776384D01*
X97676537Y-107784776D01*
X97658057Y-107791388D01*
X97639018Y-107796157D01*
X97619603Y-107799037D01*
X97600000Y-107800000D01*
X97200000Y-107800000D01*
X97180397Y-107799037D01*
X97160982Y-107796157D01*
X97141943Y-107791388D01*
X97123463Y-107784776D01*
X97105721Y-107776384D01*
X97088886Y-107766294D01*
X97073121Y-107754602D01*
X97058579Y-107741421D01*
X97045398Y-107726879D01*
X97033706Y-107711114D01*
X97023616Y-107694279D01*
X97015224Y-107676537D01*
X97008612Y-107658057D01*
X97003843Y-107639018D01*
X97000963Y-107619603D01*
X97000000Y-107600000D01*
X97000000Y-106400000D01*
X97000963Y-106380397D01*
X97003843Y-106360982D01*
X97008612Y-106341943D01*
X97015224Y-106323463D01*
X97023616Y-106305721D01*
X97033706Y-106288886D01*
X97045398Y-106273121D01*
X97058579Y-106258579D01*
X97073121Y-106245398D01*
X97088886Y-106233706D01*
X97105721Y-106223616D01*
X97123463Y-106215224D01*
X97141943Y-106208612D01*
X97160982Y-106203843D01*
X97180397Y-106200963D01*
X97200000Y-106200000D01*
X97600000Y-106200000D01*
X97619603Y-106200963D01*
G37*
G36*
X98869603Y-106200963D02*
G01*
X98889018Y-106203843D01*
X98908057Y-106208612D01*
X98926537Y-106215224D01*
X98944279Y-106223616D01*
X98961114Y-106233706D01*
X98976879Y-106245398D01*
X98991421Y-106258579D01*
X99004602Y-106273121D01*
X99016294Y-106288886D01*
X99026384Y-106305721D01*
X99034776Y-106323463D01*
X99041388Y-106341943D01*
X99046157Y-106360982D01*
X99049037Y-106380397D01*
X99050000Y-106400000D01*
X99050000Y-107600000D01*
X99049037Y-107619603D01*
X99046157Y-107639018D01*
X99041388Y-107658057D01*
X99034776Y-107676537D01*
X99026384Y-107694279D01*
X99016294Y-107711114D01*
X99004602Y-107726879D01*
X98991421Y-107741421D01*
X98976879Y-107754602D01*
X98961114Y-107766294D01*
X98944279Y-107776384D01*
X98926537Y-107784776D01*
X98908057Y-107791388D01*
X98889018Y-107796157D01*
X98869603Y-107799037D01*
X98850000Y-107800000D01*
X98450000Y-107800000D01*
X98430397Y-107799037D01*
X98410982Y-107796157D01*
X98391943Y-107791388D01*
X98373463Y-107784776D01*
X98355721Y-107776384D01*
X98338886Y-107766294D01*
X98323121Y-107754602D01*
X98308579Y-107741421D01*
X98295398Y-107726879D01*
X98283706Y-107711114D01*
X98273616Y-107694279D01*
X98265224Y-107676537D01*
X98258612Y-107658057D01*
X98253843Y-107639018D01*
X98250963Y-107619603D01*
X98250000Y-107600000D01*
X98250000Y-106400000D01*
X98250963Y-106380397D01*
X98253843Y-106360982D01*
X98258612Y-106341943D01*
X98265224Y-106323463D01*
X98273616Y-106305721D01*
X98283706Y-106288886D01*
X98295398Y-106273121D01*
X98308579Y-106258579D01*
X98323121Y-106245398D01*
X98338886Y-106233706D01*
X98355721Y-106223616D01*
X98373463Y-106215224D01*
X98391943Y-106208612D01*
X98410982Y-106203843D01*
X98430397Y-106200963D01*
X98450000Y-106200000D01*
X98850000Y-106200000D01*
X98869603Y-106200963D01*
G37*
G36*
X100119603Y-106200963D02*
G01*
X100139018Y-106203843D01*
X100158057Y-106208612D01*
X100176537Y-106215224D01*
X100194279Y-106223616D01*
X100211114Y-106233706D01*
X100226879Y-106245398D01*
X100241421Y-106258579D01*
X100254602Y-106273121D01*
X100266294Y-106288886D01*
X100276384Y-106305721D01*
X100284776Y-106323463D01*
X100291388Y-106341943D01*
X100296157Y-106360982D01*
X100299037Y-106380397D01*
X100300000Y-106400000D01*
X100300000Y-107600000D01*
X100299037Y-107619603D01*
X100296157Y-107639018D01*
X100291388Y-107658057D01*
X100284776Y-107676537D01*
X100276384Y-107694279D01*
X100266294Y-107711114D01*
X100254602Y-107726879D01*
X100241421Y-107741421D01*
X100226879Y-107754602D01*
X100211114Y-107766294D01*
X100194279Y-107776384D01*
X100176537Y-107784776D01*
X100158057Y-107791388D01*
X100139018Y-107796157D01*
X100119603Y-107799037D01*
X100100000Y-107800000D01*
X99700000Y-107800000D01*
X99680397Y-107799037D01*
X99660982Y-107796157D01*
X99641943Y-107791388D01*
X99623463Y-107784776D01*
X99605721Y-107776384D01*
X99588886Y-107766294D01*
X99573121Y-107754602D01*
X99558579Y-107741421D01*
X99545398Y-107726879D01*
X99533706Y-107711114D01*
X99523616Y-107694279D01*
X99515224Y-107676537D01*
X99508612Y-107658057D01*
X99503843Y-107639018D01*
X99500963Y-107619603D01*
X99500000Y-107600000D01*
X99500000Y-106400000D01*
X99500963Y-106380397D01*
X99503843Y-106360982D01*
X99508612Y-106341943D01*
X99515224Y-106323463D01*
X99523616Y-106305721D01*
X99533706Y-106288886D01*
X99545398Y-106273121D01*
X99558579Y-106258579D01*
X99573121Y-106245398D01*
X99588886Y-106233706D01*
X99605721Y-106223616D01*
X99623463Y-106215224D01*
X99641943Y-106208612D01*
X99660982Y-106203843D01*
X99680397Y-106200963D01*
X99700000Y-106200000D01*
X100100000Y-106200000D01*
X100119603Y-106200963D01*
G37*
G36*
X101369603Y-106200963D02*
G01*
X101389018Y-106203843D01*
X101408057Y-106208612D01*
X101426537Y-106215224D01*
X101444279Y-106223616D01*
X101461114Y-106233706D01*
X101476879Y-106245398D01*
X101491421Y-106258579D01*
X101504602Y-106273121D01*
X101516294Y-106288886D01*
X101526384Y-106305721D01*
X101534776Y-106323463D01*
X101541388Y-106341943D01*
X101546157Y-106360982D01*
X101549037Y-106380397D01*
X101550000Y-106400000D01*
X101550000Y-107600000D01*
X101549037Y-107619603D01*
X101546157Y-107639018D01*
X101541388Y-107658057D01*
X101534776Y-107676537D01*
X101526384Y-107694279D01*
X101516294Y-107711114D01*
X101504602Y-107726879D01*
X101491421Y-107741421D01*
X101476879Y-107754602D01*
X101461114Y-107766294D01*
X101444279Y-107776384D01*
X101426537Y-107784776D01*
X101408057Y-107791388D01*
X101389018Y-107796157D01*
X101369603Y-107799037D01*
X101350000Y-107800000D01*
X100950000Y-107800000D01*
X100930397Y-107799037D01*
X100910982Y-107796157D01*
X100891943Y-107791388D01*
X100873463Y-107784776D01*
X100855721Y-107776384D01*
X100838886Y-107766294D01*
X100823121Y-107754602D01*
X100808579Y-107741421D01*
X100795398Y-107726879D01*
X100783706Y-107711114D01*
X100773616Y-107694279D01*
X100765224Y-107676537D01*
X100758612Y-107658057D01*
X100753843Y-107639018D01*
X100750963Y-107619603D01*
X100750000Y-107600000D01*
X100750000Y-106400000D01*
X100750963Y-106380397D01*
X100753843Y-106360982D01*
X100758612Y-106341943D01*
X100765224Y-106323463D01*
X100773616Y-106305721D01*
X100783706Y-106288886D01*
X100795398Y-106273121D01*
X100808579Y-106258579D01*
X100823121Y-106245398D01*
X100838886Y-106233706D01*
X100855721Y-106223616D01*
X100873463Y-106215224D01*
X100891943Y-106208612D01*
X100910982Y-106203843D01*
X100930397Y-106200963D01*
X100950000Y-106200000D01*
X101350000Y-106200000D01*
X101369603Y-106200963D01*
G37*
G36*
X102619603Y-106200963D02*
G01*
X102639018Y-106203843D01*
X102658057Y-106208612D01*
X102676537Y-106215224D01*
X102694279Y-106223616D01*
X102711114Y-106233706D01*
X102726879Y-106245398D01*
X102741421Y-106258579D01*
X102754602Y-106273121D01*
X102766294Y-106288886D01*
X102776384Y-106305721D01*
X102784776Y-106323463D01*
X102791388Y-106341943D01*
X102796157Y-106360982D01*
X102799037Y-106380397D01*
X102800000Y-106400000D01*
X102800000Y-107600000D01*
X102799037Y-107619603D01*
X102796157Y-107639018D01*
X102791388Y-107658057D01*
X102784776Y-107676537D01*
X102776384Y-107694279D01*
X102766294Y-107711114D01*
X102754602Y-107726879D01*
X102741421Y-107741421D01*
X102726879Y-107754602D01*
X102711114Y-107766294D01*
X102694279Y-107776384D01*
X102676537Y-107784776D01*
X102658057Y-107791388D01*
X102639018Y-107796157D01*
X102619603Y-107799037D01*
X102600000Y-107800000D01*
X102200000Y-107800000D01*
X102180397Y-107799037D01*
X102160982Y-107796157D01*
X102141943Y-107791388D01*
X102123463Y-107784776D01*
X102105721Y-107776384D01*
X102088886Y-107766294D01*
X102073121Y-107754602D01*
X102058579Y-107741421D01*
X102045398Y-107726879D01*
X102033706Y-107711114D01*
X102023616Y-107694279D01*
X102015224Y-107676537D01*
X102008612Y-107658057D01*
X102003843Y-107639018D01*
X102000963Y-107619603D01*
X102000000Y-107600000D01*
X102000000Y-106400000D01*
X102000963Y-106380397D01*
X102003843Y-106360982D01*
X102008612Y-106341943D01*
X102015224Y-106323463D01*
X102023616Y-106305721D01*
X102033706Y-106288886D01*
X102045398Y-106273121D01*
X102058579Y-106258579D01*
X102073121Y-106245398D01*
X102088886Y-106233706D01*
X102105721Y-106223616D01*
X102123463Y-106215224D01*
X102141943Y-106208612D01*
X102160982Y-106203843D01*
X102180397Y-106200963D01*
X102200000Y-106200000D01*
X102600000Y-106200000D01*
X102619603Y-106200963D01*
G37*
G36*
X95674504Y-108401204D02*
G01*
X95698773Y-108404804D01*
X95722571Y-108410765D01*
X95745671Y-108419030D01*
X95767849Y-108429520D01*
X95788893Y-108442133D01*
X95808598Y-108456747D01*
X95826777Y-108473223D01*
X95843253Y-108491402D01*
X95857867Y-108511107D01*
X95870480Y-108532151D01*
X95880970Y-108554329D01*
X95889235Y-108577429D01*
X95895196Y-108601227D01*
X95898796Y-108625496D01*
X95900000Y-108650000D01*
X95900000Y-111150000D01*
X95898796Y-111174504D01*
X95895196Y-111198773D01*
X95889235Y-111222571D01*
X95880970Y-111245671D01*
X95870480Y-111267849D01*
X95857867Y-111288893D01*
X95843253Y-111308598D01*
X95826777Y-111326777D01*
X95808598Y-111343253D01*
X95788893Y-111357867D01*
X95767849Y-111370480D01*
X95745671Y-111380970D01*
X95722571Y-111389235D01*
X95698773Y-111395196D01*
X95674504Y-111398796D01*
X95650000Y-111400000D01*
X94050000Y-111400000D01*
X94025496Y-111398796D01*
X94001227Y-111395196D01*
X93977429Y-111389235D01*
X93954329Y-111380970D01*
X93932151Y-111370480D01*
X93911107Y-111357867D01*
X93891402Y-111343253D01*
X93873223Y-111326777D01*
X93856747Y-111308598D01*
X93842133Y-111288893D01*
X93829520Y-111267849D01*
X93819030Y-111245671D01*
X93810765Y-111222571D01*
X93804804Y-111198773D01*
X93801204Y-111174504D01*
X93800000Y-111150000D01*
X93800000Y-108650000D01*
X93801204Y-108625496D01*
X93804804Y-108601227D01*
X93810765Y-108577429D01*
X93819030Y-108554329D01*
X93829520Y-108532151D01*
X93842133Y-108511107D01*
X93856747Y-108491402D01*
X93873223Y-108473223D01*
X93891402Y-108456747D01*
X93911107Y-108442133D01*
X93932151Y-108429520D01*
X93954329Y-108419030D01*
X93977429Y-108410765D01*
X94001227Y-108404804D01*
X94025496Y-108401204D01*
X94050000Y-108400000D01*
X95650000Y-108400000D01*
X95674504Y-108401204D01*
G37*
G36*
X105774504Y-108401204D02*
G01*
X105798773Y-108404804D01*
X105822571Y-108410765D01*
X105845671Y-108419030D01*
X105867849Y-108429520D01*
X105888893Y-108442133D01*
X105908598Y-108456747D01*
X105926777Y-108473223D01*
X105943253Y-108491402D01*
X105957867Y-108511107D01*
X105970480Y-108532151D01*
X105980970Y-108554329D01*
X105989235Y-108577429D01*
X105995196Y-108601227D01*
X105998796Y-108625496D01*
X106000000Y-108650000D01*
X106000000Y-111150000D01*
X105998796Y-111174504D01*
X105995196Y-111198773D01*
X105989235Y-111222571D01*
X105980970Y-111245671D01*
X105970480Y-111267849D01*
X105957867Y-111288893D01*
X105943253Y-111308598D01*
X105926777Y-111326777D01*
X105908598Y-111343253D01*
X105888893Y-111357867D01*
X105867849Y-111370480D01*
X105845671Y-111380970D01*
X105822571Y-111389235D01*
X105798773Y-111395196D01*
X105774504Y-111398796D01*
X105750000Y-111400000D01*
X104150000Y-111400000D01*
X104125496Y-111398796D01*
X104101227Y-111395196D01*
X104077429Y-111389235D01*
X104054329Y-111380970D01*
X104032151Y-111370480D01*
X104011107Y-111357867D01*
X103991402Y-111343253D01*
X103973223Y-111326777D01*
X103956747Y-111308598D01*
X103942133Y-111288893D01*
X103929520Y-111267849D01*
X103919030Y-111245671D01*
X103910765Y-111222571D01*
X103904804Y-111198773D01*
X103901204Y-111174504D01*
X103900000Y-111150000D01*
X103900000Y-108650000D01*
X103901204Y-108625496D01*
X103904804Y-108601227D01*
X103910765Y-108577429D01*
X103919030Y-108554329D01*
X103929520Y-108532151D01*
X103942133Y-108511107D01*
X103956747Y-108491402D01*
X103973223Y-108473223D01*
X103991402Y-108456747D01*
X104011107Y-108442133D01*
X104032151Y-108429520D01*
X104054329Y-108419030D01*
X104077429Y-108410765D01*
X104101227Y-108404804D01*
X104125496Y-108401204D01*
X104150000Y-108400000D01*
X105750000Y-108400000D01*
X105774504Y-108401204D01*
G37*
G36*
X120644603Y-124078463D02*
G01*
X120664018Y-124081343D01*
X120683057Y-124086112D01*
X120701537Y-124092724D01*
X120719279Y-124101116D01*
X120736114Y-124111206D01*
X120751879Y-124122898D01*
X120766421Y-124136079D01*
X120779602Y-124150621D01*
X120791294Y-124166386D01*
X120801384Y-124183221D01*
X120809776Y-124200963D01*
X120816388Y-124219443D01*
X120821157Y-124238482D01*
X120824037Y-124257897D01*
X120825000Y-124277500D01*
X120825000Y-124677500D01*
X120824037Y-124697103D01*
X120821157Y-124716518D01*
X120816388Y-124735557D01*
X120809776Y-124754037D01*
X120801384Y-124771779D01*
X120791294Y-124788614D01*
X120779602Y-124804379D01*
X120766421Y-124818921D01*
X120751879Y-124832102D01*
X120736114Y-124843794D01*
X120719279Y-124853884D01*
X120701537Y-124862276D01*
X120683057Y-124868888D01*
X120664018Y-124873657D01*
X120644603Y-124876537D01*
X120625000Y-124877500D01*
X120075000Y-124877500D01*
X120055397Y-124876537D01*
X120035982Y-124873657D01*
X120016943Y-124868888D01*
X119998463Y-124862276D01*
X119980721Y-124853884D01*
X119963886Y-124843794D01*
X119948121Y-124832102D01*
X119933579Y-124818921D01*
X119920398Y-124804379D01*
X119908706Y-124788614D01*
X119898616Y-124771779D01*
X119890224Y-124754037D01*
X119883612Y-124735557D01*
X119878843Y-124716518D01*
X119875963Y-124697103D01*
X119875000Y-124677500D01*
X119875000Y-124277500D01*
X119875963Y-124257897D01*
X119878843Y-124238482D01*
X119883612Y-124219443D01*
X119890224Y-124200963D01*
X119898616Y-124183221D01*
X119908706Y-124166386D01*
X119920398Y-124150621D01*
X119933579Y-124136079D01*
X119948121Y-124122898D01*
X119963886Y-124111206D01*
X119980721Y-124101116D01*
X119998463Y-124092724D01*
X120016943Y-124086112D01*
X120035982Y-124081343D01*
X120055397Y-124078463D01*
X120075000Y-124077500D01*
X120625000Y-124077500D01*
X120644603Y-124078463D01*
G37*
G36*
X120644603Y-125728463D02*
G01*
X120664018Y-125731343D01*
X120683057Y-125736112D01*
X120701537Y-125742724D01*
X120719279Y-125751116D01*
X120736114Y-125761206D01*
X120751879Y-125772898D01*
X120766421Y-125786079D01*
X120779602Y-125800621D01*
X120791294Y-125816386D01*
X120801384Y-125833221D01*
X120809776Y-125850963D01*
X120816388Y-125869443D01*
X120821157Y-125888482D01*
X120824037Y-125907897D01*
X120825000Y-125927500D01*
X120825000Y-126327500D01*
X120824037Y-126347103D01*
X120821157Y-126366518D01*
X120816388Y-126385557D01*
X120809776Y-126404037D01*
X120801384Y-126421779D01*
X120791294Y-126438614D01*
X120779602Y-126454379D01*
X120766421Y-126468921D01*
X120751879Y-126482102D01*
X120736114Y-126493794D01*
X120719279Y-126503884D01*
X120701537Y-126512276D01*
X120683057Y-126518888D01*
X120664018Y-126523657D01*
X120644603Y-126526537D01*
X120625000Y-126527500D01*
X120075000Y-126527500D01*
X120055397Y-126526537D01*
X120035982Y-126523657D01*
X120016943Y-126518888D01*
X119998463Y-126512276D01*
X119980721Y-126503884D01*
X119963886Y-126493794D01*
X119948121Y-126482102D01*
X119933579Y-126468921D01*
X119920398Y-126454379D01*
X119908706Y-126438614D01*
X119898616Y-126421779D01*
X119890224Y-126404037D01*
X119883612Y-126385557D01*
X119878843Y-126366518D01*
X119875963Y-126347103D01*
X119875000Y-126327500D01*
X119875000Y-125927500D01*
X119875963Y-125907897D01*
X119878843Y-125888482D01*
X119883612Y-125869443D01*
X119890224Y-125850963D01*
X119898616Y-125833221D01*
X119908706Y-125816386D01*
X119920398Y-125800621D01*
X119933579Y-125786079D01*
X119948121Y-125772898D01*
X119963886Y-125761206D01*
X119980721Y-125751116D01*
X119998463Y-125742724D01*
X120016943Y-125736112D01*
X120035982Y-125731343D01*
X120055397Y-125728463D01*
X120075000Y-125727500D01*
X120625000Y-125727500D01*
X120644603Y-125728463D01*
G37*
G36*
X118644603Y-125423463D02*
G01*
X118664018Y-125426343D01*
X118683057Y-125431112D01*
X118701537Y-125437724D01*
X118719279Y-125446116D01*
X118736114Y-125456206D01*
X118751879Y-125467898D01*
X118766421Y-125481079D01*
X118779602Y-125495621D01*
X118791294Y-125511386D01*
X118801384Y-125528221D01*
X118809776Y-125545963D01*
X118816388Y-125564443D01*
X118821157Y-125583482D01*
X118824037Y-125602897D01*
X118825000Y-125622500D01*
X118825000Y-126022500D01*
X118824037Y-126042103D01*
X118821157Y-126061518D01*
X118816388Y-126080557D01*
X118809776Y-126099037D01*
X118801384Y-126116779D01*
X118791294Y-126133614D01*
X118779602Y-126149379D01*
X118766421Y-126163921D01*
X118751879Y-126177102D01*
X118736114Y-126188794D01*
X118719279Y-126198884D01*
X118701537Y-126207276D01*
X118683057Y-126213888D01*
X118664018Y-126218657D01*
X118644603Y-126221537D01*
X118625000Y-126222500D01*
X118075000Y-126222500D01*
X118055397Y-126221537D01*
X118035982Y-126218657D01*
X118016943Y-126213888D01*
X117998463Y-126207276D01*
X117980721Y-126198884D01*
X117963886Y-126188794D01*
X117948121Y-126177102D01*
X117933579Y-126163921D01*
X117920398Y-126149379D01*
X117908706Y-126133614D01*
X117898616Y-126116779D01*
X117890224Y-126099037D01*
X117883612Y-126080557D01*
X117878843Y-126061518D01*
X117875963Y-126042103D01*
X117875000Y-126022500D01*
X117875000Y-125622500D01*
X117875963Y-125602897D01*
X117878843Y-125583482D01*
X117883612Y-125564443D01*
X117890224Y-125545963D01*
X117898616Y-125528221D01*
X117908706Y-125511386D01*
X117920398Y-125495621D01*
X117933579Y-125481079D01*
X117948121Y-125467898D01*
X117963886Y-125456206D01*
X117980721Y-125446116D01*
X117998463Y-125437724D01*
X118016943Y-125431112D01*
X118035982Y-125426343D01*
X118055397Y-125423463D01*
X118075000Y-125422500D01*
X118625000Y-125422500D01*
X118644603Y-125423463D01*
G37*
G36*
X118644603Y-123773463D02*
G01*
X118664018Y-123776343D01*
X118683057Y-123781112D01*
X118701537Y-123787724D01*
X118719279Y-123796116D01*
X118736114Y-123806206D01*
X118751879Y-123817898D01*
X118766421Y-123831079D01*
X118779602Y-123845621D01*
X118791294Y-123861386D01*
X118801384Y-123878221D01*
X118809776Y-123895963D01*
X118816388Y-123914443D01*
X118821157Y-123933482D01*
X118824037Y-123952897D01*
X118825000Y-123972500D01*
X118825000Y-124372500D01*
X118824037Y-124392103D01*
X118821157Y-124411518D01*
X118816388Y-124430557D01*
X118809776Y-124449037D01*
X118801384Y-124466779D01*
X118791294Y-124483614D01*
X118779602Y-124499379D01*
X118766421Y-124513921D01*
X118751879Y-124527102D01*
X118736114Y-124538794D01*
X118719279Y-124548884D01*
X118701537Y-124557276D01*
X118683057Y-124563888D01*
X118664018Y-124568657D01*
X118644603Y-124571537D01*
X118625000Y-124572500D01*
X118075000Y-124572500D01*
X118055397Y-124571537D01*
X118035982Y-124568657D01*
X118016943Y-124563888D01*
X117998463Y-124557276D01*
X117980721Y-124548884D01*
X117963886Y-124538794D01*
X117948121Y-124527102D01*
X117933579Y-124513921D01*
X117920398Y-124499379D01*
X117908706Y-124483614D01*
X117898616Y-124466779D01*
X117890224Y-124449037D01*
X117883612Y-124430557D01*
X117878843Y-124411518D01*
X117875963Y-124392103D01*
X117875000Y-124372500D01*
X117875000Y-123972500D01*
X117875963Y-123952897D01*
X117878843Y-123933482D01*
X117883612Y-123914443D01*
X117890224Y-123895963D01*
X117898616Y-123878221D01*
X117908706Y-123861386D01*
X117920398Y-123845621D01*
X117933579Y-123831079D01*
X117948121Y-123817898D01*
X117963886Y-123806206D01*
X117980721Y-123796116D01*
X117998463Y-123787724D01*
X118016943Y-123781112D01*
X118035982Y-123776343D01*
X118055397Y-123773463D01*
X118075000Y-123772500D01*
X118625000Y-123772500D01*
X118644603Y-123773463D01*
G37*
G36*
X110492103Y-124425963D02*
G01*
X110511518Y-124428843D01*
X110530557Y-124433612D01*
X110549037Y-124440224D01*
X110566779Y-124448616D01*
X110583614Y-124458706D01*
X110599379Y-124470398D01*
X110613921Y-124483579D01*
X110627102Y-124498121D01*
X110638794Y-124513886D01*
X110648884Y-124530721D01*
X110657276Y-124548463D01*
X110663888Y-124566943D01*
X110668657Y-124585982D01*
X110671537Y-124605397D01*
X110672500Y-124625000D01*
X110672500Y-125175000D01*
X110671537Y-125194603D01*
X110668657Y-125214018D01*
X110663888Y-125233057D01*
X110657276Y-125251537D01*
X110648884Y-125269279D01*
X110638794Y-125286114D01*
X110627102Y-125301879D01*
X110613921Y-125316421D01*
X110599379Y-125329602D01*
X110583614Y-125341294D01*
X110566779Y-125351384D01*
X110549037Y-125359776D01*
X110530557Y-125366388D01*
X110511518Y-125371157D01*
X110492103Y-125374037D01*
X110472500Y-125375000D01*
X110072500Y-125375000D01*
X110052897Y-125374037D01*
X110033482Y-125371157D01*
X110014443Y-125366388D01*
X109995963Y-125359776D01*
X109978221Y-125351384D01*
X109961386Y-125341294D01*
X109945621Y-125329602D01*
X109931079Y-125316421D01*
X109917898Y-125301879D01*
X109906206Y-125286114D01*
X109896116Y-125269279D01*
X109887724Y-125251537D01*
X109881112Y-125233057D01*
X109876343Y-125214018D01*
X109873463Y-125194603D01*
X109872500Y-125175000D01*
X109872500Y-124625000D01*
X109873463Y-124605397D01*
X109876343Y-124585982D01*
X109881112Y-124566943D01*
X109887724Y-124548463D01*
X109896116Y-124530721D01*
X109906206Y-124513886D01*
X109917898Y-124498121D01*
X109931079Y-124483579D01*
X109945621Y-124470398D01*
X109961386Y-124458706D01*
X109978221Y-124448616D01*
X109995963Y-124440224D01*
X110014443Y-124433612D01*
X110033482Y-124428843D01*
X110052897Y-124425963D01*
X110072500Y-124425000D01*
X110472500Y-124425000D01*
X110492103Y-124425963D01*
G37*
G36*
X108842103Y-124425963D02*
G01*
X108861518Y-124428843D01*
X108880557Y-124433612D01*
X108899037Y-124440224D01*
X108916779Y-124448616D01*
X108933614Y-124458706D01*
X108949379Y-124470398D01*
X108963921Y-124483579D01*
X108977102Y-124498121D01*
X108988794Y-124513886D01*
X108998884Y-124530721D01*
X109007276Y-124548463D01*
X109013888Y-124566943D01*
X109018657Y-124585982D01*
X109021537Y-124605397D01*
X109022500Y-124625000D01*
X109022500Y-125175000D01*
X109021537Y-125194603D01*
X109018657Y-125214018D01*
X109013888Y-125233057D01*
X109007276Y-125251537D01*
X108998884Y-125269279D01*
X108988794Y-125286114D01*
X108977102Y-125301879D01*
X108963921Y-125316421D01*
X108949379Y-125329602D01*
X108933614Y-125341294D01*
X108916779Y-125351384D01*
X108899037Y-125359776D01*
X108880557Y-125366388D01*
X108861518Y-125371157D01*
X108842103Y-125374037D01*
X108822500Y-125375000D01*
X108422500Y-125375000D01*
X108402897Y-125374037D01*
X108383482Y-125371157D01*
X108364443Y-125366388D01*
X108345963Y-125359776D01*
X108328221Y-125351384D01*
X108311386Y-125341294D01*
X108295621Y-125329602D01*
X108281079Y-125316421D01*
X108267898Y-125301879D01*
X108256206Y-125286114D01*
X108246116Y-125269279D01*
X108237724Y-125251537D01*
X108231112Y-125233057D01*
X108226343Y-125214018D01*
X108223463Y-125194603D01*
X108222500Y-125175000D01*
X108222500Y-124625000D01*
X108223463Y-124605397D01*
X108226343Y-124585982D01*
X108231112Y-124566943D01*
X108237724Y-124548463D01*
X108246116Y-124530721D01*
X108256206Y-124513886D01*
X108267898Y-124498121D01*
X108281079Y-124483579D01*
X108295621Y-124470398D01*
X108311386Y-124458706D01*
X108328221Y-124448616D01*
X108345963Y-124440224D01*
X108364443Y-124433612D01*
X108383482Y-124428843D01*
X108402897Y-124425963D01*
X108422500Y-124425000D01*
X108822500Y-124425000D01*
X108842103Y-124425963D01*
G37*
G36*
X111009554Y-122926083D02*
G01*
X111031395Y-122929323D01*
X111052814Y-122934688D01*
X111073604Y-122942127D01*
X111093564Y-122951568D01*
X111112503Y-122962919D01*
X111130238Y-122976073D01*
X111146599Y-122990901D01*
X111161427Y-123007262D01*
X111174581Y-123024997D01*
X111185932Y-123043936D01*
X111195373Y-123063896D01*
X111202812Y-123084686D01*
X111208177Y-123106105D01*
X111211417Y-123127946D01*
X111212500Y-123150000D01*
X111212500Y-123650000D01*
X111211417Y-123672054D01*
X111208177Y-123693895D01*
X111202812Y-123715314D01*
X111195373Y-123736104D01*
X111185932Y-123756064D01*
X111174581Y-123775003D01*
X111161427Y-123792738D01*
X111146599Y-123809099D01*
X111130238Y-123823927D01*
X111112503Y-123837081D01*
X111093564Y-123848432D01*
X111073604Y-123857873D01*
X111052814Y-123865312D01*
X111031395Y-123870677D01*
X111009554Y-123873917D01*
X110987500Y-123875000D01*
X110537500Y-123875000D01*
X110515446Y-123873917D01*
X110493605Y-123870677D01*
X110472186Y-123865312D01*
X110451396Y-123857873D01*
X110431436Y-123848432D01*
X110412497Y-123837081D01*
X110394762Y-123823927D01*
X110378401Y-123809099D01*
X110363573Y-123792738D01*
X110350419Y-123775003D01*
X110339068Y-123756064D01*
X110329627Y-123736104D01*
X110322188Y-123715314D01*
X110316823Y-123693895D01*
X110313583Y-123672054D01*
X110312500Y-123650000D01*
X110312500Y-123150000D01*
X110313583Y-123127946D01*
X110316823Y-123106105D01*
X110322188Y-123084686D01*
X110329627Y-123063896D01*
X110339068Y-123043936D01*
X110350419Y-123024997D01*
X110363573Y-123007262D01*
X110378401Y-122990901D01*
X110394762Y-122976073D01*
X110412497Y-122962919D01*
X110431436Y-122951568D01*
X110451396Y-122942127D01*
X110472186Y-122934688D01*
X110493605Y-122929323D01*
X110515446Y-122926083D01*
X110537500Y-122925000D01*
X110987500Y-122925000D01*
X111009554Y-122926083D01*
G37*
G36*
X109459554Y-122926083D02*
G01*
X109481395Y-122929323D01*
X109502814Y-122934688D01*
X109523604Y-122942127D01*
X109543564Y-122951568D01*
X109562503Y-122962919D01*
X109580238Y-122976073D01*
X109596599Y-122990901D01*
X109611427Y-123007262D01*
X109624581Y-123024997D01*
X109635932Y-123043936D01*
X109645373Y-123063896D01*
X109652812Y-123084686D01*
X109658177Y-123106105D01*
X109661417Y-123127946D01*
X109662500Y-123150000D01*
X109662500Y-123650000D01*
X109661417Y-123672054D01*
X109658177Y-123693895D01*
X109652812Y-123715314D01*
X109645373Y-123736104D01*
X109635932Y-123756064D01*
X109624581Y-123775003D01*
X109611427Y-123792738D01*
X109596599Y-123809099D01*
X109580238Y-123823927D01*
X109562503Y-123837081D01*
X109543564Y-123848432D01*
X109523604Y-123857873D01*
X109502814Y-123865312D01*
X109481395Y-123870677D01*
X109459554Y-123873917D01*
X109437500Y-123875000D01*
X108987500Y-123875000D01*
X108965446Y-123873917D01*
X108943605Y-123870677D01*
X108922186Y-123865312D01*
X108901396Y-123857873D01*
X108881436Y-123848432D01*
X108862497Y-123837081D01*
X108844762Y-123823927D01*
X108828401Y-123809099D01*
X108813573Y-123792738D01*
X108800419Y-123775003D01*
X108789068Y-123756064D01*
X108779627Y-123736104D01*
X108772188Y-123715314D01*
X108766823Y-123693895D01*
X108763583Y-123672054D01*
X108762500Y-123650000D01*
X108762500Y-123150000D01*
X108763583Y-123127946D01*
X108766823Y-123106105D01*
X108772188Y-123084686D01*
X108779627Y-123063896D01*
X108789068Y-123043936D01*
X108800419Y-123024997D01*
X108813573Y-123007262D01*
X108828401Y-122990901D01*
X108844762Y-122976073D01*
X108862497Y-122962919D01*
X108881436Y-122951568D01*
X108901396Y-122942127D01*
X108922186Y-122934688D01*
X108943605Y-122929323D01*
X108965446Y-122926083D01*
X108987500Y-122925000D01*
X109437500Y-122925000D01*
X109459554Y-122926083D01*
G37*
G36*
X110959554Y-118926083D02*
G01*
X110981395Y-118929323D01*
X111002814Y-118934688D01*
X111023604Y-118942127D01*
X111043564Y-118951568D01*
X111062503Y-118962919D01*
X111080238Y-118976073D01*
X111096599Y-118990901D01*
X111111427Y-119007262D01*
X111124581Y-119024997D01*
X111135932Y-119043936D01*
X111145373Y-119063896D01*
X111152812Y-119084686D01*
X111158177Y-119106105D01*
X111161417Y-119127946D01*
X111162500Y-119150000D01*
X111162500Y-119650000D01*
X111161417Y-119672054D01*
X111158177Y-119693895D01*
X111152812Y-119715314D01*
X111145373Y-119736104D01*
X111135932Y-119756064D01*
X111124581Y-119775003D01*
X111111427Y-119792738D01*
X111096599Y-119809099D01*
X111080238Y-119823927D01*
X111062503Y-119837081D01*
X111043564Y-119848432D01*
X111023604Y-119857873D01*
X111002814Y-119865312D01*
X110981395Y-119870677D01*
X110959554Y-119873917D01*
X110937500Y-119875000D01*
X110487500Y-119875000D01*
X110465446Y-119873917D01*
X110443605Y-119870677D01*
X110422186Y-119865312D01*
X110401396Y-119857873D01*
X110381436Y-119848432D01*
X110362497Y-119837081D01*
X110344762Y-119823927D01*
X110328401Y-119809099D01*
X110313573Y-119792738D01*
X110300419Y-119775003D01*
X110289068Y-119756064D01*
X110279627Y-119736104D01*
X110272188Y-119715314D01*
X110266823Y-119693895D01*
X110263583Y-119672054D01*
X110262500Y-119650000D01*
X110262500Y-119150000D01*
X110263583Y-119127946D01*
X110266823Y-119106105D01*
X110272188Y-119084686D01*
X110279627Y-119063896D01*
X110289068Y-119043936D01*
X110300419Y-119024997D01*
X110313573Y-119007262D01*
X110328401Y-118990901D01*
X110344762Y-118976073D01*
X110362497Y-118962919D01*
X110381436Y-118951568D01*
X110401396Y-118942127D01*
X110422186Y-118934688D01*
X110443605Y-118929323D01*
X110465446Y-118926083D01*
X110487500Y-118925000D01*
X110937500Y-118925000D01*
X110959554Y-118926083D01*
G37*
G36*
X112509554Y-118926083D02*
G01*
X112531395Y-118929323D01*
X112552814Y-118934688D01*
X112573604Y-118942127D01*
X112593564Y-118951568D01*
X112612503Y-118962919D01*
X112630238Y-118976073D01*
X112646599Y-118990901D01*
X112661427Y-119007262D01*
X112674581Y-119024997D01*
X112685932Y-119043936D01*
X112695373Y-119063896D01*
X112702812Y-119084686D01*
X112708177Y-119106105D01*
X112711417Y-119127946D01*
X112712500Y-119150000D01*
X112712500Y-119650000D01*
X112711417Y-119672054D01*
X112708177Y-119693895D01*
X112702812Y-119715314D01*
X112695373Y-119736104D01*
X112685932Y-119756064D01*
X112674581Y-119775003D01*
X112661427Y-119792738D01*
X112646599Y-119809099D01*
X112630238Y-119823927D01*
X112612503Y-119837081D01*
X112593564Y-119848432D01*
X112573604Y-119857873D01*
X112552814Y-119865312D01*
X112531395Y-119870677D01*
X112509554Y-119873917D01*
X112487500Y-119875000D01*
X112037500Y-119875000D01*
X112015446Y-119873917D01*
X111993605Y-119870677D01*
X111972186Y-119865312D01*
X111951396Y-119857873D01*
X111931436Y-119848432D01*
X111912497Y-119837081D01*
X111894762Y-119823927D01*
X111878401Y-119809099D01*
X111863573Y-119792738D01*
X111850419Y-119775003D01*
X111839068Y-119756064D01*
X111829627Y-119736104D01*
X111822188Y-119715314D01*
X111816823Y-119693895D01*
X111813583Y-119672054D01*
X111812500Y-119650000D01*
X111812500Y-119150000D01*
X111813583Y-119127946D01*
X111816823Y-119106105D01*
X111822188Y-119084686D01*
X111829627Y-119063896D01*
X111839068Y-119043936D01*
X111850419Y-119024997D01*
X111863573Y-119007262D01*
X111878401Y-118990901D01*
X111894762Y-118976073D01*
X111912497Y-118962919D01*
X111931436Y-118951568D01*
X111951396Y-118942127D01*
X111972186Y-118934688D01*
X111993605Y-118929323D01*
X112015446Y-118926083D01*
X112037500Y-118925000D01*
X112487500Y-118925000D01*
X112509554Y-118926083D01*
G37*
G36*
X128422054Y-120500811D02*
G01*
X128443895Y-120504051D01*
X128465314Y-120509416D01*
X128486104Y-120516855D01*
X128506064Y-120526296D01*
X128525003Y-120537647D01*
X128542738Y-120550801D01*
X128559099Y-120565629D01*
X128573927Y-120581990D01*
X128587081Y-120599725D01*
X128598432Y-120618664D01*
X128607873Y-120638624D01*
X128615312Y-120659414D01*
X128620677Y-120680833D01*
X128623917Y-120702674D01*
X128625000Y-120724728D01*
X128625000Y-121174728D01*
X128623917Y-121196782D01*
X128620677Y-121218623D01*
X128615312Y-121240042D01*
X128607873Y-121260832D01*
X128598432Y-121280792D01*
X128587081Y-121299731D01*
X128573927Y-121317466D01*
X128559099Y-121333827D01*
X128542738Y-121348655D01*
X128525003Y-121361809D01*
X128506064Y-121373160D01*
X128486104Y-121382601D01*
X128465314Y-121390040D01*
X128443895Y-121395405D01*
X128422054Y-121398645D01*
X128400000Y-121399728D01*
X127900000Y-121399728D01*
X127877946Y-121398645D01*
X127856105Y-121395405D01*
X127834686Y-121390040D01*
X127813896Y-121382601D01*
X127793936Y-121373160D01*
X127774997Y-121361809D01*
X127757262Y-121348655D01*
X127740901Y-121333827D01*
X127726073Y-121317466D01*
X127712919Y-121299731D01*
X127701568Y-121280792D01*
X127692127Y-121260832D01*
X127684688Y-121240042D01*
X127679323Y-121218623D01*
X127676083Y-121196782D01*
X127675000Y-121174728D01*
X127675000Y-120724728D01*
X127676083Y-120702674D01*
X127679323Y-120680833D01*
X127684688Y-120659414D01*
X127692127Y-120638624D01*
X127701568Y-120618664D01*
X127712919Y-120599725D01*
X127726073Y-120581990D01*
X127740901Y-120565629D01*
X127757262Y-120550801D01*
X127774997Y-120537647D01*
X127793936Y-120526296D01*
X127813896Y-120516855D01*
X127834686Y-120509416D01*
X127856105Y-120504051D01*
X127877946Y-120500811D01*
X127900000Y-120499728D01*
X128400000Y-120499728D01*
X128422054Y-120500811D01*
G37*
G36*
X128422054Y-118950811D02*
G01*
X128443895Y-118954051D01*
X128465314Y-118959416D01*
X128486104Y-118966855D01*
X128506064Y-118976296D01*
X128525003Y-118987647D01*
X128542738Y-119000801D01*
X128559099Y-119015629D01*
X128573927Y-119031990D01*
X128587081Y-119049725D01*
X128598432Y-119068664D01*
X128607873Y-119088624D01*
X128615312Y-119109414D01*
X128620677Y-119130833D01*
X128623917Y-119152674D01*
X128625000Y-119174728D01*
X128625000Y-119624728D01*
X128623917Y-119646782D01*
X128620677Y-119668623D01*
X128615312Y-119690042D01*
X128607873Y-119710832D01*
X128598432Y-119730792D01*
X128587081Y-119749731D01*
X128573927Y-119767466D01*
X128559099Y-119783827D01*
X128542738Y-119798655D01*
X128525003Y-119811809D01*
X128506064Y-119823160D01*
X128486104Y-119832601D01*
X128465314Y-119840040D01*
X128443895Y-119845405D01*
X128422054Y-119848645D01*
X128400000Y-119849728D01*
X127900000Y-119849728D01*
X127877946Y-119848645D01*
X127856105Y-119845405D01*
X127834686Y-119840040D01*
X127813896Y-119832601D01*
X127793936Y-119823160D01*
X127774997Y-119811809D01*
X127757262Y-119798655D01*
X127740901Y-119783827D01*
X127726073Y-119767466D01*
X127712919Y-119749731D01*
X127701568Y-119730792D01*
X127692127Y-119710832D01*
X127684688Y-119690042D01*
X127679323Y-119668623D01*
X127676083Y-119646782D01*
X127675000Y-119624728D01*
X127675000Y-119174728D01*
X127676083Y-119152674D01*
X127679323Y-119130833D01*
X127684688Y-119109414D01*
X127692127Y-119088624D01*
X127701568Y-119068664D01*
X127712919Y-119049725D01*
X127726073Y-119031990D01*
X127740901Y-119015629D01*
X127757262Y-119000801D01*
X127774997Y-118987647D01*
X127793936Y-118976296D01*
X127813896Y-118966855D01*
X127834686Y-118959416D01*
X127856105Y-118954051D01*
X127877946Y-118950811D01*
X127900000Y-118949728D01*
X128400000Y-118949728D01*
X128422054Y-118950811D01*
G37*
G36*
X129930572Y-120500811D02*
G01*
X129952413Y-120504051D01*
X129973832Y-120509416D01*
X129994622Y-120516855D01*
X130014582Y-120526296D01*
X130033521Y-120537647D01*
X130051256Y-120550801D01*
X130067617Y-120565629D01*
X130082445Y-120581990D01*
X130095599Y-120599725D01*
X130106950Y-120618664D01*
X130116391Y-120638624D01*
X130123830Y-120659414D01*
X130129195Y-120680833D01*
X130132435Y-120702674D01*
X130133518Y-120724728D01*
X130133518Y-121174728D01*
X130132435Y-121196782D01*
X130129195Y-121218623D01*
X130123830Y-121240042D01*
X130116391Y-121260832D01*
X130106950Y-121280792D01*
X130095599Y-121299731D01*
X130082445Y-121317466D01*
X130067617Y-121333827D01*
X130051256Y-121348655D01*
X130033521Y-121361809D01*
X130014582Y-121373160D01*
X129994622Y-121382601D01*
X129973832Y-121390040D01*
X129952413Y-121395405D01*
X129930572Y-121398645D01*
X129908518Y-121399728D01*
X129408518Y-121399728D01*
X129386464Y-121398645D01*
X129364623Y-121395405D01*
X129343204Y-121390040D01*
X129322414Y-121382601D01*
X129302454Y-121373160D01*
X129283515Y-121361809D01*
X129265780Y-121348655D01*
X129249419Y-121333827D01*
X129234591Y-121317466D01*
X129221437Y-121299731D01*
X129210086Y-121280792D01*
X129200645Y-121260832D01*
X129193206Y-121240042D01*
X129187841Y-121218623D01*
X129184601Y-121196782D01*
X129183518Y-121174728D01*
X129183518Y-120724728D01*
X129184601Y-120702674D01*
X129187841Y-120680833D01*
X129193206Y-120659414D01*
X129200645Y-120638624D01*
X129210086Y-120618664D01*
X129221437Y-120599725D01*
X129234591Y-120581990D01*
X129249419Y-120565629D01*
X129265780Y-120550801D01*
X129283515Y-120537647D01*
X129302454Y-120526296D01*
X129322414Y-120516855D01*
X129343204Y-120509416D01*
X129364623Y-120504051D01*
X129386464Y-120500811D01*
X129408518Y-120499728D01*
X129908518Y-120499728D01*
X129930572Y-120500811D01*
G37*
G36*
X129930572Y-118950811D02*
G01*
X129952413Y-118954051D01*
X129973832Y-118959416D01*
X129994622Y-118966855D01*
X130014582Y-118976296D01*
X130033521Y-118987647D01*
X130051256Y-119000801D01*
X130067617Y-119015629D01*
X130082445Y-119031990D01*
X130095599Y-119049725D01*
X130106950Y-119068664D01*
X130116391Y-119088624D01*
X130123830Y-119109414D01*
X130129195Y-119130833D01*
X130132435Y-119152674D01*
X130133518Y-119174728D01*
X130133518Y-119624728D01*
X130132435Y-119646782D01*
X130129195Y-119668623D01*
X130123830Y-119690042D01*
X130116391Y-119710832D01*
X130106950Y-119730792D01*
X130095599Y-119749731D01*
X130082445Y-119767466D01*
X130067617Y-119783827D01*
X130051256Y-119798655D01*
X130033521Y-119811809D01*
X130014582Y-119823160D01*
X129994622Y-119832601D01*
X129973832Y-119840040D01*
X129952413Y-119845405D01*
X129930572Y-119848645D01*
X129908518Y-119849728D01*
X129408518Y-119849728D01*
X129386464Y-119848645D01*
X129364623Y-119845405D01*
X129343204Y-119840040D01*
X129322414Y-119832601D01*
X129302454Y-119823160D01*
X129283515Y-119811809D01*
X129265780Y-119798655D01*
X129249419Y-119783827D01*
X129234591Y-119767466D01*
X129221437Y-119749731D01*
X129210086Y-119730792D01*
X129200645Y-119710832D01*
X129193206Y-119690042D01*
X129187841Y-119668623D01*
X129184601Y-119646782D01*
X129183518Y-119624728D01*
X129183518Y-119174728D01*
X129184601Y-119152674D01*
X129187841Y-119130833D01*
X129193206Y-119109414D01*
X129200645Y-119088624D01*
X129210086Y-119068664D01*
X129221437Y-119049725D01*
X129234591Y-119031990D01*
X129249419Y-119015629D01*
X129265780Y-119000801D01*
X129283515Y-118987647D01*
X129302454Y-118976296D01*
X129322414Y-118966855D01*
X129343204Y-118959416D01*
X129364623Y-118954051D01*
X129386464Y-118950811D01*
X129408518Y-118949728D01*
X129908518Y-118949728D01*
X129930572Y-118950811D01*
G37*
D19*
X137730000Y-130415000D03*
D20*
X130560000Y-132700000D03*
D19*
X137730000Y-134985000D03*
M02*
