G04 #@! TF.GenerationSoftware,KiCad,Pcbnew,5.1.5+dfsg1-2build2*
G04 #@! TF.CreationDate,2021-01-06T15:03:12+09:00*
G04 #@! TF.ProjectId,robot,726f626f-742e-46b6-9963-61645f706362,rev?*
G04 #@! TF.SameCoordinates,Original*
G04 #@! TF.FileFunction,Copper,L2,Bot*
G04 #@! TF.FilePolarity,Positive*
%FSLAX46Y46*%
G04 Gerber Fmt 4.6, Leading zero omitted, Abs format (unit mm)*
G04 Created by KiCad (PCBNEW 5.1.5+dfsg1-2build2) date 2021-01-06 15:03:12*
%MOMM*%
%LPD*%
G04 APERTURE LIST*
%ADD10O,2.500000X3.600000*%
%ADD11R,2.200000X2.200000*%
%ADD12C,2.200000*%
%ADD13C,2.032000*%
%ADD14R,2.800000X6.000000*%
%ADD15R,6.000000X2.800000*%
%ADD16C,2.000000*%
%ADD17O,1.700000X1.700000*%
%ADD18R,1.700000X1.700000*%
%ADD19C,1.600000*%
%ADD20C,2.000000*%
%ADD21C,0.254000*%
G04 APERTURE END LIST*
D10*
X-2125000Y-18200000D03*
X72125000Y-18200000D03*
D11*
X71120000Y-86745000D03*
D12*
X71120000Y-81665000D03*
D11*
X-3175000Y-88650000D03*
D12*
X-8255000Y-88650000D03*
D11*
X29845000Y-66425000D03*
D12*
X34925000Y-66425000D03*
D11*
X64770000Y-67060000D03*
D12*
X64770000Y-72140000D03*
D11*
X-8890000Y-48645000D03*
D12*
X-6350000Y-48645000D03*
X-3810000Y-48645000D03*
D13*
X54610000Y-89920000D03*
X49530000Y-89920000D03*
X54610000Y-61980000D03*
X49530000Y-61980000D03*
X46990000Y-61980000D03*
X44450000Y-61980000D03*
X41910000Y-61980000D03*
X39370000Y-61980000D03*
X36830000Y-61980000D03*
X26670000Y-61980000D03*
X24130000Y-61980000D03*
X21590000Y-61980000D03*
X19050000Y-61980000D03*
X16510000Y-61980000D03*
X13970000Y-61980000D03*
X8890000Y-89920000D03*
X11430000Y-89920000D03*
X46990000Y-89920000D03*
X52070000Y-89920000D03*
X57150000Y-89920000D03*
X69850000Y-63885000D03*
X69850000Y-66425000D03*
X69850000Y-68965000D03*
X23495000Y-48645000D03*
X23495000Y-46105000D03*
X23495000Y-43565000D03*
D14*
X-23300000Y-42885000D03*
X-23300000Y-25515000D03*
X-440000Y-42885000D03*
X-440000Y-25515000D03*
D15*
X1260000Y-38010000D03*
X1260000Y-30390000D03*
D16*
X55245000Y-43565000D03*
X57785000Y-43565000D03*
X60325000Y-43565000D03*
X62865000Y-43565000D03*
X65405000Y-43565000D03*
X67945000Y-43565000D03*
X70485000Y-43565000D03*
X73025000Y-43565000D03*
X32385000Y-43565000D03*
X34925000Y-43565000D03*
X37465000Y-43565000D03*
X40005000Y-43565000D03*
X42545000Y-43565000D03*
X45085000Y-43565000D03*
X47625000Y-43565000D03*
X50165000Y-43565000D03*
X-17145000Y-42930000D03*
D17*
X79375000Y-55630000D03*
D18*
X79375000Y-58170000D03*
D16*
X70485000Y-39755000D03*
D18*
X3175000Y-37850000D03*
D17*
X5715000Y-37850000D03*
D18*
X6985000Y-58170000D03*
D17*
X6985000Y-55630000D03*
D16*
X79375000Y-51185000D03*
X1270000Y-58170000D03*
X80010000Y-95635000D03*
X9525000Y-37850000D03*
D19*
X2540000Y-74680000D03*
X2540000Y-77220000D03*
X1905000Y-80395000D03*
X-15240000Y-48010000D03*
X-15240000Y-52455000D03*
X-10160000Y-54360000D03*
X-10160000Y-62615000D03*
X-9525000Y-72140000D03*
X-9525000Y-83570000D03*
X-14605000Y-38485000D03*
X-635000Y-44835000D03*
X-635000Y-42930000D03*
X-635000Y-41025000D03*
X3175000Y-41660000D03*
X6985000Y-43565000D03*
X3175000Y-45470000D03*
X-635000Y-27055000D03*
X-635000Y-25150000D03*
X-635000Y-23245000D03*
X-23495000Y-27055000D03*
X-23495000Y-25150000D03*
X-23495000Y-23245000D03*
X-20955000Y-77855000D03*
X-17145000Y-79760000D03*
X-13970000Y-77855000D03*
X7620000Y-83570000D03*
X6350000Y-88015000D03*
X15240000Y-88015000D03*
X20955000Y-88015000D03*
X7620000Y-1020000D03*
X0Y-8640000D03*
X7620000Y-8640000D03*
X15240000Y-8640000D03*
X22860000Y-8640000D03*
X30480000Y-8640000D03*
X38100000Y-8640000D03*
X45720000Y-8640000D03*
X53340000Y-8640000D03*
X60960000Y-8640000D03*
X68580000Y-8640000D03*
X15240000Y-1020000D03*
X22860000Y-1020000D03*
X30480000Y-1020000D03*
X38100000Y-1020000D03*
X45720000Y-1020000D03*
X53340000Y-1020000D03*
X60960000Y-1020000D03*
X15240000Y-16260000D03*
X22860000Y-16260000D03*
X10160000Y-23880000D03*
X-17780000Y-26420000D03*
X-15240000Y-31500000D03*
X-10160000Y-26420000D03*
X15240000Y-44200000D03*
X22860000Y-36580000D03*
X33020000Y-28960000D03*
X33020000Y-36580000D03*
X40640000Y-36580000D03*
X40640000Y-28960000D03*
X48260000Y-28960000D03*
X55880000Y-28960000D03*
X63500000Y-28960000D03*
X71120000Y-28960000D03*
X76200000Y-26420000D03*
X76200000Y-18800000D03*
X76200000Y-11180000D03*
X73660000Y-3560000D03*
X-5080000Y-6100000D03*
X-2540000Y-34040000D03*
X3175000Y-50550000D03*
X1905000Y-63885000D03*
X8255000Y-74045000D03*
X25400000Y-83570000D03*
X29845000Y-88650000D03*
X13970000Y-75950000D03*
X17145000Y-75950000D03*
D20*
X23495000Y-43565000D02*
X24931840Y-43565000D01*
X33020000Y-64520000D02*
X34925000Y-66425000D01*
X33020000Y-51653160D02*
X33020000Y-64520000D01*
X24931840Y-43565000D02*
X33020000Y-51653160D01*
X68120000Y-86745000D02*
X71120000Y-86745000D01*
X50975000Y-69600000D02*
X68120000Y-86745000D01*
X15565000Y-69600000D02*
X50975000Y-69600000D01*
X6985000Y-61020000D02*
X15565000Y-69600000D01*
X6985000Y-58170000D02*
X6985000Y-61020000D01*
X71120000Y-86745000D02*
X80010000Y-95635000D01*
X78105000Y-55630000D02*
X79375000Y-55630000D01*
X12767919Y-48645000D02*
X23495000Y-48645000D01*
X6985000Y-54427919D02*
X12767919Y-48645000D01*
X6985000Y-55630000D02*
X6985000Y-54427919D01*
D21*
G36*
X77265001Y-41663885D02*
G01*
X77261444Y-41700000D01*
X77275635Y-41844085D01*
X77317663Y-41982633D01*
X77385913Y-42110320D01*
X77477762Y-42222238D01*
X77589680Y-42314087D01*
X77717367Y-42382337D01*
X77855915Y-42424365D01*
X77963895Y-42435000D01*
X78000000Y-42438556D01*
X78036105Y-42435000D01*
X89265000Y-42435000D01*
X89265001Y-55634435D01*
X88347751Y-55906819D01*
X88261093Y-55938599D01*
X88261091Y-55938600D01*
X87807688Y-56138000D01*
X82550000Y-56138000D01*
X82550000Y-53090000D01*
X82537799Y-52966118D01*
X82501664Y-52846996D01*
X82442983Y-52737213D01*
X82364013Y-52640987D01*
X82267787Y-52562017D01*
X82158004Y-52503336D01*
X82038882Y-52467201D01*
X81915000Y-52455000D01*
X80417233Y-52455000D01*
X80417252Y-52454987D01*
X80644987Y-52227252D01*
X80823918Y-51959463D01*
X80947168Y-51661912D01*
X81010000Y-51346033D01*
X81010000Y-51023967D01*
X80947168Y-50708088D01*
X80823918Y-50410537D01*
X80644987Y-50142748D01*
X80417252Y-49915013D01*
X80149463Y-49736082D01*
X79851912Y-49612832D01*
X79536033Y-49550000D01*
X79213967Y-49550000D01*
X78898088Y-49612832D01*
X78600537Y-49736082D01*
X78332748Y-49915013D01*
X78105013Y-50142748D01*
X77926082Y-50410537D01*
X77802832Y-50708088D01*
X77740000Y-51023967D01*
X77740000Y-51346033D01*
X77802832Y-51661912D01*
X77926082Y-51959463D01*
X78105013Y-52227252D01*
X78332748Y-52454987D01*
X78332767Y-52455000D01*
X66040000Y-52455000D01*
X65916118Y-52467201D01*
X65796996Y-52503336D01*
X65687213Y-52562017D01*
X65590987Y-52640987D01*
X65512017Y-52737213D01*
X65453336Y-52846996D01*
X65417201Y-52966118D01*
X65405000Y-53090000D01*
X65405000Y-65155000D01*
X65417201Y-65278882D01*
X65430259Y-65321928D01*
X63670000Y-65321928D01*
X63545518Y-65334188D01*
X63425820Y-65370498D01*
X63315506Y-65429463D01*
X63218815Y-65508815D01*
X63139463Y-65605506D01*
X63080498Y-65715820D01*
X63044188Y-65835518D01*
X63031928Y-65960000D01*
X63031928Y-68160000D01*
X63044188Y-68284482D01*
X63080498Y-68404180D01*
X63139463Y-68514494D01*
X63218815Y-68611185D01*
X63315506Y-68690537D01*
X63425820Y-68749502D01*
X63545518Y-68785812D01*
X63670000Y-68798072D01*
X65870000Y-68798072D01*
X65994482Y-68785812D01*
X66114180Y-68749502D01*
X66224494Y-68690537D01*
X66321185Y-68611185D01*
X66400537Y-68514494D01*
X66459502Y-68404180D01*
X66495812Y-68284482D01*
X66508072Y-68160000D01*
X66508072Y-65960000D01*
X66495812Y-65835518D01*
X66482004Y-65790000D01*
X68322834Y-65790000D01*
X68294652Y-65847821D01*
X68211936Y-66162344D01*
X68192169Y-66486962D01*
X68236112Y-66809198D01*
X68342076Y-67116670D01*
X68437140Y-67294522D01*
X68703177Y-67392218D01*
X69670395Y-66425000D01*
X69656253Y-66410858D01*
X69835858Y-66231253D01*
X69850000Y-66245395D01*
X69864143Y-66231253D01*
X70043748Y-66410858D01*
X70029605Y-66425000D01*
X70996823Y-67392218D01*
X71262860Y-67294522D01*
X71405348Y-67002179D01*
X71488064Y-66687656D01*
X71507831Y-66363038D01*
X71463888Y-66040802D01*
X71377454Y-65790000D01*
X71755000Y-65790000D01*
X71837130Y-65784666D01*
X71958394Y-65756545D01*
X72071841Y-65705306D01*
X72173113Y-65632919D01*
X72258316Y-65542166D01*
X77886928Y-58224970D01*
X77886928Y-59020000D01*
X77899188Y-59144482D01*
X77935498Y-59264180D01*
X77994463Y-59374494D01*
X78073815Y-59471185D01*
X78170506Y-59550537D01*
X78280820Y-59609502D01*
X78400518Y-59645812D01*
X78525000Y-59658072D01*
X80225000Y-59658072D01*
X80349482Y-59645812D01*
X80469180Y-59609502D01*
X80579494Y-59550537D01*
X80676185Y-59471185D01*
X80755537Y-59374494D01*
X80814502Y-59264180D01*
X80850812Y-59144482D01*
X80863072Y-59020000D01*
X80863072Y-57535000D01*
X81788000Y-57535000D01*
X81788000Y-62736011D01*
X81521074Y-63675499D01*
X81501472Y-63765696D01*
X81312365Y-65007187D01*
X81304223Y-65099129D01*
X81272208Y-66354531D01*
X81275653Y-66446769D01*
X81401234Y-67696284D01*
X81416213Y-67787363D01*
X81697410Y-69011286D01*
X81723685Y-69099769D01*
X81788000Y-69275147D01*
X81788000Y-75950000D01*
X81790440Y-75974776D01*
X81797667Y-75998601D01*
X81809403Y-76020557D01*
X81825197Y-76039803D01*
X81844443Y-76055597D01*
X81866399Y-76067333D01*
X81890224Y-76074560D01*
X81915000Y-76077000D01*
X88356219Y-76077000D01*
X89022110Y-76312292D01*
X89110898Y-76337518D01*
X90338060Y-76604204D01*
X90338063Y-76604205D01*
X90429313Y-76618105D01*
X91680228Y-76728885D01*
X91772500Y-76731238D01*
X91772501Y-76731238D01*
X92265000Y-76712842D01*
X92265001Y-91265000D01*
X83536105Y-91265000D01*
X83500000Y-91261444D01*
X83463895Y-91265000D01*
X83355915Y-91275635D01*
X83217367Y-91317663D01*
X83089680Y-91385913D01*
X82977762Y-91477762D01*
X82885913Y-91589680D01*
X82817663Y-91717367D01*
X82775635Y-91855915D01*
X82761444Y-92000000D01*
X82765000Y-92036104D01*
X82765001Y-97565000D01*
X-12765000Y-97565000D01*
X-12765000Y-94779872D01*
X-2235000Y-94779872D01*
X-2235000Y-95220128D01*
X-2149110Y-95651925D01*
X-1980631Y-96058669D01*
X-1736038Y-96424729D01*
X-1424729Y-96736038D01*
X-1058669Y-96980631D01*
X-651925Y-97149110D01*
X-220128Y-97235000D01*
X220128Y-97235000D01*
X651925Y-97149110D01*
X1058669Y-96980631D01*
X1424729Y-96736038D01*
X1736038Y-96424729D01*
X1980631Y-96058669D01*
X2149110Y-95651925D01*
X2235000Y-95220128D01*
X2235000Y-94779872D01*
X67765000Y-94779872D01*
X67765000Y-95220128D01*
X67850890Y-95651925D01*
X68019369Y-96058669D01*
X68263962Y-96424729D01*
X68575271Y-96736038D01*
X68941331Y-96980631D01*
X69348075Y-97149110D01*
X69779872Y-97235000D01*
X70220128Y-97235000D01*
X70651925Y-97149110D01*
X71058669Y-96980631D01*
X71424729Y-96736038D01*
X71736038Y-96424729D01*
X71980631Y-96058669D01*
X72149110Y-95651925D01*
X72235000Y-95220128D01*
X72235000Y-94779872D01*
X72149110Y-94348075D01*
X71980631Y-93941331D01*
X71736038Y-93575271D01*
X71424729Y-93263962D01*
X71058669Y-93019369D01*
X70651925Y-92850890D01*
X70220128Y-92765000D01*
X69779872Y-92765000D01*
X69348075Y-92850890D01*
X68941331Y-93019369D01*
X68575271Y-93263962D01*
X68263962Y-93575271D01*
X68019369Y-93941331D01*
X67850890Y-94348075D01*
X67765000Y-94779872D01*
X2235000Y-94779872D01*
X2149110Y-94348075D01*
X1980631Y-93941331D01*
X1736038Y-93575271D01*
X1424729Y-93263962D01*
X1058669Y-93019369D01*
X651925Y-92850890D01*
X220128Y-92765000D01*
X-220128Y-92765000D01*
X-651925Y-92850890D01*
X-1058669Y-93019369D01*
X-1424729Y-93263962D01*
X-1736038Y-93575271D01*
X-1980631Y-93941331D01*
X-2149110Y-94348075D01*
X-2235000Y-94779872D01*
X-12765000Y-94779872D01*
X-12765000Y-92036104D01*
X-12761444Y-92000000D01*
X-12775635Y-91855915D01*
X-12817663Y-91717367D01*
X-12885913Y-91589680D01*
X-12977762Y-91477762D01*
X-13089680Y-91385913D01*
X-13217367Y-91317663D01*
X-13355915Y-91275635D01*
X-13463895Y-91265000D01*
X-13500000Y-91261444D01*
X-13536105Y-91265000D01*
X-22265000Y-91265000D01*
X-22265000Y-76712745D01*
X-21509967Y-76722457D01*
X-21509966Y-76722457D01*
X-21417779Y-76717847D01*
X-21417777Y-76717847D01*
X-20169951Y-76576490D01*
X-20079068Y-76560362D01*
X-18858796Y-76263725D01*
X-18770652Y-76236333D01*
X-18352591Y-76077000D01*
X-12065000Y-76077000D01*
X-12065000Y-89920000D01*
X-12052799Y-90043882D01*
X-12016664Y-90163004D01*
X-11957983Y-90272787D01*
X-11879013Y-90369013D01*
X-11782787Y-90447983D01*
X-11673004Y-90506664D01*
X-11553882Y-90542799D01*
X-11430000Y-90555000D01*
X-7620000Y-90555000D01*
X-7469182Y-90536830D01*
X-7351742Y-90495554D01*
X-7244612Y-90432161D01*
X-7151907Y-90349085D01*
X-4913072Y-87906720D01*
X-4913072Y-89750000D01*
X-4900812Y-89874482D01*
X-4864502Y-89994180D01*
X-4805537Y-90104494D01*
X-4726185Y-90201185D01*
X-4629494Y-90280537D01*
X-4519180Y-90339502D01*
X-4399482Y-90375812D01*
X-4275000Y-90388072D01*
X-2075000Y-90388072D01*
X-1950518Y-90375812D01*
X-1830820Y-90339502D01*
X-1720506Y-90280537D01*
X-1623815Y-90201185D01*
X-1544463Y-90104494D01*
X-1485498Y-89994180D01*
X-1449188Y-89874482D01*
X-1437656Y-89757391D01*
X7239000Y-89757391D01*
X7239000Y-90082609D01*
X7302447Y-90401579D01*
X7426903Y-90702042D01*
X7607585Y-90972451D01*
X7837549Y-91202415D01*
X8107958Y-91383097D01*
X8408421Y-91507553D01*
X8727391Y-91571000D01*
X9052609Y-91571000D01*
X9371579Y-91507553D01*
X9672042Y-91383097D01*
X9942451Y-91202415D01*
X10160000Y-90984866D01*
X10377549Y-91202415D01*
X10647958Y-91383097D01*
X10948421Y-91507553D01*
X11267391Y-91571000D01*
X11592609Y-91571000D01*
X11911579Y-91507553D01*
X12212042Y-91383097D01*
X12482451Y-91202415D01*
X12712415Y-90972451D01*
X12893097Y-90702042D01*
X13017553Y-90401579D01*
X13081000Y-90082609D01*
X13081000Y-89757391D01*
X13017553Y-89438421D01*
X12893097Y-89137958D01*
X12712415Y-88867549D01*
X12482451Y-88637585D01*
X12212042Y-88456903D01*
X11911579Y-88332447D01*
X11592609Y-88269000D01*
X11267391Y-88269000D01*
X10948421Y-88332447D01*
X10647958Y-88456903D01*
X10377549Y-88637585D01*
X10160000Y-88855134D01*
X9942451Y-88637585D01*
X9672042Y-88456903D01*
X9371579Y-88332447D01*
X9052609Y-88269000D01*
X8727391Y-88269000D01*
X8408421Y-88332447D01*
X8107958Y-88456903D01*
X7837549Y-88637585D01*
X7607585Y-88867549D01*
X7426903Y-89137958D01*
X7302447Y-89438421D01*
X7239000Y-89757391D01*
X-1437656Y-89757391D01*
X-1436928Y-89750000D01*
X-1436928Y-87550000D01*
X-1449188Y-87425518D01*
X-1485498Y-87305820D01*
X-1544463Y-87195506D01*
X-1623815Y-87098815D01*
X-1720506Y-87019463D01*
X-1830820Y-86960498D01*
X-1950518Y-86924188D01*
X-2075000Y-86911928D01*
X-4001180Y-86911928D01*
X-355662Y-82935000D01*
X3175000Y-82935000D01*
X3284952Y-82925408D01*
X3404851Y-82891941D01*
X3515916Y-82835725D01*
X3613880Y-82758922D01*
X3694978Y-82664483D01*
X3756094Y-82556036D01*
X3794879Y-82437751D01*
X5064879Y-76722751D01*
X5080000Y-76585000D01*
X5080000Y-73410000D01*
X5064224Y-73269337D01*
X5024884Y-73151235D01*
X4963259Y-73043077D01*
X4881718Y-72949020D01*
X-6985000Y-61706866D01*
X-6985000Y-58008967D01*
X-365000Y-58008967D01*
X-365000Y-58331033D01*
X-302168Y-58646912D01*
X-178918Y-58944463D01*
X13Y-59212252D01*
X227748Y-59439987D01*
X495537Y-59618918D01*
X793088Y-59742168D01*
X1108967Y-59805000D01*
X1431033Y-59805000D01*
X1746912Y-59742168D01*
X2044463Y-59618918D01*
X2312252Y-59439987D01*
X2539987Y-59212252D01*
X2718918Y-58944463D01*
X2842168Y-58646912D01*
X2905000Y-58331033D01*
X2905000Y-58008967D01*
X2842168Y-57693088D01*
X2718918Y-57395537D01*
X2539987Y-57127748D01*
X2312252Y-56900013D01*
X2044463Y-56721082D01*
X1746912Y-56597832D01*
X1431033Y-56535000D01*
X1108967Y-56535000D01*
X793088Y-56597832D01*
X495537Y-56721082D01*
X227748Y-56900013D01*
X13Y-57127748D01*
X-178918Y-57395537D01*
X-302168Y-57693088D01*
X-365000Y-58008967D01*
X-6985000Y-58008967D01*
X-6985000Y-53725000D01*
X3810000Y-53725000D01*
X3810000Y-56265000D01*
X3822201Y-56388882D01*
X3858336Y-56508004D01*
X3898155Y-56582500D01*
X3858336Y-56656996D01*
X3822201Y-56776118D01*
X3810000Y-56900000D01*
X3810000Y-67695000D01*
X3835975Y-67874759D01*
X3882746Y-67990120D01*
X3951125Y-68094140D01*
X4038483Y-68182821D01*
X11430000Y-74342419D01*
X11430000Y-78490000D01*
X11442201Y-78613882D01*
X11478336Y-78733004D01*
X11537017Y-78842787D01*
X11615987Y-78939013D01*
X11712213Y-79017983D01*
X11821996Y-79076664D01*
X11941118Y-79112799D01*
X12065000Y-79125000D01*
X24501974Y-79125000D01*
X37015987Y-91639013D01*
X37112213Y-91717983D01*
X37221996Y-91776664D01*
X37341118Y-91812799D01*
X37465000Y-91825000D01*
X48260000Y-91825000D01*
X48383882Y-91812799D01*
X48503004Y-91776664D01*
X48612787Y-91717983D01*
X48709013Y-91639013D01*
X48787983Y-91542787D01*
X48846664Y-91433004D01*
X48849147Y-91424817D01*
X48952821Y-91475348D01*
X49267344Y-91558064D01*
X49591962Y-91577831D01*
X49914198Y-91533888D01*
X50221670Y-91427924D01*
X50399522Y-91332860D01*
X50497218Y-91066823D01*
X49530000Y-90099605D01*
X49515858Y-90113748D01*
X49336253Y-89934143D01*
X49350395Y-89920000D01*
X49336253Y-89905858D01*
X49515858Y-89726253D01*
X49530000Y-89740395D01*
X49544143Y-89726253D01*
X49723748Y-89905858D01*
X49709605Y-89920000D01*
X50676823Y-90887218D01*
X50720032Y-90871351D01*
X50787585Y-90972451D01*
X51017549Y-91202415D01*
X51287958Y-91383097D01*
X51588421Y-91507553D01*
X51907391Y-91571000D01*
X52232609Y-91571000D01*
X52551579Y-91507553D01*
X52852042Y-91383097D01*
X53122451Y-91202415D01*
X53258043Y-91066823D01*
X53642782Y-91066823D01*
X53740478Y-91332860D01*
X54032821Y-91475348D01*
X54347344Y-91558064D01*
X54671962Y-91577831D01*
X54994198Y-91533888D01*
X55301670Y-91427924D01*
X55479522Y-91332860D01*
X55577218Y-91066823D01*
X54610000Y-90099605D01*
X53642782Y-91066823D01*
X53258043Y-91066823D01*
X53352415Y-90972451D01*
X53419968Y-90871351D01*
X53463177Y-90887218D01*
X54430395Y-89920000D01*
X54416253Y-89905858D01*
X54595858Y-89726253D01*
X54610000Y-89740395D01*
X54624143Y-89726253D01*
X54803748Y-89905858D01*
X54789605Y-89920000D01*
X55756823Y-90887218D01*
X55800032Y-90871351D01*
X55867585Y-90972451D01*
X56097549Y-91202415D01*
X56367958Y-91383097D01*
X56668421Y-91507553D01*
X56987391Y-91571000D01*
X57312609Y-91571000D01*
X57631579Y-91507553D01*
X57932042Y-91383097D01*
X58202451Y-91202415D01*
X58432415Y-90972451D01*
X58613097Y-90702042D01*
X58737553Y-90401579D01*
X58801000Y-90082609D01*
X58801000Y-89757391D01*
X58737553Y-89438421D01*
X58674004Y-89285000D01*
X71347762Y-89285000D01*
X78910676Y-96847916D01*
X78910682Y-96847921D01*
X78967748Y-96904987D01*
X79034855Y-96949826D01*
X79097247Y-97001030D01*
X79168428Y-97039077D01*
X79235537Y-97083918D01*
X79310103Y-97114804D01*
X79381285Y-97152852D01*
X79458522Y-97176282D01*
X79533088Y-97207168D01*
X79612247Y-97222914D01*
X79689483Y-97246343D01*
X79769807Y-97254254D01*
X79848967Y-97270000D01*
X79929678Y-97270000D01*
X80010000Y-97277911D01*
X80090322Y-97270000D01*
X80171033Y-97270000D01*
X80250193Y-97254254D01*
X80330516Y-97246343D01*
X80407751Y-97222914D01*
X80486912Y-97207168D01*
X80561479Y-97176281D01*
X80638715Y-97152852D01*
X80709896Y-97114805D01*
X80784463Y-97083918D01*
X80851575Y-97039075D01*
X80922752Y-97001030D01*
X80985138Y-96949831D01*
X81052252Y-96904987D01*
X81109328Y-96847911D01*
X81171713Y-96796713D01*
X81222911Y-96734328D01*
X81279987Y-96677252D01*
X81324831Y-96610138D01*
X81376030Y-96547752D01*
X81414075Y-96476575D01*
X81458918Y-96409463D01*
X81489805Y-96334896D01*
X81527852Y-96263715D01*
X81551281Y-96186479D01*
X81582168Y-96111912D01*
X81597914Y-96032751D01*
X81621343Y-95955516D01*
X81629254Y-95875193D01*
X81645000Y-95796033D01*
X81645000Y-95715322D01*
X81652911Y-95635000D01*
X81645000Y-95554678D01*
X81645000Y-95473967D01*
X81629254Y-95394807D01*
X81621343Y-95314483D01*
X81597914Y-95237247D01*
X81582168Y-95158088D01*
X81551282Y-95083522D01*
X81527852Y-95006285D01*
X81489804Y-94935103D01*
X81458918Y-94860537D01*
X81414077Y-94793428D01*
X81376030Y-94722247D01*
X81324826Y-94659855D01*
X81279987Y-94592748D01*
X81222921Y-94535682D01*
X81222916Y-94535676D01*
X73025000Y-86337762D01*
X73025000Y-82935000D01*
X73012799Y-82811118D01*
X72976664Y-82691996D01*
X72917983Y-82582213D01*
X72839013Y-82485987D01*
X72742787Y-82407017D01*
X72700058Y-82384177D01*
X72788325Y-82171081D01*
X72855000Y-81835883D01*
X72855000Y-81494117D01*
X72788325Y-81158919D01*
X72657537Y-80843169D01*
X72467663Y-80559002D01*
X72225998Y-80317337D01*
X71941831Y-80127463D01*
X71626081Y-79996675D01*
X71290883Y-79930000D01*
X70949117Y-79930000D01*
X70613919Y-79996675D01*
X70298169Y-80127463D01*
X70014002Y-80317337D01*
X69772337Y-80559002D01*
X69582463Y-80843169D01*
X69451675Y-81158919D01*
X69385000Y-81494117D01*
X69385000Y-81609859D01*
X59325096Y-71969117D01*
X63035000Y-71969117D01*
X63035000Y-72310883D01*
X63101675Y-72646081D01*
X63232463Y-72961831D01*
X63422337Y-73245998D01*
X63664002Y-73487663D01*
X63948169Y-73677537D01*
X64263919Y-73808325D01*
X64599117Y-73875000D01*
X64940883Y-73875000D01*
X65276081Y-73808325D01*
X65591831Y-73677537D01*
X65875998Y-73487663D01*
X66117663Y-73245998D01*
X66307537Y-72961831D01*
X66438325Y-72646081D01*
X66505000Y-72310883D01*
X66505000Y-71969117D01*
X66438325Y-71633919D01*
X66307537Y-71318169D01*
X66117663Y-71034002D01*
X65875998Y-70792337D01*
X65591831Y-70602463D01*
X65276081Y-70471675D01*
X64940883Y-70405000D01*
X64599117Y-70405000D01*
X64263919Y-70471675D01*
X63948169Y-70602463D01*
X63664002Y-70792337D01*
X63422337Y-71034002D01*
X63232463Y-71318169D01*
X63101675Y-71633919D01*
X63035000Y-71969117D01*
X59325096Y-71969117D01*
X56020686Y-68802391D01*
X68199000Y-68802391D01*
X68199000Y-69127609D01*
X68262447Y-69446579D01*
X68386903Y-69747042D01*
X68567585Y-70017451D01*
X68797549Y-70247415D01*
X69067958Y-70428097D01*
X69368421Y-70552553D01*
X69687391Y-70616000D01*
X70012609Y-70616000D01*
X70331579Y-70552553D01*
X70632042Y-70428097D01*
X70902451Y-70247415D01*
X71132415Y-70017451D01*
X71313097Y-69747042D01*
X71437553Y-69446579D01*
X71501000Y-69127609D01*
X71501000Y-68802391D01*
X71437553Y-68483421D01*
X71313097Y-68182958D01*
X71132415Y-67912549D01*
X70902451Y-67682585D01*
X70801351Y-67615032D01*
X70817218Y-67571823D01*
X69850000Y-66604605D01*
X68882782Y-67571823D01*
X68898649Y-67615032D01*
X68797549Y-67682585D01*
X68567585Y-67912549D01*
X68386903Y-68182958D01*
X68262447Y-68483421D01*
X68199000Y-68802391D01*
X56020686Y-68802391D01*
X55049360Y-67871537D01*
X54962787Y-67802017D01*
X54853004Y-67743336D01*
X54733882Y-67707201D01*
X54610000Y-67695000D01*
X38735000Y-67695000D01*
X38735000Y-63504004D01*
X38888421Y-63567553D01*
X39207391Y-63631000D01*
X39532609Y-63631000D01*
X39851579Y-63567553D01*
X40152042Y-63443097D01*
X40422451Y-63262415D01*
X40640000Y-63044866D01*
X40857549Y-63262415D01*
X41127958Y-63443097D01*
X41428421Y-63567553D01*
X41747391Y-63631000D01*
X42072609Y-63631000D01*
X42391579Y-63567553D01*
X42692042Y-63443097D01*
X42962451Y-63262415D01*
X43180000Y-63044866D01*
X43397549Y-63262415D01*
X43667958Y-63443097D01*
X43968421Y-63567553D01*
X44287391Y-63631000D01*
X44612609Y-63631000D01*
X44931579Y-63567553D01*
X45232042Y-63443097D01*
X45502451Y-63262415D01*
X45720000Y-63044866D01*
X45937549Y-63262415D01*
X46207958Y-63443097D01*
X46508421Y-63567553D01*
X46827391Y-63631000D01*
X47152609Y-63631000D01*
X47471579Y-63567553D01*
X47772042Y-63443097D01*
X48042451Y-63262415D01*
X48260000Y-63044866D01*
X48477549Y-63262415D01*
X48747958Y-63443097D01*
X49048421Y-63567553D01*
X49367391Y-63631000D01*
X49692609Y-63631000D01*
X50011579Y-63567553D01*
X50312042Y-63443097D01*
X50582451Y-63262415D01*
X50718043Y-63126823D01*
X53642782Y-63126823D01*
X53740478Y-63392860D01*
X54032821Y-63535348D01*
X54347344Y-63618064D01*
X54671962Y-63637831D01*
X54994198Y-63593888D01*
X55301670Y-63487924D01*
X55479522Y-63392860D01*
X55577218Y-63126823D01*
X54610000Y-62159605D01*
X53642782Y-63126823D01*
X50718043Y-63126823D01*
X50812415Y-63032451D01*
X50993097Y-62762042D01*
X51117553Y-62461579D01*
X51181000Y-62142609D01*
X51181000Y-62041962D01*
X52952169Y-62041962D01*
X52996112Y-62364198D01*
X53102076Y-62671670D01*
X53197140Y-62849522D01*
X53463177Y-62947218D01*
X54430395Y-61980000D01*
X54789605Y-61980000D01*
X55756823Y-62947218D01*
X56022860Y-62849522D01*
X56165348Y-62557179D01*
X56248064Y-62242656D01*
X56267831Y-61918038D01*
X56223888Y-61595802D01*
X56117924Y-61288330D01*
X56022860Y-61110478D01*
X55756823Y-61012782D01*
X54789605Y-61980000D01*
X54430395Y-61980000D01*
X53463177Y-61012782D01*
X53197140Y-61110478D01*
X53054652Y-61402821D01*
X52971936Y-61717344D01*
X52952169Y-62041962D01*
X51181000Y-62041962D01*
X51181000Y-61817391D01*
X51117553Y-61498421D01*
X50993097Y-61197958D01*
X50812415Y-60927549D01*
X50718043Y-60833177D01*
X53642782Y-60833177D01*
X54610000Y-61800395D01*
X55577218Y-60833177D01*
X55479522Y-60567140D01*
X55187179Y-60424652D01*
X54872656Y-60341936D01*
X54548038Y-60322169D01*
X54225802Y-60366112D01*
X53918330Y-60472076D01*
X53740478Y-60567140D01*
X53642782Y-60833177D01*
X50718043Y-60833177D01*
X50582451Y-60697585D01*
X50312042Y-60516903D01*
X50011579Y-60392447D01*
X49692609Y-60329000D01*
X49367391Y-60329000D01*
X49048421Y-60392447D01*
X48747958Y-60516903D01*
X48477549Y-60697585D01*
X48260000Y-60915134D01*
X48042451Y-60697585D01*
X47772042Y-60516903D01*
X47471579Y-60392447D01*
X47152609Y-60329000D01*
X46827391Y-60329000D01*
X46508421Y-60392447D01*
X46207958Y-60516903D01*
X45937549Y-60697585D01*
X45720000Y-60915134D01*
X45502451Y-60697585D01*
X45232042Y-60516903D01*
X44931579Y-60392447D01*
X44612609Y-60329000D01*
X44287391Y-60329000D01*
X43968421Y-60392447D01*
X43667958Y-60516903D01*
X43397549Y-60697585D01*
X43180000Y-60915134D01*
X42962451Y-60697585D01*
X42692042Y-60516903D01*
X42391579Y-60392447D01*
X42072609Y-60329000D01*
X41747391Y-60329000D01*
X41428421Y-60392447D01*
X41127958Y-60516903D01*
X40857549Y-60697585D01*
X40640000Y-60915134D01*
X40422451Y-60697585D01*
X40152042Y-60516903D01*
X39851579Y-60392447D01*
X39532609Y-60329000D01*
X39207391Y-60329000D01*
X38888421Y-60392447D01*
X38587958Y-60516903D01*
X38317549Y-60697585D01*
X38100000Y-60915134D01*
X37882451Y-60697585D01*
X37612042Y-60516903D01*
X37311579Y-60392447D01*
X36992609Y-60329000D01*
X36667391Y-60329000D01*
X36348421Y-60392447D01*
X36195000Y-60455996D01*
X36195000Y-44835000D01*
X36182799Y-44711118D01*
X36161462Y-44640777D01*
X36194987Y-44607252D01*
X36195000Y-44607233D01*
X36195013Y-44607252D01*
X36422748Y-44834987D01*
X36690537Y-45013918D01*
X36988088Y-45137168D01*
X37303967Y-45200000D01*
X37626033Y-45200000D01*
X37941912Y-45137168D01*
X38239463Y-45013918D01*
X38507252Y-44834987D01*
X38734987Y-44607252D01*
X38735000Y-44607233D01*
X38735013Y-44607252D01*
X38962748Y-44834987D01*
X39230537Y-45013918D01*
X39528088Y-45137168D01*
X39843967Y-45200000D01*
X40166033Y-45200000D01*
X40481912Y-45137168D01*
X40779463Y-45013918D01*
X41047252Y-44834987D01*
X41274987Y-44607252D01*
X41275000Y-44607233D01*
X41275013Y-44607252D01*
X41502748Y-44834987D01*
X41770537Y-45013918D01*
X42068088Y-45137168D01*
X42383967Y-45200000D01*
X42706033Y-45200000D01*
X43021912Y-45137168D01*
X43319463Y-45013918D01*
X43587252Y-44834987D01*
X43814987Y-44607252D01*
X43815000Y-44607233D01*
X43815013Y-44607252D01*
X44042748Y-44834987D01*
X44310537Y-45013918D01*
X44608088Y-45137168D01*
X44923967Y-45200000D01*
X45246033Y-45200000D01*
X45561912Y-45137168D01*
X45859463Y-45013918D01*
X46127252Y-44834987D01*
X46354987Y-44607252D01*
X46355000Y-44607233D01*
X46355013Y-44607252D01*
X46582748Y-44834987D01*
X46850537Y-45013918D01*
X47148088Y-45137168D01*
X47463967Y-45200000D01*
X47786033Y-45200000D01*
X48101912Y-45137168D01*
X48399463Y-45013918D01*
X48667252Y-44834987D01*
X48801826Y-44700413D01*
X49209192Y-44700413D01*
X49304956Y-44964814D01*
X49594571Y-45105704D01*
X49906108Y-45187384D01*
X50227595Y-45206718D01*
X50546675Y-45162961D01*
X50851088Y-45057795D01*
X51025044Y-44964814D01*
X51120808Y-44700413D01*
X50165000Y-43744605D01*
X49209192Y-44700413D01*
X48801826Y-44700413D01*
X48894987Y-44607252D01*
X48967720Y-44498400D01*
X49029587Y-44520808D01*
X49985395Y-43565000D01*
X50344605Y-43565000D01*
X51300413Y-44520808D01*
X51564814Y-44425044D01*
X51705704Y-44135429D01*
X51787384Y-43823892D01*
X51806718Y-43502405D01*
X51793219Y-43403967D01*
X53610000Y-43403967D01*
X53610000Y-43726033D01*
X53672832Y-44041912D01*
X53796082Y-44339463D01*
X53975013Y-44607252D01*
X54202748Y-44834987D01*
X54470537Y-45013918D01*
X54768088Y-45137168D01*
X55083967Y-45200000D01*
X55406033Y-45200000D01*
X55721912Y-45137168D01*
X56019463Y-45013918D01*
X56287252Y-44834987D01*
X56514987Y-44607252D01*
X56515000Y-44607233D01*
X56515013Y-44607252D01*
X56742748Y-44834987D01*
X57010537Y-45013918D01*
X57308088Y-45137168D01*
X57623967Y-45200000D01*
X57946033Y-45200000D01*
X58261912Y-45137168D01*
X58559463Y-45013918D01*
X58827252Y-44834987D01*
X59054987Y-44607252D01*
X59055000Y-44607233D01*
X59055013Y-44607252D01*
X59282748Y-44834987D01*
X59550537Y-45013918D01*
X59848088Y-45137168D01*
X60163967Y-45200000D01*
X60486033Y-45200000D01*
X60801912Y-45137168D01*
X61099463Y-45013918D01*
X61367252Y-44834987D01*
X61594987Y-44607252D01*
X61595000Y-44607233D01*
X61595013Y-44607252D01*
X61822748Y-44834987D01*
X62090537Y-45013918D01*
X62388088Y-45137168D01*
X62703967Y-45200000D01*
X63026033Y-45200000D01*
X63341912Y-45137168D01*
X63639463Y-45013918D01*
X63907252Y-44834987D01*
X64134987Y-44607252D01*
X64135000Y-44607233D01*
X64135013Y-44607252D01*
X64362748Y-44834987D01*
X64630537Y-45013918D01*
X64928088Y-45137168D01*
X65243967Y-45200000D01*
X65566033Y-45200000D01*
X65881912Y-45137168D01*
X66179463Y-45013918D01*
X66447252Y-44834987D01*
X66674987Y-44607252D01*
X66675000Y-44607233D01*
X66675013Y-44607252D01*
X66902748Y-44834987D01*
X67170537Y-45013918D01*
X67468088Y-45137168D01*
X67783967Y-45200000D01*
X68106033Y-45200000D01*
X68421912Y-45137168D01*
X68719463Y-45013918D01*
X68987252Y-44834987D01*
X69214987Y-44607252D01*
X69215000Y-44607233D01*
X69215013Y-44607252D01*
X69442748Y-44834987D01*
X69710537Y-45013918D01*
X70008088Y-45137168D01*
X70323967Y-45200000D01*
X70646033Y-45200000D01*
X70961912Y-45137168D01*
X71259463Y-45013918D01*
X71527252Y-44834987D01*
X71661826Y-44700413D01*
X72069192Y-44700413D01*
X72164956Y-44964814D01*
X72454571Y-45105704D01*
X72766108Y-45187384D01*
X73087595Y-45206718D01*
X73406675Y-45162961D01*
X73711088Y-45057795D01*
X73885044Y-44964814D01*
X73980808Y-44700413D01*
X73025000Y-43744605D01*
X72069192Y-44700413D01*
X71661826Y-44700413D01*
X71754987Y-44607252D01*
X71827720Y-44498400D01*
X71889587Y-44520808D01*
X72845395Y-43565000D01*
X73204605Y-43565000D01*
X74160413Y-44520808D01*
X74424814Y-44425044D01*
X74565704Y-44135429D01*
X74647384Y-43823892D01*
X74666718Y-43502405D01*
X74622961Y-43183325D01*
X74517795Y-42878912D01*
X74424814Y-42704956D01*
X74160413Y-42609192D01*
X73204605Y-43565000D01*
X72845395Y-43565000D01*
X71889587Y-42609192D01*
X71827720Y-42631600D01*
X71754987Y-42522748D01*
X71661826Y-42429587D01*
X72069192Y-42429587D01*
X73025000Y-43385395D01*
X73980808Y-42429587D01*
X73885044Y-42165186D01*
X73595429Y-42024296D01*
X73283892Y-41942616D01*
X72962405Y-41923282D01*
X72643325Y-41967039D01*
X72338912Y-42072205D01*
X72164956Y-42165186D01*
X72069192Y-42429587D01*
X71661826Y-42429587D01*
X71527252Y-42295013D01*
X71259463Y-42116082D01*
X70961912Y-41992832D01*
X70646033Y-41930000D01*
X70323967Y-41930000D01*
X70008088Y-41992832D01*
X69710537Y-42116082D01*
X69442748Y-42295013D01*
X69215013Y-42522748D01*
X69215000Y-42522767D01*
X69214987Y-42522748D01*
X68987252Y-42295013D01*
X68719463Y-42116082D01*
X68421912Y-41992832D01*
X68106033Y-41930000D01*
X67783967Y-41930000D01*
X67468088Y-41992832D01*
X67170537Y-42116082D01*
X66902748Y-42295013D01*
X66675013Y-42522748D01*
X66675000Y-42522767D01*
X66674987Y-42522748D01*
X66447252Y-42295013D01*
X66179463Y-42116082D01*
X65881912Y-41992832D01*
X65566033Y-41930000D01*
X65243967Y-41930000D01*
X64928088Y-41992832D01*
X64630537Y-42116082D01*
X64362748Y-42295013D01*
X64135013Y-42522748D01*
X64135000Y-42522767D01*
X64134987Y-42522748D01*
X63907252Y-42295013D01*
X63639463Y-42116082D01*
X63341912Y-41992832D01*
X63026033Y-41930000D01*
X62703967Y-41930000D01*
X62388088Y-41992832D01*
X62090537Y-42116082D01*
X61822748Y-42295013D01*
X61595013Y-42522748D01*
X61595000Y-42522767D01*
X61594987Y-42522748D01*
X61367252Y-42295013D01*
X61099463Y-42116082D01*
X60801912Y-41992832D01*
X60486033Y-41930000D01*
X60163967Y-41930000D01*
X59848088Y-41992832D01*
X59550537Y-42116082D01*
X59282748Y-42295013D01*
X59055013Y-42522748D01*
X59055000Y-42522767D01*
X59054987Y-42522748D01*
X58827252Y-42295013D01*
X58559463Y-42116082D01*
X58261912Y-41992832D01*
X57946033Y-41930000D01*
X57623967Y-41930000D01*
X57308088Y-41992832D01*
X57010537Y-42116082D01*
X56742748Y-42295013D01*
X56515013Y-42522748D01*
X56515000Y-42522767D01*
X56514987Y-42522748D01*
X56287252Y-42295013D01*
X56019463Y-42116082D01*
X55721912Y-41992832D01*
X55406033Y-41930000D01*
X55083967Y-41930000D01*
X54768088Y-41992832D01*
X54470537Y-42116082D01*
X54202748Y-42295013D01*
X53975013Y-42522748D01*
X53796082Y-42790537D01*
X53672832Y-43088088D01*
X53610000Y-43403967D01*
X51793219Y-43403967D01*
X51762961Y-43183325D01*
X51657795Y-42878912D01*
X51564814Y-42704956D01*
X51300413Y-42609192D01*
X50344605Y-43565000D01*
X49985395Y-43565000D01*
X49029587Y-42609192D01*
X48967720Y-42631600D01*
X48894987Y-42522748D01*
X48801826Y-42429587D01*
X49209192Y-42429587D01*
X50165000Y-43385395D01*
X51120808Y-42429587D01*
X51025044Y-42165186D01*
X50735429Y-42024296D01*
X50423892Y-41942616D01*
X50102405Y-41923282D01*
X49783325Y-41967039D01*
X49478912Y-42072205D01*
X49304956Y-42165186D01*
X49209192Y-42429587D01*
X48801826Y-42429587D01*
X48667252Y-42295013D01*
X48399463Y-42116082D01*
X48101912Y-41992832D01*
X47786033Y-41930000D01*
X47463967Y-41930000D01*
X47148088Y-41992832D01*
X46850537Y-42116082D01*
X46582748Y-42295013D01*
X46355013Y-42522748D01*
X46355000Y-42522767D01*
X46354987Y-42522748D01*
X46127252Y-42295013D01*
X45859463Y-42116082D01*
X45561912Y-41992832D01*
X45246033Y-41930000D01*
X44923967Y-41930000D01*
X44608088Y-41992832D01*
X44310537Y-42116082D01*
X44042748Y-42295013D01*
X43815013Y-42522748D01*
X43815000Y-42522767D01*
X43814987Y-42522748D01*
X43587252Y-42295013D01*
X43319463Y-42116082D01*
X43021912Y-41992832D01*
X42706033Y-41930000D01*
X42383967Y-41930000D01*
X42068088Y-41992832D01*
X41770537Y-42116082D01*
X41502748Y-42295013D01*
X41275013Y-42522748D01*
X41275000Y-42522767D01*
X41274987Y-42522748D01*
X41047252Y-42295013D01*
X40779463Y-42116082D01*
X40481912Y-41992832D01*
X40166033Y-41930000D01*
X39843967Y-41930000D01*
X39528088Y-41992832D01*
X39230537Y-42116082D01*
X38962748Y-42295013D01*
X38735013Y-42522748D01*
X38735000Y-42522767D01*
X38734987Y-42522748D01*
X38507252Y-42295013D01*
X38239463Y-42116082D01*
X37941912Y-41992832D01*
X37626033Y-41930000D01*
X37303967Y-41930000D01*
X36988088Y-41992832D01*
X36690537Y-42116082D01*
X36422748Y-42295013D01*
X36195013Y-42522748D01*
X36195000Y-42522767D01*
X36194987Y-42522748D01*
X35967252Y-42295013D01*
X35699463Y-42116082D01*
X35401912Y-41992832D01*
X35086033Y-41930000D01*
X34763967Y-41930000D01*
X34448088Y-41992832D01*
X34150537Y-42116082D01*
X33882748Y-42295013D01*
X33655013Y-42522748D01*
X33655000Y-42522767D01*
X33654987Y-42522748D01*
X33427252Y-42295013D01*
X33159463Y-42116082D01*
X32861912Y-41992832D01*
X32546033Y-41930000D01*
X32223967Y-41930000D01*
X31908088Y-41992832D01*
X31750000Y-42058314D01*
X31750000Y-41660000D01*
X31737799Y-41536118D01*
X31701664Y-41416996D01*
X31642983Y-41307213D01*
X31564013Y-41210987D01*
X31467787Y-41132017D01*
X31358004Y-41073336D01*
X31238882Y-41037201D01*
X31115000Y-41025000D01*
X22225000Y-41025000D01*
X22101118Y-41037201D01*
X21981996Y-41073336D01*
X21872213Y-41132017D01*
X21775987Y-41210987D01*
X21697017Y-41307213D01*
X21638336Y-41416996D01*
X21602201Y-41536118D01*
X21590000Y-41660000D01*
X21590000Y-44835000D01*
X21602201Y-44958882D01*
X21638336Y-45078004D01*
X21697017Y-45187787D01*
X21775987Y-45284013D01*
X21872213Y-45362983D01*
X21981996Y-45421664D01*
X21990183Y-45424147D01*
X21939652Y-45527821D01*
X21856936Y-45842344D01*
X21837169Y-46166962D01*
X21881112Y-46489198D01*
X21967546Y-46740000D01*
X12065000Y-46740000D01*
X11998012Y-46743543D01*
X11876108Y-46768745D01*
X11761463Y-46817245D01*
X11658483Y-46887179D01*
X4038483Y-53237179D01*
X3917017Y-53372213D01*
X3858336Y-53481996D01*
X3822201Y-53601118D01*
X3810000Y-53725000D01*
X-6985000Y-53725000D01*
X-6985000Y-50259925D01*
X-6856081Y-50313325D01*
X-6520883Y-50380000D01*
X-6179117Y-50380000D01*
X-5843919Y-50313325D01*
X-5528169Y-50182537D01*
X-5244002Y-49992663D01*
X-5080000Y-49828661D01*
X-4915998Y-49992663D01*
X-4631831Y-50182537D01*
X-4316081Y-50313325D01*
X-3980883Y-50380000D01*
X-3639117Y-50380000D01*
X-3303919Y-50313325D01*
X-2988169Y-50182537D01*
X-2704002Y-49992663D01*
X-2462337Y-49750998D01*
X-2272463Y-49466831D01*
X-2141675Y-49151081D01*
X-2075000Y-48815883D01*
X-2075000Y-48474117D01*
X-2141675Y-48138919D01*
X-2272463Y-47823169D01*
X-2462337Y-47539002D01*
X-2626339Y-47375000D01*
X8255000Y-47375000D01*
X8378882Y-47362799D01*
X8498004Y-47326664D01*
X8607787Y-47267983D01*
X8704013Y-47189013D01*
X8782983Y-47092787D01*
X8841664Y-46983004D01*
X8877799Y-46863882D01*
X8890000Y-46740000D01*
X8890000Y-39755000D01*
X8877799Y-39631118D01*
X8866530Y-39593967D01*
X68850000Y-39593967D01*
X68850000Y-39916033D01*
X68912832Y-40231912D01*
X69036082Y-40529463D01*
X69215013Y-40797252D01*
X69442748Y-41024987D01*
X69710537Y-41203918D01*
X70008088Y-41327168D01*
X70323967Y-41390000D01*
X70646033Y-41390000D01*
X70961912Y-41327168D01*
X71259463Y-41203918D01*
X71527252Y-41024987D01*
X71754987Y-40797252D01*
X71933918Y-40529463D01*
X72057168Y-40231912D01*
X72120000Y-39916033D01*
X72120000Y-39593967D01*
X72057168Y-39278088D01*
X71933918Y-38980537D01*
X71754987Y-38712748D01*
X71527252Y-38485013D01*
X71259463Y-38306082D01*
X70961912Y-38182832D01*
X70646033Y-38120000D01*
X70323967Y-38120000D01*
X70008088Y-38182832D01*
X69710537Y-38306082D01*
X69442748Y-38485013D01*
X69215013Y-38712748D01*
X69036082Y-38980537D01*
X68912832Y-39278088D01*
X68850000Y-39593967D01*
X8866530Y-39593967D01*
X8841664Y-39511996D01*
X8782983Y-39402213D01*
X8704013Y-39305987D01*
X8607787Y-39227017D01*
X8498004Y-39168336D01*
X8378882Y-39132201D01*
X8255000Y-39120000D01*
X6487240Y-39120000D01*
X6661632Y-39003475D01*
X6868475Y-38796632D01*
X7030990Y-38553411D01*
X7142932Y-38283158D01*
X7200000Y-37996260D01*
X7200000Y-37703740D01*
X7197062Y-37688967D01*
X7890000Y-37688967D01*
X7890000Y-38011033D01*
X7952832Y-38326912D01*
X8076082Y-38624463D01*
X8255013Y-38892252D01*
X8482748Y-39119987D01*
X8750537Y-39298918D01*
X9048088Y-39422168D01*
X9363967Y-39485000D01*
X9686033Y-39485000D01*
X10001912Y-39422168D01*
X10299463Y-39298918D01*
X10567252Y-39119987D01*
X10794987Y-38892252D01*
X10973918Y-38624463D01*
X11097168Y-38326912D01*
X11160000Y-38011033D01*
X11160000Y-37688967D01*
X11097168Y-37373088D01*
X10973918Y-37075537D01*
X10794987Y-36807748D01*
X10567252Y-36580013D01*
X10299463Y-36401082D01*
X10001912Y-36277832D01*
X9686033Y-36215000D01*
X9363967Y-36215000D01*
X9048088Y-36277832D01*
X8750537Y-36401082D01*
X8482748Y-36580013D01*
X8255013Y-36807748D01*
X8076082Y-37075537D01*
X7952832Y-37373088D01*
X7890000Y-37688967D01*
X7197062Y-37688967D01*
X7142932Y-37416842D01*
X7030990Y-37146589D01*
X6868475Y-36903368D01*
X6661632Y-36696525D01*
X6418411Y-36534010D01*
X6148158Y-36422068D01*
X5861260Y-36365000D01*
X5568740Y-36365000D01*
X5281842Y-36422068D01*
X5011589Y-36534010D01*
X4898059Y-36609868D01*
X4885812Y-36485518D01*
X4849502Y-36365820D01*
X4790537Y-36255506D01*
X4711185Y-36158815D01*
X4614494Y-36079463D01*
X4504180Y-36020498D01*
X4384482Y-35984188D01*
X4260000Y-35971928D01*
X-1732569Y-35971928D01*
X-1781118Y-35957201D01*
X-1905000Y-35945000D01*
X-6985000Y-35945000D01*
X-7108882Y-35957201D01*
X-7228004Y-35993336D01*
X-7337787Y-36052017D01*
X-7434013Y-36130987D01*
X-7512983Y-36227213D01*
X-7571664Y-36336996D01*
X-7607799Y-36456118D01*
X-7620000Y-36580000D01*
X-7620000Y-46740000D01*
X-12065000Y-46740000D01*
X-12065000Y-36580000D01*
X-12077201Y-36456118D01*
X-12113336Y-36336996D01*
X-12172017Y-36227213D01*
X-12250987Y-36130987D01*
X-12347213Y-36052017D01*
X-12456996Y-35993336D01*
X-12576118Y-35957201D01*
X-12700000Y-35945000D01*
X-24265000Y-35945000D01*
X-24265000Y-29151873D01*
X-23585750Y-29150000D01*
X-23427000Y-28991250D01*
X-23427000Y-25642000D01*
X-23173000Y-25642000D01*
X-23173000Y-28991250D01*
X-23014250Y-29150000D01*
X-21900000Y-29153072D01*
X-21775518Y-29140812D01*
X-21655820Y-29104502D01*
X-21545506Y-29045537D01*
X-21448815Y-28966185D01*
X-21369463Y-28869494D01*
X-21310498Y-28759180D01*
X-21274188Y-28639482D01*
X-21261928Y-28515000D01*
X-21265000Y-25800750D01*
X-21423750Y-25642000D01*
X-23173000Y-25642000D01*
X-23427000Y-25642000D01*
X-23447000Y-25642000D01*
X-23447000Y-25388000D01*
X-23427000Y-25388000D01*
X-23427000Y-25368000D01*
X-23173000Y-25368000D01*
X-23173000Y-25388000D01*
X-21423750Y-25388000D01*
X-21265000Y-25229250D01*
X-21261928Y-22515000D01*
X-21269807Y-22435000D01*
X-8036105Y-22435000D01*
X-8000000Y-22438556D01*
X-7963895Y-22435000D01*
X-7855915Y-22424365D01*
X-7717367Y-22382337D01*
X-7589680Y-22314087D01*
X-7477762Y-22222238D01*
X-7385913Y-22110320D01*
X-7317663Y-21982633D01*
X-7275635Y-21844085D01*
X-7261444Y-21700000D01*
X-7265000Y-21663895D01*
X-7265000Y-15625000D01*
X-5715000Y-15625000D01*
X-5715000Y-32135000D01*
X-5702799Y-32258882D01*
X-5666664Y-32378004D01*
X-5607983Y-32487787D01*
X-5529013Y-32584013D01*
X-5432787Y-32662983D01*
X-5323004Y-32721664D01*
X-5203882Y-32757799D01*
X-5080000Y-32770000D01*
X6350000Y-32770000D01*
X6473882Y-32757799D01*
X6593004Y-32721664D01*
X6702787Y-32662983D01*
X6799013Y-32584013D01*
X6877983Y-32487787D01*
X6936664Y-32378004D01*
X6972799Y-32258882D01*
X6985000Y-32135000D01*
X6985000Y-17557403D01*
X70240000Y-17557403D01*
X70240000Y-18842596D01*
X70267275Y-19119523D01*
X70375061Y-19474847D01*
X70550097Y-19802317D01*
X70785655Y-20089345D01*
X71072683Y-20324903D01*
X71400152Y-20499939D01*
X71755476Y-20607725D01*
X72125000Y-20644120D01*
X72494523Y-20607725D01*
X72849847Y-20499939D01*
X73177317Y-20324903D01*
X73464345Y-20089345D01*
X73699903Y-19802317D01*
X73874939Y-19474848D01*
X73982725Y-19119524D01*
X74010000Y-18842597D01*
X74010000Y-17557403D01*
X73982725Y-17280476D01*
X73874939Y-16925152D01*
X73699903Y-16597683D01*
X73464345Y-16310655D01*
X73177317Y-16075097D01*
X72849848Y-15900061D01*
X72494524Y-15792275D01*
X72125000Y-15755880D01*
X71755477Y-15792275D01*
X71400153Y-15900061D01*
X71072684Y-16075097D01*
X70785656Y-16310655D01*
X70550098Y-16597683D01*
X70375061Y-16925152D01*
X70267275Y-17280476D01*
X70240000Y-17557403D01*
X6985000Y-17557403D01*
X6985000Y-15625000D01*
X6972799Y-15501118D01*
X6936664Y-15381996D01*
X6877983Y-15272213D01*
X6799013Y-15175987D01*
X6702787Y-15097017D01*
X6593004Y-15038336D01*
X6473882Y-15002201D01*
X6350000Y-14990000D01*
X-5080000Y-14990000D01*
X-5203882Y-15002201D01*
X-5323004Y-15038336D01*
X-5432787Y-15097017D01*
X-5529013Y-15175987D01*
X-5607983Y-15272213D01*
X-5666664Y-15381996D01*
X-5702799Y-15501118D01*
X-5715000Y-15625000D01*
X-7265000Y-15625000D01*
X-7265000Y220128D01*
X-2235000Y220128D01*
X-2235000Y-220128D01*
X-2149110Y-651925D01*
X-1980631Y-1058669D01*
X-1736038Y-1424729D01*
X-1424729Y-1736038D01*
X-1058669Y-1980631D01*
X-651925Y-2149110D01*
X-220128Y-2235000D01*
X220128Y-2235000D01*
X651925Y-2149110D01*
X1058669Y-1980631D01*
X1424729Y-1736038D01*
X1736038Y-1424729D01*
X1980631Y-1058669D01*
X2149110Y-651925D01*
X2235000Y-220128D01*
X2235000Y220128D01*
X67765000Y220128D01*
X67765000Y-220128D01*
X67850890Y-651925D01*
X68019369Y-1058669D01*
X68263962Y-1424729D01*
X68575271Y-1736038D01*
X68941331Y-1980631D01*
X69348075Y-2149110D01*
X69779872Y-2235000D01*
X70220128Y-2235000D01*
X70651925Y-2149110D01*
X71058669Y-1980631D01*
X71424729Y-1736038D01*
X71736038Y-1424729D01*
X71980631Y-1058669D01*
X72149110Y-651925D01*
X72235000Y-220128D01*
X72235000Y220128D01*
X72149110Y651925D01*
X71980631Y1058669D01*
X71736038Y1424729D01*
X71424729Y1736038D01*
X71058669Y1980631D01*
X70651925Y2149110D01*
X70220128Y2235000D01*
X69779872Y2235000D01*
X69348075Y2149110D01*
X68941331Y1980631D01*
X68575271Y1736038D01*
X68263962Y1424729D01*
X68019369Y1058669D01*
X67850890Y651925D01*
X67765000Y220128D01*
X2235000Y220128D01*
X2149110Y651925D01*
X1980631Y1058669D01*
X1736038Y1424729D01*
X1424729Y1736038D01*
X1058669Y1980631D01*
X651925Y2149110D01*
X220128Y2235000D01*
X-220128Y2235000D01*
X-651925Y2149110D01*
X-1058669Y1980631D01*
X-1424729Y1736038D01*
X-1736038Y1424729D01*
X-1980631Y1058669D01*
X-2149110Y651925D01*
X-2235000Y220128D01*
X-7265000Y220128D01*
X-7265000Y2565000D01*
X77265000Y2565000D01*
X77265001Y-41663885D01*
G37*
X77265001Y-41663885D02*
X77261444Y-41700000D01*
X77275635Y-41844085D01*
X77317663Y-41982633D01*
X77385913Y-42110320D01*
X77477762Y-42222238D01*
X77589680Y-42314087D01*
X77717367Y-42382337D01*
X77855915Y-42424365D01*
X77963895Y-42435000D01*
X78000000Y-42438556D01*
X78036105Y-42435000D01*
X89265000Y-42435000D01*
X89265001Y-55634435D01*
X88347751Y-55906819D01*
X88261093Y-55938599D01*
X88261091Y-55938600D01*
X87807688Y-56138000D01*
X82550000Y-56138000D01*
X82550000Y-53090000D01*
X82537799Y-52966118D01*
X82501664Y-52846996D01*
X82442983Y-52737213D01*
X82364013Y-52640987D01*
X82267787Y-52562017D01*
X82158004Y-52503336D01*
X82038882Y-52467201D01*
X81915000Y-52455000D01*
X80417233Y-52455000D01*
X80417252Y-52454987D01*
X80644987Y-52227252D01*
X80823918Y-51959463D01*
X80947168Y-51661912D01*
X81010000Y-51346033D01*
X81010000Y-51023967D01*
X80947168Y-50708088D01*
X80823918Y-50410537D01*
X80644987Y-50142748D01*
X80417252Y-49915013D01*
X80149463Y-49736082D01*
X79851912Y-49612832D01*
X79536033Y-49550000D01*
X79213967Y-49550000D01*
X78898088Y-49612832D01*
X78600537Y-49736082D01*
X78332748Y-49915013D01*
X78105013Y-50142748D01*
X77926082Y-50410537D01*
X77802832Y-50708088D01*
X77740000Y-51023967D01*
X77740000Y-51346033D01*
X77802832Y-51661912D01*
X77926082Y-51959463D01*
X78105013Y-52227252D01*
X78332748Y-52454987D01*
X78332767Y-52455000D01*
X66040000Y-52455000D01*
X65916118Y-52467201D01*
X65796996Y-52503336D01*
X65687213Y-52562017D01*
X65590987Y-52640987D01*
X65512017Y-52737213D01*
X65453336Y-52846996D01*
X65417201Y-52966118D01*
X65405000Y-53090000D01*
X65405000Y-65155000D01*
X65417201Y-65278882D01*
X65430259Y-65321928D01*
X63670000Y-65321928D01*
X63545518Y-65334188D01*
X63425820Y-65370498D01*
X63315506Y-65429463D01*
X63218815Y-65508815D01*
X63139463Y-65605506D01*
X63080498Y-65715820D01*
X63044188Y-65835518D01*
X63031928Y-65960000D01*
X63031928Y-68160000D01*
X63044188Y-68284482D01*
X63080498Y-68404180D01*
X63139463Y-68514494D01*
X63218815Y-68611185D01*
X63315506Y-68690537D01*
X63425820Y-68749502D01*
X63545518Y-68785812D01*
X63670000Y-68798072D01*
X65870000Y-68798072D01*
X65994482Y-68785812D01*
X66114180Y-68749502D01*
X66224494Y-68690537D01*
X66321185Y-68611185D01*
X66400537Y-68514494D01*
X66459502Y-68404180D01*
X66495812Y-68284482D01*
X66508072Y-68160000D01*
X66508072Y-65960000D01*
X66495812Y-65835518D01*
X66482004Y-65790000D01*
X68322834Y-65790000D01*
X68294652Y-65847821D01*
X68211936Y-66162344D01*
X68192169Y-66486962D01*
X68236112Y-66809198D01*
X68342076Y-67116670D01*
X68437140Y-67294522D01*
X68703177Y-67392218D01*
X69670395Y-66425000D01*
X69656253Y-66410858D01*
X69835858Y-66231253D01*
X69850000Y-66245395D01*
X69864143Y-66231253D01*
X70043748Y-66410858D01*
X70029605Y-66425000D01*
X70996823Y-67392218D01*
X71262860Y-67294522D01*
X71405348Y-67002179D01*
X71488064Y-66687656D01*
X71507831Y-66363038D01*
X71463888Y-66040802D01*
X71377454Y-65790000D01*
X71755000Y-65790000D01*
X71837130Y-65784666D01*
X71958394Y-65756545D01*
X72071841Y-65705306D01*
X72173113Y-65632919D01*
X72258316Y-65542166D01*
X77886928Y-58224970D01*
X77886928Y-59020000D01*
X77899188Y-59144482D01*
X77935498Y-59264180D01*
X77994463Y-59374494D01*
X78073815Y-59471185D01*
X78170506Y-59550537D01*
X78280820Y-59609502D01*
X78400518Y-59645812D01*
X78525000Y-59658072D01*
X80225000Y-59658072D01*
X80349482Y-59645812D01*
X80469180Y-59609502D01*
X80579494Y-59550537D01*
X80676185Y-59471185D01*
X80755537Y-59374494D01*
X80814502Y-59264180D01*
X80850812Y-59144482D01*
X80863072Y-59020000D01*
X80863072Y-57535000D01*
X81788000Y-57535000D01*
X81788000Y-62736011D01*
X81521074Y-63675499D01*
X81501472Y-63765696D01*
X81312365Y-65007187D01*
X81304223Y-65099129D01*
X81272208Y-66354531D01*
X81275653Y-66446769D01*
X81401234Y-67696284D01*
X81416213Y-67787363D01*
X81697410Y-69011286D01*
X81723685Y-69099769D01*
X81788000Y-69275147D01*
X81788000Y-75950000D01*
X81790440Y-75974776D01*
X81797667Y-75998601D01*
X81809403Y-76020557D01*
X81825197Y-76039803D01*
X81844443Y-76055597D01*
X81866399Y-76067333D01*
X81890224Y-76074560D01*
X81915000Y-76077000D01*
X88356219Y-76077000D01*
X89022110Y-76312292D01*
X89110898Y-76337518D01*
X90338060Y-76604204D01*
X90338063Y-76604205D01*
X90429313Y-76618105D01*
X91680228Y-76728885D01*
X91772500Y-76731238D01*
X91772501Y-76731238D01*
X92265000Y-76712842D01*
X92265001Y-91265000D01*
X83536105Y-91265000D01*
X83500000Y-91261444D01*
X83463895Y-91265000D01*
X83355915Y-91275635D01*
X83217367Y-91317663D01*
X83089680Y-91385913D01*
X82977762Y-91477762D01*
X82885913Y-91589680D01*
X82817663Y-91717367D01*
X82775635Y-91855915D01*
X82761444Y-92000000D01*
X82765000Y-92036104D01*
X82765001Y-97565000D01*
X-12765000Y-97565000D01*
X-12765000Y-94779872D01*
X-2235000Y-94779872D01*
X-2235000Y-95220128D01*
X-2149110Y-95651925D01*
X-1980631Y-96058669D01*
X-1736038Y-96424729D01*
X-1424729Y-96736038D01*
X-1058669Y-96980631D01*
X-651925Y-97149110D01*
X-220128Y-97235000D01*
X220128Y-97235000D01*
X651925Y-97149110D01*
X1058669Y-96980631D01*
X1424729Y-96736038D01*
X1736038Y-96424729D01*
X1980631Y-96058669D01*
X2149110Y-95651925D01*
X2235000Y-95220128D01*
X2235000Y-94779872D01*
X67765000Y-94779872D01*
X67765000Y-95220128D01*
X67850890Y-95651925D01*
X68019369Y-96058669D01*
X68263962Y-96424729D01*
X68575271Y-96736038D01*
X68941331Y-96980631D01*
X69348075Y-97149110D01*
X69779872Y-97235000D01*
X70220128Y-97235000D01*
X70651925Y-97149110D01*
X71058669Y-96980631D01*
X71424729Y-96736038D01*
X71736038Y-96424729D01*
X71980631Y-96058669D01*
X72149110Y-95651925D01*
X72235000Y-95220128D01*
X72235000Y-94779872D01*
X72149110Y-94348075D01*
X71980631Y-93941331D01*
X71736038Y-93575271D01*
X71424729Y-93263962D01*
X71058669Y-93019369D01*
X70651925Y-92850890D01*
X70220128Y-92765000D01*
X69779872Y-92765000D01*
X69348075Y-92850890D01*
X68941331Y-93019369D01*
X68575271Y-93263962D01*
X68263962Y-93575271D01*
X68019369Y-93941331D01*
X67850890Y-94348075D01*
X67765000Y-94779872D01*
X2235000Y-94779872D01*
X2149110Y-94348075D01*
X1980631Y-93941331D01*
X1736038Y-93575271D01*
X1424729Y-93263962D01*
X1058669Y-93019369D01*
X651925Y-92850890D01*
X220128Y-92765000D01*
X-220128Y-92765000D01*
X-651925Y-92850890D01*
X-1058669Y-93019369D01*
X-1424729Y-93263962D01*
X-1736038Y-93575271D01*
X-1980631Y-93941331D01*
X-2149110Y-94348075D01*
X-2235000Y-94779872D01*
X-12765000Y-94779872D01*
X-12765000Y-92036104D01*
X-12761444Y-92000000D01*
X-12775635Y-91855915D01*
X-12817663Y-91717367D01*
X-12885913Y-91589680D01*
X-12977762Y-91477762D01*
X-13089680Y-91385913D01*
X-13217367Y-91317663D01*
X-13355915Y-91275635D01*
X-13463895Y-91265000D01*
X-13500000Y-91261444D01*
X-13536105Y-91265000D01*
X-22265000Y-91265000D01*
X-22265000Y-76712745D01*
X-21509967Y-76722457D01*
X-21509966Y-76722457D01*
X-21417779Y-76717847D01*
X-21417777Y-76717847D01*
X-20169951Y-76576490D01*
X-20079068Y-76560362D01*
X-18858796Y-76263725D01*
X-18770652Y-76236333D01*
X-18352591Y-76077000D01*
X-12065000Y-76077000D01*
X-12065000Y-89920000D01*
X-12052799Y-90043882D01*
X-12016664Y-90163004D01*
X-11957983Y-90272787D01*
X-11879013Y-90369013D01*
X-11782787Y-90447983D01*
X-11673004Y-90506664D01*
X-11553882Y-90542799D01*
X-11430000Y-90555000D01*
X-7620000Y-90555000D01*
X-7469182Y-90536830D01*
X-7351742Y-90495554D01*
X-7244612Y-90432161D01*
X-7151907Y-90349085D01*
X-4913072Y-87906720D01*
X-4913072Y-89750000D01*
X-4900812Y-89874482D01*
X-4864502Y-89994180D01*
X-4805537Y-90104494D01*
X-4726185Y-90201185D01*
X-4629494Y-90280537D01*
X-4519180Y-90339502D01*
X-4399482Y-90375812D01*
X-4275000Y-90388072D01*
X-2075000Y-90388072D01*
X-1950518Y-90375812D01*
X-1830820Y-90339502D01*
X-1720506Y-90280537D01*
X-1623815Y-90201185D01*
X-1544463Y-90104494D01*
X-1485498Y-89994180D01*
X-1449188Y-89874482D01*
X-1437656Y-89757391D01*
X7239000Y-89757391D01*
X7239000Y-90082609D01*
X7302447Y-90401579D01*
X7426903Y-90702042D01*
X7607585Y-90972451D01*
X7837549Y-91202415D01*
X8107958Y-91383097D01*
X8408421Y-91507553D01*
X8727391Y-91571000D01*
X9052609Y-91571000D01*
X9371579Y-91507553D01*
X9672042Y-91383097D01*
X9942451Y-91202415D01*
X10160000Y-90984866D01*
X10377549Y-91202415D01*
X10647958Y-91383097D01*
X10948421Y-91507553D01*
X11267391Y-91571000D01*
X11592609Y-91571000D01*
X11911579Y-91507553D01*
X12212042Y-91383097D01*
X12482451Y-91202415D01*
X12712415Y-90972451D01*
X12893097Y-90702042D01*
X13017553Y-90401579D01*
X13081000Y-90082609D01*
X13081000Y-89757391D01*
X13017553Y-89438421D01*
X12893097Y-89137958D01*
X12712415Y-88867549D01*
X12482451Y-88637585D01*
X12212042Y-88456903D01*
X11911579Y-88332447D01*
X11592609Y-88269000D01*
X11267391Y-88269000D01*
X10948421Y-88332447D01*
X10647958Y-88456903D01*
X10377549Y-88637585D01*
X10160000Y-88855134D01*
X9942451Y-88637585D01*
X9672042Y-88456903D01*
X9371579Y-88332447D01*
X9052609Y-88269000D01*
X8727391Y-88269000D01*
X8408421Y-88332447D01*
X8107958Y-88456903D01*
X7837549Y-88637585D01*
X7607585Y-88867549D01*
X7426903Y-89137958D01*
X7302447Y-89438421D01*
X7239000Y-89757391D01*
X-1437656Y-89757391D01*
X-1436928Y-89750000D01*
X-1436928Y-87550000D01*
X-1449188Y-87425518D01*
X-1485498Y-87305820D01*
X-1544463Y-87195506D01*
X-1623815Y-87098815D01*
X-1720506Y-87019463D01*
X-1830820Y-86960498D01*
X-1950518Y-86924188D01*
X-2075000Y-86911928D01*
X-4001180Y-86911928D01*
X-355662Y-82935000D01*
X3175000Y-82935000D01*
X3284952Y-82925408D01*
X3404851Y-82891941D01*
X3515916Y-82835725D01*
X3613880Y-82758922D01*
X3694978Y-82664483D01*
X3756094Y-82556036D01*
X3794879Y-82437751D01*
X5064879Y-76722751D01*
X5080000Y-76585000D01*
X5080000Y-73410000D01*
X5064224Y-73269337D01*
X5024884Y-73151235D01*
X4963259Y-73043077D01*
X4881718Y-72949020D01*
X-6985000Y-61706866D01*
X-6985000Y-58008967D01*
X-365000Y-58008967D01*
X-365000Y-58331033D01*
X-302168Y-58646912D01*
X-178918Y-58944463D01*
X13Y-59212252D01*
X227748Y-59439987D01*
X495537Y-59618918D01*
X793088Y-59742168D01*
X1108967Y-59805000D01*
X1431033Y-59805000D01*
X1746912Y-59742168D01*
X2044463Y-59618918D01*
X2312252Y-59439987D01*
X2539987Y-59212252D01*
X2718918Y-58944463D01*
X2842168Y-58646912D01*
X2905000Y-58331033D01*
X2905000Y-58008967D01*
X2842168Y-57693088D01*
X2718918Y-57395537D01*
X2539987Y-57127748D01*
X2312252Y-56900013D01*
X2044463Y-56721082D01*
X1746912Y-56597832D01*
X1431033Y-56535000D01*
X1108967Y-56535000D01*
X793088Y-56597832D01*
X495537Y-56721082D01*
X227748Y-56900013D01*
X13Y-57127748D01*
X-178918Y-57395537D01*
X-302168Y-57693088D01*
X-365000Y-58008967D01*
X-6985000Y-58008967D01*
X-6985000Y-53725000D01*
X3810000Y-53725000D01*
X3810000Y-56265000D01*
X3822201Y-56388882D01*
X3858336Y-56508004D01*
X3898155Y-56582500D01*
X3858336Y-56656996D01*
X3822201Y-56776118D01*
X3810000Y-56900000D01*
X3810000Y-67695000D01*
X3835975Y-67874759D01*
X3882746Y-67990120D01*
X3951125Y-68094140D01*
X4038483Y-68182821D01*
X11430000Y-74342419D01*
X11430000Y-78490000D01*
X11442201Y-78613882D01*
X11478336Y-78733004D01*
X11537017Y-78842787D01*
X11615987Y-78939013D01*
X11712213Y-79017983D01*
X11821996Y-79076664D01*
X11941118Y-79112799D01*
X12065000Y-79125000D01*
X24501974Y-79125000D01*
X37015987Y-91639013D01*
X37112213Y-91717983D01*
X37221996Y-91776664D01*
X37341118Y-91812799D01*
X37465000Y-91825000D01*
X48260000Y-91825000D01*
X48383882Y-91812799D01*
X48503004Y-91776664D01*
X48612787Y-91717983D01*
X48709013Y-91639013D01*
X48787983Y-91542787D01*
X48846664Y-91433004D01*
X48849147Y-91424817D01*
X48952821Y-91475348D01*
X49267344Y-91558064D01*
X49591962Y-91577831D01*
X49914198Y-91533888D01*
X50221670Y-91427924D01*
X50399522Y-91332860D01*
X50497218Y-91066823D01*
X49530000Y-90099605D01*
X49515858Y-90113748D01*
X49336253Y-89934143D01*
X49350395Y-89920000D01*
X49336253Y-89905858D01*
X49515858Y-89726253D01*
X49530000Y-89740395D01*
X49544143Y-89726253D01*
X49723748Y-89905858D01*
X49709605Y-89920000D01*
X50676823Y-90887218D01*
X50720032Y-90871351D01*
X50787585Y-90972451D01*
X51017549Y-91202415D01*
X51287958Y-91383097D01*
X51588421Y-91507553D01*
X51907391Y-91571000D01*
X52232609Y-91571000D01*
X52551579Y-91507553D01*
X52852042Y-91383097D01*
X53122451Y-91202415D01*
X53258043Y-91066823D01*
X53642782Y-91066823D01*
X53740478Y-91332860D01*
X54032821Y-91475348D01*
X54347344Y-91558064D01*
X54671962Y-91577831D01*
X54994198Y-91533888D01*
X55301670Y-91427924D01*
X55479522Y-91332860D01*
X55577218Y-91066823D01*
X54610000Y-90099605D01*
X53642782Y-91066823D01*
X53258043Y-91066823D01*
X53352415Y-90972451D01*
X53419968Y-90871351D01*
X53463177Y-90887218D01*
X54430395Y-89920000D01*
X54416253Y-89905858D01*
X54595858Y-89726253D01*
X54610000Y-89740395D01*
X54624143Y-89726253D01*
X54803748Y-89905858D01*
X54789605Y-89920000D01*
X55756823Y-90887218D01*
X55800032Y-90871351D01*
X55867585Y-90972451D01*
X56097549Y-91202415D01*
X56367958Y-91383097D01*
X56668421Y-91507553D01*
X56987391Y-91571000D01*
X57312609Y-91571000D01*
X57631579Y-91507553D01*
X57932042Y-91383097D01*
X58202451Y-91202415D01*
X58432415Y-90972451D01*
X58613097Y-90702042D01*
X58737553Y-90401579D01*
X58801000Y-90082609D01*
X58801000Y-89757391D01*
X58737553Y-89438421D01*
X58674004Y-89285000D01*
X71347762Y-89285000D01*
X78910676Y-96847916D01*
X78910682Y-96847921D01*
X78967748Y-96904987D01*
X79034855Y-96949826D01*
X79097247Y-97001030D01*
X79168428Y-97039077D01*
X79235537Y-97083918D01*
X79310103Y-97114804D01*
X79381285Y-97152852D01*
X79458522Y-97176282D01*
X79533088Y-97207168D01*
X79612247Y-97222914D01*
X79689483Y-97246343D01*
X79769807Y-97254254D01*
X79848967Y-97270000D01*
X79929678Y-97270000D01*
X80010000Y-97277911D01*
X80090322Y-97270000D01*
X80171033Y-97270000D01*
X80250193Y-97254254D01*
X80330516Y-97246343D01*
X80407751Y-97222914D01*
X80486912Y-97207168D01*
X80561479Y-97176281D01*
X80638715Y-97152852D01*
X80709896Y-97114805D01*
X80784463Y-97083918D01*
X80851575Y-97039075D01*
X80922752Y-97001030D01*
X80985138Y-96949831D01*
X81052252Y-96904987D01*
X81109328Y-96847911D01*
X81171713Y-96796713D01*
X81222911Y-96734328D01*
X81279987Y-96677252D01*
X81324831Y-96610138D01*
X81376030Y-96547752D01*
X81414075Y-96476575D01*
X81458918Y-96409463D01*
X81489805Y-96334896D01*
X81527852Y-96263715D01*
X81551281Y-96186479D01*
X81582168Y-96111912D01*
X81597914Y-96032751D01*
X81621343Y-95955516D01*
X81629254Y-95875193D01*
X81645000Y-95796033D01*
X81645000Y-95715322D01*
X81652911Y-95635000D01*
X81645000Y-95554678D01*
X81645000Y-95473967D01*
X81629254Y-95394807D01*
X81621343Y-95314483D01*
X81597914Y-95237247D01*
X81582168Y-95158088D01*
X81551282Y-95083522D01*
X81527852Y-95006285D01*
X81489804Y-94935103D01*
X81458918Y-94860537D01*
X81414077Y-94793428D01*
X81376030Y-94722247D01*
X81324826Y-94659855D01*
X81279987Y-94592748D01*
X81222921Y-94535682D01*
X81222916Y-94535676D01*
X73025000Y-86337762D01*
X73025000Y-82935000D01*
X73012799Y-82811118D01*
X72976664Y-82691996D01*
X72917983Y-82582213D01*
X72839013Y-82485987D01*
X72742787Y-82407017D01*
X72700058Y-82384177D01*
X72788325Y-82171081D01*
X72855000Y-81835883D01*
X72855000Y-81494117D01*
X72788325Y-81158919D01*
X72657537Y-80843169D01*
X72467663Y-80559002D01*
X72225998Y-80317337D01*
X71941831Y-80127463D01*
X71626081Y-79996675D01*
X71290883Y-79930000D01*
X70949117Y-79930000D01*
X70613919Y-79996675D01*
X70298169Y-80127463D01*
X70014002Y-80317337D01*
X69772337Y-80559002D01*
X69582463Y-80843169D01*
X69451675Y-81158919D01*
X69385000Y-81494117D01*
X69385000Y-81609859D01*
X59325096Y-71969117D01*
X63035000Y-71969117D01*
X63035000Y-72310883D01*
X63101675Y-72646081D01*
X63232463Y-72961831D01*
X63422337Y-73245998D01*
X63664002Y-73487663D01*
X63948169Y-73677537D01*
X64263919Y-73808325D01*
X64599117Y-73875000D01*
X64940883Y-73875000D01*
X65276081Y-73808325D01*
X65591831Y-73677537D01*
X65875998Y-73487663D01*
X66117663Y-73245998D01*
X66307537Y-72961831D01*
X66438325Y-72646081D01*
X66505000Y-72310883D01*
X66505000Y-71969117D01*
X66438325Y-71633919D01*
X66307537Y-71318169D01*
X66117663Y-71034002D01*
X65875998Y-70792337D01*
X65591831Y-70602463D01*
X65276081Y-70471675D01*
X64940883Y-70405000D01*
X64599117Y-70405000D01*
X64263919Y-70471675D01*
X63948169Y-70602463D01*
X63664002Y-70792337D01*
X63422337Y-71034002D01*
X63232463Y-71318169D01*
X63101675Y-71633919D01*
X63035000Y-71969117D01*
X59325096Y-71969117D01*
X56020686Y-68802391D01*
X68199000Y-68802391D01*
X68199000Y-69127609D01*
X68262447Y-69446579D01*
X68386903Y-69747042D01*
X68567585Y-70017451D01*
X68797549Y-70247415D01*
X69067958Y-70428097D01*
X69368421Y-70552553D01*
X69687391Y-70616000D01*
X70012609Y-70616000D01*
X70331579Y-70552553D01*
X70632042Y-70428097D01*
X70902451Y-70247415D01*
X71132415Y-70017451D01*
X71313097Y-69747042D01*
X71437553Y-69446579D01*
X71501000Y-69127609D01*
X71501000Y-68802391D01*
X71437553Y-68483421D01*
X71313097Y-68182958D01*
X71132415Y-67912549D01*
X70902451Y-67682585D01*
X70801351Y-67615032D01*
X70817218Y-67571823D01*
X69850000Y-66604605D01*
X68882782Y-67571823D01*
X68898649Y-67615032D01*
X68797549Y-67682585D01*
X68567585Y-67912549D01*
X68386903Y-68182958D01*
X68262447Y-68483421D01*
X68199000Y-68802391D01*
X56020686Y-68802391D01*
X55049360Y-67871537D01*
X54962787Y-67802017D01*
X54853004Y-67743336D01*
X54733882Y-67707201D01*
X54610000Y-67695000D01*
X38735000Y-67695000D01*
X38735000Y-63504004D01*
X38888421Y-63567553D01*
X39207391Y-63631000D01*
X39532609Y-63631000D01*
X39851579Y-63567553D01*
X40152042Y-63443097D01*
X40422451Y-63262415D01*
X40640000Y-63044866D01*
X40857549Y-63262415D01*
X41127958Y-63443097D01*
X41428421Y-63567553D01*
X41747391Y-63631000D01*
X42072609Y-63631000D01*
X42391579Y-63567553D01*
X42692042Y-63443097D01*
X42962451Y-63262415D01*
X43180000Y-63044866D01*
X43397549Y-63262415D01*
X43667958Y-63443097D01*
X43968421Y-63567553D01*
X44287391Y-63631000D01*
X44612609Y-63631000D01*
X44931579Y-63567553D01*
X45232042Y-63443097D01*
X45502451Y-63262415D01*
X45720000Y-63044866D01*
X45937549Y-63262415D01*
X46207958Y-63443097D01*
X46508421Y-63567553D01*
X46827391Y-63631000D01*
X47152609Y-63631000D01*
X47471579Y-63567553D01*
X47772042Y-63443097D01*
X48042451Y-63262415D01*
X48260000Y-63044866D01*
X48477549Y-63262415D01*
X48747958Y-63443097D01*
X49048421Y-63567553D01*
X49367391Y-63631000D01*
X49692609Y-63631000D01*
X50011579Y-63567553D01*
X50312042Y-63443097D01*
X50582451Y-63262415D01*
X50718043Y-63126823D01*
X53642782Y-63126823D01*
X53740478Y-63392860D01*
X54032821Y-63535348D01*
X54347344Y-63618064D01*
X54671962Y-63637831D01*
X54994198Y-63593888D01*
X55301670Y-63487924D01*
X55479522Y-63392860D01*
X55577218Y-63126823D01*
X54610000Y-62159605D01*
X53642782Y-63126823D01*
X50718043Y-63126823D01*
X50812415Y-63032451D01*
X50993097Y-62762042D01*
X51117553Y-62461579D01*
X51181000Y-62142609D01*
X51181000Y-62041962D01*
X52952169Y-62041962D01*
X52996112Y-62364198D01*
X53102076Y-62671670D01*
X53197140Y-62849522D01*
X53463177Y-62947218D01*
X54430395Y-61980000D01*
X54789605Y-61980000D01*
X55756823Y-62947218D01*
X56022860Y-62849522D01*
X56165348Y-62557179D01*
X56248064Y-62242656D01*
X56267831Y-61918038D01*
X56223888Y-61595802D01*
X56117924Y-61288330D01*
X56022860Y-61110478D01*
X55756823Y-61012782D01*
X54789605Y-61980000D01*
X54430395Y-61980000D01*
X53463177Y-61012782D01*
X53197140Y-61110478D01*
X53054652Y-61402821D01*
X52971936Y-61717344D01*
X52952169Y-62041962D01*
X51181000Y-62041962D01*
X51181000Y-61817391D01*
X51117553Y-61498421D01*
X50993097Y-61197958D01*
X50812415Y-60927549D01*
X50718043Y-60833177D01*
X53642782Y-60833177D01*
X54610000Y-61800395D01*
X55577218Y-60833177D01*
X55479522Y-60567140D01*
X55187179Y-60424652D01*
X54872656Y-60341936D01*
X54548038Y-60322169D01*
X54225802Y-60366112D01*
X53918330Y-60472076D01*
X53740478Y-60567140D01*
X53642782Y-60833177D01*
X50718043Y-60833177D01*
X50582451Y-60697585D01*
X50312042Y-60516903D01*
X50011579Y-60392447D01*
X49692609Y-60329000D01*
X49367391Y-60329000D01*
X49048421Y-60392447D01*
X48747958Y-60516903D01*
X48477549Y-60697585D01*
X48260000Y-60915134D01*
X48042451Y-60697585D01*
X47772042Y-60516903D01*
X47471579Y-60392447D01*
X47152609Y-60329000D01*
X46827391Y-60329000D01*
X46508421Y-60392447D01*
X46207958Y-60516903D01*
X45937549Y-60697585D01*
X45720000Y-60915134D01*
X45502451Y-60697585D01*
X45232042Y-60516903D01*
X44931579Y-60392447D01*
X44612609Y-60329000D01*
X44287391Y-60329000D01*
X43968421Y-60392447D01*
X43667958Y-60516903D01*
X43397549Y-60697585D01*
X43180000Y-60915134D01*
X42962451Y-60697585D01*
X42692042Y-60516903D01*
X42391579Y-60392447D01*
X42072609Y-60329000D01*
X41747391Y-60329000D01*
X41428421Y-60392447D01*
X41127958Y-60516903D01*
X40857549Y-60697585D01*
X40640000Y-60915134D01*
X40422451Y-60697585D01*
X40152042Y-60516903D01*
X39851579Y-60392447D01*
X39532609Y-60329000D01*
X39207391Y-60329000D01*
X38888421Y-60392447D01*
X38587958Y-60516903D01*
X38317549Y-60697585D01*
X38100000Y-60915134D01*
X37882451Y-60697585D01*
X37612042Y-60516903D01*
X37311579Y-60392447D01*
X36992609Y-60329000D01*
X36667391Y-60329000D01*
X36348421Y-60392447D01*
X36195000Y-60455996D01*
X36195000Y-44835000D01*
X36182799Y-44711118D01*
X36161462Y-44640777D01*
X36194987Y-44607252D01*
X36195000Y-44607233D01*
X36195013Y-44607252D01*
X36422748Y-44834987D01*
X36690537Y-45013918D01*
X36988088Y-45137168D01*
X37303967Y-45200000D01*
X37626033Y-45200000D01*
X37941912Y-45137168D01*
X38239463Y-45013918D01*
X38507252Y-44834987D01*
X38734987Y-44607252D01*
X38735000Y-44607233D01*
X38735013Y-44607252D01*
X38962748Y-44834987D01*
X39230537Y-45013918D01*
X39528088Y-45137168D01*
X39843967Y-45200000D01*
X40166033Y-45200000D01*
X40481912Y-45137168D01*
X40779463Y-45013918D01*
X41047252Y-44834987D01*
X41274987Y-44607252D01*
X41275000Y-44607233D01*
X41275013Y-44607252D01*
X41502748Y-44834987D01*
X41770537Y-45013918D01*
X42068088Y-45137168D01*
X42383967Y-45200000D01*
X42706033Y-45200000D01*
X43021912Y-45137168D01*
X43319463Y-45013918D01*
X43587252Y-44834987D01*
X43814987Y-44607252D01*
X43815000Y-44607233D01*
X43815013Y-44607252D01*
X44042748Y-44834987D01*
X44310537Y-45013918D01*
X44608088Y-45137168D01*
X44923967Y-45200000D01*
X45246033Y-45200000D01*
X45561912Y-45137168D01*
X45859463Y-45013918D01*
X46127252Y-44834987D01*
X46354987Y-44607252D01*
X46355000Y-44607233D01*
X46355013Y-44607252D01*
X46582748Y-44834987D01*
X46850537Y-45013918D01*
X47148088Y-45137168D01*
X47463967Y-45200000D01*
X47786033Y-45200000D01*
X48101912Y-45137168D01*
X48399463Y-45013918D01*
X48667252Y-44834987D01*
X48801826Y-44700413D01*
X49209192Y-44700413D01*
X49304956Y-44964814D01*
X49594571Y-45105704D01*
X49906108Y-45187384D01*
X50227595Y-45206718D01*
X50546675Y-45162961D01*
X50851088Y-45057795D01*
X51025044Y-44964814D01*
X51120808Y-44700413D01*
X50165000Y-43744605D01*
X49209192Y-44700413D01*
X48801826Y-44700413D01*
X48894987Y-44607252D01*
X48967720Y-44498400D01*
X49029587Y-44520808D01*
X49985395Y-43565000D01*
X50344605Y-43565000D01*
X51300413Y-44520808D01*
X51564814Y-44425044D01*
X51705704Y-44135429D01*
X51787384Y-43823892D01*
X51806718Y-43502405D01*
X51793219Y-43403967D01*
X53610000Y-43403967D01*
X53610000Y-43726033D01*
X53672832Y-44041912D01*
X53796082Y-44339463D01*
X53975013Y-44607252D01*
X54202748Y-44834987D01*
X54470537Y-45013918D01*
X54768088Y-45137168D01*
X55083967Y-45200000D01*
X55406033Y-45200000D01*
X55721912Y-45137168D01*
X56019463Y-45013918D01*
X56287252Y-44834987D01*
X56514987Y-44607252D01*
X56515000Y-44607233D01*
X56515013Y-44607252D01*
X56742748Y-44834987D01*
X57010537Y-45013918D01*
X57308088Y-45137168D01*
X57623967Y-45200000D01*
X57946033Y-45200000D01*
X58261912Y-45137168D01*
X58559463Y-45013918D01*
X58827252Y-44834987D01*
X59054987Y-44607252D01*
X59055000Y-44607233D01*
X59055013Y-44607252D01*
X59282748Y-44834987D01*
X59550537Y-45013918D01*
X59848088Y-45137168D01*
X60163967Y-45200000D01*
X60486033Y-45200000D01*
X60801912Y-45137168D01*
X61099463Y-45013918D01*
X61367252Y-44834987D01*
X61594987Y-44607252D01*
X61595000Y-44607233D01*
X61595013Y-44607252D01*
X61822748Y-44834987D01*
X62090537Y-45013918D01*
X62388088Y-45137168D01*
X62703967Y-45200000D01*
X63026033Y-45200000D01*
X63341912Y-45137168D01*
X63639463Y-45013918D01*
X63907252Y-44834987D01*
X64134987Y-44607252D01*
X64135000Y-44607233D01*
X64135013Y-44607252D01*
X64362748Y-44834987D01*
X64630537Y-45013918D01*
X64928088Y-45137168D01*
X65243967Y-45200000D01*
X65566033Y-45200000D01*
X65881912Y-45137168D01*
X66179463Y-45013918D01*
X66447252Y-44834987D01*
X66674987Y-44607252D01*
X66675000Y-44607233D01*
X66675013Y-44607252D01*
X66902748Y-44834987D01*
X67170537Y-45013918D01*
X67468088Y-45137168D01*
X67783967Y-45200000D01*
X68106033Y-45200000D01*
X68421912Y-45137168D01*
X68719463Y-45013918D01*
X68987252Y-44834987D01*
X69214987Y-44607252D01*
X69215000Y-44607233D01*
X69215013Y-44607252D01*
X69442748Y-44834987D01*
X69710537Y-45013918D01*
X70008088Y-45137168D01*
X70323967Y-45200000D01*
X70646033Y-45200000D01*
X70961912Y-45137168D01*
X71259463Y-45013918D01*
X71527252Y-44834987D01*
X71661826Y-44700413D01*
X72069192Y-44700413D01*
X72164956Y-44964814D01*
X72454571Y-45105704D01*
X72766108Y-45187384D01*
X73087595Y-45206718D01*
X73406675Y-45162961D01*
X73711088Y-45057795D01*
X73885044Y-44964814D01*
X73980808Y-44700413D01*
X73025000Y-43744605D01*
X72069192Y-44700413D01*
X71661826Y-44700413D01*
X71754987Y-44607252D01*
X71827720Y-44498400D01*
X71889587Y-44520808D01*
X72845395Y-43565000D01*
X73204605Y-43565000D01*
X74160413Y-44520808D01*
X74424814Y-44425044D01*
X74565704Y-44135429D01*
X74647384Y-43823892D01*
X74666718Y-43502405D01*
X74622961Y-43183325D01*
X74517795Y-42878912D01*
X74424814Y-42704956D01*
X74160413Y-42609192D01*
X73204605Y-43565000D01*
X72845395Y-43565000D01*
X71889587Y-42609192D01*
X71827720Y-42631600D01*
X71754987Y-42522748D01*
X71661826Y-42429587D01*
X72069192Y-42429587D01*
X73025000Y-43385395D01*
X73980808Y-42429587D01*
X73885044Y-42165186D01*
X73595429Y-42024296D01*
X73283892Y-41942616D01*
X72962405Y-41923282D01*
X72643325Y-41967039D01*
X72338912Y-42072205D01*
X72164956Y-42165186D01*
X72069192Y-42429587D01*
X71661826Y-42429587D01*
X71527252Y-42295013D01*
X71259463Y-42116082D01*
X70961912Y-41992832D01*
X70646033Y-41930000D01*
X70323967Y-41930000D01*
X70008088Y-41992832D01*
X69710537Y-42116082D01*
X69442748Y-42295013D01*
X69215013Y-42522748D01*
X69215000Y-42522767D01*
X69214987Y-42522748D01*
X68987252Y-42295013D01*
X68719463Y-42116082D01*
X68421912Y-41992832D01*
X68106033Y-41930000D01*
X67783967Y-41930000D01*
X67468088Y-41992832D01*
X67170537Y-42116082D01*
X66902748Y-42295013D01*
X66675013Y-42522748D01*
X66675000Y-42522767D01*
X66674987Y-42522748D01*
X66447252Y-42295013D01*
X66179463Y-42116082D01*
X65881912Y-41992832D01*
X65566033Y-41930000D01*
X65243967Y-41930000D01*
X64928088Y-41992832D01*
X64630537Y-42116082D01*
X64362748Y-42295013D01*
X64135013Y-42522748D01*
X64135000Y-42522767D01*
X64134987Y-42522748D01*
X63907252Y-42295013D01*
X63639463Y-42116082D01*
X63341912Y-41992832D01*
X63026033Y-41930000D01*
X62703967Y-41930000D01*
X62388088Y-41992832D01*
X62090537Y-42116082D01*
X61822748Y-42295013D01*
X61595013Y-42522748D01*
X61595000Y-42522767D01*
X61594987Y-42522748D01*
X61367252Y-42295013D01*
X61099463Y-42116082D01*
X60801912Y-41992832D01*
X60486033Y-41930000D01*
X60163967Y-41930000D01*
X59848088Y-41992832D01*
X59550537Y-42116082D01*
X59282748Y-42295013D01*
X59055013Y-42522748D01*
X59055000Y-42522767D01*
X59054987Y-42522748D01*
X58827252Y-42295013D01*
X58559463Y-42116082D01*
X58261912Y-41992832D01*
X57946033Y-41930000D01*
X57623967Y-41930000D01*
X57308088Y-41992832D01*
X57010537Y-42116082D01*
X56742748Y-42295013D01*
X56515013Y-42522748D01*
X56515000Y-42522767D01*
X56514987Y-42522748D01*
X56287252Y-42295013D01*
X56019463Y-42116082D01*
X55721912Y-41992832D01*
X55406033Y-41930000D01*
X55083967Y-41930000D01*
X54768088Y-41992832D01*
X54470537Y-42116082D01*
X54202748Y-42295013D01*
X53975013Y-42522748D01*
X53796082Y-42790537D01*
X53672832Y-43088088D01*
X53610000Y-43403967D01*
X51793219Y-43403967D01*
X51762961Y-43183325D01*
X51657795Y-42878912D01*
X51564814Y-42704956D01*
X51300413Y-42609192D01*
X50344605Y-43565000D01*
X49985395Y-43565000D01*
X49029587Y-42609192D01*
X48967720Y-42631600D01*
X48894987Y-42522748D01*
X48801826Y-42429587D01*
X49209192Y-42429587D01*
X50165000Y-43385395D01*
X51120808Y-42429587D01*
X51025044Y-42165186D01*
X50735429Y-42024296D01*
X50423892Y-41942616D01*
X50102405Y-41923282D01*
X49783325Y-41967039D01*
X49478912Y-42072205D01*
X49304956Y-42165186D01*
X49209192Y-42429587D01*
X48801826Y-42429587D01*
X48667252Y-42295013D01*
X48399463Y-42116082D01*
X48101912Y-41992832D01*
X47786033Y-41930000D01*
X47463967Y-41930000D01*
X47148088Y-41992832D01*
X46850537Y-42116082D01*
X46582748Y-42295013D01*
X46355013Y-42522748D01*
X46355000Y-42522767D01*
X46354987Y-42522748D01*
X46127252Y-42295013D01*
X45859463Y-42116082D01*
X45561912Y-41992832D01*
X45246033Y-41930000D01*
X44923967Y-41930000D01*
X44608088Y-41992832D01*
X44310537Y-42116082D01*
X44042748Y-42295013D01*
X43815013Y-42522748D01*
X43815000Y-42522767D01*
X43814987Y-42522748D01*
X43587252Y-42295013D01*
X43319463Y-42116082D01*
X43021912Y-41992832D01*
X42706033Y-41930000D01*
X42383967Y-41930000D01*
X42068088Y-41992832D01*
X41770537Y-42116082D01*
X41502748Y-42295013D01*
X41275013Y-42522748D01*
X41275000Y-42522767D01*
X41274987Y-42522748D01*
X41047252Y-42295013D01*
X40779463Y-42116082D01*
X40481912Y-41992832D01*
X40166033Y-41930000D01*
X39843967Y-41930000D01*
X39528088Y-41992832D01*
X39230537Y-42116082D01*
X38962748Y-42295013D01*
X38735013Y-42522748D01*
X38735000Y-42522767D01*
X38734987Y-42522748D01*
X38507252Y-42295013D01*
X38239463Y-42116082D01*
X37941912Y-41992832D01*
X37626033Y-41930000D01*
X37303967Y-41930000D01*
X36988088Y-41992832D01*
X36690537Y-42116082D01*
X36422748Y-42295013D01*
X36195013Y-42522748D01*
X36195000Y-42522767D01*
X36194987Y-42522748D01*
X35967252Y-42295013D01*
X35699463Y-42116082D01*
X35401912Y-41992832D01*
X35086033Y-41930000D01*
X34763967Y-41930000D01*
X34448088Y-41992832D01*
X34150537Y-42116082D01*
X33882748Y-42295013D01*
X33655013Y-42522748D01*
X33655000Y-42522767D01*
X33654987Y-42522748D01*
X33427252Y-42295013D01*
X33159463Y-42116082D01*
X32861912Y-41992832D01*
X32546033Y-41930000D01*
X32223967Y-41930000D01*
X31908088Y-41992832D01*
X31750000Y-42058314D01*
X31750000Y-41660000D01*
X31737799Y-41536118D01*
X31701664Y-41416996D01*
X31642983Y-41307213D01*
X31564013Y-41210987D01*
X31467787Y-41132017D01*
X31358004Y-41073336D01*
X31238882Y-41037201D01*
X31115000Y-41025000D01*
X22225000Y-41025000D01*
X22101118Y-41037201D01*
X21981996Y-41073336D01*
X21872213Y-41132017D01*
X21775987Y-41210987D01*
X21697017Y-41307213D01*
X21638336Y-41416996D01*
X21602201Y-41536118D01*
X21590000Y-41660000D01*
X21590000Y-44835000D01*
X21602201Y-44958882D01*
X21638336Y-45078004D01*
X21697017Y-45187787D01*
X21775987Y-45284013D01*
X21872213Y-45362983D01*
X21981996Y-45421664D01*
X21990183Y-45424147D01*
X21939652Y-45527821D01*
X21856936Y-45842344D01*
X21837169Y-46166962D01*
X21881112Y-46489198D01*
X21967546Y-46740000D01*
X12065000Y-46740000D01*
X11998012Y-46743543D01*
X11876108Y-46768745D01*
X11761463Y-46817245D01*
X11658483Y-46887179D01*
X4038483Y-53237179D01*
X3917017Y-53372213D01*
X3858336Y-53481996D01*
X3822201Y-53601118D01*
X3810000Y-53725000D01*
X-6985000Y-53725000D01*
X-6985000Y-50259925D01*
X-6856081Y-50313325D01*
X-6520883Y-50380000D01*
X-6179117Y-50380000D01*
X-5843919Y-50313325D01*
X-5528169Y-50182537D01*
X-5244002Y-49992663D01*
X-5080000Y-49828661D01*
X-4915998Y-49992663D01*
X-4631831Y-50182537D01*
X-4316081Y-50313325D01*
X-3980883Y-50380000D01*
X-3639117Y-50380000D01*
X-3303919Y-50313325D01*
X-2988169Y-50182537D01*
X-2704002Y-49992663D01*
X-2462337Y-49750998D01*
X-2272463Y-49466831D01*
X-2141675Y-49151081D01*
X-2075000Y-48815883D01*
X-2075000Y-48474117D01*
X-2141675Y-48138919D01*
X-2272463Y-47823169D01*
X-2462337Y-47539002D01*
X-2626339Y-47375000D01*
X8255000Y-47375000D01*
X8378882Y-47362799D01*
X8498004Y-47326664D01*
X8607787Y-47267983D01*
X8704013Y-47189013D01*
X8782983Y-47092787D01*
X8841664Y-46983004D01*
X8877799Y-46863882D01*
X8890000Y-46740000D01*
X8890000Y-39755000D01*
X8877799Y-39631118D01*
X8866530Y-39593967D01*
X68850000Y-39593967D01*
X68850000Y-39916033D01*
X68912832Y-40231912D01*
X69036082Y-40529463D01*
X69215013Y-40797252D01*
X69442748Y-41024987D01*
X69710537Y-41203918D01*
X70008088Y-41327168D01*
X70323967Y-41390000D01*
X70646033Y-41390000D01*
X70961912Y-41327168D01*
X71259463Y-41203918D01*
X71527252Y-41024987D01*
X71754987Y-40797252D01*
X71933918Y-40529463D01*
X72057168Y-40231912D01*
X72120000Y-39916033D01*
X72120000Y-39593967D01*
X72057168Y-39278088D01*
X71933918Y-38980537D01*
X71754987Y-38712748D01*
X71527252Y-38485013D01*
X71259463Y-38306082D01*
X70961912Y-38182832D01*
X70646033Y-38120000D01*
X70323967Y-38120000D01*
X70008088Y-38182832D01*
X69710537Y-38306082D01*
X69442748Y-38485013D01*
X69215013Y-38712748D01*
X69036082Y-38980537D01*
X68912832Y-39278088D01*
X68850000Y-39593967D01*
X8866530Y-39593967D01*
X8841664Y-39511996D01*
X8782983Y-39402213D01*
X8704013Y-39305987D01*
X8607787Y-39227017D01*
X8498004Y-39168336D01*
X8378882Y-39132201D01*
X8255000Y-39120000D01*
X6487240Y-39120000D01*
X6661632Y-39003475D01*
X6868475Y-38796632D01*
X7030990Y-38553411D01*
X7142932Y-38283158D01*
X7200000Y-37996260D01*
X7200000Y-37703740D01*
X7197062Y-37688967D01*
X7890000Y-37688967D01*
X7890000Y-38011033D01*
X7952832Y-38326912D01*
X8076082Y-38624463D01*
X8255013Y-38892252D01*
X8482748Y-39119987D01*
X8750537Y-39298918D01*
X9048088Y-39422168D01*
X9363967Y-39485000D01*
X9686033Y-39485000D01*
X10001912Y-39422168D01*
X10299463Y-39298918D01*
X10567252Y-39119987D01*
X10794987Y-38892252D01*
X10973918Y-38624463D01*
X11097168Y-38326912D01*
X11160000Y-38011033D01*
X11160000Y-37688967D01*
X11097168Y-37373088D01*
X10973918Y-37075537D01*
X10794987Y-36807748D01*
X10567252Y-36580013D01*
X10299463Y-36401082D01*
X10001912Y-36277832D01*
X9686033Y-36215000D01*
X9363967Y-36215000D01*
X9048088Y-36277832D01*
X8750537Y-36401082D01*
X8482748Y-36580013D01*
X8255013Y-36807748D01*
X8076082Y-37075537D01*
X7952832Y-37373088D01*
X7890000Y-37688967D01*
X7197062Y-37688967D01*
X7142932Y-37416842D01*
X7030990Y-37146589D01*
X6868475Y-36903368D01*
X6661632Y-36696525D01*
X6418411Y-36534010D01*
X6148158Y-36422068D01*
X5861260Y-36365000D01*
X5568740Y-36365000D01*
X5281842Y-36422068D01*
X5011589Y-36534010D01*
X4898059Y-36609868D01*
X4885812Y-36485518D01*
X4849502Y-36365820D01*
X4790537Y-36255506D01*
X4711185Y-36158815D01*
X4614494Y-36079463D01*
X4504180Y-36020498D01*
X4384482Y-35984188D01*
X4260000Y-35971928D01*
X-1732569Y-35971928D01*
X-1781118Y-35957201D01*
X-1905000Y-35945000D01*
X-6985000Y-35945000D01*
X-7108882Y-35957201D01*
X-7228004Y-35993336D01*
X-7337787Y-36052017D01*
X-7434013Y-36130987D01*
X-7512983Y-36227213D01*
X-7571664Y-36336996D01*
X-7607799Y-36456118D01*
X-7620000Y-36580000D01*
X-7620000Y-46740000D01*
X-12065000Y-46740000D01*
X-12065000Y-36580000D01*
X-12077201Y-36456118D01*
X-12113336Y-36336996D01*
X-12172017Y-36227213D01*
X-12250987Y-36130987D01*
X-12347213Y-36052017D01*
X-12456996Y-35993336D01*
X-12576118Y-35957201D01*
X-12700000Y-35945000D01*
X-24265000Y-35945000D01*
X-24265000Y-29151873D01*
X-23585750Y-29150000D01*
X-23427000Y-28991250D01*
X-23427000Y-25642000D01*
X-23173000Y-25642000D01*
X-23173000Y-28991250D01*
X-23014250Y-29150000D01*
X-21900000Y-29153072D01*
X-21775518Y-29140812D01*
X-21655820Y-29104502D01*
X-21545506Y-29045537D01*
X-21448815Y-28966185D01*
X-21369463Y-28869494D01*
X-21310498Y-28759180D01*
X-21274188Y-28639482D01*
X-21261928Y-28515000D01*
X-21265000Y-25800750D01*
X-21423750Y-25642000D01*
X-23173000Y-25642000D01*
X-23427000Y-25642000D01*
X-23447000Y-25642000D01*
X-23447000Y-25388000D01*
X-23427000Y-25388000D01*
X-23427000Y-25368000D01*
X-23173000Y-25368000D01*
X-23173000Y-25388000D01*
X-21423750Y-25388000D01*
X-21265000Y-25229250D01*
X-21261928Y-22515000D01*
X-21269807Y-22435000D01*
X-8036105Y-22435000D01*
X-8000000Y-22438556D01*
X-7963895Y-22435000D01*
X-7855915Y-22424365D01*
X-7717367Y-22382337D01*
X-7589680Y-22314087D01*
X-7477762Y-22222238D01*
X-7385913Y-22110320D01*
X-7317663Y-21982633D01*
X-7275635Y-21844085D01*
X-7261444Y-21700000D01*
X-7265000Y-21663895D01*
X-7265000Y-15625000D01*
X-5715000Y-15625000D01*
X-5715000Y-32135000D01*
X-5702799Y-32258882D01*
X-5666664Y-32378004D01*
X-5607983Y-32487787D01*
X-5529013Y-32584013D01*
X-5432787Y-32662983D01*
X-5323004Y-32721664D01*
X-5203882Y-32757799D01*
X-5080000Y-32770000D01*
X6350000Y-32770000D01*
X6473882Y-32757799D01*
X6593004Y-32721664D01*
X6702787Y-32662983D01*
X6799013Y-32584013D01*
X6877983Y-32487787D01*
X6936664Y-32378004D01*
X6972799Y-32258882D01*
X6985000Y-32135000D01*
X6985000Y-17557403D01*
X70240000Y-17557403D01*
X70240000Y-18842596D01*
X70267275Y-19119523D01*
X70375061Y-19474847D01*
X70550097Y-19802317D01*
X70785655Y-20089345D01*
X71072683Y-20324903D01*
X71400152Y-20499939D01*
X71755476Y-20607725D01*
X72125000Y-20644120D01*
X72494523Y-20607725D01*
X72849847Y-20499939D01*
X73177317Y-20324903D01*
X73464345Y-20089345D01*
X73699903Y-19802317D01*
X73874939Y-19474848D01*
X73982725Y-19119524D01*
X74010000Y-18842597D01*
X74010000Y-17557403D01*
X73982725Y-17280476D01*
X73874939Y-16925152D01*
X73699903Y-16597683D01*
X73464345Y-16310655D01*
X73177317Y-16075097D01*
X72849848Y-15900061D01*
X72494524Y-15792275D01*
X72125000Y-15755880D01*
X71755477Y-15792275D01*
X71400153Y-15900061D01*
X71072684Y-16075097D01*
X70785656Y-16310655D01*
X70550098Y-16597683D01*
X70375061Y-16925152D01*
X70267275Y-17280476D01*
X70240000Y-17557403D01*
X6985000Y-17557403D01*
X6985000Y-15625000D01*
X6972799Y-15501118D01*
X6936664Y-15381996D01*
X6877983Y-15272213D01*
X6799013Y-15175987D01*
X6702787Y-15097017D01*
X6593004Y-15038336D01*
X6473882Y-15002201D01*
X6350000Y-14990000D01*
X-5080000Y-14990000D01*
X-5203882Y-15002201D01*
X-5323004Y-15038336D01*
X-5432787Y-15097017D01*
X-5529013Y-15175987D01*
X-5607983Y-15272213D01*
X-5666664Y-15381996D01*
X-5702799Y-15501118D01*
X-5715000Y-15625000D01*
X-7265000Y-15625000D01*
X-7265000Y220128D01*
X-2235000Y220128D01*
X-2235000Y-220128D01*
X-2149110Y-651925D01*
X-1980631Y-1058669D01*
X-1736038Y-1424729D01*
X-1424729Y-1736038D01*
X-1058669Y-1980631D01*
X-651925Y-2149110D01*
X-220128Y-2235000D01*
X220128Y-2235000D01*
X651925Y-2149110D01*
X1058669Y-1980631D01*
X1424729Y-1736038D01*
X1736038Y-1424729D01*
X1980631Y-1058669D01*
X2149110Y-651925D01*
X2235000Y-220128D01*
X2235000Y220128D01*
X67765000Y220128D01*
X67765000Y-220128D01*
X67850890Y-651925D01*
X68019369Y-1058669D01*
X68263962Y-1424729D01*
X68575271Y-1736038D01*
X68941331Y-1980631D01*
X69348075Y-2149110D01*
X69779872Y-2235000D01*
X70220128Y-2235000D01*
X70651925Y-2149110D01*
X71058669Y-1980631D01*
X71424729Y-1736038D01*
X71736038Y-1424729D01*
X71980631Y-1058669D01*
X72149110Y-651925D01*
X72235000Y-220128D01*
X72235000Y220128D01*
X72149110Y651925D01*
X71980631Y1058669D01*
X71736038Y1424729D01*
X71424729Y1736038D01*
X71058669Y1980631D01*
X70651925Y2149110D01*
X70220128Y2235000D01*
X69779872Y2235000D01*
X69348075Y2149110D01*
X68941331Y1980631D01*
X68575271Y1736038D01*
X68263962Y1424729D01*
X68019369Y1058669D01*
X67850890Y651925D01*
X67765000Y220128D01*
X2235000Y220128D01*
X2149110Y651925D01*
X1980631Y1058669D01*
X1736038Y1424729D01*
X1424729Y1736038D01*
X1058669Y1980631D01*
X651925Y2149110D01*
X220128Y2235000D01*
X-220128Y2235000D01*
X-651925Y2149110D01*
X-1058669Y1980631D01*
X-1424729Y1736038D01*
X-1736038Y1424729D01*
X-1980631Y1058669D01*
X-2149110Y651925D01*
X-2235000Y220128D01*
X-7265000Y220128D01*
X-7265000Y2565000D01*
X77265000Y2565000D01*
X77265001Y-41663885D01*
G36*
X23688748Y-46090858D02*
G01*
X23674605Y-46105000D01*
X23688748Y-46119143D01*
X23509143Y-46298748D01*
X23495000Y-46284605D01*
X23480858Y-46298748D01*
X23301253Y-46119143D01*
X23315395Y-46105000D01*
X23301253Y-46090858D01*
X23480858Y-45911253D01*
X23495000Y-45925395D01*
X23509143Y-45911253D01*
X23688748Y-46090858D01*
G37*
X23688748Y-46090858D02*
X23674605Y-46105000D01*
X23688748Y-46119143D01*
X23509143Y-46298748D01*
X23495000Y-46284605D01*
X23480858Y-46298748D01*
X23301253Y-46119143D01*
X23315395Y-46105000D01*
X23301253Y-46090858D01*
X23480858Y-45911253D01*
X23495000Y-45925395D01*
X23509143Y-45911253D01*
X23688748Y-46090858D01*
G36*
X6223000Y-32008000D02*
G01*
X4857444Y-32008000D01*
X4885812Y-31914482D01*
X4898072Y-31790000D01*
X4895000Y-30675750D01*
X4736250Y-30517000D01*
X1387000Y-30517000D01*
X1387000Y-30537000D01*
X1133000Y-30537000D01*
X1133000Y-30517000D01*
X-2216250Y-30517000D01*
X-2375000Y-30675750D01*
X-2378072Y-31790000D01*
X-2365812Y-31914482D01*
X-2337444Y-32008000D01*
X-4953000Y-32008000D01*
X-4953000Y-22515000D01*
X-2478072Y-22515000D01*
X-2478072Y-28515000D01*
X-2465812Y-28639482D01*
X-2429502Y-28759180D01*
X-2370537Y-28869494D01*
X-2366668Y-28874209D01*
X-2378072Y-28990000D01*
X-2375000Y-30104250D01*
X-2216250Y-30263000D01*
X1133000Y-30263000D01*
X1133000Y-30243000D01*
X1387000Y-30243000D01*
X1387000Y-30263000D01*
X4736250Y-30263000D01*
X4895000Y-30104250D01*
X4898072Y-28990000D01*
X4885812Y-28865518D01*
X4849502Y-28745820D01*
X4790537Y-28635506D01*
X4711185Y-28538815D01*
X4614494Y-28459463D01*
X4504180Y-28400498D01*
X4384482Y-28364188D01*
X4260000Y-28351928D01*
X1598072Y-28354941D01*
X1598072Y-22515000D01*
X1585812Y-22390518D01*
X1549502Y-22270820D01*
X1490537Y-22160506D01*
X1411185Y-22063815D01*
X1314494Y-21984463D01*
X1204180Y-21925498D01*
X1084482Y-21889188D01*
X960000Y-21876928D01*
X-187984Y-21876928D01*
X-216426Y-21865147D01*
X-493665Y-21810000D01*
X-776335Y-21810000D01*
X-1053574Y-21865147D01*
X-1082016Y-21876928D01*
X-1840000Y-21876928D01*
X-1964482Y-21889188D01*
X-2084180Y-21925498D01*
X-2194494Y-21984463D01*
X-2291185Y-22063815D01*
X-2370537Y-22160506D01*
X-2429502Y-22270820D01*
X-2465812Y-22390518D01*
X-2478072Y-22515000D01*
X-4953000Y-22515000D01*
X-4953000Y-18327000D01*
X-4010000Y-18327000D01*
X-4010000Y-18877000D01*
X-3949004Y-19242305D01*
X-3817912Y-19588691D01*
X-3621763Y-19902847D01*
X-3368094Y-20172699D01*
X-3066653Y-20387878D01*
X-2729025Y-20540114D01*
X-2544645Y-20587695D01*
X-2252000Y-20471572D01*
X-2252000Y-18327000D01*
X-1998000Y-18327000D01*
X-1998000Y-20471572D01*
X-1705355Y-20587695D01*
X-1520975Y-20540114D01*
X-1183347Y-20387878D01*
X-881906Y-20172699D01*
X-628237Y-19902847D01*
X-432088Y-19588691D01*
X-300996Y-19242305D01*
X-240000Y-18877000D01*
X-240000Y-18327000D01*
X-1998000Y-18327000D01*
X-2252000Y-18327000D01*
X-4010000Y-18327000D01*
X-4953000Y-18327000D01*
X-4953000Y-17523000D01*
X-4010000Y-17523000D01*
X-4010000Y-18073000D01*
X-2252000Y-18073000D01*
X-2252000Y-15928428D01*
X-1998000Y-15928428D01*
X-1998000Y-18073000D01*
X-240000Y-18073000D01*
X-240000Y-17523000D01*
X-300996Y-17157695D01*
X-432088Y-16811309D01*
X-628237Y-16497153D01*
X-881906Y-16227301D01*
X-1183347Y-16012122D01*
X-1520975Y-15859886D01*
X-1705355Y-15812305D01*
X-1998000Y-15928428D01*
X-2252000Y-15928428D01*
X-2544645Y-15812305D01*
X-2729025Y-15859886D01*
X-3066653Y-16012122D01*
X-3368094Y-16227301D01*
X-3621763Y-16497153D01*
X-3817912Y-16811309D01*
X-3949004Y-17157695D01*
X-4010000Y-17523000D01*
X-4953000Y-17523000D01*
X-4953000Y-15752000D01*
X6223000Y-15752000D01*
X6223000Y-32008000D01*
G37*
X6223000Y-32008000D02*
X4857444Y-32008000D01*
X4885812Y-31914482D01*
X4898072Y-31790000D01*
X4895000Y-30675750D01*
X4736250Y-30517000D01*
X1387000Y-30517000D01*
X1387000Y-30537000D01*
X1133000Y-30537000D01*
X1133000Y-30517000D01*
X-2216250Y-30517000D01*
X-2375000Y-30675750D01*
X-2378072Y-31790000D01*
X-2365812Y-31914482D01*
X-2337444Y-32008000D01*
X-4953000Y-32008000D01*
X-4953000Y-22515000D01*
X-2478072Y-22515000D01*
X-2478072Y-28515000D01*
X-2465812Y-28639482D01*
X-2429502Y-28759180D01*
X-2370537Y-28869494D01*
X-2366668Y-28874209D01*
X-2378072Y-28990000D01*
X-2375000Y-30104250D01*
X-2216250Y-30263000D01*
X1133000Y-30263000D01*
X1133000Y-30243000D01*
X1387000Y-30243000D01*
X1387000Y-30263000D01*
X4736250Y-30263000D01*
X4895000Y-30104250D01*
X4898072Y-28990000D01*
X4885812Y-28865518D01*
X4849502Y-28745820D01*
X4790537Y-28635506D01*
X4711185Y-28538815D01*
X4614494Y-28459463D01*
X4504180Y-28400498D01*
X4384482Y-28364188D01*
X4260000Y-28351928D01*
X1598072Y-28354941D01*
X1598072Y-22515000D01*
X1585812Y-22390518D01*
X1549502Y-22270820D01*
X1490537Y-22160506D01*
X1411185Y-22063815D01*
X1314494Y-21984463D01*
X1204180Y-21925498D01*
X1084482Y-21889188D01*
X960000Y-21876928D01*
X-187984Y-21876928D01*
X-216426Y-21865147D01*
X-493665Y-21810000D01*
X-776335Y-21810000D01*
X-1053574Y-21865147D01*
X-1082016Y-21876928D01*
X-1840000Y-21876928D01*
X-1964482Y-21889188D01*
X-2084180Y-21925498D01*
X-2194494Y-21984463D01*
X-2291185Y-22063815D01*
X-2370537Y-22160506D01*
X-2429502Y-22270820D01*
X-2465812Y-22390518D01*
X-2478072Y-22515000D01*
X-4953000Y-22515000D01*
X-4953000Y-18327000D01*
X-4010000Y-18327000D01*
X-4010000Y-18877000D01*
X-3949004Y-19242305D01*
X-3817912Y-19588691D01*
X-3621763Y-19902847D01*
X-3368094Y-20172699D01*
X-3066653Y-20387878D01*
X-2729025Y-20540114D01*
X-2544645Y-20587695D01*
X-2252000Y-20471572D01*
X-2252000Y-18327000D01*
X-1998000Y-18327000D01*
X-1998000Y-20471572D01*
X-1705355Y-20587695D01*
X-1520975Y-20540114D01*
X-1183347Y-20387878D01*
X-881906Y-20172699D01*
X-628237Y-19902847D01*
X-432088Y-19588691D01*
X-300996Y-19242305D01*
X-240000Y-18877000D01*
X-240000Y-18327000D01*
X-1998000Y-18327000D01*
X-2252000Y-18327000D01*
X-4010000Y-18327000D01*
X-4953000Y-18327000D01*
X-4953000Y-17523000D01*
X-4010000Y-17523000D01*
X-4010000Y-18073000D01*
X-2252000Y-18073000D01*
X-2252000Y-15928428D01*
X-1998000Y-15928428D01*
X-1998000Y-18073000D01*
X-240000Y-18073000D01*
X-240000Y-17523000D01*
X-300996Y-17157695D01*
X-432088Y-16811309D01*
X-628237Y-16497153D01*
X-881906Y-16227301D01*
X-1183347Y-16012122D01*
X-1520975Y-15859886D01*
X-1705355Y-15812305D01*
X-1998000Y-15928428D01*
X-2252000Y-15928428D01*
X-2544645Y-15812305D01*
X-2729025Y-15859886D01*
X-3066653Y-16012122D01*
X-3368094Y-16227301D01*
X-3621763Y-16497153D01*
X-3817912Y-16811309D01*
X-3949004Y-17157695D01*
X-4010000Y-17523000D01*
X-4953000Y-17523000D01*
X-4953000Y-15752000D01*
X6223000Y-15752000D01*
X6223000Y-32008000D01*
G36*
X46683531Y-88295512D02*
G01*
X46605802Y-88306112D01*
X46298330Y-88412076D01*
X46120478Y-88507140D01*
X46022782Y-88773177D01*
X46990000Y-89740395D01*
X47004143Y-89726253D01*
X47183748Y-89905858D01*
X47169605Y-89920000D01*
X47183748Y-89934143D01*
X47004143Y-90113748D01*
X46990000Y-90099605D01*
X46975858Y-90113748D01*
X46796253Y-89934143D01*
X46810395Y-89920000D01*
X45843177Y-88952782D01*
X45577140Y-89050478D01*
X45434652Y-89342821D01*
X45351936Y-89657344D01*
X45332169Y-89981962D01*
X45376112Y-90304198D01*
X45482076Y-90611670D01*
X45577140Y-90789522D01*
X45843175Y-90887217D01*
X45727549Y-91002844D01*
X45787705Y-91063000D01*
X37517606Y-91063000D01*
X24854803Y-78400197D01*
X24835557Y-78384403D01*
X24813601Y-78372667D01*
X24789776Y-78365440D01*
X24765000Y-78363000D01*
X12192000Y-78363000D01*
X12192000Y-74172000D01*
X27263702Y-74172000D01*
X46683531Y-88295512D01*
G37*
X46683531Y-88295512D02*
X46605802Y-88306112D01*
X46298330Y-88412076D01*
X46120478Y-88507140D01*
X46022782Y-88773177D01*
X46990000Y-89740395D01*
X47004143Y-89726253D01*
X47183748Y-89905858D01*
X47169605Y-89920000D01*
X47183748Y-89934143D01*
X47004143Y-90113748D01*
X46990000Y-90099605D01*
X46975858Y-90113748D01*
X46796253Y-89934143D01*
X46810395Y-89920000D01*
X45843177Y-88952782D01*
X45577140Y-89050478D01*
X45434652Y-89342821D01*
X45351936Y-89657344D01*
X45332169Y-89981962D01*
X45376112Y-90304198D01*
X45482076Y-90611670D01*
X45577140Y-90789522D01*
X45843175Y-90887217D01*
X45727549Y-91002844D01*
X45787705Y-91063000D01*
X37517606Y-91063000D01*
X24854803Y-78400197D01*
X24835557Y-78384403D01*
X24813601Y-78372667D01*
X24789776Y-78365440D01*
X24765000Y-78363000D01*
X12192000Y-78363000D01*
X12192000Y-74172000D01*
X27263702Y-74172000D01*
X46683531Y-88295512D01*
G36*
X-12827000Y-47375000D02*
G01*
X-12824560Y-47399776D01*
X-12817333Y-47423601D01*
X-12805597Y-47445557D01*
X-12789803Y-47464803D01*
X-12770557Y-47480597D01*
X-12748601Y-47492333D01*
X-12724776Y-47499560D01*
X-12700000Y-47502000D01*
X-10623837Y-47502000D01*
X-10628072Y-47545000D01*
X-10625000Y-48359250D01*
X-10466250Y-48518000D01*
X-9017000Y-48518000D01*
X-9017000Y-48498000D01*
X-8763000Y-48498000D01*
X-8763000Y-48518000D01*
X-8743000Y-48518000D01*
X-8743000Y-48772000D01*
X-8763000Y-48772000D01*
X-8763000Y-50221250D01*
X-8604250Y-50380000D01*
X-7790000Y-50383072D01*
X-7747000Y-50378837D01*
X-7747000Y-61980000D01*
X-7744560Y-62004776D01*
X-7737333Y-62028601D01*
X-7725597Y-62050557D01*
X-7707344Y-62072196D01*
X4318000Y-73464627D01*
X4318000Y-76571058D01*
X3073124Y-82173000D01*
X-635000Y-82173000D01*
X-659776Y-82175440D01*
X-683601Y-82182667D01*
X-705557Y-82194403D01*
X-728619Y-82214183D01*
X-6520397Y-88532486D01*
X-6557511Y-88252561D01*
X-6667664Y-87929034D01*
X-6773662Y-87730726D01*
X-7048288Y-87622893D01*
X-8075395Y-88650000D01*
X-8061253Y-88664143D01*
X-8240858Y-88843748D01*
X-8255000Y-88829605D01*
X-8269143Y-88843748D01*
X-8448748Y-88664143D01*
X-8434605Y-88650000D01*
X-9461712Y-87622893D01*
X-9736338Y-87730726D01*
X-9887216Y-88037384D01*
X-9975369Y-88367585D01*
X-9997409Y-88708639D01*
X-9952489Y-89047439D01*
X-9842336Y-89370966D01*
X-9736338Y-89569274D01*
X-9461714Y-89677106D01*
X-9577136Y-89792528D01*
X-9576664Y-89793000D01*
X-11303000Y-89793000D01*
X-11303000Y-87443288D01*
X-9282107Y-87443288D01*
X-8255000Y-88470395D01*
X-7227893Y-87443288D01*
X-7335726Y-87168662D01*
X-7642384Y-87017784D01*
X-7972585Y-86929631D01*
X-8313639Y-86907591D01*
X-8652439Y-86952511D01*
X-8975966Y-87062664D01*
X-9174274Y-87168662D01*
X-9282107Y-87443288D01*
X-11303000Y-87443288D01*
X-11303000Y-66646601D01*
X-11267932Y-66184202D01*
X-11267689Y-66165333D01*
X-11266744Y-66091908D01*
X-11303000Y-65366948D01*
X-11303000Y-56265000D01*
X-11305440Y-56240224D01*
X-11312667Y-56216399D01*
X-11324403Y-56194443D01*
X-11340197Y-56175197D01*
X-11359443Y-56159403D01*
X-11381399Y-56147667D01*
X-11405224Y-56140440D01*
X-11430000Y-56138000D01*
X-17807781Y-56138000D01*
X-18508422Y-55850118D01*
X-18528941Y-55843158D01*
X-18595833Y-55820468D01*
X-19265000Y-55639450D01*
X-19265000Y-49745000D01*
X-10628072Y-49745000D01*
X-10615812Y-49869482D01*
X-10579502Y-49989180D01*
X-10520537Y-50099494D01*
X-10441185Y-50196185D01*
X-10344494Y-50275537D01*
X-10234180Y-50334502D01*
X-10114482Y-50370812D01*
X-9990000Y-50383072D01*
X-9175750Y-50380000D01*
X-9017000Y-50221250D01*
X-9017000Y-48772000D01*
X-10466250Y-48772000D01*
X-10625000Y-48930750D01*
X-10628072Y-49745000D01*
X-19265000Y-49745000D01*
X-19265000Y-46736104D01*
X-19261444Y-46700000D01*
X-19275635Y-46555915D01*
X-19317663Y-46417367D01*
X-19385913Y-46289680D01*
X-19477762Y-46177762D01*
X-19589680Y-46085913D01*
X-19717367Y-46017663D01*
X-19855915Y-45975635D01*
X-19963895Y-45965000D01*
X-20000000Y-45961444D01*
X-20036105Y-45965000D01*
X-21269807Y-45965000D01*
X-21261928Y-45885000D01*
X-21263987Y-44065413D01*
X-18100808Y-44065413D01*
X-18005044Y-44329814D01*
X-17715429Y-44470704D01*
X-17403892Y-44552384D01*
X-17082405Y-44571718D01*
X-16763325Y-44527961D01*
X-16458912Y-44422795D01*
X-16284956Y-44329814D01*
X-16189192Y-44065413D01*
X-17145000Y-43109605D01*
X-18100808Y-44065413D01*
X-21263987Y-44065413D01*
X-21265000Y-43170750D01*
X-21423750Y-43012000D01*
X-23173000Y-43012000D01*
X-23173000Y-43032000D01*
X-23427000Y-43032000D01*
X-23427000Y-43012000D01*
X-23447000Y-43012000D01*
X-23447000Y-42992595D01*
X-18786718Y-42992595D01*
X-18742961Y-43311675D01*
X-18637795Y-43616088D01*
X-18544814Y-43790044D01*
X-18280413Y-43885808D01*
X-17324605Y-42930000D01*
X-16965395Y-42930000D01*
X-16009587Y-43885808D01*
X-15745186Y-43790044D01*
X-15604296Y-43500429D01*
X-15522616Y-43188892D01*
X-15503282Y-42867405D01*
X-15547039Y-42548325D01*
X-15652205Y-42243912D01*
X-15745186Y-42069956D01*
X-16009587Y-41974192D01*
X-16965395Y-42930000D01*
X-17324605Y-42930000D01*
X-18280413Y-41974192D01*
X-18544814Y-42069956D01*
X-18685704Y-42359571D01*
X-18767384Y-42671108D01*
X-18786718Y-42992595D01*
X-23447000Y-42992595D01*
X-23447000Y-42758000D01*
X-23427000Y-42758000D01*
X-23427000Y-39408750D01*
X-23173000Y-39408750D01*
X-23173000Y-42758000D01*
X-21423750Y-42758000D01*
X-21265000Y-42599250D01*
X-21264090Y-41794587D01*
X-18100808Y-41794587D01*
X-17145000Y-42750395D01*
X-16189192Y-41794587D01*
X-16284956Y-41530186D01*
X-16574571Y-41389296D01*
X-16886108Y-41307616D01*
X-17207595Y-41288282D01*
X-17526675Y-41332039D01*
X-17831088Y-41437205D01*
X-18005044Y-41530186D01*
X-18100808Y-41794587D01*
X-21264090Y-41794587D01*
X-21261928Y-39885000D01*
X-21274188Y-39760518D01*
X-21310498Y-39640820D01*
X-21369463Y-39530506D01*
X-21448815Y-39433815D01*
X-21545506Y-39354463D01*
X-21655820Y-39295498D01*
X-21775518Y-39259188D01*
X-21900000Y-39246928D01*
X-23014250Y-39250000D01*
X-23173000Y-39408750D01*
X-23427000Y-39408750D01*
X-23585750Y-39250000D01*
X-24265000Y-39248127D01*
X-24265000Y-36707000D01*
X-12827000Y-36707000D01*
X-12827000Y-47375000D01*
G37*
X-12827000Y-47375000D02*
X-12824560Y-47399776D01*
X-12817333Y-47423601D01*
X-12805597Y-47445557D01*
X-12789803Y-47464803D01*
X-12770557Y-47480597D01*
X-12748601Y-47492333D01*
X-12724776Y-47499560D01*
X-12700000Y-47502000D01*
X-10623837Y-47502000D01*
X-10628072Y-47545000D01*
X-10625000Y-48359250D01*
X-10466250Y-48518000D01*
X-9017000Y-48518000D01*
X-9017000Y-48498000D01*
X-8763000Y-48498000D01*
X-8763000Y-48518000D01*
X-8743000Y-48518000D01*
X-8743000Y-48772000D01*
X-8763000Y-48772000D01*
X-8763000Y-50221250D01*
X-8604250Y-50380000D01*
X-7790000Y-50383072D01*
X-7747000Y-50378837D01*
X-7747000Y-61980000D01*
X-7744560Y-62004776D01*
X-7737333Y-62028601D01*
X-7725597Y-62050557D01*
X-7707344Y-62072196D01*
X4318000Y-73464627D01*
X4318000Y-76571058D01*
X3073124Y-82173000D01*
X-635000Y-82173000D01*
X-659776Y-82175440D01*
X-683601Y-82182667D01*
X-705557Y-82194403D01*
X-728619Y-82214183D01*
X-6520397Y-88532486D01*
X-6557511Y-88252561D01*
X-6667664Y-87929034D01*
X-6773662Y-87730726D01*
X-7048288Y-87622893D01*
X-8075395Y-88650000D01*
X-8061253Y-88664143D01*
X-8240858Y-88843748D01*
X-8255000Y-88829605D01*
X-8269143Y-88843748D01*
X-8448748Y-88664143D01*
X-8434605Y-88650000D01*
X-9461712Y-87622893D01*
X-9736338Y-87730726D01*
X-9887216Y-88037384D01*
X-9975369Y-88367585D01*
X-9997409Y-88708639D01*
X-9952489Y-89047439D01*
X-9842336Y-89370966D01*
X-9736338Y-89569274D01*
X-9461714Y-89677106D01*
X-9577136Y-89792528D01*
X-9576664Y-89793000D01*
X-11303000Y-89793000D01*
X-11303000Y-87443288D01*
X-9282107Y-87443288D01*
X-8255000Y-88470395D01*
X-7227893Y-87443288D01*
X-7335726Y-87168662D01*
X-7642384Y-87017784D01*
X-7972585Y-86929631D01*
X-8313639Y-86907591D01*
X-8652439Y-86952511D01*
X-8975966Y-87062664D01*
X-9174274Y-87168662D01*
X-9282107Y-87443288D01*
X-11303000Y-87443288D01*
X-11303000Y-66646601D01*
X-11267932Y-66184202D01*
X-11267689Y-66165333D01*
X-11266744Y-66091908D01*
X-11303000Y-65366948D01*
X-11303000Y-56265000D01*
X-11305440Y-56240224D01*
X-11312667Y-56216399D01*
X-11324403Y-56194443D01*
X-11340197Y-56175197D01*
X-11359443Y-56159403D01*
X-11381399Y-56147667D01*
X-11405224Y-56140440D01*
X-11430000Y-56138000D01*
X-17807781Y-56138000D01*
X-18508422Y-55850118D01*
X-18528941Y-55843158D01*
X-18595833Y-55820468D01*
X-19265000Y-55639450D01*
X-19265000Y-49745000D01*
X-10628072Y-49745000D01*
X-10615812Y-49869482D01*
X-10579502Y-49989180D01*
X-10520537Y-50099494D01*
X-10441185Y-50196185D01*
X-10344494Y-50275537D01*
X-10234180Y-50334502D01*
X-10114482Y-50370812D01*
X-9990000Y-50383072D01*
X-9175750Y-50380000D01*
X-9017000Y-50221250D01*
X-9017000Y-48772000D01*
X-10466250Y-48772000D01*
X-10625000Y-48930750D01*
X-10628072Y-49745000D01*
X-19265000Y-49745000D01*
X-19265000Y-46736104D01*
X-19261444Y-46700000D01*
X-19275635Y-46555915D01*
X-19317663Y-46417367D01*
X-19385913Y-46289680D01*
X-19477762Y-46177762D01*
X-19589680Y-46085913D01*
X-19717367Y-46017663D01*
X-19855915Y-45975635D01*
X-19963895Y-45965000D01*
X-20000000Y-45961444D01*
X-20036105Y-45965000D01*
X-21269807Y-45965000D01*
X-21261928Y-45885000D01*
X-21263987Y-44065413D01*
X-18100808Y-44065413D01*
X-18005044Y-44329814D01*
X-17715429Y-44470704D01*
X-17403892Y-44552384D01*
X-17082405Y-44571718D01*
X-16763325Y-44527961D01*
X-16458912Y-44422795D01*
X-16284956Y-44329814D01*
X-16189192Y-44065413D01*
X-17145000Y-43109605D01*
X-18100808Y-44065413D01*
X-21263987Y-44065413D01*
X-21265000Y-43170750D01*
X-21423750Y-43012000D01*
X-23173000Y-43012000D01*
X-23173000Y-43032000D01*
X-23427000Y-43032000D01*
X-23427000Y-43012000D01*
X-23447000Y-43012000D01*
X-23447000Y-42992595D01*
X-18786718Y-42992595D01*
X-18742961Y-43311675D01*
X-18637795Y-43616088D01*
X-18544814Y-43790044D01*
X-18280413Y-43885808D01*
X-17324605Y-42930000D01*
X-16965395Y-42930000D01*
X-16009587Y-43885808D01*
X-15745186Y-43790044D01*
X-15604296Y-43500429D01*
X-15522616Y-43188892D01*
X-15503282Y-42867405D01*
X-15547039Y-42548325D01*
X-15652205Y-42243912D01*
X-15745186Y-42069956D01*
X-16009587Y-41974192D01*
X-16965395Y-42930000D01*
X-17324605Y-42930000D01*
X-18280413Y-41974192D01*
X-18544814Y-42069956D01*
X-18685704Y-42359571D01*
X-18767384Y-42671108D01*
X-18786718Y-42992595D01*
X-23447000Y-42992595D01*
X-23447000Y-42758000D01*
X-23427000Y-42758000D01*
X-23427000Y-39408750D01*
X-23173000Y-39408750D01*
X-23173000Y-42758000D01*
X-21423750Y-42758000D01*
X-21265000Y-42599250D01*
X-21264090Y-41794587D01*
X-18100808Y-41794587D01*
X-17145000Y-42750395D01*
X-16189192Y-41794587D01*
X-16284956Y-41530186D01*
X-16574571Y-41389296D01*
X-16886108Y-41307616D01*
X-17207595Y-41288282D01*
X-17526675Y-41332039D01*
X-17831088Y-41437205D01*
X-18005044Y-41530186D01*
X-18100808Y-41794587D01*
X-21264090Y-41794587D01*
X-21261928Y-39885000D01*
X-21274188Y-39760518D01*
X-21310498Y-39640820D01*
X-21369463Y-39530506D01*
X-21448815Y-39433815D01*
X-21545506Y-39354463D01*
X-21655820Y-39295498D01*
X-21775518Y-39259188D01*
X-21900000Y-39246928D01*
X-23014250Y-39250000D01*
X-23173000Y-39408750D01*
X-23427000Y-39408750D01*
X-23585750Y-39250000D01*
X-24265000Y-39248127D01*
X-24265000Y-36707000D01*
X-12827000Y-36707000D01*
X-12827000Y-47375000D01*
G36*
X81788000Y-56773000D02*
G01*
X80548694Y-56773000D01*
X80469180Y-56730498D01*
X80388534Y-56706034D01*
X80472588Y-56630269D01*
X80646641Y-56396920D01*
X80771825Y-56134099D01*
X80816476Y-55986890D01*
X80695155Y-55757000D01*
X79502000Y-55757000D01*
X79502000Y-55777000D01*
X79248000Y-55777000D01*
X79248000Y-55757000D01*
X78054845Y-55757000D01*
X77933524Y-55986890D01*
X77978175Y-56134099D01*
X78103359Y-56396920D01*
X78277412Y-56630269D01*
X78361466Y-56706034D01*
X78280820Y-56730498D01*
X78201306Y-56773000D01*
X78105000Y-56773000D01*
X78080224Y-56775440D01*
X78056399Y-56782667D01*
X78034443Y-56794403D01*
X78015197Y-56810197D01*
X78004337Y-56822567D01*
X71692465Y-65028000D01*
X71052295Y-65028000D01*
X71112451Y-64967844D01*
X70996825Y-64852217D01*
X71262860Y-64754522D01*
X71405348Y-64462179D01*
X71488064Y-64147656D01*
X71507831Y-63823038D01*
X71463888Y-63500802D01*
X71357924Y-63193330D01*
X71262860Y-63015478D01*
X70996823Y-62917782D01*
X70029605Y-63885000D01*
X70043748Y-63899143D01*
X69864143Y-64078748D01*
X69850000Y-64064605D01*
X69835858Y-64078748D01*
X69656253Y-63899143D01*
X69670395Y-63885000D01*
X68703177Y-62917782D01*
X68437140Y-63015478D01*
X68294652Y-63307821D01*
X68211936Y-63622344D01*
X68192169Y-63946962D01*
X68236112Y-64269198D01*
X68342076Y-64576670D01*
X68437140Y-64754522D01*
X68703175Y-64852217D01*
X68587549Y-64967844D01*
X68647705Y-65028000D01*
X66167000Y-65028000D01*
X66167000Y-62738177D01*
X68882782Y-62738177D01*
X69850000Y-63705395D01*
X70817218Y-62738177D01*
X70719522Y-62472140D01*
X70427179Y-62329652D01*
X70112656Y-62246936D01*
X69788038Y-62227169D01*
X69465802Y-62271112D01*
X69158330Y-62377076D01*
X68980478Y-62472140D01*
X68882782Y-62738177D01*
X66167000Y-62738177D01*
X66167000Y-55273110D01*
X77933524Y-55273110D01*
X78054845Y-55503000D01*
X79248000Y-55503000D01*
X79248000Y-54309186D01*
X79502000Y-54309186D01*
X79502000Y-55503000D01*
X80695155Y-55503000D01*
X80816476Y-55273110D01*
X80771825Y-55125901D01*
X80646641Y-54863080D01*
X80472588Y-54629731D01*
X80256355Y-54434822D01*
X80006252Y-54285843D01*
X79731891Y-54188519D01*
X79502000Y-54309186D01*
X79248000Y-54309186D01*
X79018109Y-54188519D01*
X78743748Y-54285843D01*
X78493645Y-54434822D01*
X78277412Y-54629731D01*
X78103359Y-54863080D01*
X77978175Y-55125901D01*
X77933524Y-55273110D01*
X66167000Y-55273110D01*
X66167000Y-53217000D01*
X81788000Y-53217000D01*
X81788000Y-56773000D01*
G37*
X81788000Y-56773000D02*
X80548694Y-56773000D01*
X80469180Y-56730498D01*
X80388534Y-56706034D01*
X80472588Y-56630269D01*
X80646641Y-56396920D01*
X80771825Y-56134099D01*
X80816476Y-55986890D01*
X80695155Y-55757000D01*
X79502000Y-55757000D01*
X79502000Y-55777000D01*
X79248000Y-55777000D01*
X79248000Y-55757000D01*
X78054845Y-55757000D01*
X77933524Y-55986890D01*
X77978175Y-56134099D01*
X78103359Y-56396920D01*
X78277412Y-56630269D01*
X78361466Y-56706034D01*
X78280820Y-56730498D01*
X78201306Y-56773000D01*
X78105000Y-56773000D01*
X78080224Y-56775440D01*
X78056399Y-56782667D01*
X78034443Y-56794403D01*
X78015197Y-56810197D01*
X78004337Y-56822567D01*
X71692465Y-65028000D01*
X71052295Y-65028000D01*
X71112451Y-64967844D01*
X70996825Y-64852217D01*
X71262860Y-64754522D01*
X71405348Y-64462179D01*
X71488064Y-64147656D01*
X71507831Y-63823038D01*
X71463888Y-63500802D01*
X71357924Y-63193330D01*
X71262860Y-63015478D01*
X70996823Y-62917782D01*
X70029605Y-63885000D01*
X70043748Y-63899143D01*
X69864143Y-64078748D01*
X69850000Y-64064605D01*
X69835858Y-64078748D01*
X69656253Y-63899143D01*
X69670395Y-63885000D01*
X68703177Y-62917782D01*
X68437140Y-63015478D01*
X68294652Y-63307821D01*
X68211936Y-63622344D01*
X68192169Y-63946962D01*
X68236112Y-64269198D01*
X68342076Y-64576670D01*
X68437140Y-64754522D01*
X68703175Y-64852217D01*
X68587549Y-64967844D01*
X68647705Y-65028000D01*
X66167000Y-65028000D01*
X66167000Y-62738177D01*
X68882782Y-62738177D01*
X69850000Y-63705395D01*
X70817218Y-62738177D01*
X70719522Y-62472140D01*
X70427179Y-62329652D01*
X70112656Y-62246936D01*
X69788038Y-62227169D01*
X69465802Y-62271112D01*
X69158330Y-62377076D01*
X68980478Y-62472140D01*
X68882782Y-62738177D01*
X66167000Y-62738177D01*
X66167000Y-55273110D01*
X77933524Y-55273110D01*
X78054845Y-55503000D01*
X79248000Y-55503000D01*
X79248000Y-54309186D01*
X79502000Y-54309186D01*
X79502000Y-55503000D01*
X80695155Y-55503000D01*
X80816476Y-55273110D01*
X80771825Y-55125901D01*
X80646641Y-54863080D01*
X80472588Y-54629731D01*
X80256355Y-54434822D01*
X80006252Y-54285843D01*
X79731891Y-54188519D01*
X79502000Y-54309186D01*
X79248000Y-54309186D01*
X79018109Y-54188519D01*
X78743748Y-54285843D01*
X78493645Y-54434822D01*
X78277412Y-54629731D01*
X78103359Y-54863080D01*
X77978175Y-55125901D01*
X77933524Y-55273110D01*
X66167000Y-55273110D01*
X66167000Y-53217000D01*
X81788000Y-53217000D01*
X81788000Y-56773000D01*
G36*
X-2378072Y-39410000D02*
G01*
X-2366668Y-39525791D01*
X-2370537Y-39530506D01*
X-2429502Y-39640820D01*
X-2465812Y-39760518D01*
X-2478072Y-39885000D01*
X-2475000Y-42599250D01*
X-2316250Y-42758000D01*
X-567000Y-42758000D01*
X-567000Y-42738000D01*
X-313000Y-42738000D01*
X-313000Y-42758000D01*
X1436250Y-42758000D01*
X1595000Y-42599250D01*
X1597887Y-40048072D01*
X4260000Y-40048072D01*
X4384482Y-40035812D01*
X4504180Y-39999502D01*
X4614494Y-39940537D01*
X4685822Y-39882000D01*
X8128000Y-39882000D01*
X8128000Y-46613000D01*
X-6858000Y-46613000D01*
X-6858000Y-45885000D01*
X-2478072Y-45885000D01*
X-2465812Y-46009482D01*
X-2429502Y-46129180D01*
X-2370537Y-46239494D01*
X-2291185Y-46336185D01*
X-2194494Y-46415537D01*
X-2084180Y-46474502D01*
X-1964482Y-46510812D01*
X-1840000Y-46523072D01*
X-725750Y-46520000D01*
X-567000Y-46361250D01*
X-567000Y-43012000D01*
X-313000Y-43012000D01*
X-313000Y-46361250D01*
X-154250Y-46520000D01*
X960000Y-46523072D01*
X1084482Y-46510812D01*
X1204180Y-46474502D01*
X1314494Y-46415537D01*
X1411185Y-46336185D01*
X1490537Y-46239494D01*
X1549502Y-46129180D01*
X1585812Y-46009482D01*
X1598072Y-45885000D01*
X1595000Y-43170750D01*
X1436250Y-43012000D01*
X-313000Y-43012000D01*
X-567000Y-43012000D01*
X-2316250Y-43012000D01*
X-2475000Y-43170750D01*
X-2478072Y-45885000D01*
X-6858000Y-45885000D01*
X-6858000Y-36707000D01*
X-2378072Y-36707000D01*
X-2378072Y-39410000D01*
G37*
X-2378072Y-39410000D02*
X-2366668Y-39525791D01*
X-2370537Y-39530506D01*
X-2429502Y-39640820D01*
X-2465812Y-39760518D01*
X-2478072Y-39885000D01*
X-2475000Y-42599250D01*
X-2316250Y-42758000D01*
X-567000Y-42758000D01*
X-567000Y-42738000D01*
X-313000Y-42738000D01*
X-313000Y-42758000D01*
X1436250Y-42758000D01*
X1595000Y-42599250D01*
X1597887Y-40048072D01*
X4260000Y-40048072D01*
X4384482Y-40035812D01*
X4504180Y-39999502D01*
X4614494Y-39940537D01*
X4685822Y-39882000D01*
X8128000Y-39882000D01*
X8128000Y-46613000D01*
X-6858000Y-46613000D01*
X-6858000Y-45885000D01*
X-2478072Y-45885000D01*
X-2465812Y-46009482D01*
X-2429502Y-46129180D01*
X-2370537Y-46239494D01*
X-2291185Y-46336185D01*
X-2194494Y-46415537D01*
X-2084180Y-46474502D01*
X-1964482Y-46510812D01*
X-1840000Y-46523072D01*
X-725750Y-46520000D01*
X-567000Y-46361250D01*
X-567000Y-43012000D01*
X-313000Y-43012000D01*
X-313000Y-46361250D01*
X-154250Y-46520000D01*
X960000Y-46523072D01*
X1084482Y-46510812D01*
X1204180Y-46474502D01*
X1314494Y-46415537D01*
X1411185Y-46336185D01*
X1490537Y-46239494D01*
X1549502Y-46129180D01*
X1585812Y-46009482D01*
X1598072Y-45885000D01*
X1595000Y-43170750D01*
X1436250Y-43012000D01*
X-313000Y-43012000D01*
X-567000Y-43012000D01*
X-2316250Y-43012000D01*
X-2475000Y-43170750D01*
X-2478072Y-45885000D01*
X-6858000Y-45885000D01*
X-6858000Y-36707000D01*
X-2378072Y-36707000D01*
X-2378072Y-39410000D01*
G36*
X30988000Y-42712836D02*
G01*
X30936082Y-42790537D01*
X30812832Y-43088088D01*
X30750000Y-43403967D01*
X30750000Y-43726033D01*
X30812832Y-44041912D01*
X30936082Y-44339463D01*
X30988000Y-44417164D01*
X30988000Y-44835000D01*
X30990440Y-44859776D01*
X30997667Y-44883601D01*
X31009403Y-44905557D01*
X31025197Y-44924803D01*
X31044443Y-44940597D01*
X31066399Y-44952333D01*
X31090224Y-44959560D01*
X31115000Y-44962000D01*
X31532836Y-44962000D01*
X31610537Y-45013918D01*
X31908088Y-45137168D01*
X32223967Y-45200000D01*
X32546033Y-45200000D01*
X32861912Y-45137168D01*
X33159463Y-45013918D01*
X33237164Y-44962000D01*
X34072836Y-44962000D01*
X34150537Y-45013918D01*
X34448088Y-45137168D01*
X34763967Y-45200000D01*
X35086033Y-45200000D01*
X35401912Y-45137168D01*
X35433000Y-45124291D01*
X35433000Y-61099037D01*
X35366903Y-61197958D01*
X35242447Y-61498421D01*
X35179000Y-61817391D01*
X35179000Y-62142609D01*
X35242447Y-62461579D01*
X35366903Y-62762042D01*
X35433000Y-62860963D01*
X35433000Y-63250000D01*
X35435440Y-63274776D01*
X35442667Y-63298601D01*
X35454403Y-63320557D01*
X35470197Y-63339803D01*
X35489443Y-63355597D01*
X35511399Y-63367333D01*
X35535224Y-63374560D01*
X35560000Y-63377000D01*
X35949037Y-63377000D01*
X36047958Y-63443097D01*
X36348421Y-63567553D01*
X36667391Y-63631000D01*
X36992609Y-63631000D01*
X37311579Y-63567553D01*
X37612042Y-63443097D01*
X37710963Y-63377000D01*
X37973000Y-63377000D01*
X37973000Y-67695000D01*
X35927257Y-67695000D01*
X35952107Y-67631712D01*
X34925000Y-66604605D01*
X33897893Y-67631712D01*
X33922743Y-67695000D01*
X31557004Y-67695000D01*
X31570812Y-67649482D01*
X31583072Y-67525000D01*
X31583072Y-66483639D01*
X33182591Y-66483639D01*
X33227511Y-66822439D01*
X33337664Y-67145966D01*
X33443662Y-67344274D01*
X33718288Y-67452107D01*
X34745395Y-66425000D01*
X35104605Y-66425000D01*
X36131712Y-67452107D01*
X36406338Y-67344274D01*
X36557216Y-67037616D01*
X36645369Y-66707415D01*
X36667409Y-66366361D01*
X36622489Y-66027561D01*
X36512336Y-65704034D01*
X36406338Y-65505726D01*
X36131712Y-65397893D01*
X35104605Y-66425000D01*
X34745395Y-66425000D01*
X33718288Y-65397893D01*
X33443662Y-65505726D01*
X33292784Y-65812384D01*
X33204631Y-66142585D01*
X33182591Y-66483639D01*
X31583072Y-66483639D01*
X31583072Y-65325000D01*
X31572563Y-65218288D01*
X33897893Y-65218288D01*
X34925000Y-66245395D01*
X35952107Y-65218288D01*
X35844274Y-64943662D01*
X35537616Y-64792784D01*
X35207415Y-64704631D01*
X34866361Y-64682591D01*
X34527561Y-64727511D01*
X34204034Y-64837664D01*
X34005726Y-64943662D01*
X33897893Y-65218288D01*
X31572563Y-65218288D01*
X31570812Y-65200518D01*
X31534502Y-65080820D01*
X31475537Y-64970506D01*
X31396185Y-64873815D01*
X31299494Y-64794463D01*
X31189180Y-64735498D01*
X31069482Y-64699188D01*
X30945000Y-64686928D01*
X29210000Y-64686928D01*
X29210000Y-63250000D01*
X29197799Y-63126118D01*
X29161664Y-63006996D01*
X29102983Y-62897213D01*
X29024013Y-62800987D01*
X28927787Y-62722017D01*
X28818004Y-62663336D01*
X28698882Y-62627201D01*
X28575000Y-62615000D01*
X28194004Y-62615000D01*
X28257553Y-62461579D01*
X28321000Y-62142609D01*
X28321000Y-61817391D01*
X28257553Y-61498421D01*
X28133097Y-61197958D01*
X28067000Y-61099037D01*
X28067000Y-60710000D01*
X28064560Y-60685224D01*
X28057333Y-60661399D01*
X28045597Y-60639443D01*
X28029803Y-60620197D01*
X28010557Y-60604403D01*
X27988601Y-60592667D01*
X27964776Y-60585440D01*
X27940000Y-60583000D01*
X27550963Y-60583000D01*
X27452042Y-60516903D01*
X27151579Y-60392447D01*
X26832609Y-60329000D01*
X26507391Y-60329000D01*
X26188421Y-60392447D01*
X25887958Y-60516903D01*
X25789037Y-60583000D01*
X25010963Y-60583000D01*
X24912042Y-60516903D01*
X24892000Y-60508601D01*
X24892000Y-56886853D01*
X25008004Y-56851664D01*
X25117787Y-56792983D01*
X25214013Y-56714013D01*
X25292983Y-56617787D01*
X25351664Y-56508004D01*
X25387799Y-56388882D01*
X25400000Y-56265000D01*
X25400000Y-47375000D01*
X25387799Y-47251118D01*
X25351664Y-47131996D01*
X25292983Y-47022213D01*
X25214013Y-46925987D01*
X25117787Y-46847017D01*
X25008004Y-46788336D01*
X24999989Y-46785905D01*
X25082553Y-46586579D01*
X25146000Y-46267609D01*
X25146000Y-45942391D01*
X25082553Y-45623421D01*
X24958097Y-45322958D01*
X24892000Y-45224037D01*
X24892000Y-44835000D01*
X24889560Y-44810224D01*
X24882333Y-44786399D01*
X24870597Y-44764443D01*
X24854803Y-44745197D01*
X24835557Y-44729403D01*
X24813601Y-44717667D01*
X24789776Y-44710440D01*
X24765000Y-44708000D01*
X24697295Y-44708000D01*
X24757451Y-44647844D01*
X24641825Y-44532217D01*
X24907860Y-44434522D01*
X25050348Y-44142179D01*
X25133064Y-43827656D01*
X25152831Y-43503038D01*
X25108888Y-43180802D01*
X25002924Y-42873330D01*
X24907860Y-42695478D01*
X24641823Y-42597782D01*
X23674605Y-43565000D01*
X23688748Y-43579143D01*
X23509143Y-43758748D01*
X23495000Y-43744605D01*
X23480858Y-43758748D01*
X23301253Y-43579143D01*
X23315395Y-43565000D01*
X23301253Y-43550858D01*
X23480858Y-43371253D01*
X23495000Y-43385395D01*
X24462218Y-42418177D01*
X24364522Y-42152140D01*
X24072179Y-42009652D01*
X23757656Y-41926936D01*
X23433038Y-41907169D01*
X23110802Y-41951112D01*
X22803330Y-42057076D01*
X22625478Y-42152140D01*
X22527783Y-42418175D01*
X22412156Y-42302549D01*
X22352000Y-42362705D01*
X22352000Y-41787000D01*
X30988000Y-41787000D01*
X30988000Y-42712836D01*
G37*
X30988000Y-42712836D02*
X30936082Y-42790537D01*
X30812832Y-43088088D01*
X30750000Y-43403967D01*
X30750000Y-43726033D01*
X30812832Y-44041912D01*
X30936082Y-44339463D01*
X30988000Y-44417164D01*
X30988000Y-44835000D01*
X30990440Y-44859776D01*
X30997667Y-44883601D01*
X31009403Y-44905557D01*
X31025197Y-44924803D01*
X31044443Y-44940597D01*
X31066399Y-44952333D01*
X31090224Y-44959560D01*
X31115000Y-44962000D01*
X31532836Y-44962000D01*
X31610537Y-45013918D01*
X31908088Y-45137168D01*
X32223967Y-45200000D01*
X32546033Y-45200000D01*
X32861912Y-45137168D01*
X33159463Y-45013918D01*
X33237164Y-44962000D01*
X34072836Y-44962000D01*
X34150537Y-45013918D01*
X34448088Y-45137168D01*
X34763967Y-45200000D01*
X35086033Y-45200000D01*
X35401912Y-45137168D01*
X35433000Y-45124291D01*
X35433000Y-61099037D01*
X35366903Y-61197958D01*
X35242447Y-61498421D01*
X35179000Y-61817391D01*
X35179000Y-62142609D01*
X35242447Y-62461579D01*
X35366903Y-62762042D01*
X35433000Y-62860963D01*
X35433000Y-63250000D01*
X35435440Y-63274776D01*
X35442667Y-63298601D01*
X35454403Y-63320557D01*
X35470197Y-63339803D01*
X35489443Y-63355597D01*
X35511399Y-63367333D01*
X35535224Y-63374560D01*
X35560000Y-63377000D01*
X35949037Y-63377000D01*
X36047958Y-63443097D01*
X36348421Y-63567553D01*
X36667391Y-63631000D01*
X36992609Y-63631000D01*
X37311579Y-63567553D01*
X37612042Y-63443097D01*
X37710963Y-63377000D01*
X37973000Y-63377000D01*
X37973000Y-67695000D01*
X35927257Y-67695000D01*
X35952107Y-67631712D01*
X34925000Y-66604605D01*
X33897893Y-67631712D01*
X33922743Y-67695000D01*
X31557004Y-67695000D01*
X31570812Y-67649482D01*
X31583072Y-67525000D01*
X31583072Y-66483639D01*
X33182591Y-66483639D01*
X33227511Y-66822439D01*
X33337664Y-67145966D01*
X33443662Y-67344274D01*
X33718288Y-67452107D01*
X34745395Y-66425000D01*
X35104605Y-66425000D01*
X36131712Y-67452107D01*
X36406338Y-67344274D01*
X36557216Y-67037616D01*
X36645369Y-66707415D01*
X36667409Y-66366361D01*
X36622489Y-66027561D01*
X36512336Y-65704034D01*
X36406338Y-65505726D01*
X36131712Y-65397893D01*
X35104605Y-66425000D01*
X34745395Y-66425000D01*
X33718288Y-65397893D01*
X33443662Y-65505726D01*
X33292784Y-65812384D01*
X33204631Y-66142585D01*
X33182591Y-66483639D01*
X31583072Y-66483639D01*
X31583072Y-65325000D01*
X31572563Y-65218288D01*
X33897893Y-65218288D01*
X34925000Y-66245395D01*
X35952107Y-65218288D01*
X35844274Y-64943662D01*
X35537616Y-64792784D01*
X35207415Y-64704631D01*
X34866361Y-64682591D01*
X34527561Y-64727511D01*
X34204034Y-64837664D01*
X34005726Y-64943662D01*
X33897893Y-65218288D01*
X31572563Y-65218288D01*
X31570812Y-65200518D01*
X31534502Y-65080820D01*
X31475537Y-64970506D01*
X31396185Y-64873815D01*
X31299494Y-64794463D01*
X31189180Y-64735498D01*
X31069482Y-64699188D01*
X30945000Y-64686928D01*
X29210000Y-64686928D01*
X29210000Y-63250000D01*
X29197799Y-63126118D01*
X29161664Y-63006996D01*
X29102983Y-62897213D01*
X29024013Y-62800987D01*
X28927787Y-62722017D01*
X28818004Y-62663336D01*
X28698882Y-62627201D01*
X28575000Y-62615000D01*
X28194004Y-62615000D01*
X28257553Y-62461579D01*
X28321000Y-62142609D01*
X28321000Y-61817391D01*
X28257553Y-61498421D01*
X28133097Y-61197958D01*
X28067000Y-61099037D01*
X28067000Y-60710000D01*
X28064560Y-60685224D01*
X28057333Y-60661399D01*
X28045597Y-60639443D01*
X28029803Y-60620197D01*
X28010557Y-60604403D01*
X27988601Y-60592667D01*
X27964776Y-60585440D01*
X27940000Y-60583000D01*
X27550963Y-60583000D01*
X27452042Y-60516903D01*
X27151579Y-60392447D01*
X26832609Y-60329000D01*
X26507391Y-60329000D01*
X26188421Y-60392447D01*
X25887958Y-60516903D01*
X25789037Y-60583000D01*
X25010963Y-60583000D01*
X24912042Y-60516903D01*
X24892000Y-60508601D01*
X24892000Y-56886853D01*
X25008004Y-56851664D01*
X25117787Y-56792983D01*
X25214013Y-56714013D01*
X25292983Y-56617787D01*
X25351664Y-56508004D01*
X25387799Y-56388882D01*
X25400000Y-56265000D01*
X25400000Y-47375000D01*
X25387799Y-47251118D01*
X25351664Y-47131996D01*
X25292983Y-47022213D01*
X25214013Y-46925987D01*
X25117787Y-46847017D01*
X25008004Y-46788336D01*
X24999989Y-46785905D01*
X25082553Y-46586579D01*
X25146000Y-46267609D01*
X25146000Y-45942391D01*
X25082553Y-45623421D01*
X24958097Y-45322958D01*
X24892000Y-45224037D01*
X24892000Y-44835000D01*
X24889560Y-44810224D01*
X24882333Y-44786399D01*
X24870597Y-44764443D01*
X24854803Y-44745197D01*
X24835557Y-44729403D01*
X24813601Y-44717667D01*
X24789776Y-44710440D01*
X24765000Y-44708000D01*
X24697295Y-44708000D01*
X24757451Y-44647844D01*
X24641825Y-44532217D01*
X24907860Y-44434522D01*
X25050348Y-44142179D01*
X25133064Y-43827656D01*
X25152831Y-43503038D01*
X25108888Y-43180802D01*
X25002924Y-42873330D01*
X24907860Y-42695478D01*
X24641823Y-42597782D01*
X23674605Y-43565000D01*
X23688748Y-43579143D01*
X23509143Y-43758748D01*
X23495000Y-43744605D01*
X23480858Y-43758748D01*
X23301253Y-43579143D01*
X23315395Y-43565000D01*
X23301253Y-43550858D01*
X23480858Y-43371253D01*
X23495000Y-43385395D01*
X24462218Y-42418177D01*
X24364522Y-42152140D01*
X24072179Y-42009652D01*
X23757656Y-41926936D01*
X23433038Y-41907169D01*
X23110802Y-41951112D01*
X22803330Y-42057076D01*
X22625478Y-42152140D01*
X22527783Y-42418175D01*
X22412156Y-42302549D01*
X22352000Y-42362705D01*
X22352000Y-41787000D01*
X30988000Y-41787000D01*
X30988000Y-42712836D01*
G36*
X5545498Y-57075820D02*
G01*
X5509188Y-57195518D01*
X5496928Y-57320000D01*
X5500000Y-57884250D01*
X5658750Y-58043000D01*
X6858000Y-58043000D01*
X6858000Y-58023000D01*
X7112000Y-58023000D01*
X7112000Y-58043000D01*
X8311250Y-58043000D01*
X8470000Y-57884250D01*
X8473072Y-57320000D01*
X8460812Y-57195518D01*
X8424502Y-57075820D01*
X8398407Y-57027000D01*
X12573000Y-57027000D01*
X12573000Y-61099037D01*
X12506903Y-61197958D01*
X12382447Y-61498421D01*
X12319000Y-61817391D01*
X12319000Y-62142609D01*
X12382447Y-62461579D01*
X12506903Y-62762042D01*
X12573000Y-62860963D01*
X12573000Y-63250000D01*
X12575440Y-63274776D01*
X12582667Y-63298601D01*
X12594403Y-63320557D01*
X12610197Y-63339803D01*
X12629443Y-63355597D01*
X12651399Y-63367333D01*
X12675224Y-63374560D01*
X12700000Y-63377000D01*
X13089037Y-63377000D01*
X13187958Y-63443097D01*
X13488421Y-63567553D01*
X13807391Y-63631000D01*
X14132609Y-63631000D01*
X14451579Y-63567553D01*
X14752042Y-63443097D01*
X14850963Y-63377000D01*
X15629037Y-63377000D01*
X15727958Y-63443097D01*
X16028421Y-63567553D01*
X16347391Y-63631000D01*
X16672609Y-63631000D01*
X16991579Y-63567553D01*
X17292042Y-63443097D01*
X17390963Y-63377000D01*
X18169037Y-63377000D01*
X18267958Y-63443097D01*
X18568421Y-63567553D01*
X18887391Y-63631000D01*
X19212609Y-63631000D01*
X19531579Y-63567553D01*
X19832042Y-63443097D01*
X19930963Y-63377000D01*
X20709037Y-63377000D01*
X20807958Y-63443097D01*
X21108421Y-63567553D01*
X21427391Y-63631000D01*
X21752609Y-63631000D01*
X22071579Y-63567553D01*
X22372042Y-63443097D01*
X22470963Y-63377000D01*
X23249037Y-63377000D01*
X23347958Y-63443097D01*
X23648421Y-63567553D01*
X23967391Y-63631000D01*
X24292609Y-63631000D01*
X24611579Y-63567553D01*
X24912042Y-63443097D01*
X25010963Y-63377000D01*
X25789037Y-63377000D01*
X25887958Y-63443097D01*
X26188421Y-63567553D01*
X26507391Y-63631000D01*
X26832609Y-63631000D01*
X27151579Y-63567553D01*
X27452042Y-63443097D01*
X27550963Y-63377000D01*
X28448000Y-63377000D01*
X28448000Y-64763731D01*
X28390506Y-64794463D01*
X28293815Y-64873815D01*
X28214463Y-64970506D01*
X28155498Y-65080820D01*
X28119188Y-65200518D01*
X28106928Y-65325000D01*
X28106928Y-67525000D01*
X28119188Y-67649482D01*
X28155498Y-67769180D01*
X28214463Y-67879494D01*
X28293815Y-67976185D01*
X28390506Y-68055537D01*
X28448000Y-68086269D01*
X28448000Y-68330000D01*
X28450440Y-68354776D01*
X28457667Y-68378601D01*
X28469403Y-68400557D01*
X28485197Y-68419803D01*
X28504443Y-68435597D01*
X28526399Y-68447333D01*
X28550224Y-68454560D01*
X28575000Y-68457000D01*
X54558970Y-68457000D01*
X69762128Y-83026693D01*
X69781705Y-83042074D01*
X69803906Y-83053340D01*
X69827879Y-83060059D01*
X69850000Y-83062000D01*
X70087840Y-83062000D01*
X70298169Y-83202537D01*
X70613919Y-83333325D01*
X70949117Y-83400000D01*
X71290883Y-83400000D01*
X71626081Y-83333325D01*
X71941831Y-83202537D01*
X72152160Y-83062000D01*
X72263000Y-83062000D01*
X72263000Y-85011163D01*
X72220000Y-85006928D01*
X71405750Y-85010000D01*
X71247000Y-85168750D01*
X71247000Y-86618000D01*
X71267000Y-86618000D01*
X71267000Y-86872000D01*
X71247000Y-86872000D01*
X71247000Y-88321250D01*
X71405750Y-88480000D01*
X72220000Y-88483072D01*
X72263000Y-88478837D01*
X72263000Y-88523000D01*
X58030963Y-88523000D01*
X57932042Y-88456903D01*
X57631579Y-88332447D01*
X57312609Y-88269000D01*
X56987391Y-88269000D01*
X56668421Y-88332447D01*
X56367958Y-88456903D01*
X56269037Y-88523000D01*
X55490963Y-88523000D01*
X55392042Y-88456903D01*
X55091579Y-88332447D01*
X54772609Y-88269000D01*
X54447391Y-88269000D01*
X54128421Y-88332447D01*
X53827958Y-88456903D01*
X53729037Y-88523000D01*
X52950963Y-88523000D01*
X52852042Y-88456903D01*
X52551579Y-88332447D01*
X52232609Y-88269000D01*
X51907391Y-88269000D01*
X51588421Y-88332447D01*
X51287958Y-88456903D01*
X51189037Y-88523000D01*
X50410963Y-88523000D01*
X50312042Y-88456903D01*
X50011579Y-88332447D01*
X49692609Y-88269000D01*
X49367391Y-88269000D01*
X49048421Y-88332447D01*
X48747958Y-88456903D01*
X48649037Y-88523000D01*
X48299892Y-88523000D01*
X48107247Y-88388733D01*
X47359615Y-87845000D01*
X69381928Y-87845000D01*
X69394188Y-87969482D01*
X69430498Y-88089180D01*
X69489463Y-88199494D01*
X69568815Y-88296185D01*
X69665506Y-88375537D01*
X69775820Y-88434502D01*
X69895518Y-88470812D01*
X70020000Y-88483072D01*
X70834250Y-88480000D01*
X70993000Y-88321250D01*
X70993000Y-86872000D01*
X69543750Y-86872000D01*
X69385000Y-87030750D01*
X69381928Y-87845000D01*
X47359615Y-87845000D01*
X44334616Y-85645000D01*
X69381928Y-85645000D01*
X69385000Y-86459250D01*
X69543750Y-86618000D01*
X70993000Y-86618000D01*
X70993000Y-85168750D01*
X70834250Y-85010000D01*
X70020000Y-85006928D01*
X69895518Y-85019188D01*
X69775820Y-85055498D01*
X69665506Y-85114463D01*
X69568815Y-85193815D01*
X69489463Y-85290506D01*
X69430498Y-85400820D01*
X69394188Y-85520518D01*
X69381928Y-85645000D01*
X44334616Y-85645000D01*
X27678489Y-73531453D01*
X27548004Y-73458336D01*
X27428882Y-73422201D01*
X27305000Y-73410000D01*
X12065000Y-73410000D01*
X11941118Y-73422201D01*
X11821996Y-73458336D01*
X11712213Y-73517017D01*
X11670691Y-73551093D01*
X4572000Y-67635517D01*
X4572000Y-59020000D01*
X5496928Y-59020000D01*
X5509188Y-59144482D01*
X5545498Y-59264180D01*
X5604463Y-59374494D01*
X5683815Y-59471185D01*
X5780506Y-59550537D01*
X5890820Y-59609502D01*
X6010518Y-59645812D01*
X6135000Y-59658072D01*
X6699250Y-59655000D01*
X6858000Y-59496250D01*
X6858000Y-58297000D01*
X7112000Y-58297000D01*
X7112000Y-59496250D01*
X7270750Y-59655000D01*
X7835000Y-59658072D01*
X7959482Y-59645812D01*
X8079180Y-59609502D01*
X8189494Y-59550537D01*
X8286185Y-59471185D01*
X8365537Y-59374494D01*
X8424502Y-59264180D01*
X8460812Y-59144482D01*
X8473072Y-59020000D01*
X8470000Y-58455750D01*
X8311250Y-58297000D01*
X7112000Y-58297000D01*
X6858000Y-58297000D01*
X5658750Y-58297000D01*
X5500000Y-58455750D01*
X5496928Y-59020000D01*
X4572000Y-59020000D01*
X4572000Y-57027000D01*
X5571593Y-57027000D01*
X5545498Y-57075820D01*
G37*
X5545498Y-57075820D02*
X5509188Y-57195518D01*
X5496928Y-57320000D01*
X5500000Y-57884250D01*
X5658750Y-58043000D01*
X6858000Y-58043000D01*
X6858000Y-58023000D01*
X7112000Y-58023000D01*
X7112000Y-58043000D01*
X8311250Y-58043000D01*
X8470000Y-57884250D01*
X8473072Y-57320000D01*
X8460812Y-57195518D01*
X8424502Y-57075820D01*
X8398407Y-57027000D01*
X12573000Y-57027000D01*
X12573000Y-61099037D01*
X12506903Y-61197958D01*
X12382447Y-61498421D01*
X12319000Y-61817391D01*
X12319000Y-62142609D01*
X12382447Y-62461579D01*
X12506903Y-62762042D01*
X12573000Y-62860963D01*
X12573000Y-63250000D01*
X12575440Y-63274776D01*
X12582667Y-63298601D01*
X12594403Y-63320557D01*
X12610197Y-63339803D01*
X12629443Y-63355597D01*
X12651399Y-63367333D01*
X12675224Y-63374560D01*
X12700000Y-63377000D01*
X13089037Y-63377000D01*
X13187958Y-63443097D01*
X13488421Y-63567553D01*
X13807391Y-63631000D01*
X14132609Y-63631000D01*
X14451579Y-63567553D01*
X14752042Y-63443097D01*
X14850963Y-63377000D01*
X15629037Y-63377000D01*
X15727958Y-63443097D01*
X16028421Y-63567553D01*
X16347391Y-63631000D01*
X16672609Y-63631000D01*
X16991579Y-63567553D01*
X17292042Y-63443097D01*
X17390963Y-63377000D01*
X18169037Y-63377000D01*
X18267958Y-63443097D01*
X18568421Y-63567553D01*
X18887391Y-63631000D01*
X19212609Y-63631000D01*
X19531579Y-63567553D01*
X19832042Y-63443097D01*
X19930963Y-63377000D01*
X20709037Y-63377000D01*
X20807958Y-63443097D01*
X21108421Y-63567553D01*
X21427391Y-63631000D01*
X21752609Y-63631000D01*
X22071579Y-63567553D01*
X22372042Y-63443097D01*
X22470963Y-63377000D01*
X23249037Y-63377000D01*
X23347958Y-63443097D01*
X23648421Y-63567553D01*
X23967391Y-63631000D01*
X24292609Y-63631000D01*
X24611579Y-63567553D01*
X24912042Y-63443097D01*
X25010963Y-63377000D01*
X25789037Y-63377000D01*
X25887958Y-63443097D01*
X26188421Y-63567553D01*
X26507391Y-63631000D01*
X26832609Y-63631000D01*
X27151579Y-63567553D01*
X27452042Y-63443097D01*
X27550963Y-63377000D01*
X28448000Y-63377000D01*
X28448000Y-64763731D01*
X28390506Y-64794463D01*
X28293815Y-64873815D01*
X28214463Y-64970506D01*
X28155498Y-65080820D01*
X28119188Y-65200518D01*
X28106928Y-65325000D01*
X28106928Y-67525000D01*
X28119188Y-67649482D01*
X28155498Y-67769180D01*
X28214463Y-67879494D01*
X28293815Y-67976185D01*
X28390506Y-68055537D01*
X28448000Y-68086269D01*
X28448000Y-68330000D01*
X28450440Y-68354776D01*
X28457667Y-68378601D01*
X28469403Y-68400557D01*
X28485197Y-68419803D01*
X28504443Y-68435597D01*
X28526399Y-68447333D01*
X28550224Y-68454560D01*
X28575000Y-68457000D01*
X54558970Y-68457000D01*
X69762128Y-83026693D01*
X69781705Y-83042074D01*
X69803906Y-83053340D01*
X69827879Y-83060059D01*
X69850000Y-83062000D01*
X70087840Y-83062000D01*
X70298169Y-83202537D01*
X70613919Y-83333325D01*
X70949117Y-83400000D01*
X71290883Y-83400000D01*
X71626081Y-83333325D01*
X71941831Y-83202537D01*
X72152160Y-83062000D01*
X72263000Y-83062000D01*
X72263000Y-85011163D01*
X72220000Y-85006928D01*
X71405750Y-85010000D01*
X71247000Y-85168750D01*
X71247000Y-86618000D01*
X71267000Y-86618000D01*
X71267000Y-86872000D01*
X71247000Y-86872000D01*
X71247000Y-88321250D01*
X71405750Y-88480000D01*
X72220000Y-88483072D01*
X72263000Y-88478837D01*
X72263000Y-88523000D01*
X58030963Y-88523000D01*
X57932042Y-88456903D01*
X57631579Y-88332447D01*
X57312609Y-88269000D01*
X56987391Y-88269000D01*
X56668421Y-88332447D01*
X56367958Y-88456903D01*
X56269037Y-88523000D01*
X55490963Y-88523000D01*
X55392042Y-88456903D01*
X55091579Y-88332447D01*
X54772609Y-88269000D01*
X54447391Y-88269000D01*
X54128421Y-88332447D01*
X53827958Y-88456903D01*
X53729037Y-88523000D01*
X52950963Y-88523000D01*
X52852042Y-88456903D01*
X52551579Y-88332447D01*
X52232609Y-88269000D01*
X51907391Y-88269000D01*
X51588421Y-88332447D01*
X51287958Y-88456903D01*
X51189037Y-88523000D01*
X50410963Y-88523000D01*
X50312042Y-88456903D01*
X50011579Y-88332447D01*
X49692609Y-88269000D01*
X49367391Y-88269000D01*
X49048421Y-88332447D01*
X48747958Y-88456903D01*
X48649037Y-88523000D01*
X48299892Y-88523000D01*
X48107247Y-88388733D01*
X47359615Y-87845000D01*
X69381928Y-87845000D01*
X69394188Y-87969482D01*
X69430498Y-88089180D01*
X69489463Y-88199494D01*
X69568815Y-88296185D01*
X69665506Y-88375537D01*
X69775820Y-88434502D01*
X69895518Y-88470812D01*
X70020000Y-88483072D01*
X70834250Y-88480000D01*
X70993000Y-88321250D01*
X70993000Y-86872000D01*
X69543750Y-86872000D01*
X69385000Y-87030750D01*
X69381928Y-87845000D01*
X47359615Y-87845000D01*
X44334616Y-85645000D01*
X69381928Y-85645000D01*
X69385000Y-86459250D01*
X69543750Y-86618000D01*
X70993000Y-86618000D01*
X70993000Y-85168750D01*
X70834250Y-85010000D01*
X70020000Y-85006928D01*
X69895518Y-85019188D01*
X69775820Y-85055498D01*
X69665506Y-85114463D01*
X69568815Y-85193815D01*
X69489463Y-85290506D01*
X69430498Y-85400820D01*
X69394188Y-85520518D01*
X69381928Y-85645000D01*
X44334616Y-85645000D01*
X27678489Y-73531453D01*
X27548004Y-73458336D01*
X27428882Y-73422201D01*
X27305000Y-73410000D01*
X12065000Y-73410000D01*
X11941118Y-73422201D01*
X11821996Y-73458336D01*
X11712213Y-73517017D01*
X11670691Y-73551093D01*
X4572000Y-67635517D01*
X4572000Y-59020000D01*
X5496928Y-59020000D01*
X5509188Y-59144482D01*
X5545498Y-59264180D01*
X5604463Y-59374494D01*
X5683815Y-59471185D01*
X5780506Y-59550537D01*
X5890820Y-59609502D01*
X6010518Y-59645812D01*
X6135000Y-59658072D01*
X6699250Y-59655000D01*
X6858000Y-59496250D01*
X6858000Y-58297000D01*
X7112000Y-58297000D01*
X7112000Y-59496250D01*
X7270750Y-59655000D01*
X7835000Y-59658072D01*
X7959482Y-59645812D01*
X8079180Y-59609502D01*
X8189494Y-59550537D01*
X8286185Y-59471185D01*
X8365537Y-59374494D01*
X8424502Y-59264180D01*
X8460812Y-59144482D01*
X8473072Y-59020000D01*
X8470000Y-58455750D01*
X8311250Y-58297000D01*
X7112000Y-58297000D01*
X6858000Y-58297000D01*
X5658750Y-58297000D01*
X5500000Y-58455750D01*
X5496928Y-59020000D01*
X4572000Y-59020000D01*
X4572000Y-57027000D01*
X5571593Y-57027000D01*
X5545498Y-57075820D01*
G36*
X22232549Y-47562156D02*
G01*
X22348175Y-47677783D01*
X22082140Y-47775478D01*
X21939652Y-48067821D01*
X21856936Y-48382344D01*
X21837169Y-48706962D01*
X21881112Y-49029198D01*
X21987076Y-49336670D01*
X22082140Y-49514522D01*
X22348177Y-49612218D01*
X23315395Y-48645000D01*
X23301253Y-48630858D01*
X23480858Y-48451253D01*
X23495000Y-48465395D01*
X23509143Y-48451253D01*
X23688748Y-48630858D01*
X23674605Y-48645000D01*
X23688748Y-48659143D01*
X23509143Y-48838748D01*
X23495000Y-48824605D01*
X22527782Y-49791823D01*
X22625478Y-50057860D01*
X22917821Y-50200348D01*
X23232344Y-50283064D01*
X23556962Y-50302831D01*
X23879198Y-50258888D01*
X24186670Y-50152924D01*
X24364522Y-50057860D01*
X24462217Y-49791825D01*
X24577844Y-49907451D01*
X24638000Y-49847295D01*
X24638000Y-56138000D01*
X8379967Y-56138000D01*
X8381825Y-56134099D01*
X8426476Y-55986890D01*
X8305155Y-55757000D01*
X7112000Y-55757000D01*
X7112000Y-55777000D01*
X6858000Y-55777000D01*
X6858000Y-55757000D01*
X5664845Y-55757000D01*
X5543524Y-55986890D01*
X5588175Y-56134099D01*
X5590033Y-56138000D01*
X4572000Y-56138000D01*
X4572000Y-55273110D01*
X5543524Y-55273110D01*
X5664845Y-55503000D01*
X6858000Y-55503000D01*
X6858000Y-54309186D01*
X7112000Y-54309186D01*
X7112000Y-55503000D01*
X8305155Y-55503000D01*
X8426476Y-55273110D01*
X8381825Y-55125901D01*
X8256641Y-54863080D01*
X8082588Y-54629731D01*
X7866355Y-54434822D01*
X7616252Y-54285843D01*
X7341891Y-54188519D01*
X7112000Y-54309186D01*
X6858000Y-54309186D01*
X6628109Y-54188519D01*
X6353748Y-54285843D01*
X6103645Y-54434822D01*
X5887412Y-54629731D01*
X5713359Y-54863080D01*
X5588175Y-55125901D01*
X5543524Y-55273110D01*
X4572000Y-55273110D01*
X4572000Y-53784483D01*
X12110980Y-47502000D01*
X22292705Y-47502000D01*
X22232549Y-47562156D01*
G37*
X22232549Y-47562156D02*
X22348175Y-47677783D01*
X22082140Y-47775478D01*
X21939652Y-48067821D01*
X21856936Y-48382344D01*
X21837169Y-48706962D01*
X21881112Y-49029198D01*
X21987076Y-49336670D01*
X22082140Y-49514522D01*
X22348177Y-49612218D01*
X23315395Y-48645000D01*
X23301253Y-48630858D01*
X23480858Y-48451253D01*
X23495000Y-48465395D01*
X23509143Y-48451253D01*
X23688748Y-48630858D01*
X23674605Y-48645000D01*
X23688748Y-48659143D01*
X23509143Y-48838748D01*
X23495000Y-48824605D01*
X22527782Y-49791823D01*
X22625478Y-50057860D01*
X22917821Y-50200348D01*
X23232344Y-50283064D01*
X23556962Y-50302831D01*
X23879198Y-50258888D01*
X24186670Y-50152924D01*
X24364522Y-50057860D01*
X24462217Y-49791825D01*
X24577844Y-49907451D01*
X24638000Y-49847295D01*
X24638000Y-56138000D01*
X8379967Y-56138000D01*
X8381825Y-56134099D01*
X8426476Y-55986890D01*
X8305155Y-55757000D01*
X7112000Y-55757000D01*
X7112000Y-55777000D01*
X6858000Y-55777000D01*
X6858000Y-55757000D01*
X5664845Y-55757000D01*
X5543524Y-55986890D01*
X5588175Y-56134099D01*
X5590033Y-56138000D01*
X4572000Y-56138000D01*
X4572000Y-55273110D01*
X5543524Y-55273110D01*
X5664845Y-55503000D01*
X6858000Y-55503000D01*
X6858000Y-54309186D01*
X7112000Y-54309186D01*
X7112000Y-55503000D01*
X8305155Y-55503000D01*
X8426476Y-55273110D01*
X8381825Y-55125901D01*
X8256641Y-54863080D01*
X8082588Y-54629731D01*
X7866355Y-54434822D01*
X7616252Y-54285843D01*
X7341891Y-54188519D01*
X7112000Y-54309186D01*
X6858000Y-54309186D01*
X6628109Y-54188519D01*
X6353748Y-54285843D01*
X6103645Y-54434822D01*
X5887412Y-54629731D01*
X5713359Y-54863080D01*
X5588175Y-55125901D01*
X5543524Y-55273110D01*
X4572000Y-55273110D01*
X4572000Y-53784483D01*
X12110980Y-47502000D01*
X22292705Y-47502000D01*
X22232549Y-47562156D01*
M02*
