G04 #@! TF.GenerationSoftware,KiCad,Pcbnew,5.1.5+dfsg1-2build2*
G04 #@! TF.CreationDate,2020-12-04T10:46:50+09:00*
G04 #@! TF.ProjectId,robot,726f626f-742e-46b6-9963-61645f706362,rev?*
G04 #@! TF.SameCoordinates,Original*
G04 #@! TF.FileFunction,Paste,Bot*
G04 #@! TF.FilePolarity,Positive*
%FSLAX46Y46*%
G04 Gerber Fmt 4.6, Leading zero omitted, Abs format (unit mm)*
G04 Created by KiCad (PCBNEW 5.1.5+dfsg1-2build2) date 2020-12-04 10:46:50*
%MOMM*%
%LPD*%
G04 APERTURE LIST*
%ADD10O,0.420000X1.600000*%
%ADD11R,0.420000X1.600000*%
%ADD12C,0.100000*%
%ADD13R,2.800000X6.000000*%
%ADD14R,6.000000X2.800000*%
G04 APERTURE END LIST*
D10*
X74280001Y-72320001D03*
X74930000Y-72320001D03*
X75579999Y-72320001D03*
X75579999Y-69419999D03*
X74930000Y-69419999D03*
D11*
X74280001Y-69419999D03*
D12*
G36*
X75354504Y-63646204D02*
G01*
X75378773Y-63649804D01*
X75402571Y-63655765D01*
X75425671Y-63664030D01*
X75447849Y-63674520D01*
X75468893Y-63687133D01*
X75488598Y-63701747D01*
X75506777Y-63718223D01*
X75523253Y-63736402D01*
X75537867Y-63756107D01*
X75550480Y-63777151D01*
X75560970Y-63799329D01*
X75569235Y-63822429D01*
X75575196Y-63846227D01*
X75578796Y-63870496D01*
X75580000Y-63895000D01*
X75580000Y-65145000D01*
X75578796Y-65169504D01*
X75575196Y-65193773D01*
X75569235Y-65217571D01*
X75560970Y-65240671D01*
X75550480Y-65262849D01*
X75537867Y-65283893D01*
X75523253Y-65303598D01*
X75506777Y-65321777D01*
X75488598Y-65338253D01*
X75468893Y-65352867D01*
X75447849Y-65365480D01*
X75425671Y-65375970D01*
X75402571Y-65384235D01*
X75378773Y-65390196D01*
X75354504Y-65393796D01*
X75330000Y-65395000D01*
X74530000Y-65395000D01*
X74505496Y-65393796D01*
X74481227Y-65390196D01*
X74457429Y-65384235D01*
X74434329Y-65375970D01*
X74412151Y-65365480D01*
X74391107Y-65352867D01*
X74371402Y-65338253D01*
X74353223Y-65321777D01*
X74336747Y-65303598D01*
X74322133Y-65283893D01*
X74309520Y-65262849D01*
X74299030Y-65240671D01*
X74290765Y-65217571D01*
X74284804Y-65193773D01*
X74281204Y-65169504D01*
X74280000Y-65145000D01*
X74280000Y-63895000D01*
X74281204Y-63870496D01*
X74284804Y-63846227D01*
X74290765Y-63822429D01*
X74299030Y-63799329D01*
X74309520Y-63777151D01*
X74322133Y-63756107D01*
X74336747Y-63736402D01*
X74353223Y-63718223D01*
X74371402Y-63701747D01*
X74391107Y-63687133D01*
X74412151Y-63674520D01*
X74434329Y-63664030D01*
X74457429Y-63655765D01*
X74481227Y-63649804D01*
X74505496Y-63646204D01*
X74530000Y-63645000D01*
X75330000Y-63645000D01*
X75354504Y-63646204D01*
G37*
G36*
X78454504Y-63646204D02*
G01*
X78478773Y-63649804D01*
X78502571Y-63655765D01*
X78525671Y-63664030D01*
X78547849Y-63674520D01*
X78568893Y-63687133D01*
X78588598Y-63701747D01*
X78606777Y-63718223D01*
X78623253Y-63736402D01*
X78637867Y-63756107D01*
X78650480Y-63777151D01*
X78660970Y-63799329D01*
X78669235Y-63822429D01*
X78675196Y-63846227D01*
X78678796Y-63870496D01*
X78680000Y-63895000D01*
X78680000Y-65145000D01*
X78678796Y-65169504D01*
X78675196Y-65193773D01*
X78669235Y-65217571D01*
X78660970Y-65240671D01*
X78650480Y-65262849D01*
X78637867Y-65283893D01*
X78623253Y-65303598D01*
X78606777Y-65321777D01*
X78588598Y-65338253D01*
X78568893Y-65352867D01*
X78547849Y-65365480D01*
X78525671Y-65375970D01*
X78502571Y-65384235D01*
X78478773Y-65390196D01*
X78454504Y-65393796D01*
X78430000Y-65395000D01*
X77630000Y-65395000D01*
X77605496Y-65393796D01*
X77581227Y-65390196D01*
X77557429Y-65384235D01*
X77534329Y-65375970D01*
X77512151Y-65365480D01*
X77491107Y-65352867D01*
X77471402Y-65338253D01*
X77453223Y-65321777D01*
X77436747Y-65303598D01*
X77422133Y-65283893D01*
X77409520Y-65262849D01*
X77399030Y-65240671D01*
X77390765Y-65217571D01*
X77384804Y-65193773D01*
X77381204Y-65169504D01*
X77380000Y-65145000D01*
X77380000Y-63895000D01*
X77381204Y-63870496D01*
X77384804Y-63846227D01*
X77390765Y-63822429D01*
X77399030Y-63799329D01*
X77409520Y-63777151D01*
X77422133Y-63756107D01*
X77436747Y-63736402D01*
X77453223Y-63718223D01*
X77471402Y-63701747D01*
X77491107Y-63687133D01*
X77512151Y-63674520D01*
X77534329Y-63664030D01*
X77557429Y-63655765D01*
X77581227Y-63649804D01*
X77605496Y-63646204D01*
X77630000Y-63645000D01*
X78430000Y-63645000D01*
X78454504Y-63646204D01*
G37*
G36*
X78754504Y-60061204D02*
G01*
X78778773Y-60064804D01*
X78802571Y-60070765D01*
X78825671Y-60079030D01*
X78847849Y-60089520D01*
X78868893Y-60102133D01*
X78888598Y-60116747D01*
X78906777Y-60133223D01*
X78923253Y-60151402D01*
X78937867Y-60171107D01*
X78950480Y-60192151D01*
X78960970Y-60214329D01*
X78969235Y-60237429D01*
X78975196Y-60261227D01*
X78978796Y-60285496D01*
X78980000Y-60310000D01*
X78980000Y-61110000D01*
X78978796Y-61134504D01*
X78975196Y-61158773D01*
X78969235Y-61182571D01*
X78960970Y-61205671D01*
X78950480Y-61227849D01*
X78937867Y-61248893D01*
X78923253Y-61268598D01*
X78906777Y-61286777D01*
X78888598Y-61303253D01*
X78868893Y-61317867D01*
X78847849Y-61330480D01*
X78825671Y-61340970D01*
X78802571Y-61349235D01*
X78778773Y-61355196D01*
X78754504Y-61358796D01*
X78730000Y-61360000D01*
X77480000Y-61360000D01*
X77455496Y-61358796D01*
X77431227Y-61355196D01*
X77407429Y-61349235D01*
X77384329Y-61340970D01*
X77362151Y-61330480D01*
X77341107Y-61317867D01*
X77321402Y-61303253D01*
X77303223Y-61286777D01*
X77286747Y-61268598D01*
X77272133Y-61248893D01*
X77259520Y-61227849D01*
X77249030Y-61205671D01*
X77240765Y-61182571D01*
X77234804Y-61158773D01*
X77231204Y-61134504D01*
X77230000Y-61110000D01*
X77230000Y-60310000D01*
X77231204Y-60285496D01*
X77234804Y-60261227D01*
X77240765Y-60237429D01*
X77249030Y-60214329D01*
X77259520Y-60192151D01*
X77272133Y-60171107D01*
X77286747Y-60151402D01*
X77303223Y-60133223D01*
X77321402Y-60116747D01*
X77341107Y-60102133D01*
X77362151Y-60089520D01*
X77384329Y-60079030D01*
X77407429Y-60070765D01*
X77431227Y-60064804D01*
X77455496Y-60061204D01*
X77480000Y-60060000D01*
X78730000Y-60060000D01*
X78754504Y-60061204D01*
G37*
G36*
X78754504Y-56961204D02*
G01*
X78778773Y-56964804D01*
X78802571Y-56970765D01*
X78825671Y-56979030D01*
X78847849Y-56989520D01*
X78868893Y-57002133D01*
X78888598Y-57016747D01*
X78906777Y-57033223D01*
X78923253Y-57051402D01*
X78937867Y-57071107D01*
X78950480Y-57092151D01*
X78960970Y-57114329D01*
X78969235Y-57137429D01*
X78975196Y-57161227D01*
X78978796Y-57185496D01*
X78980000Y-57210000D01*
X78980000Y-58010000D01*
X78978796Y-58034504D01*
X78975196Y-58058773D01*
X78969235Y-58082571D01*
X78960970Y-58105671D01*
X78950480Y-58127849D01*
X78937867Y-58148893D01*
X78923253Y-58168598D01*
X78906777Y-58186777D01*
X78888598Y-58203253D01*
X78868893Y-58217867D01*
X78847849Y-58230480D01*
X78825671Y-58240970D01*
X78802571Y-58249235D01*
X78778773Y-58255196D01*
X78754504Y-58258796D01*
X78730000Y-58260000D01*
X77480000Y-58260000D01*
X77455496Y-58258796D01*
X77431227Y-58255196D01*
X77407429Y-58249235D01*
X77384329Y-58240970D01*
X77362151Y-58230480D01*
X77341107Y-58217867D01*
X77321402Y-58203253D01*
X77303223Y-58186777D01*
X77286747Y-58168598D01*
X77272133Y-58148893D01*
X77259520Y-58127849D01*
X77249030Y-58105671D01*
X77240765Y-58082571D01*
X77234804Y-58058773D01*
X77231204Y-58034504D01*
X77230000Y-58010000D01*
X77230000Y-57210000D01*
X77231204Y-57185496D01*
X77234804Y-57161227D01*
X77240765Y-57137429D01*
X77249030Y-57114329D01*
X77259520Y-57092151D01*
X77272133Y-57071107D01*
X77286747Y-57051402D01*
X77303223Y-57033223D01*
X77321402Y-57016747D01*
X77341107Y-57002133D01*
X77362151Y-56989520D01*
X77384329Y-56979030D01*
X77407429Y-56970765D01*
X77431227Y-56964804D01*
X77455496Y-56961204D01*
X77480000Y-56960000D01*
X78730000Y-56960000D01*
X78754504Y-56961204D01*
G37*
G36*
X75354504Y-76346204D02*
G01*
X75378773Y-76349804D01*
X75402571Y-76355765D01*
X75425671Y-76364030D01*
X75447849Y-76374520D01*
X75468893Y-76387133D01*
X75488598Y-76401747D01*
X75506777Y-76418223D01*
X75523253Y-76436402D01*
X75537867Y-76456107D01*
X75550480Y-76477151D01*
X75560970Y-76499329D01*
X75569235Y-76522429D01*
X75575196Y-76546227D01*
X75578796Y-76570496D01*
X75580000Y-76595000D01*
X75580000Y-77845000D01*
X75578796Y-77869504D01*
X75575196Y-77893773D01*
X75569235Y-77917571D01*
X75560970Y-77940671D01*
X75550480Y-77962849D01*
X75537867Y-77983893D01*
X75523253Y-78003598D01*
X75506777Y-78021777D01*
X75488598Y-78038253D01*
X75468893Y-78052867D01*
X75447849Y-78065480D01*
X75425671Y-78075970D01*
X75402571Y-78084235D01*
X75378773Y-78090196D01*
X75354504Y-78093796D01*
X75330000Y-78095000D01*
X74530000Y-78095000D01*
X74505496Y-78093796D01*
X74481227Y-78090196D01*
X74457429Y-78084235D01*
X74434329Y-78075970D01*
X74412151Y-78065480D01*
X74391107Y-78052867D01*
X74371402Y-78038253D01*
X74353223Y-78021777D01*
X74336747Y-78003598D01*
X74322133Y-77983893D01*
X74309520Y-77962849D01*
X74299030Y-77940671D01*
X74290765Y-77917571D01*
X74284804Y-77893773D01*
X74281204Y-77869504D01*
X74280000Y-77845000D01*
X74280000Y-76595000D01*
X74281204Y-76570496D01*
X74284804Y-76546227D01*
X74290765Y-76522429D01*
X74299030Y-76499329D01*
X74309520Y-76477151D01*
X74322133Y-76456107D01*
X74336747Y-76436402D01*
X74353223Y-76418223D01*
X74371402Y-76401747D01*
X74391107Y-76387133D01*
X74412151Y-76374520D01*
X74434329Y-76364030D01*
X74457429Y-76355765D01*
X74481227Y-76349804D01*
X74505496Y-76346204D01*
X74530000Y-76345000D01*
X75330000Y-76345000D01*
X75354504Y-76346204D01*
G37*
G36*
X72254504Y-76346204D02*
G01*
X72278773Y-76349804D01*
X72302571Y-76355765D01*
X72325671Y-76364030D01*
X72347849Y-76374520D01*
X72368893Y-76387133D01*
X72388598Y-76401747D01*
X72406777Y-76418223D01*
X72423253Y-76436402D01*
X72437867Y-76456107D01*
X72450480Y-76477151D01*
X72460970Y-76499329D01*
X72469235Y-76522429D01*
X72475196Y-76546227D01*
X72478796Y-76570496D01*
X72480000Y-76595000D01*
X72480000Y-77845000D01*
X72478796Y-77869504D01*
X72475196Y-77893773D01*
X72469235Y-77917571D01*
X72460970Y-77940671D01*
X72450480Y-77962849D01*
X72437867Y-77983893D01*
X72423253Y-78003598D01*
X72406777Y-78021777D01*
X72388598Y-78038253D01*
X72368893Y-78052867D01*
X72347849Y-78065480D01*
X72325671Y-78075970D01*
X72302571Y-78084235D01*
X72278773Y-78090196D01*
X72254504Y-78093796D01*
X72230000Y-78095000D01*
X71430000Y-78095000D01*
X71405496Y-78093796D01*
X71381227Y-78090196D01*
X71357429Y-78084235D01*
X71334329Y-78075970D01*
X71312151Y-78065480D01*
X71291107Y-78052867D01*
X71271402Y-78038253D01*
X71253223Y-78021777D01*
X71236747Y-78003598D01*
X71222133Y-77983893D01*
X71209520Y-77962849D01*
X71199030Y-77940671D01*
X71190765Y-77917571D01*
X71184804Y-77893773D01*
X71181204Y-77869504D01*
X71180000Y-77845000D01*
X71180000Y-76595000D01*
X71181204Y-76570496D01*
X71184804Y-76546227D01*
X71190765Y-76522429D01*
X71199030Y-76499329D01*
X71209520Y-76477151D01*
X71222133Y-76456107D01*
X71236747Y-76436402D01*
X71253223Y-76418223D01*
X71271402Y-76401747D01*
X71291107Y-76387133D01*
X71312151Y-76374520D01*
X71334329Y-76364030D01*
X71357429Y-76355765D01*
X71381227Y-76349804D01*
X71405496Y-76346204D01*
X71430000Y-76345000D01*
X72230000Y-76345000D01*
X72254504Y-76346204D01*
G37*
G36*
X68649504Y-76346204D02*
G01*
X68673773Y-76349804D01*
X68697571Y-76355765D01*
X68720671Y-76364030D01*
X68742849Y-76374520D01*
X68763893Y-76387133D01*
X68783598Y-76401747D01*
X68801777Y-76418223D01*
X68818253Y-76436402D01*
X68832867Y-76456107D01*
X68845480Y-76477151D01*
X68855970Y-76499329D01*
X68864235Y-76522429D01*
X68870196Y-76546227D01*
X68873796Y-76570496D01*
X68875000Y-76595000D01*
X68875000Y-77845000D01*
X68873796Y-77869504D01*
X68870196Y-77893773D01*
X68864235Y-77917571D01*
X68855970Y-77940671D01*
X68845480Y-77962849D01*
X68832867Y-77983893D01*
X68818253Y-78003598D01*
X68801777Y-78021777D01*
X68783598Y-78038253D01*
X68763893Y-78052867D01*
X68742849Y-78065480D01*
X68720671Y-78075970D01*
X68697571Y-78084235D01*
X68673773Y-78090196D01*
X68649504Y-78093796D01*
X68625000Y-78095000D01*
X67825000Y-78095000D01*
X67800496Y-78093796D01*
X67776227Y-78090196D01*
X67752429Y-78084235D01*
X67729329Y-78075970D01*
X67707151Y-78065480D01*
X67686107Y-78052867D01*
X67666402Y-78038253D01*
X67648223Y-78021777D01*
X67631747Y-78003598D01*
X67617133Y-77983893D01*
X67604520Y-77962849D01*
X67594030Y-77940671D01*
X67585765Y-77917571D01*
X67579804Y-77893773D01*
X67576204Y-77869504D01*
X67575000Y-77845000D01*
X67575000Y-76595000D01*
X67576204Y-76570496D01*
X67579804Y-76546227D01*
X67585765Y-76522429D01*
X67594030Y-76499329D01*
X67604520Y-76477151D01*
X67617133Y-76456107D01*
X67631747Y-76436402D01*
X67648223Y-76418223D01*
X67666402Y-76401747D01*
X67686107Y-76387133D01*
X67707151Y-76374520D01*
X67729329Y-76364030D01*
X67752429Y-76355765D01*
X67776227Y-76349804D01*
X67800496Y-76346204D01*
X67825000Y-76345000D01*
X68625000Y-76345000D01*
X68649504Y-76346204D01*
G37*
G36*
X65549504Y-76346204D02*
G01*
X65573773Y-76349804D01*
X65597571Y-76355765D01*
X65620671Y-76364030D01*
X65642849Y-76374520D01*
X65663893Y-76387133D01*
X65683598Y-76401747D01*
X65701777Y-76418223D01*
X65718253Y-76436402D01*
X65732867Y-76456107D01*
X65745480Y-76477151D01*
X65755970Y-76499329D01*
X65764235Y-76522429D01*
X65770196Y-76546227D01*
X65773796Y-76570496D01*
X65775000Y-76595000D01*
X65775000Y-77845000D01*
X65773796Y-77869504D01*
X65770196Y-77893773D01*
X65764235Y-77917571D01*
X65755970Y-77940671D01*
X65745480Y-77962849D01*
X65732867Y-77983893D01*
X65718253Y-78003598D01*
X65701777Y-78021777D01*
X65683598Y-78038253D01*
X65663893Y-78052867D01*
X65642849Y-78065480D01*
X65620671Y-78075970D01*
X65597571Y-78084235D01*
X65573773Y-78090196D01*
X65549504Y-78093796D01*
X65525000Y-78095000D01*
X64725000Y-78095000D01*
X64700496Y-78093796D01*
X64676227Y-78090196D01*
X64652429Y-78084235D01*
X64629329Y-78075970D01*
X64607151Y-78065480D01*
X64586107Y-78052867D01*
X64566402Y-78038253D01*
X64548223Y-78021777D01*
X64531747Y-78003598D01*
X64517133Y-77983893D01*
X64504520Y-77962849D01*
X64494030Y-77940671D01*
X64485765Y-77917571D01*
X64479804Y-77893773D01*
X64476204Y-77869504D01*
X64475000Y-77845000D01*
X64475000Y-76595000D01*
X64476204Y-76570496D01*
X64479804Y-76546227D01*
X64485765Y-76522429D01*
X64494030Y-76499329D01*
X64504520Y-76477151D01*
X64517133Y-76456107D01*
X64531747Y-76436402D01*
X64548223Y-76418223D01*
X64566402Y-76401747D01*
X64586107Y-76387133D01*
X64607151Y-76374520D01*
X64629329Y-76364030D01*
X64652429Y-76355765D01*
X64676227Y-76349804D01*
X64700496Y-76346204D01*
X64725000Y-76345000D01*
X65525000Y-76345000D01*
X65549504Y-76346204D01*
G37*
D13*
X-23300000Y-42885000D03*
X-23300000Y-25515000D03*
X-440000Y-42885000D03*
X-440000Y-25515000D03*
D14*
X1260000Y-38010000D03*
X1260000Y-30390000D03*
M02*
