G04 #@! TF.GenerationSoftware,KiCad,Pcbnew,5.1.5+dfsg1-2build2*
G04 #@! TF.CreationDate,2020-11-16T19:45:50+09:00*
G04 #@! TF.ProjectId,robot,726f626f-742e-46b6-9963-61645f706362,rev?*
G04 #@! TF.SameCoordinates,Original*
G04 #@! TF.FileFunction,Legend,Bot*
G04 #@! TF.FilePolarity,Positive*
%FSLAX46Y46*%
G04 Gerber Fmt 4.6, Leading zero omitted, Abs format (unit mm)*
G04 Created by KiCad (PCBNEW 5.1.5+dfsg1-2build2) date 2020-11-16 19:45:50*
%MOMM*%
%LPD*%
G04 APERTURE LIST*
%ADD10C,0.150000*%
%ADD11C,0.120000*%
G04 APERTURE END LIST*
D10*
X70900000Y37000000D02*
X70900000Y24100000D01*
X70900000Y24100000D02*
X70600000Y24100000D01*
X70700000Y24100000D02*
X68600000Y24100000D01*
X68600000Y24100000D02*
X68600000Y23800000D01*
X70700000Y39500000D02*
X68600000Y39500000D01*
X68600000Y39500000D02*
X68600000Y37000000D01*
X68600000Y37000000D02*
X70900000Y37000000D01*
X68600000Y23800000D02*
X68600000Y21700000D01*
X68600000Y21700000D02*
X97000000Y21700000D01*
X97000000Y21700000D02*
X97000000Y39500000D01*
X96600000Y32300000D02*
X94100000Y32300000D01*
X94100000Y32300000D02*
X94100000Y28500000D01*
X94100000Y28500000D02*
X96600000Y28500000D01*
X96600000Y28500000D02*
X96600000Y32200000D01*
X97000000Y39500000D02*
X70700000Y39500000D01*
D11*
X48190000Y25330000D02*
X45650000Y25330000D01*
X48190000Y22790000D02*
X45650000Y22790000D01*
X48190000Y20250000D02*
X45650000Y20250000D01*
X64080000Y27910000D02*
X48190000Y27910000D01*
X64080000Y17670000D02*
X48190000Y17670000D01*
X64080000Y17670000D02*
X64080000Y27910000D01*
X48190000Y17670000D02*
X48190000Y27910000D01*
X16440000Y25330000D02*
X13915000Y25330000D01*
X16440000Y20250000D02*
X13900000Y20250000D01*
X32330000Y27910000D02*
X16440000Y27910000D01*
X32330000Y17670000D02*
X16440000Y17670000D01*
X32330000Y17670000D02*
X32330000Y27910000D01*
X16440000Y17670000D02*
X16440000Y27910000D01*
X65330000Y84560000D02*
X65330000Y87085000D01*
X60250000Y84560000D02*
X60250000Y87100000D01*
X67910000Y68670000D02*
X67910000Y84560000D01*
X57670000Y68670000D02*
X57670000Y84560000D01*
X57670000Y68670000D02*
X67910000Y68670000D01*
X57670000Y84560000D02*
X67910000Y84560000D01*
X37625000Y73480000D02*
X37625000Y70955000D01*
X42705000Y73480000D02*
X42705000Y70940000D01*
X35045000Y89370000D02*
X35045000Y73480000D01*
X45285000Y89370000D02*
X45285000Y73480000D01*
X45285000Y89370000D02*
X35045000Y89370000D01*
X45285000Y73480000D02*
X35045000Y73480000D01*
X20080000Y84560000D02*
X20080000Y87085000D01*
X15000000Y84560000D02*
X15000000Y87100000D01*
X22660000Y68670000D02*
X22660000Y84560000D01*
X12420000Y68670000D02*
X12420000Y84560000D01*
X12420000Y68670000D02*
X22660000Y68670000D01*
X12420000Y84560000D02*
X22660000Y84560000D01*
D10*
X70511904Y40547619D02*
X70511904Y39738095D01*
X70464285Y39642857D01*
X70416666Y39595238D01*
X70321428Y39547619D01*
X70130952Y39547619D01*
X70035714Y39595238D01*
X69988095Y39642857D01*
X69940476Y39738095D01*
X69940476Y40547619D01*
X68940476Y39547619D02*
X69511904Y39547619D01*
X69226190Y39547619D02*
X69226190Y40547619D01*
X69321428Y40404761D01*
X69416666Y40309523D01*
X69511904Y40261904D01*
X90942857Y30671428D02*
X90800000Y30623809D01*
X90752380Y30576190D01*
X90704761Y30480952D01*
X90704761Y30338095D01*
X90752380Y30242857D01*
X90800000Y30195238D01*
X90895238Y30147619D01*
X91276190Y30147619D01*
X91276190Y31147619D01*
X90942857Y31147619D01*
X90847619Y31100000D01*
X90800000Y31052380D01*
X90752380Y30957142D01*
X90752380Y30861904D01*
X90800000Y30766666D01*
X90847619Y30719047D01*
X90942857Y30671428D01*
X91276190Y30671428D01*
X89847619Y30147619D02*
X89847619Y30671428D01*
X89895238Y30766666D01*
X89990476Y30814285D01*
X90180952Y30814285D01*
X90276190Y30766666D01*
X89847619Y30195238D02*
X89942857Y30147619D01*
X90180952Y30147619D01*
X90276190Y30195238D01*
X90323809Y30290476D01*
X90323809Y30385714D01*
X90276190Y30480952D01*
X90180952Y30528571D01*
X89942857Y30528571D01*
X89847619Y30576190D01*
X89514285Y30814285D02*
X89133333Y30814285D01*
X89371428Y31147619D02*
X89371428Y30290476D01*
X89323809Y30195238D01*
X89228571Y30147619D01*
X89133333Y30147619D01*
X88942857Y30814285D02*
X88561904Y30814285D01*
X88800000Y31147619D02*
X88800000Y30290476D01*
X88752380Y30195238D01*
X88657142Y30147619D01*
X88561904Y30147619D01*
X87847619Y30195238D02*
X87942857Y30147619D01*
X88133333Y30147619D01*
X88228571Y30195238D01*
X88276190Y30290476D01*
X88276190Y30671428D01*
X88228571Y30766666D01*
X88133333Y30814285D01*
X87942857Y30814285D01*
X87847619Y30766666D01*
X87800000Y30671428D01*
X87800000Y30576190D01*
X88276190Y30480952D01*
X87371428Y30147619D02*
X87371428Y30814285D01*
X87371428Y30623809D02*
X87323809Y30719047D01*
X87276190Y30766666D01*
X87180952Y30814285D01*
X87085714Y30814285D01*
X86847619Y30814285D02*
X86609523Y30147619D01*
X86371428Y30814285D02*
X86609523Y30147619D01*
X86704761Y29909523D01*
X86752380Y29861904D01*
X86847619Y29814285D01*
X84657142Y30242857D02*
X84704761Y30195238D01*
X84847619Y30147619D01*
X84942857Y30147619D01*
X85085714Y30195238D01*
X85180952Y30290476D01*
X85228571Y30385714D01*
X85276190Y30576190D01*
X85276190Y30719047D01*
X85228571Y30909523D01*
X85180952Y31004761D01*
X85085714Y31100000D01*
X84942857Y31147619D01*
X84847619Y31147619D01*
X84704761Y31100000D01*
X84657142Y31052380D01*
X84228571Y30147619D02*
X84228571Y31147619D01*
X83800000Y30147619D02*
X83800000Y30671428D01*
X83847619Y30766666D01*
X83942857Y30814285D01*
X84085714Y30814285D01*
X84180952Y30766666D01*
X84228571Y30719047D01*
X82895238Y30147619D02*
X82895238Y30671428D01*
X82942857Y30766666D01*
X83038095Y30814285D01*
X83228571Y30814285D01*
X83323809Y30766666D01*
X82895238Y30195238D02*
X82990476Y30147619D01*
X83228571Y30147619D01*
X83323809Y30195238D01*
X83371428Y30290476D01*
X83371428Y30385714D01*
X83323809Y30480952D01*
X83228571Y30528571D01*
X82990476Y30528571D01*
X82895238Y30576190D01*
X82419047Y30147619D02*
X82419047Y30814285D01*
X82419047Y30623809D02*
X82371428Y30719047D01*
X82323809Y30766666D01*
X82228571Y30814285D01*
X82133333Y30814285D01*
X81371428Y30814285D02*
X81371428Y30004761D01*
X81419047Y29909523D01*
X81466666Y29861904D01*
X81561904Y29814285D01*
X81704761Y29814285D01*
X81800000Y29861904D01*
X81371428Y30195238D02*
X81466666Y30147619D01*
X81657142Y30147619D01*
X81752380Y30195238D01*
X81800000Y30242857D01*
X81847619Y30338095D01*
X81847619Y30623809D01*
X81800000Y30719047D01*
X81752380Y30766666D01*
X81657142Y30814285D01*
X81466666Y30814285D01*
X81371428Y30766666D01*
X80514285Y30195238D02*
X80609523Y30147619D01*
X80800000Y30147619D01*
X80895238Y30195238D01*
X80942857Y30290476D01*
X80942857Y30671428D01*
X80895238Y30766666D01*
X80800000Y30814285D01*
X80609523Y30814285D01*
X80514285Y30766666D01*
X80466666Y30671428D01*
X80466666Y30576190D01*
X80942857Y30480952D01*
X80038095Y30147619D02*
X80038095Y30814285D01*
X80038095Y30623809D02*
X79990476Y30719047D01*
X79942857Y30766666D01*
X79847619Y30814285D01*
X79752380Y30814285D01*
X78133333Y30147619D02*
X78704761Y30147619D01*
X78419047Y30147619D02*
X78419047Y31147619D01*
X78514285Y31004761D01*
X78609523Y30909523D01*
X78704761Y30861904D01*
X77752380Y30433333D02*
X77276190Y30433333D01*
X77847619Y30147619D02*
X77514285Y31147619D01*
X77180952Y30147619D01*
X95961904Y26600000D02*
X96057142Y26647619D01*
X96200000Y26647619D01*
X96342857Y26600000D01*
X96438095Y26504761D01*
X96485714Y26409523D01*
X96533333Y26219047D01*
X96533333Y26076190D01*
X96485714Y25885714D01*
X96438095Y25790476D01*
X96342857Y25695238D01*
X96200000Y25647619D01*
X96104761Y25647619D01*
X95961904Y25695238D01*
X95914285Y25742857D01*
X95914285Y26076190D01*
X96104761Y26076190D01*
X95485714Y25647619D02*
X95485714Y26647619D01*
X94914285Y25647619D01*
X94914285Y26647619D01*
X94438095Y25647619D02*
X94438095Y26647619D01*
X94200000Y26647619D01*
X94057142Y26600000D01*
X93961904Y26504761D01*
X93914285Y26409523D01*
X93866666Y26219047D01*
X93866666Y26076190D01*
X93914285Y25885714D01*
X93961904Y25790476D01*
X94057142Y25695238D01*
X94200000Y25647619D01*
X94438095Y25647619D01*
X95442857Y35947619D02*
X95919047Y35947619D01*
X95966666Y35471428D01*
X95919047Y35519047D01*
X95823809Y35566666D01*
X95585714Y35566666D01*
X95490476Y35519047D01*
X95442857Y35471428D01*
X95395238Y35376190D01*
X95395238Y35138095D01*
X95442857Y35042857D01*
X95490476Y34995238D01*
X95585714Y34947619D01*
X95823809Y34947619D01*
X95919047Y34995238D01*
X95966666Y35042857D01*
X95061904Y35614285D02*
X94823809Y34947619D01*
X94585714Y35614285D01*
X75847619Y34771428D02*
X75704761Y34723809D01*
X75657142Y34676190D01*
X75609523Y34580952D01*
X75609523Y34438095D01*
X75657142Y34342857D01*
X75704761Y34295238D01*
X75800000Y34247619D01*
X76180952Y34247619D01*
X76180952Y35247619D01*
X75847619Y35247619D01*
X75752380Y35200000D01*
X75704761Y35152380D01*
X75657142Y35057142D01*
X75657142Y34961904D01*
X75704761Y34866666D01*
X75752380Y34819047D01*
X75847619Y34771428D01*
X76180952Y34771428D01*
X75180952Y34628571D02*
X74419047Y34628571D01*
X74800000Y34247619D02*
X74800000Y35009523D01*
X75847619Y27171428D02*
X75704761Y27123809D01*
X75657142Y27076190D01*
X75609523Y26980952D01*
X75609523Y26838095D01*
X75657142Y26742857D01*
X75704761Y26695238D01*
X75800000Y26647619D01*
X76180952Y26647619D01*
X76180952Y27647619D01*
X75847619Y27647619D01*
X75752380Y27600000D01*
X75704761Y27552380D01*
X75657142Y27457142D01*
X75657142Y27361904D01*
X75704761Y27266666D01*
X75752380Y27219047D01*
X75847619Y27171428D01*
X76180952Y27171428D01*
X75180952Y27028571D02*
X74419047Y27028571D01*
X77552380Y38447619D02*
X77361904Y38447619D01*
X77266666Y38400000D01*
X77171428Y38304761D01*
X77123809Y38114285D01*
X77123809Y37780952D01*
X77171428Y37590476D01*
X77266666Y37495238D01*
X77361904Y37447619D01*
X77552380Y37447619D01*
X77647619Y37495238D01*
X77742857Y37590476D01*
X77790476Y37780952D01*
X77790476Y38114285D01*
X77742857Y38304761D01*
X77647619Y38400000D01*
X77552380Y38447619D01*
X76266666Y38114285D02*
X76266666Y37447619D01*
X76695238Y38114285D02*
X76695238Y37590476D01*
X76647619Y37495238D01*
X76552380Y37447619D01*
X76409523Y37447619D01*
X76314285Y37495238D01*
X76266666Y37542857D01*
X75933333Y38114285D02*
X75552380Y38114285D01*
X75790476Y38447619D02*
X75790476Y37590476D01*
X75742857Y37495238D01*
X75647619Y37447619D01*
X75552380Y37447619D01*
X75219047Y37828571D02*
X74457142Y37828571D01*
X74838095Y37447619D02*
X74838095Y38209523D01*
X77552380Y23847619D02*
X77361904Y23847619D01*
X77266666Y23800000D01*
X77171428Y23704761D01*
X77123809Y23514285D01*
X77123809Y23180952D01*
X77171428Y22990476D01*
X77266666Y22895238D01*
X77361904Y22847619D01*
X77552380Y22847619D01*
X77647619Y22895238D01*
X77742857Y22990476D01*
X77790476Y23180952D01*
X77790476Y23514285D01*
X77742857Y23704761D01*
X77647619Y23800000D01*
X77552380Y23847619D01*
X76266666Y23514285D02*
X76266666Y22847619D01*
X76695238Y23514285D02*
X76695238Y22990476D01*
X76647619Y22895238D01*
X76552380Y22847619D01*
X76409523Y22847619D01*
X76314285Y22895238D01*
X76266666Y22942857D01*
X75933333Y23514285D02*
X75552380Y23514285D01*
X75790476Y23847619D02*
X75790476Y22990476D01*
X75742857Y22895238D01*
X75647619Y22847619D01*
X75552380Y22847619D01*
X75219047Y23228571D02*
X74457142Y23228571D01*
X94852380Y31661904D02*
X95661904Y31661904D01*
X95757142Y31614285D01*
X95804761Y31566666D01*
X95852380Y31471428D01*
X95852380Y31280952D01*
X95804761Y31185714D01*
X95757142Y31138095D01*
X95661904Y31090476D01*
X94852380Y31090476D01*
X95804761Y30661904D02*
X95852380Y30519047D01*
X95852380Y30280952D01*
X95804761Y30185714D01*
X95757142Y30138095D01*
X95661904Y30090476D01*
X95566666Y30090476D01*
X95471428Y30138095D01*
X95423809Y30185714D01*
X95376190Y30280952D01*
X95328571Y30471428D01*
X95280952Y30566666D01*
X95233333Y30614285D01*
X95138095Y30661904D01*
X95042857Y30661904D01*
X94947619Y30614285D01*
X94900000Y30566666D01*
X94852380Y30471428D01*
X94852380Y30233333D01*
X94900000Y30090476D01*
X95328571Y29328571D02*
X95376190Y29185714D01*
X95423809Y29138095D01*
X95519047Y29090476D01*
X95661904Y29090476D01*
X95757142Y29138095D01*
X95804761Y29185714D01*
X95852380Y29280952D01*
X95852380Y29661904D01*
X94852380Y29661904D01*
X94852380Y29328571D01*
X94900000Y29233333D01*
X94947619Y29185714D01*
X95042857Y29138095D01*
X95138095Y29138095D01*
X95233333Y29185714D01*
X95280952Y29233333D01*
X95328571Y29328571D01*
X95328571Y29661904D01*
X93380952Y22628571D02*
X92619047Y22628571D01*
X93480952Y37828571D02*
X92719047Y37828571D01*
X93100000Y37447619D02*
X93100000Y38209523D01*
X65627619Y22885238D02*
X65580000Y22980476D01*
X65484761Y23075714D01*
X65341904Y23218571D01*
X65294285Y23313809D01*
X65294285Y23409047D01*
X65532380Y23361428D02*
X65484761Y23456666D01*
X65389523Y23551904D01*
X65199047Y23599523D01*
X64865714Y23599523D01*
X64675238Y23551904D01*
X64580000Y23456666D01*
X64532380Y23361428D01*
X64532380Y23170952D01*
X64580000Y23075714D01*
X64675238Y22980476D01*
X64865714Y22932857D01*
X65199047Y22932857D01*
X65389523Y22980476D01*
X65484761Y23075714D01*
X65532380Y23170952D01*
X65532380Y23361428D01*
X65532380Y21980476D02*
X65532380Y22551904D01*
X65532380Y22266190D02*
X64532380Y22266190D01*
X64675238Y22361428D01*
X64770476Y22456666D01*
X64818095Y22551904D01*
X33782380Y23528095D02*
X32782380Y23528095D01*
X32782380Y23290000D01*
X32830000Y23147142D01*
X32925238Y23051904D01*
X33020476Y23004285D01*
X33210952Y22956666D01*
X33353809Y22956666D01*
X33544285Y23004285D01*
X33639523Y23051904D01*
X33734761Y23147142D01*
X33782380Y23290000D01*
X33782380Y23528095D01*
X33782380Y22004285D02*
X33782380Y22575714D01*
X33782380Y22290000D02*
X32782380Y22290000D01*
X32925238Y22385238D01*
X33020476Y22480476D01*
X33068095Y22575714D01*
X63528095Y67217619D02*
X63528095Y68217619D01*
X63290000Y68217619D01*
X63147142Y68170000D01*
X63051904Y68074761D01*
X63004285Y67979523D01*
X62956666Y67789047D01*
X62956666Y67646190D01*
X63004285Y67455714D01*
X63051904Y67360476D01*
X63147142Y67265238D01*
X63290000Y67217619D01*
X63528095Y67217619D01*
X62623333Y68217619D02*
X62004285Y68217619D01*
X62337619Y67836666D01*
X62194761Y67836666D01*
X62099523Y67789047D01*
X62051904Y67741428D01*
X62004285Y67646190D01*
X62004285Y67408095D01*
X62051904Y67312857D01*
X62099523Y67265238D01*
X62194761Y67217619D01*
X62480476Y67217619D01*
X62575714Y67265238D01*
X62623333Y67312857D01*
X40903095Y89917619D02*
X40903095Y90917619D01*
X40665000Y90917619D01*
X40522142Y90870000D01*
X40426904Y90774761D01*
X40379285Y90679523D01*
X40331666Y90489047D01*
X40331666Y90346190D01*
X40379285Y90155714D01*
X40426904Y90060476D01*
X40522142Y89965238D01*
X40665000Y89917619D01*
X40903095Y89917619D01*
X39950714Y90822380D02*
X39903095Y90870000D01*
X39807857Y90917619D01*
X39569761Y90917619D01*
X39474523Y90870000D01*
X39426904Y90822380D01*
X39379285Y90727142D01*
X39379285Y90631904D01*
X39426904Y90489047D01*
X39998333Y89917619D01*
X39379285Y89917619D01*
X17706666Y67217619D02*
X18040000Y67693809D01*
X18278095Y67217619D02*
X18278095Y68217619D01*
X17897142Y68217619D01*
X17801904Y68170000D01*
X17754285Y68122380D01*
X17706666Y68027142D01*
X17706666Y67884285D01*
X17754285Y67789047D01*
X17801904Y67741428D01*
X17897142Y67693809D01*
X18278095Y67693809D01*
X17325714Y68122380D02*
X17278095Y68170000D01*
X17182857Y68217619D01*
X16944761Y68217619D01*
X16849523Y68170000D01*
X16801904Y68122380D01*
X16754285Y68027142D01*
X16754285Y67931904D01*
X16801904Y67789047D01*
X17373333Y67217619D01*
X16754285Y67217619D01*
M02*
