%FSLAX45Y45*%
G04 Gerber Fmt 4.5, Leading zero omitted, Abs format (unit mm)*
G04 Created by KiCad (PCBNEW 5.1.5+dfsg1-2build2) date 2020-11-16 19:45:47*
%MOMM*%
%LPD*%
G04 APERTURE LIST*
%TA.AperFunction,Profile*%
%ADD10C,0.100000*%
%TD*%
%ADD11C,0.200000*%
%ADD12C,0.300000*%
G04 APERTURE END LIST*
D10*
X8000000Y10000000D02*
X8000000Y4300000D01*
X0Y10000000D02*
X8000000Y10000000D01*
X0Y0D02*
X0Y10000000D01*
X8000000Y4300000D02*
X9700000Y4300000D01*
X9700000Y1800000D02*
X9700000Y4300000D01*
X8000000Y1800000D02*
X9700000Y1800000D01*
X8000000Y0D02*
X8000000Y1800000D01*
X0Y0D02*
X8000000Y0D01*
D11*
X7230000Y2045000D02*
X7270000Y2005000D01*
X7270000Y2045000D02*
X7230000Y2005000D01*
X7255000Y2670000D02*
X7295000Y2630000D01*
X7295000Y2670000D02*
X7255000Y2630000D01*
X8330000Y2595000D02*
X8370000Y2555000D01*
X8370000Y2595000D02*
X8330000Y2555000D01*
X8480000Y3370000D02*
X8520000Y3330000D01*
X8520000Y3370000D02*
X8480000Y3330000D01*
X8605000Y3970000D02*
X8645000Y3930000D01*
X8645000Y3970000D02*
X8605000Y3930000D01*
X9505000Y2070000D02*
X9545000Y2030000D01*
X9545000Y2070000D02*
X9505000Y2030000D01*
X327500Y7850000D02*
G75*
G03X327500Y7850000I-40000J0D01*
G01*
X317500Y7800000D02*
X317500Y7900000D01*
X257500Y7800000D02*
X257500Y7900000D01*
X317500Y7900000D02*
G75*
G03X257500Y7900000I-30000J0D01*
G01*
X257500Y7800000D02*
G75*
G03X317500Y7800000I30000J0D01*
G01*
X7752500Y7850000D02*
G75*
G03X7752500Y7850000I-40000J0D01*
G01*
X7742500Y7800000D02*
X7742500Y7900000D01*
X7682500Y7800000D02*
X7682500Y7900000D01*
X7742500Y7900000D02*
G75*
G03X7682500Y7900000I-30000J0D01*
G01*
X7682500Y7800000D02*
G75*
G03X7742500Y7800000I30000J0D01*
G01*
X2300000Y4000000D02*
X2300000Y3900000D01*
X2250000Y3950000D02*
X2350000Y3950000D01*
X525000Y4575000D02*
X525000Y4475000D01*
X475000Y4525000D02*
X575000Y4525000D01*
X779000Y4575000D02*
X779000Y4475000D01*
X729000Y4525000D02*
X829000Y4525000D01*
X1033000Y4575000D02*
X1033000Y4475000D01*
X983000Y4525000D02*
X1083000Y4525000D01*
X1287000Y4575000D02*
X1287000Y4475000D01*
X1237000Y4525000D02*
X1337000Y4525000D01*
X1541000Y4575000D02*
X1541000Y4475000D01*
X1491000Y4525000D02*
X1591000Y4525000D01*
X1795000Y4575000D02*
X1795000Y4475000D01*
X1745000Y4525000D02*
X1845000Y4525000D01*
X2049000Y4575000D02*
X2049000Y4475000D01*
X1999000Y4525000D02*
X2099000Y4525000D01*
X2303000Y4575000D02*
X2303000Y4475000D01*
X2253000Y4525000D02*
X2353000Y4525000D01*
X3550000Y6125000D02*
X3550000Y6025000D01*
X3500000Y6075000D02*
X3600000Y6075000D01*
X2700000Y5900000D02*
X2700000Y5800000D01*
X2650000Y5850000D02*
X2750000Y5850000D01*
X3175000Y6125000D02*
X3175000Y6025000D01*
X3125000Y6075000D02*
X3225000Y6075000D01*
X9525000Y4175000D02*
X9525000Y4075000D01*
X9475000Y4125000D02*
X9575000Y4125000D01*
X3375000Y5575000D02*
X3375000Y5475000D01*
X3325000Y5525000D02*
X3425000Y5525000D01*
X3375000Y5321000D02*
X3375000Y5221000D01*
X3325000Y5271000D02*
X3425000Y5271000D01*
X5525000Y4575000D02*
X5525000Y4475000D01*
X5475000Y4525000D02*
X5575000Y4525000D01*
X5779000Y4575000D02*
X5779000Y4475000D01*
X5729000Y4525000D02*
X5829000Y4525000D01*
X6033000Y4575000D02*
X6033000Y4475000D01*
X5983000Y4525000D02*
X6083000Y4525000D01*
X6287000Y4575000D02*
X6287000Y4475000D01*
X6237000Y4525000D02*
X6337000Y4525000D01*
X6541000Y4575000D02*
X6541000Y4475000D01*
X6491000Y4525000D02*
X6591000Y4525000D01*
X6795000Y4575000D02*
X6795000Y4475000D01*
X6745000Y4525000D02*
X6845000Y4525000D01*
X7049000Y4575000D02*
X7049000Y4475000D01*
X6999000Y4525000D02*
X7099000Y4525000D01*
X7303000Y4575000D02*
X7303000Y4475000D01*
X7253000Y4525000D02*
X7353000Y4525000D01*
X7750000Y6050000D02*
X7750000Y5950000D01*
X7700000Y6000000D02*
X7800000Y6000000D01*
X3000000Y5575000D02*
X3000000Y5475000D01*
X2950000Y5525000D02*
X3050000Y5525000D01*
X3000000Y5321000D02*
X3000000Y5221000D01*
X2950000Y5271000D02*
X3050000Y5271000D01*
X7725000Y5204000D02*
X7725000Y5104000D01*
X7675000Y5154000D02*
X7775000Y5154000D01*
X7725000Y4950000D02*
X7725000Y4850000D01*
X7675000Y4900000D02*
X7775000Y4900000D01*
X4202921Y5918079D02*
X4202921Y5989921D01*
X4131079Y5989921D01*
X4131079Y5918079D01*
X4202921Y5918079D01*
X4202921Y5664079D02*
X4202921Y5735921D01*
X4131079Y5735921D01*
X4131079Y5664079D01*
X4202921Y5664079D01*
X4202921Y5410079D02*
X4202921Y5481921D01*
X4131079Y5481921D01*
X4131079Y5410079D01*
X4202921Y5410079D01*
X1368921Y3586079D02*
X1368921Y3657921D01*
X1297079Y3657921D01*
X1297079Y3586079D01*
X1368921Y3586079D01*
X1622921Y3586079D02*
X1622921Y3657921D01*
X1551079Y3657921D01*
X1551079Y3586079D01*
X1622921Y3586079D01*
X1622921Y792079D02*
X1622921Y863921D01*
X1551079Y863921D01*
X1551079Y792079D01*
X1622921Y792079D01*
X1876921Y3586079D02*
X1876921Y3657921D01*
X1805079Y3657921D01*
X1805079Y3586079D01*
X1876921Y3586079D01*
X1876921Y792079D02*
X1876921Y863921D01*
X1805079Y863921D01*
X1805079Y792079D01*
X1876921Y792079D01*
X2130921Y3586079D02*
X2130921Y3657921D01*
X2059079Y3657921D01*
X2059079Y3586079D01*
X2130921Y3586079D01*
X2130921Y792079D02*
X2130921Y863921D01*
X2059079Y863921D01*
X2059079Y792079D01*
X2130921Y792079D01*
X2384921Y3586079D02*
X2384921Y3657921D01*
X2313079Y3657921D01*
X2313079Y3586079D01*
X2384921Y3586079D01*
X2384921Y792079D02*
X2384921Y863921D01*
X2313079Y863921D01*
X2313079Y792079D01*
X2384921Y792079D01*
X2638921Y3586079D02*
X2638921Y3657921D01*
X2567079Y3657921D01*
X2567079Y3586079D01*
X2638921Y3586079D01*
X2638921Y792079D02*
X2638921Y863921D01*
X2567079Y863921D01*
X2567079Y792079D01*
X2638921Y792079D01*
X2892921Y3586079D02*
X2892921Y3657921D01*
X2821079Y3657921D01*
X2821079Y3586079D01*
X2892921Y3586079D01*
X2892921Y792079D02*
X2892921Y863921D01*
X2821079Y863921D01*
X2821079Y792079D01*
X2892921Y792079D01*
X3146921Y3586079D02*
X3146921Y3657921D01*
X3075079Y3657921D01*
X3075079Y3586079D01*
X3146921Y3586079D01*
X3146921Y792079D02*
X3146921Y863921D01*
X3075079Y863921D01*
X3075079Y792079D01*
X3146921Y792079D01*
X3400921Y3586079D02*
X3400921Y3657921D01*
X3329079Y3657921D01*
X3329079Y3586079D01*
X3400921Y3586079D01*
X3400921Y792079D02*
X3400921Y863921D01*
X3329079Y863921D01*
X3329079Y792079D01*
X3400921Y792079D01*
X3654921Y3586079D02*
X3654921Y3657921D01*
X3583079Y3657921D01*
X3583079Y3586079D01*
X3654921Y3586079D01*
X3654921Y792079D02*
X3654921Y863921D01*
X3583079Y863921D01*
X3583079Y792079D01*
X3654921Y792079D01*
X3908921Y3586079D02*
X3908921Y3657921D01*
X3837079Y3657921D01*
X3837079Y3586079D01*
X3908921Y3586079D01*
X3908921Y792079D02*
X3908921Y863921D01*
X3837079Y863921D01*
X3837079Y792079D01*
X3908921Y792079D01*
X4162921Y3586079D02*
X4162921Y3657921D01*
X4091079Y3657921D01*
X4091079Y3586079D01*
X4162921Y3586079D01*
X4162921Y792079D02*
X4162921Y863921D01*
X4091079Y863921D01*
X4091079Y792079D01*
X4162921Y792079D01*
X4416921Y3586079D02*
X4416921Y3657921D01*
X4345079Y3657921D01*
X4345079Y3586079D01*
X4416921Y3586079D01*
X4416921Y792079D02*
X4416921Y863921D01*
X4345079Y863921D01*
X4345079Y792079D01*
X4416921Y792079D01*
X4670921Y3586079D02*
X4670921Y3657921D01*
X4599079Y3657921D01*
X4599079Y3586079D01*
X4670921Y3586079D01*
X4670921Y792079D02*
X4670921Y863921D01*
X4599079Y863921D01*
X4599079Y792079D01*
X4670921Y792079D01*
X4924921Y3586079D02*
X4924921Y3657921D01*
X4853079Y3657921D01*
X4853079Y3586079D01*
X4924921Y3586079D01*
X4924921Y792079D02*
X4924921Y863921D01*
X4853079Y863921D01*
X4853079Y792079D01*
X4924921Y792079D01*
X5178921Y3586079D02*
X5178921Y3657921D01*
X5107079Y3657921D01*
X5107079Y3586079D01*
X5178921Y3586079D01*
X5178921Y792079D02*
X5178921Y863921D01*
X5107079Y863921D01*
X5107079Y792079D01*
X5178921Y792079D01*
X5432921Y3586079D02*
X5432921Y3657921D01*
X5361079Y3657921D01*
X5361079Y3586079D01*
X5432921Y3586079D01*
X5432921Y792079D02*
X5432921Y863921D01*
X5361079Y863921D01*
X5361079Y792079D01*
X5432921Y792079D01*
X5686921Y3586079D02*
X5686921Y3657921D01*
X5615079Y3657921D01*
X5615079Y3586079D01*
X5686921Y3586079D01*
X5686921Y792079D02*
X5686921Y863921D01*
X5615079Y863921D01*
X5615079Y792079D01*
X5686921Y792079D01*
X5940921Y3586079D02*
X5940921Y3657921D01*
X5869079Y3657921D01*
X5869079Y3586079D01*
X5940921Y3586079D01*
X5940921Y792079D02*
X5940921Y863921D01*
X5869079Y863921D01*
X5869079Y792079D01*
X5940921Y792079D01*
X6194921Y3586079D02*
X6194921Y3657921D01*
X6123079Y3657921D01*
X6123079Y3586079D01*
X6194921Y3586079D01*
X6194921Y792079D02*
X6194921Y863921D01*
X6123079Y863921D01*
X6123079Y792079D01*
X6194921Y792079D01*
X6448921Y792079D02*
X6448921Y863921D01*
X6377079Y863921D01*
X6377079Y792079D01*
X6448921Y792079D01*
X3135921Y4647079D02*
X3135921Y4718921D01*
X3064079Y4718921D01*
X3064079Y4647079D01*
X3135921Y4647079D01*
X3135921Y4393079D02*
X3135921Y4464921D01*
X3064079Y4464921D01*
X3064079Y4393079D01*
X3135921Y4393079D01*
X3135921Y4139079D02*
X3135921Y4210921D01*
X3064079Y4210921D01*
X3064079Y4139079D01*
X3135921Y4139079D01*
X3762500Y6924000D02*
X3817500Y6979000D01*
X3762500Y7034000D01*
X3707500Y6979000D01*
X3762500Y6924000D01*
X4270500Y6924000D02*
X4325500Y6979000D01*
X4270500Y7034000D01*
X4215500Y6979000D01*
X4270500Y6924000D01*
X6025000Y8770000D02*
X6080000Y8825000D01*
X6025000Y8880000D01*
X5970000Y8825000D01*
X6025000Y8770000D01*
X6533000Y8770000D02*
X6588000Y8825000D01*
X6533000Y8880000D01*
X6478000Y8825000D01*
X6533000Y8770000D01*
X1275000Y2478000D02*
X1330000Y2533000D01*
X1275000Y2588000D01*
X1220000Y2533000D01*
X1275000Y2478000D01*
X1275000Y1970000D02*
X1330000Y2025000D01*
X1275000Y2080000D01*
X1220000Y2025000D01*
X1275000Y1970000D01*
X1500000Y8770000D02*
X1555000Y8825000D01*
X1500000Y8880000D01*
X1445000Y8825000D01*
X1500000Y8770000D01*
X2008000Y8770000D02*
X2063000Y8825000D01*
X2008000Y8880000D01*
X1953000Y8825000D01*
X2008000Y8770000D01*
X4450000Y2478000D02*
X4505000Y2533000D01*
X4450000Y2588000D01*
X4395000Y2533000D01*
X4450000Y2478000D01*
X4450000Y2224000D02*
X4505000Y2279000D01*
X4450000Y2334000D01*
X4395000Y2279000D01*
X4450000Y2224000D01*
X4450000Y1970000D02*
X4505000Y2025000D01*
X4450000Y2080000D01*
X4395000Y2025000D01*
X4450000Y1970000D01*
D12*
X281428Y-470714D02*
X281428Y-170714D01*
X352857Y-170714D01*
X395714Y-185000D01*
X424286Y-213571D01*
X438571Y-242143D01*
X452857Y-299286D01*
X452857Y-342143D01*
X438571Y-399286D01*
X424286Y-427857D01*
X395714Y-456429D01*
X352857Y-470714D01*
X281428Y-470714D01*
X581428Y-470714D02*
X581428Y-270714D01*
X581428Y-327857D02*
X595714Y-299286D01*
X610000Y-285000D01*
X638571Y-270714D01*
X667143Y-270714D01*
X767143Y-470714D02*
X767143Y-270714D01*
X767143Y-170714D02*
X752857Y-185000D01*
X767143Y-199286D01*
X781428Y-185000D01*
X767143Y-170714D01*
X767143Y-199286D01*
X952857Y-470714D02*
X924286Y-456429D01*
X910000Y-427857D01*
X910000Y-170714D01*
X1110000Y-470714D02*
X1081428Y-456429D01*
X1067143Y-427857D01*
X1067143Y-170714D01*
X1452857Y-470714D02*
X1452857Y-170714D01*
X1552857Y-385000D01*
X1652857Y-170714D01*
X1652857Y-470714D01*
X1924286Y-470714D02*
X1924286Y-313572D01*
X1910000Y-285000D01*
X1881428Y-270714D01*
X1824286Y-270714D01*
X1795714Y-285000D01*
X1924286Y-456429D02*
X1895714Y-470714D01*
X1824286Y-470714D01*
X1795714Y-456429D01*
X1781428Y-427857D01*
X1781428Y-399286D01*
X1795714Y-370714D01*
X1824286Y-356429D01*
X1895714Y-356429D01*
X1924286Y-342143D01*
X2067143Y-270714D02*
X2067143Y-570714D01*
X2067143Y-285000D02*
X2095714Y-270714D01*
X2152857Y-270714D01*
X2181428Y-285000D01*
X2195714Y-299286D01*
X2210000Y-327857D01*
X2210000Y-413571D01*
X2195714Y-442143D01*
X2181428Y-456429D01*
X2152857Y-470714D01*
X2095714Y-470714D01*
X2067143Y-456429D01*
X2338571Y-442143D02*
X2352857Y-456429D01*
X2338571Y-470714D01*
X2324286Y-456429D01*
X2338571Y-442143D01*
X2338571Y-470714D01*
X2338571Y-285000D02*
X2352857Y-299286D01*
X2338571Y-313572D01*
X2324286Y-299286D01*
X2338571Y-285000D01*
X2338571Y-313572D01*
X-45000Y-945000D02*
X-5000Y-985000D01*
X-5000Y-945000D02*
X-45000Y-985000D01*
X338571Y-800714D02*
X367143Y-800714D01*
X395714Y-815000D01*
X410000Y-829286D01*
X424286Y-857857D01*
X438571Y-915000D01*
X438571Y-986429D01*
X424286Y-1043571D01*
X410000Y-1072143D01*
X395714Y-1086429D01*
X367143Y-1100714D01*
X338571Y-1100714D01*
X310000Y-1086429D01*
X295714Y-1072143D01*
X281428Y-1043571D01*
X267143Y-986429D01*
X267143Y-915000D01*
X281428Y-857857D01*
X295714Y-829286D01*
X310000Y-815000D01*
X338571Y-800714D01*
X567143Y-1072143D02*
X581428Y-1086429D01*
X567143Y-1100714D01*
X552857Y-1086429D01*
X567143Y-1072143D01*
X567143Y-1100714D01*
X838571Y-900714D02*
X838571Y-1100714D01*
X767143Y-786429D02*
X695714Y-1000714D01*
X881428Y-1000714D01*
X1052857Y-800714D02*
X1081428Y-800714D01*
X1110000Y-815000D01*
X1124286Y-829286D01*
X1138571Y-857857D01*
X1152857Y-915000D01*
X1152857Y-986429D01*
X1138571Y-1043571D01*
X1124286Y-1072143D01*
X1110000Y-1086429D01*
X1081428Y-1100714D01*
X1052857Y-1100714D01*
X1024286Y-1086429D01*
X1010000Y-1072143D01*
X995714Y-1043571D01*
X981428Y-986429D01*
X981428Y-915000D01*
X995714Y-857857D01*
X1010000Y-829286D01*
X1024286Y-815000D01*
X1052857Y-800714D01*
X1281428Y-1100714D02*
X1281428Y-900714D01*
X1281428Y-929286D02*
X1295714Y-915000D01*
X1324286Y-900714D01*
X1367143Y-900714D01*
X1395714Y-915000D01*
X1410000Y-943571D01*
X1410000Y-1100714D01*
X1410000Y-943571D02*
X1424286Y-915000D01*
X1452857Y-900714D01*
X1495714Y-900714D01*
X1524286Y-915000D01*
X1538571Y-943571D01*
X1538571Y-1100714D01*
X1681428Y-1100714D02*
X1681428Y-900714D01*
X1681428Y-929286D02*
X1695714Y-915000D01*
X1724286Y-900714D01*
X1767143Y-900714D01*
X1795714Y-915000D01*
X1810000Y-943571D01*
X1810000Y-1100714D01*
X1810000Y-943571D02*
X1824286Y-915000D01*
X1852857Y-900714D01*
X1895714Y-900714D01*
X1924286Y-915000D01*
X1938571Y-943571D01*
X1938571Y-1100714D01*
X2524286Y-786429D02*
X2267143Y-1172143D01*
X2910000Y-800714D02*
X2938571Y-800714D01*
X2967143Y-815000D01*
X2981428Y-829286D01*
X2995714Y-857857D01*
X3010000Y-915000D01*
X3010000Y-986429D01*
X2995714Y-1043571D01*
X2981428Y-1072143D01*
X2967143Y-1086429D01*
X2938571Y-1100714D01*
X2910000Y-1100714D01*
X2881428Y-1086429D01*
X2867143Y-1072143D01*
X2852857Y-1043571D01*
X2838571Y-986429D01*
X2838571Y-915000D01*
X2852857Y-857857D01*
X2867143Y-829286D01*
X2881428Y-815000D01*
X2910000Y-800714D01*
X3138571Y-1072143D02*
X3152857Y-1086429D01*
X3138571Y-1100714D01*
X3124286Y-1086429D01*
X3138571Y-1072143D01*
X3138571Y-1100714D01*
X3338571Y-800714D02*
X3367143Y-800714D01*
X3395714Y-815000D01*
X3410000Y-829286D01*
X3424286Y-857857D01*
X3438571Y-915000D01*
X3438571Y-986429D01*
X3424286Y-1043571D01*
X3410000Y-1072143D01*
X3395714Y-1086429D01*
X3367143Y-1100714D01*
X3338571Y-1100714D01*
X3310000Y-1086429D01*
X3295714Y-1072143D01*
X3281428Y-1043571D01*
X3267143Y-986429D01*
X3267143Y-915000D01*
X3281428Y-857857D01*
X3295714Y-829286D01*
X3310000Y-815000D01*
X3338571Y-800714D01*
X3724286Y-1100714D02*
X3552857Y-1100714D01*
X3638571Y-1100714D02*
X3638571Y-800714D01*
X3610000Y-843571D01*
X3581428Y-872143D01*
X3552857Y-886429D01*
X3981428Y-800714D02*
X3924286Y-800714D01*
X3895714Y-815000D01*
X3881428Y-829286D01*
X3852857Y-872143D01*
X3838571Y-929286D01*
X3838571Y-1043571D01*
X3852857Y-1072143D01*
X3867143Y-1086429D01*
X3895714Y-1100714D01*
X3952857Y-1100714D01*
X3981428Y-1086429D01*
X3995714Y-1072143D01*
X4010000Y-1043571D01*
X4010000Y-972143D01*
X3995714Y-943571D01*
X3981428Y-929286D01*
X3952857Y-915000D01*
X3895714Y-915000D01*
X3867143Y-929286D01*
X3852857Y-943571D01*
X3838571Y-972143D01*
X4124286Y-800714D02*
X4124286Y-857857D01*
X4238571Y-800714D02*
X4238571Y-857857D01*
X4681428Y-1215000D02*
X4667143Y-1200714D01*
X4638571Y-1157857D01*
X4624286Y-1129286D01*
X4610000Y-1086429D01*
X4595714Y-1015000D01*
X4595714Y-957857D01*
X4610000Y-886429D01*
X4624286Y-843571D01*
X4638571Y-815000D01*
X4667143Y-772143D01*
X4681428Y-757857D01*
X4924286Y-800714D02*
X4867143Y-800714D01*
X4838571Y-815000D01*
X4824286Y-829286D01*
X4795714Y-872143D01*
X4781428Y-929286D01*
X4781428Y-1043571D01*
X4795714Y-1072143D01*
X4810000Y-1086429D01*
X4838571Y-1100714D01*
X4895714Y-1100714D01*
X4924286Y-1086429D01*
X4938571Y-1072143D01*
X4952857Y-1043571D01*
X4952857Y-972143D01*
X4938571Y-943571D01*
X4924286Y-929286D01*
X4895714Y-915000D01*
X4838571Y-915000D01*
X4810000Y-929286D01*
X4795714Y-943571D01*
X4781428Y-972143D01*
X5310000Y-1100714D02*
X5310000Y-800714D01*
X5438571Y-1100714D02*
X5438571Y-943571D01*
X5424286Y-915000D01*
X5395714Y-900714D01*
X5352857Y-900714D01*
X5324286Y-915000D01*
X5310000Y-929286D01*
X5624286Y-1100714D02*
X5595714Y-1086429D01*
X5581428Y-1072143D01*
X5567143Y-1043571D01*
X5567143Y-957857D01*
X5581428Y-929286D01*
X5595714Y-915000D01*
X5624286Y-900714D01*
X5667143Y-900714D01*
X5695714Y-915000D01*
X5710000Y-929286D01*
X5724286Y-957857D01*
X5724286Y-1043571D01*
X5710000Y-1072143D01*
X5695714Y-1086429D01*
X5667143Y-1100714D01*
X5624286Y-1100714D01*
X5895714Y-1100714D02*
X5867143Y-1086429D01*
X5852857Y-1057857D01*
X5852857Y-800714D01*
X6124286Y-1086429D02*
X6095714Y-1100714D01*
X6038571Y-1100714D01*
X6010000Y-1086429D01*
X5995714Y-1057857D01*
X5995714Y-943571D01*
X6010000Y-915000D01*
X6038571Y-900714D01*
X6095714Y-900714D01*
X6124286Y-915000D01*
X6138571Y-943571D01*
X6138571Y-972143D01*
X5995714Y-1000714D01*
X6252857Y-1086429D02*
X6281428Y-1100714D01*
X6338571Y-1100714D01*
X6367143Y-1086429D01*
X6381428Y-1057857D01*
X6381428Y-1043571D01*
X6367143Y-1015000D01*
X6338571Y-1000714D01*
X6295714Y-1000714D01*
X6267143Y-986429D01*
X6252857Y-957857D01*
X6252857Y-943571D01*
X6267143Y-915000D01*
X6295714Y-900714D01*
X6338571Y-900714D01*
X6367143Y-915000D01*
X6481428Y-1215000D02*
X6495714Y-1200714D01*
X6524286Y-1157857D01*
X6538571Y-1129286D01*
X6552857Y-1086429D01*
X6567143Y-1015000D01*
X6567143Y-957857D01*
X6552857Y-886429D01*
X6538571Y-843571D01*
X6524286Y-815000D01*
X6495714Y-772143D01*
X6481428Y-757857D01*
X-5000Y-1361000D02*
G75*
G03X-5000Y-1361000I-40000J0D01*
G01*
X338571Y-1196714D02*
X367143Y-1196714D01*
X395714Y-1211000D01*
X410000Y-1225286D01*
X424286Y-1253857D01*
X438571Y-1311000D01*
X438571Y-1382429D01*
X424286Y-1439571D01*
X410000Y-1468143D01*
X395714Y-1482429D01*
X367143Y-1496714D01*
X338571Y-1496714D01*
X310000Y-1482429D01*
X295714Y-1468143D01*
X281428Y-1439571D01*
X267143Y-1382429D01*
X267143Y-1311000D01*
X281428Y-1253857D01*
X295714Y-1225286D01*
X310000Y-1211000D01*
X338571Y-1196714D01*
X567143Y-1468143D02*
X581428Y-1482429D01*
X567143Y-1496714D01*
X552857Y-1482429D01*
X567143Y-1468143D01*
X567143Y-1496714D01*
X752857Y-1325286D02*
X724286Y-1311000D01*
X710000Y-1296714D01*
X695714Y-1268143D01*
X695714Y-1253857D01*
X710000Y-1225286D01*
X724286Y-1211000D01*
X752857Y-1196714D01*
X810000Y-1196714D01*
X838571Y-1211000D01*
X852857Y-1225286D01*
X867143Y-1253857D01*
X867143Y-1268143D01*
X852857Y-1296714D01*
X838571Y-1311000D01*
X810000Y-1325286D01*
X752857Y-1325286D01*
X724286Y-1339572D01*
X710000Y-1353857D01*
X695714Y-1382429D01*
X695714Y-1439571D01*
X710000Y-1468143D01*
X724286Y-1482429D01*
X752857Y-1496714D01*
X810000Y-1496714D01*
X838571Y-1482429D01*
X852857Y-1468143D01*
X867143Y-1439571D01*
X867143Y-1382429D01*
X852857Y-1353857D01*
X838571Y-1339572D01*
X810000Y-1325286D01*
X1052857Y-1196714D02*
X1081428Y-1196714D01*
X1110000Y-1211000D01*
X1124286Y-1225286D01*
X1138571Y-1253857D01*
X1152857Y-1311000D01*
X1152857Y-1382429D01*
X1138571Y-1439571D01*
X1124286Y-1468143D01*
X1110000Y-1482429D01*
X1081428Y-1496714D01*
X1052857Y-1496714D01*
X1024286Y-1482429D01*
X1010000Y-1468143D01*
X995714Y-1439571D01*
X981428Y-1382429D01*
X981428Y-1311000D01*
X995714Y-1253857D01*
X1010000Y-1225286D01*
X1024286Y-1211000D01*
X1052857Y-1196714D01*
X1281428Y-1496714D02*
X1281428Y-1296714D01*
X1281428Y-1325286D02*
X1295714Y-1311000D01*
X1324286Y-1296714D01*
X1367143Y-1296714D01*
X1395714Y-1311000D01*
X1410000Y-1339572D01*
X1410000Y-1496714D01*
X1410000Y-1339572D02*
X1424286Y-1311000D01*
X1452857Y-1296714D01*
X1495714Y-1296714D01*
X1524286Y-1311000D01*
X1538571Y-1339572D01*
X1538571Y-1496714D01*
X1681428Y-1496714D02*
X1681428Y-1296714D01*
X1681428Y-1325286D02*
X1695714Y-1311000D01*
X1724286Y-1296714D01*
X1767143Y-1296714D01*
X1795714Y-1311000D01*
X1810000Y-1339572D01*
X1810000Y-1496714D01*
X1810000Y-1339572D02*
X1824286Y-1311000D01*
X1852857Y-1296714D01*
X1895714Y-1296714D01*
X1924286Y-1311000D01*
X1938571Y-1339572D01*
X1938571Y-1496714D01*
X2524286Y-1182429D02*
X2267143Y-1568143D01*
X2910000Y-1196714D02*
X2938571Y-1196714D01*
X2967143Y-1211000D01*
X2981428Y-1225286D01*
X2995714Y-1253857D01*
X3010000Y-1311000D01*
X3010000Y-1382429D01*
X2995714Y-1439571D01*
X2981428Y-1468143D01*
X2967143Y-1482429D01*
X2938571Y-1496714D01*
X2910000Y-1496714D01*
X2881428Y-1482429D01*
X2867143Y-1468143D01*
X2852857Y-1439571D01*
X2838571Y-1382429D01*
X2838571Y-1311000D01*
X2852857Y-1253857D01*
X2867143Y-1225286D01*
X2881428Y-1211000D01*
X2910000Y-1196714D01*
X3138571Y-1468143D02*
X3152857Y-1482429D01*
X3138571Y-1496714D01*
X3124286Y-1482429D01*
X3138571Y-1468143D01*
X3138571Y-1496714D01*
X3338571Y-1196714D02*
X3367143Y-1196714D01*
X3395714Y-1211000D01*
X3410000Y-1225286D01*
X3424286Y-1253857D01*
X3438571Y-1311000D01*
X3438571Y-1382429D01*
X3424286Y-1439571D01*
X3410000Y-1468143D01*
X3395714Y-1482429D01*
X3367143Y-1496714D01*
X3338571Y-1496714D01*
X3310000Y-1482429D01*
X3295714Y-1468143D01*
X3281428Y-1439571D01*
X3267143Y-1382429D01*
X3267143Y-1311000D01*
X3281428Y-1253857D01*
X3295714Y-1225286D01*
X3310000Y-1211000D01*
X3338571Y-1196714D01*
X3538571Y-1196714D02*
X3724286Y-1196714D01*
X3624286Y-1311000D01*
X3667143Y-1311000D01*
X3695714Y-1325286D01*
X3710000Y-1339572D01*
X3724286Y-1368143D01*
X3724286Y-1439571D01*
X3710000Y-1468143D01*
X3695714Y-1482429D01*
X3667143Y-1496714D01*
X3581428Y-1496714D01*
X3552857Y-1482429D01*
X3538571Y-1468143D01*
X4010000Y-1496714D02*
X3838571Y-1496714D01*
X3924286Y-1496714D02*
X3924286Y-1196714D01*
X3895714Y-1239572D01*
X3867143Y-1268143D01*
X3838571Y-1282429D01*
X4124286Y-1196714D02*
X4124286Y-1253857D01*
X4238571Y-1196714D02*
X4238571Y-1253857D01*
X4681428Y-1611000D02*
X4667143Y-1596714D01*
X4638571Y-1553857D01*
X4624286Y-1525286D01*
X4610000Y-1482429D01*
X4595714Y-1411000D01*
X4595714Y-1353857D01*
X4610000Y-1282429D01*
X4624286Y-1239572D01*
X4638571Y-1211000D01*
X4667143Y-1168143D01*
X4681428Y-1153857D01*
X4852857Y-1196714D02*
X4881428Y-1196714D01*
X4910000Y-1211000D01*
X4924286Y-1225286D01*
X4938571Y-1253857D01*
X4952857Y-1311000D01*
X4952857Y-1382429D01*
X4938571Y-1439571D01*
X4924286Y-1468143D01*
X4910000Y-1482429D01*
X4881428Y-1496714D01*
X4852857Y-1496714D01*
X4824286Y-1482429D01*
X4810000Y-1468143D01*
X4795714Y-1439571D01*
X4781428Y-1382429D01*
X4781428Y-1311000D01*
X4795714Y-1253857D01*
X4810000Y-1225286D01*
X4824286Y-1211000D01*
X4852857Y-1196714D01*
X5310000Y-1496714D02*
X5310000Y-1196714D01*
X5438571Y-1496714D02*
X5438571Y-1339572D01*
X5424286Y-1311000D01*
X5395714Y-1296714D01*
X5352857Y-1296714D01*
X5324286Y-1311000D01*
X5310000Y-1325286D01*
X5624286Y-1496714D02*
X5595714Y-1482429D01*
X5581428Y-1468143D01*
X5567143Y-1439571D01*
X5567143Y-1353857D01*
X5581428Y-1325286D01*
X5595714Y-1311000D01*
X5624286Y-1296714D01*
X5667143Y-1296714D01*
X5695714Y-1311000D01*
X5710000Y-1325286D01*
X5724286Y-1353857D01*
X5724286Y-1439571D01*
X5710000Y-1468143D01*
X5695714Y-1482429D01*
X5667143Y-1496714D01*
X5624286Y-1496714D01*
X5895714Y-1496714D02*
X5867143Y-1482429D01*
X5852857Y-1453857D01*
X5852857Y-1196714D01*
X6124286Y-1482429D02*
X6095714Y-1496714D01*
X6038571Y-1496714D01*
X6010000Y-1482429D01*
X5995714Y-1453857D01*
X5995714Y-1339572D01*
X6010000Y-1311000D01*
X6038571Y-1296714D01*
X6095714Y-1296714D01*
X6124286Y-1311000D01*
X6138571Y-1339572D01*
X6138571Y-1368143D01*
X5995714Y-1396714D01*
X6252857Y-1482429D02*
X6281428Y-1496714D01*
X6338571Y-1496714D01*
X6367143Y-1482429D01*
X6381428Y-1453857D01*
X6381428Y-1439571D01*
X6367143Y-1411000D01*
X6338571Y-1396714D01*
X6295714Y-1396714D01*
X6267143Y-1382429D01*
X6252857Y-1353857D01*
X6252857Y-1339572D01*
X6267143Y-1311000D01*
X6295714Y-1296714D01*
X6338571Y-1296714D01*
X6367143Y-1311000D01*
X6738571Y-1382429D02*
X6967143Y-1382429D01*
X6852857Y-1496714D02*
X6852857Y-1268143D01*
X7324286Y-1225286D02*
X7338571Y-1211000D01*
X7367143Y-1196714D01*
X7438571Y-1196714D01*
X7467143Y-1211000D01*
X7481428Y-1225286D01*
X7495714Y-1253857D01*
X7495714Y-1282429D01*
X7481428Y-1325286D01*
X7310000Y-1496714D01*
X7495714Y-1496714D01*
X7838571Y-1482429D02*
X7867143Y-1496714D01*
X7924286Y-1496714D01*
X7952857Y-1482429D01*
X7967143Y-1453857D01*
X7967143Y-1439571D01*
X7952857Y-1411000D01*
X7924286Y-1396714D01*
X7881428Y-1396714D01*
X7852857Y-1382429D01*
X7838571Y-1353857D01*
X7838571Y-1339572D01*
X7852857Y-1311000D01*
X7881428Y-1296714D01*
X7924286Y-1296714D01*
X7952857Y-1311000D01*
X8138571Y-1496714D02*
X8110000Y-1482429D01*
X8095714Y-1453857D01*
X8095714Y-1196714D01*
X8295714Y-1496714D02*
X8267143Y-1482429D01*
X8252857Y-1468143D01*
X8238571Y-1439571D01*
X8238571Y-1353857D01*
X8252857Y-1325286D01*
X8267143Y-1311000D01*
X8295714Y-1296714D01*
X8338571Y-1296714D01*
X8367143Y-1311000D01*
X8381428Y-1325286D01*
X8395714Y-1353857D01*
X8395714Y-1439571D01*
X8381428Y-1468143D01*
X8367143Y-1482429D01*
X8338571Y-1496714D01*
X8295714Y-1496714D01*
X8481428Y-1296714D02*
X8595714Y-1296714D01*
X8524286Y-1196714D02*
X8524286Y-1453857D01*
X8538571Y-1482429D01*
X8567143Y-1496714D01*
X8595714Y-1496714D01*
X8681428Y-1482429D02*
X8710000Y-1496714D01*
X8767143Y-1496714D01*
X8795714Y-1482429D01*
X8810000Y-1453857D01*
X8810000Y-1439571D01*
X8795714Y-1411000D01*
X8767143Y-1396714D01*
X8724286Y-1396714D01*
X8695714Y-1382429D01*
X8681428Y-1353857D01*
X8681428Y-1339572D01*
X8695714Y-1311000D01*
X8724286Y-1296714D01*
X8767143Y-1296714D01*
X8795714Y-1311000D01*
X8910000Y-1611000D02*
X8924286Y-1596714D01*
X8952857Y-1553857D01*
X8967143Y-1525286D01*
X8981428Y-1482429D01*
X8995714Y-1411000D01*
X8995714Y-1353857D01*
X8981428Y-1282429D01*
X8967143Y-1239572D01*
X8952857Y-1211000D01*
X8924286Y-1168143D01*
X8910000Y-1153857D01*
X-55000Y-1707000D02*
X-55000Y-1807000D01*
X-105000Y-1757000D02*
X-5000Y-1757000D01*
X438571Y-1892714D02*
X267143Y-1892714D01*
X352857Y-1892714D02*
X352857Y-1592714D01*
X324286Y-1635571D01*
X295714Y-1664143D01*
X267143Y-1678429D01*
X567143Y-1864143D02*
X581428Y-1878429D01*
X567143Y-1892714D01*
X552857Y-1878429D01*
X567143Y-1864143D01*
X567143Y-1892714D01*
X767143Y-1592714D02*
X795714Y-1592714D01*
X824286Y-1607000D01*
X838571Y-1621286D01*
X852857Y-1649857D01*
X867143Y-1707000D01*
X867143Y-1778429D01*
X852857Y-1835571D01*
X838571Y-1864143D01*
X824286Y-1878429D01*
X795714Y-1892714D01*
X767143Y-1892714D01*
X738571Y-1878429D01*
X724286Y-1864143D01*
X710000Y-1835571D01*
X695714Y-1778429D01*
X695714Y-1707000D01*
X710000Y-1649857D01*
X724286Y-1621286D01*
X738571Y-1607000D01*
X767143Y-1592714D01*
X1052857Y-1592714D02*
X1081428Y-1592714D01*
X1110000Y-1607000D01*
X1124286Y-1621286D01*
X1138571Y-1649857D01*
X1152857Y-1707000D01*
X1152857Y-1778429D01*
X1138571Y-1835571D01*
X1124286Y-1864143D01*
X1110000Y-1878429D01*
X1081428Y-1892714D01*
X1052857Y-1892714D01*
X1024286Y-1878429D01*
X1010000Y-1864143D01*
X995714Y-1835571D01*
X981428Y-1778429D01*
X981428Y-1707000D01*
X995714Y-1649857D01*
X1010000Y-1621286D01*
X1024286Y-1607000D01*
X1052857Y-1592714D01*
X1281428Y-1892714D02*
X1281428Y-1692714D01*
X1281428Y-1721286D02*
X1295714Y-1707000D01*
X1324286Y-1692714D01*
X1367143Y-1692714D01*
X1395714Y-1707000D01*
X1410000Y-1735571D01*
X1410000Y-1892714D01*
X1410000Y-1735571D02*
X1424286Y-1707000D01*
X1452857Y-1692714D01*
X1495714Y-1692714D01*
X1524286Y-1707000D01*
X1538571Y-1735571D01*
X1538571Y-1892714D01*
X1681428Y-1892714D02*
X1681428Y-1692714D01*
X1681428Y-1721286D02*
X1695714Y-1707000D01*
X1724286Y-1692714D01*
X1767143Y-1692714D01*
X1795714Y-1707000D01*
X1810000Y-1735571D01*
X1810000Y-1892714D01*
X1810000Y-1735571D02*
X1824286Y-1707000D01*
X1852857Y-1692714D01*
X1895714Y-1692714D01*
X1924286Y-1707000D01*
X1938571Y-1735571D01*
X1938571Y-1892714D01*
X2524286Y-1578429D02*
X2267143Y-1964143D01*
X2910000Y-1592714D02*
X2938571Y-1592714D01*
X2967143Y-1607000D01*
X2981428Y-1621286D01*
X2995714Y-1649857D01*
X3010000Y-1707000D01*
X3010000Y-1778429D01*
X2995714Y-1835571D01*
X2981428Y-1864143D01*
X2967143Y-1878429D01*
X2938571Y-1892714D01*
X2910000Y-1892714D01*
X2881428Y-1878429D01*
X2867143Y-1864143D01*
X2852857Y-1835571D01*
X2838571Y-1778429D01*
X2838571Y-1707000D01*
X2852857Y-1649857D01*
X2867143Y-1621286D01*
X2881428Y-1607000D01*
X2910000Y-1592714D01*
X3138571Y-1864143D02*
X3152857Y-1878429D01*
X3138571Y-1892714D01*
X3124286Y-1878429D01*
X3138571Y-1864143D01*
X3138571Y-1892714D01*
X3338571Y-1592714D02*
X3367143Y-1592714D01*
X3395714Y-1607000D01*
X3410000Y-1621286D01*
X3424286Y-1649857D01*
X3438571Y-1707000D01*
X3438571Y-1778429D01*
X3424286Y-1835571D01*
X3410000Y-1864143D01*
X3395714Y-1878429D01*
X3367143Y-1892714D01*
X3338571Y-1892714D01*
X3310000Y-1878429D01*
X3295714Y-1864143D01*
X3281428Y-1835571D01*
X3267143Y-1778429D01*
X3267143Y-1707000D01*
X3281428Y-1649857D01*
X3295714Y-1621286D01*
X3310000Y-1607000D01*
X3338571Y-1592714D01*
X3538571Y-1592714D02*
X3724286Y-1592714D01*
X3624286Y-1707000D01*
X3667143Y-1707000D01*
X3695714Y-1721286D01*
X3710000Y-1735571D01*
X3724286Y-1764143D01*
X3724286Y-1835571D01*
X3710000Y-1864143D01*
X3695714Y-1878429D01*
X3667143Y-1892714D01*
X3581428Y-1892714D01*
X3552857Y-1878429D01*
X3538571Y-1864143D01*
X3867143Y-1892714D02*
X3924286Y-1892714D01*
X3952857Y-1878429D01*
X3967143Y-1864143D01*
X3995714Y-1821286D01*
X4010000Y-1764143D01*
X4010000Y-1649857D01*
X3995714Y-1621286D01*
X3981428Y-1607000D01*
X3952857Y-1592714D01*
X3895714Y-1592714D01*
X3867143Y-1607000D01*
X3852857Y-1621286D01*
X3838571Y-1649857D01*
X3838571Y-1721286D01*
X3852857Y-1749857D01*
X3867143Y-1764143D01*
X3895714Y-1778429D01*
X3952857Y-1778429D01*
X3981428Y-1764143D01*
X3995714Y-1749857D01*
X4010000Y-1721286D01*
X4124286Y-1592714D02*
X4124286Y-1649857D01*
X4238571Y-1592714D02*
X4238571Y-1649857D01*
X4681428Y-2007000D02*
X4667143Y-1992714D01*
X4638571Y-1949857D01*
X4624286Y-1921286D01*
X4610000Y-1878429D01*
X4595714Y-1807000D01*
X4595714Y-1749857D01*
X4610000Y-1678429D01*
X4624286Y-1635571D01*
X4638571Y-1607000D01*
X4667143Y-1564143D01*
X4681428Y-1549857D01*
X4781428Y-1621286D02*
X4795714Y-1607000D01*
X4824286Y-1592714D01*
X4895714Y-1592714D01*
X4924286Y-1607000D01*
X4938571Y-1621286D01*
X4952857Y-1649857D01*
X4952857Y-1678429D01*
X4938571Y-1721286D01*
X4767143Y-1892714D01*
X4952857Y-1892714D01*
X5124286Y-1721286D02*
X5095714Y-1707000D01*
X5081428Y-1692714D01*
X5067143Y-1664143D01*
X5067143Y-1649857D01*
X5081428Y-1621286D01*
X5095714Y-1607000D01*
X5124286Y-1592714D01*
X5181428Y-1592714D01*
X5210000Y-1607000D01*
X5224286Y-1621286D01*
X5238571Y-1649857D01*
X5238571Y-1664143D01*
X5224286Y-1692714D01*
X5210000Y-1707000D01*
X5181428Y-1721286D01*
X5124286Y-1721286D01*
X5095714Y-1735571D01*
X5081428Y-1749857D01*
X5067143Y-1778429D01*
X5067143Y-1835571D01*
X5081428Y-1864143D01*
X5095714Y-1878429D01*
X5124286Y-1892714D01*
X5181428Y-1892714D01*
X5210000Y-1878429D01*
X5224286Y-1864143D01*
X5238571Y-1835571D01*
X5238571Y-1778429D01*
X5224286Y-1749857D01*
X5210000Y-1735571D01*
X5181428Y-1721286D01*
X5595714Y-1892714D02*
X5595714Y-1592714D01*
X5724286Y-1892714D02*
X5724286Y-1735571D01*
X5710000Y-1707000D01*
X5681428Y-1692714D01*
X5638571Y-1692714D01*
X5610000Y-1707000D01*
X5595714Y-1721286D01*
X5910000Y-1892714D02*
X5881428Y-1878429D01*
X5867143Y-1864143D01*
X5852857Y-1835571D01*
X5852857Y-1749857D01*
X5867143Y-1721286D01*
X5881428Y-1707000D01*
X5910000Y-1692714D01*
X5952857Y-1692714D01*
X5981428Y-1707000D01*
X5995714Y-1721286D01*
X6010000Y-1749857D01*
X6010000Y-1835571D01*
X5995714Y-1864143D01*
X5981428Y-1878429D01*
X5952857Y-1892714D01*
X5910000Y-1892714D01*
X6181428Y-1892714D02*
X6152857Y-1878429D01*
X6138571Y-1849857D01*
X6138571Y-1592714D01*
X6410000Y-1878429D02*
X6381428Y-1892714D01*
X6324286Y-1892714D01*
X6295714Y-1878429D01*
X6281428Y-1849857D01*
X6281428Y-1735571D01*
X6295714Y-1707000D01*
X6324286Y-1692714D01*
X6381428Y-1692714D01*
X6410000Y-1707000D01*
X6424286Y-1735571D01*
X6424286Y-1764143D01*
X6281428Y-1792714D01*
X6538571Y-1878429D02*
X6567143Y-1892714D01*
X6624286Y-1892714D01*
X6652857Y-1878429D01*
X6667143Y-1849857D01*
X6667143Y-1835571D01*
X6652857Y-1807000D01*
X6624286Y-1792714D01*
X6581428Y-1792714D01*
X6552857Y-1778429D01*
X6538571Y-1749857D01*
X6538571Y-1735571D01*
X6552857Y-1707000D01*
X6581428Y-1692714D01*
X6624286Y-1692714D01*
X6652857Y-1707000D01*
X6767143Y-2007000D02*
X6781428Y-1992714D01*
X6810000Y-1949857D01*
X6824286Y-1921286D01*
X6838571Y-1878429D01*
X6852857Y-1807000D01*
X6852857Y-1749857D01*
X6838571Y-1678429D01*
X6824286Y-1635571D01*
X6810000Y-1607000D01*
X6781428Y-1564143D01*
X6767143Y-1549857D01*
X-19879Y-2188922D02*
X-19879Y-2117079D01*
X-91721Y-2117079D01*
X-91721Y-2188922D01*
X-19879Y-2188922D01*
X438571Y-2288714D02*
X267143Y-2288714D01*
X352857Y-2288714D02*
X352857Y-1988714D01*
X324286Y-2031571D01*
X295714Y-2060143D01*
X267143Y-2074429D01*
X567143Y-2260143D02*
X581428Y-2274429D01*
X567143Y-2288714D01*
X552857Y-2274429D01*
X567143Y-2260143D01*
X567143Y-2288714D01*
X767143Y-1988714D02*
X795714Y-1988714D01*
X824286Y-2003000D01*
X838571Y-2017286D01*
X852857Y-2045857D01*
X867143Y-2103000D01*
X867143Y-2174429D01*
X852857Y-2231572D01*
X838571Y-2260143D01*
X824286Y-2274429D01*
X795714Y-2288714D01*
X767143Y-2288714D01*
X738571Y-2274429D01*
X724286Y-2260143D01*
X710000Y-2231572D01*
X695714Y-2174429D01*
X695714Y-2103000D01*
X710000Y-2045857D01*
X724286Y-2017286D01*
X738571Y-2003000D01*
X767143Y-1988714D01*
X981428Y-2017286D02*
X995714Y-2003000D01*
X1024286Y-1988714D01*
X1095714Y-1988714D01*
X1124286Y-2003000D01*
X1138571Y-2017286D01*
X1152857Y-2045857D01*
X1152857Y-2074429D01*
X1138571Y-2117286D01*
X967143Y-2288714D01*
X1152857Y-2288714D01*
X1281428Y-2288714D02*
X1281428Y-2088714D01*
X1281428Y-2117286D02*
X1295714Y-2103000D01*
X1324286Y-2088714D01*
X1367143Y-2088714D01*
X1395714Y-2103000D01*
X1410000Y-2131572D01*
X1410000Y-2288714D01*
X1410000Y-2131572D02*
X1424286Y-2103000D01*
X1452857Y-2088714D01*
X1495714Y-2088714D01*
X1524286Y-2103000D01*
X1538571Y-2131572D01*
X1538571Y-2288714D01*
X1681428Y-2288714D02*
X1681428Y-2088714D01*
X1681428Y-2117286D02*
X1695714Y-2103000D01*
X1724286Y-2088714D01*
X1767143Y-2088714D01*
X1795714Y-2103000D01*
X1810000Y-2131572D01*
X1810000Y-2288714D01*
X1810000Y-2131572D02*
X1824286Y-2103000D01*
X1852857Y-2088714D01*
X1895714Y-2088714D01*
X1924286Y-2103000D01*
X1938571Y-2131572D01*
X1938571Y-2288714D01*
X2524286Y-1974429D02*
X2267143Y-2360143D01*
X2910000Y-1988714D02*
X2938571Y-1988714D01*
X2967143Y-2003000D01*
X2981428Y-2017286D01*
X2995714Y-2045857D01*
X3010000Y-2103000D01*
X3010000Y-2174429D01*
X2995714Y-2231572D01*
X2981428Y-2260143D01*
X2967143Y-2274429D01*
X2938571Y-2288714D01*
X2910000Y-2288714D01*
X2881428Y-2274429D01*
X2867143Y-2260143D01*
X2852857Y-2231572D01*
X2838571Y-2174429D01*
X2838571Y-2103000D01*
X2852857Y-2045857D01*
X2867143Y-2017286D01*
X2881428Y-2003000D01*
X2910000Y-1988714D01*
X3138571Y-2260143D02*
X3152857Y-2274429D01*
X3138571Y-2288714D01*
X3124286Y-2274429D01*
X3138571Y-2260143D01*
X3138571Y-2288714D01*
X3338571Y-1988714D02*
X3367143Y-1988714D01*
X3395714Y-2003000D01*
X3410000Y-2017286D01*
X3424286Y-2045857D01*
X3438571Y-2103000D01*
X3438571Y-2174429D01*
X3424286Y-2231572D01*
X3410000Y-2260143D01*
X3395714Y-2274429D01*
X3367143Y-2288714D01*
X3338571Y-2288714D01*
X3310000Y-2274429D01*
X3295714Y-2260143D01*
X3281428Y-2231572D01*
X3267143Y-2174429D01*
X3267143Y-2103000D01*
X3281428Y-2045857D01*
X3295714Y-2017286D01*
X3310000Y-2003000D01*
X3338571Y-1988714D01*
X3695714Y-2088714D02*
X3695714Y-2288714D01*
X3624286Y-1974429D02*
X3552857Y-2188714D01*
X3738571Y-2188714D01*
X3910000Y-1988714D02*
X3938571Y-1988714D01*
X3967143Y-2003000D01*
X3981428Y-2017286D01*
X3995714Y-2045857D01*
X4010000Y-2103000D01*
X4010000Y-2174429D01*
X3995714Y-2231572D01*
X3981428Y-2260143D01*
X3967143Y-2274429D01*
X3938571Y-2288714D01*
X3910000Y-2288714D01*
X3881428Y-2274429D01*
X3867143Y-2260143D01*
X3852857Y-2231572D01*
X3838571Y-2174429D01*
X3838571Y-2103000D01*
X3852857Y-2045857D01*
X3867143Y-2017286D01*
X3881428Y-2003000D01*
X3910000Y-1988714D01*
X4124286Y-1988714D02*
X4124286Y-2045857D01*
X4238571Y-1988714D02*
X4238571Y-2045857D01*
X4681428Y-2403000D02*
X4667143Y-2388714D01*
X4638571Y-2345857D01*
X4624286Y-2317286D01*
X4610000Y-2274429D01*
X4595714Y-2203000D01*
X4595714Y-2145857D01*
X4610000Y-2074429D01*
X4624286Y-2031571D01*
X4638571Y-2003000D01*
X4667143Y-1960143D01*
X4681428Y-1945857D01*
X4924286Y-2088714D02*
X4924286Y-2288714D01*
X4852857Y-1974429D02*
X4781428Y-2188714D01*
X4967143Y-2188714D01*
X5210000Y-1988714D02*
X5152857Y-1988714D01*
X5124286Y-2003000D01*
X5110000Y-2017286D01*
X5081428Y-2060143D01*
X5067143Y-2117286D01*
X5067143Y-2231572D01*
X5081428Y-2260143D01*
X5095714Y-2274429D01*
X5124286Y-2288714D01*
X5181428Y-2288714D01*
X5210000Y-2274429D01*
X5224286Y-2260143D01*
X5238571Y-2231572D01*
X5238571Y-2160143D01*
X5224286Y-2131572D01*
X5210000Y-2117286D01*
X5181428Y-2103000D01*
X5124286Y-2103000D01*
X5095714Y-2117286D01*
X5081428Y-2131572D01*
X5067143Y-2160143D01*
X5595714Y-2288714D02*
X5595714Y-1988714D01*
X5724286Y-2288714D02*
X5724286Y-2131572D01*
X5710000Y-2103000D01*
X5681428Y-2088714D01*
X5638571Y-2088714D01*
X5610000Y-2103000D01*
X5595714Y-2117286D01*
X5910000Y-2288714D02*
X5881428Y-2274429D01*
X5867143Y-2260143D01*
X5852857Y-2231572D01*
X5852857Y-2145857D01*
X5867143Y-2117286D01*
X5881428Y-2103000D01*
X5910000Y-2088714D01*
X5952857Y-2088714D01*
X5981428Y-2103000D01*
X5995714Y-2117286D01*
X6010000Y-2145857D01*
X6010000Y-2231572D01*
X5995714Y-2260143D01*
X5981428Y-2274429D01*
X5952857Y-2288714D01*
X5910000Y-2288714D01*
X6181428Y-2288714D02*
X6152857Y-2274429D01*
X6138571Y-2245857D01*
X6138571Y-1988714D01*
X6410000Y-2274429D02*
X6381428Y-2288714D01*
X6324286Y-2288714D01*
X6295714Y-2274429D01*
X6281428Y-2245857D01*
X6281428Y-2131572D01*
X6295714Y-2103000D01*
X6324286Y-2088714D01*
X6381428Y-2088714D01*
X6410000Y-2103000D01*
X6424286Y-2131572D01*
X6424286Y-2160143D01*
X6281428Y-2188714D01*
X6538571Y-2274429D02*
X6567143Y-2288714D01*
X6624286Y-2288714D01*
X6652857Y-2274429D01*
X6667143Y-2245857D01*
X6667143Y-2231572D01*
X6652857Y-2203000D01*
X6624286Y-2188714D01*
X6581428Y-2188714D01*
X6552857Y-2174429D01*
X6538571Y-2145857D01*
X6538571Y-2131572D01*
X6552857Y-2103000D01*
X6581428Y-2088714D01*
X6624286Y-2088714D01*
X6652857Y-2103000D01*
X6767143Y-2403000D02*
X6781428Y-2388714D01*
X6810000Y-2345857D01*
X6824286Y-2317286D01*
X6838571Y-2274429D01*
X6852857Y-2203000D01*
X6852857Y-2145857D01*
X6838571Y-2074429D01*
X6824286Y-2031571D01*
X6810000Y-2003000D01*
X6781428Y-1960143D01*
X6767143Y-1945857D01*
X-60000Y-2604000D02*
X-5000Y-2549000D01*
X-60000Y-2494000D01*
X-115000Y-2549000D01*
X-60000Y-2604000D01*
X438571Y-2684714D02*
X267143Y-2684714D01*
X352857Y-2684714D02*
X352857Y-2384714D01*
X324286Y-2427572D01*
X295714Y-2456143D01*
X267143Y-2470429D01*
X567143Y-2656143D02*
X581428Y-2670429D01*
X567143Y-2684714D01*
X552857Y-2670429D01*
X567143Y-2656143D01*
X567143Y-2684714D01*
X867143Y-2684714D02*
X695714Y-2684714D01*
X781428Y-2684714D02*
X781428Y-2384714D01*
X752857Y-2427572D01*
X724286Y-2456143D01*
X695714Y-2470429D01*
X1052857Y-2384714D02*
X1081428Y-2384714D01*
X1110000Y-2399000D01*
X1124286Y-2413286D01*
X1138571Y-2441857D01*
X1152857Y-2499000D01*
X1152857Y-2570429D01*
X1138571Y-2627572D01*
X1124286Y-2656143D01*
X1110000Y-2670429D01*
X1081428Y-2684714D01*
X1052857Y-2684714D01*
X1024286Y-2670429D01*
X1010000Y-2656143D01*
X995714Y-2627572D01*
X981428Y-2570429D01*
X981428Y-2499000D01*
X995714Y-2441857D01*
X1010000Y-2413286D01*
X1024286Y-2399000D01*
X1052857Y-2384714D01*
X1281428Y-2684714D02*
X1281428Y-2484714D01*
X1281428Y-2513286D02*
X1295714Y-2499000D01*
X1324286Y-2484714D01*
X1367143Y-2484714D01*
X1395714Y-2499000D01*
X1410000Y-2527572D01*
X1410000Y-2684714D01*
X1410000Y-2527572D02*
X1424286Y-2499000D01*
X1452857Y-2484714D01*
X1495714Y-2484714D01*
X1524286Y-2499000D01*
X1538571Y-2527572D01*
X1538571Y-2684714D01*
X1681428Y-2684714D02*
X1681428Y-2484714D01*
X1681428Y-2513286D02*
X1695714Y-2499000D01*
X1724286Y-2484714D01*
X1767143Y-2484714D01*
X1795714Y-2499000D01*
X1810000Y-2527572D01*
X1810000Y-2684714D01*
X1810000Y-2527572D02*
X1824286Y-2499000D01*
X1852857Y-2484714D01*
X1895714Y-2484714D01*
X1924286Y-2499000D01*
X1938571Y-2527572D01*
X1938571Y-2684714D01*
X2524286Y-2370429D02*
X2267143Y-2756143D01*
X2910000Y-2384714D02*
X2938571Y-2384714D01*
X2967143Y-2399000D01*
X2981428Y-2413286D01*
X2995714Y-2441857D01*
X3010000Y-2499000D01*
X3010000Y-2570429D01*
X2995714Y-2627572D01*
X2981428Y-2656143D01*
X2967143Y-2670429D01*
X2938571Y-2684714D01*
X2910000Y-2684714D01*
X2881428Y-2670429D01*
X2867143Y-2656143D01*
X2852857Y-2627572D01*
X2838571Y-2570429D01*
X2838571Y-2499000D01*
X2852857Y-2441857D01*
X2867143Y-2413286D01*
X2881428Y-2399000D01*
X2910000Y-2384714D01*
X3138571Y-2656143D02*
X3152857Y-2670429D01*
X3138571Y-2684714D01*
X3124286Y-2670429D01*
X3138571Y-2656143D01*
X3138571Y-2684714D01*
X3338571Y-2384714D02*
X3367143Y-2384714D01*
X3395714Y-2399000D01*
X3410000Y-2413286D01*
X3424286Y-2441857D01*
X3438571Y-2499000D01*
X3438571Y-2570429D01*
X3424286Y-2627572D01*
X3410000Y-2656143D01*
X3395714Y-2670429D01*
X3367143Y-2684714D01*
X3338571Y-2684714D01*
X3310000Y-2670429D01*
X3295714Y-2656143D01*
X3281428Y-2627572D01*
X3267143Y-2570429D01*
X3267143Y-2499000D01*
X3281428Y-2441857D01*
X3295714Y-2413286D01*
X3310000Y-2399000D01*
X3338571Y-2384714D01*
X3695714Y-2484714D02*
X3695714Y-2684714D01*
X3624286Y-2370429D02*
X3552857Y-2584714D01*
X3738571Y-2584714D01*
X3824286Y-2384714D02*
X4010000Y-2384714D01*
X3910000Y-2499000D01*
X3952857Y-2499000D01*
X3981428Y-2513286D01*
X3995714Y-2527572D01*
X4010000Y-2556143D01*
X4010000Y-2627572D01*
X3995714Y-2656143D01*
X3981428Y-2670429D01*
X3952857Y-2684714D01*
X3867143Y-2684714D01*
X3838571Y-2670429D01*
X3824286Y-2656143D01*
X4124286Y-2384714D02*
X4124286Y-2441857D01*
X4238571Y-2384714D02*
X4238571Y-2441857D01*
X4681428Y-2799000D02*
X4667143Y-2784714D01*
X4638571Y-2741857D01*
X4624286Y-2713286D01*
X4610000Y-2670429D01*
X4595714Y-2599000D01*
X4595714Y-2541857D01*
X4610000Y-2470429D01*
X4624286Y-2427572D01*
X4638571Y-2399000D01*
X4667143Y-2356143D01*
X4681428Y-2341857D01*
X4952857Y-2684714D02*
X4781428Y-2684714D01*
X4867143Y-2684714D02*
X4867143Y-2384714D01*
X4838571Y-2427572D01*
X4810000Y-2456143D01*
X4781428Y-2470429D01*
X5238571Y-2684714D02*
X5067143Y-2684714D01*
X5152857Y-2684714D02*
X5152857Y-2384714D01*
X5124286Y-2427572D01*
X5095714Y-2456143D01*
X5067143Y-2470429D01*
X5595714Y-2684714D02*
X5595714Y-2384714D01*
X5724286Y-2684714D02*
X5724286Y-2527572D01*
X5710000Y-2499000D01*
X5681428Y-2484714D01*
X5638571Y-2484714D01*
X5610000Y-2499000D01*
X5595714Y-2513286D01*
X5910000Y-2684714D02*
X5881428Y-2670429D01*
X5867143Y-2656143D01*
X5852857Y-2627572D01*
X5852857Y-2541857D01*
X5867143Y-2513286D01*
X5881428Y-2499000D01*
X5910000Y-2484714D01*
X5952857Y-2484714D01*
X5981428Y-2499000D01*
X5995714Y-2513286D01*
X6010000Y-2541857D01*
X6010000Y-2627572D01*
X5995714Y-2656143D01*
X5981428Y-2670429D01*
X5952857Y-2684714D01*
X5910000Y-2684714D01*
X6181428Y-2684714D02*
X6152857Y-2670429D01*
X6138571Y-2641857D01*
X6138571Y-2384714D01*
X6410000Y-2670429D02*
X6381428Y-2684714D01*
X6324286Y-2684714D01*
X6295714Y-2670429D01*
X6281428Y-2641857D01*
X6281428Y-2527572D01*
X6295714Y-2499000D01*
X6324286Y-2484714D01*
X6381428Y-2484714D01*
X6410000Y-2499000D01*
X6424286Y-2527572D01*
X6424286Y-2556143D01*
X6281428Y-2584714D01*
X6538571Y-2670429D02*
X6567143Y-2684714D01*
X6624286Y-2684714D01*
X6652857Y-2670429D01*
X6667143Y-2641857D01*
X6667143Y-2627572D01*
X6652857Y-2599000D01*
X6624286Y-2584714D01*
X6581428Y-2584714D01*
X6552857Y-2570429D01*
X6538571Y-2541857D01*
X6538571Y-2527572D01*
X6552857Y-2499000D01*
X6581428Y-2484714D01*
X6624286Y-2484714D01*
X6652857Y-2499000D01*
X6767143Y-2799000D02*
X6781428Y-2784714D01*
X6810000Y-2741857D01*
X6824286Y-2713286D01*
X6838571Y-2670429D01*
X6852857Y-2599000D01*
X6852857Y-2541857D01*
X6838571Y-2470429D01*
X6824286Y-2427572D01*
X6810000Y-2399000D01*
X6781428Y-2356143D01*
X6767143Y-2341857D01*
M02*
