M48
; DRILL file {KiCad 5.1.5+dfsg1-2build2} date Wed 06 Jan 2021 03:03:15 PM JST
; FORMAT={-:-/ absolute / metric / decimal}
; #@! TF.CreationDate,2021-01-06T15:03:15+09:00
; #@! TF.GenerationSoftware,Kicad,Pcbnew,5.1.5+dfsg1-2build2
; #@! TF.FileFunction,Plated,1,2,PTH
FMAT,2
METRIC
T1C0.800
T2C1.000
T3C1.016
T4C1.200
%
G90
G05
T1
X-23.495Y-23.245
X-23.495Y-25.15
X-23.495Y-27.055
X-20.955Y-77.855
X-17.78Y-26.42
X-17.145Y-79.76
X-15.24Y-31.5
X-15.24Y-48.01
X-15.24Y-52.455
X-14.605Y-38.485
X-13.97Y-77.855
X-10.16Y-26.42
X-10.16Y-54.36
X-10.16Y-62.615
X-9.525Y-72.14
X-9.525Y-83.57
X-5.08Y-6.1
X-2.54Y-34.04
X-0.635Y-23.245
X-0.635Y-25.15
X-0.635Y-27.055
X-0.635Y-41.025
X-0.635Y-42.93
X-0.635Y-44.835
X0.0Y-8.64
X1.905Y-63.885
X1.905Y-80.395
X2.54Y-74.68
X2.54Y-77.22
X3.175Y-41.66
X3.175Y-45.47
X3.175Y-50.55
X6.35Y-88.015
X6.985Y-43.565
X7.62Y-1.02
X7.62Y-8.64
X7.62Y-83.57
X8.255Y-74.045
X10.16Y-23.88
X13.97Y-75.95
X15.24Y-1.02
X15.24Y-8.64
X15.24Y-16.26
X15.24Y-44.2
X15.24Y-88.015
X17.145Y-75.95
X20.955Y-88.015
X22.86Y-1.02
X22.86Y-8.64
X22.86Y-16.26
X22.86Y-36.58
X25.4Y-83.57
X29.845Y-88.65
X30.48Y-1.02
X30.48Y-8.64
X33.02Y-28.96
X33.02Y-36.58
X38.1Y-1.02
X38.1Y-8.64
X40.64Y-28.96
X40.64Y-36.58
X45.72Y-1.02
X45.72Y-8.64
X48.26Y-28.96
X53.34Y-1.02
X53.34Y-8.64
X55.88Y-28.96
X60.96Y-1.02
X60.96Y-8.64
X63.5Y-28.96
X68.58Y-8.64
X71.12Y-28.96
X73.66Y-3.56
X76.2Y-11.18
X76.2Y-18.8
X76.2Y-26.42
T2
X3.175Y-37.85
X5.715Y-37.85
X32.385Y-43.565
X34.925Y-43.565
X37.465Y-43.565
X40.005Y-43.565
X42.545Y-43.565
X45.085Y-43.565
X47.625Y-43.565
X50.165Y-43.565
X55.245Y-43.565
X57.785Y-43.565
X60.325Y-43.565
X62.865Y-43.565
X65.405Y-43.565
X67.945Y-43.565
X70.485Y-43.565
X73.025Y-43.565
X1.27Y-58.17
X-17.145Y-42.93
X9.525Y-37.85
X80.01Y-95.635
X6.985Y-55.63
X6.985Y-58.17
X79.375Y-51.185
X70.485Y-39.755
X79.375Y-55.63
X79.375Y-58.17
T3
X69.85Y-63.885
X69.85Y-66.425
X69.85Y-68.965
X8.89Y-89.92
X11.43Y-89.92
X13.97Y-61.98
X16.51Y-61.98
X19.05Y-61.98
X21.59Y-61.98
X24.13Y-61.98
X26.67Y-61.98
X36.83Y-61.98
X39.37Y-61.98
X41.91Y-61.98
X44.45Y-61.98
X46.99Y-61.98
X46.99Y-89.92
X49.53Y-61.98
X49.53Y-89.92
X52.07Y-89.92
X54.61Y-61.98
X54.61Y-89.92
X57.15Y-89.92
X23.495Y-43.565
X23.495Y-46.105
X23.495Y-48.645
T4
X71.12Y-81.665
X71.12Y-86.745
X29.845Y-66.425
X34.925Y-66.425
X-8.89Y-48.645
X-6.35Y-48.645
X-3.81Y-48.645
X-8.255Y-88.65
X-3.175Y-88.65
X64.77Y-67.06
X64.77Y-72.14
T2
G00X-2.125Y-18.6
M15
G01X-2.125Y-17.8
M16
G05
G00X72.125Y-18.6
M15
G01X72.125Y-17.8
M16
G05
T0
M30
