G04 #@! TF.GenerationSoftware,KiCad,Pcbnew,5.1.5+dfsg1-2build2*
G04 #@! TF.CreationDate,2021-03-18T18:13:08+09:00*
G04 #@! TF.ProjectId,puck,7075636b-2e6b-4696-9361-645f70636258,rev?*
G04 #@! TF.SameCoordinates,Original*
G04 #@! TF.FileFunction,Other,User*
%FSLAX46Y46*%
G04 Gerber Fmt 4.6, Leading zero omitted, Abs format (unit mm)*
G04 Created by KiCad (PCBNEW 5.1.5+dfsg1-2build2) date 2021-03-18 18:13:08*
%MOMM*%
%LPD*%
G04 APERTURE LIST*
%ADD10C,0.050000*%
G04 APERTURE END LIST*
D10*
X124600000Y-145200000D02*
G75*
G03X124600000Y-145200000I-2450000J0D01*
G01*
X140100000Y-97200000D02*
G75*
G03X140100000Y-97200000I-2450000J0D01*
G01*
X112400000Y-108900000D02*
G75*
G03X112400000Y-108900000I-2450000J0D01*
G01*
X111715000Y-104500000D02*
X104385000Y-104500000D01*
X111715000Y-99100000D02*
X104385000Y-99100000D01*
X111715000Y-104500000D02*
X111715000Y-99100000D01*
X104385000Y-104500000D02*
X104385000Y-99100000D01*
X111715000Y-98900000D02*
X104385000Y-98900000D01*
X111715000Y-93500000D02*
X104385000Y-93500000D01*
X111715000Y-98900000D02*
X111715000Y-93500000D01*
X104385000Y-98900000D02*
X104385000Y-93500000D01*
X131358518Y-125774728D02*
G75*
G03X131358518Y-125774728I-1500000J0D01*
G01*
X130950000Y-113900000D02*
G75*
G03X130950000Y-113900000I-1500000J0D01*
G01*
X139358518Y-116574728D02*
G75*
G03X139358518Y-116574728I-1500000J0D01*
G01*
X129650000Y-123200000D02*
G75*
G03X129650000Y-123200000I-1500000J0D01*
G01*
X143158518Y-129174728D02*
G75*
G03X143158518Y-129174728I-1500000J0D01*
G01*
X141158517Y-119974728D02*
G75*
G03X141158517Y-119974728I-1500000J0D01*
G01*
X133450000Y-110000000D02*
G75*
G03X133450000Y-110000000I-1500000J0D01*
G01*
X136008518Y-116169729D02*
X136008518Y-123979729D01*
X130508518Y-116169729D02*
X130508518Y-123979729D01*
X136008518Y-116169729D02*
X130508518Y-116169729D01*
X136008518Y-123979729D02*
X130508518Y-123979729D01*
X117540000Y-123485000D02*
X117540000Y-119315000D01*
X117540000Y-119315000D02*
X121060000Y-119315000D01*
X121060000Y-119315000D02*
X121060000Y-123485000D01*
X121060000Y-123485000D02*
X117540000Y-123485000D01*
X131295000Y-114644728D02*
X134255000Y-114644728D01*
X131295000Y-116104728D02*
X131295000Y-114644728D01*
X134255000Y-116104728D02*
X131295000Y-116104728D01*
X134255000Y-114644728D02*
X134255000Y-116104728D01*
X134738518Y-125504729D02*
X131778518Y-125504729D01*
X134738518Y-124044729D02*
X134738518Y-125504729D01*
X131778518Y-124044729D02*
X134738518Y-124044729D01*
X131778518Y-125504729D02*
X131778518Y-124044729D01*
X132680000Y-111620000D02*
X132680000Y-114580000D01*
X131220000Y-111620000D02*
X132680000Y-111620000D01*
X131220000Y-114580000D02*
X131220000Y-111620000D01*
X132680000Y-114580000D02*
X131220000Y-114580000D01*
X137588518Y-118669728D02*
X137588518Y-121629728D01*
X136128518Y-118669728D02*
X137588518Y-118669728D01*
X136128518Y-121629728D02*
X136128518Y-118669728D01*
X137588518Y-121629728D02*
X136128518Y-121629728D01*
X131720000Y-128555000D02*
X131720000Y-125595000D01*
X133180000Y-128555000D02*
X131720000Y-128555000D01*
X133180000Y-125595000D02*
X133180000Y-128555000D01*
X131720000Y-125595000D02*
X133180000Y-125595000D01*
X108130000Y-118290000D02*
X108130000Y-112710000D01*
X122610000Y-118290000D02*
X108130000Y-118290000D01*
X122610000Y-112710000D02*
X122610000Y-118290000D01*
X108130000Y-112710000D02*
X122610000Y-112710000D01*
X114470000Y-132510000D02*
X114470000Y-138090000D01*
X99990000Y-132510000D02*
X114470000Y-132510000D01*
X99990000Y-138090000D02*
X99990000Y-132510000D01*
X114470000Y-138090000D02*
X99990000Y-138090000D01*
X136138518Y-121784728D02*
X150618518Y-121784728D01*
X150618518Y-121784728D02*
X150618518Y-127364728D01*
X150618518Y-127364728D02*
X136138518Y-127364728D01*
X136138518Y-127364728D02*
X136138518Y-121784728D01*
X114470000Y-126510000D02*
X114470000Y-132090000D01*
X99990000Y-126510000D02*
X114470000Y-126510000D01*
X99990000Y-132090000D02*
X99990000Y-126510000D01*
X114470000Y-132090000D02*
X99990000Y-132090000D01*
X117250000Y-126400000D02*
X117250000Y-118400000D01*
X113450000Y-126400000D02*
X117250000Y-126400000D01*
X113450000Y-118400000D02*
X113450000Y-126400000D01*
X117250000Y-118400000D02*
X113450000Y-118400000D01*
X108350000Y-120250000D02*
X108350000Y-122550000D01*
X113050000Y-122550000D02*
X108350000Y-122550000D01*
X113050000Y-120250000D02*
X113050000Y-122550000D01*
X108350000Y-120250000D02*
X113050000Y-120250000D01*
X143870000Y-114900000D02*
X143870000Y-108100000D01*
X143870000Y-108100000D02*
X134430000Y-108100000D01*
X134430000Y-108100000D02*
X134430000Y-114900000D01*
X134430000Y-114900000D02*
X143870000Y-114900000D01*
X93300000Y-105700000D02*
X93300000Y-112500000D01*
X93300000Y-112500000D02*
X106500000Y-112500000D01*
X106500000Y-112500000D02*
X106500000Y-105700000D01*
X106500000Y-105700000D02*
X93300000Y-105700000D01*
X121080000Y-123822500D02*
X121080000Y-126782500D01*
X119620000Y-123822500D02*
X121080000Y-123822500D01*
X119620000Y-126782500D02*
X119620000Y-123822500D01*
X121080000Y-126782500D02*
X119620000Y-126782500D01*
X117620000Y-126477500D02*
X117620000Y-123517500D01*
X119080000Y-126477500D02*
X117620000Y-126477500D01*
X119080000Y-123517500D02*
X119080000Y-126477500D01*
X117620000Y-123517500D02*
X119080000Y-123517500D01*
X110927500Y-125630000D02*
X107967500Y-125630000D01*
X110927500Y-124170000D02*
X110927500Y-125630000D01*
X107967500Y-124170000D02*
X110927500Y-124170000D01*
X107967500Y-125630000D02*
X107967500Y-124170000D01*
X111467500Y-124130000D02*
X108507500Y-124130000D01*
X111467500Y-122670000D02*
X111467500Y-124130000D01*
X108507500Y-122670000D02*
X111467500Y-122670000D01*
X108507500Y-124130000D02*
X108507500Y-122670000D01*
X110007500Y-118670000D02*
X112967500Y-118670000D01*
X110007500Y-120130000D02*
X110007500Y-118670000D01*
X112967500Y-120130000D02*
X110007500Y-120130000D01*
X112967500Y-118670000D02*
X112967500Y-120130000D01*
X127420000Y-121654728D02*
X127420000Y-118694728D01*
X128880000Y-121654728D02*
X127420000Y-121654728D01*
X128880000Y-118694728D02*
X128880000Y-121654728D01*
X127420000Y-118694728D02*
X128880000Y-118694728D01*
X128928518Y-121654728D02*
X128928518Y-118694728D01*
X130388518Y-121654728D02*
X128928518Y-121654728D01*
X130388518Y-118694728D02*
X130388518Y-121654728D01*
X128928518Y-118694728D02*
X130388518Y-118694728D01*
X127100000Y-129050000D02*
X139600000Y-129050000D01*
X127100000Y-136550000D02*
X127100000Y-129050000D01*
X139600000Y-136550000D02*
X127100000Y-136550000D01*
X139600000Y-129050000D02*
X139600000Y-136550000D01*
M02*
