G04 #@! TF.GenerationSoftware,KiCad,Pcbnew,5.1.5+dfsg1-2build2*
G04 #@! TF.CreationDate,2021-03-18T18:12:21+09:00*
G04 #@! TF.ProjectId,puck,7075636b-2e6b-4696-9361-645f70636258,rev?*
G04 #@! TF.SameCoordinates,Original*
G04 #@! TF.FileFunction,Legend,Top*
G04 #@! TF.FilePolarity,Positive*
%FSLAX46Y46*%
G04 Gerber Fmt 4.6, Leading zero omitted, Abs format (unit mm)*
G04 Created by KiCad (PCBNEW 5.1.5+dfsg1-2build2) date 2021-03-18 18:12:21*
%MOMM*%
%LPD*%
G04 APERTURE LIST*
%ADD10C,0.150000*%
%ADD11C,0.200000*%
%ADD12C,0.127000*%
%ADD13C,0.120000*%
%ADD14C,0.160000*%
%ADD15C,0.066040*%
%ADD16C,0.100000*%
%ADD17C,0.015000*%
%ADD18C,0.101600*%
G04 APERTURE END LIST*
D10*
X131661904Y-107852380D02*
X131661904Y-106852380D01*
X132090476Y-107804761D02*
X132233333Y-107852380D01*
X132471428Y-107852380D01*
X132566666Y-107804761D01*
X132614285Y-107757142D01*
X132661904Y-107661904D01*
X132661904Y-107566666D01*
X132614285Y-107471428D01*
X132566666Y-107423809D01*
X132471428Y-107376190D01*
X132280952Y-107328571D01*
X132185714Y-107280952D01*
X132138095Y-107233333D01*
X132090476Y-107138095D01*
X132090476Y-107042857D01*
X132138095Y-106947619D01*
X132185714Y-106900000D01*
X132280952Y-106852380D01*
X132519047Y-106852380D01*
X132661904Y-106900000D01*
X132852380Y-107947619D02*
X133614285Y-107947619D01*
X134423809Y-107852380D02*
X134090476Y-107376190D01*
X133852380Y-107852380D02*
X133852380Y-106852380D01*
X134233333Y-106852380D01*
X134328571Y-106900000D01*
X134376190Y-106947619D01*
X134423809Y-107042857D01*
X134423809Y-107185714D01*
X134376190Y-107280952D01*
X134328571Y-107328571D01*
X134233333Y-107376190D01*
X133852380Y-107376190D01*
X134852380Y-107328571D02*
X135185714Y-107328571D01*
X135328571Y-107852380D02*
X134852380Y-107852380D01*
X134852380Y-106852380D01*
X135328571Y-106852380D01*
X136090476Y-107328571D02*
X135757142Y-107328571D01*
X135757142Y-107852380D02*
X135757142Y-106852380D01*
X136233333Y-106852380D01*
X122938095Y-123652380D02*
X122938095Y-122652380D01*
X123366666Y-123604761D02*
X123509523Y-123652380D01*
X123747619Y-123652380D01*
X123842857Y-123604761D01*
X123890476Y-123557142D01*
X123938095Y-123461904D01*
X123938095Y-123366666D01*
X123890476Y-123271428D01*
X123842857Y-123223809D01*
X123747619Y-123176190D01*
X123557142Y-123128571D01*
X123461904Y-123080952D01*
X123414285Y-123033333D01*
X123366666Y-122938095D01*
X123366666Y-122842857D01*
X123414285Y-122747619D01*
X123461904Y-122700000D01*
X123557142Y-122652380D01*
X123795238Y-122652380D01*
X123938095Y-122700000D01*
X124128571Y-123747619D02*
X124890476Y-123747619D01*
X124985714Y-122652380D02*
X125319047Y-123652380D01*
X125652380Y-122652380D01*
X125938095Y-123604761D02*
X126080952Y-123652380D01*
X126319047Y-123652380D01*
X126414285Y-123604761D01*
X126461904Y-123557142D01*
X126509523Y-123461904D01*
X126509523Y-123366666D01*
X126461904Y-123271428D01*
X126414285Y-123223809D01*
X126319047Y-123176190D01*
X126128571Y-123128571D01*
X126033333Y-123080952D01*
X125985714Y-123033333D01*
X125938095Y-122938095D01*
X125938095Y-122842857D01*
X125985714Y-122747619D01*
X126033333Y-122700000D01*
X126128571Y-122652380D01*
X126366666Y-122652380D01*
X126509523Y-122700000D01*
X123514285Y-126252380D02*
X123514285Y-125252380D01*
X123942857Y-126204761D02*
X124085714Y-126252380D01*
X124323809Y-126252380D01*
X124419047Y-126204761D01*
X124466666Y-126157142D01*
X124514285Y-126061904D01*
X124514285Y-125966666D01*
X124466666Y-125871428D01*
X124419047Y-125823809D01*
X124323809Y-125776190D01*
X124133333Y-125728571D01*
X124038095Y-125680952D01*
X123990476Y-125633333D01*
X123942857Y-125538095D01*
X123942857Y-125442857D01*
X123990476Y-125347619D01*
X124038095Y-125300000D01*
X124133333Y-125252380D01*
X124371428Y-125252380D01*
X124514285Y-125300000D01*
X124704761Y-126347619D02*
X125466666Y-126347619D01*
X125895238Y-125252380D02*
X126085714Y-125252380D01*
X126180952Y-125300000D01*
X126276190Y-125395238D01*
X126323809Y-125585714D01*
X126323809Y-125919047D01*
X126276190Y-126109523D01*
X126180952Y-126204761D01*
X126085714Y-126252380D01*
X125895238Y-126252380D01*
X125800000Y-126204761D01*
X125704761Y-126109523D01*
X125657142Y-125919047D01*
X125657142Y-125585714D01*
X125704761Y-125395238D01*
X125800000Y-125300000D01*
X125895238Y-125252380D01*
X126752380Y-125252380D02*
X126752380Y-126061904D01*
X126800000Y-126157142D01*
X126847619Y-126204761D01*
X126942857Y-126252380D01*
X127133333Y-126252380D01*
X127228571Y-126204761D01*
X127276190Y-126157142D01*
X127323809Y-126061904D01*
X127323809Y-125252380D01*
X127657142Y-125252380D02*
X128228571Y-125252380D01*
X127942857Y-126252380D02*
X127942857Y-125252380D01*
X141561904Y-131952380D02*
X141561904Y-130952380D01*
X141990476Y-131904761D02*
X142133333Y-131952380D01*
X142371428Y-131952380D01*
X142466666Y-131904761D01*
X142514285Y-131857142D01*
X142561904Y-131761904D01*
X142561904Y-131666666D01*
X142514285Y-131571428D01*
X142466666Y-131523809D01*
X142371428Y-131476190D01*
X142180952Y-131428571D01*
X142085714Y-131380952D01*
X142038095Y-131333333D01*
X141990476Y-131238095D01*
X141990476Y-131142857D01*
X142038095Y-131047619D01*
X142085714Y-131000000D01*
X142180952Y-130952380D01*
X142419047Y-130952380D01*
X142561904Y-131000000D01*
X142752380Y-132047619D02*
X143514285Y-132047619D01*
X143752380Y-131952380D02*
X143752380Y-130952380D01*
X144228571Y-131952380D02*
X144228571Y-130952380D01*
X144800000Y-131952380D01*
X144800000Y-130952380D01*
X145276190Y-131571428D02*
X146038095Y-131571428D01*
X145657142Y-131952380D02*
X145657142Y-131190476D01*
X146261904Y-128652380D02*
X146261904Y-127652380D01*
X146690476Y-128604761D02*
X146833333Y-128652380D01*
X147071428Y-128652380D01*
X147166666Y-128604761D01*
X147214285Y-128557142D01*
X147261904Y-128461904D01*
X147261904Y-128366666D01*
X147214285Y-128271428D01*
X147166666Y-128223809D01*
X147071428Y-128176190D01*
X146880952Y-128128571D01*
X146785714Y-128080952D01*
X146738095Y-128033333D01*
X146690476Y-127938095D01*
X146690476Y-127842857D01*
X146738095Y-127747619D01*
X146785714Y-127700000D01*
X146880952Y-127652380D01*
X147119047Y-127652380D01*
X147261904Y-127700000D01*
X147452380Y-128747619D02*
X148214285Y-128747619D01*
X148452380Y-128652380D02*
X148452380Y-127652380D01*
X148928571Y-128652380D02*
X148928571Y-127652380D01*
X149500000Y-128652380D01*
X149500000Y-127652380D01*
X149976190Y-128271428D02*
X150738095Y-128271428D01*
X150357142Y-128652380D02*
X150357142Y-127890476D01*
X124733333Y-112252380D02*
X124733333Y-111252380D01*
X125161904Y-112204761D02*
X125304761Y-112252380D01*
X125542857Y-112252380D01*
X125638095Y-112204761D01*
X125685714Y-112157142D01*
X125733333Y-112061904D01*
X125733333Y-111966666D01*
X125685714Y-111871428D01*
X125638095Y-111823809D01*
X125542857Y-111776190D01*
X125352380Y-111728571D01*
X125257142Y-111680952D01*
X125209523Y-111633333D01*
X125161904Y-111538095D01*
X125161904Y-111442857D01*
X125209523Y-111347619D01*
X125257142Y-111300000D01*
X125352380Y-111252380D01*
X125590476Y-111252380D01*
X125733333Y-111300000D01*
X125923809Y-112347619D02*
X126685714Y-112347619D01*
X126780952Y-111252380D02*
X127114285Y-112252380D01*
X127447619Y-111252380D01*
X127780952Y-112252380D02*
X127780952Y-111252380D01*
X128257142Y-112252380D02*
X128257142Y-111252380D01*
X128828571Y-112252380D01*
X128828571Y-111252380D01*
X129304761Y-111871428D02*
X130066666Y-111871428D01*
X139561904Y-117052380D02*
X139561904Y-116052380D01*
X139990476Y-117004761D02*
X140133333Y-117052380D01*
X140371428Y-117052380D01*
X140466666Y-117004761D01*
X140514285Y-116957142D01*
X140561904Y-116861904D01*
X140561904Y-116766666D01*
X140514285Y-116671428D01*
X140466666Y-116623809D01*
X140371428Y-116576190D01*
X140180952Y-116528571D01*
X140085714Y-116480952D01*
X140038095Y-116433333D01*
X139990476Y-116338095D01*
X139990476Y-116242857D01*
X140038095Y-116147619D01*
X140085714Y-116100000D01*
X140180952Y-116052380D01*
X140419047Y-116052380D01*
X140561904Y-116100000D01*
X140752380Y-117147619D02*
X141514285Y-117147619D01*
X141752380Y-117052380D02*
X141752380Y-116052380D01*
X142228571Y-117052380D02*
X142228571Y-116052380D01*
X142800000Y-117052380D01*
X142800000Y-116052380D01*
X143276190Y-116671428D02*
X144038095Y-116671428D01*
X141633333Y-120352380D02*
X141633333Y-119352380D01*
X142061904Y-120304761D02*
X142204761Y-120352380D01*
X142442857Y-120352380D01*
X142538095Y-120304761D01*
X142585714Y-120257142D01*
X142633333Y-120161904D01*
X142633333Y-120066666D01*
X142585714Y-119971428D01*
X142538095Y-119923809D01*
X142442857Y-119876190D01*
X142252380Y-119828571D01*
X142157142Y-119780952D01*
X142109523Y-119733333D01*
X142061904Y-119638095D01*
X142061904Y-119542857D01*
X142109523Y-119447619D01*
X142157142Y-119400000D01*
X142252380Y-119352380D01*
X142490476Y-119352380D01*
X142633333Y-119400000D01*
X142823809Y-120447619D02*
X143585714Y-120447619D01*
X143680952Y-119352380D02*
X144014285Y-120352380D01*
X144347619Y-119352380D01*
X144680952Y-120352380D02*
X144680952Y-119352380D01*
X145157142Y-120352380D02*
X145157142Y-119352380D01*
X145728571Y-120352380D01*
X145728571Y-119352380D01*
X146204761Y-119971428D02*
X146966666Y-119971428D01*
X146585714Y-120352380D02*
X146585714Y-119590476D01*
X99052380Y-136961904D02*
X98052380Y-136961904D01*
X99004761Y-136533333D02*
X99052380Y-136390476D01*
X99052380Y-136152380D01*
X99004761Y-136057142D01*
X98957142Y-136009523D01*
X98861904Y-135961904D01*
X98766666Y-135961904D01*
X98671428Y-136009523D01*
X98623809Y-136057142D01*
X98576190Y-136152380D01*
X98528571Y-136342857D01*
X98480952Y-136438095D01*
X98433333Y-136485714D01*
X98338095Y-136533333D01*
X98242857Y-136533333D01*
X98147619Y-136485714D01*
X98100000Y-136438095D01*
X98052380Y-136342857D01*
X98052380Y-136104761D01*
X98100000Y-135961904D01*
X99147619Y-135771428D02*
X99147619Y-135009523D01*
X98052380Y-134914285D02*
X99052380Y-134580952D01*
X98052380Y-134247619D01*
X99004761Y-133961904D02*
X99052380Y-133819047D01*
X99052380Y-133580952D01*
X99004761Y-133485714D01*
X98957142Y-133438095D01*
X98861904Y-133390476D01*
X98766666Y-133390476D01*
X98671428Y-133438095D01*
X98623809Y-133485714D01*
X98576190Y-133580952D01*
X98528571Y-133771428D01*
X98480952Y-133866666D01*
X98433333Y-133914285D01*
X98338095Y-133961904D01*
X98242857Y-133961904D01*
X98147619Y-133914285D01*
X98100000Y-133866666D01*
X98052380Y-133771428D01*
X98052380Y-133533333D01*
X98100000Y-133390476D01*
X98152380Y-130838095D02*
X99152380Y-130504761D01*
X98152380Y-130171428D01*
X99152380Y-129266666D02*
X98676190Y-129600000D01*
X99152380Y-129838095D02*
X98152380Y-129838095D01*
X98152380Y-129457142D01*
X98200000Y-129361904D01*
X98247619Y-129314285D01*
X98342857Y-129266666D01*
X98485714Y-129266666D01*
X98580952Y-129314285D01*
X98628571Y-129361904D01*
X98676190Y-129457142D01*
X98676190Y-129838095D01*
X99247619Y-129076190D02*
X99247619Y-128314285D01*
X98152380Y-127885714D02*
X98152380Y-127695238D01*
X98200000Y-127600000D01*
X98295238Y-127504761D01*
X98485714Y-127457142D01*
X98819047Y-127457142D01*
X99009523Y-127504761D01*
X99104761Y-127600000D01*
X99152380Y-127695238D01*
X99152380Y-127885714D01*
X99104761Y-127980952D01*
X99009523Y-128076190D01*
X98819047Y-128123809D01*
X98485714Y-128123809D01*
X98295238Y-128076190D01*
X98200000Y-127980952D01*
X98152380Y-127885714D01*
D11*
X112355000Y-104295000D02*
G75*
G03X112355000Y-104295000I-100000J0D01*
G01*
D12*
X109975000Y-104320000D02*
X106125000Y-104320000D01*
X109975000Y-99280000D02*
X106125000Y-99280000D01*
D11*
X112355000Y-98695000D02*
G75*
G03X112355000Y-98695000I-100000J0D01*
G01*
D12*
X109975000Y-98720000D02*
X106125000Y-98720000D01*
X109975000Y-93680000D02*
X106125000Y-93680000D01*
D13*
X131058518Y-125774728D02*
G75*
G03X131058518Y-125774728I-1200000J0D01*
G01*
X130650000Y-113900000D02*
G75*
G03X130650000Y-113900000I-1200000J0D01*
G01*
X139058518Y-116574728D02*
G75*
G03X139058518Y-116574728I-1200000J0D01*
G01*
X129350000Y-123200000D02*
G75*
G03X129350000Y-123200000I-1200000J0D01*
G01*
X142858518Y-129174728D02*
G75*
G03X142858518Y-129174728I-1200000J0D01*
G01*
X140858517Y-119974728D02*
G75*
G03X140858517Y-119974728I-1200000J0D01*
G01*
X133150000Y-110000000D02*
G75*
G03X133150000Y-110000000I-1200000J0D01*
G01*
D11*
X135633518Y-115884729D02*
G75*
G03X135633518Y-115884729I-100000J0D01*
G01*
D12*
X135758518Y-118309729D02*
X135758518Y-121839729D01*
X130758518Y-121839729D02*
X130758518Y-118309729D01*
D11*
X118308000Y-123935000D02*
G75*
G03X118308000Y-123935000I-100000J0D01*
G01*
D12*
X117780000Y-122250000D02*
X117780000Y-120550000D01*
X120820000Y-122250000D02*
X120820000Y-120550000D01*
D13*
X133012258Y-114852228D02*
X132537742Y-114852228D01*
X133012258Y-115897228D02*
X132537742Y-115897228D01*
X133021260Y-125297229D02*
X133495776Y-125297229D01*
X133021260Y-124252229D02*
X133495776Y-124252229D01*
X132460000Y-113240580D02*
X132460000Y-112959420D01*
X131440000Y-113240580D02*
X131440000Y-112959420D01*
X137368518Y-120290308D02*
X137368518Y-120009148D01*
X136348518Y-120290308D02*
X136348518Y-120009148D01*
X131940000Y-126934420D02*
X131940000Y-127215580D01*
X132960000Y-126934420D02*
X132960000Y-127215580D01*
D11*
X110070000Y-112310000D02*
G75*
G03X110070000Y-112310000I-100000J0D01*
G01*
X113980000Y-118040000D02*
X113980000Y-112960000D01*
X116520000Y-118040000D02*
X116520000Y-112960000D01*
X116520000Y-118040000D02*
X113980000Y-118040000D01*
X113980000Y-112960000D02*
X116520000Y-112960000D01*
X112730000Y-138490000D02*
G75*
G03X112730000Y-138490000I-100000J0D01*
G01*
X108620000Y-132760000D02*
X108620000Y-137840000D01*
X106080000Y-132760000D02*
X106080000Y-137840000D01*
X106080000Y-132760000D02*
X108620000Y-132760000D01*
X108620000Y-137840000D02*
X106080000Y-137840000D01*
X141988518Y-122034728D02*
X144528518Y-122034728D01*
X144528518Y-127114728D02*
X141988518Y-127114728D01*
X144528518Y-127114728D02*
X144528518Y-122034728D01*
X141988518Y-127114728D02*
X141988518Y-122034728D01*
X138078518Y-121384728D02*
G75*
G03X138078518Y-121384728I-100000J0D01*
G01*
X112730000Y-132490000D02*
G75*
G03X112730000Y-132490000I-100000J0D01*
G01*
X108620000Y-126760000D02*
X108620000Y-131840000D01*
X106080000Y-126760000D02*
X106080000Y-131840000D01*
X106080000Y-126760000D02*
X108620000Y-126760000D01*
X108620000Y-131840000D02*
X106080000Y-131840000D01*
D14*
X113550000Y-120150000D02*
X113550000Y-124650000D01*
X117150000Y-120150000D02*
X117150000Y-124650000D01*
D15*
X119600000Y-91420000D02*
X124680000Y-91420000D01*
X124680000Y-91420000D02*
X124680000Y-88880000D01*
X119600000Y-88880000D02*
X124680000Y-88880000D01*
X119600000Y-91420000D02*
X119600000Y-88880000D01*
X119600000Y-108565000D02*
X125315000Y-108565000D01*
X125315000Y-108565000D02*
X125315000Y-106025000D01*
X119600000Y-106025000D02*
X125315000Y-106025000D01*
X119600000Y-108565000D02*
X119600000Y-106025000D01*
X116933000Y-90785000D02*
X118711000Y-90785000D01*
X118711000Y-90785000D02*
X118711000Y-88118000D01*
X116933000Y-88118000D02*
X118711000Y-88118000D01*
X116933000Y-90785000D02*
X116933000Y-88118000D01*
X116933000Y-94851540D02*
X118711000Y-94851540D01*
X118711000Y-94851540D02*
X118711000Y-92182000D01*
X116933000Y-92182000D02*
X118711000Y-92182000D01*
X116933000Y-94851540D02*
X116933000Y-92182000D01*
X125569000Y-94851540D02*
X127347000Y-94851540D01*
X127347000Y-94851540D02*
X127347000Y-92182000D01*
X125569000Y-92182000D02*
X127347000Y-92182000D01*
X125569000Y-94851540D02*
X125569000Y-92182000D01*
X125569000Y-90785000D02*
X127347000Y-90785000D01*
X127347000Y-90785000D02*
X127347000Y-88118000D01*
X125569000Y-88118000D02*
X127347000Y-88118000D01*
X125569000Y-90785000D02*
X125569000Y-88118000D01*
D12*
X113250000Y-109200000D02*
X131047780Y-109200000D01*
X131047780Y-109200000D02*
X131047780Y-88201820D01*
X131047780Y-88201820D02*
X113920560Y-88201820D01*
X113920560Y-88201820D02*
X113250000Y-88872380D01*
X113250000Y-88872380D02*
X113250000Y-109200000D01*
X117649280Y-86776880D02*
X126643420Y-86776880D01*
X126643420Y-86776880D02*
X126643420Y-94130180D01*
X126643420Y-94130180D02*
X117644200Y-94130180D01*
X117644200Y-94130180D02*
X117644200Y-86776880D01*
D16*
X112615000Y-91039000D02*
G75*
G03X112615000Y-91039000I-254000J0D01*
G01*
D13*
X108450000Y-120400000D02*
X112350000Y-120400000D01*
X108450000Y-122400000D02*
X112350000Y-122400000D01*
X108450000Y-120400000D02*
X108450000Y-122400000D01*
X141385000Y-112460000D02*
X141385000Y-112910000D01*
X141385000Y-112910000D02*
X140435000Y-112910000D01*
X140435000Y-112910000D02*
X140435000Y-114400000D01*
X136915000Y-112460000D02*
X136915000Y-112910000D01*
X136915000Y-112910000D02*
X137865000Y-112910000D01*
X141385000Y-108940000D02*
X141385000Y-108490000D01*
X141385000Y-108490000D02*
X136915000Y-108490000D01*
X136915000Y-108490000D02*
X136915000Y-108940000D01*
X95790000Y-108140000D02*
X95790000Y-107690000D01*
X95790000Y-107690000D02*
X96740000Y-107690000D01*
X96740000Y-107690000D02*
X96740000Y-106200000D01*
X104010000Y-108140000D02*
X104010000Y-107690000D01*
X104010000Y-107690000D02*
X103060000Y-107690000D01*
X95790000Y-111660000D02*
X95790000Y-112110000D01*
X95790000Y-112110000D02*
X104010000Y-112110000D01*
X104010000Y-112110000D02*
X104010000Y-111660000D01*
X120872500Y-125539758D02*
X120872500Y-125065242D01*
X119827500Y-125539758D02*
X119827500Y-125065242D01*
X117827500Y-124760242D02*
X117827500Y-125234758D01*
X118872500Y-124760242D02*
X118872500Y-125234758D01*
X109210242Y-125422500D02*
X109684758Y-125422500D01*
X109210242Y-124377500D02*
X109684758Y-124377500D01*
X109846920Y-123910000D02*
X110128080Y-123910000D01*
X109846920Y-122890000D02*
X110128080Y-122890000D01*
X111628080Y-118890000D02*
X111346920Y-118890000D01*
X111628080Y-119910000D02*
X111346920Y-119910000D01*
X127640000Y-120034148D02*
X127640000Y-120315308D01*
X128660000Y-120034148D02*
X128660000Y-120315308D01*
X129148518Y-120034148D02*
X129148518Y-120315308D01*
X130168518Y-120034148D02*
X130168518Y-120315308D01*
D16*
X130140000Y-129230000D02*
X130140000Y-129630000D01*
X130440000Y-129230000D02*
X130140000Y-129230000D01*
X136560000Y-129230000D02*
X136560000Y-129530000D01*
X136160000Y-129230000D02*
X136560000Y-129230000D01*
X136220000Y-136170000D02*
X136520000Y-135860000D01*
X135840000Y-136170000D02*
X136220000Y-136170000D01*
X130140000Y-136170000D02*
X130440000Y-136170000D01*
X130140000Y-135870000D02*
X130140000Y-136170000D01*
X136520000Y-135860000D02*
X137020000Y-135860000D01*
D10*
X107954761Y-105847619D02*
X107859523Y-105800000D01*
X107764285Y-105704761D01*
X107621428Y-105561904D01*
X107526190Y-105514285D01*
X107430952Y-105514285D01*
X107478571Y-105752380D02*
X107383333Y-105704761D01*
X107288095Y-105609523D01*
X107240476Y-105419047D01*
X107240476Y-105085714D01*
X107288095Y-104895238D01*
X107383333Y-104800000D01*
X107478571Y-104752380D01*
X107669047Y-104752380D01*
X107764285Y-104800000D01*
X107859523Y-104895238D01*
X107907142Y-105085714D01*
X107907142Y-105419047D01*
X107859523Y-105609523D01*
X107764285Y-105704761D01*
X107669047Y-105752380D01*
X107478571Y-105752380D01*
X108288095Y-104847619D02*
X108335714Y-104800000D01*
X108430952Y-104752380D01*
X108669047Y-104752380D01*
X108764285Y-104800000D01*
X108811904Y-104847619D01*
X108859523Y-104942857D01*
X108859523Y-105038095D01*
X108811904Y-105180952D01*
X108240476Y-105752380D01*
X108859523Y-105752380D01*
X108054761Y-93247619D02*
X107959523Y-93200000D01*
X107864285Y-93104761D01*
X107721428Y-92961904D01*
X107626190Y-92914285D01*
X107530952Y-92914285D01*
X107578571Y-93152380D02*
X107483333Y-93104761D01*
X107388095Y-93009523D01*
X107340476Y-92819047D01*
X107340476Y-92485714D01*
X107388095Y-92295238D01*
X107483333Y-92200000D01*
X107578571Y-92152380D01*
X107769047Y-92152380D01*
X107864285Y-92200000D01*
X107959523Y-92295238D01*
X108007142Y-92485714D01*
X108007142Y-92819047D01*
X107959523Y-93009523D01*
X107864285Y-93104761D01*
X107769047Y-93152380D01*
X107578571Y-93152380D01*
X108959523Y-93152380D02*
X108388095Y-93152380D01*
X108673809Y-93152380D02*
X108673809Y-92152380D01*
X108578571Y-92295238D01*
X108483333Y-92390476D01*
X108388095Y-92438095D01*
X134888095Y-114652380D02*
X134888095Y-115461904D01*
X134935714Y-115557142D01*
X134983333Y-115604761D01*
X135078571Y-115652380D01*
X135269047Y-115652380D01*
X135364285Y-115604761D01*
X135411904Y-115557142D01*
X135459523Y-115461904D01*
X135459523Y-114652380D01*
X135840476Y-114652380D02*
X136459523Y-114652380D01*
X136126190Y-115033333D01*
X136269047Y-115033333D01*
X136364285Y-115080952D01*
X136411904Y-115128571D01*
X136459523Y-115223809D01*
X136459523Y-115461904D01*
X136411904Y-115557142D01*
X136364285Y-115604761D01*
X136269047Y-115652380D01*
X135983333Y-115652380D01*
X135888095Y-115604761D01*
X135840476Y-115557142D01*
D17*
X121162380Y-120849523D02*
X121162380Y-121367619D01*
X121192857Y-121428571D01*
X121223333Y-121459047D01*
X121284285Y-121489523D01*
X121406190Y-121489523D01*
X121467142Y-121459047D01*
X121497619Y-121428571D01*
X121528095Y-121367619D01*
X121528095Y-120849523D01*
X122168095Y-121489523D02*
X121802380Y-121489523D01*
X121985238Y-121489523D02*
X121985238Y-120849523D01*
X121924285Y-120940952D01*
X121863333Y-121001904D01*
X121802380Y-121032380D01*
D10*
X130233333Y-115902380D02*
X129900000Y-115426190D01*
X129661904Y-115902380D02*
X129661904Y-114902380D01*
X130042857Y-114902380D01*
X130138095Y-114950000D01*
X130185714Y-114997619D01*
X130233333Y-115092857D01*
X130233333Y-115235714D01*
X130185714Y-115330952D01*
X130138095Y-115378571D01*
X130042857Y-115426190D01*
X129661904Y-115426190D01*
X131138095Y-114902380D02*
X130661904Y-114902380D01*
X130614285Y-115378571D01*
X130661904Y-115330952D01*
X130757142Y-115283333D01*
X130995238Y-115283333D01*
X131090476Y-115330952D01*
X131138095Y-115378571D01*
X131185714Y-115473809D01*
X131185714Y-115711904D01*
X131138095Y-115807142D01*
X131090476Y-115854761D01*
X130995238Y-115902380D01*
X130757142Y-115902380D01*
X130661904Y-115854761D01*
X130614285Y-115807142D01*
X134233333Y-126652380D02*
X133900000Y-126176190D01*
X133661904Y-126652380D02*
X133661904Y-125652380D01*
X134042857Y-125652380D01*
X134138095Y-125700000D01*
X134185714Y-125747619D01*
X134233333Y-125842857D01*
X134233333Y-125985714D01*
X134185714Y-126080952D01*
X134138095Y-126128571D01*
X134042857Y-126176190D01*
X133661904Y-126176190D01*
X135090476Y-125985714D02*
X135090476Y-126652380D01*
X134852380Y-125604761D02*
X134614285Y-126319047D01*
X135233333Y-126319047D01*
X133857142Y-113266666D02*
X133904761Y-113314285D01*
X133952380Y-113457142D01*
X133952380Y-113552380D01*
X133904761Y-113695238D01*
X133809523Y-113790476D01*
X133714285Y-113838095D01*
X133523809Y-113885714D01*
X133380952Y-113885714D01*
X133190476Y-113838095D01*
X133095238Y-113790476D01*
X133000000Y-113695238D01*
X132952380Y-113552380D01*
X132952380Y-113457142D01*
X133000000Y-113314285D01*
X133047619Y-113266666D01*
X132952380Y-112933333D02*
X132952380Y-112266666D01*
X133952380Y-112695238D01*
X137933333Y-118957142D02*
X137885714Y-119004761D01*
X137742857Y-119052380D01*
X137647619Y-119052380D01*
X137504761Y-119004761D01*
X137409523Y-118909523D01*
X137361904Y-118814285D01*
X137314285Y-118623809D01*
X137314285Y-118480952D01*
X137361904Y-118290476D01*
X137409523Y-118195238D01*
X137504761Y-118100000D01*
X137647619Y-118052380D01*
X137742857Y-118052380D01*
X137885714Y-118100000D01*
X137933333Y-118147619D01*
X138790476Y-118385714D02*
X138790476Y-119052380D01*
X138552380Y-118004761D02*
X138314285Y-118719047D01*
X138933333Y-118719047D01*
X134033333Y-128457142D02*
X133985714Y-128504761D01*
X133842857Y-128552380D01*
X133747619Y-128552380D01*
X133604761Y-128504761D01*
X133509523Y-128409523D01*
X133461904Y-128314285D01*
X133414285Y-128123809D01*
X133414285Y-127980952D01*
X133461904Y-127790476D01*
X133509523Y-127695238D01*
X133604761Y-127600000D01*
X133747619Y-127552380D01*
X133842857Y-127552380D01*
X133985714Y-127600000D01*
X134033333Y-127647619D01*
X134366666Y-127552380D02*
X134985714Y-127552380D01*
X134652380Y-127933333D01*
X134795238Y-127933333D01*
X134890476Y-127980952D01*
X134938095Y-128028571D01*
X134985714Y-128123809D01*
X134985714Y-128361904D01*
X134938095Y-128457142D01*
X134890476Y-128504761D01*
X134795238Y-128552380D01*
X134509523Y-128552380D01*
X134414285Y-128504761D01*
X134366666Y-128457142D01*
X106552380Y-117276190D02*
X107552380Y-116942857D01*
X106552380Y-116609523D01*
X107552380Y-115704761D02*
X107076190Y-116038095D01*
X107552380Y-116276190D02*
X106552380Y-116276190D01*
X106552380Y-115895238D01*
X106600000Y-115800000D01*
X106647619Y-115752380D01*
X106742857Y-115704761D01*
X106885714Y-115704761D01*
X106980952Y-115752380D01*
X107028571Y-115800000D01*
X107076190Y-115895238D01*
X107076190Y-116276190D01*
X107647619Y-115514285D02*
X107647619Y-114752380D01*
X107552380Y-114514285D02*
X106552380Y-114514285D01*
X107552380Y-114038095D02*
X106552380Y-114038095D01*
X107552380Y-113466666D01*
X106552380Y-113466666D01*
X115183333Y-127652380D02*
X114707142Y-127652380D01*
X114707142Y-126652380D01*
X116040476Y-127652380D02*
X115469047Y-127652380D01*
X115754761Y-127652380D02*
X115754761Y-126652380D01*
X115659523Y-126795238D01*
X115564285Y-126890476D01*
X115469047Y-126938095D01*
D18*
X121472666Y-109713166D02*
X121472666Y-110432833D01*
X121515000Y-110517500D01*
X121557333Y-110559833D01*
X121642000Y-110602166D01*
X121811333Y-110602166D01*
X121896000Y-110559833D01*
X121938333Y-110517500D01*
X121980666Y-110432833D01*
X121980666Y-109713166D01*
X122361666Y-109797833D02*
X122404000Y-109755500D01*
X122488666Y-109713166D01*
X122700333Y-109713166D01*
X122785000Y-109755500D01*
X122827333Y-109797833D01*
X122869666Y-109882500D01*
X122869666Y-109967166D01*
X122827333Y-110094166D01*
X122319333Y-110602166D01*
X122869666Y-110602166D01*
D10*
X106661904Y-121902380D02*
X106661904Y-120902380D01*
X106900000Y-120902380D01*
X107042857Y-120950000D01*
X107138095Y-121045238D01*
X107185714Y-121140476D01*
X107233333Y-121330952D01*
X107233333Y-121473809D01*
X107185714Y-121664285D01*
X107138095Y-121759523D01*
X107042857Y-121854761D01*
X106900000Y-121902380D01*
X106661904Y-121902380D01*
X108185714Y-121902380D02*
X107614285Y-121902380D01*
X107900000Y-121902380D02*
X107900000Y-120902380D01*
X107804761Y-121045238D01*
X107709523Y-121140476D01*
X107614285Y-121188095D01*
X138816666Y-106652380D02*
X138816666Y-107366666D01*
X138769047Y-107509523D01*
X138673809Y-107604761D01*
X138530952Y-107652380D01*
X138435714Y-107652380D01*
X139245238Y-106747619D02*
X139292857Y-106700000D01*
X139388095Y-106652380D01*
X139626190Y-106652380D01*
X139721428Y-106700000D01*
X139769047Y-106747619D01*
X139816666Y-106842857D01*
X139816666Y-106938095D01*
X139769047Y-107080952D01*
X139197619Y-107652380D01*
X139816666Y-107652380D01*
X99466666Y-112652380D02*
X99466666Y-113366666D01*
X99419047Y-113509523D01*
X99323809Y-113604761D01*
X99180952Y-113652380D01*
X99085714Y-113652380D01*
X100466666Y-113652380D02*
X99895238Y-113652380D01*
X100180952Y-113652380D02*
X100180952Y-112652380D01*
X100085714Y-112795238D01*
X99990476Y-112890476D01*
X99895238Y-112938095D01*
X120483333Y-128152380D02*
X120150000Y-127676190D01*
X119911904Y-128152380D02*
X119911904Y-127152380D01*
X120292857Y-127152380D01*
X120388095Y-127200000D01*
X120435714Y-127247619D01*
X120483333Y-127342857D01*
X120483333Y-127485714D01*
X120435714Y-127580952D01*
X120388095Y-127628571D01*
X120292857Y-127676190D01*
X119911904Y-127676190D01*
X120816666Y-127152380D02*
X121435714Y-127152380D01*
X121102380Y-127533333D01*
X121245238Y-127533333D01*
X121340476Y-127580952D01*
X121388095Y-127628571D01*
X121435714Y-127723809D01*
X121435714Y-127961904D01*
X121388095Y-128057142D01*
X121340476Y-128104761D01*
X121245238Y-128152380D01*
X120959523Y-128152380D01*
X120864285Y-128104761D01*
X120816666Y-128057142D01*
X117983333Y-128152380D02*
X117650000Y-127676190D01*
X117411904Y-128152380D02*
X117411904Y-127152380D01*
X117792857Y-127152380D01*
X117888095Y-127200000D01*
X117935714Y-127247619D01*
X117983333Y-127342857D01*
X117983333Y-127485714D01*
X117935714Y-127580952D01*
X117888095Y-127628571D01*
X117792857Y-127676190D01*
X117411904Y-127676190D01*
X118364285Y-127247619D02*
X118411904Y-127200000D01*
X118507142Y-127152380D01*
X118745238Y-127152380D01*
X118840476Y-127200000D01*
X118888095Y-127247619D01*
X118935714Y-127342857D01*
X118935714Y-127438095D01*
X118888095Y-127580952D01*
X118316666Y-128152380D01*
X118935714Y-128152380D01*
X106983333Y-125402380D02*
X106650000Y-124926190D01*
X106411904Y-125402380D02*
X106411904Y-124402380D01*
X106792857Y-124402380D01*
X106888095Y-124450000D01*
X106935714Y-124497619D01*
X106983333Y-124592857D01*
X106983333Y-124735714D01*
X106935714Y-124830952D01*
X106888095Y-124878571D01*
X106792857Y-124926190D01*
X106411904Y-124926190D01*
X107935714Y-125402380D02*
X107364285Y-125402380D01*
X107650000Y-125402380D02*
X107650000Y-124402380D01*
X107554761Y-124545238D01*
X107459523Y-124640476D01*
X107364285Y-124688095D01*
X107483333Y-123807142D02*
X107435714Y-123854761D01*
X107292857Y-123902380D01*
X107197619Y-123902380D01*
X107054761Y-123854761D01*
X106959523Y-123759523D01*
X106911904Y-123664285D01*
X106864285Y-123473809D01*
X106864285Y-123330952D01*
X106911904Y-123140476D01*
X106959523Y-123045238D01*
X107054761Y-122950000D01*
X107197619Y-122902380D01*
X107292857Y-122902380D01*
X107435714Y-122950000D01*
X107483333Y-122997619D01*
X107864285Y-122997619D02*
X107911904Y-122950000D01*
X108007142Y-122902380D01*
X108245238Y-122902380D01*
X108340476Y-122950000D01*
X108388095Y-122997619D01*
X108435714Y-123092857D01*
X108435714Y-123188095D01*
X108388095Y-123330952D01*
X107816666Y-123902380D01*
X108435714Y-123902380D01*
X108783333Y-119757142D02*
X108735714Y-119804761D01*
X108592857Y-119852380D01*
X108497619Y-119852380D01*
X108354761Y-119804761D01*
X108259523Y-119709523D01*
X108211904Y-119614285D01*
X108164285Y-119423809D01*
X108164285Y-119280952D01*
X108211904Y-119090476D01*
X108259523Y-118995238D01*
X108354761Y-118900000D01*
X108497619Y-118852380D01*
X108592857Y-118852380D01*
X108735714Y-118900000D01*
X108783333Y-118947619D01*
X109735714Y-119852380D02*
X109164285Y-119852380D01*
X109450000Y-119852380D02*
X109450000Y-118852380D01*
X109354761Y-118995238D01*
X109259523Y-119090476D01*
X109164285Y-119138095D01*
X126233333Y-120531870D02*
X126185714Y-120579489D01*
X126042857Y-120627108D01*
X125947619Y-120627108D01*
X125804761Y-120579489D01*
X125709523Y-120484251D01*
X125661904Y-120389013D01*
X125614285Y-120198537D01*
X125614285Y-120055680D01*
X125661904Y-119865204D01*
X125709523Y-119769966D01*
X125804761Y-119674728D01*
X125947619Y-119627108D01*
X126042857Y-119627108D01*
X126185714Y-119674728D01*
X126233333Y-119722347D01*
X127090476Y-119627108D02*
X126900000Y-119627108D01*
X126804761Y-119674728D01*
X126757142Y-119722347D01*
X126661904Y-119865204D01*
X126614285Y-120055680D01*
X126614285Y-120436632D01*
X126661904Y-120531870D01*
X126709523Y-120579489D01*
X126804761Y-120627108D01*
X126995238Y-120627108D01*
X127090476Y-120579489D01*
X127138095Y-120531870D01*
X127185714Y-120436632D01*
X127185714Y-120198537D01*
X127138095Y-120103299D01*
X127090476Y-120055680D01*
X126995238Y-120008061D01*
X126804761Y-120008061D01*
X126709523Y-120055680D01*
X126661904Y-120103299D01*
X126614285Y-120198537D01*
X129233333Y-118307142D02*
X129185714Y-118354761D01*
X129042857Y-118402380D01*
X128947619Y-118402380D01*
X128804761Y-118354761D01*
X128709523Y-118259523D01*
X128661904Y-118164285D01*
X128614285Y-117973809D01*
X128614285Y-117830952D01*
X128661904Y-117640476D01*
X128709523Y-117545238D01*
X128804761Y-117450000D01*
X128947619Y-117402380D01*
X129042857Y-117402380D01*
X129185714Y-117450000D01*
X129233333Y-117497619D01*
X130138095Y-117402380D02*
X129661904Y-117402380D01*
X129614285Y-117878571D01*
X129661904Y-117830952D01*
X129757142Y-117783333D01*
X129995238Y-117783333D01*
X130090476Y-117830952D01*
X130138095Y-117878571D01*
X130185714Y-117973809D01*
X130185714Y-118211904D01*
X130138095Y-118307142D01*
X130090476Y-118354761D01*
X129995238Y-118402380D01*
X129757142Y-118402380D01*
X129661904Y-118354761D01*
X129614285Y-118307142D01*
X133554761Y-138347619D02*
X133459523Y-138300000D01*
X133364285Y-138204761D01*
X133221428Y-138061904D01*
X133126190Y-138014285D01*
X133030952Y-138014285D01*
X133078571Y-138252380D02*
X132983333Y-138204761D01*
X132888095Y-138109523D01*
X132840476Y-137919047D01*
X132840476Y-137585714D01*
X132888095Y-137395238D01*
X132983333Y-137300000D01*
X133078571Y-137252380D01*
X133269047Y-137252380D01*
X133364285Y-137300000D01*
X133459523Y-137395238D01*
X133507142Y-137585714D01*
X133507142Y-137919047D01*
X133459523Y-138109523D01*
X133364285Y-138204761D01*
X133269047Y-138252380D01*
X133078571Y-138252380D01*
X133840476Y-137252380D02*
X134459523Y-137252380D01*
X134126190Y-137633333D01*
X134269047Y-137633333D01*
X134364285Y-137680952D01*
X134411904Y-137728571D01*
X134459523Y-137823809D01*
X134459523Y-138061904D01*
X134411904Y-138157142D01*
X134364285Y-138204761D01*
X134269047Y-138252380D01*
X133983333Y-138252380D01*
X133888095Y-138204761D01*
X133840476Y-138157142D01*
M02*
