G04 #@! TF.GenerationSoftware,KiCad,Pcbnew,5.1.5+dfsg1-2build2*
G04 #@! TF.CreationDate,2021-03-18T18:12:21+09:00*
G04 #@! TF.ProjectId,puck,7075636b-2e6b-4696-9361-645f70636258,rev?*
G04 #@! TF.SameCoordinates,Original*
G04 #@! TF.FileFunction,Copper,L1,Top*
G04 #@! TF.FilePolarity,Positive*
%FSLAX46Y46*%
G04 Gerber Fmt 4.6, Leading zero omitted, Abs format (unit mm)*
G04 Created by KiCad (PCBNEW 5.1.5+dfsg1-2build2) date 2021-03-18 18:12:21*
%MOMM*%
%LPD*%
G04 APERTURE LIST*
%ADD10C,0.100000*%
%ADD11R,1.580000X0.590000*%
%ADD12C,2.000000*%
%ADD13R,0.410000X1.570000*%
%ADD14R,0.510000X1.170000*%
%ADD15C,0.020000*%
%ADD16R,3.180000X1.270000*%
%ADD17C,1.143000*%
%ADD18O,1.016000X2.032000*%
%ADD19O,2.748280X1.998980*%
%ADD20R,0.900000X1.200000*%
%ADD21R,3.000000X1.600000*%
%ADD22R,6.200000X5.800000*%
%ADD23C,0.800000*%
%ADD24C,0.200000*%
%ADD25C,1.000000*%
%ADD26C,0.500000*%
%ADD27C,1.400000*%
%ADD28C,0.400000*%
%ADD29C,0.254000*%
G04 APERTURE END LIST*
D10*
G36*
X132175000Y-114974728D02*
G01*
X133375000Y-114974728D01*
X133375000Y-115774728D01*
X132175000Y-115774728D01*
X132175000Y-114974728D01*
G37*
X132175000Y-114974728D02*
X133375000Y-114974728D01*
X133375000Y-115774728D01*
X132175000Y-115774728D01*
X132175000Y-114974728D01*
G36*
X133858518Y-125174729D02*
G01*
X132658518Y-125174729D01*
X132658518Y-124374729D01*
X133858518Y-124374729D01*
X133858518Y-125174729D01*
G37*
X133858518Y-125174729D02*
X132658518Y-125174729D01*
X132658518Y-124374729D01*
X133858518Y-124374729D01*
X133858518Y-125174729D01*
D11*
X110675000Y-103705000D03*
X110675000Y-102435000D03*
X110675000Y-101165000D03*
X110675000Y-99895000D03*
X105425000Y-99895000D03*
X105425000Y-101165000D03*
X105425000Y-102435000D03*
X105425000Y-103705000D03*
X110675000Y-98105000D03*
X110675000Y-96835000D03*
X110675000Y-95565000D03*
X110675000Y-94295000D03*
X105425000Y-94295000D03*
X105425000Y-95565000D03*
X105425000Y-96835000D03*
X105425000Y-98105000D03*
D12*
X129858518Y-125774728D03*
X129450000Y-113900000D03*
X137858518Y-116574728D03*
X128150000Y-123200000D03*
X141658518Y-129174728D03*
X139658517Y-119974728D03*
X131950000Y-110000000D03*
D13*
X135533518Y-117204729D03*
X134883518Y-117204729D03*
X134233518Y-117204729D03*
X133583518Y-117204729D03*
X132933518Y-117204729D03*
X132283518Y-117204729D03*
X131633518Y-117204729D03*
X130983518Y-117204729D03*
X130983518Y-122944729D03*
X131633518Y-122944729D03*
X132283518Y-122944729D03*
X132933518Y-122944729D03*
X133583518Y-122944729D03*
X134233518Y-122944729D03*
X134883518Y-122944729D03*
X135533518Y-122944729D03*
D14*
X118350000Y-122650000D03*
X120250000Y-120150000D03*
X119300000Y-122650000D03*
X120250000Y-122650000D03*
X118350000Y-120150000D03*
G04 #@! TA.AperFunction,SMDPad,CuDef*
D15*
G36*
X132169603Y-114900691D02*
G01*
X132189018Y-114903571D01*
X132208057Y-114908340D01*
X132226537Y-114914952D01*
X132244279Y-114923344D01*
X132261114Y-114933434D01*
X132276879Y-114945126D01*
X132291421Y-114958307D01*
X132304602Y-114972849D01*
X132316294Y-114988614D01*
X132326384Y-115005449D01*
X132334776Y-115023191D01*
X132341388Y-115041671D01*
X132346157Y-115060710D01*
X132349037Y-115080125D01*
X132350000Y-115099728D01*
X132350000Y-115649728D01*
X132349037Y-115669331D01*
X132346157Y-115688746D01*
X132341388Y-115707785D01*
X132334776Y-115726265D01*
X132326384Y-115744007D01*
X132316294Y-115760842D01*
X132304602Y-115776607D01*
X132291421Y-115791149D01*
X132276879Y-115804330D01*
X132261114Y-115816022D01*
X132244279Y-115826112D01*
X132226537Y-115834504D01*
X132208057Y-115841116D01*
X132189018Y-115845885D01*
X132169603Y-115848765D01*
X132150000Y-115849728D01*
X131750000Y-115849728D01*
X131730397Y-115848765D01*
X131710982Y-115845885D01*
X131691943Y-115841116D01*
X131673463Y-115834504D01*
X131655721Y-115826112D01*
X131638886Y-115816022D01*
X131623121Y-115804330D01*
X131608579Y-115791149D01*
X131595398Y-115776607D01*
X131583706Y-115760842D01*
X131573616Y-115744007D01*
X131565224Y-115726265D01*
X131558612Y-115707785D01*
X131553843Y-115688746D01*
X131550963Y-115669331D01*
X131550000Y-115649728D01*
X131550000Y-115099728D01*
X131550963Y-115080125D01*
X131553843Y-115060710D01*
X131558612Y-115041671D01*
X131565224Y-115023191D01*
X131573616Y-115005449D01*
X131583706Y-114988614D01*
X131595398Y-114972849D01*
X131608579Y-114958307D01*
X131623121Y-114945126D01*
X131638886Y-114933434D01*
X131655721Y-114923344D01*
X131673463Y-114914952D01*
X131691943Y-114908340D01*
X131710982Y-114903571D01*
X131730397Y-114900691D01*
X131750000Y-114899728D01*
X132150000Y-114899728D01*
X132169603Y-114900691D01*
G37*
G04 #@! TD.AperFunction*
G04 #@! TA.AperFunction,SMDPad,CuDef*
G36*
X133819603Y-114900691D02*
G01*
X133839018Y-114903571D01*
X133858057Y-114908340D01*
X133876537Y-114914952D01*
X133894279Y-114923344D01*
X133911114Y-114933434D01*
X133926879Y-114945126D01*
X133941421Y-114958307D01*
X133954602Y-114972849D01*
X133966294Y-114988614D01*
X133976384Y-115005449D01*
X133984776Y-115023191D01*
X133991388Y-115041671D01*
X133996157Y-115060710D01*
X133999037Y-115080125D01*
X134000000Y-115099728D01*
X134000000Y-115649728D01*
X133999037Y-115669331D01*
X133996157Y-115688746D01*
X133991388Y-115707785D01*
X133984776Y-115726265D01*
X133976384Y-115744007D01*
X133966294Y-115760842D01*
X133954602Y-115776607D01*
X133941421Y-115791149D01*
X133926879Y-115804330D01*
X133911114Y-115816022D01*
X133894279Y-115826112D01*
X133876537Y-115834504D01*
X133858057Y-115841116D01*
X133839018Y-115845885D01*
X133819603Y-115848765D01*
X133800000Y-115849728D01*
X133400000Y-115849728D01*
X133380397Y-115848765D01*
X133360982Y-115845885D01*
X133341943Y-115841116D01*
X133323463Y-115834504D01*
X133305721Y-115826112D01*
X133288886Y-115816022D01*
X133273121Y-115804330D01*
X133258579Y-115791149D01*
X133245398Y-115776607D01*
X133233706Y-115760842D01*
X133223616Y-115744007D01*
X133215224Y-115726265D01*
X133208612Y-115707785D01*
X133203843Y-115688746D01*
X133200963Y-115669331D01*
X133200000Y-115649728D01*
X133200000Y-115099728D01*
X133200963Y-115080125D01*
X133203843Y-115060710D01*
X133208612Y-115041671D01*
X133215224Y-115023191D01*
X133223616Y-115005449D01*
X133233706Y-114988614D01*
X133245398Y-114972849D01*
X133258579Y-114958307D01*
X133273121Y-114945126D01*
X133288886Y-114933434D01*
X133305721Y-114923344D01*
X133323463Y-114914952D01*
X133341943Y-114908340D01*
X133360982Y-114903571D01*
X133380397Y-114900691D01*
X133400000Y-114899728D01*
X133800000Y-114899728D01*
X133819603Y-114900691D01*
G37*
G04 #@! TD.AperFunction*
G04 #@! TA.AperFunction,SMDPad,CuDef*
G36*
X134303121Y-124300692D02*
G01*
X134322536Y-124303572D01*
X134341575Y-124308341D01*
X134360055Y-124314953D01*
X134377797Y-124323345D01*
X134394632Y-124333435D01*
X134410397Y-124345127D01*
X134424939Y-124358308D01*
X134438120Y-124372850D01*
X134449812Y-124388615D01*
X134459902Y-124405450D01*
X134468294Y-124423192D01*
X134474906Y-124441672D01*
X134479675Y-124460711D01*
X134482555Y-124480126D01*
X134483518Y-124499729D01*
X134483518Y-125049729D01*
X134482555Y-125069332D01*
X134479675Y-125088747D01*
X134474906Y-125107786D01*
X134468294Y-125126266D01*
X134459902Y-125144008D01*
X134449812Y-125160843D01*
X134438120Y-125176608D01*
X134424939Y-125191150D01*
X134410397Y-125204331D01*
X134394632Y-125216023D01*
X134377797Y-125226113D01*
X134360055Y-125234505D01*
X134341575Y-125241117D01*
X134322536Y-125245886D01*
X134303121Y-125248766D01*
X134283518Y-125249729D01*
X133883518Y-125249729D01*
X133863915Y-125248766D01*
X133844500Y-125245886D01*
X133825461Y-125241117D01*
X133806981Y-125234505D01*
X133789239Y-125226113D01*
X133772404Y-125216023D01*
X133756639Y-125204331D01*
X133742097Y-125191150D01*
X133728916Y-125176608D01*
X133717224Y-125160843D01*
X133707134Y-125144008D01*
X133698742Y-125126266D01*
X133692130Y-125107786D01*
X133687361Y-125088747D01*
X133684481Y-125069332D01*
X133683518Y-125049729D01*
X133683518Y-124499729D01*
X133684481Y-124480126D01*
X133687361Y-124460711D01*
X133692130Y-124441672D01*
X133698742Y-124423192D01*
X133707134Y-124405450D01*
X133717224Y-124388615D01*
X133728916Y-124372850D01*
X133742097Y-124358308D01*
X133756639Y-124345127D01*
X133772404Y-124333435D01*
X133789239Y-124323345D01*
X133806981Y-124314953D01*
X133825461Y-124308341D01*
X133844500Y-124303572D01*
X133863915Y-124300692D01*
X133883518Y-124299729D01*
X134283518Y-124299729D01*
X134303121Y-124300692D01*
G37*
G04 #@! TD.AperFunction*
G04 #@! TA.AperFunction,SMDPad,CuDef*
G36*
X132653121Y-124300692D02*
G01*
X132672536Y-124303572D01*
X132691575Y-124308341D01*
X132710055Y-124314953D01*
X132727797Y-124323345D01*
X132744632Y-124333435D01*
X132760397Y-124345127D01*
X132774939Y-124358308D01*
X132788120Y-124372850D01*
X132799812Y-124388615D01*
X132809902Y-124405450D01*
X132818294Y-124423192D01*
X132824906Y-124441672D01*
X132829675Y-124460711D01*
X132832555Y-124480126D01*
X132833518Y-124499729D01*
X132833518Y-125049729D01*
X132832555Y-125069332D01*
X132829675Y-125088747D01*
X132824906Y-125107786D01*
X132818294Y-125126266D01*
X132809902Y-125144008D01*
X132799812Y-125160843D01*
X132788120Y-125176608D01*
X132774939Y-125191150D01*
X132760397Y-125204331D01*
X132744632Y-125216023D01*
X132727797Y-125226113D01*
X132710055Y-125234505D01*
X132691575Y-125241117D01*
X132672536Y-125245886D01*
X132653121Y-125248766D01*
X132633518Y-125249729D01*
X132233518Y-125249729D01*
X132213915Y-125248766D01*
X132194500Y-125245886D01*
X132175461Y-125241117D01*
X132156981Y-125234505D01*
X132139239Y-125226113D01*
X132122404Y-125216023D01*
X132106639Y-125204331D01*
X132092097Y-125191150D01*
X132078916Y-125176608D01*
X132067224Y-125160843D01*
X132057134Y-125144008D01*
X132048742Y-125126266D01*
X132042130Y-125107786D01*
X132037361Y-125088747D01*
X132034481Y-125069332D01*
X132033518Y-125049729D01*
X132033518Y-124499729D01*
X132034481Y-124480126D01*
X132037361Y-124460711D01*
X132042130Y-124441672D01*
X132048742Y-124423192D01*
X132057134Y-124405450D01*
X132067224Y-124388615D01*
X132078916Y-124372850D01*
X132092097Y-124358308D01*
X132106639Y-124345127D01*
X132122404Y-124333435D01*
X132139239Y-124323345D01*
X132156981Y-124314953D01*
X132175461Y-124308341D01*
X132194500Y-124303572D01*
X132213915Y-124300692D01*
X132233518Y-124299729D01*
X132633518Y-124299729D01*
X132653121Y-124300692D01*
G37*
G04 #@! TD.AperFunction*
G04 #@! TA.AperFunction,SMDPad,CuDef*
G36*
X132222054Y-111876083D02*
G01*
X132243895Y-111879323D01*
X132265314Y-111884688D01*
X132286104Y-111892127D01*
X132306064Y-111901568D01*
X132325003Y-111912919D01*
X132342738Y-111926073D01*
X132359099Y-111940901D01*
X132373927Y-111957262D01*
X132387081Y-111974997D01*
X132398432Y-111993936D01*
X132407873Y-112013896D01*
X132415312Y-112034686D01*
X132420677Y-112056105D01*
X132423917Y-112077946D01*
X132425000Y-112100000D01*
X132425000Y-112550000D01*
X132423917Y-112572054D01*
X132420677Y-112593895D01*
X132415312Y-112615314D01*
X132407873Y-112636104D01*
X132398432Y-112656064D01*
X132387081Y-112675003D01*
X132373927Y-112692738D01*
X132359099Y-112709099D01*
X132342738Y-112723927D01*
X132325003Y-112737081D01*
X132306064Y-112748432D01*
X132286104Y-112757873D01*
X132265314Y-112765312D01*
X132243895Y-112770677D01*
X132222054Y-112773917D01*
X132200000Y-112775000D01*
X131700000Y-112775000D01*
X131677946Y-112773917D01*
X131656105Y-112770677D01*
X131634686Y-112765312D01*
X131613896Y-112757873D01*
X131593936Y-112748432D01*
X131574997Y-112737081D01*
X131557262Y-112723927D01*
X131540901Y-112709099D01*
X131526073Y-112692738D01*
X131512919Y-112675003D01*
X131501568Y-112656064D01*
X131492127Y-112636104D01*
X131484688Y-112615314D01*
X131479323Y-112593895D01*
X131476083Y-112572054D01*
X131475000Y-112550000D01*
X131475000Y-112100000D01*
X131476083Y-112077946D01*
X131479323Y-112056105D01*
X131484688Y-112034686D01*
X131492127Y-112013896D01*
X131501568Y-111993936D01*
X131512919Y-111974997D01*
X131526073Y-111957262D01*
X131540901Y-111940901D01*
X131557262Y-111926073D01*
X131574997Y-111912919D01*
X131593936Y-111901568D01*
X131613896Y-111892127D01*
X131634686Y-111884688D01*
X131656105Y-111879323D01*
X131677946Y-111876083D01*
X131700000Y-111875000D01*
X132200000Y-111875000D01*
X132222054Y-111876083D01*
G37*
G04 #@! TD.AperFunction*
G04 #@! TA.AperFunction,SMDPad,CuDef*
G36*
X132222054Y-113426083D02*
G01*
X132243895Y-113429323D01*
X132265314Y-113434688D01*
X132286104Y-113442127D01*
X132306064Y-113451568D01*
X132325003Y-113462919D01*
X132342738Y-113476073D01*
X132359099Y-113490901D01*
X132373927Y-113507262D01*
X132387081Y-113524997D01*
X132398432Y-113543936D01*
X132407873Y-113563896D01*
X132415312Y-113584686D01*
X132420677Y-113606105D01*
X132423917Y-113627946D01*
X132425000Y-113650000D01*
X132425000Y-114100000D01*
X132423917Y-114122054D01*
X132420677Y-114143895D01*
X132415312Y-114165314D01*
X132407873Y-114186104D01*
X132398432Y-114206064D01*
X132387081Y-114225003D01*
X132373927Y-114242738D01*
X132359099Y-114259099D01*
X132342738Y-114273927D01*
X132325003Y-114287081D01*
X132306064Y-114298432D01*
X132286104Y-114307873D01*
X132265314Y-114315312D01*
X132243895Y-114320677D01*
X132222054Y-114323917D01*
X132200000Y-114325000D01*
X131700000Y-114325000D01*
X131677946Y-114323917D01*
X131656105Y-114320677D01*
X131634686Y-114315312D01*
X131613896Y-114307873D01*
X131593936Y-114298432D01*
X131574997Y-114287081D01*
X131557262Y-114273927D01*
X131540901Y-114259099D01*
X131526073Y-114242738D01*
X131512919Y-114225003D01*
X131501568Y-114206064D01*
X131492127Y-114186104D01*
X131484688Y-114165314D01*
X131479323Y-114143895D01*
X131476083Y-114122054D01*
X131475000Y-114100000D01*
X131475000Y-113650000D01*
X131476083Y-113627946D01*
X131479323Y-113606105D01*
X131484688Y-113584686D01*
X131492127Y-113563896D01*
X131501568Y-113543936D01*
X131512919Y-113524997D01*
X131526073Y-113507262D01*
X131540901Y-113490901D01*
X131557262Y-113476073D01*
X131574997Y-113462919D01*
X131593936Y-113451568D01*
X131613896Y-113442127D01*
X131634686Y-113434688D01*
X131656105Y-113429323D01*
X131677946Y-113426083D01*
X131700000Y-113425000D01*
X132200000Y-113425000D01*
X132222054Y-113426083D01*
G37*
G04 #@! TD.AperFunction*
G04 #@! TA.AperFunction,SMDPad,CuDef*
G36*
X137130572Y-118925811D02*
G01*
X137152413Y-118929051D01*
X137173832Y-118934416D01*
X137194622Y-118941855D01*
X137214582Y-118951296D01*
X137233521Y-118962647D01*
X137251256Y-118975801D01*
X137267617Y-118990629D01*
X137282445Y-119006990D01*
X137295599Y-119024725D01*
X137306950Y-119043664D01*
X137316391Y-119063624D01*
X137323830Y-119084414D01*
X137329195Y-119105833D01*
X137332435Y-119127674D01*
X137333518Y-119149728D01*
X137333518Y-119599728D01*
X137332435Y-119621782D01*
X137329195Y-119643623D01*
X137323830Y-119665042D01*
X137316391Y-119685832D01*
X137306950Y-119705792D01*
X137295599Y-119724731D01*
X137282445Y-119742466D01*
X137267617Y-119758827D01*
X137251256Y-119773655D01*
X137233521Y-119786809D01*
X137214582Y-119798160D01*
X137194622Y-119807601D01*
X137173832Y-119815040D01*
X137152413Y-119820405D01*
X137130572Y-119823645D01*
X137108518Y-119824728D01*
X136608518Y-119824728D01*
X136586464Y-119823645D01*
X136564623Y-119820405D01*
X136543204Y-119815040D01*
X136522414Y-119807601D01*
X136502454Y-119798160D01*
X136483515Y-119786809D01*
X136465780Y-119773655D01*
X136449419Y-119758827D01*
X136434591Y-119742466D01*
X136421437Y-119724731D01*
X136410086Y-119705792D01*
X136400645Y-119685832D01*
X136393206Y-119665042D01*
X136387841Y-119643623D01*
X136384601Y-119621782D01*
X136383518Y-119599728D01*
X136383518Y-119149728D01*
X136384601Y-119127674D01*
X136387841Y-119105833D01*
X136393206Y-119084414D01*
X136400645Y-119063624D01*
X136410086Y-119043664D01*
X136421437Y-119024725D01*
X136434591Y-119006990D01*
X136449419Y-118990629D01*
X136465780Y-118975801D01*
X136483515Y-118962647D01*
X136502454Y-118951296D01*
X136522414Y-118941855D01*
X136543204Y-118934416D01*
X136564623Y-118929051D01*
X136586464Y-118925811D01*
X136608518Y-118924728D01*
X137108518Y-118924728D01*
X137130572Y-118925811D01*
G37*
G04 #@! TD.AperFunction*
G04 #@! TA.AperFunction,SMDPad,CuDef*
G36*
X137130572Y-120475811D02*
G01*
X137152413Y-120479051D01*
X137173832Y-120484416D01*
X137194622Y-120491855D01*
X137214582Y-120501296D01*
X137233521Y-120512647D01*
X137251256Y-120525801D01*
X137267617Y-120540629D01*
X137282445Y-120556990D01*
X137295599Y-120574725D01*
X137306950Y-120593664D01*
X137316391Y-120613624D01*
X137323830Y-120634414D01*
X137329195Y-120655833D01*
X137332435Y-120677674D01*
X137333518Y-120699728D01*
X137333518Y-121149728D01*
X137332435Y-121171782D01*
X137329195Y-121193623D01*
X137323830Y-121215042D01*
X137316391Y-121235832D01*
X137306950Y-121255792D01*
X137295599Y-121274731D01*
X137282445Y-121292466D01*
X137267617Y-121308827D01*
X137251256Y-121323655D01*
X137233521Y-121336809D01*
X137214582Y-121348160D01*
X137194622Y-121357601D01*
X137173832Y-121365040D01*
X137152413Y-121370405D01*
X137130572Y-121373645D01*
X137108518Y-121374728D01*
X136608518Y-121374728D01*
X136586464Y-121373645D01*
X136564623Y-121370405D01*
X136543204Y-121365040D01*
X136522414Y-121357601D01*
X136502454Y-121348160D01*
X136483515Y-121336809D01*
X136465780Y-121323655D01*
X136449419Y-121308827D01*
X136434591Y-121292466D01*
X136421437Y-121274731D01*
X136410086Y-121255792D01*
X136400645Y-121235832D01*
X136393206Y-121215042D01*
X136387841Y-121193623D01*
X136384601Y-121171782D01*
X136383518Y-121149728D01*
X136383518Y-120699728D01*
X136384601Y-120677674D01*
X136387841Y-120655833D01*
X136393206Y-120634414D01*
X136400645Y-120613624D01*
X136410086Y-120593664D01*
X136421437Y-120574725D01*
X136434591Y-120556990D01*
X136449419Y-120540629D01*
X136465780Y-120525801D01*
X136483515Y-120512647D01*
X136502454Y-120501296D01*
X136522414Y-120491855D01*
X136543204Y-120484416D01*
X136564623Y-120479051D01*
X136586464Y-120475811D01*
X136608518Y-120474728D01*
X137108518Y-120474728D01*
X137130572Y-120475811D01*
G37*
G04 #@! TD.AperFunction*
G04 #@! TA.AperFunction,SMDPad,CuDef*
G36*
X132722054Y-127401083D02*
G01*
X132743895Y-127404323D01*
X132765314Y-127409688D01*
X132786104Y-127417127D01*
X132806064Y-127426568D01*
X132825003Y-127437919D01*
X132842738Y-127451073D01*
X132859099Y-127465901D01*
X132873927Y-127482262D01*
X132887081Y-127499997D01*
X132898432Y-127518936D01*
X132907873Y-127538896D01*
X132915312Y-127559686D01*
X132920677Y-127581105D01*
X132923917Y-127602946D01*
X132925000Y-127625000D01*
X132925000Y-128075000D01*
X132923917Y-128097054D01*
X132920677Y-128118895D01*
X132915312Y-128140314D01*
X132907873Y-128161104D01*
X132898432Y-128181064D01*
X132887081Y-128200003D01*
X132873927Y-128217738D01*
X132859099Y-128234099D01*
X132842738Y-128248927D01*
X132825003Y-128262081D01*
X132806064Y-128273432D01*
X132786104Y-128282873D01*
X132765314Y-128290312D01*
X132743895Y-128295677D01*
X132722054Y-128298917D01*
X132700000Y-128300000D01*
X132200000Y-128300000D01*
X132177946Y-128298917D01*
X132156105Y-128295677D01*
X132134686Y-128290312D01*
X132113896Y-128282873D01*
X132093936Y-128273432D01*
X132074997Y-128262081D01*
X132057262Y-128248927D01*
X132040901Y-128234099D01*
X132026073Y-128217738D01*
X132012919Y-128200003D01*
X132001568Y-128181064D01*
X131992127Y-128161104D01*
X131984688Y-128140314D01*
X131979323Y-128118895D01*
X131976083Y-128097054D01*
X131975000Y-128075000D01*
X131975000Y-127625000D01*
X131976083Y-127602946D01*
X131979323Y-127581105D01*
X131984688Y-127559686D01*
X131992127Y-127538896D01*
X132001568Y-127518936D01*
X132012919Y-127499997D01*
X132026073Y-127482262D01*
X132040901Y-127465901D01*
X132057262Y-127451073D01*
X132074997Y-127437919D01*
X132093936Y-127426568D01*
X132113896Y-127417127D01*
X132134686Y-127409688D01*
X132156105Y-127404323D01*
X132177946Y-127401083D01*
X132200000Y-127400000D01*
X132700000Y-127400000D01*
X132722054Y-127401083D01*
G37*
G04 #@! TD.AperFunction*
G04 #@! TA.AperFunction,SMDPad,CuDef*
G36*
X132722054Y-125851083D02*
G01*
X132743895Y-125854323D01*
X132765314Y-125859688D01*
X132786104Y-125867127D01*
X132806064Y-125876568D01*
X132825003Y-125887919D01*
X132842738Y-125901073D01*
X132859099Y-125915901D01*
X132873927Y-125932262D01*
X132887081Y-125949997D01*
X132898432Y-125968936D01*
X132907873Y-125988896D01*
X132915312Y-126009686D01*
X132920677Y-126031105D01*
X132923917Y-126052946D01*
X132925000Y-126075000D01*
X132925000Y-126525000D01*
X132923917Y-126547054D01*
X132920677Y-126568895D01*
X132915312Y-126590314D01*
X132907873Y-126611104D01*
X132898432Y-126631064D01*
X132887081Y-126650003D01*
X132873927Y-126667738D01*
X132859099Y-126684099D01*
X132842738Y-126698927D01*
X132825003Y-126712081D01*
X132806064Y-126723432D01*
X132786104Y-126732873D01*
X132765314Y-126740312D01*
X132743895Y-126745677D01*
X132722054Y-126748917D01*
X132700000Y-126750000D01*
X132200000Y-126750000D01*
X132177946Y-126748917D01*
X132156105Y-126745677D01*
X132134686Y-126740312D01*
X132113896Y-126732873D01*
X132093936Y-126723432D01*
X132074997Y-126712081D01*
X132057262Y-126698927D01*
X132040901Y-126684099D01*
X132026073Y-126667738D01*
X132012919Y-126650003D01*
X132001568Y-126631064D01*
X131992127Y-126611104D01*
X131984688Y-126590314D01*
X131979323Y-126568895D01*
X131976083Y-126547054D01*
X131975000Y-126525000D01*
X131975000Y-126075000D01*
X131976083Y-126052946D01*
X131979323Y-126031105D01*
X131984688Y-126009686D01*
X131992127Y-125988896D01*
X132001568Y-125968936D01*
X132012919Y-125949997D01*
X132026073Y-125932262D01*
X132040901Y-125915901D01*
X132057262Y-125901073D01*
X132074997Y-125887919D01*
X132093936Y-125876568D01*
X132113896Y-125867127D01*
X132134686Y-125859688D01*
X132156105Y-125854323D01*
X132177946Y-125851083D01*
X132200000Y-125850000D01*
X132700000Y-125850000D01*
X132722054Y-125851083D01*
G37*
G04 #@! TD.AperFunction*
D16*
X109970000Y-116770000D03*
X109970000Y-114230000D03*
X112630000Y-134030000D03*
X112630000Y-136570000D03*
X137978518Y-123304728D03*
X137978518Y-125844728D03*
X112630000Y-128030000D03*
X112630000Y-130570000D03*
G04 #@! TA.AperFunction,SMDPad,CuDef*
D15*
G36*
X113849511Y-121649930D02*
G01*
X113849511Y-120149930D01*
X114599511Y-120149930D01*
X114599511Y-118649930D01*
X116099511Y-118649930D01*
X116099511Y-120149930D01*
X116849511Y-120149930D01*
X116849511Y-121649930D01*
X113849511Y-121649930D01*
G37*
G04 #@! TD.AperFunction*
G04 #@! TA.AperFunction,SMDPad,CuDef*
G36*
X116099511Y-124650070D02*
G01*
X116099511Y-126150070D01*
X114599511Y-126150070D01*
X114599511Y-124650070D01*
X113849511Y-124650070D01*
X113849511Y-123150070D01*
X116849511Y-123150070D01*
X116849511Y-124650070D01*
X116099511Y-124650070D01*
G37*
G04 #@! TD.AperFunction*
D17*
X123488803Y-92935813D03*
X120948803Y-92935813D03*
X123488803Y-90395813D03*
X120948803Y-90395813D03*
D18*
X123500000Y-107400000D03*
X120950000Y-107400000D03*
D19*
X114083120Y-91082180D03*
X114083120Y-93622180D03*
X114083120Y-96162180D03*
X114083120Y-98702180D03*
X114083120Y-101242180D03*
X114083120Y-103782180D03*
X114083120Y-106322180D03*
X130247680Y-106322180D03*
X130247680Y-103782180D03*
X130247680Y-101242180D03*
X130247680Y-98702180D03*
X130247680Y-96162180D03*
X130247680Y-93622180D03*
X130247680Y-91082180D03*
D20*
X112350000Y-121400000D03*
X109050000Y-121400000D03*
G04 #@! TA.AperFunction,SMDPad,CuDef*
D15*
G36*
X139994603Y-112800963D02*
G01*
X140014018Y-112803843D01*
X140033057Y-112808612D01*
X140051537Y-112815224D01*
X140069279Y-112823616D01*
X140086114Y-112833706D01*
X140101879Y-112845398D01*
X140116421Y-112858579D01*
X140129602Y-112873121D01*
X140141294Y-112888886D01*
X140151384Y-112905721D01*
X140159776Y-112923463D01*
X140166388Y-112941943D01*
X140171157Y-112960982D01*
X140174037Y-112980397D01*
X140175000Y-113000000D01*
X140175000Y-114200000D01*
X140174037Y-114219603D01*
X140171157Y-114239018D01*
X140166388Y-114258057D01*
X140159776Y-114276537D01*
X140151384Y-114294279D01*
X140141294Y-114311114D01*
X140129602Y-114326879D01*
X140116421Y-114341421D01*
X140101879Y-114354602D01*
X140086114Y-114366294D01*
X140069279Y-114376384D01*
X140051537Y-114384776D01*
X140033057Y-114391388D01*
X140014018Y-114396157D01*
X139994603Y-114399037D01*
X139975000Y-114400000D01*
X139575000Y-114400000D01*
X139555397Y-114399037D01*
X139535982Y-114396157D01*
X139516943Y-114391388D01*
X139498463Y-114384776D01*
X139480721Y-114376384D01*
X139463886Y-114366294D01*
X139448121Y-114354602D01*
X139433579Y-114341421D01*
X139420398Y-114326879D01*
X139408706Y-114311114D01*
X139398616Y-114294279D01*
X139390224Y-114276537D01*
X139383612Y-114258057D01*
X139378843Y-114239018D01*
X139375963Y-114219603D01*
X139375000Y-114200000D01*
X139375000Y-113000000D01*
X139375963Y-112980397D01*
X139378843Y-112960982D01*
X139383612Y-112941943D01*
X139390224Y-112923463D01*
X139398616Y-112905721D01*
X139408706Y-112888886D01*
X139420398Y-112873121D01*
X139433579Y-112858579D01*
X139448121Y-112845398D01*
X139463886Y-112833706D01*
X139480721Y-112823616D01*
X139498463Y-112815224D01*
X139516943Y-112808612D01*
X139535982Y-112803843D01*
X139555397Y-112800963D01*
X139575000Y-112800000D01*
X139975000Y-112800000D01*
X139994603Y-112800963D01*
G37*
G04 #@! TD.AperFunction*
G04 #@! TA.AperFunction,SMDPad,CuDef*
G36*
X138744603Y-112800963D02*
G01*
X138764018Y-112803843D01*
X138783057Y-112808612D01*
X138801537Y-112815224D01*
X138819279Y-112823616D01*
X138836114Y-112833706D01*
X138851879Y-112845398D01*
X138866421Y-112858579D01*
X138879602Y-112873121D01*
X138891294Y-112888886D01*
X138901384Y-112905721D01*
X138909776Y-112923463D01*
X138916388Y-112941943D01*
X138921157Y-112960982D01*
X138924037Y-112980397D01*
X138925000Y-113000000D01*
X138925000Y-114200000D01*
X138924037Y-114219603D01*
X138921157Y-114239018D01*
X138916388Y-114258057D01*
X138909776Y-114276537D01*
X138901384Y-114294279D01*
X138891294Y-114311114D01*
X138879602Y-114326879D01*
X138866421Y-114341421D01*
X138851879Y-114354602D01*
X138836114Y-114366294D01*
X138819279Y-114376384D01*
X138801537Y-114384776D01*
X138783057Y-114391388D01*
X138764018Y-114396157D01*
X138744603Y-114399037D01*
X138725000Y-114400000D01*
X138325000Y-114400000D01*
X138305397Y-114399037D01*
X138285982Y-114396157D01*
X138266943Y-114391388D01*
X138248463Y-114384776D01*
X138230721Y-114376384D01*
X138213886Y-114366294D01*
X138198121Y-114354602D01*
X138183579Y-114341421D01*
X138170398Y-114326879D01*
X138158706Y-114311114D01*
X138148616Y-114294279D01*
X138140224Y-114276537D01*
X138133612Y-114258057D01*
X138128843Y-114239018D01*
X138125963Y-114219603D01*
X138125000Y-114200000D01*
X138125000Y-113000000D01*
X138125963Y-112980397D01*
X138128843Y-112960982D01*
X138133612Y-112941943D01*
X138140224Y-112923463D01*
X138148616Y-112905721D01*
X138158706Y-112888886D01*
X138170398Y-112873121D01*
X138183579Y-112858579D01*
X138198121Y-112845398D01*
X138213886Y-112833706D01*
X138230721Y-112823616D01*
X138248463Y-112815224D01*
X138266943Y-112808612D01*
X138285982Y-112803843D01*
X138305397Y-112800963D01*
X138325000Y-112800000D01*
X138725000Y-112800000D01*
X138744603Y-112800963D01*
G37*
G04 #@! TD.AperFunction*
G04 #@! TA.AperFunction,SMDPad,CuDef*
G36*
X143149504Y-109201204D02*
G01*
X143173773Y-109204804D01*
X143197571Y-109210765D01*
X143220671Y-109219030D01*
X143242849Y-109229520D01*
X143263893Y-109242133D01*
X143283598Y-109256747D01*
X143301777Y-109273223D01*
X143318253Y-109291402D01*
X143332867Y-109311107D01*
X143345480Y-109332151D01*
X143355970Y-109354329D01*
X143364235Y-109377429D01*
X143370196Y-109401227D01*
X143373796Y-109425496D01*
X143375000Y-109450000D01*
X143375000Y-111950000D01*
X143373796Y-111974504D01*
X143370196Y-111998773D01*
X143364235Y-112022571D01*
X143355970Y-112045671D01*
X143345480Y-112067849D01*
X143332867Y-112088893D01*
X143318253Y-112108598D01*
X143301777Y-112126777D01*
X143283598Y-112143253D01*
X143263893Y-112157867D01*
X143242849Y-112170480D01*
X143220671Y-112180970D01*
X143197571Y-112189235D01*
X143173773Y-112195196D01*
X143149504Y-112198796D01*
X143125000Y-112200000D01*
X141525000Y-112200000D01*
X141500496Y-112198796D01*
X141476227Y-112195196D01*
X141452429Y-112189235D01*
X141429329Y-112180970D01*
X141407151Y-112170480D01*
X141386107Y-112157867D01*
X141366402Y-112143253D01*
X141348223Y-112126777D01*
X141331747Y-112108598D01*
X141317133Y-112088893D01*
X141304520Y-112067849D01*
X141294030Y-112045671D01*
X141285765Y-112022571D01*
X141279804Y-111998773D01*
X141276204Y-111974504D01*
X141275000Y-111950000D01*
X141275000Y-109450000D01*
X141276204Y-109425496D01*
X141279804Y-109401227D01*
X141285765Y-109377429D01*
X141294030Y-109354329D01*
X141304520Y-109332151D01*
X141317133Y-109311107D01*
X141331747Y-109291402D01*
X141348223Y-109273223D01*
X141366402Y-109256747D01*
X141386107Y-109242133D01*
X141407151Y-109229520D01*
X141429329Y-109219030D01*
X141452429Y-109210765D01*
X141476227Y-109204804D01*
X141500496Y-109201204D01*
X141525000Y-109200000D01*
X143125000Y-109200000D01*
X143149504Y-109201204D01*
G37*
G04 #@! TD.AperFunction*
G04 #@! TA.AperFunction,SMDPad,CuDef*
G36*
X136799504Y-109201204D02*
G01*
X136823773Y-109204804D01*
X136847571Y-109210765D01*
X136870671Y-109219030D01*
X136892849Y-109229520D01*
X136913893Y-109242133D01*
X136933598Y-109256747D01*
X136951777Y-109273223D01*
X136968253Y-109291402D01*
X136982867Y-109311107D01*
X136995480Y-109332151D01*
X137005970Y-109354329D01*
X137014235Y-109377429D01*
X137020196Y-109401227D01*
X137023796Y-109425496D01*
X137025000Y-109450000D01*
X137025000Y-111950000D01*
X137023796Y-111974504D01*
X137020196Y-111998773D01*
X137014235Y-112022571D01*
X137005970Y-112045671D01*
X136995480Y-112067849D01*
X136982867Y-112088893D01*
X136968253Y-112108598D01*
X136951777Y-112126777D01*
X136933598Y-112143253D01*
X136913893Y-112157867D01*
X136892849Y-112170480D01*
X136870671Y-112180970D01*
X136847571Y-112189235D01*
X136823773Y-112195196D01*
X136799504Y-112198796D01*
X136775000Y-112200000D01*
X135175000Y-112200000D01*
X135150496Y-112198796D01*
X135126227Y-112195196D01*
X135102429Y-112189235D01*
X135079329Y-112180970D01*
X135057151Y-112170480D01*
X135036107Y-112157867D01*
X135016402Y-112143253D01*
X134998223Y-112126777D01*
X134981747Y-112108598D01*
X134967133Y-112088893D01*
X134954520Y-112067849D01*
X134944030Y-112045671D01*
X134935765Y-112022571D01*
X134929804Y-111998773D01*
X134926204Y-111974504D01*
X134925000Y-111950000D01*
X134925000Y-109450000D01*
X134926204Y-109425496D01*
X134929804Y-109401227D01*
X134935765Y-109377429D01*
X134944030Y-109354329D01*
X134954520Y-109332151D01*
X134967133Y-109311107D01*
X134981747Y-109291402D01*
X134998223Y-109273223D01*
X135016402Y-109256747D01*
X135036107Y-109242133D01*
X135057151Y-109229520D01*
X135079329Y-109219030D01*
X135102429Y-109210765D01*
X135126227Y-109204804D01*
X135150496Y-109201204D01*
X135175000Y-109200000D01*
X136775000Y-109200000D01*
X136799504Y-109201204D01*
G37*
G04 #@! TD.AperFunction*
G04 #@! TA.AperFunction,SMDPad,CuDef*
G36*
X97619603Y-106200963D02*
G01*
X97639018Y-106203843D01*
X97658057Y-106208612D01*
X97676537Y-106215224D01*
X97694279Y-106223616D01*
X97711114Y-106233706D01*
X97726879Y-106245398D01*
X97741421Y-106258579D01*
X97754602Y-106273121D01*
X97766294Y-106288886D01*
X97776384Y-106305721D01*
X97784776Y-106323463D01*
X97791388Y-106341943D01*
X97796157Y-106360982D01*
X97799037Y-106380397D01*
X97800000Y-106400000D01*
X97800000Y-107600000D01*
X97799037Y-107619603D01*
X97796157Y-107639018D01*
X97791388Y-107658057D01*
X97784776Y-107676537D01*
X97776384Y-107694279D01*
X97766294Y-107711114D01*
X97754602Y-107726879D01*
X97741421Y-107741421D01*
X97726879Y-107754602D01*
X97711114Y-107766294D01*
X97694279Y-107776384D01*
X97676537Y-107784776D01*
X97658057Y-107791388D01*
X97639018Y-107796157D01*
X97619603Y-107799037D01*
X97600000Y-107800000D01*
X97200000Y-107800000D01*
X97180397Y-107799037D01*
X97160982Y-107796157D01*
X97141943Y-107791388D01*
X97123463Y-107784776D01*
X97105721Y-107776384D01*
X97088886Y-107766294D01*
X97073121Y-107754602D01*
X97058579Y-107741421D01*
X97045398Y-107726879D01*
X97033706Y-107711114D01*
X97023616Y-107694279D01*
X97015224Y-107676537D01*
X97008612Y-107658057D01*
X97003843Y-107639018D01*
X97000963Y-107619603D01*
X97000000Y-107600000D01*
X97000000Y-106400000D01*
X97000963Y-106380397D01*
X97003843Y-106360982D01*
X97008612Y-106341943D01*
X97015224Y-106323463D01*
X97023616Y-106305721D01*
X97033706Y-106288886D01*
X97045398Y-106273121D01*
X97058579Y-106258579D01*
X97073121Y-106245398D01*
X97088886Y-106233706D01*
X97105721Y-106223616D01*
X97123463Y-106215224D01*
X97141943Y-106208612D01*
X97160982Y-106203843D01*
X97180397Y-106200963D01*
X97200000Y-106200000D01*
X97600000Y-106200000D01*
X97619603Y-106200963D01*
G37*
G04 #@! TD.AperFunction*
G04 #@! TA.AperFunction,SMDPad,CuDef*
G36*
X98869603Y-106200963D02*
G01*
X98889018Y-106203843D01*
X98908057Y-106208612D01*
X98926537Y-106215224D01*
X98944279Y-106223616D01*
X98961114Y-106233706D01*
X98976879Y-106245398D01*
X98991421Y-106258579D01*
X99004602Y-106273121D01*
X99016294Y-106288886D01*
X99026384Y-106305721D01*
X99034776Y-106323463D01*
X99041388Y-106341943D01*
X99046157Y-106360982D01*
X99049037Y-106380397D01*
X99050000Y-106400000D01*
X99050000Y-107600000D01*
X99049037Y-107619603D01*
X99046157Y-107639018D01*
X99041388Y-107658057D01*
X99034776Y-107676537D01*
X99026384Y-107694279D01*
X99016294Y-107711114D01*
X99004602Y-107726879D01*
X98991421Y-107741421D01*
X98976879Y-107754602D01*
X98961114Y-107766294D01*
X98944279Y-107776384D01*
X98926537Y-107784776D01*
X98908057Y-107791388D01*
X98889018Y-107796157D01*
X98869603Y-107799037D01*
X98850000Y-107800000D01*
X98450000Y-107800000D01*
X98430397Y-107799037D01*
X98410982Y-107796157D01*
X98391943Y-107791388D01*
X98373463Y-107784776D01*
X98355721Y-107776384D01*
X98338886Y-107766294D01*
X98323121Y-107754602D01*
X98308579Y-107741421D01*
X98295398Y-107726879D01*
X98283706Y-107711114D01*
X98273616Y-107694279D01*
X98265224Y-107676537D01*
X98258612Y-107658057D01*
X98253843Y-107639018D01*
X98250963Y-107619603D01*
X98250000Y-107600000D01*
X98250000Y-106400000D01*
X98250963Y-106380397D01*
X98253843Y-106360982D01*
X98258612Y-106341943D01*
X98265224Y-106323463D01*
X98273616Y-106305721D01*
X98283706Y-106288886D01*
X98295398Y-106273121D01*
X98308579Y-106258579D01*
X98323121Y-106245398D01*
X98338886Y-106233706D01*
X98355721Y-106223616D01*
X98373463Y-106215224D01*
X98391943Y-106208612D01*
X98410982Y-106203843D01*
X98430397Y-106200963D01*
X98450000Y-106200000D01*
X98850000Y-106200000D01*
X98869603Y-106200963D01*
G37*
G04 #@! TD.AperFunction*
G04 #@! TA.AperFunction,SMDPad,CuDef*
G36*
X100119603Y-106200963D02*
G01*
X100139018Y-106203843D01*
X100158057Y-106208612D01*
X100176537Y-106215224D01*
X100194279Y-106223616D01*
X100211114Y-106233706D01*
X100226879Y-106245398D01*
X100241421Y-106258579D01*
X100254602Y-106273121D01*
X100266294Y-106288886D01*
X100276384Y-106305721D01*
X100284776Y-106323463D01*
X100291388Y-106341943D01*
X100296157Y-106360982D01*
X100299037Y-106380397D01*
X100300000Y-106400000D01*
X100300000Y-107600000D01*
X100299037Y-107619603D01*
X100296157Y-107639018D01*
X100291388Y-107658057D01*
X100284776Y-107676537D01*
X100276384Y-107694279D01*
X100266294Y-107711114D01*
X100254602Y-107726879D01*
X100241421Y-107741421D01*
X100226879Y-107754602D01*
X100211114Y-107766294D01*
X100194279Y-107776384D01*
X100176537Y-107784776D01*
X100158057Y-107791388D01*
X100139018Y-107796157D01*
X100119603Y-107799037D01*
X100100000Y-107800000D01*
X99700000Y-107800000D01*
X99680397Y-107799037D01*
X99660982Y-107796157D01*
X99641943Y-107791388D01*
X99623463Y-107784776D01*
X99605721Y-107776384D01*
X99588886Y-107766294D01*
X99573121Y-107754602D01*
X99558579Y-107741421D01*
X99545398Y-107726879D01*
X99533706Y-107711114D01*
X99523616Y-107694279D01*
X99515224Y-107676537D01*
X99508612Y-107658057D01*
X99503843Y-107639018D01*
X99500963Y-107619603D01*
X99500000Y-107600000D01*
X99500000Y-106400000D01*
X99500963Y-106380397D01*
X99503843Y-106360982D01*
X99508612Y-106341943D01*
X99515224Y-106323463D01*
X99523616Y-106305721D01*
X99533706Y-106288886D01*
X99545398Y-106273121D01*
X99558579Y-106258579D01*
X99573121Y-106245398D01*
X99588886Y-106233706D01*
X99605721Y-106223616D01*
X99623463Y-106215224D01*
X99641943Y-106208612D01*
X99660982Y-106203843D01*
X99680397Y-106200963D01*
X99700000Y-106200000D01*
X100100000Y-106200000D01*
X100119603Y-106200963D01*
G37*
G04 #@! TD.AperFunction*
G04 #@! TA.AperFunction,SMDPad,CuDef*
G36*
X101369603Y-106200963D02*
G01*
X101389018Y-106203843D01*
X101408057Y-106208612D01*
X101426537Y-106215224D01*
X101444279Y-106223616D01*
X101461114Y-106233706D01*
X101476879Y-106245398D01*
X101491421Y-106258579D01*
X101504602Y-106273121D01*
X101516294Y-106288886D01*
X101526384Y-106305721D01*
X101534776Y-106323463D01*
X101541388Y-106341943D01*
X101546157Y-106360982D01*
X101549037Y-106380397D01*
X101550000Y-106400000D01*
X101550000Y-107600000D01*
X101549037Y-107619603D01*
X101546157Y-107639018D01*
X101541388Y-107658057D01*
X101534776Y-107676537D01*
X101526384Y-107694279D01*
X101516294Y-107711114D01*
X101504602Y-107726879D01*
X101491421Y-107741421D01*
X101476879Y-107754602D01*
X101461114Y-107766294D01*
X101444279Y-107776384D01*
X101426537Y-107784776D01*
X101408057Y-107791388D01*
X101389018Y-107796157D01*
X101369603Y-107799037D01*
X101350000Y-107800000D01*
X100950000Y-107800000D01*
X100930397Y-107799037D01*
X100910982Y-107796157D01*
X100891943Y-107791388D01*
X100873463Y-107784776D01*
X100855721Y-107776384D01*
X100838886Y-107766294D01*
X100823121Y-107754602D01*
X100808579Y-107741421D01*
X100795398Y-107726879D01*
X100783706Y-107711114D01*
X100773616Y-107694279D01*
X100765224Y-107676537D01*
X100758612Y-107658057D01*
X100753843Y-107639018D01*
X100750963Y-107619603D01*
X100750000Y-107600000D01*
X100750000Y-106400000D01*
X100750963Y-106380397D01*
X100753843Y-106360982D01*
X100758612Y-106341943D01*
X100765224Y-106323463D01*
X100773616Y-106305721D01*
X100783706Y-106288886D01*
X100795398Y-106273121D01*
X100808579Y-106258579D01*
X100823121Y-106245398D01*
X100838886Y-106233706D01*
X100855721Y-106223616D01*
X100873463Y-106215224D01*
X100891943Y-106208612D01*
X100910982Y-106203843D01*
X100930397Y-106200963D01*
X100950000Y-106200000D01*
X101350000Y-106200000D01*
X101369603Y-106200963D01*
G37*
G04 #@! TD.AperFunction*
G04 #@! TA.AperFunction,SMDPad,CuDef*
G36*
X102619603Y-106200963D02*
G01*
X102639018Y-106203843D01*
X102658057Y-106208612D01*
X102676537Y-106215224D01*
X102694279Y-106223616D01*
X102711114Y-106233706D01*
X102726879Y-106245398D01*
X102741421Y-106258579D01*
X102754602Y-106273121D01*
X102766294Y-106288886D01*
X102776384Y-106305721D01*
X102784776Y-106323463D01*
X102791388Y-106341943D01*
X102796157Y-106360982D01*
X102799037Y-106380397D01*
X102800000Y-106400000D01*
X102800000Y-107600000D01*
X102799037Y-107619603D01*
X102796157Y-107639018D01*
X102791388Y-107658057D01*
X102784776Y-107676537D01*
X102776384Y-107694279D01*
X102766294Y-107711114D01*
X102754602Y-107726879D01*
X102741421Y-107741421D01*
X102726879Y-107754602D01*
X102711114Y-107766294D01*
X102694279Y-107776384D01*
X102676537Y-107784776D01*
X102658057Y-107791388D01*
X102639018Y-107796157D01*
X102619603Y-107799037D01*
X102600000Y-107800000D01*
X102200000Y-107800000D01*
X102180397Y-107799037D01*
X102160982Y-107796157D01*
X102141943Y-107791388D01*
X102123463Y-107784776D01*
X102105721Y-107776384D01*
X102088886Y-107766294D01*
X102073121Y-107754602D01*
X102058579Y-107741421D01*
X102045398Y-107726879D01*
X102033706Y-107711114D01*
X102023616Y-107694279D01*
X102015224Y-107676537D01*
X102008612Y-107658057D01*
X102003843Y-107639018D01*
X102000963Y-107619603D01*
X102000000Y-107600000D01*
X102000000Y-106400000D01*
X102000963Y-106380397D01*
X102003843Y-106360982D01*
X102008612Y-106341943D01*
X102015224Y-106323463D01*
X102023616Y-106305721D01*
X102033706Y-106288886D01*
X102045398Y-106273121D01*
X102058579Y-106258579D01*
X102073121Y-106245398D01*
X102088886Y-106233706D01*
X102105721Y-106223616D01*
X102123463Y-106215224D01*
X102141943Y-106208612D01*
X102160982Y-106203843D01*
X102180397Y-106200963D01*
X102200000Y-106200000D01*
X102600000Y-106200000D01*
X102619603Y-106200963D01*
G37*
G04 #@! TD.AperFunction*
G04 #@! TA.AperFunction,SMDPad,CuDef*
G36*
X95674504Y-108401204D02*
G01*
X95698773Y-108404804D01*
X95722571Y-108410765D01*
X95745671Y-108419030D01*
X95767849Y-108429520D01*
X95788893Y-108442133D01*
X95808598Y-108456747D01*
X95826777Y-108473223D01*
X95843253Y-108491402D01*
X95857867Y-108511107D01*
X95870480Y-108532151D01*
X95880970Y-108554329D01*
X95889235Y-108577429D01*
X95895196Y-108601227D01*
X95898796Y-108625496D01*
X95900000Y-108650000D01*
X95900000Y-111150000D01*
X95898796Y-111174504D01*
X95895196Y-111198773D01*
X95889235Y-111222571D01*
X95880970Y-111245671D01*
X95870480Y-111267849D01*
X95857867Y-111288893D01*
X95843253Y-111308598D01*
X95826777Y-111326777D01*
X95808598Y-111343253D01*
X95788893Y-111357867D01*
X95767849Y-111370480D01*
X95745671Y-111380970D01*
X95722571Y-111389235D01*
X95698773Y-111395196D01*
X95674504Y-111398796D01*
X95650000Y-111400000D01*
X94050000Y-111400000D01*
X94025496Y-111398796D01*
X94001227Y-111395196D01*
X93977429Y-111389235D01*
X93954329Y-111380970D01*
X93932151Y-111370480D01*
X93911107Y-111357867D01*
X93891402Y-111343253D01*
X93873223Y-111326777D01*
X93856747Y-111308598D01*
X93842133Y-111288893D01*
X93829520Y-111267849D01*
X93819030Y-111245671D01*
X93810765Y-111222571D01*
X93804804Y-111198773D01*
X93801204Y-111174504D01*
X93800000Y-111150000D01*
X93800000Y-108650000D01*
X93801204Y-108625496D01*
X93804804Y-108601227D01*
X93810765Y-108577429D01*
X93819030Y-108554329D01*
X93829520Y-108532151D01*
X93842133Y-108511107D01*
X93856747Y-108491402D01*
X93873223Y-108473223D01*
X93891402Y-108456747D01*
X93911107Y-108442133D01*
X93932151Y-108429520D01*
X93954329Y-108419030D01*
X93977429Y-108410765D01*
X94001227Y-108404804D01*
X94025496Y-108401204D01*
X94050000Y-108400000D01*
X95650000Y-108400000D01*
X95674504Y-108401204D01*
G37*
G04 #@! TD.AperFunction*
G04 #@! TA.AperFunction,SMDPad,CuDef*
G36*
X105774504Y-108401204D02*
G01*
X105798773Y-108404804D01*
X105822571Y-108410765D01*
X105845671Y-108419030D01*
X105867849Y-108429520D01*
X105888893Y-108442133D01*
X105908598Y-108456747D01*
X105926777Y-108473223D01*
X105943253Y-108491402D01*
X105957867Y-108511107D01*
X105970480Y-108532151D01*
X105980970Y-108554329D01*
X105989235Y-108577429D01*
X105995196Y-108601227D01*
X105998796Y-108625496D01*
X106000000Y-108650000D01*
X106000000Y-111150000D01*
X105998796Y-111174504D01*
X105995196Y-111198773D01*
X105989235Y-111222571D01*
X105980970Y-111245671D01*
X105970480Y-111267849D01*
X105957867Y-111288893D01*
X105943253Y-111308598D01*
X105926777Y-111326777D01*
X105908598Y-111343253D01*
X105888893Y-111357867D01*
X105867849Y-111370480D01*
X105845671Y-111380970D01*
X105822571Y-111389235D01*
X105798773Y-111395196D01*
X105774504Y-111398796D01*
X105750000Y-111400000D01*
X104150000Y-111400000D01*
X104125496Y-111398796D01*
X104101227Y-111395196D01*
X104077429Y-111389235D01*
X104054329Y-111380970D01*
X104032151Y-111370480D01*
X104011107Y-111357867D01*
X103991402Y-111343253D01*
X103973223Y-111326777D01*
X103956747Y-111308598D01*
X103942133Y-111288893D01*
X103929520Y-111267849D01*
X103919030Y-111245671D01*
X103910765Y-111222571D01*
X103904804Y-111198773D01*
X103901204Y-111174504D01*
X103900000Y-111150000D01*
X103900000Y-108650000D01*
X103901204Y-108625496D01*
X103904804Y-108601227D01*
X103910765Y-108577429D01*
X103919030Y-108554329D01*
X103929520Y-108532151D01*
X103942133Y-108511107D01*
X103956747Y-108491402D01*
X103973223Y-108473223D01*
X103991402Y-108456747D01*
X104011107Y-108442133D01*
X104032151Y-108429520D01*
X104054329Y-108419030D01*
X104077429Y-108410765D01*
X104101227Y-108404804D01*
X104125496Y-108401204D01*
X104150000Y-108400000D01*
X105750000Y-108400000D01*
X105774504Y-108401204D01*
G37*
G04 #@! TD.AperFunction*
G04 #@! TA.AperFunction,SMDPad,CuDef*
G36*
X120644603Y-124078463D02*
G01*
X120664018Y-124081343D01*
X120683057Y-124086112D01*
X120701537Y-124092724D01*
X120719279Y-124101116D01*
X120736114Y-124111206D01*
X120751879Y-124122898D01*
X120766421Y-124136079D01*
X120779602Y-124150621D01*
X120791294Y-124166386D01*
X120801384Y-124183221D01*
X120809776Y-124200963D01*
X120816388Y-124219443D01*
X120821157Y-124238482D01*
X120824037Y-124257897D01*
X120825000Y-124277500D01*
X120825000Y-124677500D01*
X120824037Y-124697103D01*
X120821157Y-124716518D01*
X120816388Y-124735557D01*
X120809776Y-124754037D01*
X120801384Y-124771779D01*
X120791294Y-124788614D01*
X120779602Y-124804379D01*
X120766421Y-124818921D01*
X120751879Y-124832102D01*
X120736114Y-124843794D01*
X120719279Y-124853884D01*
X120701537Y-124862276D01*
X120683057Y-124868888D01*
X120664018Y-124873657D01*
X120644603Y-124876537D01*
X120625000Y-124877500D01*
X120075000Y-124877500D01*
X120055397Y-124876537D01*
X120035982Y-124873657D01*
X120016943Y-124868888D01*
X119998463Y-124862276D01*
X119980721Y-124853884D01*
X119963886Y-124843794D01*
X119948121Y-124832102D01*
X119933579Y-124818921D01*
X119920398Y-124804379D01*
X119908706Y-124788614D01*
X119898616Y-124771779D01*
X119890224Y-124754037D01*
X119883612Y-124735557D01*
X119878843Y-124716518D01*
X119875963Y-124697103D01*
X119875000Y-124677500D01*
X119875000Y-124277500D01*
X119875963Y-124257897D01*
X119878843Y-124238482D01*
X119883612Y-124219443D01*
X119890224Y-124200963D01*
X119898616Y-124183221D01*
X119908706Y-124166386D01*
X119920398Y-124150621D01*
X119933579Y-124136079D01*
X119948121Y-124122898D01*
X119963886Y-124111206D01*
X119980721Y-124101116D01*
X119998463Y-124092724D01*
X120016943Y-124086112D01*
X120035982Y-124081343D01*
X120055397Y-124078463D01*
X120075000Y-124077500D01*
X120625000Y-124077500D01*
X120644603Y-124078463D01*
G37*
G04 #@! TD.AperFunction*
G04 #@! TA.AperFunction,SMDPad,CuDef*
G36*
X120644603Y-125728463D02*
G01*
X120664018Y-125731343D01*
X120683057Y-125736112D01*
X120701537Y-125742724D01*
X120719279Y-125751116D01*
X120736114Y-125761206D01*
X120751879Y-125772898D01*
X120766421Y-125786079D01*
X120779602Y-125800621D01*
X120791294Y-125816386D01*
X120801384Y-125833221D01*
X120809776Y-125850963D01*
X120816388Y-125869443D01*
X120821157Y-125888482D01*
X120824037Y-125907897D01*
X120825000Y-125927500D01*
X120825000Y-126327500D01*
X120824037Y-126347103D01*
X120821157Y-126366518D01*
X120816388Y-126385557D01*
X120809776Y-126404037D01*
X120801384Y-126421779D01*
X120791294Y-126438614D01*
X120779602Y-126454379D01*
X120766421Y-126468921D01*
X120751879Y-126482102D01*
X120736114Y-126493794D01*
X120719279Y-126503884D01*
X120701537Y-126512276D01*
X120683057Y-126518888D01*
X120664018Y-126523657D01*
X120644603Y-126526537D01*
X120625000Y-126527500D01*
X120075000Y-126527500D01*
X120055397Y-126526537D01*
X120035982Y-126523657D01*
X120016943Y-126518888D01*
X119998463Y-126512276D01*
X119980721Y-126503884D01*
X119963886Y-126493794D01*
X119948121Y-126482102D01*
X119933579Y-126468921D01*
X119920398Y-126454379D01*
X119908706Y-126438614D01*
X119898616Y-126421779D01*
X119890224Y-126404037D01*
X119883612Y-126385557D01*
X119878843Y-126366518D01*
X119875963Y-126347103D01*
X119875000Y-126327500D01*
X119875000Y-125927500D01*
X119875963Y-125907897D01*
X119878843Y-125888482D01*
X119883612Y-125869443D01*
X119890224Y-125850963D01*
X119898616Y-125833221D01*
X119908706Y-125816386D01*
X119920398Y-125800621D01*
X119933579Y-125786079D01*
X119948121Y-125772898D01*
X119963886Y-125761206D01*
X119980721Y-125751116D01*
X119998463Y-125742724D01*
X120016943Y-125736112D01*
X120035982Y-125731343D01*
X120055397Y-125728463D01*
X120075000Y-125727500D01*
X120625000Y-125727500D01*
X120644603Y-125728463D01*
G37*
G04 #@! TD.AperFunction*
G04 #@! TA.AperFunction,SMDPad,CuDef*
G36*
X118644603Y-125423463D02*
G01*
X118664018Y-125426343D01*
X118683057Y-125431112D01*
X118701537Y-125437724D01*
X118719279Y-125446116D01*
X118736114Y-125456206D01*
X118751879Y-125467898D01*
X118766421Y-125481079D01*
X118779602Y-125495621D01*
X118791294Y-125511386D01*
X118801384Y-125528221D01*
X118809776Y-125545963D01*
X118816388Y-125564443D01*
X118821157Y-125583482D01*
X118824037Y-125602897D01*
X118825000Y-125622500D01*
X118825000Y-126022500D01*
X118824037Y-126042103D01*
X118821157Y-126061518D01*
X118816388Y-126080557D01*
X118809776Y-126099037D01*
X118801384Y-126116779D01*
X118791294Y-126133614D01*
X118779602Y-126149379D01*
X118766421Y-126163921D01*
X118751879Y-126177102D01*
X118736114Y-126188794D01*
X118719279Y-126198884D01*
X118701537Y-126207276D01*
X118683057Y-126213888D01*
X118664018Y-126218657D01*
X118644603Y-126221537D01*
X118625000Y-126222500D01*
X118075000Y-126222500D01*
X118055397Y-126221537D01*
X118035982Y-126218657D01*
X118016943Y-126213888D01*
X117998463Y-126207276D01*
X117980721Y-126198884D01*
X117963886Y-126188794D01*
X117948121Y-126177102D01*
X117933579Y-126163921D01*
X117920398Y-126149379D01*
X117908706Y-126133614D01*
X117898616Y-126116779D01*
X117890224Y-126099037D01*
X117883612Y-126080557D01*
X117878843Y-126061518D01*
X117875963Y-126042103D01*
X117875000Y-126022500D01*
X117875000Y-125622500D01*
X117875963Y-125602897D01*
X117878843Y-125583482D01*
X117883612Y-125564443D01*
X117890224Y-125545963D01*
X117898616Y-125528221D01*
X117908706Y-125511386D01*
X117920398Y-125495621D01*
X117933579Y-125481079D01*
X117948121Y-125467898D01*
X117963886Y-125456206D01*
X117980721Y-125446116D01*
X117998463Y-125437724D01*
X118016943Y-125431112D01*
X118035982Y-125426343D01*
X118055397Y-125423463D01*
X118075000Y-125422500D01*
X118625000Y-125422500D01*
X118644603Y-125423463D01*
G37*
G04 #@! TD.AperFunction*
G04 #@! TA.AperFunction,SMDPad,CuDef*
G36*
X118644603Y-123773463D02*
G01*
X118664018Y-123776343D01*
X118683057Y-123781112D01*
X118701537Y-123787724D01*
X118719279Y-123796116D01*
X118736114Y-123806206D01*
X118751879Y-123817898D01*
X118766421Y-123831079D01*
X118779602Y-123845621D01*
X118791294Y-123861386D01*
X118801384Y-123878221D01*
X118809776Y-123895963D01*
X118816388Y-123914443D01*
X118821157Y-123933482D01*
X118824037Y-123952897D01*
X118825000Y-123972500D01*
X118825000Y-124372500D01*
X118824037Y-124392103D01*
X118821157Y-124411518D01*
X118816388Y-124430557D01*
X118809776Y-124449037D01*
X118801384Y-124466779D01*
X118791294Y-124483614D01*
X118779602Y-124499379D01*
X118766421Y-124513921D01*
X118751879Y-124527102D01*
X118736114Y-124538794D01*
X118719279Y-124548884D01*
X118701537Y-124557276D01*
X118683057Y-124563888D01*
X118664018Y-124568657D01*
X118644603Y-124571537D01*
X118625000Y-124572500D01*
X118075000Y-124572500D01*
X118055397Y-124571537D01*
X118035982Y-124568657D01*
X118016943Y-124563888D01*
X117998463Y-124557276D01*
X117980721Y-124548884D01*
X117963886Y-124538794D01*
X117948121Y-124527102D01*
X117933579Y-124513921D01*
X117920398Y-124499379D01*
X117908706Y-124483614D01*
X117898616Y-124466779D01*
X117890224Y-124449037D01*
X117883612Y-124430557D01*
X117878843Y-124411518D01*
X117875963Y-124392103D01*
X117875000Y-124372500D01*
X117875000Y-123972500D01*
X117875963Y-123952897D01*
X117878843Y-123933482D01*
X117883612Y-123914443D01*
X117890224Y-123895963D01*
X117898616Y-123878221D01*
X117908706Y-123861386D01*
X117920398Y-123845621D01*
X117933579Y-123831079D01*
X117948121Y-123817898D01*
X117963886Y-123806206D01*
X117980721Y-123796116D01*
X117998463Y-123787724D01*
X118016943Y-123781112D01*
X118035982Y-123776343D01*
X118055397Y-123773463D01*
X118075000Y-123772500D01*
X118625000Y-123772500D01*
X118644603Y-123773463D01*
G37*
G04 #@! TD.AperFunction*
G04 #@! TA.AperFunction,SMDPad,CuDef*
G36*
X110492103Y-124425963D02*
G01*
X110511518Y-124428843D01*
X110530557Y-124433612D01*
X110549037Y-124440224D01*
X110566779Y-124448616D01*
X110583614Y-124458706D01*
X110599379Y-124470398D01*
X110613921Y-124483579D01*
X110627102Y-124498121D01*
X110638794Y-124513886D01*
X110648884Y-124530721D01*
X110657276Y-124548463D01*
X110663888Y-124566943D01*
X110668657Y-124585982D01*
X110671537Y-124605397D01*
X110672500Y-124625000D01*
X110672500Y-125175000D01*
X110671537Y-125194603D01*
X110668657Y-125214018D01*
X110663888Y-125233057D01*
X110657276Y-125251537D01*
X110648884Y-125269279D01*
X110638794Y-125286114D01*
X110627102Y-125301879D01*
X110613921Y-125316421D01*
X110599379Y-125329602D01*
X110583614Y-125341294D01*
X110566779Y-125351384D01*
X110549037Y-125359776D01*
X110530557Y-125366388D01*
X110511518Y-125371157D01*
X110492103Y-125374037D01*
X110472500Y-125375000D01*
X110072500Y-125375000D01*
X110052897Y-125374037D01*
X110033482Y-125371157D01*
X110014443Y-125366388D01*
X109995963Y-125359776D01*
X109978221Y-125351384D01*
X109961386Y-125341294D01*
X109945621Y-125329602D01*
X109931079Y-125316421D01*
X109917898Y-125301879D01*
X109906206Y-125286114D01*
X109896116Y-125269279D01*
X109887724Y-125251537D01*
X109881112Y-125233057D01*
X109876343Y-125214018D01*
X109873463Y-125194603D01*
X109872500Y-125175000D01*
X109872500Y-124625000D01*
X109873463Y-124605397D01*
X109876343Y-124585982D01*
X109881112Y-124566943D01*
X109887724Y-124548463D01*
X109896116Y-124530721D01*
X109906206Y-124513886D01*
X109917898Y-124498121D01*
X109931079Y-124483579D01*
X109945621Y-124470398D01*
X109961386Y-124458706D01*
X109978221Y-124448616D01*
X109995963Y-124440224D01*
X110014443Y-124433612D01*
X110033482Y-124428843D01*
X110052897Y-124425963D01*
X110072500Y-124425000D01*
X110472500Y-124425000D01*
X110492103Y-124425963D01*
G37*
G04 #@! TD.AperFunction*
G04 #@! TA.AperFunction,SMDPad,CuDef*
G36*
X108842103Y-124425963D02*
G01*
X108861518Y-124428843D01*
X108880557Y-124433612D01*
X108899037Y-124440224D01*
X108916779Y-124448616D01*
X108933614Y-124458706D01*
X108949379Y-124470398D01*
X108963921Y-124483579D01*
X108977102Y-124498121D01*
X108988794Y-124513886D01*
X108998884Y-124530721D01*
X109007276Y-124548463D01*
X109013888Y-124566943D01*
X109018657Y-124585982D01*
X109021537Y-124605397D01*
X109022500Y-124625000D01*
X109022500Y-125175000D01*
X109021537Y-125194603D01*
X109018657Y-125214018D01*
X109013888Y-125233057D01*
X109007276Y-125251537D01*
X108998884Y-125269279D01*
X108988794Y-125286114D01*
X108977102Y-125301879D01*
X108963921Y-125316421D01*
X108949379Y-125329602D01*
X108933614Y-125341294D01*
X108916779Y-125351384D01*
X108899037Y-125359776D01*
X108880557Y-125366388D01*
X108861518Y-125371157D01*
X108842103Y-125374037D01*
X108822500Y-125375000D01*
X108422500Y-125375000D01*
X108402897Y-125374037D01*
X108383482Y-125371157D01*
X108364443Y-125366388D01*
X108345963Y-125359776D01*
X108328221Y-125351384D01*
X108311386Y-125341294D01*
X108295621Y-125329602D01*
X108281079Y-125316421D01*
X108267898Y-125301879D01*
X108256206Y-125286114D01*
X108246116Y-125269279D01*
X108237724Y-125251537D01*
X108231112Y-125233057D01*
X108226343Y-125214018D01*
X108223463Y-125194603D01*
X108222500Y-125175000D01*
X108222500Y-124625000D01*
X108223463Y-124605397D01*
X108226343Y-124585982D01*
X108231112Y-124566943D01*
X108237724Y-124548463D01*
X108246116Y-124530721D01*
X108256206Y-124513886D01*
X108267898Y-124498121D01*
X108281079Y-124483579D01*
X108295621Y-124470398D01*
X108311386Y-124458706D01*
X108328221Y-124448616D01*
X108345963Y-124440224D01*
X108364443Y-124433612D01*
X108383482Y-124428843D01*
X108402897Y-124425963D01*
X108422500Y-124425000D01*
X108822500Y-124425000D01*
X108842103Y-124425963D01*
G37*
G04 #@! TD.AperFunction*
G04 #@! TA.AperFunction,SMDPad,CuDef*
G36*
X111009554Y-122926083D02*
G01*
X111031395Y-122929323D01*
X111052814Y-122934688D01*
X111073604Y-122942127D01*
X111093564Y-122951568D01*
X111112503Y-122962919D01*
X111130238Y-122976073D01*
X111146599Y-122990901D01*
X111161427Y-123007262D01*
X111174581Y-123024997D01*
X111185932Y-123043936D01*
X111195373Y-123063896D01*
X111202812Y-123084686D01*
X111208177Y-123106105D01*
X111211417Y-123127946D01*
X111212500Y-123150000D01*
X111212500Y-123650000D01*
X111211417Y-123672054D01*
X111208177Y-123693895D01*
X111202812Y-123715314D01*
X111195373Y-123736104D01*
X111185932Y-123756064D01*
X111174581Y-123775003D01*
X111161427Y-123792738D01*
X111146599Y-123809099D01*
X111130238Y-123823927D01*
X111112503Y-123837081D01*
X111093564Y-123848432D01*
X111073604Y-123857873D01*
X111052814Y-123865312D01*
X111031395Y-123870677D01*
X111009554Y-123873917D01*
X110987500Y-123875000D01*
X110537500Y-123875000D01*
X110515446Y-123873917D01*
X110493605Y-123870677D01*
X110472186Y-123865312D01*
X110451396Y-123857873D01*
X110431436Y-123848432D01*
X110412497Y-123837081D01*
X110394762Y-123823927D01*
X110378401Y-123809099D01*
X110363573Y-123792738D01*
X110350419Y-123775003D01*
X110339068Y-123756064D01*
X110329627Y-123736104D01*
X110322188Y-123715314D01*
X110316823Y-123693895D01*
X110313583Y-123672054D01*
X110312500Y-123650000D01*
X110312500Y-123150000D01*
X110313583Y-123127946D01*
X110316823Y-123106105D01*
X110322188Y-123084686D01*
X110329627Y-123063896D01*
X110339068Y-123043936D01*
X110350419Y-123024997D01*
X110363573Y-123007262D01*
X110378401Y-122990901D01*
X110394762Y-122976073D01*
X110412497Y-122962919D01*
X110431436Y-122951568D01*
X110451396Y-122942127D01*
X110472186Y-122934688D01*
X110493605Y-122929323D01*
X110515446Y-122926083D01*
X110537500Y-122925000D01*
X110987500Y-122925000D01*
X111009554Y-122926083D01*
G37*
G04 #@! TD.AperFunction*
G04 #@! TA.AperFunction,SMDPad,CuDef*
G36*
X109459554Y-122926083D02*
G01*
X109481395Y-122929323D01*
X109502814Y-122934688D01*
X109523604Y-122942127D01*
X109543564Y-122951568D01*
X109562503Y-122962919D01*
X109580238Y-122976073D01*
X109596599Y-122990901D01*
X109611427Y-123007262D01*
X109624581Y-123024997D01*
X109635932Y-123043936D01*
X109645373Y-123063896D01*
X109652812Y-123084686D01*
X109658177Y-123106105D01*
X109661417Y-123127946D01*
X109662500Y-123150000D01*
X109662500Y-123650000D01*
X109661417Y-123672054D01*
X109658177Y-123693895D01*
X109652812Y-123715314D01*
X109645373Y-123736104D01*
X109635932Y-123756064D01*
X109624581Y-123775003D01*
X109611427Y-123792738D01*
X109596599Y-123809099D01*
X109580238Y-123823927D01*
X109562503Y-123837081D01*
X109543564Y-123848432D01*
X109523604Y-123857873D01*
X109502814Y-123865312D01*
X109481395Y-123870677D01*
X109459554Y-123873917D01*
X109437500Y-123875000D01*
X108987500Y-123875000D01*
X108965446Y-123873917D01*
X108943605Y-123870677D01*
X108922186Y-123865312D01*
X108901396Y-123857873D01*
X108881436Y-123848432D01*
X108862497Y-123837081D01*
X108844762Y-123823927D01*
X108828401Y-123809099D01*
X108813573Y-123792738D01*
X108800419Y-123775003D01*
X108789068Y-123756064D01*
X108779627Y-123736104D01*
X108772188Y-123715314D01*
X108766823Y-123693895D01*
X108763583Y-123672054D01*
X108762500Y-123650000D01*
X108762500Y-123150000D01*
X108763583Y-123127946D01*
X108766823Y-123106105D01*
X108772188Y-123084686D01*
X108779627Y-123063896D01*
X108789068Y-123043936D01*
X108800419Y-123024997D01*
X108813573Y-123007262D01*
X108828401Y-122990901D01*
X108844762Y-122976073D01*
X108862497Y-122962919D01*
X108881436Y-122951568D01*
X108901396Y-122942127D01*
X108922186Y-122934688D01*
X108943605Y-122929323D01*
X108965446Y-122926083D01*
X108987500Y-122925000D01*
X109437500Y-122925000D01*
X109459554Y-122926083D01*
G37*
G04 #@! TD.AperFunction*
G04 #@! TA.AperFunction,SMDPad,CuDef*
G36*
X110959554Y-118926083D02*
G01*
X110981395Y-118929323D01*
X111002814Y-118934688D01*
X111023604Y-118942127D01*
X111043564Y-118951568D01*
X111062503Y-118962919D01*
X111080238Y-118976073D01*
X111096599Y-118990901D01*
X111111427Y-119007262D01*
X111124581Y-119024997D01*
X111135932Y-119043936D01*
X111145373Y-119063896D01*
X111152812Y-119084686D01*
X111158177Y-119106105D01*
X111161417Y-119127946D01*
X111162500Y-119150000D01*
X111162500Y-119650000D01*
X111161417Y-119672054D01*
X111158177Y-119693895D01*
X111152812Y-119715314D01*
X111145373Y-119736104D01*
X111135932Y-119756064D01*
X111124581Y-119775003D01*
X111111427Y-119792738D01*
X111096599Y-119809099D01*
X111080238Y-119823927D01*
X111062503Y-119837081D01*
X111043564Y-119848432D01*
X111023604Y-119857873D01*
X111002814Y-119865312D01*
X110981395Y-119870677D01*
X110959554Y-119873917D01*
X110937500Y-119875000D01*
X110487500Y-119875000D01*
X110465446Y-119873917D01*
X110443605Y-119870677D01*
X110422186Y-119865312D01*
X110401396Y-119857873D01*
X110381436Y-119848432D01*
X110362497Y-119837081D01*
X110344762Y-119823927D01*
X110328401Y-119809099D01*
X110313573Y-119792738D01*
X110300419Y-119775003D01*
X110289068Y-119756064D01*
X110279627Y-119736104D01*
X110272188Y-119715314D01*
X110266823Y-119693895D01*
X110263583Y-119672054D01*
X110262500Y-119650000D01*
X110262500Y-119150000D01*
X110263583Y-119127946D01*
X110266823Y-119106105D01*
X110272188Y-119084686D01*
X110279627Y-119063896D01*
X110289068Y-119043936D01*
X110300419Y-119024997D01*
X110313573Y-119007262D01*
X110328401Y-118990901D01*
X110344762Y-118976073D01*
X110362497Y-118962919D01*
X110381436Y-118951568D01*
X110401396Y-118942127D01*
X110422186Y-118934688D01*
X110443605Y-118929323D01*
X110465446Y-118926083D01*
X110487500Y-118925000D01*
X110937500Y-118925000D01*
X110959554Y-118926083D01*
G37*
G04 #@! TD.AperFunction*
G04 #@! TA.AperFunction,SMDPad,CuDef*
G36*
X112509554Y-118926083D02*
G01*
X112531395Y-118929323D01*
X112552814Y-118934688D01*
X112573604Y-118942127D01*
X112593564Y-118951568D01*
X112612503Y-118962919D01*
X112630238Y-118976073D01*
X112646599Y-118990901D01*
X112661427Y-119007262D01*
X112674581Y-119024997D01*
X112685932Y-119043936D01*
X112695373Y-119063896D01*
X112702812Y-119084686D01*
X112708177Y-119106105D01*
X112711417Y-119127946D01*
X112712500Y-119150000D01*
X112712500Y-119650000D01*
X112711417Y-119672054D01*
X112708177Y-119693895D01*
X112702812Y-119715314D01*
X112695373Y-119736104D01*
X112685932Y-119756064D01*
X112674581Y-119775003D01*
X112661427Y-119792738D01*
X112646599Y-119809099D01*
X112630238Y-119823927D01*
X112612503Y-119837081D01*
X112593564Y-119848432D01*
X112573604Y-119857873D01*
X112552814Y-119865312D01*
X112531395Y-119870677D01*
X112509554Y-119873917D01*
X112487500Y-119875000D01*
X112037500Y-119875000D01*
X112015446Y-119873917D01*
X111993605Y-119870677D01*
X111972186Y-119865312D01*
X111951396Y-119857873D01*
X111931436Y-119848432D01*
X111912497Y-119837081D01*
X111894762Y-119823927D01*
X111878401Y-119809099D01*
X111863573Y-119792738D01*
X111850419Y-119775003D01*
X111839068Y-119756064D01*
X111829627Y-119736104D01*
X111822188Y-119715314D01*
X111816823Y-119693895D01*
X111813583Y-119672054D01*
X111812500Y-119650000D01*
X111812500Y-119150000D01*
X111813583Y-119127946D01*
X111816823Y-119106105D01*
X111822188Y-119084686D01*
X111829627Y-119063896D01*
X111839068Y-119043936D01*
X111850419Y-119024997D01*
X111863573Y-119007262D01*
X111878401Y-118990901D01*
X111894762Y-118976073D01*
X111912497Y-118962919D01*
X111931436Y-118951568D01*
X111951396Y-118942127D01*
X111972186Y-118934688D01*
X111993605Y-118929323D01*
X112015446Y-118926083D01*
X112037500Y-118925000D01*
X112487500Y-118925000D01*
X112509554Y-118926083D01*
G37*
G04 #@! TD.AperFunction*
G04 #@! TA.AperFunction,SMDPad,CuDef*
G36*
X128422054Y-120500811D02*
G01*
X128443895Y-120504051D01*
X128465314Y-120509416D01*
X128486104Y-120516855D01*
X128506064Y-120526296D01*
X128525003Y-120537647D01*
X128542738Y-120550801D01*
X128559099Y-120565629D01*
X128573927Y-120581990D01*
X128587081Y-120599725D01*
X128598432Y-120618664D01*
X128607873Y-120638624D01*
X128615312Y-120659414D01*
X128620677Y-120680833D01*
X128623917Y-120702674D01*
X128625000Y-120724728D01*
X128625000Y-121174728D01*
X128623917Y-121196782D01*
X128620677Y-121218623D01*
X128615312Y-121240042D01*
X128607873Y-121260832D01*
X128598432Y-121280792D01*
X128587081Y-121299731D01*
X128573927Y-121317466D01*
X128559099Y-121333827D01*
X128542738Y-121348655D01*
X128525003Y-121361809D01*
X128506064Y-121373160D01*
X128486104Y-121382601D01*
X128465314Y-121390040D01*
X128443895Y-121395405D01*
X128422054Y-121398645D01*
X128400000Y-121399728D01*
X127900000Y-121399728D01*
X127877946Y-121398645D01*
X127856105Y-121395405D01*
X127834686Y-121390040D01*
X127813896Y-121382601D01*
X127793936Y-121373160D01*
X127774997Y-121361809D01*
X127757262Y-121348655D01*
X127740901Y-121333827D01*
X127726073Y-121317466D01*
X127712919Y-121299731D01*
X127701568Y-121280792D01*
X127692127Y-121260832D01*
X127684688Y-121240042D01*
X127679323Y-121218623D01*
X127676083Y-121196782D01*
X127675000Y-121174728D01*
X127675000Y-120724728D01*
X127676083Y-120702674D01*
X127679323Y-120680833D01*
X127684688Y-120659414D01*
X127692127Y-120638624D01*
X127701568Y-120618664D01*
X127712919Y-120599725D01*
X127726073Y-120581990D01*
X127740901Y-120565629D01*
X127757262Y-120550801D01*
X127774997Y-120537647D01*
X127793936Y-120526296D01*
X127813896Y-120516855D01*
X127834686Y-120509416D01*
X127856105Y-120504051D01*
X127877946Y-120500811D01*
X127900000Y-120499728D01*
X128400000Y-120499728D01*
X128422054Y-120500811D01*
G37*
G04 #@! TD.AperFunction*
G04 #@! TA.AperFunction,SMDPad,CuDef*
G36*
X128422054Y-118950811D02*
G01*
X128443895Y-118954051D01*
X128465314Y-118959416D01*
X128486104Y-118966855D01*
X128506064Y-118976296D01*
X128525003Y-118987647D01*
X128542738Y-119000801D01*
X128559099Y-119015629D01*
X128573927Y-119031990D01*
X128587081Y-119049725D01*
X128598432Y-119068664D01*
X128607873Y-119088624D01*
X128615312Y-119109414D01*
X128620677Y-119130833D01*
X128623917Y-119152674D01*
X128625000Y-119174728D01*
X128625000Y-119624728D01*
X128623917Y-119646782D01*
X128620677Y-119668623D01*
X128615312Y-119690042D01*
X128607873Y-119710832D01*
X128598432Y-119730792D01*
X128587081Y-119749731D01*
X128573927Y-119767466D01*
X128559099Y-119783827D01*
X128542738Y-119798655D01*
X128525003Y-119811809D01*
X128506064Y-119823160D01*
X128486104Y-119832601D01*
X128465314Y-119840040D01*
X128443895Y-119845405D01*
X128422054Y-119848645D01*
X128400000Y-119849728D01*
X127900000Y-119849728D01*
X127877946Y-119848645D01*
X127856105Y-119845405D01*
X127834686Y-119840040D01*
X127813896Y-119832601D01*
X127793936Y-119823160D01*
X127774997Y-119811809D01*
X127757262Y-119798655D01*
X127740901Y-119783827D01*
X127726073Y-119767466D01*
X127712919Y-119749731D01*
X127701568Y-119730792D01*
X127692127Y-119710832D01*
X127684688Y-119690042D01*
X127679323Y-119668623D01*
X127676083Y-119646782D01*
X127675000Y-119624728D01*
X127675000Y-119174728D01*
X127676083Y-119152674D01*
X127679323Y-119130833D01*
X127684688Y-119109414D01*
X127692127Y-119088624D01*
X127701568Y-119068664D01*
X127712919Y-119049725D01*
X127726073Y-119031990D01*
X127740901Y-119015629D01*
X127757262Y-119000801D01*
X127774997Y-118987647D01*
X127793936Y-118976296D01*
X127813896Y-118966855D01*
X127834686Y-118959416D01*
X127856105Y-118954051D01*
X127877946Y-118950811D01*
X127900000Y-118949728D01*
X128400000Y-118949728D01*
X128422054Y-118950811D01*
G37*
G04 #@! TD.AperFunction*
G04 #@! TA.AperFunction,SMDPad,CuDef*
G36*
X129930572Y-120500811D02*
G01*
X129952413Y-120504051D01*
X129973832Y-120509416D01*
X129994622Y-120516855D01*
X130014582Y-120526296D01*
X130033521Y-120537647D01*
X130051256Y-120550801D01*
X130067617Y-120565629D01*
X130082445Y-120581990D01*
X130095599Y-120599725D01*
X130106950Y-120618664D01*
X130116391Y-120638624D01*
X130123830Y-120659414D01*
X130129195Y-120680833D01*
X130132435Y-120702674D01*
X130133518Y-120724728D01*
X130133518Y-121174728D01*
X130132435Y-121196782D01*
X130129195Y-121218623D01*
X130123830Y-121240042D01*
X130116391Y-121260832D01*
X130106950Y-121280792D01*
X130095599Y-121299731D01*
X130082445Y-121317466D01*
X130067617Y-121333827D01*
X130051256Y-121348655D01*
X130033521Y-121361809D01*
X130014582Y-121373160D01*
X129994622Y-121382601D01*
X129973832Y-121390040D01*
X129952413Y-121395405D01*
X129930572Y-121398645D01*
X129908518Y-121399728D01*
X129408518Y-121399728D01*
X129386464Y-121398645D01*
X129364623Y-121395405D01*
X129343204Y-121390040D01*
X129322414Y-121382601D01*
X129302454Y-121373160D01*
X129283515Y-121361809D01*
X129265780Y-121348655D01*
X129249419Y-121333827D01*
X129234591Y-121317466D01*
X129221437Y-121299731D01*
X129210086Y-121280792D01*
X129200645Y-121260832D01*
X129193206Y-121240042D01*
X129187841Y-121218623D01*
X129184601Y-121196782D01*
X129183518Y-121174728D01*
X129183518Y-120724728D01*
X129184601Y-120702674D01*
X129187841Y-120680833D01*
X129193206Y-120659414D01*
X129200645Y-120638624D01*
X129210086Y-120618664D01*
X129221437Y-120599725D01*
X129234591Y-120581990D01*
X129249419Y-120565629D01*
X129265780Y-120550801D01*
X129283515Y-120537647D01*
X129302454Y-120526296D01*
X129322414Y-120516855D01*
X129343204Y-120509416D01*
X129364623Y-120504051D01*
X129386464Y-120500811D01*
X129408518Y-120499728D01*
X129908518Y-120499728D01*
X129930572Y-120500811D01*
G37*
G04 #@! TD.AperFunction*
G04 #@! TA.AperFunction,SMDPad,CuDef*
G36*
X129930572Y-118950811D02*
G01*
X129952413Y-118954051D01*
X129973832Y-118959416D01*
X129994622Y-118966855D01*
X130014582Y-118976296D01*
X130033521Y-118987647D01*
X130051256Y-119000801D01*
X130067617Y-119015629D01*
X130082445Y-119031990D01*
X130095599Y-119049725D01*
X130106950Y-119068664D01*
X130116391Y-119088624D01*
X130123830Y-119109414D01*
X130129195Y-119130833D01*
X130132435Y-119152674D01*
X130133518Y-119174728D01*
X130133518Y-119624728D01*
X130132435Y-119646782D01*
X130129195Y-119668623D01*
X130123830Y-119690042D01*
X130116391Y-119710832D01*
X130106950Y-119730792D01*
X130095599Y-119749731D01*
X130082445Y-119767466D01*
X130067617Y-119783827D01*
X130051256Y-119798655D01*
X130033521Y-119811809D01*
X130014582Y-119823160D01*
X129994622Y-119832601D01*
X129973832Y-119840040D01*
X129952413Y-119845405D01*
X129930572Y-119848645D01*
X129908518Y-119849728D01*
X129408518Y-119849728D01*
X129386464Y-119848645D01*
X129364623Y-119845405D01*
X129343204Y-119840040D01*
X129322414Y-119832601D01*
X129302454Y-119823160D01*
X129283515Y-119811809D01*
X129265780Y-119798655D01*
X129249419Y-119783827D01*
X129234591Y-119767466D01*
X129221437Y-119749731D01*
X129210086Y-119730792D01*
X129200645Y-119710832D01*
X129193206Y-119690042D01*
X129187841Y-119668623D01*
X129184601Y-119646782D01*
X129183518Y-119624728D01*
X129183518Y-119174728D01*
X129184601Y-119152674D01*
X129187841Y-119130833D01*
X129193206Y-119109414D01*
X129200645Y-119088624D01*
X129210086Y-119068664D01*
X129221437Y-119049725D01*
X129234591Y-119031990D01*
X129249419Y-119015629D01*
X129265780Y-119000801D01*
X129283515Y-118987647D01*
X129302454Y-118976296D01*
X129322414Y-118966855D01*
X129343204Y-118959416D01*
X129364623Y-118954051D01*
X129386464Y-118950811D01*
X129408518Y-118949728D01*
X129908518Y-118949728D01*
X129930572Y-118950811D01*
G37*
G04 #@! TD.AperFunction*
D21*
X137730000Y-130415000D03*
D22*
X130560000Y-132700000D03*
D21*
X137730000Y-134985000D03*
D23*
X111550000Y-124900000D03*
X121750000Y-122700000D03*
X120250000Y-118800000D03*
X116350000Y-106300000D03*
X133150000Y-98700000D03*
X141150000Y-135200000D03*
X129150000Y-108619350D03*
X127150000Y-125774728D03*
X124650000Y-123200000D03*
X115500000Y-134000000D03*
X105350000Y-131500000D03*
X107500000Y-130000000D03*
X107500000Y-131500000D03*
X108500000Y-130750000D03*
X109500000Y-130000000D03*
X109500000Y-131500000D03*
X97350000Y-109100000D03*
X97350000Y-111100000D03*
X98350000Y-110100000D03*
X99350000Y-111100000D03*
X99350000Y-109100000D03*
X101350000Y-111100000D03*
X101350000Y-109100000D03*
X100350000Y-110100000D03*
X105350000Y-130000000D03*
X106450000Y-130800000D03*
X128650000Y-133700000D03*
X130650000Y-133700000D03*
X132650000Y-133700000D03*
X132650000Y-132200000D03*
X130650000Y-132200000D03*
X128650000Y-132200000D03*
X130650000Y-130700000D03*
X128650000Y-130700000D03*
X132650000Y-130700000D03*
X126150000Y-91450000D03*
X127650000Y-91450000D03*
X126900000Y-90200000D03*
X126150000Y-89200000D03*
X127650000Y-89200000D03*
X134400000Y-91200000D03*
X133150000Y-91200000D03*
X113150000Y-138700000D03*
X126150000Y-130700000D03*
X123650000Y-130700000D03*
X123650000Y-132700000D03*
X126150000Y-132700000D03*
X126150000Y-134700000D03*
X123650000Y-134700000D03*
X123650000Y-136700000D03*
X126150000Y-136700000D03*
X123650000Y-138700000D03*
X126150000Y-138700000D03*
X133150000Y-136700000D03*
X128150000Y-136700000D03*
X130650000Y-136700000D03*
X128150000Y-138700000D03*
X130650000Y-138700000D03*
X133150000Y-138700000D03*
X121150000Y-105200000D03*
X127650000Y-105200000D03*
X123150000Y-105200000D03*
X125650000Y-105200000D03*
X122150000Y-103700000D03*
X124650000Y-103700000D03*
X127150000Y-103700000D03*
X121150000Y-102200000D03*
X123150000Y-102200000D03*
X125650000Y-102200000D03*
X127650000Y-102200000D03*
X122150000Y-100700000D03*
X124650000Y-100700000D03*
X127150000Y-100700000D03*
X123150000Y-99200000D03*
X125650000Y-99200000D03*
X127650000Y-99200000D03*
X127150000Y-97700000D03*
X124650000Y-97700000D03*
X127650000Y-96200000D03*
X125650000Y-96200000D03*
X127150000Y-94700000D03*
X127650000Y-93200000D03*
X126150000Y-93200000D03*
X125650000Y-94700000D03*
X112400000Y-114250000D03*
X118650000Y-114250000D03*
X115650000Y-114250000D03*
X113900000Y-114250000D03*
X113950000Y-115600000D03*
X115650000Y-115700000D03*
X118650000Y-115700000D03*
X117150000Y-114250000D03*
X117150000Y-115700000D03*
X117150000Y-116950000D03*
X118650000Y-117200000D03*
D24*
X132283518Y-122944729D02*
X132283518Y-120833518D01*
D25*
X130983518Y-117204729D02*
X132028517Y-117204729D01*
D24*
X119300000Y-121865000D02*
X119765000Y-121400000D01*
X119765000Y-121400000D02*
X121850000Y-121400000D01*
X119300000Y-122650000D02*
X119300000Y-121865000D01*
X121850000Y-121400000D02*
X122150000Y-121700000D01*
D26*
X115336000Y-123826000D02*
X115336000Y-125600000D01*
X115336000Y-123826000D02*
X115336000Y-122500000D01*
X115336000Y-123826000D02*
X116650000Y-123826000D01*
X117595000Y-122650000D02*
X118350000Y-122650000D01*
X116650000Y-123595000D02*
X117595000Y-122650000D01*
X116650000Y-123826000D02*
X116650000Y-123595000D01*
X110272500Y-124900000D02*
X110672500Y-124900000D01*
X110672500Y-124900000D02*
X111550000Y-124900000D01*
X111550000Y-124900000D02*
X111550000Y-124900000D01*
X120300000Y-122700000D02*
X120250000Y-122650000D01*
X121750000Y-122700000D02*
X120300000Y-122700000D01*
D24*
X120250000Y-123100000D02*
X120250000Y-122650000D01*
X119177500Y-124172500D02*
X120250000Y-123100000D01*
X118350000Y-124172500D02*
X119177500Y-124172500D01*
D26*
X120045000Y-125822500D02*
X120350000Y-126127500D01*
X118350000Y-125822500D02*
X120045000Y-125822500D01*
X105425000Y-102435000D02*
X105425000Y-103705000D01*
X102400000Y-105740000D02*
X102400000Y-107000000D01*
X104435000Y-103705000D02*
X102400000Y-105740000D01*
X105425000Y-103705000D02*
X104435000Y-103705000D01*
X105425000Y-99895000D02*
X105425000Y-101165000D01*
X101150000Y-103300000D02*
X101150000Y-107000000D01*
X103285000Y-101165000D02*
X101150000Y-103300000D01*
X105425000Y-101165000D02*
X103285000Y-101165000D01*
X105425000Y-96835000D02*
X105425000Y-98105000D01*
X99900000Y-102640000D02*
X99900000Y-107000000D01*
X104435000Y-98105000D02*
X99900000Y-102640000D01*
X105425000Y-98105000D02*
X104435000Y-98105000D01*
X105425000Y-94295000D02*
X105425000Y-95565000D01*
X104435000Y-95565000D02*
X105425000Y-95565000D01*
X98650000Y-101350000D02*
X104435000Y-95565000D01*
X98650000Y-107000000D02*
X98650000Y-101350000D01*
X113708470Y-93622180D02*
X114083120Y-93622180D01*
X112150000Y-95180650D02*
X113708470Y-93622180D01*
X112150000Y-96200000D02*
X112150000Y-95180650D01*
X111515000Y-96835000D02*
X112150000Y-96200000D01*
X110675000Y-96835000D02*
X111515000Y-96835000D01*
X110675000Y-93800000D02*
X110675000Y-94295000D01*
X110675000Y-92916160D02*
X110675000Y-93800000D01*
X112508980Y-91082180D02*
X110675000Y-92916160D01*
X114083120Y-91082180D02*
X112508980Y-91082180D01*
X112150000Y-100635300D02*
X114083120Y-98702180D01*
X112150000Y-101700000D02*
X112150000Y-100635300D01*
X111415000Y-102435000D02*
X112150000Y-101700000D01*
X110675000Y-102435000D02*
X111415000Y-102435000D01*
X113187820Y-96162180D02*
X114083120Y-96162180D01*
X112150000Y-99410000D02*
X112150000Y-97200000D01*
X112150000Y-97200000D02*
X113187820Y-96162180D01*
X111665000Y-99895000D02*
X112150000Y-99410000D01*
X110675000Y-99895000D02*
X111665000Y-99895000D01*
X120250000Y-119365000D02*
X120250000Y-120150000D01*
X120250000Y-118800000D02*
X120250000Y-118800000D01*
X120250000Y-118800000D02*
X120250000Y-119365000D01*
X114083120Y-106322180D02*
X116350000Y-106300000D01*
D24*
X130247680Y-98702180D02*
X133150000Y-98700000D01*
X137945000Y-135200000D02*
X137730000Y-134985000D01*
D26*
X141150000Y-135200000D02*
X137945000Y-135200000D01*
D24*
X132550000Y-124200000D02*
X132550000Y-124658247D01*
X132933518Y-122944729D02*
X132933518Y-123816482D01*
X132550000Y-124658247D02*
X132433518Y-124774729D01*
X132933518Y-123816482D02*
X132550000Y-124200000D01*
X132433518Y-126283518D02*
X132450000Y-126300000D01*
X132433518Y-124774729D02*
X132433518Y-126283518D01*
X136383518Y-120924728D02*
X136858518Y-120924728D01*
X132933518Y-122944729D02*
X132933518Y-122064727D01*
X132933518Y-122064727D02*
X134073517Y-120924728D01*
X134073517Y-120924728D02*
X136383518Y-120924728D01*
X138708517Y-120924728D02*
X139658517Y-119974728D01*
X136858518Y-120924728D02*
X138708517Y-120924728D01*
X131925000Y-113900000D02*
X131950000Y-113875000D01*
X129450000Y-113900000D02*
X131925000Y-113900000D01*
X131950000Y-113875000D02*
X131950000Y-115374728D01*
X132933518Y-116219729D02*
X132933518Y-117204729D01*
X132933518Y-115958246D02*
X132933518Y-116219729D01*
X132350000Y-115374728D02*
X132933518Y-115958246D01*
X131950000Y-115374728D02*
X132350000Y-115374728D01*
X136383518Y-119374728D02*
X136858518Y-119374728D01*
X134223515Y-119374728D02*
X136383518Y-119374728D01*
X132933518Y-118084731D02*
X134223515Y-119374728D01*
X132933518Y-117204729D02*
X132933518Y-118084731D01*
D26*
X141658518Y-127760515D02*
X141658518Y-129174728D01*
X141658518Y-125194728D02*
X141658518Y-127760515D01*
X139768518Y-123304728D02*
X141658518Y-125194728D01*
X137978518Y-123304728D02*
X139768518Y-123304728D01*
D27*
X134688519Y-123004729D02*
X134688519Y-122944729D01*
X134988518Y-123304728D02*
X134688519Y-123004729D01*
X137978518Y-123304728D02*
X134988518Y-123304728D01*
D28*
X130983518Y-124649728D02*
X130983518Y-122944729D01*
X129858518Y-125774728D02*
X130983518Y-124649728D01*
D26*
X130247680Y-107521670D02*
X129150000Y-108619350D01*
X130247680Y-106322180D02*
X130247680Y-107521670D01*
X129150000Y-108619350D02*
X129150000Y-108619350D01*
X127724728Y-125774728D02*
X127724728Y-125774728D01*
X129858518Y-125774728D02*
X127150000Y-125774728D01*
D24*
X133583518Y-123833518D02*
X133583518Y-122944729D01*
X134083518Y-124774729D02*
X133950000Y-124641211D01*
X133950000Y-124641211D02*
X133950000Y-124200000D01*
X133950000Y-124200000D02*
X133583518Y-123833518D01*
X133600000Y-117188247D02*
X133583518Y-117204729D01*
X133600000Y-115374728D02*
X133600000Y-117188247D01*
D27*
X137228517Y-117204729D02*
X134688519Y-117204729D01*
X137858518Y-116574728D02*
X137228517Y-117204729D01*
X139825010Y-114655640D02*
X139825010Y-113600000D01*
X138905921Y-115574729D02*
X139825010Y-114655640D01*
X138858517Y-115574729D02*
X138905921Y-115574729D01*
X137858518Y-116574728D02*
X138858517Y-115574729D01*
D26*
X112630000Y-134030000D02*
X112783998Y-134030000D01*
X128150000Y-120949728D02*
X129658518Y-120949728D01*
X127675000Y-120949728D02*
X128150000Y-120949728D01*
D28*
X131633518Y-121959729D02*
X131633518Y-122944729D01*
X129658518Y-120949728D02*
X130623517Y-120949728D01*
X130623517Y-120949728D02*
X131633518Y-121959729D01*
D26*
X128150000Y-120949728D02*
X128150000Y-123200000D01*
X125650000Y-123200000D02*
X125650000Y-123200000D01*
X126735787Y-123200000D02*
X128150000Y-123200000D01*
X124650000Y-123200000D02*
X126735787Y-123200000D01*
X112630000Y-134030000D02*
X115500000Y-134000000D01*
D25*
X97350000Y-106500000D02*
X97350000Y-111100000D01*
D26*
X112630000Y-138180000D02*
X113150000Y-138700000D01*
X112630000Y-136570000D02*
X112630000Y-138180000D01*
D29*
G36*
X126345861Y-88147105D02*
G01*
X128466911Y-88514221D01*
X130557182Y-89028398D01*
X132606477Y-89687128D01*
X134604852Y-90487214D01*
X136542529Y-91424741D01*
X137623000Y-92044023D01*
X137623000Y-92573000D01*
X131875737Y-92573000D01*
X131783681Y-92460829D01*
X131534797Y-92256576D01*
X131250849Y-92104802D01*
X130942746Y-92011340D01*
X130702622Y-91987690D01*
X129792738Y-91987690D01*
X129552614Y-92011340D01*
X129244511Y-92104802D01*
X128960563Y-92256576D01*
X128711679Y-92460829D01*
X128615100Y-92578511D01*
X128601399Y-92582667D01*
X128579443Y-92594403D01*
X128560197Y-92610197D01*
X128544403Y-92629443D01*
X128532667Y-92651399D01*
X128525440Y-92675224D01*
X128524037Y-92689473D01*
X128507426Y-92709713D01*
X128355652Y-92993661D01*
X128262190Y-93301764D01*
X128230632Y-93622180D01*
X128262190Y-93942596D01*
X128355652Y-94250699D01*
X128507426Y-94534647D01*
X128523000Y-94553624D01*
X128523000Y-95230736D01*
X128507426Y-95249713D01*
X128355652Y-95533661D01*
X128262190Y-95841764D01*
X128230632Y-96162180D01*
X128262190Y-96482596D01*
X128355652Y-96790699D01*
X128507426Y-97074647D01*
X128523000Y-97093624D01*
X128523000Y-97770736D01*
X128507426Y-97789713D01*
X128355652Y-98073661D01*
X128262190Y-98381764D01*
X128230632Y-98702180D01*
X128262190Y-99022596D01*
X128355652Y-99330699D01*
X128507426Y-99614647D01*
X128523000Y-99633624D01*
X128523000Y-100310736D01*
X128507426Y-100329713D01*
X128355652Y-100613661D01*
X128262190Y-100921764D01*
X128230632Y-101242180D01*
X128262190Y-101562596D01*
X128355652Y-101870699D01*
X128507426Y-102154647D01*
X128523000Y-102173624D01*
X128523000Y-102850736D01*
X128507426Y-102869713D01*
X128355652Y-103153661D01*
X128262190Y-103461764D01*
X128230632Y-103782180D01*
X128262190Y-104102596D01*
X128355652Y-104410699D01*
X128507426Y-104694647D01*
X128523000Y-104713624D01*
X128523000Y-105390736D01*
X128507426Y-105409713D01*
X128355652Y-105693661D01*
X128262190Y-106001764D01*
X128255174Y-106073000D01*
X124303766Y-106073000D01*
X124138088Y-105937032D01*
X123939522Y-105830897D01*
X123724066Y-105765539D01*
X123500000Y-105743470D01*
X123275933Y-105765539D01*
X123060477Y-105830897D01*
X122861911Y-105937032D01*
X122696234Y-106073000D01*
X122150000Y-106073000D01*
X122125224Y-106075440D01*
X122101399Y-106082667D01*
X122079443Y-106094403D01*
X122060197Y-106110197D01*
X122044403Y-106129443D01*
X122032667Y-106151399D01*
X122025440Y-106175224D01*
X122023000Y-106200000D01*
X122023000Y-108573000D01*
X120277000Y-108573000D01*
X120277000Y-101238452D01*
X125255670Y-93770447D01*
X125267383Y-93748478D01*
X125274586Y-93724646D01*
X125277000Y-93700000D01*
X125277000Y-88038165D01*
X126345861Y-88147105D01*
G37*
X126345861Y-88147105D02*
X128466911Y-88514221D01*
X130557182Y-89028398D01*
X132606477Y-89687128D01*
X134604852Y-90487214D01*
X136542529Y-91424741D01*
X137623000Y-92044023D01*
X137623000Y-92573000D01*
X131875737Y-92573000D01*
X131783681Y-92460829D01*
X131534797Y-92256576D01*
X131250849Y-92104802D01*
X130942746Y-92011340D01*
X130702622Y-91987690D01*
X129792738Y-91987690D01*
X129552614Y-92011340D01*
X129244511Y-92104802D01*
X128960563Y-92256576D01*
X128711679Y-92460829D01*
X128615100Y-92578511D01*
X128601399Y-92582667D01*
X128579443Y-92594403D01*
X128560197Y-92610197D01*
X128544403Y-92629443D01*
X128532667Y-92651399D01*
X128525440Y-92675224D01*
X128524037Y-92689473D01*
X128507426Y-92709713D01*
X128355652Y-92993661D01*
X128262190Y-93301764D01*
X128230632Y-93622180D01*
X128262190Y-93942596D01*
X128355652Y-94250699D01*
X128507426Y-94534647D01*
X128523000Y-94553624D01*
X128523000Y-95230736D01*
X128507426Y-95249713D01*
X128355652Y-95533661D01*
X128262190Y-95841764D01*
X128230632Y-96162180D01*
X128262190Y-96482596D01*
X128355652Y-96790699D01*
X128507426Y-97074647D01*
X128523000Y-97093624D01*
X128523000Y-97770736D01*
X128507426Y-97789713D01*
X128355652Y-98073661D01*
X128262190Y-98381764D01*
X128230632Y-98702180D01*
X128262190Y-99022596D01*
X128355652Y-99330699D01*
X128507426Y-99614647D01*
X128523000Y-99633624D01*
X128523000Y-100310736D01*
X128507426Y-100329713D01*
X128355652Y-100613661D01*
X128262190Y-100921764D01*
X128230632Y-101242180D01*
X128262190Y-101562596D01*
X128355652Y-101870699D01*
X128507426Y-102154647D01*
X128523000Y-102173624D01*
X128523000Y-102850736D01*
X128507426Y-102869713D01*
X128355652Y-103153661D01*
X128262190Y-103461764D01*
X128230632Y-103782180D01*
X128262190Y-104102596D01*
X128355652Y-104410699D01*
X128507426Y-104694647D01*
X128523000Y-104713624D01*
X128523000Y-105390736D01*
X128507426Y-105409713D01*
X128355652Y-105693661D01*
X128262190Y-106001764D01*
X128255174Y-106073000D01*
X124303766Y-106073000D01*
X124138088Y-105937032D01*
X123939522Y-105830897D01*
X123724066Y-105765539D01*
X123500000Y-105743470D01*
X123275933Y-105765539D01*
X123060477Y-105830897D01*
X122861911Y-105937032D01*
X122696234Y-106073000D01*
X122150000Y-106073000D01*
X122125224Y-106075440D01*
X122101399Y-106082667D01*
X122079443Y-106094403D01*
X122060197Y-106110197D01*
X122044403Y-106129443D01*
X122032667Y-106151399D01*
X122025440Y-106175224D01*
X122023000Y-106200000D01*
X122023000Y-108573000D01*
X120277000Y-108573000D01*
X120277000Y-101238452D01*
X125255670Y-93770447D01*
X125267383Y-93748478D01*
X125274586Y-93724646D01*
X125277000Y-93700000D01*
X125277000Y-88038165D01*
X126345861Y-88147105D01*
G36*
X119223000Y-113525871D02*
G01*
X119223000Y-118336401D01*
X112392563Y-115513154D01*
X112273882Y-115477201D01*
X112150000Y-115465000D01*
X112088888Y-115465000D01*
X111703788Y-115284953D01*
X111680310Y-115276670D01*
X111653627Y-115273052D01*
X108277000Y-115176577D01*
X108277000Y-113428139D01*
X119223000Y-113525871D01*
G37*
X119223000Y-113525871D02*
X119223000Y-118336401D01*
X112392563Y-115513154D01*
X112273882Y-115477201D01*
X112150000Y-115465000D01*
X112088888Y-115465000D01*
X111703788Y-115284953D01*
X111680310Y-115276670D01*
X111653627Y-115273052D01*
X108277000Y-115176577D01*
X108277000Y-113428139D01*
X119223000Y-113525871D01*
G36*
X113015000Y-122200000D02*
G01*
X113027201Y-122323882D01*
X113063336Y-122443004D01*
X113122017Y-122552787D01*
X113200987Y-122649013D01*
X113297213Y-122727983D01*
X113406996Y-122786664D01*
X113526118Y-122822799D01*
X113650000Y-122835000D01*
X118406928Y-122835000D01*
X118406928Y-123134428D01*
X118075000Y-123134428D01*
X117911500Y-123150531D01*
X117754284Y-123198222D01*
X117609392Y-123275669D01*
X117490794Y-123373000D01*
X117400000Y-123373000D01*
X117375224Y-123375440D01*
X117351399Y-123382667D01*
X117329443Y-123394403D01*
X117310197Y-123410197D01*
X117294403Y-123429443D01*
X117282667Y-123451399D01*
X117275440Y-123475224D01*
X117273000Y-123500000D01*
X117273000Y-123743171D01*
X117253031Y-123809000D01*
X117236928Y-123972500D01*
X117236928Y-124372500D01*
X117253031Y-124536000D01*
X117273000Y-124601829D01*
X117273000Y-125393171D01*
X117253031Y-125459000D01*
X117236928Y-125622500D01*
X117236928Y-126022500D01*
X117253031Y-126186000D01*
X117273000Y-126251829D01*
X117273000Y-126573000D01*
X115285000Y-126573000D01*
X115285000Y-126200000D01*
X115272799Y-126076118D01*
X115236664Y-125956996D01*
X115177983Y-125847213D01*
X115099013Y-125750987D01*
X115002787Y-125672017D01*
X114893004Y-125613336D01*
X114773882Y-125577201D01*
X114650000Y-125565000D01*
X112348711Y-125565000D01*
X112353937Y-125559774D01*
X112467205Y-125390256D01*
X112545226Y-125201898D01*
X112585000Y-125001939D01*
X112585000Y-124798061D01*
X112545226Y-124598102D01*
X112467205Y-124409744D01*
X112353937Y-124240226D01*
X112209774Y-124096063D01*
X112040256Y-123982795D01*
X111851898Y-123904774D01*
X111810291Y-123896498D01*
X111833988Y-123818377D01*
X111850572Y-123650000D01*
X111850572Y-123150000D01*
X111833988Y-122981623D01*
X111784875Y-122819717D01*
X111777000Y-122804984D01*
X111777000Y-120835000D01*
X113015000Y-120835000D01*
X113015000Y-122200000D01*
G37*
X113015000Y-122200000D02*
X113027201Y-122323882D01*
X113063336Y-122443004D01*
X113122017Y-122552787D01*
X113200987Y-122649013D01*
X113297213Y-122727983D01*
X113406996Y-122786664D01*
X113526118Y-122822799D01*
X113650000Y-122835000D01*
X118406928Y-122835000D01*
X118406928Y-123134428D01*
X118075000Y-123134428D01*
X117911500Y-123150531D01*
X117754284Y-123198222D01*
X117609392Y-123275669D01*
X117490794Y-123373000D01*
X117400000Y-123373000D01*
X117375224Y-123375440D01*
X117351399Y-123382667D01*
X117329443Y-123394403D01*
X117310197Y-123410197D01*
X117294403Y-123429443D01*
X117282667Y-123451399D01*
X117275440Y-123475224D01*
X117273000Y-123500000D01*
X117273000Y-123743171D01*
X117253031Y-123809000D01*
X117236928Y-123972500D01*
X117236928Y-124372500D01*
X117253031Y-124536000D01*
X117273000Y-124601829D01*
X117273000Y-125393171D01*
X117253031Y-125459000D01*
X117236928Y-125622500D01*
X117236928Y-126022500D01*
X117253031Y-126186000D01*
X117273000Y-126251829D01*
X117273000Y-126573000D01*
X115285000Y-126573000D01*
X115285000Y-126200000D01*
X115272799Y-126076118D01*
X115236664Y-125956996D01*
X115177983Y-125847213D01*
X115099013Y-125750987D01*
X115002787Y-125672017D01*
X114893004Y-125613336D01*
X114773882Y-125577201D01*
X114650000Y-125565000D01*
X112348711Y-125565000D01*
X112353937Y-125559774D01*
X112467205Y-125390256D01*
X112545226Y-125201898D01*
X112585000Y-125001939D01*
X112585000Y-124798061D01*
X112545226Y-124598102D01*
X112467205Y-124409744D01*
X112353937Y-124240226D01*
X112209774Y-124096063D01*
X112040256Y-123982795D01*
X111851898Y-123904774D01*
X111810291Y-123896498D01*
X111833988Y-123818377D01*
X111850572Y-123650000D01*
X111850572Y-123150000D01*
X111833988Y-122981623D01*
X111784875Y-122819717D01*
X111777000Y-122804984D01*
X111777000Y-120835000D01*
X113015000Y-120835000D01*
X113015000Y-122200000D01*
G36*
X124204388Y-87928842D02*
G01*
X124515000Y-87960500D01*
X124515000Y-89759982D01*
X124425953Y-89626714D01*
X124257902Y-89458663D01*
X124060295Y-89326626D01*
X123840726Y-89235678D01*
X123607633Y-89189313D01*
X123369973Y-89189313D01*
X123136880Y-89235678D01*
X122917311Y-89326626D01*
X122719704Y-89458663D01*
X122551653Y-89626714D01*
X122419616Y-89824321D01*
X122328668Y-90043890D01*
X122282303Y-90276983D01*
X122282303Y-90514643D01*
X122328668Y-90747736D01*
X122419616Y-90967305D01*
X122551653Y-91164912D01*
X122719704Y-91332963D01*
X122917311Y-91465000D01*
X123136880Y-91555948D01*
X123369973Y-91602313D01*
X123607633Y-91602313D01*
X123840726Y-91555948D01*
X124060295Y-91465000D01*
X124257902Y-91332963D01*
X124425953Y-91164912D01*
X124515000Y-91031644D01*
X124515000Y-93507737D01*
X119621648Y-100847765D01*
X119563336Y-100956996D01*
X119527201Y-101076118D01*
X119515000Y-101200000D01*
X119515000Y-108700000D01*
X119527201Y-108823882D01*
X119563336Y-108943004D01*
X119622017Y-109052787D01*
X119700987Y-109149013D01*
X119797213Y-109227983D01*
X119906996Y-109286664D01*
X120026118Y-109322799D01*
X120150000Y-109335000D01*
X122150000Y-109335000D01*
X122273882Y-109322799D01*
X122393004Y-109286664D01*
X122502787Y-109227983D01*
X122599013Y-109149013D01*
X122677983Y-109052787D01*
X122736664Y-108943004D01*
X122772799Y-108823882D01*
X122785000Y-108700000D01*
X122785000Y-106835000D01*
X128320555Y-106835000D01*
X128355652Y-106950699D01*
X128507426Y-107234647D01*
X128711679Y-107483531D01*
X128876186Y-107618538D01*
X128848102Y-107624124D01*
X128659744Y-107702145D01*
X128490226Y-107815413D01*
X128346063Y-107959576D01*
X128232795Y-108129094D01*
X128154774Y-108317452D01*
X128115000Y-108517411D01*
X128115000Y-108721289D01*
X128154774Y-108921248D01*
X128232795Y-109109606D01*
X128346063Y-109279124D01*
X128490226Y-109423287D01*
X128659744Y-109536555D01*
X128848102Y-109614576D01*
X129048061Y-109654350D01*
X129251939Y-109654350D01*
X129451898Y-109614576D01*
X129640256Y-109536555D01*
X129769795Y-109450000D01*
X134286928Y-109450000D01*
X134286928Y-111950000D01*
X134303992Y-112123254D01*
X134354528Y-112289850D01*
X134436595Y-112443386D01*
X134547038Y-112577962D01*
X134681614Y-112688405D01*
X134835150Y-112770472D01*
X135001746Y-112821008D01*
X135175000Y-112838072D01*
X136775000Y-112838072D01*
X136948254Y-112821008D01*
X137114850Y-112770472D01*
X137268386Y-112688405D01*
X137402962Y-112577962D01*
X137513405Y-112443386D01*
X137595472Y-112289850D01*
X137646008Y-112123254D01*
X137663072Y-111950000D01*
X137663072Y-109450000D01*
X137646008Y-109276746D01*
X137595472Y-109110150D01*
X137513405Y-108956614D01*
X137402962Y-108822038D01*
X137268386Y-108711595D01*
X137114850Y-108629528D01*
X136948254Y-108578992D01*
X136775000Y-108561928D01*
X135175000Y-108561928D01*
X135001746Y-108578992D01*
X134835150Y-108629528D01*
X134681614Y-108711595D01*
X134547038Y-108822038D01*
X134436595Y-108956614D01*
X134354528Y-109110150D01*
X134303992Y-109276746D01*
X134286928Y-109450000D01*
X129769795Y-109450000D01*
X129809774Y-109423287D01*
X129953937Y-109279124D01*
X130067205Y-109109606D01*
X130145226Y-108921248D01*
X130156535Y-108864393D01*
X130842729Y-108178200D01*
X130876497Y-108150487D01*
X130906396Y-108114056D01*
X130962890Y-108045218D01*
X130987091Y-108015729D01*
X131048436Y-107900959D01*
X131250849Y-107839558D01*
X131534797Y-107687784D01*
X131783681Y-107483531D01*
X131987934Y-107234647D01*
X132139708Y-106950699D01*
X132233170Y-106642596D01*
X132264728Y-106322180D01*
X132233170Y-106001764D01*
X132139708Y-105693661D01*
X131987934Y-105409713D01*
X131783681Y-105160829D01*
X131651291Y-105052180D01*
X131783681Y-104943531D01*
X131987934Y-104694647D01*
X132139708Y-104410699D01*
X132233170Y-104102596D01*
X132264728Y-103782180D01*
X132233170Y-103461764D01*
X132139708Y-103153661D01*
X131987934Y-102869713D01*
X131783681Y-102620829D01*
X131651291Y-102512180D01*
X131783681Y-102403531D01*
X131987934Y-102154647D01*
X132139708Y-101870699D01*
X132233170Y-101562596D01*
X132264728Y-101242180D01*
X132233170Y-100921764D01*
X132139708Y-100613661D01*
X131987934Y-100329713D01*
X131783681Y-100080829D01*
X131651291Y-99972180D01*
X131783681Y-99863531D01*
X131987934Y-99614647D01*
X132083530Y-99435800D01*
X132421835Y-99435546D01*
X132490226Y-99503937D01*
X132659744Y-99617205D01*
X132848102Y-99695226D01*
X133048061Y-99735000D01*
X133251939Y-99735000D01*
X133451898Y-99695226D01*
X133640256Y-99617205D01*
X133809774Y-99503937D01*
X133953937Y-99359774D01*
X134067205Y-99190256D01*
X134145226Y-99001898D01*
X134185000Y-98801939D01*
X134185000Y-98598061D01*
X134145226Y-98398102D01*
X134067205Y-98209744D01*
X133953937Y-98040226D01*
X133809774Y-97896063D01*
X133640256Y-97782795D01*
X133451898Y-97704774D01*
X133251939Y-97665000D01*
X133048061Y-97665000D01*
X132848102Y-97704774D01*
X132659744Y-97782795D01*
X132490226Y-97896063D01*
X132420741Y-97965548D01*
X132082056Y-97965803D01*
X131987934Y-97789713D01*
X131783681Y-97540829D01*
X131651291Y-97432180D01*
X131783681Y-97323531D01*
X131987934Y-97074647D01*
X132012270Y-97029117D01*
X135915000Y-97029117D01*
X135915000Y-97370883D01*
X135981675Y-97706081D01*
X136112463Y-98021831D01*
X136302337Y-98305998D01*
X136544002Y-98547663D01*
X136828169Y-98737537D01*
X137143919Y-98868325D01*
X137479117Y-98935000D01*
X137820883Y-98935000D01*
X138156081Y-98868325D01*
X138471831Y-98737537D01*
X138755998Y-98547663D01*
X138997663Y-98305998D01*
X139187537Y-98021831D01*
X139318325Y-97706081D01*
X139385000Y-97370883D01*
X139385000Y-97029117D01*
X139318325Y-96693919D01*
X139187537Y-96378169D01*
X138997663Y-96094002D01*
X138755998Y-95852337D01*
X138471831Y-95662463D01*
X138156081Y-95531675D01*
X137820883Y-95465000D01*
X137479117Y-95465000D01*
X137143919Y-95531675D01*
X136828169Y-95662463D01*
X136544002Y-95852337D01*
X136302337Y-96094002D01*
X136112463Y-96378169D01*
X135981675Y-96693919D01*
X135915000Y-97029117D01*
X132012270Y-97029117D01*
X132139708Y-96790699D01*
X132233170Y-96482596D01*
X132264728Y-96162180D01*
X132233170Y-95841764D01*
X132139708Y-95533661D01*
X131987934Y-95249713D01*
X131783681Y-95000829D01*
X131534797Y-94796576D01*
X131250849Y-94644802D01*
X130942746Y-94551340D01*
X130702622Y-94527690D01*
X129792738Y-94527690D01*
X129552614Y-94551340D01*
X129285000Y-94632520D01*
X129285000Y-93335000D01*
X137750000Y-93335000D01*
X137873882Y-93322799D01*
X137993004Y-93286664D01*
X138102787Y-93227983D01*
X138199013Y-93149013D01*
X138277983Y-93052787D01*
X138336664Y-92943004D01*
X138372799Y-92823882D01*
X138385000Y-92700000D01*
X138385000Y-92480771D01*
X138410100Y-92495157D01*
X140198440Y-93693232D01*
X141898860Y-95013144D01*
X143503077Y-96448467D01*
X145003238Y-97992172D01*
X146392079Y-99636782D01*
X147663396Y-101375062D01*
X148084620Y-102040000D01*
X135335581Y-102040000D01*
X135302613Y-102043247D01*
X135289633Y-102043247D01*
X135280468Y-102044210D01*
X135086518Y-102065965D01*
X135028019Y-102078400D01*
X134969325Y-102090022D01*
X134960522Y-102092747D01*
X134774491Y-102151760D01*
X134719509Y-102175326D01*
X134664206Y-102198120D01*
X134656100Y-102202503D01*
X134485075Y-102296525D01*
X134435752Y-102330298D01*
X134385894Y-102363423D01*
X134378794Y-102369297D01*
X134229288Y-102494747D01*
X134187443Y-102537477D01*
X134144987Y-102579638D01*
X134139163Y-102586780D01*
X134016872Y-102738880D01*
X133984114Y-102788939D01*
X133950669Y-102838523D01*
X133946343Y-102846660D01*
X133855923Y-103019616D01*
X133833535Y-103075028D01*
X133810331Y-103130228D01*
X133807668Y-103139050D01*
X133752565Y-103326276D01*
X133741360Y-103385014D01*
X133729328Y-103443628D01*
X133728429Y-103452800D01*
X133710741Y-103647161D01*
X133711158Y-103706943D01*
X133710740Y-103766801D01*
X133711640Y-103775972D01*
X133732041Y-103970069D01*
X133744068Y-104028658D01*
X133755277Y-104087423D01*
X133757941Y-104096245D01*
X133815653Y-104282683D01*
X133838838Y-104337838D01*
X133861242Y-104393291D01*
X133865568Y-104401427D01*
X133958393Y-104573104D01*
X133991846Y-104622699D01*
X134024600Y-104672753D01*
X134030424Y-104679894D01*
X134154828Y-104830272D01*
X134197263Y-104872411D01*
X134239126Y-104915161D01*
X134246227Y-104921034D01*
X134397469Y-105044384D01*
X134447277Y-105077477D01*
X134496651Y-105111284D01*
X134504757Y-105115667D01*
X134677080Y-105207292D01*
X134732392Y-105230090D01*
X134787366Y-105253652D01*
X134796169Y-105256377D01*
X134983006Y-105312786D01*
X135041686Y-105324405D01*
X135100196Y-105336842D01*
X135109361Y-105337805D01*
X135303594Y-105356850D01*
X135303598Y-105356850D01*
X135335581Y-105360000D01*
X149942321Y-105360000D01*
X150664932Y-106953856D01*
X151414838Y-108971564D01*
X152022172Y-111036676D01*
X152483970Y-113139114D01*
X152797986Y-115268651D01*
X152962688Y-117414904D01*
X152977273Y-119567427D01*
X152841671Y-121715715D01*
X152556543Y-123849310D01*
X152123277Y-125957813D01*
X151543980Y-128030977D01*
X150821487Y-130058656D01*
X149959306Y-132031006D01*
X148961638Y-133938413D01*
X147833346Y-135771583D01*
X146579924Y-137521584D01*
X145207497Y-139179870D01*
X143722719Y-140738398D01*
X142132852Y-142189547D01*
X140445626Y-143526262D01*
X138669265Y-144742025D01*
X136812419Y-145830917D01*
X134884150Y-146787624D01*
X132893837Y-147607493D01*
X130851186Y-148286526D01*
X128766136Y-148821420D01*
X126648852Y-149209565D01*
X124509658Y-149449068D01*
X122358960Y-149538767D01*
X120207248Y-149478221D01*
X118065001Y-149267728D01*
X115942647Y-148908310D01*
X113850554Y-148401724D01*
X111798883Y-147750432D01*
X109797637Y-146957606D01*
X107856576Y-146027115D01*
X106100623Y-145029117D01*
X120415000Y-145029117D01*
X120415000Y-145370883D01*
X120481675Y-145706081D01*
X120612463Y-146021831D01*
X120802337Y-146305998D01*
X121044002Y-146547663D01*
X121328169Y-146737537D01*
X121643919Y-146868325D01*
X121979117Y-146935000D01*
X122320883Y-146935000D01*
X122656081Y-146868325D01*
X122971831Y-146737537D01*
X123255998Y-146547663D01*
X123497663Y-146305998D01*
X123687537Y-146021831D01*
X123818325Y-145706081D01*
X123885000Y-145370883D01*
X123885000Y-145029117D01*
X123818325Y-144693919D01*
X123687537Y-144378169D01*
X123497663Y-144094002D01*
X123255998Y-143852337D01*
X122971831Y-143662463D01*
X122656081Y-143531675D01*
X122320883Y-143465000D01*
X121979117Y-143465000D01*
X121643919Y-143531675D01*
X121328169Y-143662463D01*
X121044002Y-143852337D01*
X120802337Y-144094002D01*
X120612463Y-144378169D01*
X120481675Y-144693919D01*
X120415000Y-145029117D01*
X106100623Y-145029117D01*
X105985150Y-144963488D01*
X104192477Y-143771908D01*
X102487289Y-142458178D01*
X100877904Y-141028706D01*
X99372150Y-139490449D01*
X97977365Y-137850899D01*
X96700356Y-136118060D01*
X95547326Y-134300352D01*
X94523897Y-132406627D01*
X93635073Y-130446156D01*
X93209090Y-129300000D01*
X104065000Y-129300000D01*
X104065000Y-132300000D01*
X104077201Y-132423882D01*
X104113336Y-132543004D01*
X104172017Y-132652787D01*
X104250987Y-132749013D01*
X104347213Y-132827983D01*
X104456996Y-132886664D01*
X104576118Y-132922799D01*
X104700000Y-132935000D01*
X110599556Y-132935000D01*
X110588815Y-132943815D01*
X110509463Y-133040506D01*
X110450498Y-133150820D01*
X110414188Y-133270518D01*
X110401928Y-133395000D01*
X110401928Y-134665000D01*
X110414188Y-134789482D01*
X110450498Y-134909180D01*
X110509463Y-135019494D01*
X110588815Y-135116185D01*
X110685506Y-135195537D01*
X110795820Y-135254502D01*
X110915518Y-135290812D01*
X111008808Y-135300000D01*
X110915518Y-135309188D01*
X110795820Y-135345498D01*
X110685506Y-135404463D01*
X110588815Y-135483815D01*
X110509463Y-135580506D01*
X110450498Y-135690820D01*
X110414188Y-135810518D01*
X110401928Y-135935000D01*
X110401928Y-137205000D01*
X110414188Y-137329482D01*
X110450498Y-137449180D01*
X110509463Y-137559494D01*
X110588815Y-137656185D01*
X110685506Y-137735537D01*
X110795820Y-137794502D01*
X110915518Y-137830812D01*
X111040000Y-137843072D01*
X111745001Y-137843072D01*
X111745001Y-138136521D01*
X111740719Y-138180000D01*
X111757805Y-138353490D01*
X111808412Y-138520313D01*
X111890590Y-138674059D01*
X111973468Y-138775046D01*
X111973471Y-138775049D01*
X112001184Y-138808817D01*
X112034952Y-138836530D01*
X112143465Y-138945043D01*
X112154774Y-139001898D01*
X112232795Y-139190256D01*
X112346063Y-139359774D01*
X112490226Y-139503937D01*
X112659744Y-139617205D01*
X112848102Y-139695226D01*
X113048061Y-139735000D01*
X113251939Y-139735000D01*
X113451898Y-139695226D01*
X113640256Y-139617205D01*
X113809774Y-139503937D01*
X113953937Y-139359774D01*
X114067205Y-139190256D01*
X114145226Y-139001898D01*
X114185000Y-138801939D01*
X114185000Y-138598061D01*
X114145226Y-138398102D01*
X114067205Y-138209744D01*
X113953937Y-138040226D01*
X113809774Y-137896063D01*
X113730467Y-137843072D01*
X114220000Y-137843072D01*
X114344482Y-137830812D01*
X114464180Y-137794502D01*
X114574494Y-137735537D01*
X114671185Y-137656185D01*
X114750537Y-137559494D01*
X114809502Y-137449180D01*
X114845812Y-137329482D01*
X114858072Y-137205000D01*
X114858072Y-135935000D01*
X114845812Y-135810518D01*
X114809502Y-135690820D01*
X114750537Y-135580506D01*
X114671185Y-135483815D01*
X114574494Y-135404463D01*
X114464180Y-135345498D01*
X114344482Y-135309188D01*
X114251192Y-135300000D01*
X114344482Y-135290812D01*
X114464180Y-135254502D01*
X114574494Y-135195537D01*
X114671185Y-135116185D01*
X114750537Y-135019494D01*
X114809502Y-134909180D01*
X114814649Y-134892212D01*
X114969910Y-134890589D01*
X115009744Y-134917205D01*
X115198102Y-134995226D01*
X115398061Y-135035000D01*
X115601939Y-135035000D01*
X115801898Y-134995226D01*
X115990256Y-134917205D01*
X116159774Y-134803937D01*
X116303937Y-134659774D01*
X116417205Y-134490256D01*
X116495226Y-134301898D01*
X116535000Y-134101939D01*
X116535000Y-133898061D01*
X116495226Y-133698102D01*
X116417205Y-133509744D01*
X116303937Y-133340226D01*
X116159774Y-133196063D01*
X115990256Y-133082795D01*
X115801898Y-133004774D01*
X115601939Y-132965000D01*
X115398061Y-132965000D01*
X115198102Y-133004774D01*
X115009744Y-133082795D01*
X114953062Y-133120669D01*
X114794273Y-133122329D01*
X114750537Y-133040506D01*
X114671185Y-132943815D01*
X114639722Y-132917994D01*
X114743004Y-132886664D01*
X114852787Y-132827983D01*
X114949013Y-132749013D01*
X115027983Y-132652787D01*
X115086664Y-132543004D01*
X115122799Y-132423882D01*
X115135000Y-132300000D01*
X115135000Y-129300000D01*
X115125152Y-129200000D01*
X121515000Y-129200000D01*
X121515000Y-140200000D01*
X121527201Y-140323882D01*
X121563336Y-140443004D01*
X121622017Y-140552787D01*
X121700987Y-140649013D01*
X121797213Y-140727983D01*
X121906996Y-140786664D01*
X122026118Y-140822799D01*
X122150000Y-140835000D01*
X134150000Y-140835000D01*
X134273882Y-140822799D01*
X134393004Y-140786664D01*
X134502787Y-140727983D01*
X134599013Y-140649013D01*
X134677983Y-140552787D01*
X134736664Y-140443004D01*
X134772799Y-140323882D01*
X134785000Y-140200000D01*
X134785000Y-134185000D01*
X135591928Y-134185000D01*
X135591928Y-135785000D01*
X135604188Y-135909482D01*
X135640498Y-136029180D01*
X135699463Y-136139494D01*
X135778815Y-136236185D01*
X135875506Y-136315537D01*
X135985820Y-136374502D01*
X136105518Y-136410812D01*
X136230000Y-136423072D01*
X139230000Y-136423072D01*
X139354482Y-136410812D01*
X139474180Y-136374502D01*
X139584494Y-136315537D01*
X139681185Y-136236185D01*
X139760537Y-136139494D01*
X139789665Y-136085000D01*
X140611546Y-136085000D01*
X140659744Y-136117205D01*
X140848102Y-136195226D01*
X141048061Y-136235000D01*
X141251939Y-136235000D01*
X141451898Y-136195226D01*
X141640256Y-136117205D01*
X141809774Y-136003937D01*
X141953937Y-135859774D01*
X142067205Y-135690256D01*
X142145226Y-135501898D01*
X142185000Y-135301939D01*
X142185000Y-135098061D01*
X142145226Y-134898102D01*
X142067205Y-134709744D01*
X141953937Y-134540226D01*
X141809774Y-134396063D01*
X141640256Y-134282795D01*
X141451898Y-134204774D01*
X141251939Y-134165000D01*
X141048061Y-134165000D01*
X140848102Y-134204774D01*
X140659744Y-134282795D01*
X140611546Y-134315000D01*
X139868072Y-134315000D01*
X139868072Y-134185000D01*
X139855812Y-134060518D01*
X139819502Y-133940820D01*
X139760537Y-133830506D01*
X139681185Y-133733815D01*
X139584494Y-133654463D01*
X139474180Y-133595498D01*
X139354482Y-133559188D01*
X139230000Y-133546928D01*
X136230000Y-133546928D01*
X136105518Y-133559188D01*
X135985820Y-133595498D01*
X135875506Y-133654463D01*
X135778815Y-133733815D01*
X135699463Y-133830506D01*
X135640498Y-133940820D01*
X135604188Y-134060518D01*
X135591928Y-134185000D01*
X134785000Y-134185000D01*
X134785000Y-129200000D01*
X134772799Y-129076118D01*
X134736664Y-128956996D01*
X134677983Y-128847213D01*
X134599013Y-128750987D01*
X134502787Y-128672017D01*
X134393004Y-128613336D01*
X134273882Y-128577201D01*
X134150000Y-128565000D01*
X122150000Y-128565000D01*
X122026118Y-128577201D01*
X121906996Y-128613336D01*
X121797213Y-128672017D01*
X121700987Y-128750987D01*
X121622017Y-128847213D01*
X121563336Y-128956996D01*
X121527201Y-129076118D01*
X121515000Y-129200000D01*
X115125152Y-129200000D01*
X115122799Y-129176118D01*
X115110377Y-129135166D01*
X115177983Y-129052787D01*
X115236664Y-128943004D01*
X115272799Y-128823882D01*
X115285000Y-128700000D01*
X115285000Y-127335000D01*
X117400000Y-127335000D01*
X117523882Y-127322799D01*
X117643004Y-127286664D01*
X117752787Y-127227983D01*
X117849013Y-127149013D01*
X117927983Y-127052787D01*
X117986664Y-126943004D01*
X118013506Y-126854516D01*
X118075000Y-126860572D01*
X118625000Y-126860572D01*
X118788500Y-126844469D01*
X118945716Y-126796778D01*
X119090608Y-126719331D01*
X119105024Y-126707500D01*
X119332410Y-126707500D01*
X119378169Y-126793108D01*
X119482394Y-126920106D01*
X119609392Y-127024331D01*
X119754284Y-127101778D01*
X119911500Y-127149469D01*
X120075000Y-127165572D01*
X120625000Y-127165572D01*
X120788500Y-127149469D01*
X120945716Y-127101778D01*
X121090608Y-127024331D01*
X121217606Y-126920106D01*
X121321831Y-126793108D01*
X121399278Y-126648216D01*
X121446969Y-126491000D01*
X121463072Y-126327500D01*
X121463072Y-125927500D01*
X121446969Y-125764000D01*
X121399278Y-125606784D01*
X121321831Y-125461892D01*
X121217606Y-125334894D01*
X121090608Y-125230669D01*
X120945716Y-125153222D01*
X120788500Y-125105531D01*
X120625000Y-125089428D01*
X120546783Y-125089428D01*
X120539059Y-125083089D01*
X120385313Y-125000911D01*
X120218490Y-124950305D01*
X120088477Y-124937500D01*
X120088469Y-124937500D01*
X120045000Y-124933219D01*
X120001531Y-124937500D01*
X119240262Y-124937500D01*
X119269391Y-124902006D01*
X119321585Y-124896865D01*
X119460133Y-124854837D01*
X119587820Y-124786587D01*
X119699738Y-124694738D01*
X119722758Y-124666688D01*
X120517617Y-123871829D01*
X120629482Y-123860812D01*
X120749180Y-123824502D01*
X120859494Y-123765537D01*
X120956185Y-123686185D01*
X121035537Y-123589494D01*
X121037939Y-123585000D01*
X121211546Y-123585000D01*
X121259744Y-123617205D01*
X121448102Y-123695226D01*
X121648061Y-123735000D01*
X121851939Y-123735000D01*
X122051898Y-123695226D01*
X122240256Y-123617205D01*
X122409774Y-123503937D01*
X122553937Y-123359774D01*
X122667205Y-123190256D01*
X122705393Y-123098061D01*
X123615000Y-123098061D01*
X123615000Y-123301939D01*
X123654774Y-123501898D01*
X123732795Y-123690256D01*
X123846063Y-123859774D01*
X123990226Y-124003937D01*
X124159744Y-124117205D01*
X124348102Y-124195226D01*
X124548061Y-124235000D01*
X124751939Y-124235000D01*
X124951898Y-124195226D01*
X125140256Y-124117205D01*
X125188454Y-124085000D01*
X126774941Y-124085000D01*
X126880013Y-124242252D01*
X127107748Y-124469987D01*
X127375537Y-124648918D01*
X127673088Y-124772168D01*
X127988967Y-124835000D01*
X128311033Y-124835000D01*
X128552061Y-124787057D01*
X128483459Y-124889728D01*
X127688454Y-124889728D01*
X127640256Y-124857523D01*
X127451898Y-124779502D01*
X127251939Y-124739728D01*
X127048061Y-124739728D01*
X126848102Y-124779502D01*
X126659744Y-124857523D01*
X126490226Y-124970791D01*
X126346063Y-125114954D01*
X126232795Y-125284472D01*
X126154774Y-125472830D01*
X126115000Y-125672789D01*
X126115000Y-125876667D01*
X126154774Y-126076626D01*
X126232795Y-126264984D01*
X126346063Y-126434502D01*
X126490226Y-126578665D01*
X126659744Y-126691933D01*
X126848102Y-126769954D01*
X127048061Y-126809728D01*
X127251939Y-126809728D01*
X127451898Y-126769954D01*
X127640256Y-126691933D01*
X127688454Y-126659728D01*
X128483459Y-126659728D01*
X128588531Y-126816980D01*
X128816266Y-127044715D01*
X129084055Y-127223646D01*
X129381606Y-127346896D01*
X129697485Y-127409728D01*
X130019551Y-127409728D01*
X130335430Y-127346896D01*
X130632981Y-127223646D01*
X130900770Y-127044715D01*
X131128505Y-126816980D01*
X131307436Y-126549191D01*
X131336928Y-126477991D01*
X131336928Y-126525000D01*
X131353512Y-126693377D01*
X131402625Y-126855283D01*
X131482382Y-127004497D01*
X131589716Y-127135284D01*
X131720503Y-127242618D01*
X131869717Y-127322375D01*
X132031623Y-127371488D01*
X132200000Y-127388072D01*
X132700000Y-127388072D01*
X132868377Y-127371488D01*
X133030283Y-127322375D01*
X133179497Y-127242618D01*
X133310284Y-127135284D01*
X133417618Y-127004497D01*
X133497375Y-126855283D01*
X133546488Y-126693377D01*
X133563072Y-126525000D01*
X133563072Y-126075000D01*
X133546488Y-125906623D01*
X133532263Y-125859729D01*
X133680562Y-125859729D01*
X133720018Y-125871698D01*
X133883518Y-125887801D01*
X134283518Y-125887801D01*
X134447018Y-125871698D01*
X134604234Y-125824007D01*
X134749126Y-125746560D01*
X134876124Y-125642335D01*
X134980349Y-125515337D01*
X135057796Y-125370445D01*
X135105487Y-125213229D01*
X135121590Y-125049729D01*
X135121590Y-125035000D01*
X135539674Y-125035000D01*
X135527201Y-125076118D01*
X135515000Y-125200000D01*
X135515000Y-131700000D01*
X135527201Y-131823882D01*
X135563336Y-131943004D01*
X135622017Y-132052787D01*
X135700987Y-132149013D01*
X135797213Y-132227983D01*
X135906996Y-132286664D01*
X136026118Y-132322799D01*
X136150000Y-132335000D01*
X139650000Y-132335000D01*
X139773882Y-132322799D01*
X139893004Y-132286664D01*
X140002787Y-132227983D01*
X140099013Y-132149013D01*
X140177983Y-132052787D01*
X140236664Y-131943004D01*
X140272799Y-131823882D01*
X140285000Y-131700000D01*
X140285000Y-130062035D01*
X140388531Y-130216980D01*
X140616266Y-130444715D01*
X140884055Y-130623646D01*
X141181606Y-130746896D01*
X141497485Y-130809728D01*
X141819551Y-130809728D01*
X142135430Y-130746896D01*
X142432981Y-130623646D01*
X142700770Y-130444715D01*
X142928505Y-130216980D01*
X143107436Y-129949191D01*
X143230686Y-129651640D01*
X143293518Y-129335761D01*
X143293518Y-129013695D01*
X143230686Y-128697816D01*
X143107436Y-128400265D01*
X142928505Y-128132476D01*
X142700770Y-127904741D01*
X142543518Y-127799669D01*
X142543518Y-125238197D01*
X142547799Y-125194728D01*
X142543518Y-125151259D01*
X142543518Y-125151251D01*
X142530713Y-125021238D01*
X142510055Y-124953139D01*
X142480107Y-124854414D01*
X142397929Y-124700669D01*
X142315050Y-124599681D01*
X142315048Y-124599679D01*
X142287335Y-124565911D01*
X142253568Y-124538199D01*
X140885000Y-123169632D01*
X140885000Y-121700000D01*
X140872799Y-121576118D01*
X140836664Y-121456996D01*
X140777983Y-121347213D01*
X140699013Y-121250987D01*
X140695588Y-121248177D01*
X140700769Y-121244715D01*
X140928504Y-121016980D01*
X141107435Y-120749191D01*
X141230685Y-120451640D01*
X141293517Y-120135761D01*
X141293517Y-119813695D01*
X141230685Y-119497816D01*
X141107435Y-119200265D01*
X140928504Y-118932476D01*
X140831028Y-118835000D01*
X141150000Y-118835000D01*
X141273882Y-118822799D01*
X141393004Y-118786664D01*
X141502787Y-118727983D01*
X141599013Y-118649013D01*
X141677983Y-118552787D01*
X141736664Y-118443004D01*
X141772799Y-118323882D01*
X141785000Y-118200000D01*
X141785000Y-112838072D01*
X143125000Y-112838072D01*
X143298254Y-112821008D01*
X143464850Y-112770472D01*
X143618386Y-112688405D01*
X143752962Y-112577962D01*
X143863405Y-112443386D01*
X143945472Y-112289850D01*
X143996008Y-112123254D01*
X144013072Y-111950000D01*
X144013072Y-109450000D01*
X143996008Y-109276746D01*
X143945472Y-109110150D01*
X143863405Y-108956614D01*
X143752962Y-108822038D01*
X143618386Y-108711595D01*
X143464850Y-108629528D01*
X143298254Y-108578992D01*
X143125000Y-108561928D01*
X141525000Y-108561928D01*
X141351746Y-108578992D01*
X141185150Y-108629528D01*
X141031614Y-108711595D01*
X140897038Y-108822038D01*
X140786595Y-108956614D01*
X140704528Y-109110150D01*
X140653992Y-109276746D01*
X140636928Y-109450000D01*
X140636928Y-111565000D01*
X139150000Y-111565000D01*
X139026118Y-111577201D01*
X138906996Y-111613336D01*
X138797213Y-111672017D01*
X138700987Y-111750987D01*
X138622017Y-111847213D01*
X138563336Y-111956996D01*
X138527201Y-112076118D01*
X138515000Y-112200000D01*
X138515000Y-113319592D01*
X138509327Y-113338294D01*
X138490010Y-113534421D01*
X138490010Y-114065000D01*
X134150000Y-114065000D01*
X134026118Y-114077201D01*
X133906996Y-114113336D01*
X133797213Y-114172017D01*
X133700987Y-114250987D01*
X133692231Y-114261656D01*
X133400000Y-114261656D01*
X133236500Y-114277759D01*
X133197044Y-114289728D01*
X133040011Y-114289728D01*
X133046488Y-114268377D01*
X133063072Y-114100000D01*
X133063072Y-113650000D01*
X133046488Y-113481623D01*
X132997375Y-113319717D01*
X132917618Y-113170503D01*
X132810284Y-113039716D01*
X132679497Y-112932382D01*
X132530283Y-112852625D01*
X132368377Y-112803512D01*
X132200000Y-112786928D01*
X131700000Y-112786928D01*
X131531623Y-112803512D01*
X131369717Y-112852625D01*
X131220503Y-112932382D01*
X131089716Y-113039716D01*
X130986898Y-113165000D01*
X130915264Y-113165000D01*
X130898918Y-113125537D01*
X130719987Y-112857748D01*
X130492252Y-112630013D01*
X130224463Y-112451082D01*
X129926912Y-112327832D01*
X129611033Y-112265000D01*
X129288967Y-112265000D01*
X128973088Y-112327832D01*
X128675537Y-112451082D01*
X128407748Y-112630013D01*
X128180013Y-112857748D01*
X128001082Y-113125537D01*
X127877832Y-113423088D01*
X127815000Y-113738967D01*
X127815000Y-114061033D01*
X127877832Y-114376912D01*
X128001082Y-114674463D01*
X128180013Y-114942252D01*
X128407748Y-115169987D01*
X128675537Y-115348918D01*
X128973088Y-115472168D01*
X129288967Y-115535000D01*
X129611033Y-115535000D01*
X129926912Y-115472168D01*
X130224463Y-115348918D01*
X130492252Y-115169987D01*
X130719987Y-114942252D01*
X130898918Y-114674463D01*
X130915264Y-114635000D01*
X131027932Y-114635000D01*
X131042930Y-114653275D01*
X130975722Y-114779012D01*
X130928031Y-114936228D01*
X130911928Y-115099728D01*
X130911928Y-115649728D01*
X130928031Y-115813228D01*
X130975722Y-115970444D01*
X131053169Y-116115336D01*
X131157394Y-116242334D01*
X131284392Y-116346559D01*
X131429284Y-116424006D01*
X131586500Y-116471697D01*
X131750000Y-116487800D01*
X132090446Y-116487800D01*
X132090446Y-117989729D01*
X132102706Y-118114211D01*
X132139016Y-118233909D01*
X132197981Y-118344223D01*
X132277333Y-118440914D01*
X132300781Y-118460157D01*
X132319432Y-118495051D01*
X132411281Y-118606969D01*
X132439326Y-118629985D01*
X133678261Y-119868921D01*
X133701277Y-119896966D01*
X133813195Y-119988815D01*
X133940882Y-120057065D01*
X134079430Y-120099093D01*
X134187410Y-120109728D01*
X134187419Y-120109728D01*
X134223514Y-120113283D01*
X134259609Y-120109728D01*
X135915933Y-120109728D01*
X135948760Y-120149728D01*
X135915933Y-120189728D01*
X134109621Y-120189728D01*
X134073516Y-120186172D01*
X133929431Y-120200363D01*
X133890084Y-120212299D01*
X133790884Y-120242391D01*
X133663197Y-120310641D01*
X133551279Y-120402490D01*
X133528263Y-120430535D01*
X132439326Y-121519473D01*
X132411281Y-121542489D01*
X132378588Y-121582325D01*
X132331154Y-121493583D01*
X132301128Y-121456996D01*
X132226809Y-121366438D01*
X132194946Y-121340289D01*
X131242963Y-120388307D01*
X131216808Y-120356437D01*
X131089663Y-120252092D01*
X130944604Y-120174556D01*
X130787206Y-120126810D01*
X130664536Y-120114728D01*
X130664535Y-120114728D01*
X130623517Y-120110688D01*
X130582499Y-120114728D01*
X130519035Y-120114728D01*
X130518802Y-120114444D01*
X130388015Y-120007110D01*
X130238801Y-119927353D01*
X130076895Y-119878240D01*
X129908518Y-119861656D01*
X129408518Y-119861656D01*
X129240141Y-119878240D01*
X129078235Y-119927353D01*
X128929021Y-120007110D01*
X128904259Y-120027432D01*
X128879497Y-120007110D01*
X128730283Y-119927353D01*
X128568377Y-119878240D01*
X128400000Y-119861656D01*
X127900000Y-119861656D01*
X127731623Y-119878240D01*
X127569717Y-119927353D01*
X127420503Y-120007110D01*
X127289716Y-120114444D01*
X127234552Y-120181662D01*
X127180941Y-120210317D01*
X127046183Y-120320911D01*
X126935589Y-120455669D01*
X126853411Y-120609415D01*
X126802805Y-120776238D01*
X126785718Y-120949728D01*
X126802805Y-121123218D01*
X126853411Y-121290041D01*
X126935589Y-121443787D01*
X127046183Y-121578545D01*
X127180941Y-121689139D01*
X127234552Y-121717794D01*
X127265000Y-121754896D01*
X127265000Y-121824940D01*
X127107748Y-121930013D01*
X126880013Y-122157748D01*
X126774941Y-122315000D01*
X125188454Y-122315000D01*
X125140256Y-122282795D01*
X124951898Y-122204774D01*
X124751939Y-122165000D01*
X124548061Y-122165000D01*
X124348102Y-122204774D01*
X124159744Y-122282795D01*
X123990226Y-122396063D01*
X123846063Y-122540226D01*
X123732795Y-122709744D01*
X123654774Y-122898102D01*
X123615000Y-123098061D01*
X122705393Y-123098061D01*
X122745226Y-123001898D01*
X122785000Y-122801939D01*
X122785000Y-122598061D01*
X122745226Y-122398102D01*
X122667205Y-122209744D01*
X122553937Y-122040226D01*
X122409774Y-121896063D01*
X122240256Y-121782795D01*
X122051898Y-121704774D01*
X121851939Y-121665000D01*
X121648061Y-121665000D01*
X121448102Y-121704774D01*
X121259744Y-121782795D01*
X121211546Y-121815000D01*
X121091391Y-121815000D01*
X121035537Y-121710506D01*
X120956185Y-121613815D01*
X120859494Y-121534463D01*
X120749180Y-121475498D01*
X120629482Y-121439188D01*
X120505000Y-121426928D01*
X120285000Y-121426928D01*
X120285000Y-121373072D01*
X120505000Y-121373072D01*
X120629482Y-121360812D01*
X120749180Y-121324502D01*
X120859494Y-121265537D01*
X120956185Y-121186185D01*
X121035537Y-121089494D01*
X121094502Y-120979180D01*
X121130812Y-120859482D01*
X121143072Y-120735000D01*
X121143072Y-119565000D01*
X121135000Y-119483041D01*
X121135000Y-119338454D01*
X121167205Y-119290256D01*
X121245226Y-119101898D01*
X121285000Y-118901939D01*
X121285000Y-118698061D01*
X121245226Y-118498102D01*
X121167205Y-118309744D01*
X121053937Y-118140226D01*
X120909774Y-117996063D01*
X120740256Y-117882795D01*
X120551898Y-117804774D01*
X120351939Y-117765000D01*
X120148061Y-117765000D01*
X119985000Y-117797435D01*
X119985000Y-113400000D01*
X119973880Y-113281683D01*
X119938810Y-113162244D01*
X119881112Y-113051941D01*
X119803004Y-112955014D01*
X119707487Y-112875188D01*
X119598232Y-112815529D01*
X119479438Y-112778332D01*
X119355669Y-112765025D01*
X108155669Y-112665025D01*
X108026118Y-112677201D01*
X107906996Y-112713336D01*
X107797213Y-112772017D01*
X107700987Y-112850987D01*
X107622017Y-112947213D01*
X107563336Y-113056996D01*
X107527201Y-113176118D01*
X107515000Y-113300000D01*
X107515000Y-115300000D01*
X107523917Y-115406045D01*
X107556636Y-115526150D01*
X107612157Y-115637564D01*
X107660617Y-115700178D01*
X107622017Y-115747213D01*
X107563336Y-115856996D01*
X107527201Y-115976118D01*
X107515000Y-116100000D01*
X107515000Y-118700000D01*
X107527201Y-118823882D01*
X107563336Y-118943004D01*
X107622017Y-119052787D01*
X107700987Y-119149013D01*
X107797213Y-119227983D01*
X107906996Y-119286664D01*
X108026118Y-119322799D01*
X108150000Y-119335000D01*
X111015000Y-119335000D01*
X111015000Y-120200000D01*
X111027201Y-120323882D01*
X111063336Y-120443004D01*
X111067075Y-120450000D01*
X111063336Y-120456996D01*
X111027201Y-120576118D01*
X111015000Y-120700000D01*
X111015000Y-123991273D01*
X110938108Y-123928169D01*
X110793216Y-123850722D01*
X110785000Y-123848230D01*
X110785000Y-120700000D01*
X110772799Y-120576118D01*
X110736664Y-120456996D01*
X110677983Y-120347213D01*
X110599013Y-120250987D01*
X110502787Y-120172017D01*
X110393004Y-120113336D01*
X110273882Y-120077201D01*
X110150000Y-120065000D01*
X107150000Y-120065000D01*
X107026118Y-120077201D01*
X106906996Y-120113336D01*
X106797213Y-120172017D01*
X106700987Y-120250987D01*
X106622017Y-120347213D01*
X106563336Y-120456996D01*
X106527201Y-120576118D01*
X106515000Y-120700000D01*
X106515000Y-128665000D01*
X104700000Y-128665000D01*
X104576118Y-128677201D01*
X104456996Y-128713336D01*
X104347213Y-128772017D01*
X104250987Y-128850987D01*
X104172017Y-128947213D01*
X104113336Y-129056996D01*
X104077201Y-129176118D01*
X104065000Y-129300000D01*
X93209090Y-129300000D01*
X92885163Y-128428440D01*
X92277830Y-126363335D01*
X91816030Y-124260884D01*
X91502013Y-122131336D01*
X91366082Y-120360000D01*
X103698419Y-120360000D01*
X103731387Y-120356753D01*
X103744367Y-120356753D01*
X103753532Y-120355790D01*
X103947481Y-120334035D01*
X104005966Y-120321603D01*
X104064676Y-120309978D01*
X104073479Y-120307253D01*
X104259509Y-120248240D01*
X104314519Y-120224662D01*
X104369794Y-120201880D01*
X104377900Y-120197497D01*
X104548925Y-120103475D01*
X104598264Y-120069692D01*
X104648106Y-120036577D01*
X104655206Y-120030703D01*
X104804712Y-119905253D01*
X104846557Y-119862523D01*
X104889013Y-119820362D01*
X104894837Y-119813220D01*
X105017128Y-119661121D01*
X105049887Y-119611059D01*
X105083331Y-119561477D01*
X105087657Y-119553340D01*
X105178077Y-119380385D01*
X105200475Y-119324947D01*
X105223669Y-119269772D01*
X105226332Y-119260950D01*
X105281435Y-119073725D01*
X105292633Y-119015017D01*
X105304672Y-118956372D01*
X105305570Y-118947201D01*
X105323259Y-118752839D01*
X105322842Y-118693057D01*
X105323260Y-118633199D01*
X105322360Y-118624028D01*
X105301959Y-118429931D01*
X105289934Y-118371348D01*
X105278723Y-118312577D01*
X105276059Y-118303755D01*
X105218347Y-118117317D01*
X105195162Y-118062162D01*
X105172758Y-118006709D01*
X105168432Y-117998573D01*
X105075607Y-117826896D01*
X105042139Y-117777278D01*
X105009400Y-117727247D01*
X105003576Y-117720106D01*
X104879172Y-117569728D01*
X104836737Y-117527589D01*
X104794874Y-117484839D01*
X104787773Y-117478966D01*
X104636531Y-117355616D01*
X104586738Y-117322534D01*
X104537349Y-117288716D01*
X104529243Y-117284333D01*
X104356921Y-117192708D01*
X104301606Y-117169909D01*
X104246634Y-117146348D01*
X104237831Y-117143623D01*
X104050995Y-117087214D01*
X103992307Y-117075594D01*
X103933804Y-117063158D01*
X103924639Y-117062195D01*
X103730405Y-117043150D01*
X103730402Y-117043150D01*
X103698419Y-117040000D01*
X91371341Y-117040000D01*
X91469285Y-115572969D01*
X91762152Y-113440403D01*
X92203065Y-111333469D01*
X92789876Y-109262428D01*
X93519733Y-107237347D01*
X94389063Y-105268133D01*
X95393650Y-103364344D01*
X96528585Y-101535276D01*
X97788347Y-99789831D01*
X99166812Y-98136495D01*
X100657226Y-96583370D01*
X102252360Y-95137985D01*
X103944431Y-93807392D01*
X104059815Y-93729035D01*
X104045498Y-93755820D01*
X104009188Y-93875518D01*
X103996928Y-94000000D01*
X103996928Y-94590000D01*
X104009188Y-94714482D01*
X104028668Y-94778699D01*
X103940941Y-94825589D01*
X103940939Y-94825590D01*
X103940940Y-94825590D01*
X103839953Y-94908468D01*
X103839951Y-94908470D01*
X103806183Y-94936183D01*
X103778470Y-94969951D01*
X98054952Y-100693470D01*
X98021184Y-100721183D01*
X97993471Y-100754951D01*
X97993468Y-100754954D01*
X97910590Y-100855941D01*
X97828412Y-101009687D01*
X97777805Y-101176510D01*
X97760719Y-101350000D01*
X97765001Y-101393479D01*
X97765000Y-105439818D01*
X97572498Y-105381423D01*
X97350000Y-105359509D01*
X97127501Y-105381423D01*
X96913553Y-105446324D01*
X96716377Y-105551716D01*
X96543551Y-105693551D01*
X96401716Y-105866377D01*
X96296324Y-106063554D01*
X96231423Y-106277502D01*
X96215000Y-106444249D01*
X96215000Y-107970367D01*
X96143386Y-107911595D01*
X95989850Y-107829528D01*
X95823254Y-107778992D01*
X95650000Y-107761928D01*
X94050000Y-107761928D01*
X93876746Y-107778992D01*
X93710150Y-107829528D01*
X93556614Y-107911595D01*
X93422038Y-108022038D01*
X93311595Y-108156614D01*
X93229528Y-108310150D01*
X93178992Y-108476746D01*
X93161928Y-108650000D01*
X93161928Y-111150000D01*
X93178992Y-111323254D01*
X93229528Y-111489850D01*
X93311595Y-111643386D01*
X93422038Y-111777962D01*
X93556614Y-111888405D01*
X93710150Y-111970472D01*
X93876746Y-112021008D01*
X94050000Y-112038072D01*
X95650000Y-112038072D01*
X95823254Y-112021008D01*
X95989850Y-111970472D01*
X96143386Y-111888405D01*
X96250454Y-111800537D01*
X96263336Y-111843004D01*
X96322017Y-111952787D01*
X96400987Y-112049013D01*
X96497213Y-112127983D01*
X96606996Y-112186664D01*
X96726118Y-112222799D01*
X96850000Y-112235000D01*
X97294249Y-112235000D01*
X97350000Y-112240491D01*
X97405752Y-112235000D01*
X101850000Y-112235000D01*
X101973882Y-112222799D01*
X102093004Y-112186664D01*
X102202787Y-112127983D01*
X102299013Y-112049013D01*
X102377983Y-111952787D01*
X102436664Y-111843004D01*
X102472799Y-111723882D01*
X102485000Y-111600000D01*
X102485000Y-108650000D01*
X103261928Y-108650000D01*
X103261928Y-111150000D01*
X103278992Y-111323254D01*
X103329528Y-111489850D01*
X103411595Y-111643386D01*
X103522038Y-111777962D01*
X103656614Y-111888405D01*
X103810150Y-111970472D01*
X103976746Y-112021008D01*
X104150000Y-112038072D01*
X105750000Y-112038072D01*
X105923254Y-112021008D01*
X106089850Y-111970472D01*
X106243386Y-111888405D01*
X106377962Y-111777962D01*
X106488405Y-111643386D01*
X106570472Y-111489850D01*
X106621008Y-111323254D01*
X106638072Y-111150000D01*
X106638072Y-108729117D01*
X108215000Y-108729117D01*
X108215000Y-109070883D01*
X108281675Y-109406081D01*
X108412463Y-109721831D01*
X108602337Y-110005998D01*
X108844002Y-110247663D01*
X109128169Y-110437537D01*
X109443919Y-110568325D01*
X109779117Y-110635000D01*
X110120883Y-110635000D01*
X110456081Y-110568325D01*
X110771831Y-110437537D01*
X111055998Y-110247663D01*
X111297663Y-110005998D01*
X111487537Y-109721831D01*
X111618325Y-109406081D01*
X111685000Y-109070883D01*
X111685000Y-108729117D01*
X111618325Y-108393919D01*
X111487537Y-108078169D01*
X111297663Y-107794002D01*
X111055998Y-107552337D01*
X110771831Y-107362463D01*
X110456081Y-107231675D01*
X110120883Y-107165000D01*
X109779117Y-107165000D01*
X109443919Y-107231675D01*
X109128169Y-107362463D01*
X108844002Y-107552337D01*
X108602337Y-107794002D01*
X108412463Y-108078169D01*
X108281675Y-108393919D01*
X108215000Y-108729117D01*
X106638072Y-108729117D01*
X106638072Y-108650000D01*
X106621008Y-108476746D01*
X106570472Y-108310150D01*
X106488405Y-108156614D01*
X106377962Y-108022038D01*
X106243386Y-107911595D01*
X106089850Y-107829528D01*
X105923254Y-107778992D01*
X105750000Y-107761928D01*
X104150000Y-107761928D01*
X103976746Y-107778992D01*
X103810150Y-107829528D01*
X103656614Y-107911595D01*
X103522038Y-108022038D01*
X103411595Y-108156614D01*
X103329528Y-108310150D01*
X103278992Y-108476746D01*
X103261928Y-108650000D01*
X102485000Y-108650000D01*
X102485000Y-108600000D01*
X102472799Y-108476118D01*
X102461258Y-108438072D01*
X102600000Y-108438072D01*
X102763500Y-108421969D01*
X102920716Y-108374278D01*
X103065608Y-108296831D01*
X103192606Y-108192606D01*
X103296831Y-108065608D01*
X103374278Y-107920716D01*
X103421969Y-107763500D01*
X103438072Y-107600000D01*
X103438072Y-106400000D01*
X103421969Y-106236500D01*
X103374278Y-106079284D01*
X103352687Y-106038891D01*
X104753507Y-104638072D01*
X106215000Y-104638072D01*
X106339482Y-104625812D01*
X106459180Y-104589502D01*
X106569494Y-104530537D01*
X106666185Y-104451185D01*
X106745537Y-104354494D01*
X106804502Y-104244180D01*
X106840812Y-104124482D01*
X106853072Y-104000000D01*
X106853072Y-103410000D01*
X106840812Y-103285518D01*
X106804502Y-103165820D01*
X106753284Y-103070000D01*
X106804502Y-102974180D01*
X106840812Y-102854482D01*
X106853072Y-102730000D01*
X106853072Y-102140000D01*
X106840812Y-102015518D01*
X106804502Y-101895820D01*
X106753284Y-101800000D01*
X106804502Y-101704180D01*
X106840812Y-101584482D01*
X106853072Y-101460000D01*
X106853072Y-100870000D01*
X106840812Y-100745518D01*
X106804502Y-100625820D01*
X106753284Y-100530000D01*
X106804502Y-100434180D01*
X106840812Y-100314482D01*
X106853072Y-100190000D01*
X106853072Y-99600000D01*
X106840812Y-99475518D01*
X106804502Y-99355820D01*
X106745537Y-99245506D01*
X106666185Y-99148815D01*
X106569494Y-99069463D01*
X106459180Y-99010498D01*
X106424573Y-99000000D01*
X106459180Y-98989502D01*
X106569494Y-98930537D01*
X106666185Y-98851185D01*
X106745537Y-98754494D01*
X106804502Y-98644180D01*
X106840812Y-98524482D01*
X106853072Y-98400000D01*
X106853072Y-97810000D01*
X106840812Y-97685518D01*
X106804502Y-97565820D01*
X106753284Y-97470000D01*
X106804502Y-97374180D01*
X106840812Y-97254482D01*
X106853072Y-97130000D01*
X106853072Y-96540000D01*
X106840812Y-96415518D01*
X106804502Y-96295820D01*
X106753284Y-96200000D01*
X106804502Y-96104180D01*
X106840812Y-95984482D01*
X106853072Y-95860000D01*
X106853072Y-95270000D01*
X106840812Y-95145518D01*
X106804502Y-95025820D01*
X106753284Y-94930000D01*
X106804502Y-94834180D01*
X106840812Y-94714482D01*
X106853072Y-94590000D01*
X106853072Y-94000000D01*
X109246928Y-94000000D01*
X109246928Y-94590000D01*
X109259188Y-94714482D01*
X109295498Y-94834180D01*
X109354463Y-94944494D01*
X109433815Y-95041185D01*
X109530506Y-95120537D01*
X109640820Y-95179502D01*
X109760518Y-95215812D01*
X109885000Y-95228072D01*
X111265001Y-95228072D01*
X111265000Y-95833421D01*
X111196494Y-95901928D01*
X109885000Y-95901928D01*
X109760518Y-95914188D01*
X109640820Y-95950498D01*
X109530506Y-96009463D01*
X109433815Y-96088815D01*
X109354463Y-96185506D01*
X109295498Y-96295820D01*
X109259188Y-96415518D01*
X109246928Y-96540000D01*
X109246928Y-97130000D01*
X109259188Y-97254482D01*
X109295498Y-97374180D01*
X109354463Y-97484494D01*
X109433815Y-97581185D01*
X109530506Y-97660537D01*
X109640820Y-97719502D01*
X109760518Y-97755812D01*
X109885000Y-97768072D01*
X111265001Y-97768072D01*
X111265000Y-98961928D01*
X109885000Y-98961928D01*
X109760518Y-98974188D01*
X109640820Y-99010498D01*
X109530506Y-99069463D01*
X109433815Y-99148815D01*
X109354463Y-99245506D01*
X109295498Y-99355820D01*
X109259188Y-99475518D01*
X109246928Y-99600000D01*
X109246928Y-100190000D01*
X109259188Y-100314482D01*
X109295498Y-100434180D01*
X109354463Y-100544494D01*
X109433815Y-100641185D01*
X109530506Y-100720537D01*
X109640820Y-100779502D01*
X109760518Y-100815812D01*
X109885000Y-100828072D01*
X111265001Y-100828072D01*
X111265000Y-101333421D01*
X111096494Y-101501928D01*
X109885000Y-101501928D01*
X109760518Y-101514188D01*
X109640820Y-101550498D01*
X109530506Y-101609463D01*
X109433815Y-101688815D01*
X109354463Y-101785506D01*
X109295498Y-101895820D01*
X109259188Y-102015518D01*
X109246928Y-102140000D01*
X109246928Y-102730000D01*
X109259188Y-102854482D01*
X109295498Y-102974180D01*
X109354463Y-103084494D01*
X109433815Y-103181185D01*
X109530506Y-103260537D01*
X109640820Y-103319502D01*
X109760518Y-103355812D01*
X109885000Y-103368072D01*
X111465000Y-103368072D01*
X111589482Y-103355812D01*
X111709180Y-103319502D01*
X111819494Y-103260537D01*
X111916185Y-103181185D01*
X111947913Y-103142524D01*
X112043817Y-103063817D01*
X112071534Y-103030044D01*
X112630016Y-102471563D01*
X112679509Y-102512180D01*
X112547119Y-102620829D01*
X112342866Y-102869713D01*
X112191092Y-103153661D01*
X112097630Y-103461764D01*
X112066072Y-103782180D01*
X112097630Y-104102596D01*
X112191092Y-104410699D01*
X112342866Y-104694647D01*
X112547119Y-104943531D01*
X112679509Y-105052180D01*
X112547119Y-105160829D01*
X112342866Y-105409713D01*
X112191092Y-105693661D01*
X112097630Y-106001764D01*
X112066072Y-106322180D01*
X112097630Y-106642596D01*
X112191092Y-106950699D01*
X112342866Y-107234647D01*
X112547119Y-107483531D01*
X112796003Y-107687784D01*
X113079951Y-107839558D01*
X113388054Y-107933020D01*
X113628178Y-107956670D01*
X114538062Y-107956670D01*
X114778186Y-107933020D01*
X115086289Y-107839558D01*
X115370237Y-107687784D01*
X115619121Y-107483531D01*
X115823374Y-107234647D01*
X115839815Y-107203889D01*
X115859744Y-107217205D01*
X116048102Y-107295226D01*
X116248061Y-107335000D01*
X116451939Y-107335000D01*
X116651898Y-107295226D01*
X116840256Y-107217205D01*
X117009774Y-107103937D01*
X117153937Y-106959774D01*
X117267205Y-106790256D01*
X117345226Y-106601898D01*
X117385000Y-106401939D01*
X117385000Y-106198061D01*
X117345226Y-105998102D01*
X117267205Y-105809744D01*
X117153937Y-105640226D01*
X117009774Y-105496063D01*
X116840256Y-105382795D01*
X116651898Y-105304774D01*
X116451939Y-105265000D01*
X116248061Y-105265000D01*
X116048102Y-105304774D01*
X115859744Y-105382795D01*
X115821987Y-105408023D01*
X115619121Y-105160829D01*
X115486731Y-105052180D01*
X115619121Y-104943531D01*
X115823374Y-104694647D01*
X115975148Y-104410699D01*
X116068610Y-104102596D01*
X116100168Y-103782180D01*
X116068610Y-103461764D01*
X115975148Y-103153661D01*
X115823374Y-102869713D01*
X115619121Y-102620829D01*
X115486731Y-102512180D01*
X115619121Y-102403531D01*
X115823374Y-102154647D01*
X115975148Y-101870699D01*
X116068610Y-101562596D01*
X116100168Y-101242180D01*
X116068610Y-100921764D01*
X115975148Y-100613661D01*
X115823374Y-100329713D01*
X115619121Y-100080829D01*
X115486731Y-99972180D01*
X115619121Y-99863531D01*
X115823374Y-99614647D01*
X115975148Y-99330699D01*
X116068610Y-99022596D01*
X116100168Y-98702180D01*
X116068610Y-98381764D01*
X115975148Y-98073661D01*
X115823374Y-97789713D01*
X115619121Y-97540829D01*
X115486731Y-97432180D01*
X115619121Y-97323531D01*
X115823374Y-97074647D01*
X115975148Y-96790699D01*
X116068610Y-96482596D01*
X116100168Y-96162180D01*
X116068610Y-95841764D01*
X115975148Y-95533661D01*
X115823374Y-95249713D01*
X115619121Y-95000829D01*
X115486731Y-94892180D01*
X115619121Y-94783531D01*
X115823374Y-94534647D01*
X115975148Y-94250699D01*
X116068610Y-93942596D01*
X116100168Y-93622180D01*
X116068610Y-93301764D01*
X115975148Y-92993661D01*
X115880712Y-92816983D01*
X119742303Y-92816983D01*
X119742303Y-93054643D01*
X119788668Y-93287736D01*
X119879616Y-93507305D01*
X120011653Y-93704912D01*
X120179704Y-93872963D01*
X120377311Y-94005000D01*
X120596880Y-94095948D01*
X120829973Y-94142313D01*
X121067633Y-94142313D01*
X121300726Y-94095948D01*
X121520295Y-94005000D01*
X121717902Y-93872963D01*
X121885953Y-93704912D01*
X122017990Y-93507305D01*
X122108938Y-93287736D01*
X122155303Y-93054643D01*
X122155303Y-92816983D01*
X122108938Y-92583890D01*
X122017990Y-92364321D01*
X121885953Y-92166714D01*
X121717902Y-91998663D01*
X121520295Y-91866626D01*
X121300726Y-91775678D01*
X121067633Y-91729313D01*
X120829973Y-91729313D01*
X120596880Y-91775678D01*
X120377311Y-91866626D01*
X120179704Y-91998663D01*
X120011653Y-92166714D01*
X119879616Y-92364321D01*
X119788668Y-92583890D01*
X119742303Y-92816983D01*
X115880712Y-92816983D01*
X115823374Y-92709713D01*
X115619121Y-92460829D01*
X115486731Y-92352180D01*
X115619121Y-92243531D01*
X115823374Y-91994647D01*
X115975148Y-91710699D01*
X116068610Y-91402596D01*
X116100168Y-91082180D01*
X116068610Y-90761764D01*
X115975148Y-90453661D01*
X115880712Y-90276983D01*
X119742303Y-90276983D01*
X119742303Y-90514643D01*
X119788668Y-90747736D01*
X119879616Y-90967305D01*
X120011653Y-91164912D01*
X120179704Y-91332963D01*
X120377311Y-91465000D01*
X120596880Y-91555948D01*
X120829973Y-91602313D01*
X121067633Y-91602313D01*
X121300726Y-91555948D01*
X121520295Y-91465000D01*
X121717902Y-91332963D01*
X121885953Y-91164912D01*
X122017990Y-90967305D01*
X122108938Y-90747736D01*
X122155303Y-90514643D01*
X122155303Y-90276983D01*
X122108938Y-90043890D01*
X122017990Y-89824321D01*
X121885953Y-89626714D01*
X121717902Y-89458663D01*
X121520295Y-89326626D01*
X121300726Y-89235678D01*
X121067633Y-89189313D01*
X120829973Y-89189313D01*
X120596880Y-89235678D01*
X120377311Y-89326626D01*
X120179704Y-89458663D01*
X120011653Y-89626714D01*
X119879616Y-89824321D01*
X119788668Y-90043890D01*
X119742303Y-90276983D01*
X115880712Y-90276983D01*
X115823374Y-90169713D01*
X115619121Y-89920829D01*
X115370237Y-89716576D01*
X115086289Y-89564802D01*
X114778186Y-89471340D01*
X114538062Y-89447690D01*
X113628178Y-89447690D01*
X113388054Y-89471340D01*
X113079951Y-89564802D01*
X112796003Y-89716576D01*
X112547119Y-89920829D01*
X112342866Y-90169713D01*
X112318602Y-90215108D01*
X112168667Y-90260591D01*
X112014921Y-90342769D01*
X112006109Y-90350001D01*
X111913933Y-90425648D01*
X111913931Y-90425650D01*
X111880163Y-90453363D01*
X111852450Y-90487131D01*
X110079956Y-92259626D01*
X110046183Y-92287343D01*
X109935589Y-92422102D01*
X109853411Y-92575848D01*
X109826101Y-92665876D01*
X109802805Y-92742670D01*
X109801790Y-92752977D01*
X109790000Y-92872684D01*
X109790000Y-92872691D01*
X109785719Y-92916160D01*
X109790000Y-92959629D01*
X109790000Y-93371284D01*
X109760518Y-93374188D01*
X109640820Y-93410498D01*
X109530506Y-93469463D01*
X109433815Y-93548815D01*
X109354463Y-93645506D01*
X109295498Y-93755820D01*
X109259188Y-93875518D01*
X109246928Y-94000000D01*
X106853072Y-94000000D01*
X106840812Y-93875518D01*
X106804502Y-93755820D01*
X106745537Y-93645506D01*
X106666185Y-93548815D01*
X106569494Y-93469463D01*
X106459180Y-93410498D01*
X106339482Y-93374188D01*
X106215000Y-93361928D01*
X104635000Y-93361928D01*
X104594524Y-93365914D01*
X105725196Y-92598075D01*
X107585992Y-91515918D01*
X109517731Y-90566205D01*
X111511018Y-89753555D01*
X113556135Y-89081929D01*
X115643117Y-88554600D01*
X117761808Y-88174136D01*
X119901877Y-87942390D01*
X122052894Y-87860493D01*
X124204388Y-87928842D01*
G37*
X124204388Y-87928842D02*
X124515000Y-87960500D01*
X124515000Y-89759982D01*
X124425953Y-89626714D01*
X124257902Y-89458663D01*
X124060295Y-89326626D01*
X123840726Y-89235678D01*
X123607633Y-89189313D01*
X123369973Y-89189313D01*
X123136880Y-89235678D01*
X122917311Y-89326626D01*
X122719704Y-89458663D01*
X122551653Y-89626714D01*
X122419616Y-89824321D01*
X122328668Y-90043890D01*
X122282303Y-90276983D01*
X122282303Y-90514643D01*
X122328668Y-90747736D01*
X122419616Y-90967305D01*
X122551653Y-91164912D01*
X122719704Y-91332963D01*
X122917311Y-91465000D01*
X123136880Y-91555948D01*
X123369973Y-91602313D01*
X123607633Y-91602313D01*
X123840726Y-91555948D01*
X124060295Y-91465000D01*
X124257902Y-91332963D01*
X124425953Y-91164912D01*
X124515000Y-91031644D01*
X124515000Y-93507737D01*
X119621648Y-100847765D01*
X119563336Y-100956996D01*
X119527201Y-101076118D01*
X119515000Y-101200000D01*
X119515000Y-108700000D01*
X119527201Y-108823882D01*
X119563336Y-108943004D01*
X119622017Y-109052787D01*
X119700987Y-109149013D01*
X119797213Y-109227983D01*
X119906996Y-109286664D01*
X120026118Y-109322799D01*
X120150000Y-109335000D01*
X122150000Y-109335000D01*
X122273882Y-109322799D01*
X122393004Y-109286664D01*
X122502787Y-109227983D01*
X122599013Y-109149013D01*
X122677983Y-109052787D01*
X122736664Y-108943004D01*
X122772799Y-108823882D01*
X122785000Y-108700000D01*
X122785000Y-106835000D01*
X128320555Y-106835000D01*
X128355652Y-106950699D01*
X128507426Y-107234647D01*
X128711679Y-107483531D01*
X128876186Y-107618538D01*
X128848102Y-107624124D01*
X128659744Y-107702145D01*
X128490226Y-107815413D01*
X128346063Y-107959576D01*
X128232795Y-108129094D01*
X128154774Y-108317452D01*
X128115000Y-108517411D01*
X128115000Y-108721289D01*
X128154774Y-108921248D01*
X128232795Y-109109606D01*
X128346063Y-109279124D01*
X128490226Y-109423287D01*
X128659744Y-109536555D01*
X128848102Y-109614576D01*
X129048061Y-109654350D01*
X129251939Y-109654350D01*
X129451898Y-109614576D01*
X129640256Y-109536555D01*
X129769795Y-109450000D01*
X134286928Y-109450000D01*
X134286928Y-111950000D01*
X134303992Y-112123254D01*
X134354528Y-112289850D01*
X134436595Y-112443386D01*
X134547038Y-112577962D01*
X134681614Y-112688405D01*
X134835150Y-112770472D01*
X135001746Y-112821008D01*
X135175000Y-112838072D01*
X136775000Y-112838072D01*
X136948254Y-112821008D01*
X137114850Y-112770472D01*
X137268386Y-112688405D01*
X137402962Y-112577962D01*
X137513405Y-112443386D01*
X137595472Y-112289850D01*
X137646008Y-112123254D01*
X137663072Y-111950000D01*
X137663072Y-109450000D01*
X137646008Y-109276746D01*
X137595472Y-109110150D01*
X137513405Y-108956614D01*
X137402962Y-108822038D01*
X137268386Y-108711595D01*
X137114850Y-108629528D01*
X136948254Y-108578992D01*
X136775000Y-108561928D01*
X135175000Y-108561928D01*
X135001746Y-108578992D01*
X134835150Y-108629528D01*
X134681614Y-108711595D01*
X134547038Y-108822038D01*
X134436595Y-108956614D01*
X134354528Y-109110150D01*
X134303992Y-109276746D01*
X134286928Y-109450000D01*
X129769795Y-109450000D01*
X129809774Y-109423287D01*
X129953937Y-109279124D01*
X130067205Y-109109606D01*
X130145226Y-108921248D01*
X130156535Y-108864393D01*
X130842729Y-108178200D01*
X130876497Y-108150487D01*
X130906396Y-108114056D01*
X130962890Y-108045218D01*
X130987091Y-108015729D01*
X131048436Y-107900959D01*
X131250849Y-107839558D01*
X131534797Y-107687784D01*
X131783681Y-107483531D01*
X131987934Y-107234647D01*
X132139708Y-106950699D01*
X132233170Y-106642596D01*
X132264728Y-106322180D01*
X132233170Y-106001764D01*
X132139708Y-105693661D01*
X131987934Y-105409713D01*
X131783681Y-105160829D01*
X131651291Y-105052180D01*
X131783681Y-104943531D01*
X131987934Y-104694647D01*
X132139708Y-104410699D01*
X132233170Y-104102596D01*
X132264728Y-103782180D01*
X132233170Y-103461764D01*
X132139708Y-103153661D01*
X131987934Y-102869713D01*
X131783681Y-102620829D01*
X131651291Y-102512180D01*
X131783681Y-102403531D01*
X131987934Y-102154647D01*
X132139708Y-101870699D01*
X132233170Y-101562596D01*
X132264728Y-101242180D01*
X132233170Y-100921764D01*
X132139708Y-100613661D01*
X131987934Y-100329713D01*
X131783681Y-100080829D01*
X131651291Y-99972180D01*
X131783681Y-99863531D01*
X131987934Y-99614647D01*
X132083530Y-99435800D01*
X132421835Y-99435546D01*
X132490226Y-99503937D01*
X132659744Y-99617205D01*
X132848102Y-99695226D01*
X133048061Y-99735000D01*
X133251939Y-99735000D01*
X133451898Y-99695226D01*
X133640256Y-99617205D01*
X133809774Y-99503937D01*
X133953937Y-99359774D01*
X134067205Y-99190256D01*
X134145226Y-99001898D01*
X134185000Y-98801939D01*
X134185000Y-98598061D01*
X134145226Y-98398102D01*
X134067205Y-98209744D01*
X133953937Y-98040226D01*
X133809774Y-97896063D01*
X133640256Y-97782795D01*
X133451898Y-97704774D01*
X133251939Y-97665000D01*
X133048061Y-97665000D01*
X132848102Y-97704774D01*
X132659744Y-97782795D01*
X132490226Y-97896063D01*
X132420741Y-97965548D01*
X132082056Y-97965803D01*
X131987934Y-97789713D01*
X131783681Y-97540829D01*
X131651291Y-97432180D01*
X131783681Y-97323531D01*
X131987934Y-97074647D01*
X132012270Y-97029117D01*
X135915000Y-97029117D01*
X135915000Y-97370883D01*
X135981675Y-97706081D01*
X136112463Y-98021831D01*
X136302337Y-98305998D01*
X136544002Y-98547663D01*
X136828169Y-98737537D01*
X137143919Y-98868325D01*
X137479117Y-98935000D01*
X137820883Y-98935000D01*
X138156081Y-98868325D01*
X138471831Y-98737537D01*
X138755998Y-98547663D01*
X138997663Y-98305998D01*
X139187537Y-98021831D01*
X139318325Y-97706081D01*
X139385000Y-97370883D01*
X139385000Y-97029117D01*
X139318325Y-96693919D01*
X139187537Y-96378169D01*
X138997663Y-96094002D01*
X138755998Y-95852337D01*
X138471831Y-95662463D01*
X138156081Y-95531675D01*
X137820883Y-95465000D01*
X137479117Y-95465000D01*
X137143919Y-95531675D01*
X136828169Y-95662463D01*
X136544002Y-95852337D01*
X136302337Y-96094002D01*
X136112463Y-96378169D01*
X135981675Y-96693919D01*
X135915000Y-97029117D01*
X132012270Y-97029117D01*
X132139708Y-96790699D01*
X132233170Y-96482596D01*
X132264728Y-96162180D01*
X132233170Y-95841764D01*
X132139708Y-95533661D01*
X131987934Y-95249713D01*
X131783681Y-95000829D01*
X131534797Y-94796576D01*
X131250849Y-94644802D01*
X130942746Y-94551340D01*
X130702622Y-94527690D01*
X129792738Y-94527690D01*
X129552614Y-94551340D01*
X129285000Y-94632520D01*
X129285000Y-93335000D01*
X137750000Y-93335000D01*
X137873882Y-93322799D01*
X137993004Y-93286664D01*
X138102787Y-93227983D01*
X138199013Y-93149013D01*
X138277983Y-93052787D01*
X138336664Y-92943004D01*
X138372799Y-92823882D01*
X138385000Y-92700000D01*
X138385000Y-92480771D01*
X138410100Y-92495157D01*
X140198440Y-93693232D01*
X141898860Y-95013144D01*
X143503077Y-96448467D01*
X145003238Y-97992172D01*
X146392079Y-99636782D01*
X147663396Y-101375062D01*
X148084620Y-102040000D01*
X135335581Y-102040000D01*
X135302613Y-102043247D01*
X135289633Y-102043247D01*
X135280468Y-102044210D01*
X135086518Y-102065965D01*
X135028019Y-102078400D01*
X134969325Y-102090022D01*
X134960522Y-102092747D01*
X134774491Y-102151760D01*
X134719509Y-102175326D01*
X134664206Y-102198120D01*
X134656100Y-102202503D01*
X134485075Y-102296525D01*
X134435752Y-102330298D01*
X134385894Y-102363423D01*
X134378794Y-102369297D01*
X134229288Y-102494747D01*
X134187443Y-102537477D01*
X134144987Y-102579638D01*
X134139163Y-102586780D01*
X134016872Y-102738880D01*
X133984114Y-102788939D01*
X133950669Y-102838523D01*
X133946343Y-102846660D01*
X133855923Y-103019616D01*
X133833535Y-103075028D01*
X133810331Y-103130228D01*
X133807668Y-103139050D01*
X133752565Y-103326276D01*
X133741360Y-103385014D01*
X133729328Y-103443628D01*
X133728429Y-103452800D01*
X133710741Y-103647161D01*
X133711158Y-103706943D01*
X133710740Y-103766801D01*
X133711640Y-103775972D01*
X133732041Y-103970069D01*
X133744068Y-104028658D01*
X133755277Y-104087423D01*
X133757941Y-104096245D01*
X133815653Y-104282683D01*
X133838838Y-104337838D01*
X133861242Y-104393291D01*
X133865568Y-104401427D01*
X133958393Y-104573104D01*
X133991846Y-104622699D01*
X134024600Y-104672753D01*
X134030424Y-104679894D01*
X134154828Y-104830272D01*
X134197263Y-104872411D01*
X134239126Y-104915161D01*
X134246227Y-104921034D01*
X134397469Y-105044384D01*
X134447277Y-105077477D01*
X134496651Y-105111284D01*
X134504757Y-105115667D01*
X134677080Y-105207292D01*
X134732392Y-105230090D01*
X134787366Y-105253652D01*
X134796169Y-105256377D01*
X134983006Y-105312786D01*
X135041686Y-105324405D01*
X135100196Y-105336842D01*
X135109361Y-105337805D01*
X135303594Y-105356850D01*
X135303598Y-105356850D01*
X135335581Y-105360000D01*
X149942321Y-105360000D01*
X150664932Y-106953856D01*
X151414838Y-108971564D01*
X152022172Y-111036676D01*
X152483970Y-113139114D01*
X152797986Y-115268651D01*
X152962688Y-117414904D01*
X152977273Y-119567427D01*
X152841671Y-121715715D01*
X152556543Y-123849310D01*
X152123277Y-125957813D01*
X151543980Y-128030977D01*
X150821487Y-130058656D01*
X149959306Y-132031006D01*
X148961638Y-133938413D01*
X147833346Y-135771583D01*
X146579924Y-137521584D01*
X145207497Y-139179870D01*
X143722719Y-140738398D01*
X142132852Y-142189547D01*
X140445626Y-143526262D01*
X138669265Y-144742025D01*
X136812419Y-145830917D01*
X134884150Y-146787624D01*
X132893837Y-147607493D01*
X130851186Y-148286526D01*
X128766136Y-148821420D01*
X126648852Y-149209565D01*
X124509658Y-149449068D01*
X122358960Y-149538767D01*
X120207248Y-149478221D01*
X118065001Y-149267728D01*
X115942647Y-148908310D01*
X113850554Y-148401724D01*
X111798883Y-147750432D01*
X109797637Y-146957606D01*
X107856576Y-146027115D01*
X106100623Y-145029117D01*
X120415000Y-145029117D01*
X120415000Y-145370883D01*
X120481675Y-145706081D01*
X120612463Y-146021831D01*
X120802337Y-146305998D01*
X121044002Y-146547663D01*
X121328169Y-146737537D01*
X121643919Y-146868325D01*
X121979117Y-146935000D01*
X122320883Y-146935000D01*
X122656081Y-146868325D01*
X122971831Y-146737537D01*
X123255998Y-146547663D01*
X123497663Y-146305998D01*
X123687537Y-146021831D01*
X123818325Y-145706081D01*
X123885000Y-145370883D01*
X123885000Y-145029117D01*
X123818325Y-144693919D01*
X123687537Y-144378169D01*
X123497663Y-144094002D01*
X123255998Y-143852337D01*
X122971831Y-143662463D01*
X122656081Y-143531675D01*
X122320883Y-143465000D01*
X121979117Y-143465000D01*
X121643919Y-143531675D01*
X121328169Y-143662463D01*
X121044002Y-143852337D01*
X120802337Y-144094002D01*
X120612463Y-144378169D01*
X120481675Y-144693919D01*
X120415000Y-145029117D01*
X106100623Y-145029117D01*
X105985150Y-144963488D01*
X104192477Y-143771908D01*
X102487289Y-142458178D01*
X100877904Y-141028706D01*
X99372150Y-139490449D01*
X97977365Y-137850899D01*
X96700356Y-136118060D01*
X95547326Y-134300352D01*
X94523897Y-132406627D01*
X93635073Y-130446156D01*
X93209090Y-129300000D01*
X104065000Y-129300000D01*
X104065000Y-132300000D01*
X104077201Y-132423882D01*
X104113336Y-132543004D01*
X104172017Y-132652787D01*
X104250987Y-132749013D01*
X104347213Y-132827983D01*
X104456996Y-132886664D01*
X104576118Y-132922799D01*
X104700000Y-132935000D01*
X110599556Y-132935000D01*
X110588815Y-132943815D01*
X110509463Y-133040506D01*
X110450498Y-133150820D01*
X110414188Y-133270518D01*
X110401928Y-133395000D01*
X110401928Y-134665000D01*
X110414188Y-134789482D01*
X110450498Y-134909180D01*
X110509463Y-135019494D01*
X110588815Y-135116185D01*
X110685506Y-135195537D01*
X110795820Y-135254502D01*
X110915518Y-135290812D01*
X111008808Y-135300000D01*
X110915518Y-135309188D01*
X110795820Y-135345498D01*
X110685506Y-135404463D01*
X110588815Y-135483815D01*
X110509463Y-135580506D01*
X110450498Y-135690820D01*
X110414188Y-135810518D01*
X110401928Y-135935000D01*
X110401928Y-137205000D01*
X110414188Y-137329482D01*
X110450498Y-137449180D01*
X110509463Y-137559494D01*
X110588815Y-137656185D01*
X110685506Y-137735537D01*
X110795820Y-137794502D01*
X110915518Y-137830812D01*
X111040000Y-137843072D01*
X111745001Y-137843072D01*
X111745001Y-138136521D01*
X111740719Y-138180000D01*
X111757805Y-138353490D01*
X111808412Y-138520313D01*
X111890590Y-138674059D01*
X111973468Y-138775046D01*
X111973471Y-138775049D01*
X112001184Y-138808817D01*
X112034952Y-138836530D01*
X112143465Y-138945043D01*
X112154774Y-139001898D01*
X112232795Y-139190256D01*
X112346063Y-139359774D01*
X112490226Y-139503937D01*
X112659744Y-139617205D01*
X112848102Y-139695226D01*
X113048061Y-139735000D01*
X113251939Y-139735000D01*
X113451898Y-139695226D01*
X113640256Y-139617205D01*
X113809774Y-139503937D01*
X113953937Y-139359774D01*
X114067205Y-139190256D01*
X114145226Y-139001898D01*
X114185000Y-138801939D01*
X114185000Y-138598061D01*
X114145226Y-138398102D01*
X114067205Y-138209744D01*
X113953937Y-138040226D01*
X113809774Y-137896063D01*
X113730467Y-137843072D01*
X114220000Y-137843072D01*
X114344482Y-137830812D01*
X114464180Y-137794502D01*
X114574494Y-137735537D01*
X114671185Y-137656185D01*
X114750537Y-137559494D01*
X114809502Y-137449180D01*
X114845812Y-137329482D01*
X114858072Y-137205000D01*
X114858072Y-135935000D01*
X114845812Y-135810518D01*
X114809502Y-135690820D01*
X114750537Y-135580506D01*
X114671185Y-135483815D01*
X114574494Y-135404463D01*
X114464180Y-135345498D01*
X114344482Y-135309188D01*
X114251192Y-135300000D01*
X114344482Y-135290812D01*
X114464180Y-135254502D01*
X114574494Y-135195537D01*
X114671185Y-135116185D01*
X114750537Y-135019494D01*
X114809502Y-134909180D01*
X114814649Y-134892212D01*
X114969910Y-134890589D01*
X115009744Y-134917205D01*
X115198102Y-134995226D01*
X115398061Y-135035000D01*
X115601939Y-135035000D01*
X115801898Y-134995226D01*
X115990256Y-134917205D01*
X116159774Y-134803937D01*
X116303937Y-134659774D01*
X116417205Y-134490256D01*
X116495226Y-134301898D01*
X116535000Y-134101939D01*
X116535000Y-133898061D01*
X116495226Y-133698102D01*
X116417205Y-133509744D01*
X116303937Y-133340226D01*
X116159774Y-133196063D01*
X115990256Y-133082795D01*
X115801898Y-133004774D01*
X115601939Y-132965000D01*
X115398061Y-132965000D01*
X115198102Y-133004774D01*
X115009744Y-133082795D01*
X114953062Y-133120669D01*
X114794273Y-133122329D01*
X114750537Y-133040506D01*
X114671185Y-132943815D01*
X114639722Y-132917994D01*
X114743004Y-132886664D01*
X114852787Y-132827983D01*
X114949013Y-132749013D01*
X115027983Y-132652787D01*
X115086664Y-132543004D01*
X115122799Y-132423882D01*
X115135000Y-132300000D01*
X115135000Y-129300000D01*
X115125152Y-129200000D01*
X121515000Y-129200000D01*
X121515000Y-140200000D01*
X121527201Y-140323882D01*
X121563336Y-140443004D01*
X121622017Y-140552787D01*
X121700987Y-140649013D01*
X121797213Y-140727983D01*
X121906996Y-140786664D01*
X122026118Y-140822799D01*
X122150000Y-140835000D01*
X134150000Y-140835000D01*
X134273882Y-140822799D01*
X134393004Y-140786664D01*
X134502787Y-140727983D01*
X134599013Y-140649013D01*
X134677983Y-140552787D01*
X134736664Y-140443004D01*
X134772799Y-140323882D01*
X134785000Y-140200000D01*
X134785000Y-134185000D01*
X135591928Y-134185000D01*
X135591928Y-135785000D01*
X135604188Y-135909482D01*
X135640498Y-136029180D01*
X135699463Y-136139494D01*
X135778815Y-136236185D01*
X135875506Y-136315537D01*
X135985820Y-136374502D01*
X136105518Y-136410812D01*
X136230000Y-136423072D01*
X139230000Y-136423072D01*
X139354482Y-136410812D01*
X139474180Y-136374502D01*
X139584494Y-136315537D01*
X139681185Y-136236185D01*
X139760537Y-136139494D01*
X139789665Y-136085000D01*
X140611546Y-136085000D01*
X140659744Y-136117205D01*
X140848102Y-136195226D01*
X141048061Y-136235000D01*
X141251939Y-136235000D01*
X141451898Y-136195226D01*
X141640256Y-136117205D01*
X141809774Y-136003937D01*
X141953937Y-135859774D01*
X142067205Y-135690256D01*
X142145226Y-135501898D01*
X142185000Y-135301939D01*
X142185000Y-135098061D01*
X142145226Y-134898102D01*
X142067205Y-134709744D01*
X141953937Y-134540226D01*
X141809774Y-134396063D01*
X141640256Y-134282795D01*
X141451898Y-134204774D01*
X141251939Y-134165000D01*
X141048061Y-134165000D01*
X140848102Y-134204774D01*
X140659744Y-134282795D01*
X140611546Y-134315000D01*
X139868072Y-134315000D01*
X139868072Y-134185000D01*
X139855812Y-134060518D01*
X139819502Y-133940820D01*
X139760537Y-133830506D01*
X139681185Y-133733815D01*
X139584494Y-133654463D01*
X139474180Y-133595498D01*
X139354482Y-133559188D01*
X139230000Y-133546928D01*
X136230000Y-133546928D01*
X136105518Y-133559188D01*
X135985820Y-133595498D01*
X135875506Y-133654463D01*
X135778815Y-133733815D01*
X135699463Y-133830506D01*
X135640498Y-133940820D01*
X135604188Y-134060518D01*
X135591928Y-134185000D01*
X134785000Y-134185000D01*
X134785000Y-129200000D01*
X134772799Y-129076118D01*
X134736664Y-128956996D01*
X134677983Y-128847213D01*
X134599013Y-128750987D01*
X134502787Y-128672017D01*
X134393004Y-128613336D01*
X134273882Y-128577201D01*
X134150000Y-128565000D01*
X122150000Y-128565000D01*
X122026118Y-128577201D01*
X121906996Y-128613336D01*
X121797213Y-128672017D01*
X121700987Y-128750987D01*
X121622017Y-128847213D01*
X121563336Y-128956996D01*
X121527201Y-129076118D01*
X121515000Y-129200000D01*
X115125152Y-129200000D01*
X115122799Y-129176118D01*
X115110377Y-129135166D01*
X115177983Y-129052787D01*
X115236664Y-128943004D01*
X115272799Y-128823882D01*
X115285000Y-128700000D01*
X115285000Y-127335000D01*
X117400000Y-127335000D01*
X117523882Y-127322799D01*
X117643004Y-127286664D01*
X117752787Y-127227983D01*
X117849013Y-127149013D01*
X117927983Y-127052787D01*
X117986664Y-126943004D01*
X118013506Y-126854516D01*
X118075000Y-126860572D01*
X118625000Y-126860572D01*
X118788500Y-126844469D01*
X118945716Y-126796778D01*
X119090608Y-126719331D01*
X119105024Y-126707500D01*
X119332410Y-126707500D01*
X119378169Y-126793108D01*
X119482394Y-126920106D01*
X119609392Y-127024331D01*
X119754284Y-127101778D01*
X119911500Y-127149469D01*
X120075000Y-127165572D01*
X120625000Y-127165572D01*
X120788500Y-127149469D01*
X120945716Y-127101778D01*
X121090608Y-127024331D01*
X121217606Y-126920106D01*
X121321831Y-126793108D01*
X121399278Y-126648216D01*
X121446969Y-126491000D01*
X121463072Y-126327500D01*
X121463072Y-125927500D01*
X121446969Y-125764000D01*
X121399278Y-125606784D01*
X121321831Y-125461892D01*
X121217606Y-125334894D01*
X121090608Y-125230669D01*
X120945716Y-125153222D01*
X120788500Y-125105531D01*
X120625000Y-125089428D01*
X120546783Y-125089428D01*
X120539059Y-125083089D01*
X120385313Y-125000911D01*
X120218490Y-124950305D01*
X120088477Y-124937500D01*
X120088469Y-124937500D01*
X120045000Y-124933219D01*
X120001531Y-124937500D01*
X119240262Y-124937500D01*
X119269391Y-124902006D01*
X119321585Y-124896865D01*
X119460133Y-124854837D01*
X119587820Y-124786587D01*
X119699738Y-124694738D01*
X119722758Y-124666688D01*
X120517617Y-123871829D01*
X120629482Y-123860812D01*
X120749180Y-123824502D01*
X120859494Y-123765537D01*
X120956185Y-123686185D01*
X121035537Y-123589494D01*
X121037939Y-123585000D01*
X121211546Y-123585000D01*
X121259744Y-123617205D01*
X121448102Y-123695226D01*
X121648061Y-123735000D01*
X121851939Y-123735000D01*
X122051898Y-123695226D01*
X122240256Y-123617205D01*
X122409774Y-123503937D01*
X122553937Y-123359774D01*
X122667205Y-123190256D01*
X122705393Y-123098061D01*
X123615000Y-123098061D01*
X123615000Y-123301939D01*
X123654774Y-123501898D01*
X123732795Y-123690256D01*
X123846063Y-123859774D01*
X123990226Y-124003937D01*
X124159744Y-124117205D01*
X124348102Y-124195226D01*
X124548061Y-124235000D01*
X124751939Y-124235000D01*
X124951898Y-124195226D01*
X125140256Y-124117205D01*
X125188454Y-124085000D01*
X126774941Y-124085000D01*
X126880013Y-124242252D01*
X127107748Y-124469987D01*
X127375537Y-124648918D01*
X127673088Y-124772168D01*
X127988967Y-124835000D01*
X128311033Y-124835000D01*
X128552061Y-124787057D01*
X128483459Y-124889728D01*
X127688454Y-124889728D01*
X127640256Y-124857523D01*
X127451898Y-124779502D01*
X127251939Y-124739728D01*
X127048061Y-124739728D01*
X126848102Y-124779502D01*
X126659744Y-124857523D01*
X126490226Y-124970791D01*
X126346063Y-125114954D01*
X126232795Y-125284472D01*
X126154774Y-125472830D01*
X126115000Y-125672789D01*
X126115000Y-125876667D01*
X126154774Y-126076626D01*
X126232795Y-126264984D01*
X126346063Y-126434502D01*
X126490226Y-126578665D01*
X126659744Y-126691933D01*
X126848102Y-126769954D01*
X127048061Y-126809728D01*
X127251939Y-126809728D01*
X127451898Y-126769954D01*
X127640256Y-126691933D01*
X127688454Y-126659728D01*
X128483459Y-126659728D01*
X128588531Y-126816980D01*
X128816266Y-127044715D01*
X129084055Y-127223646D01*
X129381606Y-127346896D01*
X129697485Y-127409728D01*
X130019551Y-127409728D01*
X130335430Y-127346896D01*
X130632981Y-127223646D01*
X130900770Y-127044715D01*
X131128505Y-126816980D01*
X131307436Y-126549191D01*
X131336928Y-126477991D01*
X131336928Y-126525000D01*
X131353512Y-126693377D01*
X131402625Y-126855283D01*
X131482382Y-127004497D01*
X131589716Y-127135284D01*
X131720503Y-127242618D01*
X131869717Y-127322375D01*
X132031623Y-127371488D01*
X132200000Y-127388072D01*
X132700000Y-127388072D01*
X132868377Y-127371488D01*
X133030283Y-127322375D01*
X133179497Y-127242618D01*
X133310284Y-127135284D01*
X133417618Y-127004497D01*
X133497375Y-126855283D01*
X133546488Y-126693377D01*
X133563072Y-126525000D01*
X133563072Y-126075000D01*
X133546488Y-125906623D01*
X133532263Y-125859729D01*
X133680562Y-125859729D01*
X133720018Y-125871698D01*
X133883518Y-125887801D01*
X134283518Y-125887801D01*
X134447018Y-125871698D01*
X134604234Y-125824007D01*
X134749126Y-125746560D01*
X134876124Y-125642335D01*
X134980349Y-125515337D01*
X135057796Y-125370445D01*
X135105487Y-125213229D01*
X135121590Y-125049729D01*
X135121590Y-125035000D01*
X135539674Y-125035000D01*
X135527201Y-125076118D01*
X135515000Y-125200000D01*
X135515000Y-131700000D01*
X135527201Y-131823882D01*
X135563336Y-131943004D01*
X135622017Y-132052787D01*
X135700987Y-132149013D01*
X135797213Y-132227983D01*
X135906996Y-132286664D01*
X136026118Y-132322799D01*
X136150000Y-132335000D01*
X139650000Y-132335000D01*
X139773882Y-132322799D01*
X139893004Y-132286664D01*
X140002787Y-132227983D01*
X140099013Y-132149013D01*
X140177983Y-132052787D01*
X140236664Y-131943004D01*
X140272799Y-131823882D01*
X140285000Y-131700000D01*
X140285000Y-130062035D01*
X140388531Y-130216980D01*
X140616266Y-130444715D01*
X140884055Y-130623646D01*
X141181606Y-130746896D01*
X141497485Y-130809728D01*
X141819551Y-130809728D01*
X142135430Y-130746896D01*
X142432981Y-130623646D01*
X142700770Y-130444715D01*
X142928505Y-130216980D01*
X143107436Y-129949191D01*
X143230686Y-129651640D01*
X143293518Y-129335761D01*
X143293518Y-129013695D01*
X143230686Y-128697816D01*
X143107436Y-128400265D01*
X142928505Y-128132476D01*
X142700770Y-127904741D01*
X142543518Y-127799669D01*
X142543518Y-125238197D01*
X142547799Y-125194728D01*
X142543518Y-125151259D01*
X142543518Y-125151251D01*
X142530713Y-125021238D01*
X142510055Y-124953139D01*
X142480107Y-124854414D01*
X142397929Y-124700669D01*
X142315050Y-124599681D01*
X142315048Y-124599679D01*
X142287335Y-124565911D01*
X142253568Y-124538199D01*
X140885000Y-123169632D01*
X140885000Y-121700000D01*
X140872799Y-121576118D01*
X140836664Y-121456996D01*
X140777983Y-121347213D01*
X140699013Y-121250987D01*
X140695588Y-121248177D01*
X140700769Y-121244715D01*
X140928504Y-121016980D01*
X141107435Y-120749191D01*
X141230685Y-120451640D01*
X141293517Y-120135761D01*
X141293517Y-119813695D01*
X141230685Y-119497816D01*
X141107435Y-119200265D01*
X140928504Y-118932476D01*
X140831028Y-118835000D01*
X141150000Y-118835000D01*
X141273882Y-118822799D01*
X141393004Y-118786664D01*
X141502787Y-118727983D01*
X141599013Y-118649013D01*
X141677983Y-118552787D01*
X141736664Y-118443004D01*
X141772799Y-118323882D01*
X141785000Y-118200000D01*
X141785000Y-112838072D01*
X143125000Y-112838072D01*
X143298254Y-112821008D01*
X143464850Y-112770472D01*
X143618386Y-112688405D01*
X143752962Y-112577962D01*
X143863405Y-112443386D01*
X143945472Y-112289850D01*
X143996008Y-112123254D01*
X144013072Y-111950000D01*
X144013072Y-109450000D01*
X143996008Y-109276746D01*
X143945472Y-109110150D01*
X143863405Y-108956614D01*
X143752962Y-108822038D01*
X143618386Y-108711595D01*
X143464850Y-108629528D01*
X143298254Y-108578992D01*
X143125000Y-108561928D01*
X141525000Y-108561928D01*
X141351746Y-108578992D01*
X141185150Y-108629528D01*
X141031614Y-108711595D01*
X140897038Y-108822038D01*
X140786595Y-108956614D01*
X140704528Y-109110150D01*
X140653992Y-109276746D01*
X140636928Y-109450000D01*
X140636928Y-111565000D01*
X139150000Y-111565000D01*
X139026118Y-111577201D01*
X138906996Y-111613336D01*
X138797213Y-111672017D01*
X138700987Y-111750987D01*
X138622017Y-111847213D01*
X138563336Y-111956996D01*
X138527201Y-112076118D01*
X138515000Y-112200000D01*
X138515000Y-113319592D01*
X138509327Y-113338294D01*
X138490010Y-113534421D01*
X138490010Y-114065000D01*
X134150000Y-114065000D01*
X134026118Y-114077201D01*
X133906996Y-114113336D01*
X133797213Y-114172017D01*
X133700987Y-114250987D01*
X133692231Y-114261656D01*
X133400000Y-114261656D01*
X133236500Y-114277759D01*
X133197044Y-114289728D01*
X133040011Y-114289728D01*
X133046488Y-114268377D01*
X133063072Y-114100000D01*
X133063072Y-113650000D01*
X133046488Y-113481623D01*
X132997375Y-113319717D01*
X132917618Y-113170503D01*
X132810284Y-113039716D01*
X132679497Y-112932382D01*
X132530283Y-112852625D01*
X132368377Y-112803512D01*
X132200000Y-112786928D01*
X131700000Y-112786928D01*
X131531623Y-112803512D01*
X131369717Y-112852625D01*
X131220503Y-112932382D01*
X131089716Y-113039716D01*
X130986898Y-113165000D01*
X130915264Y-113165000D01*
X130898918Y-113125537D01*
X130719987Y-112857748D01*
X130492252Y-112630013D01*
X130224463Y-112451082D01*
X129926912Y-112327832D01*
X129611033Y-112265000D01*
X129288967Y-112265000D01*
X128973088Y-112327832D01*
X128675537Y-112451082D01*
X128407748Y-112630013D01*
X128180013Y-112857748D01*
X128001082Y-113125537D01*
X127877832Y-113423088D01*
X127815000Y-113738967D01*
X127815000Y-114061033D01*
X127877832Y-114376912D01*
X128001082Y-114674463D01*
X128180013Y-114942252D01*
X128407748Y-115169987D01*
X128675537Y-115348918D01*
X128973088Y-115472168D01*
X129288967Y-115535000D01*
X129611033Y-115535000D01*
X129926912Y-115472168D01*
X130224463Y-115348918D01*
X130492252Y-115169987D01*
X130719987Y-114942252D01*
X130898918Y-114674463D01*
X130915264Y-114635000D01*
X131027932Y-114635000D01*
X131042930Y-114653275D01*
X130975722Y-114779012D01*
X130928031Y-114936228D01*
X130911928Y-115099728D01*
X130911928Y-115649728D01*
X130928031Y-115813228D01*
X130975722Y-115970444D01*
X131053169Y-116115336D01*
X131157394Y-116242334D01*
X131284392Y-116346559D01*
X131429284Y-116424006D01*
X131586500Y-116471697D01*
X131750000Y-116487800D01*
X132090446Y-116487800D01*
X132090446Y-117989729D01*
X132102706Y-118114211D01*
X132139016Y-118233909D01*
X132197981Y-118344223D01*
X132277333Y-118440914D01*
X132300781Y-118460157D01*
X132319432Y-118495051D01*
X132411281Y-118606969D01*
X132439326Y-118629985D01*
X133678261Y-119868921D01*
X133701277Y-119896966D01*
X133813195Y-119988815D01*
X133940882Y-120057065D01*
X134079430Y-120099093D01*
X134187410Y-120109728D01*
X134187419Y-120109728D01*
X134223514Y-120113283D01*
X134259609Y-120109728D01*
X135915933Y-120109728D01*
X135948760Y-120149728D01*
X135915933Y-120189728D01*
X134109621Y-120189728D01*
X134073516Y-120186172D01*
X133929431Y-120200363D01*
X133890084Y-120212299D01*
X133790884Y-120242391D01*
X133663197Y-120310641D01*
X133551279Y-120402490D01*
X133528263Y-120430535D01*
X132439326Y-121519473D01*
X132411281Y-121542489D01*
X132378588Y-121582325D01*
X132331154Y-121493583D01*
X132301128Y-121456996D01*
X132226809Y-121366438D01*
X132194946Y-121340289D01*
X131242963Y-120388307D01*
X131216808Y-120356437D01*
X131089663Y-120252092D01*
X130944604Y-120174556D01*
X130787206Y-120126810D01*
X130664536Y-120114728D01*
X130664535Y-120114728D01*
X130623517Y-120110688D01*
X130582499Y-120114728D01*
X130519035Y-120114728D01*
X130518802Y-120114444D01*
X130388015Y-120007110D01*
X130238801Y-119927353D01*
X130076895Y-119878240D01*
X129908518Y-119861656D01*
X129408518Y-119861656D01*
X129240141Y-119878240D01*
X129078235Y-119927353D01*
X128929021Y-120007110D01*
X128904259Y-120027432D01*
X128879497Y-120007110D01*
X128730283Y-119927353D01*
X128568377Y-119878240D01*
X128400000Y-119861656D01*
X127900000Y-119861656D01*
X127731623Y-119878240D01*
X127569717Y-119927353D01*
X127420503Y-120007110D01*
X127289716Y-120114444D01*
X127234552Y-120181662D01*
X127180941Y-120210317D01*
X127046183Y-120320911D01*
X126935589Y-120455669D01*
X126853411Y-120609415D01*
X126802805Y-120776238D01*
X126785718Y-120949728D01*
X126802805Y-121123218D01*
X126853411Y-121290041D01*
X126935589Y-121443787D01*
X127046183Y-121578545D01*
X127180941Y-121689139D01*
X127234552Y-121717794D01*
X127265000Y-121754896D01*
X127265000Y-121824940D01*
X127107748Y-121930013D01*
X126880013Y-122157748D01*
X126774941Y-122315000D01*
X125188454Y-122315000D01*
X125140256Y-122282795D01*
X124951898Y-122204774D01*
X124751939Y-122165000D01*
X124548061Y-122165000D01*
X124348102Y-122204774D01*
X124159744Y-122282795D01*
X123990226Y-122396063D01*
X123846063Y-122540226D01*
X123732795Y-122709744D01*
X123654774Y-122898102D01*
X123615000Y-123098061D01*
X122705393Y-123098061D01*
X122745226Y-123001898D01*
X122785000Y-122801939D01*
X122785000Y-122598061D01*
X122745226Y-122398102D01*
X122667205Y-122209744D01*
X122553937Y-122040226D01*
X122409774Y-121896063D01*
X122240256Y-121782795D01*
X122051898Y-121704774D01*
X121851939Y-121665000D01*
X121648061Y-121665000D01*
X121448102Y-121704774D01*
X121259744Y-121782795D01*
X121211546Y-121815000D01*
X121091391Y-121815000D01*
X121035537Y-121710506D01*
X120956185Y-121613815D01*
X120859494Y-121534463D01*
X120749180Y-121475498D01*
X120629482Y-121439188D01*
X120505000Y-121426928D01*
X120285000Y-121426928D01*
X120285000Y-121373072D01*
X120505000Y-121373072D01*
X120629482Y-121360812D01*
X120749180Y-121324502D01*
X120859494Y-121265537D01*
X120956185Y-121186185D01*
X121035537Y-121089494D01*
X121094502Y-120979180D01*
X121130812Y-120859482D01*
X121143072Y-120735000D01*
X121143072Y-119565000D01*
X121135000Y-119483041D01*
X121135000Y-119338454D01*
X121167205Y-119290256D01*
X121245226Y-119101898D01*
X121285000Y-118901939D01*
X121285000Y-118698061D01*
X121245226Y-118498102D01*
X121167205Y-118309744D01*
X121053937Y-118140226D01*
X120909774Y-117996063D01*
X120740256Y-117882795D01*
X120551898Y-117804774D01*
X120351939Y-117765000D01*
X120148061Y-117765000D01*
X119985000Y-117797435D01*
X119985000Y-113400000D01*
X119973880Y-113281683D01*
X119938810Y-113162244D01*
X119881112Y-113051941D01*
X119803004Y-112955014D01*
X119707487Y-112875188D01*
X119598232Y-112815529D01*
X119479438Y-112778332D01*
X119355669Y-112765025D01*
X108155669Y-112665025D01*
X108026118Y-112677201D01*
X107906996Y-112713336D01*
X107797213Y-112772017D01*
X107700987Y-112850987D01*
X107622017Y-112947213D01*
X107563336Y-113056996D01*
X107527201Y-113176118D01*
X107515000Y-113300000D01*
X107515000Y-115300000D01*
X107523917Y-115406045D01*
X107556636Y-115526150D01*
X107612157Y-115637564D01*
X107660617Y-115700178D01*
X107622017Y-115747213D01*
X107563336Y-115856996D01*
X107527201Y-115976118D01*
X107515000Y-116100000D01*
X107515000Y-118700000D01*
X107527201Y-118823882D01*
X107563336Y-118943004D01*
X107622017Y-119052787D01*
X107700987Y-119149013D01*
X107797213Y-119227983D01*
X107906996Y-119286664D01*
X108026118Y-119322799D01*
X108150000Y-119335000D01*
X111015000Y-119335000D01*
X111015000Y-120200000D01*
X111027201Y-120323882D01*
X111063336Y-120443004D01*
X111067075Y-120450000D01*
X111063336Y-120456996D01*
X111027201Y-120576118D01*
X111015000Y-120700000D01*
X111015000Y-123991273D01*
X110938108Y-123928169D01*
X110793216Y-123850722D01*
X110785000Y-123848230D01*
X110785000Y-120700000D01*
X110772799Y-120576118D01*
X110736664Y-120456996D01*
X110677983Y-120347213D01*
X110599013Y-120250987D01*
X110502787Y-120172017D01*
X110393004Y-120113336D01*
X110273882Y-120077201D01*
X110150000Y-120065000D01*
X107150000Y-120065000D01*
X107026118Y-120077201D01*
X106906996Y-120113336D01*
X106797213Y-120172017D01*
X106700987Y-120250987D01*
X106622017Y-120347213D01*
X106563336Y-120456996D01*
X106527201Y-120576118D01*
X106515000Y-120700000D01*
X106515000Y-128665000D01*
X104700000Y-128665000D01*
X104576118Y-128677201D01*
X104456996Y-128713336D01*
X104347213Y-128772017D01*
X104250987Y-128850987D01*
X104172017Y-128947213D01*
X104113336Y-129056996D01*
X104077201Y-129176118D01*
X104065000Y-129300000D01*
X93209090Y-129300000D01*
X92885163Y-128428440D01*
X92277830Y-126363335D01*
X91816030Y-124260884D01*
X91502013Y-122131336D01*
X91366082Y-120360000D01*
X103698419Y-120360000D01*
X103731387Y-120356753D01*
X103744367Y-120356753D01*
X103753532Y-120355790D01*
X103947481Y-120334035D01*
X104005966Y-120321603D01*
X104064676Y-120309978D01*
X104073479Y-120307253D01*
X104259509Y-120248240D01*
X104314519Y-120224662D01*
X104369794Y-120201880D01*
X104377900Y-120197497D01*
X104548925Y-120103475D01*
X104598264Y-120069692D01*
X104648106Y-120036577D01*
X104655206Y-120030703D01*
X104804712Y-119905253D01*
X104846557Y-119862523D01*
X104889013Y-119820362D01*
X104894837Y-119813220D01*
X105017128Y-119661121D01*
X105049887Y-119611059D01*
X105083331Y-119561477D01*
X105087657Y-119553340D01*
X105178077Y-119380385D01*
X105200475Y-119324947D01*
X105223669Y-119269772D01*
X105226332Y-119260950D01*
X105281435Y-119073725D01*
X105292633Y-119015017D01*
X105304672Y-118956372D01*
X105305570Y-118947201D01*
X105323259Y-118752839D01*
X105322842Y-118693057D01*
X105323260Y-118633199D01*
X105322360Y-118624028D01*
X105301959Y-118429931D01*
X105289934Y-118371348D01*
X105278723Y-118312577D01*
X105276059Y-118303755D01*
X105218347Y-118117317D01*
X105195162Y-118062162D01*
X105172758Y-118006709D01*
X105168432Y-117998573D01*
X105075607Y-117826896D01*
X105042139Y-117777278D01*
X105009400Y-117727247D01*
X105003576Y-117720106D01*
X104879172Y-117569728D01*
X104836737Y-117527589D01*
X104794874Y-117484839D01*
X104787773Y-117478966D01*
X104636531Y-117355616D01*
X104586738Y-117322534D01*
X104537349Y-117288716D01*
X104529243Y-117284333D01*
X104356921Y-117192708D01*
X104301606Y-117169909D01*
X104246634Y-117146348D01*
X104237831Y-117143623D01*
X104050995Y-117087214D01*
X103992307Y-117075594D01*
X103933804Y-117063158D01*
X103924639Y-117062195D01*
X103730405Y-117043150D01*
X103730402Y-117043150D01*
X103698419Y-117040000D01*
X91371341Y-117040000D01*
X91469285Y-115572969D01*
X91762152Y-113440403D01*
X92203065Y-111333469D01*
X92789876Y-109262428D01*
X93519733Y-107237347D01*
X94389063Y-105268133D01*
X95393650Y-103364344D01*
X96528585Y-101535276D01*
X97788347Y-99789831D01*
X99166812Y-98136495D01*
X100657226Y-96583370D01*
X102252360Y-95137985D01*
X103944431Y-93807392D01*
X104059815Y-93729035D01*
X104045498Y-93755820D01*
X104009188Y-93875518D01*
X103996928Y-94000000D01*
X103996928Y-94590000D01*
X104009188Y-94714482D01*
X104028668Y-94778699D01*
X103940941Y-94825589D01*
X103940939Y-94825590D01*
X103940940Y-94825590D01*
X103839953Y-94908468D01*
X103839951Y-94908470D01*
X103806183Y-94936183D01*
X103778470Y-94969951D01*
X98054952Y-100693470D01*
X98021184Y-100721183D01*
X97993471Y-100754951D01*
X97993468Y-100754954D01*
X97910590Y-100855941D01*
X97828412Y-101009687D01*
X97777805Y-101176510D01*
X97760719Y-101350000D01*
X97765001Y-101393479D01*
X97765000Y-105439818D01*
X97572498Y-105381423D01*
X97350000Y-105359509D01*
X97127501Y-105381423D01*
X96913553Y-105446324D01*
X96716377Y-105551716D01*
X96543551Y-105693551D01*
X96401716Y-105866377D01*
X96296324Y-106063554D01*
X96231423Y-106277502D01*
X96215000Y-106444249D01*
X96215000Y-107970367D01*
X96143386Y-107911595D01*
X95989850Y-107829528D01*
X95823254Y-107778992D01*
X95650000Y-107761928D01*
X94050000Y-107761928D01*
X93876746Y-107778992D01*
X93710150Y-107829528D01*
X93556614Y-107911595D01*
X93422038Y-108022038D01*
X93311595Y-108156614D01*
X93229528Y-108310150D01*
X93178992Y-108476746D01*
X93161928Y-108650000D01*
X93161928Y-111150000D01*
X93178992Y-111323254D01*
X93229528Y-111489850D01*
X93311595Y-111643386D01*
X93422038Y-111777962D01*
X93556614Y-111888405D01*
X93710150Y-111970472D01*
X93876746Y-112021008D01*
X94050000Y-112038072D01*
X95650000Y-112038072D01*
X95823254Y-112021008D01*
X95989850Y-111970472D01*
X96143386Y-111888405D01*
X96250454Y-111800537D01*
X96263336Y-111843004D01*
X96322017Y-111952787D01*
X96400987Y-112049013D01*
X96497213Y-112127983D01*
X96606996Y-112186664D01*
X96726118Y-112222799D01*
X96850000Y-112235000D01*
X97294249Y-112235000D01*
X97350000Y-112240491D01*
X97405752Y-112235000D01*
X101850000Y-112235000D01*
X101973882Y-112222799D01*
X102093004Y-112186664D01*
X102202787Y-112127983D01*
X102299013Y-112049013D01*
X102377983Y-111952787D01*
X102436664Y-111843004D01*
X102472799Y-111723882D01*
X102485000Y-111600000D01*
X102485000Y-108650000D01*
X103261928Y-108650000D01*
X103261928Y-111150000D01*
X103278992Y-111323254D01*
X103329528Y-111489850D01*
X103411595Y-111643386D01*
X103522038Y-111777962D01*
X103656614Y-111888405D01*
X103810150Y-111970472D01*
X103976746Y-112021008D01*
X104150000Y-112038072D01*
X105750000Y-112038072D01*
X105923254Y-112021008D01*
X106089850Y-111970472D01*
X106243386Y-111888405D01*
X106377962Y-111777962D01*
X106488405Y-111643386D01*
X106570472Y-111489850D01*
X106621008Y-111323254D01*
X106638072Y-111150000D01*
X106638072Y-108729117D01*
X108215000Y-108729117D01*
X108215000Y-109070883D01*
X108281675Y-109406081D01*
X108412463Y-109721831D01*
X108602337Y-110005998D01*
X108844002Y-110247663D01*
X109128169Y-110437537D01*
X109443919Y-110568325D01*
X109779117Y-110635000D01*
X110120883Y-110635000D01*
X110456081Y-110568325D01*
X110771831Y-110437537D01*
X111055998Y-110247663D01*
X111297663Y-110005998D01*
X111487537Y-109721831D01*
X111618325Y-109406081D01*
X111685000Y-109070883D01*
X111685000Y-108729117D01*
X111618325Y-108393919D01*
X111487537Y-108078169D01*
X111297663Y-107794002D01*
X111055998Y-107552337D01*
X110771831Y-107362463D01*
X110456081Y-107231675D01*
X110120883Y-107165000D01*
X109779117Y-107165000D01*
X109443919Y-107231675D01*
X109128169Y-107362463D01*
X108844002Y-107552337D01*
X108602337Y-107794002D01*
X108412463Y-108078169D01*
X108281675Y-108393919D01*
X108215000Y-108729117D01*
X106638072Y-108729117D01*
X106638072Y-108650000D01*
X106621008Y-108476746D01*
X106570472Y-108310150D01*
X106488405Y-108156614D01*
X106377962Y-108022038D01*
X106243386Y-107911595D01*
X106089850Y-107829528D01*
X105923254Y-107778992D01*
X105750000Y-107761928D01*
X104150000Y-107761928D01*
X103976746Y-107778992D01*
X103810150Y-107829528D01*
X103656614Y-107911595D01*
X103522038Y-108022038D01*
X103411595Y-108156614D01*
X103329528Y-108310150D01*
X103278992Y-108476746D01*
X103261928Y-108650000D01*
X102485000Y-108650000D01*
X102485000Y-108600000D01*
X102472799Y-108476118D01*
X102461258Y-108438072D01*
X102600000Y-108438072D01*
X102763500Y-108421969D01*
X102920716Y-108374278D01*
X103065608Y-108296831D01*
X103192606Y-108192606D01*
X103296831Y-108065608D01*
X103374278Y-107920716D01*
X103421969Y-107763500D01*
X103438072Y-107600000D01*
X103438072Y-106400000D01*
X103421969Y-106236500D01*
X103374278Y-106079284D01*
X103352687Y-106038891D01*
X104753507Y-104638072D01*
X106215000Y-104638072D01*
X106339482Y-104625812D01*
X106459180Y-104589502D01*
X106569494Y-104530537D01*
X106666185Y-104451185D01*
X106745537Y-104354494D01*
X106804502Y-104244180D01*
X106840812Y-104124482D01*
X106853072Y-104000000D01*
X106853072Y-103410000D01*
X106840812Y-103285518D01*
X106804502Y-103165820D01*
X106753284Y-103070000D01*
X106804502Y-102974180D01*
X106840812Y-102854482D01*
X106853072Y-102730000D01*
X106853072Y-102140000D01*
X106840812Y-102015518D01*
X106804502Y-101895820D01*
X106753284Y-101800000D01*
X106804502Y-101704180D01*
X106840812Y-101584482D01*
X106853072Y-101460000D01*
X106853072Y-100870000D01*
X106840812Y-100745518D01*
X106804502Y-100625820D01*
X106753284Y-100530000D01*
X106804502Y-100434180D01*
X106840812Y-100314482D01*
X106853072Y-100190000D01*
X106853072Y-99600000D01*
X106840812Y-99475518D01*
X106804502Y-99355820D01*
X106745537Y-99245506D01*
X106666185Y-99148815D01*
X106569494Y-99069463D01*
X106459180Y-99010498D01*
X106424573Y-99000000D01*
X106459180Y-98989502D01*
X106569494Y-98930537D01*
X106666185Y-98851185D01*
X106745537Y-98754494D01*
X106804502Y-98644180D01*
X106840812Y-98524482D01*
X106853072Y-98400000D01*
X106853072Y-97810000D01*
X106840812Y-97685518D01*
X106804502Y-97565820D01*
X106753284Y-97470000D01*
X106804502Y-97374180D01*
X106840812Y-97254482D01*
X106853072Y-97130000D01*
X106853072Y-96540000D01*
X106840812Y-96415518D01*
X106804502Y-96295820D01*
X106753284Y-96200000D01*
X106804502Y-96104180D01*
X106840812Y-95984482D01*
X106853072Y-95860000D01*
X106853072Y-95270000D01*
X106840812Y-95145518D01*
X106804502Y-95025820D01*
X106753284Y-94930000D01*
X106804502Y-94834180D01*
X106840812Y-94714482D01*
X106853072Y-94590000D01*
X106853072Y-94000000D01*
X109246928Y-94000000D01*
X109246928Y-94590000D01*
X109259188Y-94714482D01*
X109295498Y-94834180D01*
X109354463Y-94944494D01*
X109433815Y-95041185D01*
X109530506Y-95120537D01*
X109640820Y-95179502D01*
X109760518Y-95215812D01*
X109885000Y-95228072D01*
X111265001Y-95228072D01*
X111265000Y-95833421D01*
X111196494Y-95901928D01*
X109885000Y-95901928D01*
X109760518Y-95914188D01*
X109640820Y-95950498D01*
X109530506Y-96009463D01*
X109433815Y-96088815D01*
X109354463Y-96185506D01*
X109295498Y-96295820D01*
X109259188Y-96415518D01*
X109246928Y-96540000D01*
X109246928Y-97130000D01*
X109259188Y-97254482D01*
X109295498Y-97374180D01*
X109354463Y-97484494D01*
X109433815Y-97581185D01*
X109530506Y-97660537D01*
X109640820Y-97719502D01*
X109760518Y-97755812D01*
X109885000Y-97768072D01*
X111265001Y-97768072D01*
X111265000Y-98961928D01*
X109885000Y-98961928D01*
X109760518Y-98974188D01*
X109640820Y-99010498D01*
X109530506Y-99069463D01*
X109433815Y-99148815D01*
X109354463Y-99245506D01*
X109295498Y-99355820D01*
X109259188Y-99475518D01*
X109246928Y-99600000D01*
X109246928Y-100190000D01*
X109259188Y-100314482D01*
X109295498Y-100434180D01*
X109354463Y-100544494D01*
X109433815Y-100641185D01*
X109530506Y-100720537D01*
X109640820Y-100779502D01*
X109760518Y-100815812D01*
X109885000Y-100828072D01*
X111265001Y-100828072D01*
X111265000Y-101333421D01*
X111096494Y-101501928D01*
X109885000Y-101501928D01*
X109760518Y-101514188D01*
X109640820Y-101550498D01*
X109530506Y-101609463D01*
X109433815Y-101688815D01*
X109354463Y-101785506D01*
X109295498Y-101895820D01*
X109259188Y-102015518D01*
X109246928Y-102140000D01*
X109246928Y-102730000D01*
X109259188Y-102854482D01*
X109295498Y-102974180D01*
X109354463Y-103084494D01*
X109433815Y-103181185D01*
X109530506Y-103260537D01*
X109640820Y-103319502D01*
X109760518Y-103355812D01*
X109885000Y-103368072D01*
X111465000Y-103368072D01*
X111589482Y-103355812D01*
X111709180Y-103319502D01*
X111819494Y-103260537D01*
X111916185Y-103181185D01*
X111947913Y-103142524D01*
X112043817Y-103063817D01*
X112071534Y-103030044D01*
X112630016Y-102471563D01*
X112679509Y-102512180D01*
X112547119Y-102620829D01*
X112342866Y-102869713D01*
X112191092Y-103153661D01*
X112097630Y-103461764D01*
X112066072Y-103782180D01*
X112097630Y-104102596D01*
X112191092Y-104410699D01*
X112342866Y-104694647D01*
X112547119Y-104943531D01*
X112679509Y-105052180D01*
X112547119Y-105160829D01*
X112342866Y-105409713D01*
X112191092Y-105693661D01*
X112097630Y-106001764D01*
X112066072Y-106322180D01*
X112097630Y-106642596D01*
X112191092Y-106950699D01*
X112342866Y-107234647D01*
X112547119Y-107483531D01*
X112796003Y-107687784D01*
X113079951Y-107839558D01*
X113388054Y-107933020D01*
X113628178Y-107956670D01*
X114538062Y-107956670D01*
X114778186Y-107933020D01*
X115086289Y-107839558D01*
X115370237Y-107687784D01*
X115619121Y-107483531D01*
X115823374Y-107234647D01*
X115839815Y-107203889D01*
X115859744Y-107217205D01*
X116048102Y-107295226D01*
X116248061Y-107335000D01*
X116451939Y-107335000D01*
X116651898Y-107295226D01*
X116840256Y-107217205D01*
X117009774Y-107103937D01*
X117153937Y-106959774D01*
X117267205Y-106790256D01*
X117345226Y-106601898D01*
X117385000Y-106401939D01*
X117385000Y-106198061D01*
X117345226Y-105998102D01*
X117267205Y-105809744D01*
X117153937Y-105640226D01*
X117009774Y-105496063D01*
X116840256Y-105382795D01*
X116651898Y-105304774D01*
X116451939Y-105265000D01*
X116248061Y-105265000D01*
X116048102Y-105304774D01*
X115859744Y-105382795D01*
X115821987Y-105408023D01*
X115619121Y-105160829D01*
X115486731Y-105052180D01*
X115619121Y-104943531D01*
X115823374Y-104694647D01*
X115975148Y-104410699D01*
X116068610Y-104102596D01*
X116100168Y-103782180D01*
X116068610Y-103461764D01*
X115975148Y-103153661D01*
X115823374Y-102869713D01*
X115619121Y-102620829D01*
X115486731Y-102512180D01*
X115619121Y-102403531D01*
X115823374Y-102154647D01*
X115975148Y-101870699D01*
X116068610Y-101562596D01*
X116100168Y-101242180D01*
X116068610Y-100921764D01*
X115975148Y-100613661D01*
X115823374Y-100329713D01*
X115619121Y-100080829D01*
X115486731Y-99972180D01*
X115619121Y-99863531D01*
X115823374Y-99614647D01*
X115975148Y-99330699D01*
X116068610Y-99022596D01*
X116100168Y-98702180D01*
X116068610Y-98381764D01*
X115975148Y-98073661D01*
X115823374Y-97789713D01*
X115619121Y-97540829D01*
X115486731Y-97432180D01*
X115619121Y-97323531D01*
X115823374Y-97074647D01*
X115975148Y-96790699D01*
X116068610Y-96482596D01*
X116100168Y-96162180D01*
X116068610Y-95841764D01*
X115975148Y-95533661D01*
X115823374Y-95249713D01*
X115619121Y-95000829D01*
X115486731Y-94892180D01*
X115619121Y-94783531D01*
X115823374Y-94534647D01*
X115975148Y-94250699D01*
X116068610Y-93942596D01*
X116100168Y-93622180D01*
X116068610Y-93301764D01*
X115975148Y-92993661D01*
X115880712Y-92816983D01*
X119742303Y-92816983D01*
X119742303Y-93054643D01*
X119788668Y-93287736D01*
X119879616Y-93507305D01*
X120011653Y-93704912D01*
X120179704Y-93872963D01*
X120377311Y-94005000D01*
X120596880Y-94095948D01*
X120829973Y-94142313D01*
X121067633Y-94142313D01*
X121300726Y-94095948D01*
X121520295Y-94005000D01*
X121717902Y-93872963D01*
X121885953Y-93704912D01*
X122017990Y-93507305D01*
X122108938Y-93287736D01*
X122155303Y-93054643D01*
X122155303Y-92816983D01*
X122108938Y-92583890D01*
X122017990Y-92364321D01*
X121885953Y-92166714D01*
X121717902Y-91998663D01*
X121520295Y-91866626D01*
X121300726Y-91775678D01*
X121067633Y-91729313D01*
X120829973Y-91729313D01*
X120596880Y-91775678D01*
X120377311Y-91866626D01*
X120179704Y-91998663D01*
X120011653Y-92166714D01*
X119879616Y-92364321D01*
X119788668Y-92583890D01*
X119742303Y-92816983D01*
X115880712Y-92816983D01*
X115823374Y-92709713D01*
X115619121Y-92460829D01*
X115486731Y-92352180D01*
X115619121Y-92243531D01*
X115823374Y-91994647D01*
X115975148Y-91710699D01*
X116068610Y-91402596D01*
X116100168Y-91082180D01*
X116068610Y-90761764D01*
X115975148Y-90453661D01*
X115880712Y-90276983D01*
X119742303Y-90276983D01*
X119742303Y-90514643D01*
X119788668Y-90747736D01*
X119879616Y-90967305D01*
X120011653Y-91164912D01*
X120179704Y-91332963D01*
X120377311Y-91465000D01*
X120596880Y-91555948D01*
X120829973Y-91602313D01*
X121067633Y-91602313D01*
X121300726Y-91555948D01*
X121520295Y-91465000D01*
X121717902Y-91332963D01*
X121885953Y-91164912D01*
X122017990Y-90967305D01*
X122108938Y-90747736D01*
X122155303Y-90514643D01*
X122155303Y-90276983D01*
X122108938Y-90043890D01*
X122017990Y-89824321D01*
X121885953Y-89626714D01*
X121717902Y-89458663D01*
X121520295Y-89326626D01*
X121300726Y-89235678D01*
X121067633Y-89189313D01*
X120829973Y-89189313D01*
X120596880Y-89235678D01*
X120377311Y-89326626D01*
X120179704Y-89458663D01*
X120011653Y-89626714D01*
X119879616Y-89824321D01*
X119788668Y-90043890D01*
X119742303Y-90276983D01*
X115880712Y-90276983D01*
X115823374Y-90169713D01*
X115619121Y-89920829D01*
X115370237Y-89716576D01*
X115086289Y-89564802D01*
X114778186Y-89471340D01*
X114538062Y-89447690D01*
X113628178Y-89447690D01*
X113388054Y-89471340D01*
X113079951Y-89564802D01*
X112796003Y-89716576D01*
X112547119Y-89920829D01*
X112342866Y-90169713D01*
X112318602Y-90215108D01*
X112168667Y-90260591D01*
X112014921Y-90342769D01*
X112006109Y-90350001D01*
X111913933Y-90425648D01*
X111913931Y-90425650D01*
X111880163Y-90453363D01*
X111852450Y-90487131D01*
X110079956Y-92259626D01*
X110046183Y-92287343D01*
X109935589Y-92422102D01*
X109853411Y-92575848D01*
X109826101Y-92665876D01*
X109802805Y-92742670D01*
X109801790Y-92752977D01*
X109790000Y-92872684D01*
X109790000Y-92872691D01*
X109785719Y-92916160D01*
X109790000Y-92959629D01*
X109790000Y-93371284D01*
X109760518Y-93374188D01*
X109640820Y-93410498D01*
X109530506Y-93469463D01*
X109433815Y-93548815D01*
X109354463Y-93645506D01*
X109295498Y-93755820D01*
X109259188Y-93875518D01*
X109246928Y-94000000D01*
X106853072Y-94000000D01*
X106840812Y-93875518D01*
X106804502Y-93755820D01*
X106745537Y-93645506D01*
X106666185Y-93548815D01*
X106569494Y-93469463D01*
X106459180Y-93410498D01*
X106339482Y-93374188D01*
X106215000Y-93361928D01*
X104635000Y-93361928D01*
X104594524Y-93365914D01*
X105725196Y-92598075D01*
X107585992Y-91515918D01*
X109517731Y-90566205D01*
X111511018Y-89753555D01*
X113556135Y-89081929D01*
X115643117Y-88554600D01*
X117761808Y-88174136D01*
X119901877Y-87942390D01*
X122052894Y-87860493D01*
X124204388Y-87928842D01*
G36*
X136129021Y-121867346D02*
G01*
X136278235Y-121947103D01*
X136440141Y-121996216D01*
X136608518Y-122012800D01*
X137108518Y-122012800D01*
X137276895Y-121996216D01*
X137438801Y-121947103D01*
X137588015Y-121867346D01*
X137637177Y-121827000D01*
X140123000Y-121827000D01*
X140123000Y-124273000D01*
X135086307Y-124273000D01*
X135057796Y-124179013D01*
X134980349Y-124034121D01*
X134876124Y-123907123D01*
X134749126Y-123802898D01*
X134604234Y-123725451D01*
X134480596Y-123687946D01*
X134472238Y-123677762D01*
X134444187Y-123654741D01*
X134426590Y-123637144D01*
X134426590Y-122159729D01*
X134414330Y-122035247D01*
X134378020Y-121915549D01*
X134330689Y-121827000D01*
X136079859Y-121827000D01*
X136129021Y-121867346D01*
G37*
X136129021Y-121867346D02*
X136278235Y-121947103D01*
X136440141Y-121996216D01*
X136608518Y-122012800D01*
X137108518Y-122012800D01*
X137276895Y-121996216D01*
X137438801Y-121947103D01*
X137588015Y-121867346D01*
X137637177Y-121827000D01*
X140123000Y-121827000D01*
X140123000Y-124273000D01*
X135086307Y-124273000D01*
X135057796Y-124179013D01*
X134980349Y-124034121D01*
X134876124Y-123907123D01*
X134749126Y-123802898D01*
X134604234Y-123725451D01*
X134480596Y-123687946D01*
X134472238Y-123677762D01*
X134444187Y-123654741D01*
X134426590Y-123637144D01*
X134426590Y-122159729D01*
X134414330Y-122035247D01*
X134378020Y-121915549D01*
X134330689Y-121827000D01*
X136079859Y-121827000D01*
X136129021Y-121867346D01*
G36*
X140786595Y-112443386D02*
G01*
X140897038Y-112577962D01*
X141023000Y-112681336D01*
X141023000Y-118073000D01*
X134418389Y-118073000D01*
X134426590Y-117989729D01*
X134426590Y-116419729D01*
X134414330Y-116295247D01*
X134396748Y-116237287D01*
X134496831Y-116115336D01*
X134574278Y-115970444D01*
X134621969Y-115813228D01*
X134638072Y-115649728D01*
X134638072Y-115099728D01*
X134621969Y-114936228D01*
X134588835Y-114827000D01*
X137774303Y-114827000D01*
X137859392Y-114896831D01*
X138004284Y-114974278D01*
X138161500Y-115021969D01*
X138325000Y-115038072D01*
X138725000Y-115038072D01*
X138888500Y-115021969D01*
X139045716Y-114974278D01*
X139190608Y-114896831D01*
X139317606Y-114792606D01*
X139421831Y-114665608D01*
X139499278Y-114520716D01*
X139546969Y-114363500D01*
X139563072Y-114200000D01*
X139563072Y-113000000D01*
X139546969Y-112836500D01*
X139499278Y-112679284D01*
X139421831Y-112534392D01*
X139317606Y-112407394D01*
X139277000Y-112374069D01*
X139277000Y-112327000D01*
X140724385Y-112327000D01*
X140786595Y-112443386D01*
G37*
X140786595Y-112443386D02*
X140897038Y-112577962D01*
X141023000Y-112681336D01*
X141023000Y-118073000D01*
X134418389Y-118073000D01*
X134426590Y-117989729D01*
X134426590Y-116419729D01*
X134414330Y-116295247D01*
X134396748Y-116237287D01*
X134496831Y-116115336D01*
X134574278Y-115970444D01*
X134621969Y-115813228D01*
X134638072Y-115649728D01*
X134638072Y-115099728D01*
X134621969Y-114936228D01*
X134588835Y-114827000D01*
X137774303Y-114827000D01*
X137859392Y-114896831D01*
X138004284Y-114974278D01*
X138161500Y-115021969D01*
X138325000Y-115038072D01*
X138725000Y-115038072D01*
X138888500Y-115021969D01*
X139045716Y-114974278D01*
X139190608Y-114896831D01*
X139317606Y-114792606D01*
X139421831Y-114665608D01*
X139499278Y-114520716D01*
X139546969Y-114363500D01*
X139563072Y-114200000D01*
X139563072Y-113000000D01*
X139546969Y-112836500D01*
X139499278Y-112679284D01*
X139421831Y-112534392D01*
X139317606Y-112407394D01*
X139277000Y-112374069D01*
X139277000Y-112327000D01*
X140724385Y-112327000D01*
X140786595Y-112443386D01*
G36*
X134023000Y-140073000D02*
G01*
X122277000Y-140073000D01*
X122277000Y-129327000D01*
X134023000Y-129327000D01*
X134023000Y-140073000D01*
G37*
X134023000Y-140073000D02*
X122277000Y-140073000D01*
X122277000Y-129327000D01*
X134023000Y-129327000D01*
X134023000Y-140073000D01*
G36*
X139523000Y-131573000D02*
G01*
X136277000Y-131573000D01*
X136277000Y-125327000D01*
X139523000Y-125327000D01*
X139523000Y-131573000D01*
G37*
X139523000Y-131573000D02*
X136277000Y-131573000D01*
X136277000Y-125327000D01*
X139523000Y-125327000D01*
X139523000Y-131573000D01*
G36*
X110023000Y-122461108D02*
G01*
X109927216Y-122539716D01*
X109819882Y-122670503D01*
X109740125Y-122819717D01*
X109691012Y-122981623D01*
X109674428Y-123150000D01*
X109674428Y-123650000D01*
X109691012Y-123818377D01*
X109707934Y-123874161D01*
X109606892Y-123928169D01*
X109479894Y-124032394D01*
X109375669Y-124159392D01*
X109298222Y-124304284D01*
X109250531Y-124461500D01*
X109234428Y-124625000D01*
X109234428Y-125175000D01*
X109250531Y-125338500D01*
X109298222Y-125495716D01*
X109375669Y-125640608D01*
X109479894Y-125767606D01*
X109606892Y-125871831D01*
X109751784Y-125949278D01*
X109909000Y-125996969D01*
X110023000Y-126008197D01*
X110023000Y-126200000D01*
X110025440Y-126224776D01*
X110032667Y-126248601D01*
X110044403Y-126270557D01*
X110060197Y-126289803D01*
X110079443Y-126305597D01*
X110101399Y-126317333D01*
X110125224Y-126324560D01*
X110150000Y-126327000D01*
X113989609Y-126327000D01*
X114010009Y-126394250D01*
X114068974Y-126504564D01*
X114148326Y-126601255D01*
X114245017Y-126680607D01*
X114355331Y-126739572D01*
X114475029Y-126775882D01*
X114523000Y-126780607D01*
X114523000Y-128573000D01*
X107277000Y-128573000D01*
X107277000Y-120827000D01*
X110023000Y-120827000D01*
X110023000Y-122461108D01*
G37*
X110023000Y-122461108D02*
X109927216Y-122539716D01*
X109819882Y-122670503D01*
X109740125Y-122819717D01*
X109691012Y-122981623D01*
X109674428Y-123150000D01*
X109674428Y-123650000D01*
X109691012Y-123818377D01*
X109707934Y-123874161D01*
X109606892Y-123928169D01*
X109479894Y-124032394D01*
X109375669Y-124159392D01*
X109298222Y-124304284D01*
X109250531Y-124461500D01*
X109234428Y-124625000D01*
X109234428Y-125175000D01*
X109250531Y-125338500D01*
X109298222Y-125495716D01*
X109375669Y-125640608D01*
X109479894Y-125767606D01*
X109606892Y-125871831D01*
X109751784Y-125949278D01*
X109909000Y-125996969D01*
X110023000Y-126008197D01*
X110023000Y-126200000D01*
X110025440Y-126224776D01*
X110032667Y-126248601D01*
X110044403Y-126270557D01*
X110060197Y-126289803D01*
X110079443Y-126305597D01*
X110101399Y-126317333D01*
X110125224Y-126324560D01*
X110150000Y-126327000D01*
X113989609Y-126327000D01*
X114010009Y-126394250D01*
X114068974Y-126504564D01*
X114148326Y-126601255D01*
X114245017Y-126680607D01*
X114355331Y-126739572D01*
X114475029Y-126775882D01*
X114523000Y-126780607D01*
X114523000Y-128573000D01*
X107277000Y-128573000D01*
X107277000Y-120827000D01*
X110023000Y-120827000D01*
X110023000Y-122461108D01*
G36*
X119290840Y-119188969D02*
G01*
X119332795Y-119290256D01*
X119365000Y-119338454D01*
X119365000Y-119483041D01*
X119356928Y-119565000D01*
X119356928Y-120735000D01*
X119361579Y-120782225D01*
X119354680Y-120785913D01*
X119242762Y-120877762D01*
X119219741Y-120905813D01*
X118805808Y-121319746D01*
X118777763Y-121342762D01*
X118700935Y-121436376D01*
X118605000Y-121426928D01*
X118095000Y-121426928D01*
X117970518Y-121439188D01*
X117850820Y-121475498D01*
X117740506Y-121534463D01*
X117643815Y-121613815D01*
X117564463Y-121710506D01*
X117534435Y-121766683D01*
X117421510Y-121777805D01*
X117254687Y-121828411D01*
X117137528Y-121891033D01*
X117100941Y-121910589D01*
X116999953Y-121993468D01*
X116999951Y-121993470D01*
X116966183Y-122021183D01*
X116938470Y-122054951D01*
X116920421Y-122073000D01*
X116111254Y-122073000D01*
X116075411Y-122005941D01*
X115964817Y-121871183D01*
X115830059Y-121760589D01*
X115676313Y-121678411D01*
X115509490Y-121627805D01*
X115336000Y-121610718D01*
X115162511Y-121627805D01*
X114995688Y-121678411D01*
X114841942Y-121760589D01*
X114707184Y-121871183D01*
X114596590Y-122005941D01*
X114560747Y-122073000D01*
X113777000Y-122073000D01*
X113777000Y-120200000D01*
X113774560Y-120175224D01*
X113767333Y-120151399D01*
X113755597Y-120129443D01*
X113739803Y-120110197D01*
X113720557Y-120094403D01*
X113698601Y-120082667D01*
X113674776Y-120075440D01*
X113650000Y-120073000D01*
X111777000Y-120073000D01*
X111777000Y-119841414D01*
X111783988Y-119818377D01*
X111800572Y-119650000D01*
X111800572Y-119150000D01*
X111783988Y-118981623D01*
X111777000Y-118958586D01*
X111777000Y-118700000D01*
X111774560Y-118675224D01*
X111767333Y-118651399D01*
X111755597Y-118629443D01*
X111739803Y-118610197D01*
X111720557Y-118594403D01*
X111698601Y-118582667D01*
X111674776Y-118575440D01*
X111650000Y-118573000D01*
X111575099Y-118573000D01*
X111547784Y-118539716D01*
X111416997Y-118432382D01*
X111267783Y-118352625D01*
X111105877Y-118303512D01*
X110937500Y-118286928D01*
X110487500Y-118286928D01*
X110319123Y-118303512D01*
X110157217Y-118352625D01*
X110008003Y-118432382D01*
X109877216Y-118539716D01*
X109849901Y-118573000D01*
X108277000Y-118573000D01*
X108277000Y-116227000D01*
X112124788Y-116227000D01*
X119290840Y-119188969D01*
G37*
X119290840Y-119188969D02*
X119332795Y-119290256D01*
X119365000Y-119338454D01*
X119365000Y-119483041D01*
X119356928Y-119565000D01*
X119356928Y-120735000D01*
X119361579Y-120782225D01*
X119354680Y-120785913D01*
X119242762Y-120877762D01*
X119219741Y-120905813D01*
X118805808Y-121319746D01*
X118777763Y-121342762D01*
X118700935Y-121436376D01*
X118605000Y-121426928D01*
X118095000Y-121426928D01*
X117970518Y-121439188D01*
X117850820Y-121475498D01*
X117740506Y-121534463D01*
X117643815Y-121613815D01*
X117564463Y-121710506D01*
X117534435Y-121766683D01*
X117421510Y-121777805D01*
X117254687Y-121828411D01*
X117137528Y-121891033D01*
X117100941Y-121910589D01*
X116999953Y-121993468D01*
X116999951Y-121993470D01*
X116966183Y-122021183D01*
X116938470Y-122054951D01*
X116920421Y-122073000D01*
X116111254Y-122073000D01*
X116075411Y-122005941D01*
X115964817Y-121871183D01*
X115830059Y-121760589D01*
X115676313Y-121678411D01*
X115509490Y-121627805D01*
X115336000Y-121610718D01*
X115162511Y-121627805D01*
X114995688Y-121678411D01*
X114841942Y-121760589D01*
X114707184Y-121871183D01*
X114596590Y-122005941D01*
X114560747Y-122073000D01*
X113777000Y-122073000D01*
X113777000Y-120200000D01*
X113774560Y-120175224D01*
X113767333Y-120151399D01*
X113755597Y-120129443D01*
X113739803Y-120110197D01*
X113720557Y-120094403D01*
X113698601Y-120082667D01*
X113674776Y-120075440D01*
X113650000Y-120073000D01*
X111777000Y-120073000D01*
X111777000Y-119841414D01*
X111783988Y-119818377D01*
X111800572Y-119650000D01*
X111800572Y-119150000D01*
X111783988Y-118981623D01*
X111777000Y-118958586D01*
X111777000Y-118700000D01*
X111774560Y-118675224D01*
X111767333Y-118651399D01*
X111755597Y-118629443D01*
X111739803Y-118610197D01*
X111720557Y-118594403D01*
X111698601Y-118582667D01*
X111674776Y-118575440D01*
X111650000Y-118573000D01*
X111575099Y-118573000D01*
X111547784Y-118539716D01*
X111416997Y-118432382D01*
X111267783Y-118352625D01*
X111105877Y-118303512D01*
X110937500Y-118286928D01*
X110487500Y-118286928D01*
X110319123Y-118303512D01*
X110157217Y-118352625D01*
X110008003Y-118432382D01*
X109877216Y-118539716D01*
X109849901Y-118573000D01*
X108277000Y-118573000D01*
X108277000Y-116227000D01*
X112124788Y-116227000D01*
X119290840Y-119188969D01*
G36*
X114373000Y-132173000D02*
G01*
X104827000Y-132173000D01*
X104827000Y-129427000D01*
X114373000Y-129427000D01*
X114373000Y-132173000D01*
G37*
X114373000Y-132173000D02*
X104827000Y-132173000D01*
X104827000Y-129427000D01*
X114373000Y-129427000D01*
X114373000Y-132173000D01*
G36*
X101723000Y-111473000D02*
G01*
X96977000Y-111473000D01*
X96977000Y-108727000D01*
X101723000Y-108727000D01*
X101723000Y-111473000D01*
G37*
X101723000Y-111473000D02*
X96977000Y-111473000D01*
X96977000Y-108727000D01*
X101723000Y-108727000D01*
X101723000Y-111473000D01*
M02*
