M48
; DRILL file {KiCad 5.1.5+dfsg1-2build2} date Thu 18 Mar 2021 06:11:26 PM JST
; FORMAT={-:-/ absolute / metric / decimal}
; #@! TF.CreationDate,2021-03-18T18:11:26+09:00
; #@! TF.GenerationSoftware,Kicad,Pcbnew,5.1.5+dfsg1-2build2
; #@! TF.FileFunction,Plated,1,2,PTH
FMAT,2
METRIC
T1C0.300
T2C0.400
%
G90
G05
T1
X97.35Y-109.1
X97.35Y-111.1
X98.35Y-110.1
X99.35Y-109.1
X99.35Y-111.1
X100.35Y-110.1
X101.35Y-109.1
X101.35Y-111.1
X105.35Y-130.0
X105.35Y-131.5
X106.45Y-130.8
X107.5Y-130.0
X107.5Y-131.5
X108.5Y-130.75
X109.5Y-130.0
X109.5Y-131.5
X111.55Y-124.9
X112.4Y-114.25
X113.9Y-114.25
X113.95Y-115.6
X115.5Y-134.0
X115.65Y-114.25
X115.65Y-115.7
X116.35Y-106.3
X117.15Y-114.25
X117.15Y-115.7
X117.15Y-116.95
X118.65Y-114.25
X118.65Y-115.7
X118.65Y-117.2
X120.25Y-118.8
X121.15Y-102.2
X121.15Y-105.2
X121.75Y-122.7
X122.15Y-100.7
X122.15Y-103.7
X123.15Y-99.2
X123.15Y-102.2
X123.15Y-105.2
X124.65Y-97.7
X124.65Y-100.7
X124.65Y-103.7
X124.65Y-123.2
X125.65Y-94.7
X125.65Y-96.2
X125.65Y-99.2
X125.65Y-102.2
X125.65Y-105.2
X126.15Y-93.2
X127.15Y-94.7
X127.15Y-97.7
X127.15Y-100.7
X127.15Y-103.7
X127.65Y-93.2
X127.65Y-96.2
X127.65Y-99.2
X127.65Y-102.2
X127.65Y-105.2
X141.15Y-135.2
T2
X113.15Y-138.7
X123.65Y-130.7
X123.65Y-132.7
X123.65Y-134.7
X123.65Y-136.7
X123.65Y-138.7
X126.15Y-89.2
X126.15Y-91.45
X126.15Y-130.7
X126.15Y-132.7
X126.15Y-134.7
X126.15Y-136.7
X126.15Y-138.7
X126.9Y-90.2
X127.15Y-125.775
X127.65Y-89.2
X127.65Y-91.45
X128.15Y-136.7
X128.15Y-138.7
X128.65Y-130.7
X128.65Y-132.2
X128.65Y-133.7
X129.15Y-108.619
X130.65Y-130.7
X130.65Y-132.2
X130.65Y-133.7
X130.65Y-136.7
X130.65Y-138.7
X132.65Y-130.7
X132.65Y-132.2
X132.65Y-133.7
X133.15Y-91.2
X133.15Y-98.7
X133.15Y-136.7
X133.15Y-138.7
X134.4Y-91.2
T0
M30
